<svg width="148" height="63" viewBox="0 0 148 63" fill="none" xmlns="http://www.w3.org/2000/svg">
<path d="M52.0674 48.2373C52.0674 48.2373 56.4411 59.9969 57.8067 61.1658C59.4875 62.6045 81.317 63.9041 87.5489 61.1077C89.0535 59.9614 93.2187 48.6557 92.5677 47.5113C91.9167 46.3669 68.5861 35.9397 68.3712 35.872C68.1562 35.8044 52.0674 48.2373 52.0674 48.2373Z" fill="url(#paint0_linear_12248_313504)"/>
<path d="M66.5811 40.9964C66.5811 40.9964 66.3002 41.5369 65.5281 42.3371C63.4434 44.5202 57.6943 48.6477 43.971 48.9636C0.175546 50.1008 0.0070704 26.9712 3.01156e-05 24.5635C-0.00701017 23.8475 1.22142 21.3555 2.54122 21.0536C3.53795 20.822 17.5491 21.896 23.1788 22.5839C24.5897 22.7594 25.4742 22.9068 25.4883 23.0051C26.0147 30.2002 32.5922 33.1133 39.8995 34.0961H39.9136C49.5444 35.3877 60.453 33.3309 60.453 33.3309L66.5811 40.9964Z" fill="url(#paint1_linear_12248_313504)"/>
<path d="M92.8828 46.591C92.8828 46.591 92.7705 46.935 92.5669 47.5105C91.6614 50.1289 89.022 57.6118 87.8006 59.3737C86.3125 61.5218 60.1294 60.3775 58.192 59.9493C57.1109 59.7106 55.5104 55.8218 54.3171 52.4594C54.3171 52.4547 54.3147 52.45 54.31 52.4454V52.4383C53.3694 49.813 52.6885 47.5105 52.6885 47.5105L55.5596 42.8074L65.5274 38.3921H81.504L92.8828 46.591Z" fill="url(#paint2_linear_12248_313504)"/>
<path d="M84.9236 52.5505C84.9421 50.9231 79.5424 50.011 72.8919 50.011C66.2414 50.011 60.9337 50.8212 60.8501 52.4465C60.747 54.4498 66.2414 55.9044 72.8919 55.9044C79.5424 55.9044 84.9027 54.3879 84.9236 52.5505Z" fill="#FFE83E"/>
<path d="M84.9187 52.3582C84.9372 53.9855 79.5374 54.8977 72.8869 54.8977C66.2364 54.8977 60.9288 54.0874 60.8452 52.4622C60.742 50.4588 66.2364 49.0042 72.8869 49.0042C79.5374 49.0042 84.8978 50.5207 84.9187 52.3582Z" fill="url(#paint3_linear_12248_313504)"/>
<g opacity="0.68" style="mix-blend-mode:soft-light">
<path d="M35.3293 34.0216C35.3293 34.0216 28.2095 37.0339 29.4774 43.9654C30.0491 47.0904 59.7238 48.2977 60.2055 42.5717C60.6873 36.8456 57.3345 34.7726 55.9386 35.0289C54.5429 35.2851 42.5466 36.1877 35.3293 34.0216Z" fill="#FFD13B"/>
</g>
<path d="M80.4531 40.9964C80.4531 40.9964 80.7341 41.5369 81.5061 42.3371C83.5909 44.5202 89.3399 48.6477 103.063 48.9636C146.859 50.1008 147.027 26.9712 147.034 24.5635C147.041 23.8475 145.813 21.3555 144.493 21.0536C143.496 20.822 129.485 21.896 123.855 22.5839C122.445 22.7594 121.56 22.9068 121.546 23.0051C121.02 30.2002 114.442 33.1133 107.135 34.0961H107.121C97.4898 35.3877 86.5812 33.3309 86.5812 33.3309L80.4531 40.9964Z" fill="url(#paint4_linear_12248_313504)"/>
<g opacity="0.68" style="mix-blend-mode:soft-light">
<path d="M111.704 34.0216C111.704 34.0216 118.824 37.0339 117.556 43.9654C116.985 47.0904 87.3099 48.2977 86.8282 42.5717C86.3465 36.8456 89.6992 34.7726 91.0951 35.0289C92.4909 35.2851 104.487 36.1877 111.704 34.0216Z" fill="#FFD13B"/>
</g>
<g opacity="0.68" style="mix-blend-mode:soft-light">
<path d="M140.611 33.0408C140.611 33.0408 133.17 40.6269 130.486 41.8665C120.814 46.3339 110.569 47.4528 110.569 47.4528C110.569 47.4528 135.842 49.2424 140.611 33.0408Z" fill="#FFD13B"/>
</g>
<path d="M81.5059 42.3371C83.5907 44.5203 89.3397 48.6477 103.063 48.9636C146.858 50.1008 147.027 26.9712 147.034 24.5635C147.041 23.8476 145.813 21.3555 144.493 21.0537C144.493 21.0537 143.526 43.2141 118.565 46.6256C93.596 50.0442 83.2637 44.2347 83.0501 40.7016C82.9865 39.6482 82.2219 40.7788 81.5059 42.3371Z" fill="url(#paint5_linear_12248_313504)"/>
<path d="M86.2373 37.3182C86.2443 37.3182 86.2514 37.3252 86.2584 37.3252C90.0069 38.4484 95.5945 38.7361 100.178 37.9429H100.185C101.119 37.7815 102.01 37.5709 102.839 37.3182C93.7063 38.9818 87.1569 35.8721 87.1569 35.8721L86.5883 36.7706H86.5812C86.5112 36.8759 86.4549 36.9812 86.3987 37.0724C86.3497 37.1497 86.2935 37.2269 86.2373 37.3182Z" fill="url(#paint6_linear_12248_313504)"/>
<path d="M93.1449 42.6249C93.7485 42.7092 94.3312 42.7653 94.8787 42.7864C94.9069 42.7864 94.935 42.7934 94.9559 42.7934C95.0332 42.7934 95.1105 42.8005 95.1876 42.8005C96.1562 42.8285 96.9917 42.7584 97.5674 42.5477C94.1417 42.7232 84.967 38.701 84.967 38.701L84.4056 39.7399C84.0125 40.4559 89.0103 42.0844 93.1449 42.6249Z" fill="url(#paint7_linear_12248_313504)"/>
<path d="M86.2578 37.3252C90.0064 38.4484 95.5939 38.7362 100.178 37.943C99.8198 37.9711 90.259 38.6099 86.5877 36.7707H86.5807C86.5106 36.876 86.4544 36.9812 86.3982 37.0725C86.3492 37.1638 86.3 37.248 86.2578 37.3252Z" fill="#FFE83E"/>
<path d="M93.1449 42.625C93.4608 42.6531 93.7485 42.6741 94.0154 42.6952C89.6563 42.1196 84.4056 39.7399 84.4056 39.7399C84.0125 40.456 89.0103 42.0845 93.1449 42.625Z" fill="#FFE83E"/>
<path d="M141.743 23.0034C141.743 23.0034 136.769 38.9914 131.015 39.5766C125.26 40.1618 117.164 36.0168 118.823 31.4816C120.483 26.9463 125.596 23.814 126.16 23.8441C126.723 23.8742 141.06 22.6203 141.743 23.0034Z" fill="#FFD13B"/>
<path d="M107.135 34.0961C122.15 34.0961 123.856 22.5839 123.856 22.5839C122.445 22.7594 121.56 22.9069 121.546 23.0052C121.02 30.2003 114.442 33.1134 107.135 34.0961Z" fill="#FFE83E"/>
<g opacity="0.68" style="mix-blend-mode:soft-light">
<path d="M107.135 35.0129C107.135 35.0129 105.17 39.4225 106.73 42.5718C108.291 45.721 111.594 46.0175 111.594 46.0175C111.594 46.0175 103.018 46.6875 101.756 46.6256C100.494 46.5637 109.362 42.8849 99.9023 35.4277C103.016 35.3272 107.135 35.0129 107.135 35.0129Z" fill="#FFD13B"/>
</g>
<path d="M105.126 47.5114C105.126 47.5114 99.1185 38.8239 96.3369 47.3929C98.3486 48.0824 103.893 49.3138 105.126 47.5114Z" fill="url(#paint8_linear_12248_313504)"/>
<path d="M137.08 27.5234C137.754 29.0106 140.667 28.551 141.524 26.6873C141.805 26.0809 141.72 25.6399 141.608 25.2512C140.611 21.7963 138.49 22.1681 137.67 22.5839C135.784 23.5409 136.757 26.8149 137.08 27.5234Z" fill="url(#paint9_linear_12248_313504)"/>
<path d="M137.08 27.5234C137.754 29.0106 140.667 28.551 141.523 26.6873C141.804 26.0809 141.797 25.6086 141.608 25.2512C141.229 26.1703 140.084 29.5404 137.08 27.5234Z" fill="#FFE83E"/>
<g opacity="0.68" style="mix-blend-mode:soft-light">
<path d="M6.42285 33.0408C6.42285 33.0408 13.6066 41.5651 16.5474 41.8665C19.4882 42.1679 24.0417 41.5038 26.6978 45.2035C28.4691 46.6257 36.4643 47.4529 36.4643 47.4529C36.4643 47.4529 11.1919 49.2424 6.42285 33.0408Z" fill="#FFD13B"/>
</g>
<path d="M65.5281 42.3371C63.4433 44.5203 57.6943 48.6477 43.971 48.9636C0.175546 50.1008 0.0070704 26.9712 3.01156e-05 24.5635C-0.00701016 23.8476 1.22142 21.3555 2.54122 21.0537C2.54122 21.0537 3.50762 43.2141 28.4694 46.6256C53.438 50.0442 63.7703 44.2347 63.9838 40.7016C64.0475 39.6482 64.8121 40.7788 65.5281 42.3371Z" fill="url(#paint10_linear_12248_313504)"/>
<path d="M60.7966 37.3182C60.7896 37.3182 60.7826 37.3252 60.7755 37.3252C57.027 38.4484 51.4394 38.7361 46.8556 37.9429H46.8485C45.9151 37.7815 45.0236 37.5709 44.1953 37.3182C53.3277 38.9818 59.877 35.8721 59.877 35.8721L60.4456 36.7706H60.4527C60.5228 36.8759 60.5789 36.9812 60.6351 37.0724C60.6842 37.1497 60.7404 37.2269 60.7966 37.3182Z" fill="url(#paint11_linear_12248_313504)"/>
<path d="M53.8891 42.6249C53.2856 42.7092 52.7029 42.7653 52.1554 42.7864C52.1273 42.7864 52.0991 42.7934 52.0783 42.7934C52.001 42.7934 51.9236 42.8005 51.8466 42.8005C50.8779 42.8285 50.0424 42.7583 49.4668 42.5477C52.8924 42.7232 62.0671 38.701 62.0671 38.701L62.6286 39.7399C63.0217 40.4559 58.0238 42.0844 53.8891 42.6249Z" fill="url(#paint12_linear_12248_313504)"/>
<path d="M60.7754 37.3252C57.0269 38.4484 51.4393 38.7361 46.8555 37.943C47.2135 37.9711 56.7743 38.6098 60.4455 36.7707H60.4526C60.5227 36.876 60.5788 36.9812 60.635 37.0725C60.6841 37.1638 60.7333 37.248 60.7754 37.3252Z" fill="#FFE83E"/>
<path d="M53.8899 42.625C53.5741 42.6531 53.2864 42.6741 53.0195 42.6952C57.3787 42.1196 62.6294 39.74 62.6294 39.74C63.0225 40.456 58.0246 42.0845 53.8899 42.625Z" fill="#FFE83E"/>
<path d="M60.8243 27.1397V27.1468C60.6347 27.3153 60.4312 27.4837 60.2065 27.6522C59.8484 27.926 59.4975 28.1084 59.1536 28.1927C57.9391 28.5297 56.8511 27.7785 55.9386 26.5711V26.5642C53.8958 23.8686 52.6885 18.8636 52.6885 18.3161C52.6885 17.4527 53.3905 15.8593 54.4926 15.3188C56.6336 16.0207 58.2269 16.8911 59.3923 17.7335C59.7714 18.0072 60.1013 18.274 60.3961 18.5337C61.7648 19.7411 62.2352 20.7168 62.2352 20.7168C62.2352 20.7168 64.4955 23.8686 60.8243 27.1397Z" fill="url(#paint13_linear_12248_313504)"/>
<path d="M60.8243 27.1397V27.1468C60.6347 27.3153 60.4312 27.4837 60.2065 27.6522C55.6789 31.0918 52.6885 19.1796 52.6885 18.3161C52.6885 17.4527 53.3905 15.8593 54.4926 15.3188C54.4926 15.3188 54.5488 24.0792 59.4766 25.5814C60.5785 25.9183 60.9365 26.4799 60.8243 27.1397Z" fill="url(#paint14_linear_12248_313504)"/>
<g opacity="0.3" style="mix-blend-mode:multiply">
<path d="M60.2073 25.82L59.1544 28.1927C57.94 28.5296 56.8519 27.7785 55.9395 26.5711V26.5641C55.9395 26.5641 57.3153 25.9604 57.3012 24.1985C57.9894 19.3295 59.3931 17.7335 59.3931 17.7335C59.7722 18.0072 60.1021 18.274 60.3969 18.5337C60.5934 20.4781 60.2073 25.82 60.2073 25.82Z" fill="#CC8DC7"/>
</g>
<g opacity="0.3" style="mix-blend-mode:multiply">
<path d="M53.2666 17.7557C53.2666 17.7557 53.4094 24.6052 57.4319 27.5547C58.3859 27.651 57.4319 25.2208 57.4319 25.2208C57.4319 25.2208 55.046 22.0898 54.5875 19.3578C53.9697 15.6765 53.6869 17.0102 53.2666 17.7557Z" fill="#A06A9A"/>
</g>
<path d="M54.4932 15.3188C54.4932 15.3188 58.0905 17.8214 59.2037 17.5993C58.8643 17.3698 56.1904 15.7195 54.4932 15.3188Z" fill="#FFE83E"/>
<g opacity="0.68" style="mix-blend-mode:soft-light">
<path d="M55.2264 16.6104C55.0702 17.9595 55.79 22.2239 56.8481 21.7949C57.9062 21.366 58.0386 18.6029 57.8564 18.1495C57.459 17.1598 55.2943 16.023 55.2264 16.6104Z" fill="#FFD13B"/>
</g>
<g opacity="0.68" style="mix-blend-mode:soft-light">
<path d="M55.5618 16.8736C55.5618 16.8736 55.5149 21.1217 56.7664 20.9519C58.018 20.7822 55.8841 15.9731 55.5618 16.8736Z" fill="#FFD13B"/>
</g>
<path d="M86.2301 27.1397V27.1468C86.4196 27.3153 86.6232 27.4837 86.8479 27.6522C87.2059 27.926 87.557 28.1084 87.9009 28.1927C89.1152 28.5297 90.2033 27.7785 91.1157 26.5711V26.5642C93.1586 23.8686 94.3659 18.8636 94.3659 18.3161C94.3659 17.4527 93.6639 15.8593 92.5618 15.3188C90.4208 16.0207 88.8275 16.8911 87.6621 17.7335C87.2831 18.0072 86.9532 18.274 86.6584 18.5337C85.2896 19.7411 84.8192 20.7168 84.8192 20.7168C84.8192 20.7168 82.5589 23.8686 86.2301 27.1397Z" fill="url(#paint15_linear_12248_313504)"/>
<path d="M86.2306 27.1398V27.1468C86.4201 27.3153 86.6237 27.4838 86.8484 27.6522C91.3761 31.0918 94.3664 19.1796 94.3664 18.3161C94.3664 17.4527 93.6644 15.8593 92.5623 15.3188C92.5623 15.3188 92.5061 24.0792 87.5783 25.5814C86.4764 25.9184 86.1184 26.4799 86.2306 27.1398Z" fill="url(#paint16_linear_12248_313504)"/>
<g opacity="0.3" style="mix-blend-mode:multiply">
<path d="M86.8479 25.82L87.9008 28.1927C89.1152 28.5296 90.2033 27.7785 91.1157 26.5711V26.5641C91.1157 26.5641 89.7399 25.9604 89.754 24.1985C89.0658 19.3295 87.6621 17.7335 87.6621 17.7335C87.283 18.0072 86.9531 18.274 86.6583 18.5337C86.4617 20.4781 86.8479 25.82 86.8479 25.82Z" fill="#CC8DC7"/>
</g>
<g opacity="0.3" style="mix-blend-mode:multiply">
<path d="M93.7875 17.7558C93.7875 17.7558 93.6447 24.6053 89.6222 27.5547C88.6682 27.651 89.6222 25.2208 89.6222 25.2208C89.6222 25.2208 92.008 22.0898 92.4666 19.3578C93.0844 15.6765 93.3672 17.0102 93.7875 17.7558Z" fill="#A06A9A"/>
</g>
<path d="M92.5621 15.3188C92.5621 15.3188 88.9648 17.8214 87.8516 17.5993C88.191 17.3699 90.8648 15.7195 92.5621 15.3188Z" fill="#FFE83E"/>
<g opacity="0.68" style="mix-blend-mode:soft-light">
<path d="M91.8283 16.6104C91.9845 17.9595 91.2647 22.2239 90.2066 21.795C89.1485 21.3661 89.0161 18.6029 89.1983 18.1495C89.5957 17.1598 91.7604 16.023 91.8283 16.6104Z" fill="#FFD13B"/>
</g>
<g opacity="0.68" style="mix-blend-mode:soft-light">
<path d="M91.493 16.8736C91.493 16.8736 91.5399 21.1217 90.2883 20.9519C89.0367 20.7822 91.1706 15.9731 91.493 16.8736Z" fill="#FFD13B"/>
</g>
<path d="M73.5511 46.6256C81.9261 46.6256 88.7154 38.1303 88.7154 27.6508C88.7154 17.1713 81.9261 8.67601 73.5511 8.67601C65.176 8.67601 58.3867 17.1713 58.3867 27.6508C58.3867 38.1303 65.176 46.6256 73.5511 46.6256Z" fill="url(#paint17_linear_12248_313504)"/>
<path d="M73.5511 46.6256C81.9261 46.6256 88.7154 38.1303 88.7154 27.6508C88.7154 17.1713 81.9261 8.67601 73.5511 8.67601C65.176 8.67601 58.3867 17.1713 58.3867 27.6508C58.3867 38.1303 65.176 46.6256 73.5511 46.6256Z" fill="url(#paint18_linear_12248_313504)"/>
<path d="M73.5511 44.7467C81.9261 44.7467 88.7154 36.672 88.7154 26.7114C88.7154 16.7508 81.9261 8.67617 73.5511 8.67617C65.176 8.67617 58.3867 16.7508 58.3867 26.7114C58.3867 36.672 65.176 44.7467 73.5511 44.7467Z" fill="url(#paint19_linear_12248_313504)"/>
<path d="M73.5511 46.6256C81.9261 46.6256 88.7154 38.1303 88.7154 27.6508C88.7154 17.1713 81.9261 8.67601 73.5511 8.67601C65.176 8.67601 58.3867 17.1713 58.3867 27.6508C58.3867 38.1303 65.176 46.6256 73.5511 46.6256Z" fill="url(#paint20_linear_12248_313504)"/>
<path d="M88.7166 26.7113C88.7166 27.1126 88.7084 27.5071 88.6841 27.9016C88.6111 29.1887 88.4327 30.4412 88.1406 31.6384C86.3398 39.202 80.4912 44.7449 73.5476 44.7449C65.1762 44.7449 58.3867 36.6692 58.3867 26.7113C58.3867 16.7533 65.1762 8.6777 73.5476 8.6777C77.7413 8.6777 81.5214 10.6984 84.2632 13.9508C84.2632 13.9508 84.2632 13.9577 84.2713 13.9646C85.6666 15.6185 86.7859 17.5907 87.5485 19.7774C88.3029 21.9088 88.7166 24.2547 88.7166 26.7113Z" fill="url(#paint21_linear_12248_313504)"/>
<g opacity="0.68" style="mix-blend-mode:soft-light">
<path d="M73.551 8.97196C73.551 8.97196 63.2629 10.5145 60.8248 18.6129C58.3866 26.7114 63.9408 30.5014 63.9408 30.5014C63.9408 30.5014 61.4993 15.7651 74.5475 15.8955C72.1289 14.4889 71.503 10.1381 73.551 8.97196Z" fill="#FFD13B"/>
</g>
<g opacity="0.68" style="mix-blend-mode:soft-light">
<path d="M61.0023 18.0773C61.0023 18.0773 59.5891 23.1523 64.1765 23.8441C64.2421 22.5176 65.6211 20.19 65.6211 20.19C65.6211 20.19 61.1732 18.794 62.4448 15.3183C61.368 17.1765 61.0023 18.0773 61.0023 18.0773Z" fill="#FFD13B"/>
</g>
<path d="M73.5504 33.3297C78.5402 33.3297 82.5852 28.5188 82.5852 22.5844C82.5852 16.6499 78.5402 11.8391 73.5504 11.8391C68.5606 11.8391 64.5156 16.6499 64.5156 22.5844C64.5156 28.5188 68.5606 33.3297 73.5504 33.3297Z" fill="url(#paint22_linear_12248_313504)"/>
<path d="M82.5852 23.2764C82.5852 29.2108 78.5401 34.0217 73.5504 34.0217C68.5607 34.0217 64.5156 29.2108 64.5156 23.2764C64.5156 17.3419 67.6515 25.3542 72.6412 25.3542C77.631 25.3542 82.5852 17.342 82.5852 23.2764Z" fill="#FFE83E"/>
<path d="M77.4072 13.1042C77.4072 13.1042 77.9324 11.5093 79.2953 11.8391C81.2537 12.3129 79.6428 14.8905 79.6428 14.8905L77.4072 13.1042Z" fill="url(#paint23_linear_12248_313504)"/>
<g opacity="0.3" style="mix-blend-mode:multiply">
<path d="M77.6689 12.9719C77.6689 12.9719 77.8457 12.0386 79.237 12.1139C80.5452 12.3376 79.4759 14.3367 79.0258 14.1612C78.5757 13.9857 77.6689 12.9719 77.6689 12.9719Z" fill="#A06A9A"/>
</g>
<g opacity="0.68" style="mix-blend-mode:soft-light">
<path d="M83.6129 16.3211C83.6129 16.3211 82.1502 16.6022 82.0494 18.6129C81.9485 20.6237 85.2267 27.4218 82.8311 31.9395C80.4354 36.4572 76.804 38.9888 74.4336 40.0034C72.0631 41.018 72.793 44.0504 76.8545 43.2656C80.916 42.4809 88.8077 35.2525 87.6981 26.131C86.5885 17.0096 84.9746 15.8048 83.6129 16.3211Z" fill="#FFD13B"/>
</g>
<g opacity="0.68" style="mix-blend-mode:soft-light">
<path d="M88.6843 27.9015C88.6113 29.1886 88.4328 30.4412 88.1408 31.6383C85.9506 28.7803 80.394 32.4549 80.1426 32.621C80.2804 32.3995 83.079 28.0538 81.7487 25.8394C85.1962 29.4239 87.6378 28.5935 88.6843 27.9015Z" fill="#FFD13B"/>
</g>
<path d="M73.5504 33.3296C78.5402 33.3296 82.5852 28.749 82.5852 23.0985C82.5852 17.448 78.5402 12.8674 73.5504 12.8674C68.5606 12.8674 64.5156 17.448 64.5156 23.0985C64.5156 28.749 68.5606 33.3296 73.5504 33.3296Z" fill="url(#paint24_linear_12248_313504)"/>
<path opacity="0.44" d="M73.0863 33.0408C73.0863 33.0408 79.1 33.001 81.2147 25.9157C83.3294 18.8304 65.6579 19.8994 66.6221 26.4474C67.5864 32.9954 73.0863 33.0408 73.0863 33.0408Z" fill="url(#paint25_linear_12248_313504)" style="mix-blend-mode:screen"/>
<path d="M87.5486 19.7775C87.4918 19.7914 87.4269 19.7775 87.3377 19.7291C85.9181 18.9818 84.3607 14.2623 84.2715 13.9647C85.6667 15.6186 86.7861 17.5908 87.5486 19.7775Z" fill="#FFE83E"/>
<path d="M65.8899 20.2443C65.8899 20.2443 69.8514 11.5442 76.9567 14.4859C80.1078 15.7906 81.3894 20.9208 79.7136 21.7123C78.0378 22.504 75.9297 17.293 71.9744 19.2033C70.264 20.0294 65.2142 23.8759 65.8899 20.2443Z" fill="url(#paint26_linear_12248_313504)" style="mix-blend-mode:screen"/>
<path d="M65.8363 25.5341C65.8363 25.5341 67.7508 32.7859 73.3927 32.2207C79.0347 31.6556 65.4038 21.4298 65.8363 25.5341Z" fill="url(#paint27_linear_12248_313504)" style="mix-blend-mode:screen"/>
<path d="M75.061 14.7125C75.1152 16.028 78.1144 19.717 79.1479 18.6579C80.7014 17.0659 74.9995 13.2172 75.061 14.7125Z" fill="#F3FFEE"/>
<path d="M79.4265 19.1404C79.0939 20.1701 80.3928 21.5164 81.1332 21.1686C82.3768 20.5845 79.7107 18.2602 79.4265 19.1404Z" fill="#F3FFEE"/>
<path d="M68.9483 28.3147C68.9434 29.264 69.6469 31.1158 71.2537 31.5628C72.8605 32.0097 68.9563 26.7539 68.9483 28.3147Z" fill="#F3FFEE"/>
<path d="M84.928 38.5775C84.928 38.5775 84.3219 42.0197 80.9347 42.567L80.927 42.5717C80.927 42.5717 78.5815 40.1659 80.7228 37.8929C81.465 37.1057 82.2019 36.947 82.8446 37.0723C82.8501 37.0742 82.8557 37.076 82.8557 37.076C84.0545 37.3273 84.928 38.5775 84.928 38.5775Z" fill="url(#paint28_linear_12248_313504)"/>
<path d="M84.9279 38.5775C84.9279 38.5775 84.3218 42.0197 80.9346 42.567C81.1891 42.4315 87.1875 39.2175 82.8555 37.076C84.0544 37.3273 84.9279 38.5775 84.9279 38.5775Z" fill="#FFE83E"/>
<g opacity="0.3" style="mix-blend-mode:multiply">
<path d="M80.926 42.1623C80.926 42.1623 79.1447 38.2379 82.3988 37.3148C83.355 37.3574 83.8334 38.7287 83.698 39.1366C83.5626 39.5444 82.0942 41.8384 80.926 42.1623Z" fill="#A06A9A"/>
</g>
<path d="M77.5142 41.4003C77.1272 41.7321 76.5604 41.9118 75.7585 41.8565C71.7908 41.6076 73.4083 37.2253 73.4083 37.2253C73.4083 37.2253 73.4498 37.2114 73.5189 37.1976C73.7816 37.1285 74.9418 35.4021 76.3958 35.997C78.3523 36.7974 79.0626 40.1284 77.5142 41.4003Z" fill="url(#paint29_linear_12248_313504)"/>
<path d="M77.5142 41.4004C77.1272 41.7322 76.5604 41.9119 75.7585 41.8566C71.7908 41.6077 73.4083 37.2254 73.4083 37.2254C73.4083 37.2254 73.4498 37.2115 73.5189 37.1977C73.6295 39.0364 74.2931 41.9949 77.5142 41.4004Z" fill="#FFE83E"/>
<path d="M79.8871 6.56453C79.8871 10.0447 77.2455 12.866 73.987 12.866C70.7285 12.866 68.0869 10.0447 68.0869 6.56453C68.0869 3.08433 70.7285 1.23421 73.987 1.23421C77.2455 1.23421 79.8871 3.08433 79.8871 6.56453Z" fill="url(#paint30_linear_12248_313504)"/>
<path d="M79.8864 5.93822C79.8864 8.93731 77.2468 11.3657 73.9846 11.3657C70.7275 11.3657 68.0879 8.93731 68.0879 5.93822C68.0879 4.97189 68.3618 4.06064 68.8499 3.27959C68.9744 3.06928 69.1188 2.86399 69.2782 2.67377L69.2832 2.66875C70.359 1.35695 72.0622 6.67572e-05 73.9846 6.67572e-05C76.4798 6.67572e-05 78.6114 1.93273 79.4731 3.94548C79.7121 4.49121 79.8515 5.08204 79.8815 5.69789C79.8864 5.77798 79.8864 5.85813 79.8864 5.93822Z" fill="url(#paint31_linear_12248_313504)"/>
<g opacity="0.68" style="mix-blend-mode:soft-light">
<path d="M78.5948 4.26589C79.957 6.56311 72.7447 9.26219 71.9111 6.52136C70.7212 2.60849 76.8845 1.38181 78.5948 4.26589Z" fill="#FFD13B"/>
</g>
<path d="M79.4731 3.94548C74.2118 -1.38562 70.351 2.0667 69.2832 2.66875C70.359 1.35695 72.0622 6.67572e-05 73.9846 6.67572e-05C76.4798 6.67572e-05 78.6114 1.93273 79.4731 3.94548Z" fill="#FFE83E"/>
<path d="M75.8164 0.986097C75.8164 0.986097 77.7007 2.42099 77.4171 4.36146C77.6306 3.18127 78.1749 2.67374 78.1749 2.67374L75.8164 0.986097Z" fill="#FFE83E"/>
<path d="M16.168 42.5472C16.168 42.5472 24.555 42.5912 25.579 46.1266C23.5673 46.8162 17.4011 44.3497 16.168 42.5472Z" fill="url(#paint32_linear_12248_313504)"/>
<path d="M5.29004 23.0034C5.29004 23.0034 10.2641 38.9914 16.0184 39.5766C21.7727 40.1618 29.8691 36.0168 28.2097 31.4816C26.5504 26.9463 21.4366 23.814 20.8732 23.8441C20.3098 23.8742 5.97274 22.6203 5.29004 23.0034Z" fill="#FFD13B"/>
<path d="M39.8994 34.0961C24.8844 34.0961 23.1787 22.5839 23.1787 22.5839C24.5896 22.7594 25.4741 22.9069 25.4882 23.0052C26.0146 30.2003 32.5921 33.1134 39.8994 34.0961Z" fill="#FFE83E"/>
<g opacity="0.68" style="mix-blend-mode:soft-light">
<path d="M39.8993 35.0129C39.8993 35.0129 41.8644 39.4225 40.3039 42.5718C38.7434 45.721 35.4404 46.0175 35.4404 46.0175C35.4404 46.0175 44.016 46.6875 45.2779 46.6256C46.5398 46.5637 37.6718 42.8849 47.1316 35.4277C44.0183 35.3272 39.8993 35.0129 39.8993 35.0129Z" fill="#FFD13B"/>
</g>
<path d="M46.5264 45.8436C45.8525 47.4792 42.9394 46.9738 42.0831 44.9241C41.8022 44.2572 41.8092 43.7377 41.9987 43.3447C42.6515 41.9266 44.6749 41.5184 45.4945 41.9758C47.3801 43.0282 46.8492 45.0645 46.5264 45.8436Z" fill="url(#paint33_linear_12248_313504)"/>
<path d="M46.5264 45.8435C45.8525 47.4791 42.9394 46.9736 42.0831 44.9239C41.8022 44.2571 41.8092 43.7376 41.9987 43.3445C42.3779 44.3553 43.5221 48.0617 46.5264 45.8435Z" fill="#FFE83E"/>
<g opacity="0.68" style="mix-blend-mode:soft-light">
<path d="M92.5672 47.5105C91.6617 50.1289 89.0223 57.6118 87.8009 59.3737C86.3128 61.5217 60.1297 60.3775 58.1923 59.9493C57.1112 59.7106 55.5107 55.8217 54.3174 52.4594C54.4511 52.7849 56.9651 58.5846 60.2058 59.3788C60.8778 59.5434 61.2858 56.6056 63.5464 56.2693C64.6717 56.1018 66.5807 56.7767 68.5289 58.576C69.4233 58.7387 71.2509 58.7995 71.6416 60.1446C78.6296 61.349 86.5505 59.6032 87.8501 56.3974C89.8646 51.4345 90.6929 47.2859 90.6929 47.2859L92.5672 47.5105Z" fill="#FFD13B"/>
</g>
<path d="M72.8865 55.4089C79.537 55.4089 84.9282 54.0896 84.9282 52.4622C84.9282 50.8347 79.537 49.5154 72.8865 49.5154C66.236 49.5154 60.8447 50.8347 60.8447 52.4622C60.8447 54.0896 66.236 55.4089 72.8865 55.4089Z" fill="url(#paint34_linear_12248_313504)"/>
<path d="M68.8492 50.232C72.5787 49.4768 81.1844 49.9373 83.9454 51.951C88.0748 54.9628 62.0756 51.6037 68.8492 50.232Z" fill="url(#paint35_linear_12248_313504)" style="mix-blend-mode:screen"/>
<path d="M73.0306 54.5022C75.8872 54.3257 63.0137 51.5655 61.8193 52.1863C60.6251 52.807 62.8211 55.133 73.0306 54.5022Z" fill="url(#paint36_linear_12248_313504)" style="mix-blend-mode:screen"/>
<path d="M68.0741 54.5595C66.9678 53.0259 79.4942 52.996 79.0896 54.2312C78.7101 55.3893 68.7626 55.5139 68.0741 54.5595Z" fill="url(#paint37_linear_12248_313504)" style="mix-blend-mode:screen"/>
<path d="M83.4745 51.6543C82.5315 50.7904 79.9698 50.3737 78.5513 50.2644C77.1328 50.1549 85.994 53.9624 83.4745 51.6543Z" fill="#F3FFEE"/>
<path d="M66.8849 53.5839C66.8849 53.5839 63.4329 52.3703 62.9244 52.9578C62.4158 53.5453 69.3151 54.9089 66.8849 53.5839Z" fill="#F3FFEE"/>
<path d="M76.9396 50.011C76.9396 50.011 74.1656 49.4999 74.3582 50.0393C74.5509 50.5787 79.1741 50.7531 76.9396 50.011Z" fill="#F3FFEE"/>
<path d="M62.9235 60.317C62.139 59.7868 61.4826 57.0376 63.8282 56.6393C66.1737 56.241 68.0042 59.5159 68.0042 59.5159C68.0042 59.5159 70.3326 58.7716 70.5102 59.8518C70.6878 60.9321 72.351 60.6179 72.351 60.6179C72.351 60.6179 64.8771 61.6375 62.9235 60.317Z" fill="url(#paint38_linear_12248_313504)"/>
<path d="M62.4085 57.5917C62.4085 57.5917 61.8373 62.1712 68.0048 60.6388C66.4398 61.3746 61.7225 62.0194 62.4085 57.5917Z" fill="#FFE83E"/>
<defs>
<linearGradient id="paint0_linear_12248_313504" x1="72.1603" y1="66.0471" x2="72.587" y2="26.0107" gradientUnits="userSpaceOnUse">
<stop offset="0.15154" stop-color="#B83A36"/>
<stop offset="0.21605" stop-color="#B83D2D"/>
<stop offset="0.45675" stop-color="#BB4914"/>
<stop offset="0.67542" stop-color="#BC5005"/>
<stop offset="0.85091" stop-color="#BD5300"/>
</linearGradient>
<linearGradient id="paint1_linear_12248_313504" x1="38.0458" y1="52.3522" x2="29.8533" y2="20.5572" gradientUnits="userSpaceOnUse">
<stop stop-color="#FF7540"/>
<stop offset="0.08377" stop-color="#FF8137"/>
<stop offset="0.34713" stop-color="#FFA41F"/>
<stop offset="0.59529" stop-color="#FFBE0E"/>
<stop offset="0.81984" stop-color="#FFCD03"/>
<stop offset="1" stop-color="#FFD300"/>
</linearGradient>
<linearGradient id="paint2_linear_12248_313504" x1="72.9001" y1="43.7156" x2="71.8971" y2="72.9458" gradientUnits="userSpaceOnUse">
<stop stop-color="#FF7540"/>
<stop offset="0.08377" stop-color="#FF8137"/>
<stop offset="0.34713" stop-color="#FFA41F"/>
<stop offset="0.59529" stop-color="#FFBE0E"/>
<stop offset="0.81984" stop-color="#FFCD03"/>
<stop offset="1" stop-color="#FFD300"/>
</linearGradient>
<linearGradient id="paint3_linear_12248_313504" x1="72.8326" y1="56.9107" x2="72.9468" y2="46.294" gradientUnits="userSpaceOnUse">
<stop offset="0.15154" stop-color="#B83A36"/>
<stop offset="0.21605" stop-color="#B83D2D"/>
<stop offset="0.45675" stop-color="#BB4914"/>
<stop offset="0.67542" stop-color="#BC5005"/>
<stop offset="0.85091" stop-color="#BD5300"/>
</linearGradient>
<linearGradient id="paint4_linear_12248_313504" x1="108.988" y1="52.3522" x2="117.181" y2="20.5572" gradientUnits="userSpaceOnUse">
<stop stop-color="#FF7540"/>
<stop offset="0.08377" stop-color="#FF8137"/>
<stop offset="0.34713" stop-color="#FFA41F"/>
<stop offset="0.59529" stop-color="#FFBE0E"/>
<stop offset="0.81984" stop-color="#FFCD03"/>
<stop offset="1" stop-color="#FFD300"/>
</linearGradient>
<linearGradient id="paint5_linear_12248_313504" x1="123.852" y1="55.1084" x2="110.366" y2="24.3851" gradientUnits="userSpaceOnUse">
<stop offset="0.15154" stop-color="#B83A36"/>
<stop offset="0.21605" stop-color="#B83D2D"/>
<stop offset="0.45675" stop-color="#BB4914"/>
<stop offset="0.67542" stop-color="#BC5005"/>
<stop offset="0.85091" stop-color="#BD5300"/>
</linearGradient>
<linearGradient id="paint6_linear_12248_313504" x1="94.8933" y1="34.1995" x2="94.0774" y2="41.3608" gradientUnits="userSpaceOnUse">
<stop offset="0.15154" stop-color="#B83A36"/>
<stop offset="0.21605" stop-color="#B83D2D"/>
<stop offset="0.45675" stop-color="#BB4914"/>
<stop offset="0.67542" stop-color="#BC5005"/>
<stop offset="0.85091" stop-color="#BD5300"/>
</linearGradient>
<linearGradient id="paint7_linear_12248_313504" x1="91.5098" y1="36.4915" x2="90.4207" y2="46.0513" gradientUnits="userSpaceOnUse">
<stop offset="0.15154" stop-color="#B83A36"/>
<stop offset="0.21605" stop-color="#B83D2D"/>
<stop offset="0.45675" stop-color="#BB4914"/>
<stop offset="0.67542" stop-color="#BC5005"/>
<stop offset="0.85091" stop-color="#BD5300"/>
</linearGradient>
<linearGradient id="paint8_linear_12248_313504" x1="102.782" y1="40.6508" x2="98.1579" y2="55.9905" gradientUnits="userSpaceOnUse">
<stop offset="0.15154" stop-color="#B83A36"/>
<stop offset="0.21605" stop-color="#B83D2D"/>
<stop offset="0.45675" stop-color="#BB4914"/>
<stop offset="0.67542" stop-color="#BC5005"/>
<stop offset="0.85091" stop-color="#BD5300"/>
</linearGradient>
<linearGradient id="paint9_linear_12248_313504" x1="140.139" y1="16.427" x2="137.914" y2="35.9525" gradientUnits="userSpaceOnUse">
<stop offset="0.15154" stop-color="#B83A36"/>
<stop offset="0.21605" stop-color="#B83D2D"/>
<stop offset="0.45675" stop-color="#BB4914"/>
<stop offset="0.67542" stop-color="#BC5005"/>
<stop offset="0.85091" stop-color="#BD5300"/>
</linearGradient>
<linearGradient id="paint10_linear_12248_313504" x1="23.1819" y1="55.1084" x2="36.6684" y2="24.3851" gradientUnits="userSpaceOnUse">
<stop offset="0.15154" stop-color="#B83A36"/>
<stop offset="0.21605" stop-color="#B83D2D"/>
<stop offset="0.45675" stop-color="#BB4914"/>
<stop offset="0.67542" stop-color="#BC5005"/>
<stop offset="0.85091" stop-color="#BD5300"/>
</linearGradient>
<linearGradient id="paint11_linear_12248_313504" x1="52.1407" y1="34.1995" x2="52.9565" y2="41.3608" gradientUnits="userSpaceOnUse">
<stop offset="0.15154" stop-color="#B83A36"/>
<stop offset="0.21605" stop-color="#B83D2D"/>
<stop offset="0.45675" stop-color="#BB4914"/>
<stop offset="0.67542" stop-color="#BC5005"/>
<stop offset="0.85091" stop-color="#BD5300"/>
</linearGradient>
<linearGradient id="paint12_linear_12248_313504" x1="55.5244" y1="36.4915" x2="56.6135" y2="46.0513" gradientUnits="userSpaceOnUse">
<stop offset="0.15154" stop-color="#B83A36"/>
<stop offset="0.21605" stop-color="#B83D2D"/>
<stop offset="0.45675" stop-color="#BB4914"/>
<stop offset="0.67542" stop-color="#BC5005"/>
<stop offset="0.85091" stop-color="#BD5300"/>
</linearGradient>
<linearGradient id="paint13_linear_12248_313504" x1="60.2914" y1="26.752" x2="54.8872" y2="14.3223" gradientUnits="userSpaceOnUse">
<stop stop-color="#FF7540"/>
<stop offset="0.08377" stop-color="#FF8137"/>
<stop offset="0.34713" stop-color="#FFA41F"/>
<stop offset="0.59529" stop-color="#FFBE0E"/>
<stop offset="0.81984" stop-color="#FFCD03"/>
<stop offset="1" stop-color="#FFD300"/>
</linearGradient>
<linearGradient id="paint14_linear_12248_313504" x1="57.1442" y1="30.8915" x2="56.4238" y2="15.1023" gradientUnits="userSpaceOnUse">
<stop offset="0.15154" stop-color="#B83A36"/>
<stop offset="0.21605" stop-color="#B83D2D"/>
<stop offset="0.45675" stop-color="#BB4914"/>
<stop offset="0.67542" stop-color="#BC5005"/>
<stop offset="0.85091" stop-color="#BD5300"/>
</linearGradient>
<linearGradient id="paint15_linear_12248_313504" x1="86.763" y1="26.752" x2="92.1672" y2="14.3223" gradientUnits="userSpaceOnUse">
<stop stop-color="#FF7540"/>
<stop offset="0.08377" stop-color="#FF8137"/>
<stop offset="0.34713" stop-color="#FFA41F"/>
<stop offset="0.59529" stop-color="#FFBE0E"/>
<stop offset="0.81984" stop-color="#FFCD03"/>
<stop offset="1" stop-color="#FFD300"/>
</linearGradient>
<linearGradient id="paint16_linear_12248_313504" x1="89.9107" y1="30.8915" x2="90.6311" y2="15.1023" gradientUnits="userSpaceOnUse">
<stop offset="0.15154" stop-color="#B83A36"/>
<stop offset="0.21605" stop-color="#B83D2D"/>
<stop offset="0.45675" stop-color="#BB4914"/>
<stop offset="0.67542" stop-color="#BC5005"/>
<stop offset="0.85091" stop-color="#BD5300"/>
</linearGradient>
<linearGradient id="paint17_linear_12248_313504" x1="67.9268" y1="59.0104" x2="79.5503" y2="-5.79966" gradientUnits="userSpaceOnUse">
<stop stop-color="#FF7540"/>
<stop offset="0.08377" stop-color="#FF8137"/>
<stop offset="0.34713" stop-color="#FFA41F"/>
<stop offset="0.59529" stop-color="#FFBE0E"/>
<stop offset="0.81984" stop-color="#FFCD03"/>
<stop offset="1" stop-color="#FFD300"/>
</linearGradient>
<linearGradient id="paint18_linear_12248_313504" x1="67.9268" y1="59.0104" x2="79.5503" y2="-5.79966" gradientUnits="userSpaceOnUse">
<stop offset="0.15154" stop-color="#B83A36"/>
<stop offset="0.21605" stop-color="#B83D2D"/>
<stop offset="0.45675" stop-color="#BB4914"/>
<stop offset="0.67542" stop-color="#BC5005"/>
<stop offset="0.85091" stop-color="#BD5300"/>
</linearGradient>
<linearGradient id="paint19_linear_12248_313504" x1="68.1995" y1="56.5506" x2="79.2595" y2="-5.11731" gradientUnits="userSpaceOnUse">
<stop stop-color="#FF7540"/>
<stop offset="0.08377" stop-color="#FF8137"/>
<stop offset="0.34713" stop-color="#FFA41F"/>
<stop offset="0.59529" stop-color="#FFBE0E"/>
<stop offset="0.81984" stop-color="#FFCD03"/>
<stop offset="1" stop-color="#FFD300"/>
</linearGradient>
<linearGradient id="paint20_linear_12248_313504" x1="67.9268" y1="59.0104" x2="79.5503" y2="-5.79966" gradientUnits="userSpaceOnUse">
<stop offset="0.15154" stop-color="#B83A36"/>
<stop offset="0.21605" stop-color="#B83D2D"/>
<stop offset="0.45675" stop-color="#BB4914"/>
<stop offset="0.67542" stop-color="#BC5005"/>
<stop offset="0.85091" stop-color="#BD5300"/>
</linearGradient>
<linearGradient id="paint21_linear_12248_313504" x1="68.2006" y1="56.5482" x2="79.2596" y2="-5.11398" gradientUnits="userSpaceOnUse">
<stop stop-color="#FF7540"/>
<stop offset="0.08377" stop-color="#FF8137"/>
<stop offset="0.34713" stop-color="#FFA41F"/>
<stop offset="0.59529" stop-color="#FFBE0E"/>
<stop offset="0.81984" stop-color="#FFCD03"/>
<stop offset="1" stop-color="#FFD300"/>
</linearGradient>
<linearGradient id="paint22_linear_12248_313504" x1="70.362" y1="40.3623" x2="76.9514" y2="3.62117" gradientUnits="userSpaceOnUse">
<stop offset="0.15154" stop-color="#B83A36"/>
<stop offset="0.21605" stop-color="#B83D2D"/>
<stop offset="0.45675" stop-color="#BB4914"/>
<stop offset="0.67542" stop-color="#BC5005"/>
<stop offset="0.85091" stop-color="#BD5300"/>
</linearGradient>
<linearGradient id="paint23_linear_12248_313504" x1="78.1852" y1="15.4237" x2="79.4533" y2="11.156" gradientUnits="userSpaceOnUse">
<stop offset="0.15154" stop-color="#B83A36"/>
<stop offset="0.21605" stop-color="#B83D2D"/>
<stop offset="0.45675" stop-color="#BB4914"/>
<stop offset="0.67542" stop-color="#BC5005"/>
<stop offset="0.85091" stop-color="#BD5300"/>
</linearGradient>
<linearGradient id="paint24_linear_12248_313504" x1="70.511" y1="40.0453" x2="76.7924" y2="5.02172" gradientUnits="userSpaceOnUse">
<stop stop-color="#7C005B"/>
<stop offset="0.41291" stop-color="#970040"/>
<stop offset="1" stop-color="#C40014"/>
</linearGradient>
<linearGradient id="paint25_linear_12248_313504" x1="73.5344" y1="37.1962" x2="74.1653" y2="20.7124" gradientUnits="userSpaceOnUse">
<stop offset="0.00559" stop-color="#D65B10"/>
<stop offset="1"/>
</linearGradient>
<linearGradient id="paint26_linear_12248_313504" x1="74.3494" y1="9.10218" x2="73.0709" y2="21.1297" gradientUnits="userSpaceOnUse">
<stop offset="0.00559" stop-color="#D65B10"/>
<stop offset="1"/>
</linearGradient>
<linearGradient id="paint27_linear_12248_313504" x1="66.1913" y1="34.1784" x2="71.4216" y2="26.6338" gradientUnits="userSpaceOnUse">
<stop offset="0.00559" stop-color="#D65B10"/>
<stop offset="1"/>
</linearGradient>
<linearGradient id="paint28_linear_12248_313504" x1="81.1985" y1="42.6559" x2="83.0374" y2="37.1152" gradientUnits="userSpaceOnUse">
<stop offset="0.15154" stop-color="#B83A36"/>
<stop offset="0.21605" stop-color="#B83D2D"/>
<stop offset="0.45675" stop-color="#BB4914"/>
<stop offset="0.67542" stop-color="#BC5005"/>
<stop offset="0.85091" stop-color="#BD5300"/>
</linearGradient>
<linearGradient id="paint29_linear_12248_313504" x1="75.4721" y1="42.2659" x2="76.7778" y2="26.0956" gradientUnits="userSpaceOnUse">
<stop offset="0.15154" stop-color="#B83A36"/>
<stop offset="0.21605" stop-color="#B83D2D"/>
<stop offset="0.45675" stop-color="#BB4914"/>
<stop offset="0.67542" stop-color="#BC5005"/>
<stop offset="0.85091" stop-color="#BD5300"/>
</linearGradient>
<linearGradient id="paint30_linear_12248_313504" x1="72.1708" y1="16.7086" x2="75.7635" y2="-3.3235" gradientUnits="userSpaceOnUse">
<stop offset="0.15154" stop-color="#B83A36"/>
<stop offset="0.21605" stop-color="#B83D2D"/>
<stop offset="0.45675" stop-color="#BB4914"/>
<stop offset="0.67542" stop-color="#BC5005"/>
<stop offset="0.85091" stop-color="#BD5300"/>
</linearGradient>
<linearGradient id="paint31_linear_12248_313504" x1="72.3355" y1="15.1473" x2="75.8359" y2="-4.36979" gradientUnits="userSpaceOnUse">
<stop stop-color="#FF7540"/>
<stop offset="0.08377" stop-color="#FF8137"/>
<stop offset="0.34713" stop-color="#FFA41F"/>
<stop offset="0.59529" stop-color="#FFBE0E"/>
<stop offset="0.81984" stop-color="#FFCD03"/>
<stop offset="1" stop-color="#FFD300"/>
</linearGradient>
<linearGradient id="paint32_linear_12248_313504" x1="18.6552" y1="36.9776" x2="24.6317" y2="56.8042" gradientUnits="userSpaceOnUse">
<stop offset="0.15154" stop-color="#B83A36"/>
<stop offset="0.21605" stop-color="#B83D2D"/>
<stop offset="0.45675" stop-color="#BB4914"/>
<stop offset="0.67542" stop-color="#BC5005"/>
<stop offset="0.85091" stop-color="#BD5300"/>
</linearGradient>
<linearGradient id="paint33_linear_12248_313504" x1="43.5382" y1="36.9015" x2="45.383" y2="53.0946" gradientUnits="userSpaceOnUse">
<stop offset="0.15154" stop-color="#B83A36"/>
<stop offset="0.21605" stop-color="#B83D2D"/>
<stop offset="0.45675" stop-color="#BB4914"/>
<stop offset="0.67542" stop-color="#BC5005"/>
<stop offset="0.85091" stop-color="#BD5300"/>
</linearGradient>
<linearGradient id="paint34_linear_12248_313504" x1="72.8332" y1="57.4197" x2="72.9473" y2="46.8055" gradientUnits="userSpaceOnUse">
<stop offset="0.121" stop-color="#2AFFDC"/>
<stop offset="0.44984" stop-color="#1C94AD"/>
<stop offset="0.71808" stop-color="#11448A"/>
<stop offset="0.90698" stop-color="#0B1375"/>
<stop offset="1" stop-color="#09006D"/>
</linearGradient>
<linearGradient id="paint35_linear_12248_313504" x1="76.1136" y1="48.6782" x2="76.0375" y2="52.5177" gradientUnits="userSpaceOnUse">
<stop offset="0.00559" stop-color="#40ACBA"/>
<stop offset="1"/>
</linearGradient>
<linearGradient id="paint36_linear_12248_313504" x1="67.5288" y1="51.2338" x2="67.471" y2="54.155" gradientUnits="userSpaceOnUse">
<stop offset="0.00559" stop-color="#40ACBA"/>
<stop offset="1"/>
</linearGradient>
<linearGradient id="paint37_linear_12248_313504" x1="73.6355" y1="56.3972" x2="73.3926" y2="50.2199" gradientUnits="userSpaceOnUse">
<stop offset="0.00559" stop-color="#40ACBA"/>
<stop offset="0.05836" stop-color="#31848F"/>
<stop offset="0.12055" stop-color="#225C63"/>
<stop offset="0.18368" stop-color="#153A3F"/>
<stop offset="0.24687" stop-color="#0C2123"/>
<stop offset="0.31017" stop-color="#050E0F"/>
<stop offset="0.37368" stop-color="#010303"/>
<stop offset="0.43782"/>
</linearGradient>
<linearGradient id="paint38_linear_12248_313504" x1="62.2002" y1="58.7996" x2="72.351" y2="58.7996" gradientUnits="userSpaceOnUse">
<stop offset="0.15154" stop-color="#B83A36"/>
<stop offset="0.21605" stop-color="#B83D2D"/>
<stop offset="0.45675" stop-color="#BB4914"/>
<stop offset="0.67542" stop-color="#BC5005"/>
<stop offset="0.85091" stop-color="#BD5300"/>
</linearGradient>
</defs>
</svg>
