<svg width="48" height="50" viewBox="0 0 48 50" fill="none" xmlns="http://www.w3.org/2000/svg">
<path d="M22.5358 20.3017C20.4196 21.0273 15.5219 20.1894 11.6004 19.3084C8.4822 18.6087 5.98579 17.8832 5.98579 17.8832L0.889648 0.40892L0.898275 0.400387C0.924156 0.391658 1.0018 0.365771 1.11416 0.322533C1.85691 0.0721415 4.31008 -0.558448 6.8755 1.15187C9.45818 2.87071 18.2256 10.4979 21.983 15.8361C22.6827 16.8293 23.2095 17.7449 23.4859 18.5224C23.8229 19.4552 23.4169 20.0167 22.5358 20.3017Z" fill="url(#paint0_linear_12248_311000)"/>
<path d="M24.8845 20.3017C27.0007 21.0273 31.8983 20.1894 35.8199 19.3084C38.938 18.6087 41.4345 17.8832 41.4345 17.8832L46.5307 0.40892L46.522 0.400387C46.4961 0.391658 46.4185 0.365771 46.3061 0.322533C45.5634 0.0721415 43.1101 -0.558448 40.5448 1.15187C37.9621 2.87071 29.1948 10.4979 25.4374 15.8361C24.7376 16.8293 24.2108 17.7449 23.9344 18.5224C23.5973 19.4552 24.0034 20.0167 24.8845 20.3017Z" fill="url(#paint1_linear_12248_311000)"/>
<path d="M23.9346 21.9687C23.9346 21.9687 28.8493 36.0051 35.129 35.4437C36.0101 35.366 36.9258 34.9945 37.8585 34.2603C38.3942 33.837 38.921 33.2843 39.4306 32.6192C40.3894 31.3753 41.2877 29.76 42.1169 27.9116C46.5222 18.0731 48.8027 1.6873 46.5222 0.400322L46.3062 0.322469C46.1162 0.296587 45.9003 0.357081 45.6497 0.512573C36.7787 6.22215 31.1643 12.0008 27.8733 16.121C26.4826 17.8572 25.5152 19.291 24.8847 20.3016C24.7118 20.5781 24.5651 20.8285 24.4528 21.0359C24.0986 21.6405 23.9346 21.9687 23.9346 21.9687Z" fill="url(#paint2_linear_12248_311000)"/>
<g opacity="0.68" style="mix-blend-mode:soft-light">
<path d="M24.4531 21.0359C26.9322 20.7163 29.5494 19.9303 28.9016 18.6605C27.7267 16.3629 35.7858 8.80484 38.1007 7.12903C41.1412 9.76357 42.5579 4.04537 43.0674 3.20752C43.5685 2.36967 46.3065 0.322469 46.3065 0.322469C46.1165 0.296587 45.9006 0.357081 45.6501 0.512573C36.7791 6.22215 31.1646 12.0008 27.8737 16.121C26.483 17.8572 25.5155 19.291 24.885 20.3016C24.7121 20.5781 24.5654 20.8285 24.4531 21.0359Z" fill="#FFD13B"/>
</g>
<g opacity="0.3" style="mix-blend-mode:multiply">
<path d="M24.8845 20.3016C24.228 21.3641 23.9344 21.9687 23.9344 21.9687C23.9344 21.9687 28.8492 36.005 35.1289 35.4437L39.4305 32.6191C40.3892 31.3753 41.2876 29.76 42.1168 27.9115C41.2963 25.5447 39.517 21.9687 35.8199 19.3083C33.7986 17.8572 31.1986 16.6737 27.8732 16.121C27.1043 15.9914 26.2925 15.8964 25.4374 15.836C24.7376 16.8292 24.2108 17.7448 23.9344 18.5223C23.5973 19.4551 24.0034 20.0166 24.8845 20.3016Z" fill="#A06A9A"/>
</g>
<path d="M37.7112 6.04096C37.7112 6.04096 34.689 12.9199 33.0479 9.55212C34.8778 6.01639 37.7112 6.04096 37.7112 6.04096Z" fill="url(#paint3_linear_12248_311000)"/>
<g opacity="0.68" style="mix-blend-mode:soft-light">
<path d="M46.3061 2.45063C46.3061 2.45063 46.3123 12.7276 43.345 14.4631C40.3777 16.1987 35.4509 12.7836 36.1228 11.384C36.7946 9.98421 45.1893 5.36339 45.4165 3.09789C45.6437 0.832385 46.3242 1.52407 46.3061 2.45063Z" fill="#FFD13B"/>
</g>
<g opacity="0.68" style="mix-blend-mode:soft-light">
<path d="M45.1364 7.80087C45.1364 7.80087 44.7516 14.3513 42.1167 14.0714C39.4817 13.7915 37.8373 12.7277 38.0996 11.776C38.362 10.8241 45.1924 4.94557 45.1364 7.80087Z" fill="#FFD13B"/>
</g>
<path d="M23.4853 21.9687C23.4853 21.9687 18.5704 36.0051 12.2909 35.4437C11.4098 35.366 10.4941 34.9945 9.56131 34.2603C9.02572 33.837 8.49885 33.2843 7.98924 32.6192C7.0304 31.3753 6.13205 29.76 5.30293 27.9116C0.897677 18.0731 -1.38284 1.6873 0.897683 0.400322L1.11357 0.322469C1.30357 0.296587 1.51955 0.357081 1.77004 0.512573C10.641 6.22215 16.2556 12.0008 19.5465 16.121C20.9372 17.8572 21.9046 19.291 22.5352 20.3016C22.708 20.5781 22.8548 20.8285 22.9671 21.0359C23.3213 21.6405 23.4853 21.9687 23.4853 21.9687Z" fill="url(#paint4_linear_12248_311000)"/>
<g opacity="0.68" style="mix-blend-mode:soft-light">
<path d="M22.9678 21.0359C20.4887 20.7163 17.8714 19.9303 18.5193 18.6605C19.6941 16.3629 11.6351 8.80484 9.32014 7.12903C6.27961 9.76357 4.86303 4.04537 4.35341 3.20752C3.85243 2.36967 1.11426 0.322469 1.11426 0.322469C1.30426 0.296587 1.52025 0.357081 1.77074 0.512573C10.6417 6.22215 16.2563 12.0008 19.5472 16.121C20.9379 17.8572 21.9053 19.291 22.5359 20.3016C22.7087 20.5781 22.8555 20.8285 22.9678 21.0359Z" fill="#FFD13B"/>
</g>
<g opacity="0.3" style="mix-blend-mode:multiply">
<path d="M22.535 20.3016C23.1915 21.3641 23.4851 21.9687 23.4851 21.9687C23.4851 21.9687 18.5703 36.005 12.2907 35.4437L7.98904 32.6191C7.0302 31.3753 6.13186 29.76 5.30273 27.9115C6.12323 25.5447 7.90257 21.9687 11.5996 19.3083C13.6209 17.8572 16.2208 16.6737 19.5463 16.121C20.3152 15.9914 21.127 15.8964 21.9822 15.836C22.6819 16.8292 23.2087 17.7448 23.4851 18.5223C23.8221 19.4551 23.4161 20.0166 22.535 20.3016Z" fill="#A06A9A"/>
</g>
<path d="M23.482 48.6763C31.965 48.6763 38.8419 41.5418 38.8419 32.741C38.8419 23.9403 31.965 16.8058 23.482 16.8058C14.9989 16.8058 8.12207 23.9403 8.12207 32.741C8.12207 41.5418 14.9989 48.6763 23.482 48.6763Z" fill="url(#paint5_linear_12248_311000)"/>
<path d="M23.482 48.6763C31.965 48.6763 38.8419 41.5418 38.8419 32.741C38.8419 23.9403 31.965 16.8058 23.482 16.8058C14.9989 16.8058 8.12207 23.9403 8.12207 32.741C8.12207 41.5418 14.9989 48.6763 23.482 48.6763Z" fill="url(#paint6_linear_12248_311000)"/>
<path d="M23.482 47.0983C31.965 47.0983 38.8419 40.3171 38.8419 31.9521C38.8419 23.587 31.965 16.8058 23.482 16.8058C14.9989 16.8058 8.12207 23.587 8.12207 31.9521C8.12207 40.3171 14.9989 47.0983 23.482 47.0983Z" fill="url(#paint7_linear_12248_311000)"/>
<path d="M38.8472 34.0654C38.8472 39.4008 36.3242 44.1229 32.4418 47.0155C29.9188 48.8962 26.8294 50 23.4824 50C22.638 50 21.8141 49.9284 21.0109 49.7957C13.6992 48.5691 8.12793 41.997 8.12793 34.0654C8.12793 25.2651 14.9968 18.1308 23.4824 18.1308C31.968 18.1308 38.8472 25.2651 38.8472 34.0654Z" fill="url(#paint8_linear_12248_311000)"/>
<g opacity="0.3" style="mix-blend-mode:multiply">
<path d="M36.6341 37.9699C36.6341 37.9699 33.5651 43.0292 32.4427 47.0155C29.9197 48.8962 26.8302 50 23.4833 50C22.6388 50 21.815 49.9285 21.0117 49.7957C23.3597 49.581 25.6768 48.9166 25.0073 47.0258C23.751 43.4177 36.6341 37.9699 36.6341 37.9699Z" fill="#A06A9A"/>
</g>
<path d="M38.8441 31.9521C38.8441 32.2892 38.8359 32.6205 38.8112 32.9518C38.7373 34.0327 38.5566 35.0846 38.2607 36.0899C36.4367 42.442 30.5127 47.0969 23.4795 47.0969C15.0001 47.0969 8.12305 40.3149 8.12305 31.9521C8.12305 23.5893 15.0001 16.8073 23.4795 16.8073C27.7274 16.8073 31.5561 18.5044 34.3333 21.2357C34.3333 21.2357 34.3333 21.2415 34.3415 21.2474C35.7547 22.6364 36.8886 24.2926 37.6609 26.1291C38.425 27.919 38.8441 29.8891 38.8441 31.9521Z" fill="url(#paint9_linear_12248_311000)"/>
<path d="M23.4823 40.976C28.5364 40.976 32.6335 36.9358 32.6335 31.952C32.6335 26.9683 28.5364 22.9281 23.4823 22.9281C18.4282 22.9281 14.3311 26.9683 14.3311 31.952C14.3311 36.9358 18.4282 40.976 23.4823 40.976Z" fill="url(#paint10_linear_12248_311000)"/>
<path d="M32.6336 32.5333C32.6336 37.517 28.5364 41.5572 23.4823 41.5572C18.4282 41.5572 14.3311 37.517 14.3311 32.5333C14.3311 27.5495 17.5074 34.2782 22.5615 34.2782C27.6156 34.2782 32.6336 27.5495 32.6336 32.5333Z" fill="#FFE83E"/>
<path d="M13.325 43.6323C13.325 43.6323 9.77416 41.921 9.65825 38.7605L9.6543 38.752C9.6543 38.752 12.5135 37.5175 14.6208 40.1757C15.3507 41.0969 15.4178 41.798 15.1978 42.3192C15.1951 42.3235 15.1924 42.3277 15.1924 42.3277C14.7637 43.2939 13.325 43.6323 13.325 43.6323Z" fill="url(#paint11_linear_12248_311000)"/>
<path d="M13.325 43.6322C13.325 43.6322 9.77411 41.9209 9.6582 38.7604C9.7665 39.0302 12.3415 45.3963 15.1924 42.3277C14.7637 43.2938 13.325 43.6322 13.325 43.6322Z" fill="#FFE83E"/>
<g opacity="0.3" style="mix-blend-mode:multiply">
<path d="M10.0869 38.8915C10.0869 38.8915 14.4723 38.6724 15.0031 41.8449C14.8278 42.6696 13.315 42.6196 12.9029 42.3611C12.4909 42.1026 10.2695 40.0277 10.0869 38.8915Z" fill="#A06A9A"/>
</g>
<g opacity="0.68" style="mix-blend-mode:soft-light">
<path d="M33.6734 23.2262C33.6734 23.2262 32.1919 23.4622 32.0898 25.1508C31.9875 26.8395 35.3081 32.5486 32.8815 36.3426C30.4549 40.1367 26.7768 42.2627 24.3757 43.1148C21.9747 43.9669 22.714 46.5135 26.8279 45.8544C30.9417 45.1954 38.9353 39.125 37.8114 31.4646C36.6874 23.8043 35.0527 22.7926 33.6734 23.2262Z" fill="#FFD13B"/>
</g>
<g opacity="0.68" style="mix-blend-mode:soft-light">
<path d="M38.811 32.9516C38.7372 34.0325 38.5564 35.0844 38.2605 36.0898C36.0422 33.6896 30.4139 36.7756 30.1592 36.915C30.2988 36.7291 33.1335 33.0794 31.7861 31.2198C35.2781 34.2301 37.7511 33.5328 38.811 32.9516Z" fill="#FFD13B"/>
</g>
<path d="M23.4823 40.976C28.5364 40.976 32.6335 37.1292 32.6335 32.3838C32.6335 27.6385 28.5364 23.7917 23.4823 23.7917C18.4282 23.7917 14.3311 27.6385 14.3311 32.3838C14.3311 37.1292 18.4282 40.976 23.4823 40.976Z" fill="url(#paint12_linear_12248_311000)"/>
<path d="M37.6603 26.129C37.6027 26.1406 37.5369 26.129 37.4466 26.0883C36.0087 25.4606 34.4313 21.4972 34.3408 21.2473C35.7541 22.6363 36.8879 24.2925 37.6603 26.129Z" fill="#FFE83E"/>
<g opacity="0.68" style="mix-blend-mode:soft-light">
<path d="M23.4818 17.0544C23.4818 17.0544 13.0611 18.3499 10.5916 25.151C8.12198 31.9521 13.7477 35.1351 13.7477 35.1351C13.7477 35.1351 11.2748 22.7594 24.4912 22.8688C22.0415 21.6876 21.4074 18.0338 23.4818 17.0544Z" fill="#FFD13B"/>
</g>
<g opacity="0.68" style="mix-blend-mode:soft-light">
<path d="M10.7715 24.701C10.7715 24.701 9.34018 28.9629 13.9867 29.544C14.0532 28.43 15.45 26.4753 15.45 26.4753C15.45 26.4753 10.9446 25.3029 12.2326 22.3839C11.1419 23.9444 10.7715 24.701 10.7715 24.701Z" fill="#FFD13B"/>
</g>
<path opacity="0.44" d="M15.7228 29.9869C15.7228 29.9869 19.7352 22.6804 26.9322 25.1509C30.124 26.2466 31.4222 30.555 29.7247 31.2198C28.0274 31.8846 25.8919 27.5083 21.8857 29.1126C20.1532 29.8064 15.0383 33.0368 15.7228 29.9869Z" fill="url(#paint13_linear_12248_311000)" style="mix-blend-mode:screen"/>
<path opacity="0.44" d="M16.4741 34.7117C16.4741 34.7117 18.4133 40.8019 24.1279 40.3273C29.8427 39.8527 16.036 31.265 16.4741 34.7117Z" fill="url(#paint14_linear_12248_311000)" style="mix-blend-mode:screen"/>
<path d="M25.0122 25.3412C25.0671 26.446 28.105 29.544 29.1519 28.6546C30.7254 27.3176 24.9499 24.0855 25.0122 25.3412Z" fill="#F3FFEE"/>
<path d="M18.8203 36.7218C18.8154 37.519 19.528 39.0741 21.1555 39.4496C22.783 39.8249 18.8285 35.411 18.8203 36.7218Z" fill="#F3FFEE"/>
<path opacity="0.44" d="M23.0119 40.7334C23.0119 40.7334 29.1031 40.7 31.2451 34.7497C33.3872 28.7994 15.4877 29.6972 16.4644 35.1963C17.4411 40.6954 23.0119 40.7334 23.0119 40.7334Z" fill="url(#paint15_linear_12248_311000)" style="mix-blend-mode:screen"/>
<path d="M16.9023 25.683C16.9023 25.683 18.0419 21.9314 19.7788 22.1843C21.5157 22.4373 21.9833 23.5012 21.9833 23.5012L16.9023 25.683Z" fill="url(#paint16_linear_12248_311000)"/>
<g opacity="0.3" style="mix-blend-mode:multiply">
<path d="M19.1275 22.3839C19.1275 22.3839 17.7389 24.3455 17.8836 24.6408C18.0283 24.9362 20.7859 24.1474 19.1275 22.3839Z" fill="#A06A9A"/>
</g>
<path d="M4.65625 2.45066C4.65625 2.45066 7.67841 9.32948 9.31961 5.96173C7.48953 2.4261 4.65625 2.45066 4.65625 2.45066Z" fill="url(#paint17_linear_12248_311000)"/>
<path d="M8.6115 19.1528C8.4215 20.8545 7.33315 22.6166 6.31392 22.5821C5.27734 22.5475 4.88861 21.485 4.74185 20.6385C4.64685 20.0598 4.65548 19.5847 4.65548 19.5847C4.65548 19.5847 4.63812 15.0241 7.32453 16.2505C8.43876 16.7603 8.74974 17.9436 8.6115 19.1528Z" fill="url(#paint18_linear_12248_311000)"/>
<path d="M8.61086 19.1529C8.42086 20.8546 7.33251 22.6166 6.31329 22.5821C5.2767 22.5475 4.88797 21.4851 4.74121 20.6386C5.76034 22.3057 7.22889 23.2904 8.61086 19.1529Z" fill="#FFE83E"/>
<g opacity="0.68" style="mix-blend-mode:soft-light">
<path d="M1.11363 2.45063C1.11363 2.45063 1.10754 12.7276 4.07479 14.4631C7.04203 16.1987 11.9689 12.7836 11.2971 11.384C10.6253 9.98421 2.23049 5.36339 2.00324 3.09789C1.77599 0.832385 1.09567 1.52407 1.11363 2.45063Z" fill="#FFD13B"/>
</g>
<g opacity="0.68" style="mix-blend-mode:soft-light">
<path d="M2.28354 7.80087C2.28354 7.80087 2.66842 14.3513 5.30336 14.0714C7.93821 13.7915 9.58276 12.7277 9.32039 11.776C9.05803 10.8241 2.22762 4.94557 2.28354 7.80087Z" fill="#FFD13B"/>
</g>
<path d="M31.0912 11.0362C30.2783 11.7775 29.8724 13.2016 30.3891 13.9398C30.9143 14.6907 31.6698 14.6014 32.1922 14.4103C32.5467 14.2756 32.7953 14.1014 32.7953 14.1014C32.7953 14.1014 35.2313 12.5021 33.2652 10.9578C32.4491 10.3176 31.6673 10.507 31.0912 11.0362Z" fill="url(#paint19_linear_12248_311000)"/>
<path d="M31.0912 11.036C30.2783 11.7773 29.8724 13.2014 30.3891 13.9396C30.9143 14.6905 31.6698 14.6013 32.1922 14.4102C30.8066 14.249 29.5645 13.5159 31.0912 11.036Z" fill="#FFE83E"/>
<defs>
<linearGradient id="paint0_linear_12248_311000" x1="4.57674" y1="32.4478" x2="17.2564" y2="-4.89124" gradientUnits="userSpaceOnUse">
<stop offset="0.15154" stop-color="#B83A36"/>
<stop offset="0.21605" stop-color="#B83D2D"/>
<stop offset="0.45675" stop-color="#BB4914"/>
<stop offset="0.67542" stop-color="#BC5005"/>
<stop offset="0.85091" stop-color="#BD5300"/>
</linearGradient>
<linearGradient id="paint1_linear_12248_311000" x1="42.8436" y1="32.4478" x2="30.1639" y2="-4.89124" gradientUnits="userSpaceOnUse">
<stop offset="0.15154" stop-color="#B83A36"/>
<stop offset="0.21605" stop-color="#B83D2D"/>
<stop offset="0.45675" stop-color="#BB4914"/>
<stop offset="0.67542" stop-color="#BC5005"/>
<stop offset="0.85091" stop-color="#BD5300"/>
</linearGradient>
<linearGradient id="paint2_linear_12248_311000" x1="51.1183" y1="57.5762" x2="27.9928" y2="-10.5235" gradientUnits="userSpaceOnUse">
<stop offset="0.16175" stop-color="#FF7540"/>
<stop offset="0.20125" stop-color="#FF7F38"/>
<stop offset="0.33528" stop-color="#FF9D24"/>
<stop offset="0.47668" stop-color="#FFB514"/>
<stop offset="0.62688" stop-color="#FFC508"/>
<stop offset="0.79185" stop-color="#FFCF02"/>
<stop offset="1" stop-color="#FFD300"/>
</linearGradient>
<linearGradient id="paint3_linear_12248_311000" x1="37.7112" y1="8.26068" x2="33.0479" y2="8.26068" gradientUnits="userSpaceOnUse">
<stop offset="0.15154" stop-color="#B83A36"/>
<stop offset="0.21605" stop-color="#B83D2D"/>
<stop offset="0.45675" stop-color="#BB4914"/>
<stop offset="0.67542" stop-color="#BC5005"/>
<stop offset="0.85091" stop-color="#BD5300"/>
</linearGradient>
<linearGradient id="paint4_linear_12248_311000" x1="-3.69842" y1="57.5762" x2="19.4271" y2="-10.5235" gradientUnits="userSpaceOnUse">
<stop offset="0.16175" stop-color="#FF7540"/>
<stop offset="0.20125" stop-color="#FF7F38"/>
<stop offset="0.33528" stop-color="#FF9D24"/>
<stop offset="0.47668" stop-color="#FFB514"/>
<stop offset="0.62688" stop-color="#FFC508"/>
<stop offset="0.79185" stop-color="#FFCF02"/>
<stop offset="1" stop-color="#FFD300"/>
</linearGradient>
<linearGradient id="paint5_linear_12248_311000" x1="18.7369" y1="59.1983" x2="28.5434" y2="4.51978" gradientUnits="userSpaceOnUse">
<stop stop-color="#FF7540"/>
<stop offset="0.08377" stop-color="#FF8137"/>
<stop offset="0.34713" stop-color="#FFA41F"/>
<stop offset="0.59529" stop-color="#FFBE0E"/>
<stop offset="0.81984" stop-color="#FFCD03"/>
<stop offset="1" stop-color="#FFD300"/>
</linearGradient>
<linearGradient id="paint6_linear_12248_311000" x1="18.7369" y1="59.1983" x2="28.5434" y2="4.51978" gradientUnits="userSpaceOnUse">
<stop offset="0.15154" stop-color="#B83A36"/>
<stop offset="0.21605" stop-color="#B83D2D"/>
<stop offset="0.45675" stop-color="#BB4914"/>
<stop offset="0.67542" stop-color="#BC5005"/>
<stop offset="0.85091" stop-color="#BD5300"/>
</linearGradient>
<linearGradient id="paint7_linear_12248_311000" x1="18.9648" y1="57.1386" x2="28.3003" y2="5.08624" gradientUnits="userSpaceOnUse">
<stop stop-color="#FF7540"/>
<stop offset="0.08377" stop-color="#FF8137"/>
<stop offset="0.34713" stop-color="#FFA41F"/>
<stop offset="0.59529" stop-color="#FFBE0E"/>
<stop offset="0.81984" stop-color="#FFCD03"/>
<stop offset="1" stop-color="#FFD300"/>
</linearGradient>
<linearGradient id="paint8_linear_12248_311000" x1="18.7424" y1="60.5237" x2="28.5488" y2="5.84552" gradientUnits="userSpaceOnUse">
<stop offset="0.15154" stop-color="#B83A36"/>
<stop offset="0.21605" stop-color="#B83D2D"/>
<stop offset="0.45675" stop-color="#BB4914"/>
<stop offset="0.67542" stop-color="#BC5005"/>
<stop offset="0.85091" stop-color="#BD5300"/>
</linearGradient>
<linearGradient id="paint9_linear_12248_311000" x1="18.9668" y1="57.1368" x2="28.3015" y2="5.08927" gradientUnits="userSpaceOnUse">
<stop stop-color="#FF7540"/>
<stop offset="0.08377" stop-color="#FF8137"/>
<stop offset="0.34713" stop-color="#FFA41F"/>
<stop offset="0.59529" stop-color="#FFBE0E"/>
<stop offset="0.81984" stop-color="#FFCD03"/>
<stop offset="1" stop-color="#FFD300"/>
</linearGradient>
<linearGradient id="paint10_linear_12248_311000" x1="20.791" y1="46.9579" x2="26.353" y2="15.9457" gradientUnits="userSpaceOnUse">
<stop offset="0.15154" stop-color="#B83A36"/>
<stop offset="0.21605" stop-color="#B83D2D"/>
<stop offset="0.45675" stop-color="#BB4914"/>
<stop offset="0.67542" stop-color="#BC5005"/>
<stop offset="0.85091" stop-color="#BD5300"/>
</linearGradient>
<linearGradient id="paint11_linear_12248_311000" x1="9.54912" y1="38.9541" x2="15.1343" y2="42.4847" gradientUnits="userSpaceOnUse">
<stop offset="0.15154" stop-color="#B83A36"/>
<stop offset="0.21605" stop-color="#B83D2D"/>
<stop offset="0.45675" stop-color="#BB4914"/>
<stop offset="0.67542" stop-color="#BC5005"/>
<stop offset="0.85091" stop-color="#BD5300"/>
</linearGradient>
<linearGradient id="paint12_linear_12248_311000" x1="23.2615" y1="23.6595" x2="23.7108" y2="41.4072" gradientUnits="userSpaceOnUse">
<stop stop-color="#7C005B"/>
<stop offset="0.41291" stop-color="#970040"/>
<stop offset="1" stop-color="#C40014"/>
</linearGradient>
<linearGradient id="paint13_linear_12248_311000" x1="23.2171" y1="23.6982" x2="22.9924" y2="33.3585" gradientUnits="userSpaceOnUse">
<stop offset="0.00559" stop-color="#D65B10"/>
<stop offset="1"/>
</linearGradient>
<linearGradient id="paint14_linear_12248_311000" x1="17.7441" y1="41.4509" x2="25.6069" y2="30.6677" gradientUnits="userSpaceOnUse">
<stop offset="0.00559" stop-color="#D65B10"/>
<stop offset="1"/>
</linearGradient>
<linearGradient id="paint15_linear_12248_311000" x1="23.7551" y1="40.4875" x2="24.0362" y2="30.1993" gradientUnits="userSpaceOnUse">
<stop offset="0.00559" stop-color="#D65B10"/>
<stop offset="1"/>
</linearGradient>
<linearGradient id="paint16_linear_12248_311000" x1="18.5454" y1="27.6121" x2="20.4364" y2="21.2481" gradientUnits="userSpaceOnUse">
<stop offset="0.15154" stop-color="#B83A36"/>
<stop offset="0.21605" stop-color="#B83D2D"/>
<stop offset="0.45675" stop-color="#BB4914"/>
<stop offset="0.67542" stop-color="#BC5005"/>
<stop offset="0.85091" stop-color="#BD5300"/>
</linearGradient>
<linearGradient id="paint17_linear_12248_311000" x1="4.65625" y1="4.67035" x2="9.31961" y2="4.67035" gradientUnits="userSpaceOnUse">
<stop offset="0.15154" stop-color="#B83A36"/>
<stop offset="0.21605" stop-color="#B83D2D"/>
<stop offset="0.45675" stop-color="#BB4914"/>
<stop offset="0.67542" stop-color="#BC5005"/>
<stop offset="0.85091" stop-color="#BD5300"/>
</linearGradient>
<linearGradient id="paint18_linear_12248_311000" x1="4.65527" y1="19.3119" x2="8.64223" y2="19.3119" gradientUnits="userSpaceOnUse">
<stop offset="0.15154" stop-color="#B83A36"/>
<stop offset="0.21605" stop-color="#B83D2D"/>
<stop offset="0.45675" stop-color="#BB4914"/>
<stop offset="0.67542" stop-color="#BC5005"/>
<stop offset="0.85091" stop-color="#BD5300"/>
</linearGradient>
<linearGradient id="paint19_linear_12248_311000" x1="32.9478" y1="14.0082" x2="30.9986" y2="11.0729" gradientUnits="userSpaceOnUse">
<stop offset="0.15154" stop-color="#B83A36"/>
<stop offset="0.21605" stop-color="#B83D2D"/>
<stop offset="0.45675" stop-color="#BB4914"/>
<stop offset="0.67542" stop-color="#BC5005"/>
<stop offset="0.85091" stop-color="#BD5300"/>
</linearGradient>
</defs>
</svg>
