<svg width="90" height="90" viewBox="0 0 90 90" fill="none" xmlns="http://www.w3.org/2000/svg">
<g clip-path="url(#clip0_12151_195619)">
<path fill-rule="evenodd" clip-rule="evenodd" d="M44.9987 10.2123C64.2114 10.2123 79.7864 25.7877 79.7864 45C79.7864 64.2123 64.2114 79.7882 44.9987 79.7882C25.786 79.7882 10.2109 64.2131 10.2109 45C10.2109 25.7869 25.786 10.2123 44.9987 10.2123Z" fill="url(#paint0_linear_12151_195619)"/>
<path fill-rule="evenodd" clip-rule="evenodd" d="M10.2123 45C10.2123 25.7877 25.7873 10.2123 45 10.2123V0C43.0783 2.25386 39.3055 4.87411 35.0043 5.97288C27.8976 7.78773 21.5471 11.4921 16.5194 16.5194C11.4921 21.5471 7.78773 27.8976 5.97288 35.0043C4.87411 39.3055 2.25386 43.0783 0 45H10.2123Z" fill="url(#paint1_linear_12151_195619)"/>
<path fill-rule="evenodd" clip-rule="evenodd" d="M45 10.2123C64.2127 10.2123 79.7877 25.7877 79.7877 45H90C87.7466 43.0783 85.1259 39.3055 84.0275 35.0043C82.2127 27.8976 78.5083 21.5471 73.4806 16.5194C68.4533 11.4921 62.1028 7.78773 54.9961 5.97288C50.6945 4.87411 46.9217 2.25386 45 0V10.2123Z" fill="url(#paint2_linear_12151_195619)"/>
<path fill-rule="evenodd" clip-rule="evenodd" d="M79.7877 45C79.7877 64.2131 64.2127 79.7882 45 79.7882V90C46.9217 87.7466 50.6945 85.1259 54.9961 84.0275C62.1028 82.2127 68.4533 78.5083 73.481 73.4806C78.5083 68.4533 82.2127 62.1028 84.0275 54.9961C85.1259 50.6945 87.7466 46.9217 90 45H79.7877Z" fill="url(#paint3_linear_12151_195619)"/>
<path fill-rule="evenodd" clip-rule="evenodd" d="M45 79.7882C25.7873 79.7882 10.2123 64.2131 10.2123 45H0C2.25386 46.9217 4.87411 50.6945 5.97288 54.9961C7.78773 62.1028 11.4921 68.4533 16.5194 73.481C21.5471 78.5083 27.8976 82.2127 35.0043 84.0275C39.3055 85.1259 43.0783 87.7466 45 90V79.7882Z" fill="url(#paint4_linear_12151_195619)"/>
<path fill-rule="evenodd" clip-rule="evenodd" d="M44.9989 13.1422C62.5937 13.1422 76.8571 27.4057 76.8571 45C76.8571 62.5944 62.5937 76.8583 44.9989 76.8583C27.4041 76.8583 13.1406 62.5948 13.1406 45C13.1406 27.4053 27.4041 13.1422 44.9989 13.1422Z" fill="url(#paint5_radial_12151_195619)"/>
<path fill-rule="evenodd" clip-rule="evenodd" d="M18.9147 21.9836C13.499 28.1167 10.2123 36.1749 10.2123 45H1.33203C5.99916 45 7.74266 42.3651 9.93684 36.5796C13.7372 26.5597 17.5209 22.8608 18.9147 21.9836ZM21.9836 18.9147C28.1167 13.499 36.1749 10.2123 45 10.2123V1.33203C45 5.99916 42.3651 7.74308 36.5792 9.93726C26.5597 13.7372 22.8608 17.5213 21.9836 18.9147Z" fill="url(#paint6_linear_12151_195619)" style="mix-blend-mode:screen"/>
<path fill-rule="evenodd" clip-rule="evenodd" d="M68.7345 68.7355C57.2152 80.2543 39.6918 82.1097 26.2383 74.3011C31.6511 77.7739 38.0901 79.7882 44.999 79.7882C64.2117 79.7882 79.7868 64.2131 79.7868 45C79.7868 38.0916 77.7728 31.6538 74.3005 26.241C82.1082 39.6936 80.2529 57.2166 68.7345 68.7355Z" fill="url(#paint7_linear_12151_195619)" style="mix-blend-mode:screen"/>
<path fill-rule="evenodd" clip-rule="evenodd" d="M44.9985 13.1422C62.5937 13.1422 76.8567 27.4061 76.8567 45.0005C76.8567 62.5948 62.5937 76.8583 44.9985 76.8583C27.4032 76.8583 13.1406 62.5953 13.1406 45.0005C13.1406 27.4057 27.4037 13.1422 44.9985 13.1422Z" fill="url(#paint8_radial_12151_195619)"/>
<path fill-rule="evenodd" clip-rule="evenodd" d="M41.4453 17.3115C54.8854 17.3115 65.7804 28.2078 65.7804 41.647C65.7804 55.0872 54.8854 65.9834 41.4453 65.9834C28.0052 65.9834 17.1094 55.0872 17.1094 41.647C17.1094 28.2078 28.0048 17.3115 41.4453 17.3115Z" fill="url(#paint9_radial_12151_195619)" style="mix-blend-mode:screen"/>
<path fill-rule="evenodd" clip-rule="evenodd" d="M26.7494 25.9489C33.8891 18.8097 44.1022 17.4467 49.5609 22.9063C55.0201 28.3655 53.6576 38.5782 46.518 45.7178C39.3783 52.8575 29.1648 54.22 23.706 48.7608C18.2468 43.3021 19.6098 33.089 26.7494 25.9489Z" fill="url(#paint10_radial_12151_195619)" style="mix-blend-mode:screen"/>
<path opacity="0.5" fill-rule="evenodd" clip-rule="evenodd" d="M59.3966 19.2419C67.6242 24.4378 73.09 33.6093 73.09 44.0603C73.09 60.2596 59.9587 73.3918 43.7594 73.3918C39.3593 73.3918 35.1875 72.4207 31.4414 70.6851C33.707 71.2255 36.0697 71.5131 38.4993 71.5131C55.2415 71.5131 68.8123 57.9423 68.8123 41.2005C68.8123 32.5602 65.1967 24.7641 59.3966 19.2419Z" fill="url(#paint11_radial_12151_195619)" style="mix-blend-mode:screen"/>
</g>
<path d="M25 50.1729V49.6283C25.189 49.2573 25.4397 48.9854 25.8613 48.853L27.576 48.3145C28.1619 48.1305 28.7354 48.5123 28.8751 49.0527C29.0186 49.6077 28.7098 50.1459 28.1334 50.3347L26.4755 50.8777C25.8123 51.0949 25.264 50.7844 25 50.1729Z" fill="white"/>
<path d="M45.2826 54.8164C45.0987 54.7198 44.8754 54.6961 44.7305 54.7721L37.0162 58.8202C36.0787 59.3122 35.0572 59.3123 34.1845 58.7123C33.3796 58.1588 32.9007 57.1726 33.0811 56.1226L34.5731 47.437C34.6012 47.2738 34.5146 47.0508 34.399 46.9383L28.0869 40.795C27.358 40.0856 27.1226 39.0731 27.4592 38.0681C27.7267 37.2694 28.4745 36.4987 29.4687 36.354L38.2457 35.0767C38.4448 35.0477 38.6287 34.9144 38.7151 34.7396L42.5697 26.9404C43.0355 25.998 43.9157 25.4334 44.9235 25.4204C45.9657 25.407 46.8753 25.9757 47.3519 26.9399L51.2335 34.7911C51.2854 34.8962 51.4861 35.0471 51.6041 35.0641L60.2374 36.3117C61.2795 36.4622 62.0893 37.0784 62.4252 37.9602C62.8215 39.0002 62.5801 40.0759 61.7975 40.8371L55.5243 46.9379C55.4079 47.0512 55.3198 47.2727 55.3481 47.437L56.8316 56.0577C57.0092 57.0901 56.6161 58.0596 55.8272 58.6472C54.9802 59.2781 53.9154 59.348 52.9579 58.8454L45.2826 54.8164ZM46.2669 52.9587L54.0433 57.038C54.1997 57.12 54.4894 57.0427 54.5916 56.9482C54.7083 56.8402 54.7899 56.6194 54.7563 56.4237L53.2751 47.8024C53.1183 46.89 53.4211 46.0493 54.0767 45.4117L60.346 39.3142C60.4878 39.1764 60.5262 38.9012 60.4664 38.7258C60.42 38.5894 60.2201 38.4383 60.013 38.4081L51.2472 37.1298C50.4372 37.0116 49.7222 36.4743 49.3614 35.7461L45.4402 27.8325C45.338 27.6262 45.117 27.5102 44.9199 27.5221C44.7559 27.532 44.5643 27.6654 44.4731 27.8496L40.5876 35.6972C40.2012 36.4777 39.482 37.018 38.6102 37.1448L29.9096 38.4103C29.7019 38.4405 29.5017 38.5902 29.4563 38.7244C29.3952 38.905 29.4343 39.1733 29.5774 39.3125L35.8849 45.449C36.5212 46.068 36.7976 46.9241 36.647 47.8013L35.1664 56.4239C35.1284 56.6451 35.2256 56.8776 35.3761 56.9826C35.504 57.0719 35.7652 57.099 35.9305 57.0124L43.7369 52.9215C44.5432 52.4989 45.4306 52.52 46.2669 52.9587Z" fill="white"/>
<path d="M46.0134 63.5707C46.0143 64.1971 45.5403 64.6321 44.9959 64.6495C44.4186 64.668 43.9072 64.2194 43.907 63.6009L43.9063 61.7178C43.906 61.123 44.3803 60.6842 44.9216 60.6638C45.5033 60.642 46.0098 61.0974 46.0107 61.7178L46.0134 63.5707Z" fill="white"/>
<path d="M64.1951 48.91C64.785 49.1025 65.0367 49.7236 64.8644 50.2347C64.6916 50.7471 64.1251 51.0902 63.5623 50.9078L61.7302 50.3144C61.1558 50.1283 60.8929 49.516 61.0626 48.9962C61.2389 48.4558 61.8209 48.1355 62.3998 48.3243L64.1951 48.91Z" fill="white"/>
<path d="M35.2399 28.6418C35.6123 29.1546 35.4397 29.8132 34.9803 30.127C34.5047 30.4519 33.8696 30.3362 33.5165 29.8494L32.4356 28.3592C32.0856 27.8767 32.1879 27.234 32.6468 26.8883C33.1047 26.5434 33.7777 26.6286 34.1429 27.1315L35.2399 28.6418Z" fill="white"/>
<path d="M56.3917 29.8704C56.0297 30.3686 55.3881 30.4363 54.9452 30.1362C54.4662 29.8115 54.3165 29.1508 54.6747 28.6578L55.7835 27.1315C56.1318 26.6521 56.7702 26.5557 57.2288 26.863C57.7141 27.1881 57.853 27.8596 57.4898 28.3593L56.3917 29.8704Z" fill="white"/>
<defs>
<linearGradient id="paint0_linear_12151_195619" x1="44.9987" y1="79.7882" x2="44.9987" y2="10.2123" gradientUnits="userSpaceOnUse">
<stop stop-color="#F0A324"/>
<stop offset="1" stop-color="#995E00"/>
</linearGradient>
<linearGradient id="paint1_linear_12151_195619" x1="0" y1="22.5" x2="45" y2="22.5" gradientUnits="userSpaceOnUse">
<stop stop-color="#F5D36C"/>
<stop offset="1" stop-color="#FFF5B0"/>
</linearGradient>
<linearGradient id="paint2_linear_12151_195619" x1="45" y1="22.5" x2="90" y2="22.5" gradientUnits="userSpaceOnUse">
<stop stop-color="#FFDD6E"/>
<stop offset="1" stop-color="#D69705"/>
</linearGradient>
<linearGradient id="paint3_linear_12151_195619" x1="45" y1="67.5" x2="90" y2="67.5" gradientUnits="userSpaceOnUse">
<stop stop-color="#6B4200"/>
<stop offset="1" stop-color="#A87219"/>
</linearGradient>
<linearGradient id="paint4_linear_12151_195619" x1="0" y1="67.5" x2="45" y2="67.5" gradientUnits="userSpaceOnUse">
<stop stop-color="#A36808"/>
<stop offset="1" stop-color="#BF8800"/>
</linearGradient>
<radialGradient id="paint5_radial_12151_195619" cx="0" cy="0" r="1" gradientUnits="userSpaceOnUse" gradientTransform="translate(44.9989 45.0003) scale(31.8582 31.8582)">
<stop stop-color="#361C0B"/>
<stop offset="0.40879" stop-color="#381E0C"/>
<stop offset="0.64721" stop-color="#402412"/>
<stop offset="0.84125" stop-color="#4E301C"/>
<stop offset="1" stop-color="#614029"/>
</radialGradient>
<linearGradient id="paint6_linear_12151_195619" x1="27.6061" y1="27.6061" x2="20.3409" y2="20.3409" gradientUnits="userSpaceOnUse">
<stop stop-color="white"/>
<stop offset="0.12346" stop-color="#FAFAFA"/>
<stop offset="0.24872" stop-color="#EEEEEE"/>
<stop offset="0.37493" stop-color="#DADADA"/>
<stop offset="0.50179" stop-color="#BDBDBD"/>
<stop offset="0.62919" stop-color="#999999"/>
<stop offset="0.75704" stop-color="#6B6B6B"/>
<stop offset="0.88276" stop-color="#373737"/>
<stop offset="1"/>
</linearGradient>
<linearGradient id="paint7_linear_12151_195619" x1="69.5975" y1="69.5992" x2="50.2688" y2="50.2705" gradientUnits="userSpaceOnUse">
<stop stop-color="#FFF0B0"/>
<stop offset="1"/>
</linearGradient>
<radialGradient id="paint8_radial_12151_195619" cx="0" cy="0" r="1" gradientUnits="userSpaceOnUse" gradientTransform="translate(34.8081 36.2958) scale(43.4593)">
<stop stop-color="#DE5634"/>
<stop offset="0.0507" stop-color="#DA5131"/>
<stop offset="0.38747" stop-color="#C53324"/>
<stop offset="0.57993" stop-color="#BD291F"/>
<stop offset="0.65283" stop-color="#B6271D"/>
<stop offset="0.75163" stop-color="#A5221B"/>
<stop offset="0.86525" stop-color="#891A16"/>
<stop offset="0.98911" stop-color="#61100F"/>
<stop offset="1" stop-color="#5E0F0F"/>
</radialGradient>
<radialGradient id="paint9_radial_12151_195619" cx="0" cy="0" r="1" gradientUnits="userSpaceOnUse" gradientTransform="translate(24.8852 22.54) scale(52.9011 52.9011)">
<stop stop-color="#DE5634"/>
<stop offset="1"/>
</radialGradient>
<radialGradient id="paint10_radial_12151_195619" cx="0" cy="0" r="1" gradientUnits="userSpaceOnUse" gradientTransform="translate(13.7047 11.6308) scale(52.2193 52.2193)">
<stop stop-color="#DE5634"/>
<stop offset="1"/>
</radialGradient>
<radialGradient id="paint11_radial_12151_195619" cx="0" cy="0" r="1" gradientUnits="userSpaceOnUse" gradientTransform="translate(46.7458 39.5231) scale(50.157 50.157)">
<stop stop-color="#DE5634"/>
<stop offset="1"/>
</radialGradient>
<clipPath id="clip0_12151_195619">
<rect width="90" height="90" fill="white"/>
</clipPath>
</defs>
</svg>
