<svg width="72" height="72" viewBox="0 0 72 72" fill="none" xmlns="http://www.w3.org/2000/svg">
<path fill-rule="evenodd" clip-rule="evenodd" d="M36 72C55.8823 72 72 55.8823 72 36C72 16.1177 55.8823 0 36 0C16.1177 0 0 16.1177 0 36C0 55.8823 16.1177 72 36 72Z" fill="#FFCE3C"/>
<g clip-path="url(#clip0_8185_1241)">
<path d="M23.508 27.26C24.288 27.26 25.088 27.26 25.868 27.38C27.2033 27.4556 28.5157 27.7601 29.748 28.28C29.8982 28.3545 30.0712 28.3691 30.2318 28.3207C30.3923 28.2723 30.5284 28.1646 30.6125 28.0194C30.6965 27.8743 30.7221 27.7026 30.6841 27.5393C30.6462 27.3759 30.5474 27.2332 30.408 27.14C29.3061 26.3387 28.0651 25.7488 26.748 25.4C25.6228 25.0877 24.4472 24.9994 23.288 25.14C21.9565 25.3461 20.6667 25.7648 19.468 26.38C19.325 26.4342 19.2081 26.541 19.1411 26.6786C19.0742 26.8161 19.0624 26.974 19.108 27.12C19.1622 27.2676 19.2722 27.3881 19.4144 27.4554C19.5565 27.5228 19.7194 27.5316 19.868 27.48C21.069 27.2682 22.2902 27.1944 23.508 27.26Z" fill="black"/>
<path d="M30.868 32.32C29.3984 30.9873 27.5098 30.2093 25.528 30.12C24.9734 30.1012 24.4182 30.128 23.868 30.2C22.576 30.4421 21.3196 30.8452 20.128 31.4C19.9988 31.458 19.8953 31.5612 19.837 31.6902C19.7787 31.8192 19.7696 31.9651 19.8114 32.1004C19.8532 32.2357 19.943 32.351 20.064 32.4246C20.1849 32.4982 20.3286 32.525 20.468 32.5C21.6803 32.3321 22.9045 32.2652 24.128 32.3H26.468C27.7584 32.3506 29.0217 32.6852 30.168 33.28C30.2339 33.3503 30.3144 33.4053 30.4038 33.4412C30.4932 33.4771 30.5894 33.493 30.6856 33.4877C30.7819 33.4824 30.8758 33.4561 30.9607 33.4107C31.0457 33.3653 31.1197 33.3018 31.1775 33.2247C31.2353 33.1476 31.2756 33.0588 31.2954 32.9645C31.3152 32.8702 31.3142 32.7727 31.2923 32.6788C31.2704 32.585 31.2282 32.4971 31.1688 32.4212C31.1093 32.3454 31.0339 32.2836 30.948 32.24L30.868 32.32Z" fill="black"/>
<path d="M25.628 35.16C25.0568 35.0899 24.4792 35.0899 23.908 35.16C22.6067 35.3364 21.3471 35.7427 20.188 36.36C20.0516 36.415 19.9411 36.5198 19.879 36.6532C19.8169 36.7865 19.8078 36.9385 19.8536 37.0784C19.8994 37.2182 19.9965 37.3354 20.1255 37.4062C20.2544 37.4771 20.4055 37.4963 20.548 37.46C21.6802 37.2364 22.8376 37.1691 23.988 37.26H25.388C25.8518 37.2972 26.3128 37.364 26.768 37.46C27.8536 37.7188 28.8972 38.1295 29.868 38.68C29.9361 38.7304 30.0135 38.7668 30.0958 38.7871C30.1781 38.8074 30.2636 38.8111 30.3473 38.7981C30.431 38.785 30.5113 38.7555 30.5835 38.7112C30.6558 38.6669 30.7185 38.6087 30.768 38.54C30.8207 38.4701 30.8584 38.3901 30.8789 38.305C30.8995 38.22 30.9023 38.1316 30.8873 38.0453C30.8723 37.9591 30.8398 37.8769 30.7918 37.8037C30.7437 37.7306 30.6812 37.668 30.608 37.62C29.6237 36.7481 28.4838 36.0695 27.248 35.62C26.7219 35.4214 26.18 35.2675 25.628 35.16Z" fill="black"/>
<path d="M42.9079 23.36C43.0622 24.1462 43.169 24.941 43.2279 25.74C43.5079 29.08 43.2279 32.5 43.8079 35.74C43.8079 35.74 44.6879 36.96 45.6079 36.2C46.041 35.842 46.4549 35.4615 46.8479 35.06C47.0954 34.7316 47.3161 34.3838 47.5079 34.02C47.78 33.5223 48.0205 33.0079 48.2279 32.48C48.6876 32.9737 49.1089 33.502 49.4879 34.06C49.4879 34.06 50.5479 35.46 50.6279 35.54C50.7979 35.7424 51.0299 35.883 51.2879 35.94C51.5504 36.0094 51.8294 35.9755 52.0675 35.8452C52.3057 35.715 52.4848 35.4984 52.5679 35.24C52.6967 34.9134 52.7776 34.5698 52.8079 34.22V32.4L52.6079 27.08C51.8679 20 51.8679 19.08 51.3879 18.1C51.211 17.7463 50.9636 17.4326 50.6609 17.1781C50.3582 16.9236 50.0067 16.7337 49.6279 16.62C49.0617 16.4306 48.4634 16.3558 47.8679 16.4C47.1294 16.4218 46.3938 16.5021 45.6679 16.64C45.4679 16.64 41.3879 17.58 41.0079 17.82C40.9426 17.8572 40.8855 17.9071 40.8399 17.9668C40.7943 18.0265 40.7612 18.0948 40.7425 18.1676C40.7239 18.2404 40.72 18.3162 40.7313 18.3904C40.7425 18.4647 40.7686 18.536 40.8079 18.6C41.6522 20.119 42.3552 21.7124 42.9079 23.36ZM42.3879 18.74L45.8679 18C46.534 17.959 47.2019 17.959 47.8679 18C48.2496 17.983 48.6308 18.0442 48.9879 18.18C49.1669 18.2369 49.3322 18.3302 49.4733 18.4542C49.6145 18.5781 49.7284 18.7299 49.8079 18.9C50.0274 19.6532 50.1286 20.4358 50.1079 21.22L50.5279 27.32V32C50.2496 31.6352 49.949 31.2879 49.6279 30.96C49.1794 30.5191 48.667 30.1482 48.1079 29.86C47.9576 29.7902 47.7937 29.754 47.6279 29.754C47.4621 29.754 47.2983 29.7902 47.1479 29.86C46.9331 29.939 46.7503 30.0866 46.6279 30.28C46.5466 30.4953 46.4798 30.7158 46.4279 30.94L46.1279 31.74C45.9679 32.12 45.8079 32.52 45.6279 32.9L45.3479 33.42C45.0079 30.86 45.0079 28.22 44.6479 25.64C44.546 24.7834 44.3857 23.9347 44.1679 23.1C43.9805 22.365 43.7261 21.6486 43.4079 20.96C43.0679 20.24 42.6679 19.52 42.2479 18.82L42.3879 18.74Z" fill="black"/>
<path d="M59.648 32.5C59.428 30.5 59.088 28.5 58.788 26.66C58.6042 25.2228 58.2964 23.8042 57.868 22.42C57.6478 21.6647 57.1836 21.0036 56.548 20.54C55.8138 20.1258 55.0049 19.8607 54.168 19.76C54.0281 19.7523 53.8879 19.7523 53.748 19.76C52.448 19.76 52.628 21 53.748 21.22H53.888C54.5004 21.3315 55.0849 21.5626 55.608 21.9C56.0014 22.3538 56.2396 22.9214 56.288 23.52C56.528 24.76 56.548 26.18 56.648 27.06C56.908 28.8 57.168 30.76 57.428 32.78C57.688 34.8 57.888 36.58 57.948 38.48C58.0367 40.3992 57.9295 42.3225 57.628 44.22C55.3478 43.4599 52.95 43.1144 50.548 43.2C48.0557 43.2764 45.5829 43.6661 43.188 44.36C42.4292 44.5753 41.7027 44.8915 41.028 45.3C40.1677 45.8232 39.3395 46.3976 38.548 47.02L37.928 47.42C37.928 45.66 38.088 43.42 38.068 41.2V38.18C38.068 37.16 37.908 36.18 37.788 35.18C37.468 32.54 36.968 30.08 36.568 28.26C36.5686 28.175 36.5493 28.0911 36.5114 28.015C36.4735 27.939 36.4182 27.8729 36.35 27.8223C36.2818 27.7716 36.2026 27.7377 36.1188 27.7234C36.0351 27.7092 35.9491 27.7148 35.868 27.74C35.7941 27.7498 35.723 27.7742 35.6587 27.8118C35.5944 27.8495 35.5382 27.8996 35.4935 27.9592C35.4488 28.0188 35.4165 28.0867 35.3983 28.1589C35.3802 28.2312 35.3767 28.3064 35.388 28.38C35.548 30.22 35.568 32.68 35.668 35.32C35.668 36.28 35.668 37.32 35.828 38.28C35.988 39.24 35.968 40.28 36.068 41.26C36.248 43.4 36.448 45.4 36.568 47.08C36.088 46.74 35.528 46.34 34.788 45.9C34.0249 45.4368 33.2296 45.029 32.408 44.68C29.5644 43.4733 26.4581 43.0187 23.388 43.36C20.646 43.7187 18.002 44.6159 15.608 46C15.8163 44.2615 15.9032 42.5106 15.868 40.76C15.8345 38.8158 15.654 36.877 15.328 34.96L14.088 26C14.088 25.6 14.308 25.34 14.628 25.1C15.163 24.7302 15.7492 24.4404 16.368 24.24C19.3653 23.1033 22.5424 22.5139 25.748 22.5C28.9631 22.5406 32.1381 23.2205 35.088 24.5C35.2445 24.5716 35.423 24.5781 35.5843 24.5181C35.7455 24.4581 35.8764 24.3365 35.948 24.18C36.0196 24.0235 36.0261 23.845 35.9661 23.6837C35.9061 23.5224 35.7845 23.3916 35.628 23.32C32.5882 21.785 29.2671 20.8866 25.868 20.68C22.428 20.5283 18.9897 21.0166 15.728 22.12C14.677 22.4322 13.7074 22.9716 12.888 23.7C12.5082 24.0132 12.2151 24.4184 12.0365 24.8771C11.858 25.3357 11.7999 25.8325 11.868 26.32C11.868 26.74 12.228 28.72 12.588 30.8C12.888 32.52 13.228 34.28 13.488 35.34C13.9052 37.1505 14.1926 38.9885 14.348 40.84C14.488 42.74 14.348 47.1 14.348 47.24C14.2688 48.0453 14.4587 48.8541 14.888 49.54C15.1249 49.9028 15.4401 50.2079 15.8104 50.4329C16.1808 50.6578 16.5968 50.797 17.028 50.84C17.4913 50.9187 17.9646 50.9187 18.428 50.84C19.308 50.66 20.248 50.26 21.048 50.14C22.1567 50.0158 23.2727 49.969 24.388 50C25.4775 50.0074 26.5634 50.128 27.628 50.36C29.4461 50.6087 31.096 51.5556 32.228 53C32.7987 53.843 33.525 54.5693 34.368 55.14C35.1984 55.574 36.1334 55.768 37.068 55.7C38.2904 55.7086 39.4949 55.4057 40.568 54.82C41.8896 53.8681 43.1154 52.7896 44.228 51.6C44.6544 51.2167 45.1499 50.9181 45.688 50.72C46.5912 50.3576 47.5296 50.0895 48.488 49.92C49.4554 49.7161 50.4396 49.6023 51.428 49.58C52.4143 49.5655 53.3995 49.6526 54.368 49.84C54.548 49.84 55.848 50.34 56.368 50.42C56.5186 50.4505 56.6742 50.4466 56.8232 50.4085C56.9721 50.3704 57.1105 50.2991 57.228 50.2C57.659 49.7207 57.9677 49.1443 58.128 48.52C58.9341 45.2318 59.5022 41.8898 59.828 38.52C59.8923 36.5115 59.8322 34.501 59.648 32.5ZM56.828 48C56.7524 48.2239 56.6517 48.4386 56.528 48.64C55.9493 48.3984 55.334 48.2564 54.708 48.22C53.6336 47.9586 52.5335 47.8177 51.428 47.8C50.3305 47.7832 49.2334 47.8568 48.148 48.02C47.0684 48.1827 46.0045 48.437 44.968 48.78C44.2366 49.0607 43.5598 49.4668 42.968 49.98C41.9224 51.0331 40.7845 51.9902 39.568 52.84C38.8037 53.24 37.9504 53.4395 37.088 53.42C35.308 53.42 34.888 52.62 34.148 51.72C33.4486 50.7782 32.5464 50.0058 31.508 49.46C30.4355 48.9094 29.2803 48.5378 28.088 48.36C26.8906 48.1764 25.6783 48.1094 24.468 48.16C23.2666 48.1935 22.0696 48.3206 20.888 48.54C20.068 48.7 19.128 49.16 18.228 49.4C17.9292 49.4865 17.619 49.527 17.308 49.52C17.0619 49.5116 16.8208 49.448 16.6027 49.3337C16.3846 49.2195 16.195 49.0576 16.048 48.86C15.7635 48.427 15.617 47.918 15.628 47.4C18.0958 46.0549 20.8243 45.2568 23.628 45.06C26.3867 44.9127 29.1381 45.463 31.628 46.66C33.3116 47.5233 34.9352 48.4989 36.488 49.58C36.8526 49.7634 37.2618 49.8396 37.668 49.8C38.3017 49.7216 38.9062 49.488 39.428 49.12C40.7517 47.9382 42.2492 46.9669 43.868 46.24C46.089 45.4916 48.3924 45.0148 50.728 44.82C52.9751 44.6054 55.2425 44.8227 57.408 45.46C57.308 45.6 57.008 47.44 56.828 48Z" fill="black"/>
<path d="M37.168 24.38C37.9358 24.0001 38.7315 23.6791 39.548 23.42L40.668 22.96C40.8742 22.8537 41.0398 22.6826 41.1394 22.4731C41.239 22.2636 41.2671 22.0271 41.2195 21.8001C41.1718 21.5731 41.0509 21.3679 40.8755 21.2162C40.7 21.0644 40.4796 20.9744 40.248 20.96C39.5272 21.0639 38.8416 21.3381 38.248 21.76C37.5379 22.2671 36.9105 22.881 36.388 23.58C36.2853 23.6879 36.228 23.8311 36.228 23.98C36.228 24.1289 36.2853 24.2722 36.388 24.38C36.4925 24.4814 36.6324 24.5381 36.778 24.5381C36.9236 24.5381 37.0635 24.4814 37.168 24.38Z" fill="black"/>
</g>
<defs>
<clipPath id="clip0_8185_1241">
<rect width="48" height="48" fill="white" transform="translate(11.8679 12)"/>
</clipPath>
</defs>
</svg>
