<svg width="72" height="72" viewBox="0 0 72 72" fill="none" xmlns="http://www.w3.org/2000/svg">
<path fill-rule="evenodd" clip-rule="evenodd" d="M36 72C55.8823 72 72 55.8823 72 36C72 16.1177 55.8823 0 36 0C16.1177 0 0 16.1177 0 36C0 55.8823 16.1177 72 36 72Z" fill="#FFCE3C"/>
<g clip-path="url(#clip0_8185_1213)">
<path fill-rule="evenodd" clip-rule="evenodd" d="M42.9074 18.3634C42.7546 18.3764 42.6116 18.4429 42.5048 18.5506C42.3981 18.6584 42.3346 18.8002 42.3262 18.95C41.9512 23.9 42.3262 30.4634 41.2949 36.3667C40.958 38.7394 40.263 41.0501 39.2324 43.2234C37.1887 47.4034 33.4012 50.355 26.2949 50.5567C24.3781 50.4903 22.4822 50.1443 20.6699 49.53C18.7783 49.0764 16.9951 48.2669 15.4199 47.1467C15.3537 47.0813 15.2748 47.0294 15.1879 46.9939C15.101 46.9585 15.0078 46.9403 14.9137 46.9403C14.8195 46.9403 14.7263 46.9585 14.6394 46.9939C14.5525 47.0294 14.4737 47.0813 14.4074 47.1467C14.2768 47.2798 14.2039 47.4572 14.2039 47.6417C14.2039 47.8262 14.2768 48.0036 14.4074 48.1367C16.06 49.4936 17.9721 50.5157 20.0324 51.1434C22.0317 51.9014 24.1368 52.3588 26.2762 52.5C34.4699 52.5 38.9512 49.035 41.2762 44.2134C42.4 41.8217 43.1036 39.262 43.3574 36.6417C44.0887 30.61 43.3574 23.9917 43.3574 18.9867C43.3636 18.8487 43.3228 18.7127 43.2414 18.5998C43.1599 18.487 43.0425 18.4038 42.9074 18.3634Z" fill="black"/>
<path fill-rule="evenodd" clip-rule="evenodd" d="M26.8574 32.8834C28.6199 32.8834 29.7449 31.16 30.1199 28.8684C30.2422 27.9495 30.2422 27.0189 30.1199 26.1C29.943 24.7872 29.6989 23.4839 29.3887 22.195C29.3887 22.0297 29.3215 21.8712 29.2019 21.7543C29.0824 21.6374 28.9202 21.5717 28.7512 21.5717C28.5821 21.5717 28.4199 21.6374 28.3004 21.7543C28.1808 21.8712 28.1137 22.0297 28.1137 22.195C28.1137 22.91 27.9074 24.78 27.8324 26.76C27.8399 27.7027 27.796 28.6452 27.7012 29.5834C27.5512 30.5184 27.4574 31.325 26.7074 31.4167C26.5185 31.444 26.3473 31.5408 26.2288 31.6873C26.1104 31.8338 26.0535 32.019 26.0699 32.205C26.069 32.3024 26.0895 32.3988 26.1301 32.4877C26.1707 32.5766 26.2303 32.6559 26.305 32.7202C26.3797 32.7846 26.4677 32.8325 26.5631 32.8606C26.6584 32.8888 26.7588 32.8965 26.8574 32.8834Z" fill="black"/>
<path fill-rule="evenodd" clip-rule="evenodd" d="M26.4451 36.2017C25.9843 36.1468 25.5183 36.1468 25.0576 36.2017C23.9628 36.2926 22.9239 36.7136 22.0842 37.4065C21.2446 38.0994 20.6456 39.0301 20.3701 40.07C20.1204 41.1135 20.1879 42.2055 20.5643 43.2119C20.9407 44.2183 21.6096 45.0952 22.4888 45.735C23.2315 46.2692 24.1041 46.6041 25.0201 46.7067C25.8611 46.7906 26.7105 46.7348 27.5326 46.5417C28.1119 46.407 28.6722 46.2039 29.2013 45.9367C30.8682 45.0457 32.1867 43.6404 32.9513 41.94C32.9925 41.8571 33.0165 41.7669 33.0219 41.6748C33.0272 41.5828 33.0138 41.4905 32.9824 41.4036C32.951 41.3166 32.9022 41.2366 32.839 41.1682C32.7757 41.0997 32.6992 41.0443 32.6138 41.005C32.532 40.9618 32.442 40.9355 32.3494 40.9279C32.2567 40.9203 32.1635 40.9315 32.0755 40.9607C31.9874 40.99 31.9066 41.0367 31.8379 41.098C31.7692 41.1592 31.7142 41.2337 31.6763 41.3167C31.4158 41.7798 31.108 42.2159 30.7576 42.6184C30.4135 43.0037 30.0303 43.3538 29.6138 43.6634C29.2535 43.9115 28.863 44.1147 28.4513 44.2684C28.0326 44.421 27.5991 44.5316 27.1576 44.5984C26.5367 44.6979 25.9034 44.6979 25.2826 44.5984C24.7608 44.5087 24.2742 44.2803 23.8763 43.9384C23.3658 43.5605 22.9788 43.0456 22.7624 42.4564C22.546 41.8672 22.5096 41.2291 22.6576 40.62C22.7935 39.9706 23.1377 39.3805 23.6401 38.9354C24.1425 38.4903 24.777 38.2135 25.4513 38.145C25.7689 38.1072 26.09 38.1072 26.4076 38.145C26.9551 38.1546 27.5008 38.2098 28.0388 38.31C29.4504 38.5237 30.8255 38.9247 32.1263 39.5017C32.2786 39.5733 32.4533 39.5846 32.614 39.5334C32.7746 39.4822 32.9089 39.3723 32.9888 39.2267C33.0271 39.1547 33.0503 39.076 33.0568 38.9951C33.0634 38.9142 33.0533 38.8329 33.027 38.7559C33.0008 38.6789 32.959 38.6079 32.9041 38.5471C32.8492 38.4862 32.7824 38.4368 32.7076 38.4017C32.0305 38.0217 31.329 37.6849 30.6076 37.3934C29.8903 37.1107 29.158 36.8659 28.4138 36.66C27.7688 36.4644 27.111 36.3112 26.4451 36.2017Z" fill="black"/>
<path fill-rule="evenodd" clip-rule="evenodd" d="M33.4574 22.47C33.88 22.0706 34.4446 21.8471 35.0324 21.8467C35.2068 21.8276 35.3829 21.8276 35.5574 21.8467C36.4752 22.0259 37.31 22.4886 37.9386 23.1667C37.9896 23.2448 38.0563 23.3119 38.1348 23.3638C38.2133 23.4157 38.3018 23.4514 38.3949 23.4686C38.488 23.4857 38.5838 23.4841 38.6762 23.4637C38.7686 23.4433 38.8558 23.4046 38.9324 23.35C39.0102 23.2985 39.0768 23.2324 39.1284 23.1556C39.18 23.0787 39.2156 22.9927 39.233 22.9024C39.2504 22.812 39.2494 22.7192 39.23 22.6293C39.2106 22.5394 39.1731 22.4541 39.1199 22.3784C38.7307 21.517 38.1321 20.7617 37.3761 20.1784C37.0083 19.9032 36.5874 19.7036 36.1386 19.5917C35.6358 19.454 35.1039 19.454 34.6011 19.5917C34.0911 19.7705 33.629 20.0595 33.2491 20.4373C32.8693 20.815 32.5816 21.2717 32.4074 21.7734C32.3137 21.9097 32.2788 22.0768 32.3105 22.2381C32.3421 22.3995 32.4375 22.5421 32.5761 22.635C32.717 22.7221 32.8864 22.7534 33.0501 22.7228C33.2137 22.6922 33.3593 22.6018 33.4574 22.47Z" fill="black"/>
<path fill-rule="evenodd" clip-rule="evenodd" d="M18.87 23.2584C19.676 22.6136 20.6634 22.2236 21.7012 22.14C21.9509 22.1213 22.2016 22.1213 22.4512 22.14C23.145 22.1441 23.8128 22.3987 24.3262 22.855C24.4213 22.9905 24.5671 23.0839 24.7322 23.1148C24.8972 23.1457 25.068 23.1116 25.2075 23.02C25.2881 22.9784 25.3589 22.9208 25.4154 22.8509C25.472 22.7811 25.513 22.7004 25.5359 22.6142C25.5589 22.528 25.5632 22.438 25.5486 22.3501C25.534 22.2621 25.5009 22.1781 25.4512 22.1034C25.233 21.5885 24.904 21.1256 24.4867 20.746C24.0693 20.3665 23.5734 20.0791 23.0325 19.9034C22.5428 19.7472 22.0216 19.7095 21.5137 19.7934C21.027 19.853 20.5561 20.0023 20.1262 20.2334C19.1951 20.7282 18.403 21.4397 17.82 22.305C17.7507 22.3685 17.6955 22.4451 17.6578 22.5303C17.6201 22.6154 17.6006 22.7072 17.6006 22.8C17.6006 22.8928 17.6201 22.9846 17.6578 23.0698C17.6955 23.1549 17.7507 23.2316 17.82 23.295C17.8893 23.3639 17.9725 23.4179 18.0643 23.4536C18.1561 23.4894 18.2545 23.506 18.3532 23.5026C18.452 23.4991 18.5489 23.4756 18.6379 23.4336C18.7268 23.3916 18.8059 23.3319 18.87 23.2584Z" fill="black"/>
<path fill-rule="evenodd" clip-rule="evenodd" d="M46.8825 38.2C46.8619 38.1154 46.8235 38.0359 46.7696 37.9667C46.7157 37.8975 46.6476 37.8401 46.5697 37.7981C46.4918 37.7562 46.4057 37.7306 46.3171 37.7232C46.2284 37.7157 46.1392 37.7264 46.0551 37.7547C45.9709 37.783 45.8938 37.8282 45.8286 37.8873C45.7634 37.9465 45.7116 38.0184 45.6765 38.0983C45.6414 38.1783 45.6238 38.2645 45.6248 38.3515C45.6259 38.4384 45.6455 38.5242 45.6825 38.6034C45.7262 39.3318 45.6948 40.0627 45.5888 40.785L45.4763 42.0134V42.8384C45.4309 43.4659 45.2919 44.0835 45.0638 44.6717C45.0114 44.7485 44.9751 44.8348 44.9571 44.9254C44.9391 45.0161 44.9398 45.1093 44.959 45.1997C44.9782 45.2901 45.0155 45.3759 45.0689 45.4521C45.1223 45.5282 45.1907 45.5933 45.27 45.6434C45.3477 45.6971 45.4359 45.7347 45.5291 45.7537C45.6223 45.7727 45.7185 45.7727 45.8117 45.7538C45.905 45.7349 45.9932 45.6974 46.071 45.6437C46.1487 45.59 46.2144 45.5213 46.2638 45.4417C46.901 44.769 47.3922 43.9769 47.7075 43.1134C47.8408 42.7092 47.9227 42.2905 47.9513 41.8667C48.0074 41.4775 48.0074 41.0825 47.9513 40.6934C47.7486 39.807 47.3867 38.9628 46.8825 38.2Z" fill="black"/>
<path fill-rule="evenodd" clip-rule="evenodd" d="M50.2949 34.1667C50.2207 34.2049 50.1553 34.2575 50.1026 34.3212C50.0499 34.3849 50.0109 34.4584 49.9881 34.5373C49.9653 34.6161 49.9592 34.6987 49.97 34.78C49.9808 34.8612 50.0084 34.9395 50.0511 35.01C50.8347 36.8393 51.1501 38.8279 50.9699 40.8034C50.9699 41.995 50.8386 43.205 50.6886 44.47C50.4745 46.3343 50.0854 48.1754 49.5261 49.97C49.4863 50.0539 49.4645 50.1448 49.4619 50.2373C49.4594 50.3297 49.4762 50.4217 49.5113 50.5075C49.5464 50.5933 49.5991 50.6713 49.6661 50.7365C49.7332 50.8017 49.8132 50.8528 49.9011 50.8867C50.0783 50.956 50.2759 50.9567 50.4535 50.8885C50.6312 50.8204 50.7756 50.6886 50.8574 50.52C51.7784 48.7748 52.4834 46.9284 52.9574 45.02C53.2654 43.7101 53.3978 42.3666 53.3511 41.0234C53.2735 38.7185 52.504 36.487 51.1386 34.6067C51.124 34.5173 51.0884 34.4324 51.0346 34.3587C50.9808 34.2849 50.9103 34.2244 50.8285 34.1818C50.7468 34.1392 50.6561 34.1156 50.5635 34.113C50.4709 34.1104 50.379 34.1288 50.2949 34.1667Z" fill="black"/>
<path fill-rule="evenodd" clip-rule="evenodd" d="M58.9949 38.7684C58.8007 37.4764 58.4804 36.2057 58.0387 34.9734C57.6261 33.703 56.9917 32.5121 56.1637 31.4534C56.0667 31.3172 55.9184 31.2243 55.7514 31.1951C55.5844 31.1659 55.4123 31.2027 55.2731 31.2975C55.1338 31.3923 55.0388 31.5374 55.0089 31.7007C54.979 31.864 55.0167 32.0322 55.1137 32.1684C55.6092 32.9706 55.976 33.8424 56.2012 34.7534C56.5408 36.1408 56.717 37.5617 56.7262 38.9884C56.8105 40.3682 56.8105 41.7518 56.7262 43.1317C56.7084 44.5125 56.5957 45.8907 56.3887 47.2567C56.124 49.0984 55.6524 50.906 54.9824 52.6467C54.9426 52.7306 54.9208 52.8215 54.9182 52.9139C54.9157 53.0064 54.9325 53.0983 54.9676 53.1842C55.0027 53.27 55.0554 53.3479 55.1224 53.4131C55.1895 53.4783 55.2695 53.5295 55.3574 53.5634C55.5291 53.6378 55.7239 53.643 55.8995 53.5778C56.075 53.5126 56.2172 53.3822 56.2949 53.215C57.4657 51.005 58.2995 48.6394 58.7699 46.1934C59 44.9828 59.1379 43.7572 59.1824 42.5267C59.1957 41.2714 59.1331 40.0164 58.9949 38.7684Z" fill="black"/>
</g>
<defs>
<clipPath id="clip0_8185_1213">
<rect width="45" height="44" fill="white" transform="translate(14.2012 14)"/>
</clipPath>
</defs>
</svg>
