<svg width="72" height="72" viewBox="0 0 72 72" fill="none" xmlns="http://www.w3.org/2000/svg">
<path fill-rule="evenodd" clip-rule="evenodd" d="M36 72C55.8823 72 72 55.8823 72 36C72 16.1177 55.8823 0 36 0C16.1177 0 0 16.1177 0 36C0 55.8823 16.1177 72 36 72Z" fill="#FFCE3C"/>
<g clip-path="url(#clip0_8185_1227)">
<path d="M30.8679 19.1167C32.0276 18.6129 33.2711 18.3303 34.5346 18.2833C35.0679 18.2833 35.6179 18.2833 36.2013 18.2C36.7846 18.1167 37.2846 18.2 37.8679 18.2C39.1184 18.1328 40.3675 18.3552 41.5179 18.85C41.5701 18.8881 41.6294 18.9154 41.6924 18.9301C41.7553 18.9449 41.8205 18.9469 41.8842 18.9361C41.948 18.9252 42.0088 18.9016 42.0633 18.8668C42.1177 18.832 42.1647 18.7866 42.2013 18.7333C42.2739 18.6264 42.3023 18.4956 42.2806 18.3682C42.2588 18.2408 42.1886 18.1267 42.0846 18.05C40.9073 17.1433 39.509 16.5679 38.0346 16.3833C37.3937 16.3002 36.7469 16.2723 36.1013 16.3C35.4859 16.3301 34.8733 16.4025 34.2679 16.5167C32.8379 16.7865 31.4807 17.3543 30.2846 18.1833C30.2209 18.2225 30.1656 18.2739 30.1219 18.3346C30.0781 18.3953 30.0468 18.464 30.0298 18.5368C30.0128 18.6096 30.0103 18.6851 30.0226 18.7589C30.0348 18.8327 30.0616 18.9033 30.1013 18.9667C30.1854 19.0853 30.3119 19.167 30.4546 19.1949C30.5973 19.2228 30.7453 19.1948 30.8679 19.1167Z" fill="black"/>
<path d="M55.168 33.1833C55.1598 33.1087 55.1368 33.0365 55.1003 32.9708C55.0639 32.9052 55.0148 32.8474 54.9559 32.8009C54.897 32.7544 54.8294 32.72 54.7571 32.6998C54.6848 32.6797 54.6092 32.674 54.5347 32.6833C54.3888 32.708 54.2578 32.7871 54.1681 32.9046C54.0783 33.0222 54.0366 33.1695 54.0513 33.3167C54.1514 34.15 54.2013 34.9833 54.218 35.8C54.2356 36.629 54.2022 37.4584 54.118 38.2833C53.9655 39.8368 53.601 41.3621 53.0347 42.8167C52.4741 44.2786 51.7471 45.6711 50.868 46.9667C49.0182 49.5763 46.4206 51.5637 43.418 52.6667C40.4318 53.841 37.2159 54.3143 34.018 54.05C32.2581 53.8958 30.5264 53.5091 28.868 52.9C27.1855 52.3216 25.6174 51.4529 24.2347 50.3333C21.8573 48.3133 20.0526 45.7039 19.0014 42.7667C17.9083 39.796 17.4982 36.6174 17.8014 33.4667C17.809 33.4032 17.8041 33.3388 17.7869 33.2773C17.7697 33.2157 17.7405 33.1581 17.701 33.1078C17.6616 33.0575 17.6126 33.0155 17.5569 32.9841C17.5012 32.9527 17.4398 32.9327 17.3764 32.925C17.3129 32.9173 17.2485 32.9223 17.1869 32.9395C17.1254 32.9567 17.0678 32.9858 17.0175 33.0253C16.9672 33.0648 16.9252 33.1138 16.8938 33.1695C16.8624 33.2252 16.8423 33.2865 16.8347 33.35C16.3868 36.6615 16.7061 40.0316 17.768 43.2C18.7954 46.4281 20.6517 49.3302 23.1514 51.6167C24.6275 52.9086 26.3201 53.9299 28.1514 54.6333C29.9828 55.3565 31.9075 55.8167 33.868 56C37.368 56.2525 40.8784 55.6817 44.118 54.3333C47.4156 53.039 50.2369 50.7646 52.2014 47.8167C53.103 46.3991 53.841 44.8838 54.4013 43.3C54.9678 41.7157 55.3154 40.0616 55.4347 38.3833V35.7667C55.4347 34.8167 55.2847 34.0333 55.168 33.1833Z" fill="black"/>
<path d="M47.4012 39.3333C46.8468 39.2819 46.2889 39.2819 45.7345 39.3333C43.4345 39.3333 38.4845 39.6333 34.0679 39.8833C29.6512 40.1333 25.1512 40.6333 25.1512 40.6333C25.0038 40.742 24.8824 40.8822 24.796 41.0436C24.7095 41.2051 24.66 41.3837 24.6512 41.5667C24.6242 42.4628 24.7655 43.356 25.0679 44.2C25.5395 45.7629 26.3409 47.2065 27.4179 48.4333C28.5362 49.6076 29.8843 50.5391 31.3781 51.1699C32.872 51.8007 34.4797 52.1173 36.1012 52.1C39.3719 51.9697 42.4804 50.6409 44.8345 48.3667C46.3659 46.8611 47.4554 44.9646 47.9845 42.8833C48.2621 41.9742 48.2909 41.0073 48.0679 40.0833C48.0218 39.9155 47.9377 39.7606 47.8221 39.6305C47.7065 39.5005 47.5625 39.3988 47.4012 39.3333ZM45.3512 44.5167C44.8926 45.4234 44.284 46.2461 43.5512 46.95C41.5544 48.9597 38.8944 50.1742 36.0679 50.3667C34.6546 50.426 33.2444 50.1932 31.9252 49.6828C30.606 49.1723 29.4064 48.3952 28.4012 47.4C27.5824 46.543 26.9372 45.5356 26.5012 44.4333C26.1662 43.6794 25.9363 42.8831 25.8179 42.0667V41.45C27.8847 41.2656 29.9597 41.1877 32.0345 41.2167C36.7845 41.1167 42.8512 41.1 45.6345 41.1H46.4679C46.342 42.3051 45.9613 43.4698 45.3512 44.5167Z" fill="black"/>
<path d="M21.7179 30.3C22.6423 31.8027 23.4502 33.3739 24.1346 35C24.2552 35.2556 24.4464 35.4714 24.6856 35.6219C24.9247 35.7725 25.2019 35.8517 25.4846 35.85C25.7345 35.7781 25.9642 35.6487 26.1552 35.4722C26.3462 35.2957 26.4933 35.0769 26.5846 34.8333C27.2314 33.052 27.9942 31.315 28.8679 29.6333C29.7679 28.45 32.6179 27.5333 33.6346 26.8167C33.8575 26.6958 34.0444 26.518 34.1762 26.3013C34.3079 26.0846 34.3798 25.8369 34.3846 25.5833C34.3299 25.3586 34.2291 25.1477 34.0885 24.9641C33.9479 24.7804 33.7706 24.6281 33.5679 24.5167C31.7285 23.8153 29.931 23.0084 28.1846 22.1C26.7846 21 25.7679 17.85 24.9179 16.7667C24.8025 16.5897 24.6476 16.4419 24.4654 16.3349C24.2832 16.2279 24.0787 16.1646 23.8679 16.15C23.4512 16.15 23.0012 16.65 22.7179 17.5167C22.36 19.2102 21.898 20.88 21.3346 22.5167C20.6679 23.8667 17.5679 25.2 16.4179 26C16.183 26.1296 15.9876 26.3205 15.8526 26.5524C15.7176 26.7842 15.648 27.0484 15.6512 27.3167C15.7298 27.5435 15.8616 27.7481 16.0356 27.9134C16.2096 28.0787 16.4207 28.1999 16.6512 28.2667C17.8012 28.7833 20.7012 29.3333 21.7179 30.3ZM20.8679 24.85C21.5618 24.3806 22.1332 23.752 22.5346 23.0167C22.7137 22.5843 22.8586 22.1384 22.9679 21.6833C23.3179 20.2833 23.5012 18.6333 23.8346 17.6667L23.8679 17.3833C23.8679 17.4667 24.0679 17.5333 24.1346 17.65C24.6512 18.4833 25.2012 19.9833 25.9012 21.25C26.2572 21.9715 26.7431 22.6212 27.3346 23.1667C27.9008 23.6303 28.5222 24.0221 29.1846 24.3333C30.2012 24.8 31.3512 25.2333 32.1512 25.6333L32.3512 25.75H32.1679C31.3512 26.15 30.2179 26.6 29.2512 27.1333C28.5559 27.4706 27.9331 27.9406 27.4179 28.5167C26.5486 29.9832 25.8336 31.536 25.2846 33.15C24.6907 31.6758 23.9243 30.2772 23.0012 28.9833C22.4095 28.4814 21.724 28.1019 20.9846 27.8667C19.9512 27.5 18.7512 27.2167 17.8679 26.9667C18.6012 26.3833 19.8679 25.6333 20.8679 24.85Z" fill="black"/>
<path d="M37.0347 25.1667C37.0298 25.418 37.0961 25.6655 37.2258 25.8808C37.3556 26.0961 37.5435 26.2703 37.768 26.3833C38.7513 27.0833 41.518 27.9667 42.3847 29.1167C43.226 30.7314 43.9555 32.402 44.568 34.1167C44.6636 34.354 44.8125 34.5662 45.0033 34.7367C45.194 34.9072 45.4215 35.0315 45.668 35.1C45.9492 35.1052 46.226 35.0294 46.4654 34.8816C46.7048 34.7339 46.8966 34.5204 47.018 34.2667C47.6746 32.6908 48.4548 31.1694 49.3513 29.7167C50.3347 28.7167 53.1513 28.2333 54.2513 27.7667C54.9013 27.4833 55.1847 27.1 55.2347 26.8333C55.2432 26.566 55.1777 26.3016 55.0454 26.0692C54.913 25.8369 54.7189 25.6456 54.4847 25.5167C53.3847 24.7333 50.368 23.4333 49.7347 22.1833C49.1907 20.6169 48.7399 19.0197 48.3847 17.4C48.1013 16.55 47.668 16.0833 47.2013 16C46.9908 16.0074 46.7852 16.066 46.6023 16.1705C46.4194 16.275 46.2646 16.4224 46.1513 16.6C45.318 17.65 44.3347 20.7 42.968 21.7667C41.2793 22.6452 39.5433 23.4297 37.768 24.1167C37.5758 24.2267 37.4104 24.3779 37.2836 24.5595C37.1569 24.741 37.0718 24.9484 37.0347 25.1667ZM39.218 25.1667C40.0013 24.7833 41.1013 24.3667 42.0847 23.9C42.7182 23.6144 43.3167 23.2564 43.868 22.8333C44.4473 22.3089 44.9322 21.6888 45.3013 21C45.9513 19.7833 46.5013 18.3333 46.968 17.5167C46.968 17.4 47.1513 17.3333 47.218 17.25C47.2061 17.3385 47.2061 17.4282 47.218 17.5167C47.518 18.45 47.718 20.0667 48.0513 21.4333C48.1553 21.8717 48.2947 22.3009 48.468 22.7167C48.8395 23.4283 49.3769 24.0399 50.0347 24.5C50.9847 25.2667 52.1847 25.9833 52.9847 26.5167C52.1513 26.7667 50.9513 27.0167 49.918 27.3833C49.1963 27.6167 48.5279 27.9905 47.9513 28.4833C47.0656 29.727 46.3273 31.0693 45.7513 32.4833C45.2785 30.9284 44.6474 29.4261 43.868 28C43.3665 27.4389 42.7609 26.9804 42.0847 26.65C41.1347 26.1333 40.0347 25.7 39.2513 25.3167H39.118L39.218 25.1667Z" fill="black"/>
</g>
<defs>
<clipPath id="clip0_8185_1227">
<rect width="40" height="40" fill="white" transform="translate(15.5347 16)"/>
</clipPath>
</defs>
</svg>
