<svg width="72" height="72" viewBox="0 0 72 72" fill="none" xmlns="http://www.w3.org/2000/svg">
<path fill-rule="evenodd" clip-rule="evenodd" d="M36 72C55.8823 72 72 55.8823 72 36C72 16.1177 55.8823 0 36 0C16.1177 0 0 16.1177 0 36C0 55.8823 16.1177 72 36 72Z" fill="#FFCE3C"/>
<g clip-path="url(#clip0_8182_989)">
<path fill-rule="evenodd" clip-rule="evenodd" d="M59.2545 50.24C55.4962 46.96 51.7575 43.56 47.9992 40.24C46.766 39.1 45.5132 38 44.2605 36.9C43.0077 35.8 41.7354 34.72 40.5022 33.58C38.9558 32.18 37.429 30.74 35.9609 29.26C35.9096 29.2037 35.8475 29.1587 35.7784 29.128C35.7094 29.0973 35.6349 29.0814 35.5596 29.0814C35.4843 29.0814 35.4098 29.0973 35.3408 29.128C35.2717 29.1587 35.2096 29.2037 35.1583 29.26C35.0519 29.3688 34.9922 29.5162 34.9922 29.67C34.9922 29.8238 35.0519 29.9712 35.1583 30.08C37.5268 32.9 40.0128 35.68 42.6554 38.28C43.7907 39.4 44.9456 40.48 46.1396 41.52C47.3337 42.56 48.5277 43.52 49.7609 44.58C52.6188 46.92 55.6332 49.14 58.4715 51.36C58.5384 51.4152 58.6152 51.4563 58.6976 51.4811C58.78 51.506 58.8664 51.514 58.9518 51.5047C59.0372 51.4954 59.12 51.469 59.1955 51.427C59.2709 51.385 59.3375 51.3283 59.3915 51.26C59.4455 51.1917 59.4858 51.1132 59.5101 51.029C59.5344 50.9448 59.5422 50.8566 59.5331 50.7693C59.524 50.682 59.4982 50.5974 59.4571 50.5203C59.416 50.4432 59.3605 50.3752 59.2937 50.32L59.2545 50.24Z" fill="black"/>
<path fill-rule="evenodd" clip-rule="evenodd" d="M27.1134 18.94L28.3662 19.32C28.4836 20.24 28.6598 21.14 28.7968 22.06C28.8069 22.2368 28.8842 22.4027 29.0121 22.5222C29.1401 22.6417 29.3086 22.7055 29.4819 22.7C29.6568 22.6898 29.8211 22.6115 29.9413 22.4814C30.0614 22.3512 30.1282 22.1789 30.1279 22C30.1279 21.18 30.2649 20.36 30.3236 19.54H30.8326C31.4981 19.54 32.1245 19.3 32.79 19.2C32.8748 19.2027 32.9594 19.1882 33.0387 19.1575C33.1181 19.1268 33.1908 19.0804 33.2526 19.0209C33.3144 18.9615 33.3641 18.8902 33.399 18.8111C33.4338 18.732 33.453 18.6467 33.4555 18.56C33.4608 18.4717 33.4487 18.3832 33.4198 18.2998C33.3909 18.2163 33.346 18.1397 33.2875 18.0744C33.2291 18.0091 33.1584 17.9565 33.0797 17.9196C33.0009 17.8828 32.9157 17.8625 32.8292 17.86C32.1636 17.7 31.5372 17.54 30.8717 17.44H30.4215V16.26C30.3041 15.2 30.0887 14.26 29.9321 13.14C29.9321 12.9862 29.8723 12.8387 29.7659 12.7299C29.6594 12.6211 29.515 12.56 29.3645 12.56C29.2139 12.56 29.0695 12.6211 28.9631 12.7299C28.8566 12.8387 28.7968 12.9862 28.7968 13.14C28.6206 14.2 28.4249 15.14 28.327 16.3V17.62L27.3287 17.82C27.2541 17.8146 27.1792 17.8242 27.1083 17.8485C27.0374 17.8727 26.9719 17.911 26.9155 17.9612C26.8591 18.0113 26.813 18.0724 26.7798 18.1409C26.7465 18.2093 26.7269 18.2838 26.7219 18.36C26.7219 18.4859 26.7593 18.6087 26.8292 18.7123C26.8991 18.8159 26.9983 18.8953 27.1134 18.94Z" fill="black"/>
<path fill-rule="evenodd" clip-rule="evenodd" d="M42.4206 28.6L43.9474 28.84L44.2997 30.48C44.3265 30.6379 44.407 30.781 44.527 30.8841C44.6469 30.9873 44.7987 31.0438 44.9555 31.0438C45.1123 31.0438 45.264 30.9873 45.384 30.8841C45.504 30.781 45.5844 30.6379 45.6112 30.48C45.6112 29.94 45.7482 29.42 45.807 28.88H45.9636C46.6095 28.76 47.2163 28.56 47.921 28.42C48.0059 28.4174 48.0894 28.3978 48.1668 28.3622C48.2442 28.3266 48.314 28.2758 48.3721 28.2126C48.4303 28.1495 48.4757 28.0752 48.5058 27.9941C48.5359 27.913 48.55 27.8267 48.5474 27.74C48.5626 27.6312 48.5517 27.5203 48.5158 27.4167C48.4798 27.3131 48.4198 27.2199 48.3409 27.1452C48.262 27.0705 48.1666 27.0165 48.0628 26.9877C47.959 26.9589 47.8499 26.9563 47.7448 26.98C47.0793 26.98 46.4529 26.74 45.7874 26.68C45.1219 26.62 45.7874 26.46 45.7874 26.34C45.6504 25.58 45.4155 24.92 45.2197 24.18C45.1948 24.0421 45.1234 23.9175 45.0179 23.8279C44.9124 23.7382 44.7795 23.6891 44.6423 23.6891C44.5051 23.6891 44.3722 23.7382 44.2667 23.8279C44.1612 23.9175 44.0898 24.0421 44.0648 24.18C43.9474 24.92 43.7712 25.62 43.6929 26.38C43.6831 26.5399 43.6831 26.7002 43.6929 26.86C43.2231 27 42.7534 27.18 42.264 27.36C42.1369 27.4048 42.0287 27.4928 41.9574 27.6092C41.8862 27.7257 41.8562 27.8637 41.8725 28C41.8699 28.0762 41.882 28.1521 41.9081 28.2235C41.9343 28.2949 41.9739 28.3604 42.0248 28.4161C42.0757 28.4718 42.1369 28.5167 42.2048 28.5483C42.2727 28.5799 42.346 28.5974 42.4206 28.6Z" fill="black"/>
<path fill-rule="evenodd" clip-rule="evenodd" d="M23.9226 46C21.9651 45 20.3992 44 18.52 42.92C17.8545 42.46 17.4238 43.3 17.7762 44.22C19.3568 45.5055 21.0104 46.6942 22.7285 47.78C23.6147 48.3244 24.5295 48.8185 25.469 49.26C26.4137 49.704 27.3884 50.0783 28.3855 50.38C30.3352 50.9791 32.359 51.2889 34.3949 51.3C35.1975 51.3 35.4715 50.14 34.7668 49.88C32.4939 49.566 30.2741 48.9334 28.1702 48C26.7217 47.32 25.3124 46.64 23.9226 46Z" fill="black"/>
<path fill-rule="evenodd" clip-rule="evenodd" d="M41.6963 45.26C41.6166 45.1026 41.48 44.9832 41.3155 44.9271C41.151 44.8711 40.9716 44.8829 40.8154 44.96C40.0293 45.2664 39.1752 45.3426 38.349 45.18C36.9603 44.9108 35.5978 44.5159 34.2775 44C30.9814 42.8578 27.8071 41.3769 24.8035 39.58C21.7988 37.884 19.0875 35.6948 16.778 33.1C16.4648 32.76 16.1516 32.38 15.858 32C15.5977 31.63 15.3623 31.2425 15.1533 30.84C14.9783 30.5287 14.8341 30.2004 14.7227 29.86C14.6075 29.515 14.5223 29.1603 14.4682 28.8C14.292 27.32 14.7227 26.46 15.5448 26.02C17.4439 25.4082 19.4626 25.2913 21.4171 25.68C21.9848 25.68 22.5524 25.84 23.1005 25.94C23.9618 26.12 24.7839 26.34 25.6452 26.58C25.7215 26.615 25.8042 26.6329 25.8879 26.6325C25.9715 26.6322 26.0541 26.6136 26.1301 26.578C26.2061 26.5424 26.2738 26.4906 26.3287 26.4261C26.3835 26.3616 26.4243 26.2859 26.4482 26.204C26.4721 26.1221 26.4786 26.036 26.4673 25.9513C26.456 25.8667 26.4271 25.7854 26.3826 25.7131C26.338 25.6408 26.2789 25.579 26.2091 25.5319C26.1394 25.4848 26.0606 25.4535 25.978 25.44C25.0971 25.16 24.2554 24.9 23.3941 24.68C22.8005 24.5227 22.1994 24.3958 21.5933 24.3C19.3629 23.7471 17.0309 23.7884 14.8205 24.42C13.9731 24.7824 13.2773 25.4377 12.855 26.2714C12.4328 27.105 12.3109 28.0638 12.5107 28.98C12.5508 29.4657 12.6294 29.9473 12.7456 30.42C12.8745 30.8882 13.0448 31.3434 13.2546 31.78C13.4503 32.2 13.6852 32.58 13.9201 32.98C14.155 33.38 14.7031 34.04 15.1141 34.54C16.0667 35.6018 17.0938 36.5911 18.1873 37.5C17.8741 38.56 17.5414 39.5 17.1303 40.6C16.6377 41.8033 16.0689 42.9724 15.4273 44.1C14.7054 45.0017 14.0511 45.9578 13.4699 46.96C13.2183 47.5945 13.1636 48.2927 13.3133 48.96C13.9655 51.456 15.5272 53.6026 17.6784 54.96C20.6989 56.7792 23.9925 58.0767 27.4265 58.8C28.9449 59.197 30.4997 59.4316 32.0656 59.5C32.9281 59.5466 33.7815 59.3005 34.4929 58.8C35.0504 58.2577 35.4443 57.5637 35.6282 56.8C35.8296 55.8791 35.9541 54.9424 36.0001 54C36.1128 52.8164 36.2958 51.6409 36.5482 50.48C36.8092 49.3232 37.1695 48.1922 37.6248 47.1C37.683 46.9318 37.683 46.7482 37.6248 46.58C37.8004 46.5994 37.9776 46.5994 38.1533 46.58C39.2425 46.7562 40.3583 46.6032 41.3635 46.14C41.5196 46.0658 41.6415 45.9327 41.7035 45.7686C41.7656 45.6045 41.763 45.4222 41.6963 45.26ZM36.4503 46.5C35.6516 48.8696 34.9979 51.2876 34.4929 53.74C34.4025 54.5966 34.252 55.4454 34.0427 56.28C33.9119 56.7013 33.6757 57.0805 33.3575 57.38C33.0248 57.66 32.3397 57.56 31.5958 57.38C30.3955 57.2222 29.2103 56.9613 28.0529 56.6C24.8815 55.8617 21.8387 54.6343 19.029 52.96C17.2679 51.9437 15.9364 50.2984 15.2903 48.34C15.192 47.9407 15.2481 47.5181 15.4469 47.16C15.8384 46.32 16.5235 45.56 16.915 44.76C17.0912 44.4 18.3048 41.5 18.481 40.98C18.7941 40.08 19.029 39.16 19.2639 38.24C20.6893 39.4012 22.1938 40.4572 23.7661 41.4C26.9551 43.151 30.3224 44.5393 33.8078 45.54C34.6103 45.78 35.589 46.1 36.6069 46.32C36.5446 46.37 36.4916 46.431 36.4503 46.5Z" fill="black"/>
<path fill-rule="evenodd" clip-rule="evenodd" d="M27.2308 30.78C27.3813 30.78 27.5257 30.7189 27.6321 30.6101C27.7386 30.5014 27.7984 30.3538 27.7984 30.2C27.7984 30.0462 27.7386 29.8987 27.6321 29.7899C27.5257 29.6811 27.3813 29.62 27.2308 29.62C26.0888 29.3698 24.908 29.3698 23.7661 29.62C22.8656 30 22.298 30.8 22.8852 32.52C22.9693 32.7816 23.074 33.0358 23.1984 33.28C23.3374 33.5315 23.4944 33.7722 23.6682 34C23.882 34.2916 24.1176 34.5657 24.3729 34.82C24.6295 35.0618 24.9044 35.2824 25.195 35.48C26.6551 36.4626 28.2259 37.2617 29.8733 37.86C32.3127 38.6816 34.8336 39.2249 37.3899 39.48C37.4749 39.4942 37.5617 39.4909 37.6454 39.4702C37.7291 39.4496 37.8079 39.4121 37.8772 39.36C37.9465 39.3078 38.0049 39.242 38.0489 39.1664C38.093 39.0909 38.1218 39.0071 38.1337 38.92C38.1621 38.7476 38.1224 38.5708 38.0233 38.4283C37.9242 38.2859 37.7739 38.1894 37.6052 38.16C35.604 37.7206 33.6403 37.1187 31.7329 36.36C30.7933 35.98 29.7754 35.56 28.9925 35.1C28.092 34.6844 27.2219 34.2032 26.3891 33.66L25.195 32.68L24.5686 31.8C24.412 31.5 24.2359 31.32 24.3533 31.18C24.4721 31.0461 24.63 30.9549 24.8035 30.92C25.6044 30.7759 26.4191 30.7289 27.2308 30.78Z" fill="black"/>
</g>
<defs>
<clipPath id="clip0_8182_989">
<rect width="46.9787" height="48" fill="white" transform="translate(12.5107 12)"/>
</clipPath>
</defs>
</svg>
