<svg width="282" height="45" viewBox="0 0 282 45" fill="none" xmlns="http://www.w3.org/2000/svg">
<path fill-rule="evenodd" clip-rule="evenodd" d="M121.062 1.10658C124.671 0.84255 128.28 1.15939 131.888 1.10658C132.737 1.1066 133.64 1.26458 134.489 1.42299C135.444 1.63425 136.081 2.11032 136.558 3.00795C136.983 3.90541 137.036 4.80287 136.983 5.70033C136.93 7.17892 136.983 8.60553 136.983 10.0841C136.983 10.2424 136.982 10.4005 136.929 10.5587C136.876 12.0373 137.301 13.9919 135.868 14.9953C135.178 15.4702 134.329 15.4699 133.48 15.4171C132.207 15.4171 130.88 15.3644 129.606 15.3644C129.235 15.3116 128.864 15.3117 128.598 15.1535C128.068 14.8367 127.908 14.1503 127.908 13.5695C127.908 12.9359 128.015 12.3017 127.803 11.7208C127.749 11.6152 127.696 11.51 127.59 11.4572C127.431 11.3517 127.272 11.3507 127.166 11.3507C126.211 11.4035 124.566 11.14 124.088 12.09C123.769 12.7235 123.875 13.5159 124.193 14.1496C124.458 14.836 124.99 15.3647 125.52 15.84C128.492 18.4802 132.154 20.2229 134.967 23.0216C135.338 23.391 135.656 23.7606 135.868 24.1828C136.239 24.8163 136.293 25.5559 136.399 26.2423C136.505 27.9849 136.558 29.7283 136.611 31.4181C136.611 33.7941 136.612 36.1174 136.506 38.4406C136.506 39.4439 136.293 40.4479 136.134 41.504C136.08 41.9792 135.815 42.3484 135.39 42.6652C134.488 43.4045 133.427 43.669 132.26 43.7218C130.774 43.7746 129.288 43.8272 127.803 43.88C126.847 43.9328 125.892 44.0383 124.936 43.9855C123.716 43.9855 122.496 43.8274 121.275 43.7218C120.585 43.669 119.948 43.6164 119.311 43.5636C118.621 43.458 117.984 43.5629 117.347 43.3517C116.711 43.1404 116.127 42.7183 115.596 42.3488C115.225 42.0848 114.854 41.768 114.589 41.3458C114.164 40.7122 114.11 39.8665 114.057 39.0216C113.951 36.8566 114.005 34.6388 114.111 32.421C114.217 31.3123 114.323 30.0451 115.172 29.3058C116.074 28.4609 117.507 28.461 118.727 28.5138C119.417 28.5138 120.054 28.5665 120.744 28.5665C121.381 28.6193 122.124 28.6716 122.601 29.1466C122.973 29.5691 123.026 30.1508 123.079 30.6788C123.079 31.7348 122.867 33.0019 123.344 34.005C123.344 34.9554 126.103 34.2699 126.475 34.2169C126.634 34.1642 126.846 34.1105 127.006 34.005C127.218 33.8466 127.272 33.4771 127.325 33.213C127.484 31.6817 127.643 30.0975 126.9 28.8302C126.476 28.0381 125.785 27.4569 125.095 26.9288C122.495 24.8166 119.895 22.6514 117.295 20.5392C116.817 20.1696 116.287 19.7469 116.021 19.2189C115.809 18.7437 115.702 18.2155 115.649 17.7404C115.119 13.3047 115.172 8.60464 116.021 4.22182C116.127 3.74669 116.339 3.27116 116.552 2.79604C116.764 2.32103 117.188 2.05701 117.666 1.84584C118.727 1.31781 119.895 1.1594 121.062 1.10658ZM158.315 15.0919C160.614 14.9309 162.967 14.931 165.265 15.3068C166.174 15.4141 167.136 15.468 168.045 15.5753C169.702 15.7364 170.719 16.5412 171.146 18.0978C171.681 20.084 172.162 22.0169 171.948 24.0568C171.895 24.4324 171.894 24.7544 171.894 25.13C171.894 27.8677 171.627 30.5525 171.52 33.2902C171.467 34.6319 171.413 35.9738 171.146 37.2619C171.093 37.4766 171.039 37.6917 170.932 37.9601C170.505 39.4631 169.649 40.9127 168.312 41.7179C165.907 43.2207 162.165 43.1668 159.438 42.7374C157.995 42.5227 156.551 41.9321 155.589 40.8048C154.199 39.1945 154.038 36.8865 153.931 34.7394C153.824 32.5387 153.664 30.3913 153.718 28.2443C153.718 26.473 153.771 24.7011 153.824 22.9298C153.824 21.6952 153.451 20.0307 153.985 18.796C154.306 18.0446 154.68 17.2927 155.107 16.5949C155.802 15.4676 157.032 15.1456 158.315 15.0919ZM177.473 5.04701C180.584 5.04701 183.64 4.94126 186.751 5.04701C188.359 5.09989 190.129 5.52301 191.094 6.84486C192.489 8.80149 191.899 11.8162 191.738 14.0372C191.631 15.8351 191.63 17.5802 191.523 19.3781C191.47 20.6472 191.416 21.9167 190.987 23.1329C190.612 24.2962 189.754 25.4071 188.574 25.8829C188.038 26.0415 187.502 26.1465 186.966 26.1994C186.805 26.2522 186.697 26.2528 186.59 26.3585C186.429 26.5172 186.536 26.7291 186.59 26.9406C186.59 27.046 186.643 27.0988 186.643 27.2042C187.984 31.2232 189.432 35.1896 191.256 39.0499C191.685 39.9489 192.167 41.1121 191.631 41.9581C190.88 43.1744 188.681 43.0159 187.394 42.963C186.751 42.963 186 42.9105 185.464 42.4874C185.035 42.1702 184.82 41.6938 184.605 41.2179C183.855 39.5787 183.104 37.9393 182.407 36.2472C181.71 34.7665 181.227 33.1271 180.423 31.6994C180.369 32.6511 180.208 33.6031 180.208 34.5548C180.315 36.6701 180.369 38.839 179.994 40.9542C179.833 41.8001 179.404 42.3287 178.599 42.5402C177.098 42.9103 175.596 43.0691 174.094 42.4874C173.236 42.1173 173.022 41.8524 173.022 40.9005C173.076 38.9969 173.183 37.0933 173.183 35.1369C173.183 33.5504 173.076 31.9635 173.076 30.3771C173.022 29.5311 172.969 28.685 173.022 27.839C173.129 26.6757 173.236 25.5121 173.344 24.3488C173.397 23.9258 173.397 23.4496 173.397 22.9738C173.183 20.7 173.29 18.4261 173.397 16.2052V15.6759C173.504 13.6137 173.558 11.5516 173.612 9.4894C173.666 8.48472 173.773 7.53285 174.202 6.63393C174.416 6.15815 174.738 5.78787 175.167 5.57631C175.918 5.20614 176.669 4.99413 177.473 5.04701ZM197.863 5.00014C198.349 5.00014 198.888 5.00025 199.32 5.21791C200.345 5.59913 201.262 6.90551 201.694 7.93959C202.396 9.62698 203.475 11.042 204.285 12.6749C204.447 12.8926 204.662 13.1109 204.878 13.383C205.471 12.6209 205.904 11.6955 206.389 10.879C206.929 9.95373 207.468 9.02799 208.008 8.10268C208.493 7.28628 209.033 6.47025 209.789 5.92592C210.706 5.32724 211.893 5.21767 212.972 5.16322C213.836 5.16322 214.754 5.21779 215.347 5.81654C215.725 6.19757 215.833 6.74195 215.941 7.28627C216.049 7.99377 215.995 8.75579 215.887 9.51772C215.726 10.2797 215.348 10.9332 215.078 11.6408C214.592 13.1649 213.89 14.6349 213.135 16.1046C211.839 18.7173 210.706 21.4393 209.789 24.2697C209.087 26.61 207.847 28.7328 206.983 31.0187C206.12 33.3593 205.364 35.755 204.339 38.0412C203.907 39.0751 203.421 40.1089 202.666 40.9796C201.964 41.8506 200.992 42.6135 199.913 42.8312C199.212 43.0487 198.456 42.9943 197.701 42.9943C197.269 42.9943 196.783 42.9398 196.351 42.7765C195.758 42.4499 195.38 41.8506 195.219 41.1974C195.111 40.5444 195.164 39.8914 195.272 39.2384C195.488 38.0953 195.92 36.9521 196.298 35.8634C197.809 31.5088 199.32 27.2083 200.885 22.8537V22.6906C198.348 18.1727 195.974 13.6544 193.599 9.08217C193.222 8.2658 192.79 7.3409 193.114 6.52455C193.492 5.5992 194.625 5.27209 195.65 5.16322C196.406 5.05438 197.108 5.00014 197.863 5.00014ZM156.658 5.00014C159.331 5.05382 162.057 5.26872 164.784 5.3224C165.265 5.3224 165.747 5.32256 166.121 5.59096C166.815 6.02046 166.923 6.98618 166.923 7.79115C166.976 8.81108 166.923 9.83177 166.762 10.8517C166.709 11.7105 166.494 12.6762 165.746 13.1056C165.211 13.4276 164.57 13.4279 163.982 13.4279C163.02 13.3742 152.169 13.106 152.167 13.4279V14.2335C152.113 18.3667 152.114 22.5535 152.007 26.7404C152.007 27.4382 151.9 28.0826 151.793 28.7804C151.793 29.2097 151.792 29.5855 151.739 30.0148C151.632 31.5715 151.793 33.129 151.472 34.6857C151.312 35.5444 151.418 36.4031 151.365 37.3156V39.7853C151.365 40.7514 150.937 41.5562 150.136 42.1466C150.029 42.254 149.868 42.3615 149.708 42.4152C147.997 43.0593 146.286 43.0592 144.629 42.254C143.506 41.7172 142.972 40.8586 142.919 39.5704C142.651 34.6855 142.704 29.8001 142.811 24.9689C142.865 22.8218 143.079 20.7283 143.293 18.6349C143.346 17.454 143.506 16.2192 143.613 15.0382V13.965C142.384 14.0186 141.261 14.0187 140.192 14.0724C138.588 14.0724 138.107 13.6964 138.053 12.0861C138 10.7977 138 9.56291 138 8.32826C138 8.00627 138 7.68444 138.107 7.36244C138.161 7.14772 138.267 6.82524 138.481 6.6642C138.962 6.23481 139.444 5.80576 140.192 5.75209C141.582 5.59105 142.972 5.37604 144.362 5.26869C145.217 5.16138 146.072 5.10751 146.928 5.05385H148.051C150.884 5.05385 153.771 5.00014 156.658 5.00014ZM162.379 23.7345C161.523 23.8419 160.721 24.4323 160.72 25.13C160.667 26.0963 160.507 27.0632 160.507 27.9757V31.84C160.507 32.5915 160.56 33.3971 160.56 34.1486C160.56 34.3096 160.561 34.5246 160.614 34.6857C160.774 35.0613 161.202 35.2756 161.63 35.3829C162.378 35.544 163.18 35.5447 163.768 35.0617C164.41 34.5249 164.464 33.6119 164.464 32.7531C164.517 31.6795 164.464 30.6596 164.464 29.5324C164.41 27.8147 164.357 28.1364 164.25 26.3654C164.196 25.6139 163.982 24.9158 163.875 24.3253C163.394 23.7887 162.913 23.7345 162.379 23.7345ZM182.138 12.2921C181.602 12.2392 181.066 12.0805 180.584 12.3976C180.048 13.9311 179.94 17.8971 180.369 19.0607C181.441 19.2193 182.46 18.6909 183.533 18.5851C184.284 18.1621 184.391 17.5274 184.445 16.7872C184.445 16.0469 184.499 15.3061 184.499 14.5128C184.499 14.1428 184.499 13.7198 184.445 13.3497C184.445 12.9268 184.23 12.7152 183.802 12.6622C183.212 12.5565 182.675 12.3979 182.138 12.2921Z" fill="#FFCE3C"/>
<path d="M232.319 5.00488C233.717 4.95071 235.007 5.33106 236.298 5.87305C237.105 6.30666 237.589 6.9571 237.911 7.82422C238.395 9.23332 238.611 10.6969 238.664 12.1602C238.772 13.9487 238.933 15.7373 238.987 17.5801C239.04 19.748 238.934 21.8619 238.342 23.9756C238.234 24.2466 238.234 24.5181 238.18 24.7891C238.019 25.3851 237.803 25.9273 237.32 26.415C236.997 26.7402 236.728 27.1193 236.406 27.5527C236.513 27.5527 236.675 27.6069 236.836 27.6611C237.374 27.7154 237.75 27.9865 238.073 28.4199C238.987 29.6123 238.933 31.7807 238.987 33.2441C239.04 35.0327 238.933 36.8755 238.557 38.6641C238.503 39.0977 238.395 39.5859 238.126 40.0195C236.782 42.6208 232.748 42.4585 230.328 42.7295C229.307 42.8378 228.285 42.7837 227.263 42.8379C226.08 42.8921 224.897 43 223.714 43C222.639 42.9458 221.563 42.9463 220.488 42.7295C219.842 42.5669 219.196 42.187 218.605 41.8076C218.282 41.5908 217.959 41.1575 217.798 40.7783C217.153 39.2607 216.884 37.6343 217.045 35.9541C217.099 34.8701 217.154 33.7319 217.154 32.5938C217.154 30.5883 217.046 28.5826 217.1 26.5771C217.1 23.9214 217.207 21.3194 217.261 18.7178C217.315 17.5255 217.261 16.3329 217.261 15.1406C217.207 12.7559 217.154 10.3711 217.154 7.98633C217.154 7.60694 217.261 7.17333 217.422 6.79395C217.799 5.87256 218.552 5.33057 219.52 5.27637C220.81 5.22217 222.155 5.16797 223.446 5.16797C225.113 5.11378 226.833 5.11328 228.5 5.11328C229.791 5.05908 231.028 5.05909 232.319 5.00488ZM245.336 5.17871C247.242 5.01343 249.148 4.9037 251.054 5.12402C252.197 5.2342 253.341 5.28886 254.485 5.4541C255.41 5.56428 256.336 5.78453 257.262 6.00488C257.915 6.22526 258.406 6.66642 258.678 7.27246C258.896 7.9334 259.168 8.53927 259.331 9.2002C259.604 10.3572 259.821 11.5701 259.985 12.7822C260.039 13.4433 259.931 14.2146 259.876 14.9307V20.2744C259.822 21.1559 259.768 22.0378 259.713 22.8643C259.659 24.2967 259.549 25.7291 259.549 27.1064C259.386 30.7977 259.494 34.4338 258.841 38.125C258.787 38.4005 258.732 38.7319 258.678 39.0625C258.242 40.9354 257.208 41.8165 255.302 42.2021C254.05 42.4225 252.797 42.4224 251.544 42.4775C250.074 42.5877 248.603 42.9185 247.133 42.9736C245.663 43.0837 244.084 42.8634 242.886 42.0371C241.525 41.1556 240.762 39.6676 240.381 38.125C240 36.5826 240 34.9852 240 33.3877C240 30.6329 240.054 27.8778 240.163 25.123C240.218 22.9744 240.436 20.8807 240.599 18.7871C240.708 17.1343 240.871 15.5366 240.98 13.8838C241.034 12.7268 241.089 11.5144 241.144 10.3574C241.198 9.97195 241.252 9.58629 241.415 9.25586C241.742 8.42944 242.069 7.60295 242.505 6.88672C243.104 5.78498 244.193 5.28896 245.336 5.17871ZM274.328 5.01367C275.687 5.01367 277.1 4.95994 278.459 5.06836C279.383 5.12259 280.254 5.39297 281.123 5.55566C281.504 5.66412 281.775 5.88164 281.992 6.31543C282.047 7.29152 281.776 8.05084 281.504 8.86426C280.526 12.118 279.275 15.2092 278.134 18.3545C277.645 19.7645 277.046 21.1749 276.448 22.585C276.34 22.9646 276.231 23.2899 276.068 23.6152C276.176 23.8862 276.231 24.0489 276.285 24.2656C277.753 28.0619 279.166 31.859 280.579 35.6553C280.96 36.6313 281.286 37.607 281.613 38.583C281.83 39.1252 281.83 39.5593 281.613 40.4268C281.286 40.9148 280.797 41.1869 280.308 41.3496C279.221 41.6208 278.134 41.9454 276.938 41.7285C276.34 41.6743 275.687 41.7285 275.089 41.8369C273.513 41.9996 273.35 41.9451 272.481 40.4268C271.828 39.3422 271.23 38.3117 270.524 37.1729C270.034 38.2574 269.49 39.288 269.001 40.3184C268.566 41.403 268.023 42.2713 266.99 42.5967C266.338 42.7594 265.632 42.9223 264.925 42.9766C263.784 43.0308 262.642 42.9766 261.5 42.9766C260.794 42.9765 260.141 42.7048 259.543 42.3252C259.326 42.1625 259.163 41.837 259 41.6201C259.109 41.0237 259.217 40.4812 259.38 39.9932C259.924 38.2035 260.522 36.4678 261.229 34.7324C261.772 33.3768 262.153 31.9665 262.642 30.5566C263.294 28.6586 264 26.7603 264.653 24.8623C264.816 24.4827 264.979 24.1032 265.142 23.6152C264.816 22.8561 264.435 22.0966 264.163 21.2832C263.348 19.1682 262.587 17.0529 261.772 14.9922C261.228 13.4738 260.63 12.0095 260.032 10.5996C259.598 9.515 259.217 8.37568 259.109 7.18262C259.054 6.74901 259.109 6.31538 259.109 5.77344C259.598 5.61077 259.978 5.44781 260.359 5.39355C262.587 5.01393 264.817 5.23099 267.045 5.17676C267.48 5.17694 267.805 5.44813 268.023 5.88184C268.621 7.23758 269.273 8.5393 269.817 9.84082C270.088 10.3289 270.307 10.8713 270.578 11.4678C270.687 11.3051 270.741 11.1959 270.85 11.0332C271.502 9.56912 272.155 8.051 272.807 6.58691C272.97 6.26158 273.132 5.93569 273.35 5.61035C273.567 5.23078 273.894 5.01374 274.328 5.01367ZM231.351 32.377C229.146 32.1602 227.102 32.3228 225.005 32.8105C224.898 33.4609 224.843 34.0571 224.736 34.6533C224.736 34.7075 224.789 34.816 224.789 34.9785C225.596 35.0327 226.403 35.0864 227.209 35.1406C228.123 35.1406 229.038 35.1948 229.952 35.1406C230.867 35.1406 231.297 34.7617 231.458 33.7861C231.512 33.5693 231.566 33.2437 231.512 32.9727C231.512 32.8101 231.405 32.5935 231.351 32.377ZM250.292 14.5996C249.149 14.5445 248.386 15.3166 248.386 16.4736C248.332 17.5754 248.278 18.6772 248.278 19.834C248.278 20.8807 248.332 21.9825 248.441 23.0293C248.604 25.5637 248.277 28.0984 248.223 30.6328C248.168 31.5142 248.169 32.4506 248.278 33.332C248.332 34.0483 249.203 34.6541 249.857 34.5439C250.292 34.4338 250.728 34.3234 251.163 34.1582C251.653 33.9378 252.035 33.6626 252.089 33.0566C252.198 32.2302 252.198 31.4035 252.198 30.5771C252.252 29.7508 252.198 28.9792 252.198 28.208C252.252 27.1062 252.361 26.0041 252.307 24.9023C252.252 22.8089 252.143 20.7155 252.034 18.6221C251.98 17.4652 251.925 16.2532 251.49 15.1514C251.163 14.7107 250.782 14.5996 250.292 14.5996ZM229.146 12.5391C228.285 12.5933 227.479 12.6475 226.618 12.7559C226.081 12.81 225.543 12.9731 225.005 13.0273C224.898 13.0815 225.059 17.2524 225.005 17.7422C224.844 19.4766 224.736 21.2656 224.682 23C224.682 23.3251 224.682 23.6504 224.897 23.8672C224.951 23.9756 225.059 24.0298 225.166 24.084C225.381 24.1381 225.597 24.1387 225.812 24.1387C226.941 24.0845 228.07 23.9218 229.199 23.5967C229.468 23.4883 229.791 23.3794 230.006 23.2168C230.49 22.8374 230.598 22.187 230.652 21.5908C230.867 20.1275 230.92 18.6099 230.92 17.1465C230.866 15.9541 231.028 14.8155 230.974 13.623C230.92 12.9729 230.705 12.7563 230.06 12.5938C229.791 12.5396 229.468 12.5391 229.146 12.5391Z" fill="#FFCE3C"/>
<path fill-rule="evenodd" clip-rule="evenodd" d="M3.70401 0.359431C5.41712 -0.0874943 7.13055 -0.0868501 8.84366 0.192439C9.28561 0.304133 9.67277 0.471325 10.0595 0.583064C11.1095 1.75632 11.0544 3.15313 10.8886 4.54986C10.7228 5.77892 10.7782 7.06395 10.7782 8.29303V16.7852C10.7782 20.2491 10.8335 23.6573 10.7782 27.1211C10.723 29.5236 10.3362 31.9265 10.3915 34.3848C10.3915 34.6082 10.3918 34.8315 10.5575 34.9991C10.6127 35.0549 10.6126 35.1104 10.6679 35.1104C10.8889 35.278 11.1651 35.2784 11.4413 35.2784C14.2599 35.1666 17.0788 34.8877 19.8974 35.167C20.5051 35.2787 21.0574 35.3346 21.4442 35.7813C21.7758 36.1165 21.887 36.6195 21.9423 37.0665C22.1081 38.8542 21.887 40.642 21.6659 42.4297C21.6107 43.0442 21.4998 43.7144 21.1132 44.1055C20.7263 44.4966 20.1731 44.609 19.6757 44.7208C18.5153 44.9442 17.4099 45.0001 16.1942 45.0001H7.35147C6.19115 45.0001 4.97565 44.9994 3.81534 44.8878C2.76529 44.776 1.65919 44.4971 0.996003 43.7149C0.553975 43.1004 0.443438 42.3181 0.332917 41.5919C-0.219724 36.6196 0.0573405 31.3679 0.167878 26.3956C0.278407 22.7082 0.498524 19.0204 0.443268 15.3331C0.388003 11.478 0.112511 7.5668 0.830964 3.76763C1.05202 2.81791 1.32839 1.81184 2.04678 1.19732C2.48881 0.750696 3.09637 0.526984 3.70401 0.359431ZM30.6181 5.00006C31.3916 5.05582 31.889 5.61388 31.9442 6.39459C31.9995 7.28673 31.9999 8.23479 31.9999 9.18267C31.9999 11.2458 31.9442 13.309 31.9442 15.3721C31.889 17.9373 31.8891 20.5031 31.8339 23.1241C31.7787 24.7969 31.7788 26.4698 31.7235 28.1426C31.7235 28.4213 31.7235 28.6999 31.6132 28.9786C31.337 29.9823 31.4467 31.0421 31.3915 32.1016C31.3915 33.2169 31.3918 34.3886 31.1708 35.5596C31.0604 36.3958 31.1157 37.2878 31.0605 38.1797V40.8008C31.0605 41.8046 30.6181 42.5859 29.8446 43.1993C29.6792 43.3107 29.5687 43.4218 29.4032 43.4776C28.1878 43.8122 26.9167 44.2587 25.5907 43.8126C25.204 43.6453 24.7069 43.6449 24.3202 43.4776C22.9944 42.92 22.3312 41.9723 22.2206 40.4669C21.9444 36.8979 22.1104 33.2724 21.9999 28.4766C22.1104 26.5248 22.2203 23.4018 22.4413 20.335C22.5518 18.8295 22.7732 17.3796 22.8837 15.8741C22.9942 14.1456 22.9944 12.4171 23.1601 10.6885C23.2706 9.29442 23.381 7.89994 23.9335 6.56158C24.265 5.7252 24.8173 5.33519 25.7011 5.27935C26.5851 5.27935 27.4694 5.11149 28.3534 5.05572C29.1267 4.99998 29.8448 5.00006 30.6181 5.00006ZM99.5839 5.42779C102.278 4.81764 105.192 5.03912 107.941 5.03912C108.711 5.03912 109.481 5.15086 110.195 5.26178C111.075 5.37271 111.735 5.81648 112.065 6.64849C112.285 7.14757 112.505 7.70219 112.725 8.20123C112.944 8.81137 112.834 9.47683 112.725 10.087C112.67 10.4752 112.67 10.8081 112.67 11.1963C112.615 13.0268 112.615 14.9128 112.615 16.7432C112.615 16.9096 112.56 17.0759 112.559 17.2422C112.12 17.7969 111.625 18.185 110.91 18.296C110.47 18.3515 110.086 18.5734 109.701 18.629C108.656 18.6844 107.611 18.6848 106.512 18.7403C105.742 18.3521 105.357 17.7418 105.302 16.8545C105.192 16.078 105.082 15.3565 104.917 14.5245C103.708 14.4136 102.553 14.4134 101.344 14.9678C101.234 15.356 101.069 15.6891 101.014 16.0772V19.96H101.783C102.773 19.9046 103.762 19.9051 104.752 19.8497C106.291 19.7387 107.281 20.903 107.281 22.1231C107.336 23.177 107.502 24.2313 107.557 25.2852C107.557 25.8952 107.501 26.5053 107.446 27.1153C107.336 27.8362 106.897 28.3355 106.237 28.502C105.742 28.6684 105.247 28.7239 104.808 28.7794C104.093 28.8348 103.433 28.835 102.773 28.835C102.333 28.8905 101.893 28.9458 101.453 29.0567C101.398 29.1676 101.344 29.2788 101.344 29.3897V33.8829C101.399 34.8812 101.948 35.4917 102.993 35.6026H103.213C103.763 35.6026 104.312 35.6019 104.917 35.6573C105.522 34.8253 105.192 33.8271 105.522 32.7178C105.632 32.4961 105.962 32.3297 106.457 32.2188C107.941 31.8306 109.481 31.8301 111.02 31.8301C111.68 31.7747 112.12 32.2743 112.45 32.7735C112.67 33.1062 112.78 33.4945 112.78 33.8272C112.89 34.8256 113 35.8241 113 36.878C113 37.9873 113 39.0968 112.89 40.2061C112.78 41.0934 112.395 41.8146 111.681 42.3692C110.031 43.645 107.446 43.7008 105.467 43.8672C103.158 44.0891 100.903 44.033 98.6493 43.7003C97.3848 43.5339 96.1201 43.2568 95.1855 42.4249C94.0858 41.4264 93.7006 39.9286 93.4257 38.4864C92.876 36.1014 93.0959 33.6055 93.0409 31.1651C92.9859 28.669 92.9859 26.1727 93.0409 23.6211C93.0959 21.7354 93.261 19.8497 93.371 17.9639C93.5359 14.414 92.9314 10.3094 95.6806 7.48053C96.7252 6.37117 98.1543 5.7606 99.5839 5.42779ZM79.122 5.0733C80.4038 4.96217 81.6302 4.96234 82.912 5.18463C83.302 5.18472 83.6363 5.35085 83.9706 5.46197C84.9181 6.40672 84.918 7.62988 84.8065 8.79693C84.6951 9.90818 84.6952 10.9639 84.7509 12.0196C84.8624 14.4648 84.9178 16.8547 84.9735 19.2999C85.0293 22.2453 85.1414 25.1913 85.1972 28.0811C85.1972 29.9704 85.085 31.8597 84.9735 33.7491V35.4161C86.144 35.3049 87.2592 35.1942 88.3739 35.0831C89.4328 34.9164 90.5475 34.972 91.6064 35.1387C92.1636 35.2499 92.609 35.5832 92.7763 36.1387C92.8877 36.5277 92.9999 36.9724 92.9999 37.3614V40.752C92.9443 41.1963 92.9442 41.6406 92.8329 42.0294C92.4985 42.9741 91.885 43.5304 90.8817 43.586C88.2623 43.8083 85.6428 44.0858 83.0233 43.9747C81.2957 43.9191 79.4008 43.6969 78.286 42.419C77.6173 41.5855 77.3381 40.5851 77.1151 39.5294C75.6661 33.1385 75.9449 26.8028 76.2235 20.3008C76.2793 18.8004 76.5018 17.355 76.5575 15.8545C76.6133 14.0763 76.6141 12.3535 76.6698 10.5753C76.7256 9.18607 76.8363 7.74092 77.3378 6.40728C77.6722 5.57368 78.1745 5.12887 79.122 5.0733ZM52.3222 4.00006C53.2882 4.0544 53.8251 4.54349 53.9325 5.52154C54.0399 6.11925 53.9863 6.77148 53.9862 7.3692C53.9326 8.45604 53.8787 9.54309 53.7714 10.6299C53.7177 12.4776 52.9128 12.9128 51.4101 12.8585C50.3366 12.8585 49.2091 12.8581 48.1357 12.8038H47.3847V13.6192C47.331 17.9122 47.3309 22.1513 47.2773 26.4444C47.2236 27.1507 47.1161 27.8572 47.0624 28.5635C47.0087 28.9982 47.0087 29.3788 46.955 29.8135C46.8477 31.3894 47.0085 33.0199 46.7401 34.5958C46.5255 35.4652 46.6327 36.3894 46.579 37.2588V39.8126C46.579 40.8451 46.1497 41.6601 45.3446 42.2579C45.2373 42.3666 45.076 42.475 44.9149 42.5294C43.1438 43.1814 41.4264 43.1814 39.7626 42.3663C38.6356 41.8228 38.0448 40.899 37.9911 39.5948C37.7228 34.5953 37.83 29.5956 37.8837 24.6504C37.9374 22.4768 38.2061 20.303 38.3671 18.1836C38.4744 16.9338 38.582 15.6839 38.6894 14.4883V13.3467C37.4549 13.4011 36.3273 13.4561 35.2001 13.4561C33.5901 13.5104 33.1073 13.0754 33.0536 11.4454C32.9999 10.1412 32.9999 8.89115 32.9999 7.58697C32.9999 7.26091 33 6.93452 33.1073 6.60845C33.161 6.39121 33.268 6.06547 33.4823 5.9024C33.9653 5.4677 34.5024 5.03263 35.2001 4.92388C36.6492 4.8152 38.0449 4.59766 39.494 4.43463C40.3527 4.32596 41.2116 4.32586 42.0702 4.27154C42.4459 4.2172 42.8224 4.27154 43.1982 4.27154C45.7206 4.27154 48.2431 4.27208 50.7655 4.05474C51.2485 4.00041 51.7855 4.00006 52.3222 4.00006ZM73.3222 4.00006C74.2882 4.0544 74.8251 4.54349 74.9325 5.52154C75.0399 6.11925 74.9863 6.77148 74.9862 7.3692C74.9326 8.45604 74.8787 9.54309 74.7714 10.6299C74.7177 12.4776 73.9128 12.9128 72.4101 12.8585C71.3366 12.8585 70.2091 12.8581 69.1357 12.8038H68.3847V13.6192C68.331 17.9122 68.3309 22.1513 68.2773 26.4444C68.2236 27.1507 68.1161 27.8572 68.0624 28.5635C68.0087 28.9982 68.0087 29.3788 67.955 29.8135C67.8477 31.3894 68.0085 33.0199 67.7401 34.5958C67.5255 35.4652 67.6327 36.3894 67.579 37.2588V39.8126C67.579 40.8451 67.1497 41.6601 66.3446 42.2579C66.2373 42.3666 66.076 42.475 65.9149 42.5294C64.1438 43.1814 62.4264 43.1814 60.7626 42.3663C59.6356 41.8228 59.0448 40.899 58.9911 39.5948C58.7228 34.5953 58.83 29.5956 58.8837 24.6504C58.9374 22.4768 59.2061 20.303 59.3671 18.1836C59.4744 16.9338 59.582 15.6839 59.6894 14.4883V13.3467C58.4549 13.4011 57.3273 13.4561 56.2001 13.4561C54.5901 13.5104 54.1073 13.0754 54.0536 11.4454C53.9999 10.1412 53.9999 8.89115 53.9999 7.58697C53.9999 7.26091 54 6.93452 54.1073 6.60845C54.161 6.39121 54.268 6.06547 54.4823 5.9024C54.9653 5.4677 55.5024 5.03263 56.2001 4.92388C57.6492 4.8152 59.0449 4.59766 60.494 4.43463C61.3527 4.32596 62.2116 4.32586 63.0702 4.27154C63.4459 4.2172 63.8224 4.27154 64.1982 4.27154C66.7206 4.27154 69.2431 4.27208 71.7655 4.05474C72.2485 4.00041 72.7855 4.00006 73.3222 4.00006Z" fill="#FFCE3C"/>
</svg>
