<svg width="1920" height="47" viewBox="0 0 1920 47" fill="none" xmlns="http://www.w3.org/2000/svg">
<path d="M1575.18 29.4803C1585.88 29.4803 1595.82 27.6448 1604.14 24.5096C1647.69 62.0848 1801.81 49.6068 1826.85 8.21212C1854.28 12.3733 1899.32 21.2523 1920 3.05176e-05H-0.00012207C-0.00012207 32.945 46.3413 36.475 103.528 36.475C119.045 36.475 133.769 34.5111 146.969 30.9759C159.549 42.4741 175.328 11.6932 200.599 11.6932C210.167 35.77 308.605 69.3572 331.302 24.4752C403.107 51.9189 586.349 48.6703 641.613 5.02927C699.019 35.446 976.934 77.0151 985.094 5.0293C1001 12.8638 1021.62 17.5988 1044.19 17.5988C1062.71 17.5988 1079.96 14.4136 1094.34 8.92868C1089.95 27.8199 1144.19 37.0824 1171.02 24.5096C1173.1 44.9068 1271.65 35.4357 1286.66 21.7172C1297.64 34.0283 1356.34 31.0208 1359.22 24.5096C1383.14 73.6818 1510.58 28.578 1526.81 11.4188C1535.09 22.0671 1553.62 29.4803 1575.18 29.4803Z" fill="#251D32"/>
</svg>
