<svg width="72" height="72" viewBox="0 0 72 72" fill="none" xmlns="http://www.w3.org/2000/svg">
<path fill-rule="evenodd" clip-rule="evenodd" d="M36 72C55.8823 72 72 55.8823 72 36C72 16.1177 55.8823 0 36 0C16.1177 0 0 16.1177 0 36C0 55.8823 16.1177 72 36 72Z" fill="#FFCE3C"/>
<g clip-path="url(#clip0_8363_14381)">
<path d="M57.2781 23.1392C57.866 22.5715 58.3183 21.8837 58.6027 21.1249C58.8871 20.3661 58.9965 19.5551 58.9231 18.75C58.4139 13.6325 50.2085 14.9167 45.1952 23.7909C45.1155 23.9207 45.0914 24.0761 45.1281 24.2232C45.1647 24.3703 45.2592 24.4974 45.391 24.5767C45.4621 24.6277 45.5437 24.663 45.6301 24.6801C45.7165 24.6971 45.8056 24.6956 45.8913 24.6755C45.9771 24.6555 46.0573 24.6174 46.1265 24.5639C46.1956 24.5104 46.2521 24.4428 46.2919 24.3659C47.8585 21.9317 51.2269 18.3475 54.1252 17.7917C54.9058 17.5193 55.7648 17.5606 56.5144 17.9067C57.376 18.5392 56.906 20.3025 56.2794 21.1842L54.8106 22.5834C54.6735 22.8134 53.5573 23.5992 54.2231 24.5C54.8889 25.4009 56.1814 24.5 57.376 25.8417C59.5106 28.1609 53.9098 29.4642 54.0664 31.0167C54.0664 31.7067 54.9085 31.8217 55.731 31.9942C59.0994 32.6075 54.5169 38.0317 49.2685 38.6642C49.0972 38.688 48.9415 38.7743 48.8325 38.9059C48.7235 39.0374 48.6694 39.2044 48.681 39.3734C48.8377 40.7534 52.7152 39.1817 53.8706 38.5875C55.304 37.9131 56.578 36.9535 57.611 35.77C57.953 35.4248 58.2197 35.015 58.3949 34.5657C58.57 34.1164 58.6499 33.6369 58.6298 33.1565C58.6096 32.676 58.4898 32.2045 58.2776 31.7708C58.0655 31.337 57.7654 30.95 57.3956 30.6334C61.371 28.0267 60.3331 24.3084 57.2781 23.1392Z" fill="#251D32"/>
<path d="M23.732 38.07C22.3529 37.8418 21.0265 37.3745 19.8153 36.69C18.4836 35.9617 16.5449 34.505 16.212 33.01C15.6636 30.4034 18.5815 32.3392 18.8753 30.4225C18.887 30.2097 18.8427 29.9976 18.7467 29.8063C18.6507 29.615 18.5062 29.451 18.327 29.33C17.9745 29.0809 17.0345 28.5442 16.9757 28.5059C16.4609 28.194 15.9985 27.806 15.6049 27.3559C15.378 27.1276 15.2217 26.8412 15.1542 26.5297C15.0866 26.2181 15.1106 25.8943 15.2233 25.5955C15.3359 25.2968 15.5327 25.0353 15.7909 24.8415C16.049 24.6476 16.3579 24.5292 16.682 24.5C17.1128 24.5 18.1899 24.5 18.8753 23.8867C20.109 22.3725 16.447 21.8359 16.1924 18.75C16.1366 18.4957 16.1488 18.2315 16.2277 17.9831C16.3066 17.7347 16.4495 17.5103 16.6428 17.3317C16.9242 17.1404 17.2597 17.0399 17.6024 17.0442C19.4495 17.134 21.2046 17.8604 22.557 19.095C24.2148 20.4544 25.654 22.0503 26.8261 23.8292C26.8644 23.8924 26.9151 23.9476 26.9753 23.9915C27.0356 24.0354 27.1041 24.0672 27.1769 24.085C27.2498 24.1028 27.3255 24.1063 27.3998 24.0953C27.474 24.0843 27.5453 24.059 27.6095 24.0209C27.6764 23.9831 27.735 23.9329 27.782 23.873C27.8291 23.813 27.8636 23.7446 27.8836 23.6716C27.9036 23.5987 27.9087 23.5225 27.8986 23.4476C27.8886 23.3727 27.8635 23.3005 27.8249 23.235C26.6822 21.277 25.2427 19.4999 23.5557 17.9642C22.3836 16.8581 20.971 16.0259 19.4236 15.53C18.7056 15.3211 17.9598 15.2177 17.2107 15.2234C16.596 15.2556 16.0012 15.4474 15.4874 15.7792C15.0811 16.0629 14.7451 16.4325 14.5045 16.8605C14.2638 17.2884 14.1245 17.7639 14.097 18.2517C14.0283 19.0477 14.1402 19.8488 14.4246 20.5976C14.7089 21.3464 15.1588 22.0245 15.742 22.5834C15.0638 22.8413 14.4592 23.2555 13.9795 23.7909C13.3855 24.4201 13.0385 25.235 13.0003 26.0909C12.979 26.8936 13.2266 27.6812 13.7053 28.3334C14.2412 29.024 14.9056 29.6093 15.6636 30.0584C15.2032 30.3716 14.8487 30.812 14.6453 31.3234C14.4425 31.876 14.3952 32.4717 14.5082 33.0484C14.6389 33.8291 14.9765 34.5627 15.4874 35.1759C16.5082 36.3123 17.7454 37.2432 19.1299 37.9167C20.5265 38.6198 22.0373 39.0802 23.5949 39.2775C23.7685 39.2937 23.9417 39.2425 24.0772 39.135C24.2127 39.0274 24.2997 38.8722 24.3195 38.7025C24.3201 38.5443 24.2602 38.3915 24.1514 38.2744C24.0426 38.1574 23.893 38.0844 23.732 38.07Z" fill="#251D32"/>
<path d="M29.431 46.2925C29.2784 46.2872 29.1297 46.3402 29.0164 46.4404C28.903 46.5406 28.834 46.68 28.8239 46.8291C28.5889 47.9025 28.2952 48.9375 28.0994 50.0108C28.0053 50.4665 27.9399 50.9273 27.9035 51.3908C27.9035 51.8508 27.9035 52.3108 27.8056 52.7708V56.0291C27.7873 56.1948 27.8346 56.361 27.9376 56.4937C28.0407 56.6263 28.1917 56.7152 28.3597 56.7422C28.5277 56.7692 28.6999 56.7322 28.8409 56.6388C28.9819 56.5454 29.0809 56.4027 29.1177 56.24C29.4114 55.1475 29.7248 54.1125 29.9598 53.02C30.0577 52.56 30.136 52.1 30.1948 51.6208C30.2238 51.1549 30.2238 50.6876 30.1948 50.2216C30.1948 49.0908 30.0577 48.0175 29.9598 46.8866C29.9651 46.8136 29.9556 46.7403 29.9319 46.6708C29.9082 46.6014 29.8707 46.5372 29.8216 46.482C29.7724 46.4268 29.7126 46.3816 29.6456 46.3491C29.5786 46.3166 29.5057 46.2973 29.431 46.2925Z" fill="#251D32"/>
<path d="M36.7154 45.7751C36.7283 45.6226 36.6789 45.4713 36.5779 45.3544C36.4769 45.2376 36.3326 45.1648 36.1768 45.1521C36.021 45.1394 35.8664 45.1878 35.7471 45.2867C35.6277 45.3855 35.5533 45.5267 35.5404 45.6792C35.2511 46.9061 35.0871 48.1581 35.0508 49.4167C35.064 50.1345 35.1163 50.8511 35.2074 51.5634C35.3448 52.5927 35.4037 53.6305 35.3837 54.6684C35.3488 54.836 35.3826 55.0104 35.4778 55.1538C35.5731 55.2972 35.7222 55.3983 35.8929 55.4351C36.0663 55.4637 36.2444 55.4259 36.3902 55.3296C36.536 55.2332 36.6384 55.0857 36.6762 54.9176C37.0805 53.6772 37.2982 52.3859 37.3224 51.0842C37.3419 50.3476 37.3026 49.6107 37.2049 48.8801C37.0679 47.8642 36.7741 46.8484 36.7154 45.7751Z" fill="#251D32"/>
<path d="M44.1569 49.8192C43.9415 48.9184 43.6282 48.0942 43.3736 47.2125C43.354 47.0632 43.2753 46.9273 43.1545 46.8342C43.0336 46.741 42.8803 46.6979 42.7274 46.7142C42.6526 46.7214 42.5801 46.743 42.5139 46.7778C42.4478 46.8125 42.3894 46.8598 42.342 46.9169C42.2947 46.9739 42.2593 47.0396 42.2381 47.1101C42.2168 47.1805 42.2101 47.2545 42.2182 47.3275C42.1172 48.2378 42.0649 49.1527 42.0615 50.0684C42.087 50.837 42.192 51.6012 42.3749 52.3492C42.5707 53.2309 42.8253 54.0742 43.0407 54.9559C43.0557 55.1254 43.1378 55.2824 43.2696 55.3934C43.4013 55.5045 43.5722 55.5607 43.7457 55.55C43.8333 55.5428 43.9185 55.5187 43.9965 55.4791C44.0745 55.4394 44.1437 55.3851 44.2001 55.3192C44.2566 55.2533 44.2991 55.177 44.3253 55.0949C44.3515 55.0129 44.3608 54.9265 44.3528 54.8409C44.4017 53.9279 44.4017 53.013 44.3528 52.1C44.3822 51.7172 44.3822 51.3328 44.3528 50.95C44.3177 50.5687 44.2523 50.1906 44.1569 49.8192Z" fill="#251D32"/>
<path d="M45.9195 27.4709C45.4512 27.2376 44.9367 27.1068 44.4116 27.0875C41.5551 26.916 38.6906 26.916 35.8341 27.0875C32.8301 27.1514 29.8449 27.5697 26.9433 28.3334C26.3558 28.6017 25.5137 29.1192 25.5137 31.7067C25.5223 34.9084 25.7054 38.1074 26.062 41.2901C26.1045 41.6072 26.2554 41.901 26.49 42.1237C26.7246 42.3463 27.0293 42.4849 27.3545 42.5167C29.587 42.5167 37.2833 42.3059 41.9245 42.0759C43.452 42.0759 44.6662 41.9417 45.2341 41.8842C45.5 41.8617 45.7591 41.7902 45.9978 41.6734C46.3776 41.2979 46.607 40.8013 46.6441 40.2742C46.9641 37.9491 47.1212 35.6053 47.1141 33.2592C47.1402 31.8194 47.0155 30.3808 46.742 28.9659C46.6314 28.3966 46.3442 27.8746 45.9195 27.4709ZM43.9612 29.2151C44.1629 29.1932 44.3665 29.1932 44.5683 29.2151C43.3933 29.8284 40.867 31.1317 38.5953 32.1667L36.1866 33.2401C35.2858 33.6234 35.1095 33.7959 34.0912 33.2401C33.0728 32.6842 32.1328 32.1092 31.1341 31.3234C30.1353 30.5376 29.2541 30.2501 28.5099 29.6176C29.7301 29.4358 30.9589 29.3142 32.1916 29.2534C36.0781 29.0203 39.9752 29.0075 43.8633 29.2151H43.9612ZM44.6858 39.8334C44.6858 39.9867 44.4703 40.0059 44.3137 40.0251C42.3553 40.1592 38.3212 40.5426 34.522 40.7917C29.7437 41.0984 27.9224 41.175 27.3741 41.1942C27.3483 41.1969 27.3223 41.1945 27.2975 41.1872C27.2727 41.18 27.2497 41.168 27.2296 41.1519C27.2096 41.1359 27.193 41.1161 27.1808 41.0938C27.1686 41.0714 27.1611 41.0469 27.1587 41.0217C26.9992 39.4744 26.9338 37.9191 26.9628 36.3642C26.9628 34.1792 26.9628 31.7834 27.1587 30.4417C28.5071 31.7681 29.9395 33.01 31.4474 34.16C32.3874 34.9572 33.4884 35.5515 34.6787 35.9042C36.022 35.7384 37.312 35.2871 38.4583 34.5817C40.6222 33.3316 42.7203 31.9755 44.7445 30.5184C44.7445 30.9784 44.8424 31.4959 44.8816 32.0709C44.9964 34.6597 44.9309 37.2532 44.6858 39.8334Z" fill="#251D32"/>
</g>
<defs>
<clipPath id="clip0_8363_14381">
<rect width="47" height="46" fill="white" transform="translate(13 13)"/>
</clipPath>
</defs>
</svg>
