<svg width="72" height="72" viewBox="0 0 72 72" fill="none" xmlns="http://www.w3.org/2000/svg">
<path fill-rule="evenodd" clip-rule="evenodd" d="M36 72C55.8823 72 72 55.8823 72 36C72 16.1177 55.8823 0 36 0C16.1177 0 0 16.1177 0 36C0 55.8823 16.1177 72 36 72Z" fill="#FFCE3C"/>
<g clip-path="url(#clip0_8414_9273)">
<path d="M58.0349 40.9319C58.2134 35.5832 57.9374 30.229 57.2099 24.9269C57.2387 24.5486 57.2387 24.1686 57.2099 23.7903C56.9533 22.5619 53.2683 21.9569 51.7099 21.8103C51.5668 21.7947 51.4232 21.8359 51.3101 21.925C51.197 22.0142 51.1233 22.1441 51.1049 22.2869C51.0133 23.4969 52.9383 22.2869 55.8899 24.1203C55.8534 25.4233 55.9579 26.7264 56.2016 28.0069C56.6416 32.1136 56.4033 34.9553 56.2016 45.8636C54.0232 45.3895 51.7917 45.2046 49.5649 45.3136C45.4129 45.2848 41.3578 46.568 37.9783 48.9803C39.2249 44.1403 42.2683 42.8386 46.5583 41.2986C47.0443 41.1463 47.5527 41.0781 48.0616 41.0969C48.161 41.3219 48.3365 41.5046 48.5573 41.6129C48.7781 41.7212 49.03 41.7481 49.2687 41.689C49.5074 41.6298 49.7177 41.4884 49.8624 41.2896C50.0071 41.0908 50.0771 40.8473 50.0599 40.6019C49.3633 22.0669 50.0599 19.4636 49.7666 17.7403C49.4733 16.0169 48.2266 15.8153 46.4849 15.5586C44.3456 15.3343 42.1851 15.6869 40.2281 16.58C38.2712 17.473 36.5891 18.8739 35.3566 20.6369C35.2099 20.9486 34.3483 22.8553 34.2749 23.0569C33.0238 22.1011 31.5781 21.4315 30.0399 21.0953C26.0908 20.2191 21.9563 20.8743 18.4716 22.9286C17.7925 23.3698 17.211 23.9456 16.7632 24.6204C16.3155 25.2952 16.0109 26.0547 15.8683 26.8519C14.2549 33.3786 13.2833 35.3036 14.7866 49.1819C14.7866 49.7503 14.7866 50.6303 15.3366 51.1619C15.4599 51.2648 15.6042 51.3395 15.7594 51.3806C15.9146 51.4218 16.0769 51.4285 16.2349 51.4003V52.8119C16.4733 56.1119 20.8549 54.0953 25.6766 53.6919C29.6733 53.3803 30.1133 54.2419 33.6516 56.2953C35.1082 56.843 36.6866 56.9824 38.2166 56.6986C39.4706 56.5103 40.6598 56.0195 41.6816 55.2686C53.7633 46.3769 53.3416 56.7719 56.1649 49.3103C56.2956 48.9693 56.3759 48.6111 56.4033 48.2469C56.5455 48.3404 56.7098 48.3949 56.8797 48.4049C57.0496 48.4149 57.2191 48.3801 57.3714 48.304C57.5236 48.2278 57.6532 48.1131 57.7471 47.9712C57.841 47.8292 57.896 47.6651 57.9066 47.4953C58.0751 45.3118 58.1179 43.1204 58.0349 40.9319ZM35.8149 24.0286C41.3149 13.6886 48.1349 18.2353 48.4283 18.5286C48.5749 19.0786 47.75 31.5086 47.7133 32.6453L47.8783 38.9703C45.8445 39.1885 43.8789 39.8296 42.1076 40.8526C40.3363 41.8756 38.7986 43.2577 37.5933 44.9103C36.6766 46.4869 36.9883 46.6519 36.8233 45.6069C36.7866 45.4236 35.7416 24.1753 35.8149 24.0286ZM16.0149 31.9853C16.5466 29.9503 17.2066 24.7803 18.9666 24.1936C24.0999 22.4703 29.2333 22.0486 33.9999 24.6519C34.5656 26.2258 34.8208 27.8943 34.7516 29.5653C34.7516 33.3236 34.8616 44.6719 35.3016 48.0819C32.3832 46.7512 29.1934 46.1233 25.9883 46.2486C23.4531 46.4739 20.9739 47.1247 18.6549 48.1736C18.4349 48.1736 17.4083 49.2186 16.6749 49.6219C16.6749 49.3653 16.4733 49.0719 16.4549 48.9253C15.8683 43.9386 15.0066 37.3753 16.0149 31.9853ZM53.7083 50.0069C48.4283 47.8986 44.2299 50.8869 40.4899 53.5636C39.6907 54.0984 38.7903 54.4638 37.8444 54.6373C36.8984 54.8107 35.927 54.7885 34.9899 54.5719C27.8949 49.5486 25.1449 51.9503 18.7283 52.9219C18.3983 52.9219 18.1416 53.0869 17.9766 52.9219C17.8116 52.7569 17.6283 51.6936 17.2066 51.0886C17.9949 50.6853 19.0399 50.0436 19.2966 49.9703C21.9916 49.1269 25.0349 47.1469 31.6349 48.9803C36.5116 50.2453 36.2549 52.3719 37.9049 51.4736C40.3616 50.1536 43.8999 46.1936 54.9733 47.5319C54.8622 47.6655 54.8035 47.835 54.8083 48.0086C53.7266 49.9519 53.7816 49.8236 53.7083 50.0069Z" fill="#251D32"/>
<path d="M20.7281 30.6469C22.5614 30.3902 22.4147 29.4919 24.8347 29.4919C26.1839 29.5898 27.5148 29.8609 28.7947 30.2986C29.1431 30.1702 29.3997 30.0236 29.3997 29.6752C29.3997 28.8869 28.2997 28.0802 26.6314 27.8419C21.8097 26.9436 21.3514 29.2536 20.4347 29.6752C20.351 29.7442 20.2895 29.8364 20.258 29.9402C20.2266 30.0441 20.2265 30.1549 20.2578 30.2588C20.2892 30.3626 20.3506 30.4549 20.4342 30.524C20.5179 30.593 20.6201 30.6358 20.7281 30.6469Z" fill="#251D32"/>
<path d="M20.7278 37.1186C22.5611 36.8619 22.4144 35.9636 24.8344 35.9636C26.1836 36.0615 27.5145 36.3326 28.7944 36.7702C29.1428 36.6602 29.3994 36.4952 29.3994 36.1469C29.3994 35.3586 28.2994 34.5702 26.6311 34.3136C21.8094 33.4152 21.3511 35.7069 20.4344 36.1469C20.3443 36.1376 20.2533 36.1507 20.1695 36.1851C20.0857 36.2195 20.0116 36.274 19.954 36.3439C19.8963 36.4137 19.8568 36.4968 19.8389 36.5856C19.8211 36.6744 19.8254 36.7662 19.8516 36.853C19.8778 36.9397 19.925 37.0186 19.989 37.0827C20.053 37.1468 20.1319 37.1941 20.2186 37.2204C20.3053 37.2466 20.3971 37.2511 20.4859 37.2333C20.5748 37.2156 20.6578 37.1762 20.7278 37.1186Z" fill="#251D32"/>
<path d="M20.7269 43.6636C22.5602 43.4069 22.4136 42.5086 24.8336 42.5086C26.1813 42.6168 27.5109 42.8876 28.7936 43.3153C29.1419 43.2053 29.3986 43.0403 29.3986 42.7103C29.3986 41.9036 28.2986 41.1153 26.6302 40.8769C21.8086 39.9786 21.3502 42.2886 20.4336 42.7103C20.342 42.6977 20.2487 42.7084 20.1624 42.7413C20.076 42.7743 19.9994 42.8285 19.9395 42.8989C19.8797 42.9693 19.8385 43.0537 19.8199 43.1442C19.8013 43.2348 19.8057 43.3285 19.8329 43.4169C19.8601 43.5052 19.9091 43.5853 19.9754 43.6497C20.0417 43.7141 20.1232 43.7607 20.2123 43.7853C20.3014 43.8099 20.3952 43.8116 20.4852 43.7904C20.5751 43.7691 20.6583 43.7255 20.7269 43.6636Z" fill="#251D32"/>
</g>
<defs>
<clipPath id="clip0_8414_9273">
<rect width="44" height="44" fill="white" transform="translate(14.0352 14.147)"/>
</clipPath>
</defs>
</svg>
