<svg width="72" height="72" viewBox="0 0 72 72" fill="none" xmlns="http://www.w3.org/2000/svg">
<path fill-rule="evenodd" clip-rule="evenodd" d="M36 72C55.8823 72 72 55.8823 72 36C72 16.1177 55.8823 0 36 0C16.1177 0 0 16.1177 0 36C0 55.8823 16.1177 72 36 72Z" fill="#FFCE3C"/>
<path d="M26.8105 24.6697C30.3431 24.484 33.8838 24.5184 37.4121 24.7732C37.5178 24.7924 37.6137 24.8479 37.6826 24.9304C37.7515 25.0129 37.789 25.1169 37.7891 25.2244C37.7891 25.3318 37.7514 25.4358 37.6826 25.5183C37.6137 25.6008 37.5179 25.6573 37.4121 25.6765C36.4785 25.6765 32.244 25.4248 28.3945 25.6765C26.4715 25.6921 24.57 26.084 22.7979 26.8308C22.2283 27.1965 21.8237 27.7708 21.6719 28.4304C21.4631 29.6488 21.349 30.882 21.3311 32.1179C21.0941 34.3985 20.8281 39.2257 20.8281 43.4011C20.7705 45.3774 20.8346 47.3556 21.0205 49.324C21.0657 49.6336 21.1299 49.9403 21.2129 50.2419C22.136 50.6932 23.1475 50.9361 24.1748 50.9529C26.1291 51.1157 28.3203 51.0271 29.5049 51.0271C32.2147 51.1159 34.8509 51.2048 37.457 51.0271C39.1906 50.9198 40.9105 50.6518 42.5947 50.2273C43.3351 50.02 44.5942 49.8571 45.5566 49.5017C46.0601 49.3092 46.5342 49.1606 46.5342 48.7312C46.549 47.4573 46.9482 42.1717 46.9482 37.863C46.983 36.3436 46.8986 34.8235 46.6963 33.3171C46.6836 33.251 46.6852 33.1828 46.6992 33.1169C46.7133 33.0512 46.7398 32.9885 46.7783 32.9333C46.817 32.8781 46.8667 32.8305 46.9238 32.7947C46.9809 32.7589 47.0448 32.735 47.1113 32.7244C47.2425 32.7023 47.3771 32.732 47.4873 32.8064C47.5975 32.8808 47.6756 32.9949 47.7041 33.1248C47.9377 34.7031 48.0509 36.2968 48.0439 37.8923C48.118 42.2013 47.8662 47.488 47.8662 48.7615C47.8462 49.1482 47.7177 49.5218 47.4951 49.8386C47.2726 50.1553 46.9652 50.4026 46.6084 50.5525C45.422 51.034 44.1918 51.4009 42.9355 51.6482C41.1668 52.1286 39.3579 52.4464 37.5312 52.5964C34.8956 52.8037 32.2151 52.8035 29.4609 52.8035C27.3328 52.8985 25.2006 52.8487 23.0791 52.655C22.0246 52.5772 21.0058 52.2369 20.1172 51.6638C19.8287 51.4236 19.6264 51.0955 19.54 50.7302C19.2121 48.9735 19.0775 47.1861 19.1396 45.4001C19.1545 40.8246 19.5844 34.7383 19.9102 32.073C19.9766 30.7435 20.1502 29.4216 20.4287 28.1199C20.5453 27.6276 20.7583 27.1629 21.0557 26.7537C21.3531 26.3445 21.7289 25.998 22.1611 25.7351C23.6276 25.0832 25.2066 24.7217 26.8105 24.6697ZM47.9248 17.4431C49.6186 17.0195 51.4053 17.1708 53.0039 17.8728C53.4701 18.3518 53.7801 18.961 53.8926 19.6199C54.2414 21.5386 54.356 23.4929 54.2334 25.4392C54.1893 27.1497 53.9457 28.8496 53.5078 30.5037C53.3124 31.3863 52.8278 32.1788 52.1309 32.7546C51.8133 32.932 51.441 32.9862 51.0859 32.907C50.7309 32.8278 50.4172 32.6205 50.2051 32.325C49.5409 31.407 48.9891 30.4123 48.5615 29.363L47.792 29.9412C45.5857 31.6736 41.3354 34.8863 33.9316 40.8093C32.673 41.9198 31.4002 41.6385 30.8672 40.8093C29.9788 39.4767 30.2742 38.988 37.3076 30.3406C39.425 27.6605 41.41 25.2325 42.6982 23.7517C42.4767 23.6339 42.2431 23.5397 42.002 23.4705C40.4876 23.1939 39.0008 22.7821 37.5596 22.241C37.4114 22.161 37.2824 22.0494 37.1826 21.9138C37.0828 21.7781 37.0147 21.6212 36.9824 21.4558C36.9456 21.2413 36.9822 21.0206 37.0869 20.8298C37.1918 20.6389 37.3586 20.4891 37.5596 20.405C40.89 19.0248 44.3679 18.0307 47.9248 17.4431ZM50.6641 18.9539C49.3215 18.9524 47.9817 19.086 46.666 19.3533C44.0158 19.8434 41.4073 20.5368 38.8633 21.4265C39.8407 21.7374 41.8394 21.9156 42.8018 22.2117C43.3513 22.3336 43.8608 22.5933 44.2822 22.9666C44.3819 23.0902 44.4365 23.2442 44.4365 23.4031C44.4365 23.562 44.382 23.7168 44.2822 23.8406C43.0532 25.0697 40.6694 27.8679 38.0488 30.9919C32.0667 38.1735 31.1628 39.3733 31.7402 40.2322C32.0216 40.6172 32.6146 40.5433 33.2217 40.0398C40.4328 33.9096 44.6975 30.5928 46.8594 28.9343C47.3492 28.555 47.8139 28.144 48.251 27.7048C48.3217 27.6183 48.4108 27.5487 48.5117 27.5007C48.6129 27.4527 48.724 27.4275 48.8359 27.4275C48.9478 27.4275 49.0581 27.4528 49.1592 27.5007C49.2603 27.5487 49.3501 27.6181 49.4209 27.7048C49.6726 28.075 50.1756 29.2742 50.7529 30.281C50.9602 30.6512 51.3754 30.9181 51.5234 31.155C51.7169 30.8012 51.8617 30.4228 51.9531 30.03C52.3317 28.5085 52.5347 26.9484 52.5596 25.3806C52.6499 23.5799 52.5208 21.7741 52.1748 20.0046C52.086 19.6346 52.0562 19.3387 51.9082 19.2351C51.5263 19.0315 51.0964 18.9344 50.6641 18.9539Z" fill="#251D32"/>
</svg>
