<svg width="32" height="40" viewBox="0 0 32 40" fill="none" xmlns="http://www.w3.org/2000/svg">
<g clip-path="url(#clip0_10179_5112)">
<path fill-rule="evenodd" clip-rule="evenodd" d="M27.7701 14.16C27.3501 13.75 26.4601 13.93 25.9001 13.93L21.1901 14.11C21.7501 13.69 19.4001 7.78999 17.6401 3.88999L17.5201 3.46999C18.4691 3.00547 19.5136 2.76919 20.5701 2.77999C20.5701 3.99999 23.0001 9.40999 23.8501 11.3C23.8501 11.38 24.7701 13.6 24.8501 13.68C24.9167 13.7418 25.0042 13.7762 25.0951 13.7762C25.186 13.7762 25.2735 13.7418 25.3401 13.68C25.5401 13.48 24.6201 10.88 24.6501 10.96C21.6501 3.15999 21.6501 1.86999 20.9301 1.75999C19.9301 1.61999 18.1401 2.45999 17.2801 2.90999C16.4201 3.35999 17.0801 4.14999 17.4201 5.43999C17.5001 5.66999 17.4701 5.52999 17.1401 5.52999C16.6156 5.54771 16.0936 5.61129 15.5801 5.71999C15.3701 4.71999 14.9701 4.57999 14.3701 4.50999C13.62 4.45499 12.8663 4.47509 12.1201 4.56999C11.8606 4.56575 11.6017 4.59601 11.3501 4.65999C11.5001 3.36999 11.3501 2.78999 10.2401 2.37999C9.06361 1.93347 7.77127 1.89474 6.57012 2.26999C5.95012 2.48999 5.66012 2.81999 5.57012 3.79999C5.52012 4.32999 5.62012 13.94 5.97012 14.93C5.42212 15.0371 4.88112 15.1773 4.35012 15.35C3.55012 15.63 4.42012 17.35 4.83012 18.16C5.40012 19.27 4.83012 18.66 7.17012 18.65C6.84143 19.3105 6.68329 20.0427 6.71012 20.78C6.81012 21.78 7.63012 22.56 9.39012 22.14C10.6501 21.76 10.1901 20.25 10.1301 19.36C10.1301 19.24 10.0301 18.78 9.98012 18.58C11.4501 18.51 12.8301 18.43 14.8601 18.23C15.9301 18.12 17.0301 18.23 18.1101 18.17C18.9901 18.17 20.0601 17.93 21.4601 17.77C21.4001 18.6656 21.4001 19.5643 21.4601 20.46C21.4001 21.09 21.6401 21.52 22.4601 21.78C22.8534 21.9471 23.2899 21.9839 23.7056 21.8849C24.1213 21.7859 24.4944 21.5564 24.7701 21.23C25.1501 20.61 24.9101 18.47 24.7701 17.76C25.3857 18.0101 26.0746 18.0101 26.6901 17.76C27.2316 17.349 27.5905 16.7424 27.6901 16.07C27.7101 15.7 28.3201 14.71 27.7701 14.16ZM11.2501 5.37999C11.9668 5.28234 12.6934 5.28234 13.4101 5.37999C13.6732 5.40215 13.9341 5.44562 14.1901 5.50999C14.2801 5.50999 14.5101 5.50999 14.4701 5.58999C14.2101 5.99999 15.0001 14 15.0001 14C15.0551 14.0384 15.1191 14.0619 15.1858 14.0684C15.2526 14.0748 15.3199 14.0639 15.3812 14.0368C15.4425 14.0097 15.4958 13.9672 15.5359 13.9134C15.576 13.8597 15.6016 13.7965 15.6101 13.73C15.7601 12.86 15.7301 7.66999 15.7101 7.24999C15.6301 6.16999 15.5501 6.24999 16.9601 6.32999C17.0587 6.33937 17.1559 6.35949 17.2501 6.38999C17.3363 6.75001 17.3733 7.12004 17.3601 7.48999C17.5601 8.94999 17.3601 9.65999 17.6901 11.89L17.8601 13.31C17.9401 13.64 17.7701 14.13 18.1901 14.09C18.6801 14.23 18.7101 13.89 18.6201 9.15999C18.8101 9.69999 19.0301 10.22 19.2701 10.74C20.8401 14.23 20.6601 14.05 20.7601 14.11C17.4228 14.0252 14.0834 14.1421 10.7601 14.46C10.7501 14.33 11.2001 5.75999 11.2501 5.37999ZM6.66012 4.16999C6.85012 1.99999 10.1501 3.69999 10.2401 3.65999C10.291 4.28056 10.2675 4.90499 10.1701 5.51999C10.1101 6.41999 10.0001 10.79 10.1701 13.17C10.1701 13.65 10.0801 14.07 10.0701 14.51C8.89788 14.5357 7.72864 14.6393 6.57012 14.82C6.43012 14.24 6.62012 6.48999 6.66012 4.16999ZM9.26012 20.56C9.26012 20.66 9.20012 21.01 9.10012 21.03C8.77161 21.1101 8.42864 21.1101 8.10012 21.03C7.10012 20.73 7.86012 18.88 7.62012 18.6C9.48012 18.6 9.23012 18.51 9.26012 18.6C9.08012 18.76 9.43012 19 9.26012 20.56ZM23.8701 20.56C23.7901 20.75 22.7601 20.75 22.4601 20.62C22.4601 20.52 22.3301 19.94 22.0101 17.69C22.6758 17.639 23.3444 17.639 24.0101 17.69C23.8988 18.6491 23.8521 19.6146 23.8701 20.58V20.56ZM26.5101 15.75C26.3201 16.53 26.2401 16.93 25.5101 16.75C23.3801 16.24 20.9301 16.75 18.8101 17.1C17.5301 17.3 16.0801 17.16 14.7401 17.32C13.4001 17.48 11.8201 17.65 10.3601 17.76C10.1001 17.76 5.48012 18.09 5.36012 17.86C5.24012 17.63 5.19012 16.17 4.78012 15.92C7.33012 15.17 10.0201 15.44 12.7801 15.25C15.8701 15.04 18.9401 15.25 21.5101 15.25C24.9401 15.25 25.0001 15.01 26.5101 15.18C26.5201 15.43 26.5201 15.7 26.5101 15.77V15.75Z" fill="#5A3384"/>
<path fill-rule="evenodd" clip-rule="evenodd" d="M8.68922 10.45H8.26922C8.13702 10.4588 8.00621 10.4822 7.87922 10.52C7.56922 10.6 7.30922 10.73 6.98922 10.81C6.9114 10.8126 6.83764 10.8454 6.78353 10.9013C6.72941 10.9573 6.69918 11.0321 6.69922 11.11C6.69886 11.1873 6.72737 11.2619 6.77917 11.3193C6.83096 11.3766 6.90231 11.4125 6.97922 11.42C7.34233 11.5349 7.71881 11.6021 8.09922 11.62C8.31526 11.6237 8.53073 11.5967 8.73922 11.54C9.04922 11.48 9.33922 11.36 9.64922 11.31C9.69258 11.3127 9.73604 11.3068 9.77711 11.2927C9.81819 11.2786 9.85607 11.2565 9.88859 11.2277C9.92111 11.1989 9.94762 11.1639 9.9666 11.1249C9.98559 11.0858 9.99667 11.0434 9.99922 11C10.0048 10.9114 9.97546 10.8242 9.91753 10.7569C9.8596 10.6896 9.77766 10.6477 9.68922 10.64C9.36222 10.547 9.02755 10.4834 8.68922 10.45Z" fill="#5A3384"/>
<path fill-rule="evenodd" clip-rule="evenodd" d="M13.2005 10.45H12.7605C12.6183 10.4579 12.4775 10.4813 12.3405 10.52C12.0005 10.6 11.7205 10.73 11.3405 10.81C11.2691 10.823 11.2045 10.8606 11.1579 10.9164C11.1114 10.9721 11.0859 11.0424 11.0859 11.115C11.0859 11.1876 11.1114 11.2579 11.1579 11.3136C11.2045 11.3694 11.2691 11.407 11.3405 11.42C11.7345 11.5344 12.1407 11.6015 12.5505 11.62C12.783 11.6242 13.0151 11.5973 13.2405 11.54C13.5705 11.48 13.8805 11.36 14.2405 11.31C14.3219 11.2961 14.3958 11.2538 14.4491 11.1907C14.5023 11.1276 14.5315 11.0476 14.5315 10.965C14.5315 10.8824 14.5023 10.8025 14.4491 10.7393C14.3958 10.6762 14.3219 10.6339 14.2405 10.62C13.899 10.535 13.5512 10.4782 13.2005 10.45Z" fill="#5A3384"/>
<path fill-rule="evenodd" clip-rule="evenodd" d="M21.4709 8.62996C21.3646 8.65769 21.2609 8.69449 21.1609 8.73996C21.062 8.78696 20.9682 8.84392 20.8809 8.90996C20.6709 9.06996 20.5209 9.25996 20.3009 9.41996C20.2394 9.45394 20.1929 9.50984 20.1706 9.57653C20.1484 9.64323 20.1521 9.71585 20.1809 9.77996C20.2309 9.93996 20.3809 10.04 20.4909 9.99996C20.8046 10.0097 21.1181 9.97261 21.4209 9.88996C21.5818 9.83223 21.7334 9.75138 21.8709 9.64996C22.0909 9.49996 22.2709 9.31996 22.4909 9.17996C22.5624 9.14524 22.6179 9.08437 22.6458 9.00992C22.6737 8.93548 22.672 8.85315 22.6409 8.77996C22.624 8.7003 22.5773 8.6301 22.5104 8.58365C22.4435 8.5372 22.3615 8.518 22.2809 8.52996C22.0077 8.52803 21.7354 8.56164 21.4709 8.62996Z" fill="#5A3384"/>
</g>
<path opacity="0.5" d="M6.03306 37.216C6.14506 37.216 6.2384 37.2533 6.31306 37.328C6.39306 37.4027 6.43306 37.496 6.43306 37.608C6.43306 37.72 6.39306 37.8133 6.31306 37.888C6.2384 37.9627 6.14506 38 6.03306 38H3.34506C3.22773 38 3.12906 37.9627 3.04906 37.888C2.9744 37.808 2.93706 37.7093 2.93706 37.592V32.808C2.93706 32.6907 2.97706 32.5947 3.05706 32.52C3.13706 32.44 3.24106 32.4 3.36906 32.4C3.47573 32.4 3.56906 32.44 3.64906 32.52C3.7344 32.5947 3.77706 32.6907 3.77706 32.808V37.352L3.60906 37.216H6.03306ZM8.01513 37.592C8.01513 37.7093 7.97779 37.808 7.90313 37.888C7.82846 37.9627 7.73246 38 7.61513 38C7.50313 38 7.40713 37.9627 7.32713 37.888C7.25246 37.808 7.21513 37.7093 7.21513 37.592V34.168C7.21513 34.0507 7.25246 33.9547 7.32713 33.88C7.40713 33.8 7.50313 33.76 7.61513 33.76C7.73246 33.76 7.82846 33.8 7.90313 33.88C7.97779 33.9547 8.01513 34.0507 8.01513 34.168V37.592ZM7.60713 33.232C7.45246 33.232 7.34046 33.2053 7.27113 33.152C7.20179 33.0933 7.16713 32.9973 7.16713 32.864V32.736C7.16713 32.6027 7.20446 32.5093 7.27913 32.456C7.35379 32.4027 7.46579 32.376 7.61513 32.376C7.77513 32.376 7.88979 32.4053 7.95913 32.464C8.02846 32.5173 8.06313 32.608 8.06313 32.736V32.864C8.06313 33.0027 8.02579 33.0987 7.95113 33.152C7.88179 33.2053 7.76713 33.232 7.60713 33.232ZM11.2113 33.696C11.5846 33.696 11.9153 33.7893 12.2033 33.976C12.4966 34.1627 12.7286 34.4213 12.8993 34.752C13.0699 35.0773 13.1553 35.4533 13.1553 35.88C13.1553 36.3067 13.0699 36.6853 12.8993 37.016C12.7286 37.3467 12.4993 37.608 12.2113 37.8C11.9233 37.9867 11.5979 38.08 11.2353 38.08C11.0326 38.08 10.8406 38.048 10.6593 37.984C10.4779 37.9147 10.3179 37.8293 10.1793 37.728C10.0406 37.6213 9.92592 37.5093 9.83525 37.392C9.74992 37.2747 9.69658 37.1653 9.67525 37.064L9.89125 36.96V37.656C9.89125 37.768 9.85125 37.864 9.77125 37.944C9.69658 38.0187 9.60325 38.056 9.49125 38.056C9.37392 38.056 9.27792 38.0187 9.20325 37.944C9.12858 37.8693 9.09125 37.7733 9.09125 37.656V32.488C9.09125 32.3707 9.12858 32.2747 9.20325 32.2C9.27792 32.12 9.37392 32.08 9.49125 32.08C9.60325 32.08 9.69658 32.12 9.77125 32.2C9.85125 32.2747 9.89125 32.3707 9.89125 32.488V34.736L9.76325 34.664C9.77925 34.5627 9.82992 34.4587 9.91525 34.352C10.0006 34.24 10.1073 34.1333 10.2353 34.032C10.3686 33.9307 10.5179 33.8507 10.6833 33.792C10.8539 33.728 11.0299 33.696 11.2113 33.696ZM11.1233 34.432C10.8673 34.432 10.6433 34.496 10.4513 34.624C10.2646 34.752 10.1179 34.9253 10.0113 35.144C9.90458 35.3573 9.85125 35.6027 9.85125 35.88C9.85125 36.1573 9.90458 36.408 10.0113 36.632C10.1179 36.8507 10.2646 37.024 10.4513 37.152C10.6433 37.28 10.8673 37.344 11.1233 37.344C11.3739 37.344 11.5926 37.28 11.7793 37.152C11.9659 37.024 12.1126 36.848 12.2193 36.624C12.3313 36.4 12.3873 36.152 12.3873 35.88C12.3873 35.6027 12.3313 35.3573 12.2193 35.144C12.1126 34.9253 11.9659 34.752 11.7793 34.624C11.5926 34.496 11.3739 34.432 11.1233 34.432ZM14.46 38C14.3427 38 14.2467 37.9627 14.172 37.888C14.0973 37.808 14.06 37.7093 14.06 37.592V34.2C14.06 34.0827 14.0973 33.9867 14.172 33.912C14.2467 33.832 14.3427 33.792 14.46 33.792C14.572 33.792 14.6653 33.832 14.74 33.912C14.82 33.9867 14.86 34.0827 14.86 34.2V35.096L14.78 34.752C14.8227 34.6027 14.8867 34.464 14.972 34.336C15.0627 34.208 15.1693 34.096 15.292 34C15.4147 33.904 15.5507 33.8293 15.7 33.776C15.8547 33.7227 16.0147 33.696 16.18 33.696C16.3187 33.696 16.4387 33.7333 16.54 33.808C16.6413 33.8827 16.692 33.976 16.692 34.088C16.692 34.232 16.6547 34.3387 16.58 34.408C16.5053 34.472 16.4227 34.504 16.332 34.504C16.252 34.504 16.1747 34.488 16.1 34.456C16.0253 34.4187 15.9373 34.4 15.836 34.4C15.724 34.4 15.6093 34.4293 15.492 34.488C15.3747 34.5467 15.268 34.6347 15.172 34.752C15.076 34.864 14.9987 34.9973 14.94 35.152C14.8867 35.3067 14.86 35.48 14.86 35.672V37.592C14.86 37.7093 14.82 37.808 14.74 37.888C14.6653 37.9627 14.572 38 14.46 38ZM20.758 33.728C20.8753 33.728 20.9713 33.768 21.046 33.848C21.1207 33.9227 21.158 34.0187 21.158 34.136V37.592C21.158 37.7093 21.1207 37.808 21.046 37.888C20.9713 37.9627 20.8753 38 20.758 38C20.646 38 20.55 37.9627 20.47 37.888C20.3953 37.808 20.358 37.7093 20.358 37.592V37.016L20.526 37.04C20.526 37.136 20.486 37.2427 20.406 37.36C20.3313 37.4773 20.2273 37.592 20.094 37.704C19.9607 37.8107 19.8033 37.9013 19.622 37.976C19.4407 38.0453 19.246 38.08 19.038 38.08C18.67 38.08 18.3393 37.9867 18.046 37.8C17.7527 37.608 17.5207 37.3467 17.35 37.016C17.1793 36.6853 17.094 36.3093 17.094 35.888C17.094 35.456 17.1793 35.0773 17.35 34.752C17.5207 34.4213 17.75 34.1627 18.038 33.976C18.3313 33.7893 18.6567 33.696 19.014 33.696C19.2433 33.696 19.454 33.7333 19.646 33.808C19.8433 33.8827 20.014 33.9787 20.158 34.096C20.302 34.2133 20.4113 34.3387 20.486 34.472C20.566 34.6 20.606 34.7227 20.606 34.84L20.358 34.864V34.136C20.358 34.024 20.3953 33.928 20.47 33.848C20.55 33.768 20.646 33.728 20.758 33.728ZM19.126 37.344C19.3767 37.344 19.598 37.28 19.79 37.152C19.982 37.024 20.1313 36.8507 20.238 36.632C20.3447 36.408 20.398 36.16 20.398 35.888C20.398 35.6107 20.3447 35.3627 20.238 35.144C20.1313 34.9253 19.982 34.752 19.79 34.624C19.598 34.496 19.3767 34.432 19.126 34.432C18.8807 34.432 18.662 34.496 18.47 34.624C18.2833 34.752 18.134 34.9253 18.022 35.144C17.9153 35.3627 17.862 35.6107 17.862 35.888C17.862 36.16 17.9153 36.408 18.022 36.632C18.134 36.8507 18.2833 37.024 18.47 37.152C18.662 37.28 18.8807 37.344 19.126 37.344ZM22.6788 38C22.5614 38 22.4654 37.9627 22.3908 37.888C22.3161 37.808 22.2788 37.7093 22.2788 37.592V34.2C22.2788 34.0827 22.3161 33.9867 22.3908 33.912C22.4654 33.832 22.5614 33.792 22.6788 33.792C22.7908 33.792 22.8841 33.832 22.9588 33.912C23.0388 33.9867 23.0788 34.0827 23.0788 34.2V35.096L22.9988 34.752C23.0414 34.6027 23.1054 34.464 23.1908 34.336C23.2814 34.208 23.3881 34.096 23.5108 34C23.6334 33.904 23.7694 33.8293 23.9188 33.776C24.0734 33.7227 24.2334 33.696 24.3988 33.696C24.5374 33.696 24.6574 33.7333 24.7588 33.808C24.8601 33.8827 24.9108 33.976 24.9108 34.088C24.9108 34.232 24.8734 34.3387 24.7988 34.408C24.7241 34.472 24.6414 34.504 24.5508 34.504C24.4708 34.504 24.3934 34.488 24.3188 34.456C24.2441 34.4187 24.1561 34.4 24.0548 34.4C23.9428 34.4 23.8281 34.4293 23.7108 34.488C23.5934 34.5467 23.4868 34.6347 23.3908 34.752C23.2948 34.864 23.2174 34.9973 23.1588 35.152C23.1054 35.3067 23.0788 35.48 23.0788 35.672V37.592C23.0788 37.7093 23.0388 37.808 22.9588 37.888C22.8841 37.9627 22.7908 38 22.6788 38ZM28.7505 33.76C28.8678 33.76 28.9638 33.8 29.0385 33.88C29.1132 33.9547 29.1505 34.0507 29.1505 34.168V37.608C29.1505 38.0773 29.0598 38.4587 28.8785 38.752C28.7025 39.0453 28.4625 39.2587 28.1585 39.392C27.8598 39.5307 27.5212 39.6 27.1425 39.6C26.9505 39.6 26.7585 39.5813 26.5665 39.544C26.3745 39.512 26.2172 39.464 26.0945 39.4C25.9665 39.3413 25.8758 39.2693 25.8225 39.184C25.7692 39.0987 25.7612 39.0053 25.7985 38.904C25.8358 38.776 25.8998 38.688 25.9905 38.64C26.0812 38.5973 26.1745 38.5947 26.2705 38.632C26.3612 38.6693 26.4812 38.7173 26.6305 38.776C26.7798 38.8347 26.9505 38.864 27.1425 38.864C27.4038 38.864 27.6252 38.8213 27.8065 38.736C27.9878 38.6507 28.1238 38.5173 28.2145 38.336C28.3105 38.1547 28.3585 37.92 28.3585 37.632V37.08L28.4865 37.272C28.4012 37.448 28.2892 37.5947 28.1505 37.712C28.0118 37.8293 27.8465 37.92 27.6545 37.984C27.4678 38.048 27.2598 38.08 27.0305 38.08C26.7372 38.08 26.4838 38.016 26.2705 37.888C26.0625 37.7547 25.9025 37.5733 25.7905 37.344C25.6785 37.1093 25.6225 36.8427 25.6225 36.544V34.168C25.6225 34.0507 25.6598 33.9547 25.7345 33.88C25.8092 33.8 25.9052 33.76 26.0225 33.76C26.1345 33.76 26.2278 33.8 26.3025 33.88C26.3825 33.9547 26.4225 34.0507 26.4225 34.168V36.328C26.4225 36.68 26.4998 36.9387 26.6545 37.104C26.8092 37.264 27.0385 37.344 27.3425 37.344C27.5452 37.344 27.7212 37.3013 27.8705 37.216C28.0198 37.1307 28.1372 37.0133 28.2225 36.864C28.3078 36.7093 28.3505 36.5307 28.3505 36.328V34.168C28.3505 34.0507 28.3878 33.9547 28.4625 33.88C28.5425 33.8 28.6385 33.76 28.7505 33.76Z" fill="#5A3384"/>
<defs>
<clipPath id="clip0_10179_5112">
<rect width="24" height="24" fill="white" transform="translate(4)"/>
</clipPath>
</defs>
</svg>
