<svg width="375" height="164" viewBox="0 0 375 164" fill="none" xmlns="http://www.w3.org/2000/svg">
<g filter="url(#filter0_d_8421_9740)">
<path d="M394.786 36.3C390.067 36.3002 386.209 39.1618 385.936 42.7687C385.199 42.5238 384.389 42.3918 383.543 42.3918C380.155 42.3918 377.414 44.5226 377.414 47.1486C377.414 47.3371 377.426 47.522 377.456 47.7033C375.318 46.6034 372.749 45.966 369.994 45.966C363.43 45.966 357.962 49.584 356.714 54.3869C355.121 52.874 352.692 51.9055 349.975 51.9055C346.672 51.9055 343.8 53.3341 342.33 55.4377C341.523 55.2888 340.672 55.2377 339.8 55.3049C338.844 55.3781 337.95 55.5918 337.14 55.9064C335.231 52.4953 330.651 50.2713 325.626 50.6603C319.398 51.1407 314.852 55.4472 315.473 60.2766C315.496 60.4542 315.539 60.6262 315.576 60.799C314.336 60.4964 313.001 60.377 311.627 60.4826C306.744 60.8596 303.051 63.9311 302.741 67.6076C300.755 66.2904 298.178 65.4943 295.359 65.4943C293.046 65.4944 290.891 66.0302 289.095 66.9523C289.122 66.7998 289.131 66.6448 289.131 66.4875C289.131 64.2831 286.829 62.4944 283.989 62.4943C283.277 62.4943 282.597 62.6054 281.979 62.8107C281.75 59.7827 278.512 57.3812 274.55 57.381C271.902 57.381 269.574 58.4571 268.255 60.0793C266.872 59.5798 265.328 59.3039 263.701 59.3039C262.198 59.3039 260.765 59.5403 259.464 59.9689V59.6096H259.193C258.34 57.2491 255.546 55.5179 252.23 55.5178C251.815 55.5178 251.41 55.5462 251.013 55.5978C250.525 49.9247 238.816 51.4559 234.777 52.9816C233.743 51.1914 231.428 49.9456 228.735 49.9455C227.399 49.9455 226.157 50.2535 225.119 50.7805C222.311 47.5193 217.524 45.3743 212.089 45.3742C205.248 45.3742 199.432 48.7766 197.3 53.5207C196.13 53.2818 194.901 53.1535 193.635 53.1535C185.695 53.1535 179.257 58.1472 179.256 64.3068V65.3498C177.328 62.7051 174.208 60.9855 170.685 60.9855C169.751 60.9855 168.845 61.107 167.982 61.3342C165.676 54.7181 151.482 52.7241 147.47 58.7297C146.704 58.2286 145.788 57.9348 144.803 57.9348C142.817 57.9348 141.111 59.1204 140.348 60.8224C136.506 53.5897 124.546 52.7695 122.343 60.6291H122.144V60.9699C121.184 60.5624 120.128 60.3381 119.019 60.3381C117.82 60.3381 116.681 60.6005 115.661 61.0754C114.688 59.5333 112.973 58.5101 111.02 58.5099C108.099 58.5099 105.711 60.7931 105.542 63.6721C105.086 63.4769 104.585 63.3704 104.06 63.3703C101.966 63.3703 100.267 65.0715 100.267 67.1672C100.267 67.3167 100.274 67.4646 100.294 67.6096C98.9695 66.7329 97.3808 66.2239 95.6754 66.2238C93.5967 66.2238 91.6966 66.9803 90.2321 68.2326C90.0038 64.7373 87.2806 61.8167 83.6803 61.4582C82.6667 61.3577 81.6825 61.4714 80.7682 61.759C80.7956 61.5946 80.8263 61.4308 80.8434 61.2619C81.3009 56.6708 77.9493 52.5779 73.3571 52.1213C69.6517 51.7514 66.2743 53.8655 64.8668 57.1086C64.2698 56.8095 63.6104 56.6059 62.9049 56.5363C62.2624 56.4724 61.6343 56.5208 61.0397 56.6623C59.9552 54.6623 57.838 53.3049 55.402 53.3049C53.3986 53.3049 51.6079 54.225 50.4332 55.6633C49.5132 51.0972 41.1718 50.9455 36.3317 50.9455C34.2999 50.9455 32.4061 51.5514 30.8297 52.5969C30.8514 52.4246 30.86 52.2486 30.86 52.0695C30.8598 49.5731 28.838 47.5471 26.3405 47.5471C25.7162 47.5471 25.1191 47.6726 24.5758 47.9055C24.3749 44.4765 21.5296 41.7563 18.0504 41.756C15.7229 41.756 13.6778 42.9739 12.5192 44.8117C11.3035 44.2467 9.94732 43.9328 8.51819 43.9328C3.25118 43.9328 -1.01695 48.2011 -1.01697 53.467C-1.01697 54.7421 -0.766383 55.9582 -0.310912 57.0666C-3.83756 57.6829 -2.20447 57.473 -2.20447 61.176C-2.20447 61.2352 -2.20382 61.2935 -2.20154 61.3527H-2.20447V80.2766H428.097V60.3713H428.094C428.097 60.3088 428.097 60.2472 428.097 60.1848C428.097 56.2897 424.469 53.0529 419.685 52.4045C420.303 51.2386 420.644 49.9596 420.644 48.6183C420.644 43.0794 414.855 38.59 407.713 38.59C405.774 38.59 403.935 38.9205 402.287 39.5148C400.715 37.5816 397.942 36.3 394.786 36.3Z" fill="#E5F9FF"/>
</g>
<rect width="375" height="96" transform="translate(0 67.7346)" fill="#E5F9FF"/>
<defs>
<filter id="filter0_d_8421_9740" x="-34.882" y="-1.14441e-05" width="495.28" height="108.577" filterUnits="userSpaceOnUse" color-interpolation-filters="sRGB">
<feFlood flood-opacity="0" result="BackgroundImageFix"/>
<feColorMatrix in="SourceAlpha" type="matrix" values="0 0 0 0 0 0 0 0 0 0 0 0 0 0 0 0 0 0 127 0" result="hardAlpha"/>
<feOffset dy="-4"/>
<feGaussianBlur stdDeviation="16.15"/>
<feComposite in2="hardAlpha" operator="out"/>
<feColorMatrix type="matrix" values="0 0 0 0 0 0 0 0 0 0.0956049 0 0 0 0 0.124286 0 0 0 0.16 0"/>
<feBlend mode="normal" in2="BackgroundImageFix" result="effect1_dropShadow_8421_9740"/>
<feBlend mode="normal" in="SourceGraphic" in2="effect1_dropShadow_8421_9740" result="shape"/>
</filter>
</defs>
</svg>
