<svg width="72" height="72" viewBox="0 0 72 72" fill="none" xmlns="http://www.w3.org/2000/svg">
<path fill-rule="evenodd" clip-rule="evenodd" d="M36 72C55.8823 72 72 55.8823 72 36C72 16.1177 55.8823 0 36 0C16.1177 0 0 16.1177 0 36C0 55.8823 16.1177 72 36 72Z" fill="#FFCE3C"/>
<g clip-path="url(#clip0_8414_9239)">
<path fill-rule="evenodd" clip-rule="evenodd" d="M21.0734 35.8469C21.9203 34.8167 22.4609 33.5693 22.6334 32.2469C22.7691 30.9307 22.5189 29.6034 21.9134 28.4269C21.6016 27.8216 21.1891 27.2738 20.6934 26.8069C20.1825 26.3543 19.6338 25.9462 19.0534 25.5869C18.2134 25.7469 17.8534 26.0869 18.2334 26.7069C18.5889 26.9888 18.917 27.3035 19.2134 27.6469C19.5968 28.0937 19.8767 28.6195 20.0334 29.1869C20.2579 29.8972 20.3395 30.6449 20.2734 31.3869C20.1954 32.4887 19.8148 33.5476 19.1734 34.4469C18.0368 36.123 16.3317 37.3308 14.3734 37.8469C13.9534 38.4669 13.8134 38.9869 14.5134 39.1869H14.6934C17.1705 38.9355 19.4555 37.7393 21.0734 35.8469Z" fill="#251D32"/>
<path fill-rule="evenodd" clip-rule="evenodd" d="M47.0563 29.6469C47.5726 30.8495 48.3761 31.9071 49.3963 32.7269C50.5903 33.6107 51.951 34.2434 53.3963 34.5869C54.7062 34.8993 56.0498 35.0471 57.3963 35.0269C57.8763 34.5069 57.6763 34.0069 57.0563 33.5269C55.9927 33.4038 54.9462 33.1623 53.9363 32.8069C52.816 32.4033 51.7887 31.7774 50.9163 30.9669C50.221 30.3224 49.669 29.5387 49.2963 28.6669C48.8883 27.7644 48.6122 26.808 48.4763 25.8269C48.2624 24.2265 48.4763 22.5979 49.0963 21.1069C49.3363 20.1069 48.9363 19.8269 47.9963 20.1469C46.837 21.8699 46.2428 23.911 46.2963 25.9869C46.3114 27.2445 46.5695 28.4873 47.0563 29.6469Z" fill="#251D32"/>
<path fill-rule="evenodd" clip-rule="evenodd" d="M60.0346 37.107C59.915 34.6817 59.5123 32.2787 58.8346 29.947C57.4341 25.1464 54.417 20.9777 50.2946 18.147C46.2636 15.3348 41.5547 13.6501 36.6546 13.267C31.1184 13.0392 25.7083 14.9596 21.5546 18.627C17.4148 22.103 14.3546 26.6898 12.7346 31.847C11.7034 35.4034 11.8083 39.193 13.0346 42.687C13.5788 44.4054 14.5627 45.9517 15.8888 47.1726C17.215 48.3934 18.8372 49.2464 20.5946 49.647C20.6361 51.2307 21.0763 52.7785 21.8746 54.147C23.347 56.3415 25.5995 57.8933 28.1746 58.487C31.7797 59.1788 35.4703 59.307 39.1146 58.867C40.9714 58.756 42.7998 58.358 44.5346 57.687C45.7434 57.1854 46.8335 56.4359 47.7346 55.487C48.9844 54.0605 49.8515 52.3401 50.2546 50.487C50.3902 49.9127 50.497 49.3319 50.5746 48.747C52.4437 48.7411 54.2684 48.177 55.8146 47.127C57.5834 45.9457 58.8848 44.1846 59.4946 42.147C59.9364 40.5054 60.1186 38.8048 60.0346 37.107ZM48.5346 49.987C48.1449 51.491 47.3733 52.8688 46.2946 53.987C45.5519 54.6748 44.6824 55.2114 43.7346 55.567C42.1997 56.0864 40.5947 56.3696 38.9746 56.407C35.5669 56.8201 32.117 56.7325 28.7346 56.147C26.6419 55.7634 24.763 54.6247 23.4546 52.947C22.7289 51.8251 22.2957 50.5393 22.1946 49.207C22.0085 47.0353 22.0488 44.8503 22.3146 42.687C24.9483 40.6855 28.0072 39.3168 31.2546 38.687C34.1422 38.0682 37.1198 37.9936 40.0346 38.467C43.4366 38.9616 46.6164 40.4507 49.1746 42.747C49.1746 42.747 49.1746 42.747 49.2946 42.747C49.4428 45.187 49.1791 47.6345 48.5146 49.987H48.5346ZM57.8746 41.607C57.4243 43.3169 56.3826 44.812 54.9346 45.827C53.6986 46.6936 52.2425 47.1929 50.7346 47.267C50.8335 45.6603 50.8 44.0482 50.6346 42.447C48.0501 39.2381 44.4173 37.0429 40.3746 36.247C38.7857 35.9007 37.16 35.7529 35.5346 35.807C33.9125 35.8491 32.3012 36.0841 30.7346 36.507C27.0835 37.5119 23.7597 39.4566 21.0946 42.147C20.7746 44.2125 20.5942 46.2972 20.5546 48.387C19.1208 47.9408 17.8211 47.1437 16.7733 46.068C15.7256 44.9923 14.963 43.672 14.5546 42.227C13.6088 39.0424 13.6088 35.6515 14.5546 32.467C16.2425 27.7676 19.1815 23.6184 23.0546 20.467C26.7741 17.2307 31.5881 15.5354 36.5146 15.727C44.3946 16.267 54.2546 21.507 56.9546 30.547C57.6324 32.7268 58.0749 34.9729 58.2746 37.247C58.3514 38.7131 58.2098 40.1824 57.8546 41.607H57.8746Z" fill="#251D32"/>
<path fill-rule="evenodd" clip-rule="evenodd" d="M31.4134 18.887H31.1734C30.5166 19.0393 29.8839 19.2815 29.2934 19.607C28.4087 20.1528 27.7111 20.9551 27.2934 21.907C26.9061 22.6477 26.7328 23.4816 26.7929 24.3153C26.8529 25.149 27.144 25.9494 27.6334 26.627C28.1397 27.2931 28.8139 27.8127 29.5871 28.1325C30.3602 28.4523 31.2045 28.5608 32.0334 28.447C33.0215 28.3145 33.9585 27.9286 34.7534 27.327C35.5893 26.7089 36.2059 25.84 36.5134 24.847C36.7308 24.0812 36.7607 23.2744 36.6006 22.4946C36.4405 21.7149 36.095 20.9851 35.5934 20.367C35.1041 19.7549 34.4533 19.2919 33.7147 19.0304C32.976 18.7689 32.1789 18.7192 31.4134 18.887ZM34.4934 24.147C34.2523 24.6566 33.8707 25.0869 33.3934 25.387C32.918 25.772 32.3545 26.0331 31.7534 26.147C31.3286 26.2098 30.8948 26.1638 30.4926 26.0134C30.0904 25.863 29.7328 25.6131 29.4534 25.287C29.164 24.9434 28.9693 24.5301 28.8886 24.0881C28.8079 23.6461 28.844 23.1907 28.9934 22.767C29.194 22.0991 29.5999 21.5112 30.1534 21.087C30.5576 20.7916 31.0021 20.5558 31.4734 20.387H31.6734C32.1585 20.3157 32.6539 20.3853 33.1006 20.5874C33.5474 20.7895 33.9267 21.1156 34.1934 21.527C34.4397 21.912 34.5947 22.3482 34.6467 22.8023C34.6987 23.2563 34.6463 23.7163 34.4934 24.147Z" fill="#251D32"/>
<path fill-rule="evenodd" clip-rule="evenodd" d="M29.0542 47.5669C29.0542 46.9869 29.2742 46.4669 29.3542 45.8669C29.3739 45.6273 29.3739 45.3865 29.3542 45.1469C29.3741 44.9006 29.3741 44.6532 29.3542 44.4069C29.3542 43.7869 29.0742 43.2469 28.9342 42.6469C28.9396 42.5654 28.9289 42.4837 28.9027 42.4064C28.8764 42.3291 28.8352 42.2577 28.7813 42.1964C28.7274 42.1351 28.6619 42.085 28.5886 42.0491C28.5153 42.0131 28.4357 41.992 28.3542 41.9869C28.1876 41.9758 28.0232 42.0302 27.8962 42.1385C27.7691 42.2469 27.6895 42.4006 27.6742 42.5669C27.4259 43.1381 27.2187 43.7262 27.0542 44.3269C27.0236 44.5927 27.0236 44.8611 27.0542 45.1269C27.0343 45.3865 27.0343 45.6473 27.0542 45.9069C27.1825 46.5342 27.3631 47.1497 27.5942 47.7469C27.6238 47.9325 27.723 48.0999 27.8716 48.2151C28.0202 48.3302 28.207 48.3845 28.3942 48.3669C28.4907 48.3595 28.5848 48.3326 28.6707 48.288C28.7566 48.2434 28.8327 48.1819 28.8943 48.1072C28.9559 48.0325 29.0018 47.9462 29.0293 47.8534C29.0568 47.7605 29.0652 47.6631 29.0542 47.5669Z" fill="#251D32"/>
<path fill-rule="evenodd" clip-rule="evenodd" d="M41.8955 42.4469C41.9124 42.2802 41.8632 42.1134 41.7585 41.9825C41.6538 41.8516 41.5019 41.767 41.3355 41.7469C41.254 41.7387 41.1717 41.7466 41.0933 41.7704C41.0149 41.7941 40.9419 41.8331 40.8787 41.8852C40.8155 41.9372 40.7632 42.0013 40.7249 42.0737C40.6866 42.1461 40.663 42.2254 40.6555 42.3069C40.3829 42.8403 40.1554 43.3956 39.9755 43.9669C39.9145 44.203 39.8743 44.4439 39.8555 44.6869V45.4269C39.9432 46.0183 40.0837 46.6007 40.2755 47.1669C40.2725 47.2614 40.2893 47.3554 40.3247 47.443C40.3601 47.5306 40.4134 47.6098 40.4811 47.6757C40.5489 47.7416 40.6296 47.7926 40.7181 47.8255C40.8067 47.8584 40.9012 47.8725 40.9955 47.8669C41.1847 47.8567 41.3628 47.7742 41.4931 47.6366C41.6233 47.4989 41.6957 47.3165 41.6955 47.1269C41.8155 46.5669 41.9955 46.0869 42.1155 45.5269C42.1748 45.2973 42.2149 45.0632 42.2355 44.8269C42.2655 44.6013 42.2655 44.3726 42.2355 44.1469C42.1509 43.5749 42.0374 43.0075 41.8955 42.4469Z" fill="#251D32"/>
<path fill-rule="evenodd" clip-rule="evenodd" d="M39.6941 50.887C38.6674 51.5349 37.5027 51.9323 36.2941 52.047C35.7878 52.0769 35.2803 52.0769 34.7741 52.047H33.2541C32.0337 51.9791 30.8443 51.6374 29.7741 51.047C29.7097 50.9958 29.6359 50.9577 29.5569 50.935C29.4778 50.9123 29.3951 50.9054 29.3134 50.9147C29.2316 50.924 29.1526 50.9493 29.0806 50.9892C29.0087 51.029 28.9453 51.0826 28.8941 51.147C28.8429 51.2113 28.8048 51.2851 28.7821 51.3642C28.7594 51.4432 28.7525 51.526 28.7618 51.6077C28.7711 51.6894 28.7964 51.7685 28.8362 51.8404C28.8761 51.9124 28.9297 51.9758 28.9941 52.027C30.0492 53.1242 31.3838 53.9126 32.8541 54.307C33.5088 54.4642 34.1808 54.5381 34.8541 54.527C35.53 54.5203 36.2023 54.4261 36.8541 54.247C38.3235 53.837 39.6608 53.0512 40.7341 51.967C40.8006 51.9018 40.8534 51.824 40.8895 51.7382C40.9256 51.6523 40.9442 51.5601 40.9442 51.467C40.9442 51.3739 40.9256 51.2817 40.8895 51.1958C40.8534 51.1099 40.8006 51.0322 40.7341 50.967C40.6724 50.8914 40.5961 50.8291 40.5096 50.7839C40.4232 50.7387 40.3285 50.7115 40.2312 50.704C40.134 50.6965 40.0362 50.7089 39.9439 50.7404C39.8515 50.7718 39.7665 50.8217 39.6941 50.887Z" fill="#251D32"/>
</g>
<defs>
<clipPath id="clip0_8414_9239">
<rect width="48" height="48" fill="white" transform="translate(12.0352 12.147)"/>
</clipPath>
</defs>
</svg>
