<svg width="32" height="40" viewBox="0 0 32 40" fill="none" xmlns="http://www.w3.org/2000/svg">
<g clip-path="url(#clip0_10179_5136)">
<path d="M14.17 6.94003C13.0893 7.25043 12.1429 7.9119 11.48 8.82003C11.1067 9.39685 10.8579 10.0452 10.7495 10.7236C10.641 11.402 10.6752 12.0956 10.85 12.76C11.0153 13.4509 11.348 14.0905 11.8189 14.6223C12.2898 15.1542 12.8843 15.5621 13.55 15.81C14.4556 16.1221 15.4246 16.2045 16.37 16.05C17.2919 15.888 18.1683 15.5299 18.94 15C19.2492 14.7921 19.5372 14.5543 19.8 14.29C19.993 14.0913 20.161 13.8697 20.3 13.63C20.4601 13.3162 20.5682 12.9785 20.62 12.63C20.695 12.1429 20.695 11.6472 20.62 11.16C20.4712 10.2357 20.1082 9.35897 19.56 8.60003C18.9537 7.7875 18.1047 7.18879 17.1359 6.89039C16.167 6.592 15.1283 6.60938 14.17 6.94003ZM18.88 9.00003C19.3275 9.66634 19.6055 10.4318 19.69 11.23C19.7358 11.5618 19.7358 11.8983 19.69 12.23C19.6613 12.5356 19.5694 12.8319 19.42 13.1C19.2972 13.2953 19.1415 13.4678 18.96 13.61C18.764 13.7817 18.5532 13.9357 18.33 14.07C17.6828 14.501 16.9488 14.7844 16.18 14.9C15.4251 15.024 14.6511 14.9552 13.93 14.7C13.4407 14.5126 13.0037 14.2104 12.6556 13.8189C12.3076 13.4273 12.0587 12.9578 11.93 12.45C11.7677 11.928 11.7142 11.3783 11.7726 10.8348C11.8311 10.2913 12.0004 9.76556 12.27 9.29003C12.7777 8.52379 13.5277 7.94989 14.4 7.66003C15.184 7.31345 16.0659 7.25799 16.8871 7.50363C17.7084 7.74927 18.415 8.27988 18.88 9.00003Z" fill="#5A3384"/>
<path d="M27.9982 10.47C28.0038 10.2077 27.9769 9.9457 27.9182 9.69C27.884 9.53178 27.8119 9.38423 27.7082 9.26C27.5515 9.08002 27.3469 8.94824 27.1182 8.88C26.8701 8.8101 26.6154 8.76653 26.3582 8.75C25.932 8.773 25.5059 8.70482 25.1082 8.55C25.009 8.49223 24.9241 8.41272 24.8601 8.31747C24.796 8.22221 24.7543 8.11367 24.7382 8L24.5182 7L24.3582 6.38C24.4482 6.06 24.8682 5.85 25.0582 5.56C25.1419 5.43892 25.1979 5.30085 25.2221 5.15565C25.2463 5.01044 25.2381 4.86169 25.1982 4.72C25.0999 4.44659 24.9389 4.2 24.7282 4C24.3282 3.58 23.7282 3.27 23.3582 2.93C23.1382 2.74 22.8882 2.44 22.6182 2.22C22.4773 2.09986 22.3188 2.00206 22.1482 1.93C21.9994 1.86771 21.8385 1.83985 21.6775 1.84851C21.5164 1.85717 21.3594 1.90212 21.2182 1.98C20.7982 2.21 20.4782 2.77 20.1482 2.98C20.042 3.02082 19.9244 3.02082 19.8182 2.98C19.6386 2.95392 19.4614 2.91379 19.2882 2.86C18.9866 2.78864 18.697 2.67412 18.4282 2.52C18.291 2.44118 18.1851 2.31761 18.1282 2.17L17.8182 1.03C17.8082 0.887332 17.7813 0.746349 17.7382 0.610001C17.7069 0.514767 17.6476 0.431149 17.5682 0.370001C17.4432 0.288539 17.3042 0.230903 17.1582 0.200001C16.9669 0.143867 16.7669 0.123527 16.5682 0.140001C16.5235 0.143941 16.4801 0.156636 16.4404 0.177363C16.4006 0.198089 16.3653 0.22644 16.3366 0.260798C16.2784 0.330186 16.2502 0.419827 16.2582 0.510001C16.2661 0.600175 16.3096 0.683494 16.379 0.741631C16.4484 0.799767 16.538 0.827958 16.6282 0.820001C16.7277 0.806668 16.8286 0.806668 16.9282 0.820001H17.0982V1.07L17.4282 2.34C17.5368 2.62629 17.7327 2.87117 17.9882 3.04C18.3147 3.23737 18.6685 3.38562 19.0382 3.48C19.3006 3.57002 19.5723 3.6304 19.8482 3.66C20.0902 3.67624 20.3314 3.61684 20.5382 3.49C20.8182 3.31 21.0982 2.87 21.4382 2.61C21.4874 2.56202 21.5488 2.5283 21.6157 2.51245C21.6827 2.4966 21.7526 2.49921 21.8182 2.52C21.9511 2.58725 22.0726 2.67499 22.1782 2.78C22.3982 2.99 22.6082 3.24 22.8082 3.41C23.0082 3.58 23.5882 3.96 23.9482 4.29C24.1419 4.44018 24.285 4.64608 24.3582 4.88C24.3582 5.02 24.2682 5.1 24.1682 5.2C24.0682 5.3 23.8782 5.47 23.7482 5.62C23.6383 5.75364 23.5536 5.90611 23.4982 6.07C23.468 6.21511 23.468 6.36489 23.4982 6.51C23.5405 6.73017 23.5973 6.94731 23.6682 7.16L23.8782 8.16C23.9225 8.37798 24.0099 8.58492 24.1352 8.76866C24.2606 8.9524 24.4214 9.10925 24.6082 9.23C25.1217 9.45734 25.6766 9.57648 26.2382 9.58C26.4003 9.58507 26.5613 9.60855 26.7182 9.65C26.8057 9.65738 26.8875 9.69651 26.9482 9.76L27.0082 10.36C27.0453 10.9062 27.0419 11.4543 26.9982 12C26.9918 12.2246 26.9148 12.4416 26.7782 12.62L26.3782 12.7C26.1343 12.769 25.8994 12.8663 25.6782 12.99C25.5096 13.0848 25.3576 13.2064 25.2282 13.35C24.9979 13.6085 24.7998 13.8939 24.6382 14.2C24.3983 14.6198 24.1846 15.0539 23.9982 15.5C23.8318 15.8887 23.7468 16.3072 23.7482 16.73C23.7686 17.1754 23.8918 17.6101 24.1082 18C24.2182 18.22 24.4182 18.5 24.5282 18.78C24.5282 18.87 24.6182 18.95 24.5282 19.02L22.9982 20.16L22.5682 20.44L21.7282 19.87C21.3571 19.6788 20.9456 19.5793 20.5282 19.58C19.9604 19.6134 19.4056 19.7632 18.8982 20.02C18.5803 20.1542 18.2812 20.329 18.0082 20.54C17.8284 20.6865 17.6932 20.8805 17.6182 21.1L17.3582 22.55L17.2982 22.67C17.102 22.6899 16.9043 22.6899 16.7082 22.67C16.2782 22.61 15.8482 22.51 15.4482 22.46L14.9982 22.37C14.9259 22.3679 14.856 22.3434 14.7982 22.3C14.4782 22.02 14.4482 21.58 14.2182 21.3C14.0412 21.0592 13.798 20.875 13.5182 20.77L11.9982 20.28C11.7482 20.19 11.4782 20.05 11.2082 19.97C11.0465 19.9184 10.8779 19.8914 10.7082 19.89C10.5215 19.8892 10.337 19.9302 10.1682 20.01C9.96763 20.1014 9.78217 20.2228 9.61818 20.37C9.52924 20.4698 9.42451 20.5542 9.30818 20.62C9.18934 20.5146 9.06588 20.4145 8.93818 20.32C8.56818 20.04 8.14818 19.78 7.78818 19.47C7.588 19.3083 7.41862 19.1118 7.28818 18.89C7.24858 18.8108 7.22796 18.7235 7.22796 18.635C7.22796 18.5465 7.24858 18.4592 7.28818 18.38C7.48818 17.89 7.87818 17.38 8.00818 16.96C8.05887 16.7294 8.05887 16.4906 8.00818 16.26C7.91091 15.8858 7.78039 15.521 7.61818 15.17L7.35818 14.64C7.20026 14.3867 6.96551 14.1905 6.68818 14.08C6.46365 14.0181 6.23092 13.9911 5.99818 14C5.83907 14.0037 5.68137 13.9695 5.53818 13.9C5.53818 13.83 5.46818 13.58 5.42818 13.47C5.31818 13 5.14818 12.6 4.99818 12.18C4.96276 11.9313 4.96276 11.6787 4.99818 11.43C4.99611 11.3487 5.01207 11.268 5.04492 11.1937C5.07778 11.1193 5.1267 11.0532 5.18818 11C5.62135 10.7974 6.03913 10.5635 6.43818 10.3C6.53352 10.2133 6.61453 10.112 6.67818 10C6.78818 9.83 6.86818 9.63 6.95818 9.47C7.04818 9.31 7.31818 8.87 7.47818 8.57C7.59951 8.34417 7.69672 8.1062 7.76818 7.86C7.87157 7.50782 7.83946 7.12971 7.67818 6.8C7.46002 6.449 7.21601 6.11474 6.94818 5.8C6.88326 5.71739 6.82946 5.62662 6.78818 5.53C6.78818 5.46 6.71818 5.38 6.78818 5.31C6.94215 5.07885 7.11977 4.86436 7.31818 4.67C7.63284 4.36231 7.96685 4.07505 8.31818 3.81C8.45052 3.70078 8.59477 3.60686 8.74818 3.53C8.87129 3.46434 9.00866 3.43 9.14818 3.43L9.49818 3.71C9.67188 3.8665 9.8593 4.00707 10.0582 4.13C10.206 4.21832 10.3638 4.28881 10.5282 4.34C10.7598 4.4092 11.0066 4.4092 11.2382 4.34C11.6125 4.1707 11.9735 3.97348 12.3182 3.75L12.7882 3.48L13.1582 3.22C13.2534 3.14457 13.3325 3.05086 13.3909 2.94438C13.4493 2.8379 13.4857 2.7208 13.4982 2.6C13.5115 2.39741 13.4878 2.19408 13.4282 2C13.3829 1.84661 13.3829 1.6834 13.4282 1.53L13.7382 1.38C13.9846 1.27451 14.2433 1.20059 14.5082 1.16C14.9217 1.08446 15.339 1.03105 15.7582 1C15.8377 1 15.9141 0.968394 15.9703 0.912133C16.0266 0.855872 16.0582 0.779566 16.0582 0.700001C16.0582 0.620436 16.0266 0.54413 15.9703 0.487869C15.9141 0.431608 15.8377 0.400001 15.7582 0.400001C15.3007 0.429366 14.8461 0.492876 14.3982 0.590001C14.0808 0.642722 13.7693 0.726456 13.4682 0.840001C13.3068 0.87822 13.1494 0.931797 12.9982 1C12.9031 1.07163 12.8303 1.16871 12.7882 1.28C12.6382 1.7 12.8782 2.08 12.7882 2.44C12.7834 2.47602 12.7712 2.51066 12.7523 2.54166C12.7333 2.57266 12.7081 2.59935 12.6782 2.62L12.3982 2.81L11.9982 3.08C11.7682 3.19 11.4582 3.42 11.1382 3.55C11.0164 3.6176 10.8766 3.64556 10.7382 3.63C10.6047 3.57717 10.4773 3.51011 10.3582 3.43C10.2282 3.34 10.0982 3.23 9.97818 3.13C9.84911 2.991 9.70488 2.86689 9.54818 2.76C9.44161 2.69672 9.32179 2.65906 9.19818 2.65C8.98257 2.63864 8.76718 2.67624 8.56818 2.76C8.31003 2.86199 8.06762 3.00003 7.84818 3.17C7.46552 3.44991 7.09832 3.75035 6.74818 4.07C6.5051 4.29583 6.28717 4.54729 6.09818 4.82C6.03646 4.92258 5.99582 5.03644 5.97865 5.15492C5.96148 5.2734 5.96812 5.39412 5.99818 5.51C6.04434 5.77865 6.15406 6.03236 6.31818 6.25C6.55725 6.5344 6.77137 6.83885 6.95818 7.16C7.01404 7.31169 7.01404 7.47831 6.95818 7.63C6.89539 7.81882 6.81152 7.99996 6.70818 8.17C6.54818 8.47 6.35818 8.75 6.18818 9.03L5.84818 9.63C5.40818 10.01 4.78818 10.09 4.42818 10.45C4.18112 10.6904 4.03458 11.0157 4.01818 11.36C3.99716 11.696 4.02751 12.0332 4.10818 12.36C4.20818 12.81 4.37818 13.25 4.51818 13.69C4.55177 13.8764 4.59855 14.0602 4.65818 14.24C4.71646 14.3973 4.82106 14.5333 4.95818 14.63C5.20077 14.8251 5.49052 14.9527 5.79818 15C5.96756 15.0054 6.13558 15.0323 6.29818 15.08C6.37063 15.1136 6.43027 15.1697 6.46818 15.24L6.63818 15.6C6.73297 15.8189 6.81642 16.0425 6.88818 16.27C6.95271 16.4071 6.97698 16.5597 6.95818 16.71C6.79818 17.23 6.29818 17.71 6.14818 18.32C6.04305 18.7026 6.08962 19.1109 6.27818 19.46C6.4716 19.803 6.72573 20.1079 7.02818 20.36C7.39818 20.68 7.83818 20.95 8.21818 21.25C8.39574 21.4164 8.59012 21.5638 8.79818 21.69C8.98761 21.7925 9.20506 21.8311 9.41818 21.8C9.58711 21.7621 9.74907 21.698 9.89818 21.61C10.0637 21.5021 10.2208 21.3817 10.3682 21.25C10.4582 21.18 10.5482 21.07 10.6682 21.07C10.7608 21.0756 10.8519 21.0959 10.9382 21.13C11.1582 21.21 11.3782 21.32 11.5882 21.4L13.1082 21.84C13.1794 21.87 13.2415 21.9183 13.2882 21.98C13.5582 22.36 13.6482 22.87 14.0282 23.2C14.1668 23.3184 14.3261 23.4099 14.4982 23.47C14.7735 23.5433 15.0545 23.5935 15.3382 23.62C15.8082 23.68 16.3382 23.81 16.8282 23.85C17.0843 23.8748 17.3421 23.8748 17.5982 23.85C17.7688 23.8265 17.9287 23.7535 18.0582 23.64C18.2299 23.4762 18.366 23.2787 18.4582 23.06C18.5358 22.8742 18.5896 22.6793 18.6182 22.48C18.6448 22.1442 18.6916 21.8102 18.7582 21.48C18.7582 21.39 18.9082 21.36 19.0082 21.3C19.1082 21.24 19.3082 21.16 19.4182 21.11C19.7323 20.9486 20.0697 20.8372 20.4182 20.78C20.7091 20.7401 21.0054 20.7889 21.2682 20.92C21.4982 21.04 21.8182 21.35 22.1082 21.48C22.2496 21.5564 22.4074 21.5976 22.5682 21.6C22.7363 21.609 22.9042 21.5781 23.0582 21.51C23.2835 21.4065 23.4951 21.2755 23.6882 21.12L25.2882 19.85C25.422 19.7368 25.5271 19.5935 25.5949 19.4318C25.6627 19.2702 25.6912 19.0948 25.6782 18.92C25.5652 18.4254 25.3655 17.9548 25.0882 17.53C24.9476 17.2933 24.8686 17.0251 24.8582 16.75C24.8564 16.4645 24.9143 16.1818 25.0282 15.92C25.1778 15.5069 25.3515 15.1029 25.5482 14.71C25.6689 14.456 25.82 14.2176 25.9982 14C26.0748 13.917 26.1664 13.8491 26.2682 13.8C26.3934 13.7357 26.5239 13.6821 26.6582 13.64C26.7882 13.64 26.9582 13.59 27.0982 13.54C27.2187 13.4971 27.3306 13.4327 27.4282 13.35C27.701 13.08 27.8798 12.7294 27.9382 12.35C28.0187 11.7267 28.0388 11.0971 27.9982 10.47Z" fill="#5A3384"/>
</g>
<path opacity="0.5" d="M2.93831 38.08C2.55431 38.08 2.21298 38.0267 1.91431 37.92C1.61565 37.8133 1.33031 37.6373 1.05831 37.392C0.999646 37.3493 0.954313 37.2987 0.922313 37.24C0.895646 37.176 0.882313 37.112 0.882313 37.048C0.882313 36.9467 0.919646 36.856 0.994313 36.776C1.06898 36.696 1.16231 36.656 1.27431 36.656C1.35965 36.656 1.43965 36.6853 1.51431 36.744C1.71698 36.9307 1.92765 37.072 2.14631 37.168C2.37031 37.264 2.63165 37.312 2.93031 37.312C3.14365 37.312 3.33831 37.2773 3.51431 37.208C3.69565 37.1387 3.83965 37.0453 3.94631 36.928C4.05298 36.8107 4.10631 36.6747 4.10631 36.52C4.10631 36.328 4.05031 36.1707 3.93831 36.048C3.83165 35.92 3.67431 35.816 3.46631 35.736C3.26365 35.6507 3.01831 35.5787 2.73031 35.52C2.46365 35.472 2.22365 35.4053 2.01031 35.32C1.80231 35.2347 1.62365 35.128 1.47431 35C1.32498 34.8667 1.21031 34.7093 1.13031 34.528C1.05031 34.3467 1.01031 34.136 1.01031 33.896C1.01031 33.5707 1.09565 33.2907 1.26631 33.056C1.43698 32.8213 1.66898 32.64 1.96231 32.512C2.25565 32.384 2.58631 32.32 2.95431 32.32C3.29031 32.32 3.60498 32.3733 3.89831 32.48C4.19165 32.5813 4.42898 32.72 4.61031 32.896C4.73831 33.008 4.80231 33.128 4.80231 33.256C4.80231 33.352 4.76231 33.4427 4.68231 33.528C4.60765 33.608 4.51965 33.648 4.41831 33.648C4.34365 33.648 4.27965 33.6267 4.22631 33.584C4.14098 33.4933 4.02631 33.4133 3.88231 33.344C3.73831 33.2693 3.58365 33.208 3.41831 33.16C3.25831 33.112 3.10365 33.088 2.95431 33.088C2.71431 33.088 2.50898 33.1227 2.33831 33.192C2.16765 33.256 2.03698 33.3467 1.94631 33.464C1.85565 33.576 1.81031 33.7093 1.81031 33.864C1.81031 34.0453 1.86098 34.1947 1.96231 34.312C2.06898 34.4293 2.21565 34.5253 2.40231 34.6C2.58898 34.6693 2.80231 34.7333 3.04231 34.792C3.33565 34.856 3.59698 34.928 3.82631 35.008C4.06098 35.088 4.25831 35.192 4.41831 35.32C4.57831 35.4427 4.70098 35.5973 4.78631 35.784C4.87165 35.9707 4.91431 36.2027 4.91431 36.48C4.91431 36.8 4.82365 37.08 4.64231 37.32C4.46098 37.56 4.22098 37.7467 3.92231 37.88C3.62898 38.0133 3.30098 38.08 2.93831 38.08ZM7.77 38.08C7.32733 38.08 6.94333 37.9893 6.618 37.808C6.29267 37.6213 6.03933 37.368 5.858 37.048C5.682 36.7227 5.594 36.352 5.594 35.936C5.594 35.4667 5.68733 35.0667 5.874 34.736C6.066 34.4 6.314 34.144 6.618 33.968C6.922 33.7867 7.24467 33.696 7.586 33.696C7.84733 33.696 8.09533 33.7493 8.33 33.856C8.56467 33.9573 8.77267 34.1013 8.954 34.288C9.14067 34.4693 9.28733 34.6853 9.394 34.936C9.50067 35.1813 9.55667 35.4507 9.562 35.744C9.55667 35.8507 9.514 35.9387 9.434 36.008C9.354 36.0773 9.26067 36.112 9.154 36.112H6.042L5.85 35.432H8.858L8.706 35.576V35.376C8.69533 35.1893 8.634 35.0267 8.522 34.888C8.41 34.744 8.27133 34.6347 8.106 34.56C7.94067 34.48 7.76733 34.44 7.586 34.44C7.426 34.44 7.27133 34.4667 7.122 34.52C6.978 34.568 6.84733 34.648 6.73 34.76C6.618 34.872 6.52733 35.0213 6.458 35.208C6.394 35.3893 6.362 35.616 6.362 35.888C6.362 36.1813 6.42333 36.4373 6.546 36.656C6.66867 36.8747 6.834 37.0453 7.042 37.168C7.25 37.2853 7.47933 37.344 7.73 37.344C7.92733 37.344 8.09 37.3253 8.218 37.288C8.346 37.2453 8.45267 37.1947 8.538 37.136C8.62333 37.0773 8.698 37.0213 8.762 36.968C8.842 36.92 8.922 36.896 9.002 36.896C9.098 36.896 9.178 36.9307 9.242 37C9.306 37.064 9.338 37.1413 9.338 37.232C9.338 37.3493 9.27933 37.456 9.162 37.552C9.018 37.6907 8.818 37.8133 8.562 37.92C8.31133 38.0267 8.04733 38.08 7.77 38.08ZM10.4103 33.84H12.2903C12.3969 33.84 12.4849 33.8773 12.5543 33.952C12.6289 34.0213 12.6663 34.1093 12.6663 34.216C12.6663 34.3173 12.6289 34.4027 12.5543 34.472C12.4849 34.5413 12.3969 34.576 12.2903 34.576H10.4103C10.3036 34.576 10.2129 34.5413 10.1383 34.472C10.0689 34.3973 10.0343 34.3093 10.0343 34.208C10.0343 34.1013 10.0689 34.0133 10.1383 33.944C10.2129 33.8747 10.3036 33.84 10.4103 33.84ZM11.2503 32.8C11.3676 32.8 11.4636 32.84 11.5383 32.92C11.6129 32.9947 11.6503 33.0907 11.6503 33.208V36.92C11.6503 37.016 11.6663 37.0933 11.6983 37.152C11.7303 37.2107 11.7729 37.2507 11.8263 37.272C11.8849 37.2933 11.9436 37.304 12.0023 37.304C12.0609 37.304 12.1116 37.2933 12.1543 37.272C12.2023 37.2507 12.2583 37.24 12.3223 37.24C12.3863 37.24 12.4449 37.2693 12.4983 37.328C12.5516 37.3867 12.5783 37.4667 12.5783 37.568C12.5783 37.696 12.5089 37.8 12.3703 37.88C12.2316 37.96 12.0823 38 11.9223 38C11.8316 38 11.7249 37.992 11.6023 37.976C11.4796 37.96 11.3596 37.92 11.2423 37.856C11.1303 37.792 11.0369 37.6907 10.9622 37.552C10.8876 37.408 10.8503 37.208 10.8503 36.952V33.208C10.8503 33.0907 10.8876 32.9947 10.9622 32.92C11.0422 32.84 11.1383 32.8 11.2503 32.8ZM13.4962 33.84H15.3762C15.4829 33.84 15.5709 33.8773 15.6402 33.952C15.7149 34.0213 15.7522 34.1093 15.7522 34.216C15.7522 34.3173 15.7149 34.4027 15.6402 34.472C15.5709 34.5413 15.4829 34.576 15.3762 34.576H13.4962C13.3895 34.576 13.2989 34.5413 13.2242 34.472C13.1549 34.3973 13.1202 34.3093 13.1202 34.208C13.1202 34.1013 13.1549 34.0133 13.2242 33.944C13.2989 33.8747 13.3895 33.84 13.4962 33.84ZM14.3362 32.8C14.4535 32.8 14.5495 32.84 14.6242 32.92C14.6989 32.9947 14.7362 33.0907 14.7362 33.208V36.92C14.7362 37.016 14.7522 37.0933 14.7842 37.152C14.8162 37.2107 14.8589 37.2507 14.9122 37.272C14.9709 37.2933 15.0295 37.304 15.0882 37.304C15.1469 37.304 15.1975 37.2933 15.2402 37.272C15.2882 37.2507 15.3442 37.24 15.4082 37.24C15.4722 37.24 15.5309 37.2693 15.5842 37.328C15.6375 37.3867 15.6642 37.4667 15.6642 37.568C15.6642 37.696 15.5949 37.8 15.4562 37.88C15.3175 37.96 15.1682 38 15.0082 38C14.9175 38 14.8109 37.992 14.6882 37.976C14.5655 37.96 14.4455 37.92 14.3282 37.856C14.2162 37.792 14.1229 37.6907 14.0482 37.552C13.9735 37.408 13.9362 37.208 13.9362 36.952V33.208C13.9362 33.0907 13.9735 32.9947 14.0482 32.92C14.1282 32.84 14.2242 32.8 14.3362 32.8ZM17.3901 37.592C17.3901 37.7093 17.3528 37.808 17.2781 37.888C17.2035 37.9627 17.1075 38 16.9901 38C16.8781 38 16.7821 37.9627 16.7021 37.888C16.6275 37.808 16.5901 37.7093 16.5901 37.592V34.168C16.5901 34.0507 16.6275 33.9547 16.7021 33.88C16.7821 33.8 16.8781 33.76 16.9901 33.76C17.1075 33.76 17.2035 33.8 17.2781 33.88C17.3528 33.9547 17.3901 34.0507 17.3901 34.168V37.592ZM16.9821 33.232C16.8275 33.232 16.7155 33.2053 16.6461 33.152C16.5768 33.0933 16.5421 32.9973 16.5421 32.864V32.736C16.5421 32.6027 16.5795 32.5093 16.6541 32.456C16.7288 32.4027 16.8408 32.376 16.9901 32.376C17.1501 32.376 17.2648 32.4053 17.3341 32.464C17.4035 32.5173 17.4381 32.608 17.4381 32.736V32.864C17.4381 33.0027 17.4008 33.0987 17.3261 33.152C17.2568 33.2053 17.1421 33.232 16.9821 33.232ZM20.6343 33.696C21.0129 33.696 21.3063 33.776 21.5143 33.936C21.7223 34.0907 21.8663 34.3013 21.9462 34.568C22.0316 34.8293 22.0743 35.1227 22.0743 35.448V37.592C22.0743 37.7093 22.0343 37.808 21.9543 37.888C21.8796 37.9627 21.7863 38 21.6743 38C21.5569 38 21.4609 37.9627 21.3863 37.888C21.3116 37.808 21.2743 37.7093 21.2743 37.592V35.456C21.2743 35.264 21.2476 35.0933 21.1943 34.944C21.1409 34.7893 21.0476 34.6667 20.9143 34.576C20.7863 34.48 20.6049 34.432 20.3703 34.432C20.1516 34.432 19.9596 34.48 19.7943 34.576C19.6289 34.6667 19.4983 34.7893 19.4023 34.944C19.3116 35.0933 19.2663 35.264 19.2663 35.456V37.592C19.2663 37.7093 19.2263 37.808 19.1463 37.888C19.0716 37.9627 18.9783 38 18.8663 38C18.7489 38 18.6529 37.9627 18.5783 37.888C18.5036 37.808 18.4663 37.7093 18.4663 37.592V34.2C18.4663 34.0827 18.5036 33.9867 18.5783 33.912C18.6529 33.832 18.7489 33.792 18.8663 33.792C18.9783 33.792 19.0716 33.832 19.1463 33.912C19.2263 33.9867 19.2663 34.0827 19.2663 34.2V34.648L19.1223 34.728C19.1596 34.6107 19.2236 34.4933 19.3143 34.376C19.4103 34.2533 19.5249 34.1413 19.6583 34.04C19.7916 33.9333 19.9409 33.8507 20.1063 33.792C20.2716 33.728 20.4476 33.696 20.6343 33.696ZM24.937 33.696C25.1663 33.696 25.377 33.7333 25.569 33.808C25.761 33.8827 25.9263 33.9787 26.065 34.096C26.209 34.208 26.321 34.3253 26.401 34.448C26.481 34.5707 26.521 34.6773 26.521 34.768L26.337 34.776V34.136C26.337 34.024 26.3743 33.928 26.449 33.848C26.5237 33.768 26.6197 33.728 26.737 33.728C26.8543 33.728 26.9503 33.768 27.025 33.848C27.0997 33.9227 27.137 34.0187 27.137 34.136V37.664C27.137 38.1173 27.041 38.4853 26.849 38.768C26.657 39.056 26.401 39.2667 26.081 39.4C25.7663 39.5333 25.4197 39.6 25.041 39.6C24.9077 39.6 24.7503 39.5813 24.569 39.544C24.3877 39.512 24.2197 39.472 24.065 39.424C23.9157 39.376 23.8117 39.328 23.753 39.28C23.6303 39.216 23.5477 39.1413 23.505 39.056C23.4677 38.9707 23.4677 38.8853 23.505 38.8C23.5583 38.6827 23.6303 38.6107 23.721 38.584C23.8117 38.5573 23.9157 38.5653 24.033 38.608C24.0863 38.624 24.169 38.6533 24.281 38.696C24.393 38.7387 24.5183 38.776 24.657 38.808C24.7957 38.8453 24.9263 38.864 25.049 38.864C25.4757 38.864 25.7957 38.7653 26.009 38.568C26.2277 38.3707 26.337 38.1013 26.337 37.76V37.04L26.425 37.096C26.409 37.208 26.3583 37.3227 26.273 37.44C26.193 37.552 26.0863 37.656 25.953 37.752C25.8197 37.848 25.665 37.928 25.489 37.992C25.3183 38.0507 25.1423 38.08 24.961 38.08C24.5823 38.08 24.2437 37.9867 23.945 37.8C23.6463 37.608 23.409 37.3493 23.233 37.024C23.057 36.6933 22.969 36.3147 22.969 35.888C22.969 35.4613 23.057 35.0853 23.233 34.76C23.409 34.4293 23.6437 34.1707 23.937 33.984C24.2357 33.792 24.569 33.696 24.937 33.696ZM25.057 34.432C24.7957 34.432 24.5663 34.496 24.369 34.624C24.1717 34.752 24.017 34.9253 23.905 35.144C23.793 35.3627 23.737 35.6107 23.737 35.888C23.737 36.1653 23.793 36.4133 23.905 36.632C24.017 36.8507 24.1717 37.024 24.369 37.152C24.5663 37.28 24.7957 37.344 25.057 37.344C25.3183 37.344 25.5477 37.2827 25.745 37.16C25.9423 37.032 26.097 36.8587 26.209 36.64C26.321 36.416 26.377 36.1653 26.377 35.888C26.377 35.6107 26.321 35.3627 26.209 35.144C26.097 34.92 25.9423 34.7467 25.745 34.624C25.5477 34.496 25.3183 34.432 25.057 34.432ZM27.9214 37.344C27.8734 37.2693 27.852 37.184 27.8574 37.088C27.8627 36.9867 27.9187 36.9013 28.0254 36.832C28.1 36.784 28.1774 36.7653 28.2574 36.776C28.3427 36.7813 28.4227 36.8213 28.4974 36.896C28.6467 37.0613 28.812 37.192 28.9934 37.288C29.18 37.384 29.404 37.432 29.6654 37.432C29.772 37.4267 29.8814 37.4107 29.9934 37.384C30.1054 37.352 30.2014 37.2987 30.2814 37.224C30.3614 37.144 30.4014 37.0293 30.4014 36.88C30.4014 36.7467 30.3587 36.64 30.2734 36.56C30.188 36.48 30.076 36.416 29.9374 36.368C29.7987 36.3147 29.6494 36.2667 29.4894 36.224C29.3187 36.176 29.1454 36.1227 28.9694 36.064C28.7987 36.0053 28.644 35.9307 28.5054 35.84C28.3667 35.744 28.252 35.6213 28.1614 35.472C28.076 35.3227 28.0334 35.1387 28.0334 34.92C28.0334 34.6693 28.1027 34.4533 28.2414 34.272C28.3854 34.0907 28.5694 33.9493 28.7934 33.848C29.0227 33.7467 29.2707 33.696 29.5374 33.696C29.692 33.696 29.8547 33.7173 30.0254 33.76C30.196 33.7973 30.3614 33.8587 30.5214 33.944C30.6814 34.0293 30.82 34.1413 30.9374 34.28C30.9907 34.3493 31.02 34.432 31.0254 34.528C31.036 34.624 30.9934 34.7093 30.8974 34.784C30.8334 34.8373 30.756 34.8613 30.6654 34.856C30.5747 34.8507 30.5 34.8213 30.4414 34.768C30.34 34.64 30.2094 34.5413 30.0494 34.472C29.8894 34.3973 29.708 34.36 29.5054 34.36C29.404 34.36 29.2974 34.376 29.1854 34.408C29.0787 34.4347 28.988 34.4853 28.9134 34.56C28.8387 34.6347 28.8014 34.744 28.8014 34.888C28.8014 35.0213 28.844 35.128 28.9294 35.208C29.02 35.288 29.1374 35.3547 29.2814 35.408C29.4254 35.4613 29.5827 35.5093 29.7534 35.552C29.9187 35.5947 30.0814 35.6453 30.2414 35.704C30.4067 35.7627 30.5534 35.84 30.6814 35.936C30.8147 36.0267 30.9214 36.1467 31.0014 36.296C31.0867 36.44 31.1294 36.624 31.1294 36.848C31.1294 37.1093 31.052 37.3333 30.8974 37.52C30.748 37.7013 30.556 37.84 30.3214 37.936C30.092 38.032 29.8494 38.08 29.5934 38.08C29.2894 38.08 28.9854 38.0267 28.6814 37.92C28.3827 37.808 28.1294 37.616 27.9214 37.344Z" fill="#5A3384"/>
<defs>
<clipPath id="clip0_10179_5136">
<rect width="24" height="24" fill="white" transform="translate(4)"/>
</clipPath>
</defs>
</svg>
