<svg width="343" height="407" viewBox="0 0 343 407" fill="none" xmlns="http://www.w3.org/2000/svg">
<path d="M0 52C0 43.1634 7.16344 36 16 36H327C335.837 36 343 43.1634 343 52V378H0V52Z" fill="url(#paint0_linear_8424_18988)"/>
<path d="M0 391C0 399.837 7.16344 407 16 407H147.5V378H0V391Z" fill="#D5F3FC"/>
<path d="M147.5 378V407H161.9C161.9 401.661 166.198 397.333 171.5 397.333C176.802 397.333 181.1 401.661 181.1 407H195.5V378H147.5Z" fill="#D5F3FC"/>
<path d="M195.5 407H327C335.837 407 343 399.837 343 391V378H195.5V407Z" fill="#D5F3FC"/>
<path d="M164.632 64.5702C163.338 64.5702 157.799 64.5647 156.503 64.562C145.943 64.5428 135.387 64.5428 124.827 64.573C119.549 64.5894 114.268 64.6113 108.989 64.6415C103.738 64.6716 98.4845 64.7018 93.2473 65.1046C88.6951 65.4554 83.6332 66.8257 79.2592 64.9237C77.3573 64.0961 75.4772 62.5668 73.3176 62.5888C71.5828 62.6079 70.1248 63.8302 68.8121 64.8251C67.6473 65.7103 66.3921 66.7298 64.8848 66.8942C64.1476 66.9765 63.4159 66.8093 62.7718 66.442C61.7605 65.8665 61.0863 65.0005 59.8229 65.0169C58.6253 65.0334 57.4633 65.5623 56.3259 65.883C55.1639 66.2091 53.98 66.453 52.7851 66.6257C50.3788 66.9764 47.9479 67.0669 45.517 67.0395C45.4951 67.0395 45.4732 67.0395 45.4485 67.0395C45.4238 67.0395 45.4019 67.0395 45.3772 67.0395C45.3663 67.0395 45.3526 67.0395 45.3416 67.0395C45.3115 67.0395 45.2813 67.0395 45.2484 67.0395C45.2265 67.0395 45.2018 67.0395 45.1799 67.0395C45.1443 67.0395 45.1059 67.0395 45.0676 67.0395C44.9634 67.0395 44.8483 67.034 44.7277 67.0285C44.6811 67.0285 44.6318 67.0258 44.5825 67.023C44.3852 67.0176 44.1659 67.0093 43.9329 66.9984C43.8891 66.9984 43.8452 66.9956 43.8014 66.9929C43.711 66.9902 43.6205 66.9847 43.5246 66.9819C43.478 66.9819 43.4287 66.9792 43.3821 66.9765C43.2259 66.971 43.0642 66.9627 42.8943 66.9573C42.8312 66.9573 42.7682 66.9518 42.7052 66.949C42.675 66.949 42.6449 66.9491 42.6147 66.9463C42.5435 66.9436 42.4722 66.9408 42.401 66.9353C42.3105 66.9326 42.2173 66.9271 42.1242 66.9216C42.031 66.9189 41.9351 66.9134 41.8391 66.9079C41.4034 66.8888 40.9402 66.8668 40.4496 66.8422C40.34 66.8367 40.2304 66.8312 40.1208 66.8257C40.066 66.8257 40.0084 66.8202 39.9536 66.8175C39.8988 66.8148 39.8412 66.812 39.7837 66.8093C39.4576 66.7928 39.1232 66.7764 38.7806 66.7599C38.6025 66.7517 38.4216 66.7435 38.238 66.7325C37.6652 66.7024 37.0732 66.6722 36.4593 66.6394C36.3278 66.6339 36.1935 66.6257 36.062 66.6174C35.7139 66.601 35.3604 66.5818 35.0041 66.5626C34.8095 66.5517 34.6149 66.5407 34.4176 66.5297C34.2723 66.5215 34.1298 66.5133 33.9846 66.5078C33.8585 66.4996 33.7297 66.4941 33.6036 66.4886C33.5214 66.4831 33.4392 66.4804 33.357 66.4749C33.1405 66.464 32.924 66.4503 32.7075 66.4393C32.4882 66.4283 32.269 66.4174 32.0497 66.4037C31.9017 66.3954 31.7537 66.3872 31.6085 66.379C31.4605 66.3708 31.3125 66.3626 31.1645 66.3543C31.022 66.3461 30.8795 66.3379 30.737 66.3297C30.6548 66.3242 30.5725 66.3214 30.4903 66.316C30.1889 66.2995 29.8874 66.2831 29.5832 66.2666C29.5037 66.2639 29.4215 66.2584 29.342 66.2529C29.194 66.2447 29.046 66.2365 28.8953 66.2283C28.8816 66.2283 28.8706 66.2283 28.8569 66.2283C28.7637 66.2228 28.6706 66.2173 28.5774 66.2118C28.5308 66.2118 28.4815 66.2063 28.4349 66.2036C28.2951 66.1954 28.1553 66.1872 28.0156 66.1817C28.0019 66.1817 27.9882 66.1817 27.9717 66.1817C27.6648 66.1652 27.3578 66.146 27.0509 66.1296C26.5822 66.1022 26.1136 66.0775 25.6449 66.0501C25.5244 66.0419 25.401 66.0364 25.2804 66.0282C25.2476 66.0282 25.2147 66.0255 25.1818 66.0227C25.105 66.0172 25.0256 66.0145 24.9488 66.009C24.6885 65.9953 24.4309 65.9789 24.1705 65.9652C24.0389 65.957 23.9047 65.9487 23.7704 65.9432C23.5758 65.9323 23.3812 65.9213 23.1866 65.9104C23.0907 65.9049 22.9975 65.8994 22.9016 65.8939C22.8057 65.8884 22.7125 65.8829 22.6166 65.8775C22.5316 65.872 22.4494 65.8692 22.3644 65.8638C22.189 65.8528 22.0136 65.8446 21.841 65.8336C21.5149 65.8144 21.1915 65.798 20.8681 65.7788C20.6708 65.7678 20.4734 65.7569 20.2761 65.7459C20.0459 65.7322 19.8157 65.7185 19.5882 65.7048C19.5115 65.6993 19.4347 65.6966 19.358 65.6911C19.2813 65.6856 19.2073 65.6829 19.1305 65.6774C18.9716 65.6692 18.8154 65.6582 18.6564 65.65C18.5632 65.6445 18.4673 65.639 18.3741 65.6336C18.3221 65.6336 18.2727 65.6281 18.2207 65.6253C17.7328 65.5979 17.2532 65.5678 16.7764 65.5404C16.6859 65.5349 16.5982 65.5294 16.5078 65.5239C15.7158 65.4773 14.9402 65.4335 14.1865 65.3869C13.8713 65.3677 13.5589 65.3513 13.252 65.3321C13.0848 65.3211 12.9176 65.3129 12.7504 65.3019C12.5202 65.2882 12.2928 65.2745 12.068 65.2608C11.783 65.2444 11.5007 65.228 11.2267 65.2115C11.0513 65.2005 10.8786 65.1896 10.7059 65.1786C10.6319 65.1731 10.558 65.1704 10.4867 65.1649C10.3743 65.1594 10.2647 65.1512 10.1523 65.1457C10.04 65.1403 9.92761 65.132 9.81525 65.1265C9.56586 65.1101 9.3192 65.0964 9.07803 65.0827C8.96567 65.0772 8.85604 65.069 8.74642 65.0635C8.40932 65.0443 8.08319 65.0224 7.76802 65.0032C7.6721 64.9977 7.57618 64.9923 7.48026 64.9868C7.47204 64.9868 7.46382 64.9868 7.4556 64.9868C7.35419 64.9813 7.25279 64.9731 7.15413 64.9676C7.05547 64.9621 6.95681 64.9566 6.85815 64.9511C6.85815 64.9511 6.8554 64.9511 6.85266 64.9511C6.75948 64.9457 6.6663 64.9402 6.57312 64.9347C6.52653 64.9347 6.47994 64.9292 6.43335 64.9265C6.29358 64.9183 6.15929 64.91 6.02774 64.9018C6.00856 64.9018 5.98938 64.9018 5.97293 64.8991C5.91538 64.8963 5.85783 64.8909 5.80302 64.8881C5.74272 64.8854 5.68517 64.8799 5.62488 64.8772C5.54814 64.8717 5.4714 64.8689 5.39467 64.8634C5.38644 64.8634 5.37548 64.8634 5.36726 64.8634C5.28504 64.858 5.20008 64.8525 5.12061 64.847C5.07128 64.8443 5.02195 64.8415 4.97261 64.8388C4.95891 64.8388 4.94521 64.8388 4.93151 64.8388C4.86847 64.836 4.80818 64.8306 4.75063 64.8278C4.69307 64.8251 4.63552 64.8196 4.57797 64.8169C4.52042 64.8141 4.46286 64.8086 4.40805 64.8059C4.39709 64.8059 4.38613 64.8059 4.37516 64.8059C4.32857 64.8059 4.28472 64.8004 4.24088 64.7977C4.19428 64.7949 4.14495 64.7922 4.1011 64.7895C4.07918 64.7895 4.05451 64.7867 4.03533 64.784C3.73112 64.7648 3.47625 64.7483 3.2707 64.7346C3.23782 64.7346 3.20493 64.7292 3.17478 64.7292C3.16656 64.7292 3.15834 64.7292 3.15286 64.7292C3.12819 64.7292 3.10353 64.7264 3.0816 64.7237C3.07886 64.7237 3.07612 64.7237 3.07338 64.7237C3.05694 64.7237 3.04049 64.7237 3.02679 64.7209C2.93635 64.7155 2.86235 64.71 2.81028 64.7045C2.79932 64.7045 2.78836 64.7045 2.78014 64.7045C2.75821 64.7045 2.74177 64.7018 2.72807 64.699C2.06484 64.636 9.744 64.1865 10.4291 64.1619C10.4511 64.1619 10.473 64.1619 10.4949 64.1619C10.5168 64.1619 10.5415 64.1619 10.5634 64.1619C10.7251 64.1564 10.906 64.1482 11.0978 64.1372C11.1253 64.1372 11.1527 64.1345 11.1828 64.1317C11.2157 64.1317 11.2486 64.129 11.2842 64.1262C11.3253 64.1262 11.3664 64.1208 11.4075 64.118C11.4898 64.1125 11.5747 64.1098 11.6624 64.1043C11.7748 64.0988 11.8926 64.0906 12.0105 64.0824C12.142 64.0742 12.279 64.0659 12.4161 64.055C12.4435 64.055 12.4709 64.0522 12.4983 64.0495C12.5778 64.044 12.6572 64.0385 12.7367 64.0331C12.8436 64.0248 12.9532 64.0166 13.0656 64.0111C13.4931 63.981 13.9453 63.9454 14.4112 63.9097C14.466 63.9042 14.5236 63.9015 14.5811 63.896C14.6963 63.8878 14.8086 63.8768 14.9237 63.8686C15.724 63.8028 16.5544 63.7316 17.3683 63.6548C17.5328 63.6384 17.6945 63.6247 17.8562 63.6083C20.3254 63.3698 22.559 63.104 23.2414 62.9094C23.0194 62.6381 22.8194 62.3503 22.6467 62.0489C22.5755 61.9283 22.5124 61.8049 22.4494 61.6816C21.9479 60.6731 21.704 59.5357 21.7149 58.3847C21.7314 56.4443 22.4056 54.589 23.5676 53.1392C23.6005 53.0981 23.6333 53.057 23.669 53.0159C23.8115 52.8459 23.9622 52.6788 24.1184 52.5225C25.1078 51.5167 26.3685 50.7713 27.821 50.426C30.959 49.6778 34.3326 50.6726 36.8101 52.6979C36.473 50.4095 37.3774 47.932 39.1506 46.411C41.8117 44.1253 45.7829 44.2076 48.7564 45.83C49.4114 43.9691 47.5122 42.1138 45.9582 41.3409C43.9686 40.357 41.7405 39.9103 40.066 38.3619C37.5693 36.0543 37.0952 32.4011 37.2952 29.1781C37.4048 27.405 37.7118 25.6482 38.1092 23.9189C38.3969 22.6637 38.7477 21.4003 39.252 20.2082C39.4877 19.6463 39.759 19.101 40.0687 18.5775C41.7569 15.7437 44.6619 14.1131 47.9753 14.2912C50.3131 14.4173 52.6042 15.3737 54.1965 17.0592C54.276 12.3289 56.9261 7.85354 60.5958 4.92384C64.7067 1.60224 70.0454 0.316894 75.2415 0.256601C77.0147 0.237417 78.8454 0.319635 80.6734 0.536142C84.1868 0.952713 87.6866 1.87081 90.7177 3.50695C95.0204 5.83098 97.7172 9.89254 98.5996 14.6584C99.4163 19.0653 98.9313 23.6175 98.046 27.986C100.219 27.3502 102.705 28.2107 103.878 30.2415C105.366 32.8149 104.462 35.9447 104.766 38.7401C104.824 39.2635 104.941 39.7651 105.117 40.2364C105.72 41.8671 106.986 43.1552 108.647 43.7471C108.984 43.8677 109.337 43.9582 109.705 44.0185C112.325 44.4433 114.868 42.7085 115.756 40.2611C116.293 38.7867 116.03 37.3807 115.671 35.9008C115.347 34.5744 115.128 33.2781 115.295 31.9132C115.589 29.5317 116.775 27.3036 118.535 25.6756C118.598 25.6181 118.661 25.5605 118.727 25.503C121.856 22.7514 126.239 22.3677 129.947 23.8888C130.563 24.1409 131.161 24.4451 131.733 24.8041C132.035 24.9905 132.328 25.1933 132.613 25.4098C136.732 28.5313 138.226 34.0591 137.089 38.9785C141.117 37.7261 145.362 43.2292 144.787 46.6056C143.721 52.8788 137.831 53.1447 138.379 55.1891C138.854 56.9541 140.221 58.1079 141.852 58.9109C143.28 59.6152 144.91 60.051 146.324 60.3963C148.673 60.9691 151.027 61.5199 153.384 62.0571C155.758 62.597 158.136 63.1204 160.518 63.6329C161.055 63.748 165.161 64.5729 164.634 64.5702H164.632Z" fill="white"/>
<path d="M160.517 63.6301C158.135 63.1176 155.759 62.5941 153.383 62.0542C151.026 61.5171 148.672 60.9662 146.323 60.3934C144.909 60.0481 143.278 59.6124 141.851 58.908C140.22 58.105 138.852 56.9512 138.378 55.1863C137.83 53.1418 143.72 52.8787 144.786 46.6027C145.359 43.2263 141.116 37.7259 137.087 38.9756C138.225 34.0563 136.731 28.5285 132.612 25.4069C132.327 25.1932 132.034 24.9904 131.732 24.8013C126.476 25.7002 121.998 29.5672 121.461 35.1443C121.447 35.2813 121.439 35.4211 121.43 35.5609C121.176 33.3574 121.31 31.0471 122.428 29.0931C123.231 27.6899 124.568 26.5772 125.832 25.6015C125.835 25.6015 125.832 25.5933 125.829 25.596C125.149 25.9633 124.451 26.2757 123.807 26.706C123.182 27.1226 122.584 27.5939 122.077 28.1475C121.096 29.2191 120.477 30.5785 120.109 31.9707C119.704 33.5164 119.545 35.158 119.597 36.7558C119.646 38.3042 120.145 39.8362 120.792 41.2312C121.28 42.2808 121.915 43.2674 122.661 44.1609C121.661 44.9858 120.997 46.2136 120.874 47.5017C120.093 47.2605 119.265 47.1783 118.449 47.2742C116.686 47.4825 115.146 48.4828 114.187 49.9709C113.828 50.5273 113.573 51.1357 113.42 51.7715C111.715 50.689 109.492 50.6068 107.703 51.5276C107.459 49.2036 106.502 46.9892 104.984 45.1968C103.553 43.5086 101.427 42.1876 99.1357 42.3438C98.1874 42.4096 97.3241 42.7577 96.6773 43.4072C94.3889 40.7379 90.6179 39.5813 87.1839 40.3295C86.5974 40.4583 86.0219 40.6447 85.4738 40.8913C86.5755 32.9984 98.3326 33.1957 100.994 38.6413C100.416 36.3639 99.1357 34.1604 97.22 32.7627C95.4989 31.5075 93.1748 31.1156 91.1605 31.8638C90.4781 32.1159 89.8587 32.4859 89.338 32.9683C88.9132 31.4061 87.8334 30.0194 86.3562 29.3205C84.6434 28.512 82.6373 28.6491 81.034 29.5918C80.3324 26.9307 77.2903 25.1576 74.6347 25.8756C73.733 19.2872 87.3456 14.376 90.8508 23.2583C90.933 20.8411 89.6833 18.5719 87.8389 17.0646C85.8739 15.4558 83.3882 14.7022 80.8586 14.968C78.1536 15.2503 75.657 16.5 73.5933 18.2375C71.5214 19.9806 69.6797 22.343 69.0521 25.0205C68.4738 27.4953 69.1261 30.3565 71.1459 31.9652C69.2905 33.3711 68.7616 35.9555 69.2768 38.1836C69.9565 41.138 72.4861 43.04 75.287 43.8539C76.238 44.1307 77.2191 44.2952 78.2112 44.3774C77.452 44.8186 76.7833 45.4106 76.2325 46.1039C76.1612 46.0437 76.0927 45.9834 76.0187 45.9258C75.0622 45.153 74.0427 44.5226 72.8643 44.1526C70.6718 43.4647 68.1614 43.7772 66.1745 44.92C65.1111 45.5312 64.2232 46.3698 63.8696 47.5647C63.8696 47.5674 63.8751 47.5702 63.8751 47.5647C64.3657 46.6795 65.3194 46.03 66.2265 45.6298C67.1227 45.2352 68.1148 45.0735 69.0905 45.1173C70.1264 45.1639 71.0993 45.4325 72.0174 45.8463C70.332 45.5915 68.5752 45.9231 67.0816 46.9453C65.8648 47.7757 64.8891 48.9761 64.3931 50.3656C62.0252 49.8421 58.9749 49.738 57.8458 52.295C57.2593 53.6214 57.4402 55.0602 57.4155 56.4661C57.41 56.806 57.3826 57.154 57.3169 57.4857C57.1853 57.8721 57.0072 58.2366 56.7468 58.549C56.3549 59.0149 55.6533 59.3876 55.0394 59.1602C53.9542 58.76 54.135 57.0006 54.0062 56.0879C53.8253 54.7862 53.0826 53.668 51.885 53.0843C50.6928 52.5032 49.2705 52.5252 48.177 53.3117C47.2479 53.9777 46.6532 54.9999 46.5326 56.1044C45.3816 55.5343 43.929 55.5919 42.8794 56.3867C41.6927 57.2856 41.2652 58.8834 41.6818 60.2701C41.0131 60.6264 40.295 60.7881 39.5386 60.7744C39.1988 59.341 38.5493 57.9351 37.4749 56.9101C36.4116 55.8934 34.9481 55.3343 33.4709 55.5097C32.7447 55.5974 32.0513 55.8331 31.4648 56.277C31.2346 56.4524 31.0373 56.6443 30.8564 56.8608C30.037 55.4357 28.8147 54.2627 27.2388 53.5885C26.0768 53.0925 24.7942 52.9034 23.5637 53.1034C22.4017 54.5532 21.7275 56.4086 21.711 58.3489C21.7001 59.5 21.944 60.6346 22.4455 61.6459C22.5085 61.7692 22.5716 61.8925 22.6428 62.0131C22.8155 62.3146 23.0155 62.6024 23.2375 62.8737C22.5551 63.071 20.3215 63.3368 17.8523 63.5725C17.6906 63.589 17.5289 63.6027 17.3644 63.6191C16.5505 63.6959 15.7201 63.7671 14.9198 63.8329C14.8047 63.8411 14.6896 63.8521 14.5772 63.8603C14.5197 63.8658 14.4649 63.8685 14.4073 63.874C13.9414 63.9096 13.4892 63.9452 13.0617 63.9754C12.9493 63.9836 12.8397 63.9918 12.7328 63.9973C12.6533 64.0028 12.5739 64.0083 12.4944 64.0138C12.467 64.0138 12.4396 64.0165 12.4122 64.0192C12.2724 64.0275 12.1381 64.0357 12.0066 64.0466C11.886 64.0549 11.7709 64.0631 11.6585 64.0686C11.5708 64.0741 11.4859 64.0795 11.4036 64.0823C11.3625 64.0823 11.3214 64.0877 11.2803 64.0905C11.2474 64.0905 11.2118 64.0932 11.1789 64.096C11.1515 64.096 11.1214 64.096 11.0939 64.1015C10.8994 64.1124 10.7212 64.1206 10.5595 64.1261C10.5349 64.1261 10.5129 64.1261 10.491 64.1261C10.4691 64.1261 10.4472 64.1261 10.4252 64.1261C9.74009 64.1508 2.06093 64.5975 2.72416 64.6633C2.73786 64.6633 2.75431 64.6633 2.77623 64.6688C2.78445 64.6688 2.79541 64.6688 2.80638 64.6688C2.85845 64.6742 2.93244 64.6797 3.02288 64.6852C3.03933 64.6852 3.05303 64.6852 3.06947 64.6879C3.07222 64.6879 3.07496 64.6879 3.0777 64.6879C3.09962 64.6879 3.12429 64.6907 3.14895 64.6934C3.15717 64.6934 3.1654 64.6934 3.17088 64.6934C3.20102 64.6934 3.23391 64.6962 3.2668 64.6989C3.47234 64.7126 3.72722 64.7291 4.03142 64.7482C4.05335 64.7482 4.07527 64.7482 4.0972 64.7537C4.14379 64.7537 4.19038 64.7592 4.23697 64.7619C4.28082 64.7619 4.32467 64.7674 4.37126 64.7702C4.38222 64.7702 4.39318 64.7702 4.40415 64.7702C4.45896 64.7729 4.51651 64.7784 4.57406 64.7811C4.63162 64.7839 4.68917 64.7893 4.74672 64.7921C4.80701 64.7948 4.86731 64.8003 4.9276 64.803C4.9413 64.803 4.95501 64.803 4.96871 64.803C5.01804 64.803 5.06737 64.8085 5.1167 64.8113C5.19618 64.8168 5.28114 64.8222 5.36335 64.8277C5.37432 64.8277 5.38254 64.8277 5.39076 64.8277C5.46476 64.8332 5.54149 64.8359 5.62097 64.8414C5.67852 64.8442 5.73882 64.8496 5.79911 64.8524C5.85392 64.8551 5.91147 64.8579 5.96903 64.8633C5.98821 64.8633 6.00465 64.8633 6.02384 64.8661C6.15539 64.8743 6.29242 64.8825 6.42945 64.8908C6.47604 64.8935 6.52263 64.8962 6.56922 64.899C6.6624 64.9045 6.75558 64.9099 6.84876 64.9154H6.85424C6.95016 64.9209 7.04882 64.9264 7.15022 64.9319C7.25163 64.9373 7.35029 64.9456 7.45169 64.951C7.45991 64.951 7.46813 64.951 7.47636 64.951C7.56954 64.9565 7.66546 64.962 7.76412 64.9675C8.07929 64.9867 8.40542 65.0059 8.74251 65.0278C8.85214 65.0333 8.96176 65.0415 9.07412 65.047C9.3153 65.0607 9.55921 65.0771 9.81134 65.0908C9.92371 65.0963 10.0333 65.1045 10.1484 65.11C10.2581 65.1155 10.3704 65.1237 10.4828 65.1292C10.554 65.1347 10.628 65.1374 10.702 65.1429C10.872 65.1538 11.0474 65.1621 11.2228 65.1758C11.4996 65.1922 11.7791 65.2087 12.0641 65.2251C12.2888 65.2388 12.5163 65.2525 12.7465 65.2662C12.911 65.2772 13.0781 65.2854 13.2481 65.2964C13.555 65.3155 13.8674 65.332 14.1826 65.3512C14.9363 65.395 15.7119 65.4416 16.5039 65.4882C16.5943 65.4937 16.682 65.4992 16.7725 65.5046C17.2493 65.532 17.7289 65.5595 18.2168 65.5896C18.2661 65.5896 18.3182 65.5951 18.3702 65.5978C18.4634 65.6033 18.5593 65.6088 18.6525 65.6143C18.8087 65.6225 18.9677 65.6334 19.1266 65.6417C19.2034 65.6444 19.2774 65.6499 19.3541 65.6554C19.4308 65.6609 19.5076 65.6636 19.5843 65.6691C19.8145 65.6828 20.042 65.6965 20.2722 65.7102C20.4695 65.7211 20.6669 65.7321 20.8642 65.7431C21.1876 65.7623 21.511 65.7814 21.8371 65.7979C22.0125 65.8088 22.1879 65.8171 22.3605 65.828C22.4428 65.8335 22.5277 65.839 22.6127 65.8417C22.7086 65.8472 22.8018 65.8527 22.8977 65.8582C22.9936 65.8637 23.0868 65.8691 23.1827 65.8746C23.3773 65.8856 23.5719 65.8965 23.7665 65.9075C23.9008 65.9157 24.0323 65.924 24.1666 65.9294C24.427 65.9431 24.6846 65.9596 24.9449 65.9733C25.0217 65.9788 25.1011 65.9815 25.1779 65.987C25.2108 65.987 25.2437 65.9897 25.2765 65.9925C25.3971 66.0007 25.5205 66.0062 25.641 66.0144C26.1124 66.0418 26.5811 66.0665 27.047 66.0939C27.3539 66.1103 27.6636 66.1268 27.9678 66.1459C27.9815 66.1459 27.998 66.1459 28.0117 66.1459C28.1514 66.1542 28.2912 66.1624 28.431 66.1679C28.4776 66.1679 28.5269 66.1733 28.5735 66.1761C28.6667 66.1816 28.7598 66.1871 28.853 66.1925C28.8667 66.1925 28.8777 66.1925 28.8914 66.1925C29.0394 66.2008 29.1901 66.209 29.3381 66.2172C29.4176 66.2227 29.4971 66.2254 29.5793 66.2309C29.8835 66.2473 30.1849 66.2638 30.4864 66.2802C30.5686 66.2857 30.6509 66.2885 30.7331 66.2939C30.8756 66.3022 31.0181 66.3104 31.1606 66.3186C31.3086 66.3268 31.4566 66.335 31.6046 66.3433C31.7526 66.3515 31.9006 66.3597 32.0458 66.3679C32.2678 66.3816 32.4871 66.3926 32.7036 66.4036C32.9201 66.4145 33.1366 66.4282 33.3531 66.4392C33.4353 66.4447 33.5175 66.4474 33.5997 66.4529C33.7285 66.4584 33.8546 66.4666 33.9807 66.4721C34.1259 66.4803 34.2712 66.4885 34.4137 66.494C34.611 66.505 34.8056 66.5159 35.0002 66.5269C35.3592 66.5461 35.71 66.5653 36.0581 66.5817C36.1923 66.5899 36.3239 66.5954 36.4554 66.6036C37.0693 66.6365 37.664 66.6667 38.2341 66.6968C38.4177 66.7078 38.5986 66.716 38.7767 66.7242C39.1193 66.7407 39.4564 66.7598 39.7798 66.7735C39.8373 66.7735 39.8949 66.779 39.9497 66.7818C40.0045 66.7818 40.0621 66.7872 40.1169 66.79C40.2292 66.7955 40.3389 66.8009 40.4457 66.8064C40.9363 66.8311 41.3995 66.853 41.8352 66.8722C41.9311 66.8777 42.0271 66.8804 42.1203 66.8859C42.2134 66.8914 42.3066 66.8941 42.397 66.8996C42.4683 66.9023 42.5423 66.9051 42.6108 66.9106C42.641 66.9106 42.6711 66.9106 42.7013 66.9133C42.7643 66.9133 42.8273 66.9188 42.8904 66.9215C43.0575 66.9298 43.222 66.9352 43.3782 66.9407C43.4275 66.9407 43.4741 66.9435 43.5207 66.9462C43.6166 66.9489 43.7071 66.9544 43.7975 66.9572C43.8413 66.9572 43.8852 66.9599 43.929 66.9626C44.1647 66.9709 44.3812 66.9791 44.5786 66.9873C44.6279 66.9873 44.6772 66.99 44.7238 66.9928C44.8444 66.9955 44.9595 67.001 45.0637 67.0037C45.102 67.0037 45.1404 67.0037 45.176 67.0037C45.2007 67.0037 45.2226 67.0037 45.2445 67.0037C45.2774 67.0037 45.3076 67.0037 45.3377 67.0037C45.3487 67.0037 45.3624 67.0037 45.3733 67.0037C45.398 67.0037 45.4227 67.0037 45.4446 67.0037C45.4693 67.0037 45.4912 67.0037 45.5131 67.0037C47.9413 67.0312 50.3749 66.9407 52.7812 66.5899C53.9761 66.4145 55.16 66.1733 56.322 65.8472C57.4594 65.5266 58.6214 64.9976 59.819 64.9812C61.0824 64.962 61.7566 65.8308 62.7679 66.4063C63.412 66.7708 64.1437 66.938 64.8809 66.8585C66.3882 66.6941 67.6434 65.6746 68.8082 64.7893C70.1209 63.7918 71.5817 62.5722 73.3137 62.553C75.4733 62.5311 77.3534 64.0603 79.2554 64.888C83.6293 66.79 88.6885 65.4197 93.2434 65.0689C98.4806 64.666 103.737 64.6359 108.985 64.6057C114.264 64.5756 119.545 64.5537 124.823 64.5372C135.383 64.5071 145.942 64.5071 156.499 64.5262C157.795 64.5262 163.334 64.5317 164.628 64.5345C165.154 64.5345 161.048 63.7123 160.511 63.5972L160.517 63.6301Z" fill="white"/>
<path d="M80.6745 0.538883C78.9425 0.610138 77.2433 0.826645 75.5524 1.24596C74.9522 1.39395 74.3602 1.56661 73.7765 1.76667C73.475 1.86807 73.1735 1.98044 72.8775 2.0928C72.7487 2.14213 72.6227 2.1942 72.4966 2.24353C72.4884 2.24628 72.4829 2.24902 72.4774 2.25176C72.4747 2.25176 72.4719 2.25176 72.4664 2.2545C72.4199 2.27368 72.3733 2.29561 72.3267 2.31479C71.3675 2.73684 70.4439 3.24111 69.5696 3.82486C69.3449 3.97559 69.1229 4.13181 68.9064 4.29076C68.8516 4.33187 68.7995 4.37298 68.7447 4.41135C68.7392 4.41409 68.7283 4.42505 68.7118 4.43601C68.7118 4.43601 68.7091 4.43875 68.7063 4.44149C68.7009 4.44423 68.6954 4.44972 68.6926 4.45246C68.6872 4.45794 68.6789 4.46342 68.6762 4.46616C68.6707 4.4689 68.668 4.47164 68.6652 4.47438C68.5474 4.56756 68.4268 4.66348 68.3062 4.75392C68.2761 4.77585 68.1911 4.83888 68.1911 4.83888C68.15 4.87177 68.1089 4.90191 68.0705 4.9348C67.9774 5.0088 67.8869 5.08279 67.7965 5.15953C67.6019 5.32123 67.4128 5.4884 67.2292 5.66106C66.4947 6.34073 65.8315 7.08343 65.2888 7.87272C64.1104 9.5856 63.3567 11.5698 63.206 13.6499C63.1292 14.7105 63.184 15.7821 63.428 16.818C63.6746 17.8622 64.0117 18.931 64.7654 19.6929C62.5044 17.928 56.2311 19.8217 58.4976 25.9113C56.1517 21.5949 47.1954 12.0467 39.2422 20.1807C39.4779 19.6189 39.7492 19.0735 40.0589 18.5501C41.7471 15.7163 44.6521 14.0857 47.9655 14.2638C50.3032 14.3899 52.5944 15.3463 54.1867 17.0318C54.2661 12.3015 56.9163 7.82613 60.586 4.89643C64.7078 1.60223 70.0465 0.316894 75.2427 0.256601C77.0158 0.237417 78.8466 0.319635 80.6745 0.536142V0.538883Z" fill="white"/>
<path d="M305.754 57.5189C306.552 58.6602 306.919 60.0741 306.521 61.4771C306.233 62.4931 305.558 63.2803 304.718 63.8895C304.311 64.1841 303.862 64.4106 303.396 64.602C304.421 65.077 305.411 65.6443 306.275 66.3612C306.655 66.6779 307.011 67.0231 307.335 67.4013C308.566 68.8461 309.217 70.6537 309.14 72.5581C309.065 74.3855 308.419 76.1931 307.377 77.6929C306.262 79.2982 304.718 80.5582 303.027 81.5192C302.163 82.0096 301.257 82.4208 300.333 82.788C300.047 82.9024 299.757 83.0145 299.467 83.1245C299.61 83.2476 299.748 83.3774 299.873 83.5159C300.441 84.1382 300.889 84.9695 301.067 85.7963C301.296 86.8563 301.1 87.9448 300.59 88.864C300.848 88.8904 301.1 88.9409 301.349 89.0135C303.119 89.5325 304.531 91.162 304.37 93.0729C304.368 93.0993 304.364 93.1279 304.362 93.1565C304.713 92.8618 305.098 92.6089 305.523 92.4198C306.605 91.9316 307.832 91.8921 308.918 92.3956C309.459 92.6463 309.919 93.0422 310.255 93.5347C310.561 93.9811 310.622 94.6848 311.071 95.0191C311.509 95.3445 312.203 95.3973 312.729 95.4985C313.239 95.5952 318.864 96.4749 323.012 97.0444C323.992 97.1807 324.892 97.2973 325.62 97.3831C325.932 97.4204 326.099 97.7701 326.064 98.0626C326.024 98.3902 325.763 98.5639 325.455 98.5991C322.183 98.9708 318.902 99.2874 315.612 99.4546C312.705 99.6019 309.778 99.6833 306.869 99.5953C305.435 99.5513 304.001 99.437 302.567 99.3974C302.031 99.382 301.45 99.3886 300.969 99.6547C300.472 99.9296 300.102 100.38 299.695 100.767C296.782 103.551 291.757 103.982 288.476 101.603C287.739 102.648 286.791 103.518 285.654 104.136C283.198 105.471 280.126 105.68 277.617 104.369C276.553 103.811 275.677 102.94 275.077 101.906C274.985 101.935 274.888 101.964 274.791 101.988C272.058 102.72 269.223 102.447 266.554 101.603C265.373 101.229 264.284 100.987 263.072 101.348C262.041 101.656 261.102 102.199 260.137 102.661C259.132 103.14 258.078 103.554 256.95 103.587C255.75 103.622 254.641 103.142 253.639 102.522C252.684 101.931 251.769 101.198 250.683 100.86C249.65 100.539 248.563 100.611 247.516 100.84C245.251 101.335 243.101 102.403 240.752 102.465C239.444 102.498 238.294 102.069 237.086 101.621C235.727 101.113 234.375 100.992 232.935 101.038C226.859 101.231 220.77 101.291 214.689 101.249C211.63 101.229 208.571 101.227 205.515 101.108C204 101.049 202.482 100.981 200.967 100.91C200.044 100.866 196.798 100.671 196.42 100.622C195.964 100.563 195.964 99.9713 196.42 99.912C196.672 99.879 198.295 99.6723 199.516 99.5139C200.151 99.4304 200.677 99.3622 200.846 99.3358C202.698 99.0609 204.519 98.5903 206.276 97.9438C206.021 96.7651 206.502 95.5227 207.364 94.6562C207.916 94.0999 208.613 93.7261 209.332 93.4336C209.673 93.295 210.023 93.1785 210.377 93.0751C210.41 93.0663 210.443 93.0553 210.476 93.0465C210.392 92.9234 210.311 92.8003 210.24 92.6705C209.999 92.2131 209.867 91.7183 209.816 91.206C209.618 89.1938 211.037 87.5248 212.626 86.4956C213.548 85.8975 214.581 85.4555 215.639 85.1652C216.193 85.0157 216.756 84.9145 217.326 84.8419C217.363 84.8375 217.403 84.8309 217.442 84.8265C217.269 84.5825 217.117 84.323 216.994 84.0481C216.508 82.9793 216.385 81.8051 216.653 80.6594C216.923 79.5115 217.585 78.4603 218.412 77.6291C220.105 75.9248 222.447 75.2167 224.789 74.999C224.383 74.06 224.295 73.0177 224.488 71.971C224.748 70.5548 225.552 69.3189 226.648 68.4041C228.717 66.6735 231.562 66.0995 234.201 66.1567C237.005 66.2161 239.802 67.0341 242.177 68.5294C243.255 69.209 244.48 70.1941 244.319 71.6213C244.176 72.8923 243.059 73.7588 241.99 74.2975C240.009 75.2981 237.841 75.9622 235.639 76.3316C235.835 76.5384 236 76.7737 236.123 77.0309C236.484 77.7962 236.493 78.667 236.191 79.4279C236.844 79.2344 237.509 79.076 238.182 78.9617C241.575 78.3834 245.254 78.9925 247.888 81.3345C249.093 82.4076 249.964 83.8612 250.351 85.4269C250.54 86.1965 250.63 87.0124 250.567 87.8062C250.545 88.0745 250.512 88.3494 250.461 88.6221C251.354 88.5935 252.231 88.8354 252.963 89.4467C253.771 90.1196 254.213 91.184 254.197 92.2307C254.918 92.0636 255.646 91.9294 256.379 91.8327C257.01 91.7513 257.652 91.7315 258.283 91.7953C257.269 90.7332 256.629 89.4159 256.464 87.9426C256.286 86.3285 256.783 84.677 257.575 83.2828C259.064 80.6682 261.691 78.9705 264.322 77.5939C264.154 77.3498 264.031 77.0749 263.952 76.7824C263.55 75.2629 264.231 73.7126 265.364 72.6988C265.755 72.3492 266.191 72.0545 266.661 71.828C264.724 71.452 262.951 70.2535 261.9 68.5778C261.603 68.1028 261.364 67.5861 261.194 67.0517C261.027 66.5217 261.052 65.7894 260.702 65.343C260.381 64.9318 259.721 64.923 259.248 64.9142C259.125 64.912 259 64.9098 258.877 64.9098C258.951 65.0594 259.013 65.2177 259.057 65.3826C259.235 66.0401 259.072 66.7064 258.727 67.2716C258.529 67.5971 258.272 67.8873 257.986 68.1248C257.199 68.7779 256.22 69.0814 255.222 69.2287C254.155 69.3849 253.073 69.4399 251.996 69.4135C250.25 69.3695 248.198 69.2507 246.804 68.0655C246.118 67.4827 245.729 66.5657 245.801 65.6663C245.88 64.6701 246.371 63.7729 247.103 63.1C247.747 62.5085 248.515 62.0775 249.311 61.7256C247.91 60.6943 246.668 59.4452 245.652 58.0246C242.753 53.9718 242.182 48.7381 243.461 43.9948C244.798 39.0381 247.976 34.8621 252.163 31.9462C256.264 29.0897 261.131 27.5086 266.059 26.8642C266.109 26.4618 266.188 26.066 266.301 25.679C267.04 23.1589 268.997 21.2039 271.211 19.8999C273.634 18.4749 276.361 17.8086 279.145 17.6063C280.434 17.5117 281.723 17.5227 283.005 17.6261C287.796 18.0153 292.478 19.7196 296.544 22.2484C299.141 23.8647 301.575 25.8285 303.616 28.1155C305.63 30.3739 307.333 33.004 308.155 35.9419C308.562 37.3954 308.747 38.9304 308.632 40.4367C308.577 41.1734 308.458 41.9013 308.421 42.6401C308.388 43.2647 308.386 43.9398 308.672 44.5137C308.795 44.76 308.96 44.9557 309.162 45.1383C309.171 45.1471 309.217 45.1844 309.224 45.191C309.252 45.213 309.283 45.2328 309.312 45.2504C309.4 45.3054 309.49 45.356 309.582 45.4021C309.602 45.4131 309.617 45.4197 309.628 45.4263C309.639 45.4307 309.655 45.4351 309.675 45.4417C309.723 45.4593 309.773 45.4769 309.822 45.4923C309.85 45.5011 309.881 45.5099 309.912 45.5165C310.152 45.4417 310.363 45.3142 310.605 45.1559C311.253 44.7248 311.838 44.2037 312.513 43.8122C313.373 43.3153 314.306 43.1305 315.289 43.3131C317.274 43.6825 318.532 45.5253 318.842 47.4143C318.979 48.2433 319.014 49.0789 319.111 49.9124C319.111 49.9234 319.113 49.9322 319.115 49.941C319.115 49.9454 319.117 49.952 319.119 49.9652C319.126 50.0047 319.133 50.0443 319.137 50.0817C319.152 50.1719 319.17 50.262 319.188 50.35C319.225 50.5237 319.269 50.6974 319.326 50.8668C319.342 50.9151 319.359 50.9613 319.379 51.0075C319.379 51.0097 319.379 51.0119 319.381 51.0141C319.418 51.0911 319.458 51.168 319.502 51.2428C319.526 51.2846 319.555 51.3264 319.581 51.3681C319.583 51.3725 319.597 51.3923 319.61 51.4077C319.621 51.4209 319.63 51.4341 319.632 51.4363C319.665 51.4737 319.698 51.5111 319.735 51.5463C319.779 51.5924 319.827 51.6342 319.876 51.676C319.878 51.6782 319.882 51.6804 319.885 51.6826C319.951 51.731 320.021 51.775 320.091 51.8145C320.157 51.8519 320.223 51.8849 320.294 51.9179C320.3 51.9179 320.437 51.9729 320.465 51.9839C320.832 52.1092 321.213 52.1884 321.591 52.2719C322.381 52.4457 323.581 52.5468 323.821 53.3495C324.001 53.9542 324.439 54.2247 324.881 54.383C325.501 54.6073 326.13 54.6139 326.073 55.0273C325.976 55.7178 311.924 55.9421 310.743 55.2428C310.519 56.8569 307.684 58.4842 305.758 57.5189H305.754Z" fill="white"/>
<path d="M245.189 31.4313C245.189 31.4621 245.186 31.4929 245.184 31.5237C245.101 32.4319 244.025 32.953 243.267 33.2081C242.446 33.4852 241.54 33.5116 240.698 33.3181C240.025 33.1641 239.218 32.7705 238.95 32.102C238.888 31.9459 238.855 31.7744 238.86 31.5874C238.886 30.5847 239.88 29.9382 240.722 29.6149C241.12 29.4632 241.554 29.3906 241.976 29.3752C242.196 29.3686 242.413 29.3906 242.631 29.4192C242.631 29.4192 242.785 29.4324 242.825 29.439C242.833 29.439 242.842 29.439 242.844 29.439C242.983 29.4522 243.119 29.4742 243.251 29.5137C243.575 29.6127 243.865 29.7556 244.039 30.0283C244.645 30.2878 245.2 30.6968 245.189 31.4269V31.4313Z" fill="white"/>
<path d="M242.686 61.5278C242.638 61.7037 242.565 61.8642 242.473 62.0072C241.868 62.955 240.41 63.2144 239.381 63.2518C238.73 63.276 238.11 63.1837 237.468 63.1353C237.143 63.1111 236.819 63.0825 236.496 63.0451C236.188 63.0099 235.902 62.9352 235.61 62.8494C234.97 62.8208 234.334 62.5943 233.824 62.2007C233.815 62.1941 233.809 62.1897 233.8 62.1831C232.927 61.4992 232.916 60.3447 233.525 59.4783C234.156 58.5833 235.163 57.9961 236.199 57.6839C237.228 57.3738 238.376 57.376 239.337 57.8928C240.041 58.271 240.628 58.9373 240.879 59.7048C241.345 59.6696 241.82 59.6938 242.211 59.9819C242.691 60.3359 242.838 60.9626 242.684 61.5234L242.686 61.5278Z" fill="white"/>
<path d="M321.328 60.0127C321.193 60.2238 321.002 60.4108 320.78 60.5581C320.226 60.9253 319.509 61.0529 318.86 61.1189C318.256 61.1782 317.585 61.1365 317.007 60.9517C316.446 60.7736 315.916 60.4152 315.674 59.872C315.639 59.7928 315.61 59.7093 315.588 59.6213C315.386 58.8187 315.889 58.1128 316.571 57.7433C317.745 57.1078 319.234 57.2024 320.358 57.9061C320.4 57.9324 320.439 57.961 320.477 57.994C320.837 58.1634 321.185 58.3942 321.372 58.7197C321.631 59.1727 321.57 59.6345 321.325 60.0149L321.328 60.0127Z" fill="white"/>
<path d="M324.943 60.6193C324.785 60.6127 324.62 60.6303 324.461 60.6347C324.156 60.6457 323.857 60.6896 323.551 60.7204C322.713 60.804 322.711 61.9409 323.551 62.0266C323.855 62.0574 324.156 62.1014 324.461 62.1124C324.604 62.1168 324.747 62.13 324.89 62.1278C325.159 62.1212 325.334 62.0288 325.535 61.8595C325.801 61.6352 325.801 61.114 325.535 60.8897C325.354 60.7402 325.185 60.6303 324.943 60.6193Z" fill="white"/>
<path d="M305.756 57.5187C306.554 58.66 306.921 60.074 306.523 61.4769C306.235 62.4929 305.56 63.2802 304.72 63.8893C304.313 64.184 303.865 64.4105 303.398 64.6018C304.423 65.0768 305.413 65.6441 306.277 66.361C306.075 66.306 305.872 66.2599 305.666 66.2203C304.201 65.9344 302.684 66.0136 301.254 66.4116C302.039 66.7129 302.756 67.2054 303.343 67.8388C304.439 69.0196 305.03 70.5744 304.947 72.1863C304.859 73.8817 304.137 75.4584 303.08 76.7647C301.054 79.2694 297.91 80.3469 294.818 80.8681C296.333 82.7461 296.647 85.5322 295.57 87.6961C297.701 88.325 299.359 90.3042 299.667 92.4988C300.744 91.9402 302.061 91.8897 303.15 92.512C304.214 93.1211 304.872 94.2514 304.977 95.4433C305.914 95.3466 306.884 95.4675 307.852 95.7952C308.826 96.125 309.751 96.578 310.743 96.8551C311.691 97.1212 312.665 97.2663 313.646 97.3301C315.561 97.4554 317.481 97.3103 319.394 97.1872C320.591 97.108 321.804 97.0398 323.012 97.0464C323.992 97.1828 324.892 97.2993 325.62 97.3851C325.932 97.4225 326.099 97.7721 326.064 98.0646C326.024 98.3922 325.763 98.566 325.455 98.6011C322.183 98.9728 318.902 99.2894 315.612 99.4566C312.705 99.6039 309.778 99.6853 306.869 99.5973C305.435 99.5533 304.001 99.439 302.567 99.3994C302.031 99.384 301.45 99.3906 300.969 99.6567C300.472 99.9316 300.102 100.382 299.695 100.769C296.782 103.553 291.757 103.984 288.476 101.605C287.739 102.65 286.791 103.52 285.654 104.138C283.198 105.473 280.126 105.682 277.617 104.371C276.553 103.813 275.677 102.942 275.077 101.908C274.985 101.937 274.888 101.966 274.791 101.99C272.058 102.722 269.223 102.449 266.554 101.605C265.373 101.231 264.284 100.989 263.072 101.35C262.041 101.658 261.102 102.201 260.137 102.663C259.132 103.142 258.078 103.556 256.95 103.589C255.75 103.624 254.641 103.144 253.639 102.524C252.684 101.933 251.769 101.2 250.683 100.862C249.65 100.541 248.563 100.613 247.516 100.842C245.251 101.337 243.101 102.405 240.752 102.467C239.444 102.5 238.294 102.071 237.086 101.623C235.727 101.115 234.375 100.994 232.935 101.04C226.859 101.233 220.77 101.293 214.689 101.251C211.63 101.231 208.571 101.229 205.515 101.11C204 101.051 202.482 100.983 200.967 100.912C200.044 100.868 196.798 100.673 196.42 100.624C195.964 100.565 195.964 99.9733 196.42 99.914C196.672 99.881 198.295 99.6743 199.516 99.5159C200.769 99.4192 202.023 99.3246 203.278 99.2499C204.765 99.1597 206.269 99.0783 207.692 98.6033C209.099 98.1327 210.256 97.163 211.626 96.611C212.556 96.2372 213.647 96.1316 214.557 96.5428C215.067 93.992 217.854 92.2195 220.376 92.7759C220.191 91.9095 220.244 90.9969 220.51 90.1502C221.113 88.2371 222.707 86.7879 224.721 86.5724C225.966 86.4383 227.252 86.7747 228.284 87.4762C227.875 84.8483 224.664 84.1359 223.092 85.0507C224.455 83.762 226.463 83.2254 228.277 83.7532C229.764 84.1864 230.988 85.2662 231.646 86.6494C232.4 85.6312 233.841 85.198 235.024 85.7192C236.037 84.0655 238.094 83.1221 240.011 83.5223C242.041 83.9445 243.567 85.8093 243.723 87.8478C243.745 88.1271 243.431 88.2261 243.222 88.1359C241.009 87.1771 238.276 87.5576 236.453 89.1519C234.819 90.5812 234.047 92.7913 234.318 94.9199C236.125 94.1657 238.322 94.5901 239.721 95.9579C240.497 94.6539 241.979 93.8138 243.532 93.9502C244.979 94.0777 246.261 95.0629 246.824 96.3801C247.422 95.7094 248.44 95.4301 249.342 95.5093C250.808 95.6368 251.943 96.6682 253.161 97.3829C254.692 98.2801 256.403 98.3109 258.127 98.2229C258.562 98.2009 259.048 98.2647 259.286 97.8315C259.433 97.561 259.514 97.2641 259.679 97.0002C260.003 96.4813 260.469 96.0525 261.003 95.7578C261.958 95.2322 263.088 95.1157 264.102 95.4763C264.911 92.998 269.997 90.8231 273.711 92.2613C268.41 87.9446 269.863 79.3639 275.97 78.2292C275.796 77.6399 275.732 77.0242 275.794 76.4084C275.957 74.7965 276.841 73.3012 278.307 72.5513C279.416 71.9862 280.704 71.8454 281.887 72.1687C281.522 70.7085 281.762 69.0966 282.668 67.8652C283.524 66.7041 284.911 65.8926 286.36 65.7607C284.52 61.3956 274.868 61.0481 272.023 66.4094C272.124 61.699 277.744 58.3873 280.553 59.1526C280.383 58.7633 280.267 58.3521 280.207 57.9321C279.871 55.5659 281.212 52.9864 283.447 52.0782C282.158 49.6395 281.898 46.728 282.611 44.0715C283.295 41.5206 284.907 39.3238 287.145 37.923C289.294 36.5794 291.924 35.9791 294.44 36.2913C297.017 36.6124 299.374 37.8944 301.087 39.845C302.481 41.4327 303.502 43.4514 303.814 45.5647C304.016 45.4745 304.23 45.4064 304.454 45.3668C305.85 45.1183 307.302 45.6746 308.175 46.7895C308.98 47.8187 309.285 49.0502 309.479 50.308C311.823 47.2953 316.485 50.2816 318.556 53.1954C319.786 54.9238 322.772 53.9628 324.872 54.3806C325.492 54.6049 326.121 54.6115 326.064 55.025C325.967 55.7155 311.915 55.9398 310.734 55.2405C310.51 56.8546 307.676 58.4818 305.749 57.5165L305.756 57.5187Z" fill="white"/>
<path d="M283.008 17.6261C280.829 17.36 265.007 20.1989 272.835 32.3926C263.852 27.7746 252.459 31.9902 249.8 42.1784C250.053 41.2701 253.732 36.076 258.992 35.4009C261.833 35.0359 265.007 36.2124 266.775 38.2926C262.913 35.104 250.251 41.8771 254.005 52.4963C254.601 53.0262 255.527 53.1098 256.257 53.3561C257.125 53.6485 257.939 54.1521 258.209 55.0823C258.504 56.0961 258.095 57.2572 257.323 57.9499C256.703 58.5062 255.936 58.8053 255.133 58.9548C255.892 60.4282 254.621 63.5574 251.041 63.7575C256.545 63.707 258.469 66.1325 258.735 67.2716C258.537 67.5971 258.28 67.8873 257.994 68.1248C257.207 68.7779 256.228 69.0814 255.23 69.2288C254.163 69.3849 253.081 69.4399 252.004 69.4135C250.258 69.3695 248.206 69.2507 246.812 68.0655C246.126 67.4827 245.737 66.5657 245.809 65.6663C245.888 64.6701 246.379 63.7729 247.111 63.1C247.755 62.5085 248.523 62.0775 249.319 61.7256C247.918 60.6943 246.675 59.4452 245.66 58.0246C242.761 53.9718 242.189 48.7381 243.469 43.9948C244.806 39.0381 247.984 34.8621 252.171 31.9462C256.272 29.0897 261.139 27.5086 266.067 26.8642C266.117 26.4618 266.196 26.066 266.309 25.679C267.047 23.1589 269.005 21.2039 271.219 19.8999C273.642 18.4749 276.369 17.8086 279.153 17.6063C280.442 17.5117 281.73 17.5227 283.012 17.6261H283.008Z" fill="white"/>
<path d="M245.187 31.5244C245.104 32.4326 244.029 32.9538 243.27 33.2089C242.45 33.486 241.544 33.5124 240.701 33.3189C240.028 33.1649 239.221 32.7713 238.953 32.1028C239.29 31.9774 239.633 31.8785 239.982 31.7949C240.409 31.4761 240.82 31.1176 241.295 30.9087C242.166 30.5261 243.151 30.4953 244.04 30.8449C244.383 30.9791 244.836 31.2166 245.187 31.5244Z" fill="white"/>
<path d="M242.473 62.0071C241.868 62.9549 240.41 63.2143 239.381 63.2517C238.73 63.2759 238.11 63.1836 237.468 63.1352C237.143 63.111 236.819 63.0824 236.496 63.045C236.188 63.0098 235.902 62.9351 235.61 62.8493C234.97 62.8207 234.334 62.5942 233.824 62.2006C234.04 62.0664 234.229 61.8905 234.429 61.7234C234.79 61.4221 235.172 61.1736 235.638 61.0681C236.111 60.9603 236.593 60.9735 237.072 61.0043C238.9 61.1187 240.729 61.4397 242.473 62.0049V62.0071Z" fill="white"/>
<path d="M321.33 60.0125C321.195 60.2236 321.004 60.4105 320.782 60.5579C320.228 60.9251 319.511 61.0527 318.862 61.1186C318.257 61.178 317.587 61.1362 317.008 60.9515C316.448 60.7734 315.918 60.4149 315.676 59.8718C315.832 59.7772 315.988 59.6959 316.142 59.6255C316.85 59.3 317.615 59.1021 318.398 59.0889C319.091 59.0757 319.806 59.2055 320.448 59.4672C320.778 59.6013 321.094 59.7662 321.33 60.0147V60.0125Z" fill="white"/>
<circle cx="174.899" cy="93.5747" r="18.3208" fill="#FFCE3C"/>
<path d="M195.5 125.731C194.566 126.825 192.905 126.61 191.665 126.237C190.257 127.271 188.488 127.745 186.747 127.586C185.946 127.513 185.171 127.314 184.436 126.987C183.667 126.644 183.05 126.065 182.299 125.699C181.94 125.525 181.548 125.45 181.175 125.628C180.77 125.822 180.444 126.172 180.116 126.47C179.428 127.093 178.725 127.697 177.972 128.243C176.624 129.221 175.043 129.946 173.346 129.902C171.998 129.866 170.652 129.371 169.787 128.335C168.627 129.149 167.01 129.328 165.652 129.232C164.76 129.168 163.9 128.941 163.2 128.362C162.877 128.094 162.619 127.745 162.468 127.358C162.316 127.527 162.15 127.687 161.978 127.834C161.603 128.154 161.186 128.433 160.751 128.667C159.111 129.547 157.173 129.561 155.502 128.754C155.088 128.555 154.706 128.303 154.349 128.015C154.163 127.866 153.987 127.703 153.821 127.529C153.692 127.392 153.569 127.177 153.413 127.072C153.37 127.044 153.234 126.98 153.143 126.934C153.145 126.935 153.13 126.93 153.079 126.905C153.068 126.9 153.061 126.896 153.054 126.893C153.054 126.895 153.047 126.896 153.033 126.896C152.995 126.896 152.96 126.896 152.923 126.898C152.91 126.902 152.875 126.907 152.866 126.911C152.765 126.942 152.665 126.967 152.566 127.003C152.265 127.111 151.978 127.232 151.674 127.296C151.027 128.465 149.88 129.291 148.501 129.431C147.12 129.571 145.674 128.992 144.762 127.948C144.135 129.214 143.18 130.293 142 131.09C140.75 131.934 139.261 132.417 137.751 132.435C136.213 132.453 134.668 132.007 133.366 131.19C132.723 130.786 132.129 130.291 131.632 129.717C131.158 129.17 130.769 128.559 130.387 127.944C129.943 127.23 129.458 126.443 128.804 125.887C127.669 126.548 126.381 126.99 125.054 126.855C123.937 126.742 122.845 126.271 122.147 125.394C121.33 126.349 120.388 127.312 119.143 127.625C118.143 127.875 116.933 127.687 116.207 126.905C115.834 126.504 115.736 126.022 115.523 125.539C115.452 125.379 115.352 125.166 115.155 125.147C114.969 125.129 114.761 125.237 114.59 125.296C114.409 125.358 114.23 125.422 114.049 125.484C113.322 125.736 112.597 125.996 111.867 126.237C111.169 126.468 110.427 126.662 109.686 126.589C108.661 126.486 107.654 125.747 107.521 124.726C106.375 125.07 105.158 125.307 104.037 124.749C103.718 124.589 103.444 124.37 103.233 124.111C103.22 124.111 103.21 124.111 103.197 124.111C102.343 124.084 101.519 124.113 100.666 124.058C99.8152 124.003 98.7725 124.054 97.9216 124.019C96.2217 123.948 93.1079 124.108 91.408 124.019C91.0936 124.003 91.0048 123.681 91.138 123.484C91.1913 123.404 91.2819 123.344 91.408 123.335C92.7224 123.241 95.4188 123.003 96.7297 122.868C97.1614 122.823 97.9127 122.427 98.2325 122.097C98.3728 121.951 98.4971 121.763 98.6144 121.598C98.7512 121.404 98.9057 121.225 99.0531 121.04C99.3569 120.658 99.6659 120.308 100.062 120.022C100.44 119.749 100.884 119.551 101.336 119.436C102.242 119.203 103.219 119.326 104.043 119.766C104.203 119.852 104.355 119.949 104.501 120.056C104.551 120.027 105.062 118.796 106.686 118.589C108.205 118.395 109.299 119.603 109.318 119.608C109.313 119.567 109.308 119.528 109.304 119.487C109.258 118.915 109.452 118.349 109.832 117.922C110.253 117.448 110.862 117.217 111.48 117.153C111.986 117.102 112.468 117.189 112.917 117.368C112.914 117.102 112.937 116.839 112.988 116.587C113.384 114.651 115.272 113.476 117.15 113.366C117.432 113.35 117.715 113.357 117.995 113.388C118.159 112.562 118.534 111.789 119.166 111.181C119.635 110.732 120.214 110.384 120.843 110.213C121.143 110.132 121.463 110.089 121.774 110.1C121.809 110.1 121.846 110.101 121.882 110.103C121.385 109.011 121.166 107.796 121.232 106.595C121.376 103.929 122.841 101.43 125.266 100.232C126.451 99.648 127.779 99.362 129.101 99.41C129.371 99.4207 129.641 99.4437 129.911 99.481C129.357 98.4046 129.03 97.2181 128.929 96.0048C128.669 92.8928 129.913 89.7772 132.391 87.8428C134.433 86.2477 137.073 85.4679 139.638 85.7645C139.766 85.7787 139.894 85.7965 140.021 85.8178C140.021 85.8178 140.021 85.816 140.021 85.8143C139.393 83.4518 140.05 80.8353 141.498 78.8992C143.109 76.7445 145.581 75.5455 148.233 75.304C150.928 75.0588 153.642 75.8351 155.891 77.3147C157.37 78.2881 158.658 79.528 159.742 80.9259C160.298 81.6418 160.799 82.4002 161.246 83.1836C162.508 85.3968 163.449 88.1341 162.676 90.6351C163.449 90.6618 164.2 90.8909 164.877 91.2995C166.586 92.3315 167.613 94.177 167.714 96.1523C167.756 96.9907 167.65 97.8202 167.433 98.6267C168.202 98.7581 168.938 99.0707 169.57 99.5628C170.6 100.364 171.281 101.556 171.465 102.838C172.584 102.723 173.764 103.407 174.274 104.408C175.323 103.735 176.773 103.893 177.885 104.378C180.315 105.437 181.992 108.089 181.885 110.739C181.8 112.896 180.61 114.89 178.848 116.079C179.245 116.24 179.608 116.519 179.862 116.855C180.546 117.757 180.524 118.931 180.766 119.985C180.86 120.399 181.045 120.743 181.503 120.711C181.901 120.685 182.302 120.448 182.601 120.196C183.391 119.525 184.233 118.64 185.379 118.94C186.024 119.109 186.479 119.603 186.821 120.164C187.029 119.915 187.305 119.717 187.61 119.589C187.658 119.569 187.706 119.55 187.754 119.534C188.424 119.306 189.147 119.429 189.734 119.832C190.308 120.226 190.742 120.802 191.031 121.432C191.172 121.736 191.269 122.104 191.505 122.351C191.656 122.507 191.857 122.594 192.074 122.642C192.562 122.752 193.166 122.624 193.68 122.582C194.221 122.536 194.806 122.541 195.292 122.814C196.392 123.429 196.218 124.896 195.502 125.735L195.5 125.731Z" fill="white"/>
<path d="M195.5 125.731C194.566 126.825 192.905 126.61 191.665 126.237C190.257 127.271 188.488 127.745 186.747 127.585C185.946 127.512 185.171 127.313 184.436 126.987C183.667 126.644 183.05 126.065 182.299 125.699C181.94 125.525 181.548 125.45 181.175 125.628C180.77 125.821 180.444 126.171 180.116 126.47C179.428 127.093 178.725 127.697 177.972 128.242C176.624 129.221 175.043 129.946 173.346 129.901C171.998 129.866 170.652 129.37 169.787 128.335C168.627 129.148 167.01 129.328 165.652 129.232C164.76 129.168 163.9 128.94 163.2 128.361C162.877 128.093 162.619 127.745 162.468 127.358C162.316 127.527 162.15 127.686 161.978 127.834C161.603 128.154 161.186 128.432 160.751 128.667C159.111 129.546 157.173 129.56 155.502 128.754C155.088 128.555 154.706 128.303 154.349 128.015C154.163 127.866 153.987 127.702 153.821 127.528C153.692 127.392 153.569 127.177 153.413 127.072C153.37 127.043 153.234 126.979 153.143 126.933C153.145 126.935 153.13 126.93 153.079 126.905C153.068 126.9 153.061 126.896 153.054 126.892C153.054 126.894 153.047 126.896 153.033 126.896C152.995 126.896 152.96 126.896 152.923 126.898C152.91 126.901 152.875 126.907 152.866 126.91C152.765 126.942 152.665 126.967 152.566 127.003C152.265 127.111 151.978 127.232 151.674 127.296C151.027 128.464 149.88 129.29 148.501 129.431C147.12 129.571 145.674 128.992 144.762 127.948C144.135 129.214 143.18 130.292 142 131.09C140.75 131.934 139.261 132.417 137.751 132.434C136.213 132.452 134.668 132.006 133.366 131.189C132.723 130.786 132.129 130.29 131.632 129.717C131.158 129.17 130.769 128.559 130.387 127.944C129.943 127.23 129.458 126.443 128.804 125.887C127.669 126.548 126.381 126.99 125.054 126.855C123.937 126.741 122.845 126.271 122.147 125.393C121.33 126.349 120.388 127.312 119.143 127.624C118.143 127.875 116.933 127.686 116.207 126.905C115.834 126.503 115.736 126.022 115.523 125.539C115.452 125.379 115.352 125.166 115.155 125.146C114.969 125.129 114.761 125.237 114.59 125.296C114.409 125.358 114.23 125.422 114.049 125.484C113.322 125.736 112.597 125.995 111.867 126.237C111.169 126.468 110.427 126.662 109.686 126.589C108.661 126.486 107.654 125.747 107.521 124.725C106.375 125.07 105.158 125.306 104.037 124.748C103.718 124.589 103.444 124.37 103.233 124.111C103.22 124.111 103.21 124.111 103.197 124.111C102.343 124.084 101.519 124.113 100.666 124.057C99.8152 124.002 98.7725 124.054 97.9216 124.018C96.2217 123.947 93.1079 124.107 91.408 124.018C91.0936 124.002 91.0048 123.681 91.138 123.484C92.0066 123.471 92.8752 123.478 93.7438 123.452C96.0139 123.381 98.3018 123.242 100.551 122.914C101.051 122.841 101.529 122.731 101.95 122.439C102.348 122.166 102.7 121.862 103.171 121.722C103.957 121.487 104.767 121.67 105.4 122.157C106.244 121.473 107.201 120.803 108.34 120.912C108.805 120.956 109.254 121.123 109.595 121.45C109.954 121.793 110.134 122.276 110.501 122.61C111.155 123.201 112.125 123.221 112.951 123.132C113.414 123.082 113.874 122.985 114.329 122.874C114.711 122.784 115.175 122.665 115.439 122.354C115.75 121.99 115.525 121.535 115.157 121.318C114.649 121.02 113.997 121.228 113.475 121.377C113.306 121.425 113.12 121.256 113.18 121.082C113.452 120.288 113.99 119.425 114.878 119.245C115.477 119.125 116.152 119.333 116.5 119.825C117.054 119.338 117.905 119.205 118.555 119.606C118.949 119.849 119.225 120.256 119.333 120.7C119.946 120.066 120.914 119.775 121.775 119.993C120.926 119.583 120.179 118.046 120.179 116.473C120.179 113.625 123.362 112.011 124.879 111.964C124.429 111.263 124.36 110.337 124.761 109.59C125.124 108.915 125.816 108.492 126.555 108.412C126.252 107.966 126.086 107.437 126.06 106.888C125.998 105.492 126.792 104.152 128.053 103.556C129.515 102.865 131.254 103.081 132.661 103.801C131.856 103.751 130.085 104.145 129.584 106.177C129.305 107.307 129.879 108.527 130.866 109.099C131.872 108.222 133.169 107.44 134.549 107.597C135.787 107.739 136.948 108.595 137.107 109.884C130.136 107.97 128.357 113.499 128.611 114.84C129.834 114.171 131.428 114.299 132.547 115.132C133.002 114.668 133.563 114.322 134.174 114.101C135.401 113.661 136.853 113.734 137.897 114.526C139.537 115.769 139.828 117.725 139.828 117.725C136.464 116.435 133.728 116.197 132.518 119.45C131.671 121.727 132.703 126.122 135.851 127.31C135.638 126.542 135.579 125.733 135.68 124.942C135.934 122.953 137.142 121.15 139.004 120.338C140.712 119.592 142.782 119.649 144.405 120.583C144.574 119.89 144.908 119.256 145.384 118.711C146.42 117.524 148.034 116.943 149.578 117.304C150.628 117.551 151.582 118.196 152.214 119.068C152.583 118.721 153.035 118.46 153.534 118.297C153.958 118.157 154.415 118.098 154.862 118.135C155.33 118.174 155.722 118.322 156.148 118.507C156.287 118.567 156.386 118.608 156.52 118.528C156.624 118.464 156.717 118.368 156.809 118.286C156.994 118.123 157.17 117.951 157.339 117.771C157.696 117.391 158.012 116.972 158.257 116.51C158.704 115.668 158.864 114.709 158.532 113.799C158.248 113.021 157.596 112.327 156.745 112.213C156.511 112.181 156.365 111.977 156.479 111.75C156.896 110.913 156.772 109.916 156.337 109.114C155.502 107.57 153.63 106.946 151.963 106.973C150.526 106.996 148.827 107.582 148.251 109.025C148.157 109.263 147.78 109.32 147.709 109.025C147.512 108.213 147.66 107.382 148.059 106.653C148.814 105.279 150.292 104.447 151.839 104.387C153.31 104.328 154.731 104.861 155.996 105.598C156.255 104.264 154.772 103.575 153.258 103.751C152.974 103.785 153.033 103.323 153.258 103.238C154.052 102.939 154.857 102.625 155.699 102.492C156.893 102.301 158.252 102.486 159.136 103.385C159.921 104.183 160.085 105.307 160.403 106.341C160.541 106.277 160.683 106.22 160.82 106.163C162.103 105.639 163.593 105.536 164.875 106.108C165.417 106.35 165.92 106.716 166.305 107.167C166.453 107.341 166.591 107.526 166.707 107.723C167.732 107.588 168.476 105.95 168.368 104.303C168.327 103.675 167.149 101.259 163.54 101.047C163.296 101.033 165.806 100.689 166.886 100.996C171.492 102.307 170.929 106.907 170.234 107.943C171.892 107.968 173.506 109.369 173.586 111.057C174.455 111.078 175.355 110.492 175.62 109.659C175.911 108.739 175.492 107.678 174.664 107.192C174.432 107.055 174.519 106.643 174.808 106.662C175.45 106.705 176.073 106.907 176.611 107.263C177.576 107.897 178.221 108.927 178.304 110.085C178.352 110.75 178.213 111.426 177.92 112.025C178.372 111.591 178.679 111.002 178.764 110.376C178.929 109.172 178.309 107.991 177.402 107.236C177.148 107.025 177.483 106.598 177.753 106.781C178.51 107.298 179.269 107.843 179.878 108.536C180.391 109.119 180.807 109.797 180.921 110.577C181.057 111.519 180.748 112.451 180.302 113.272C179.635 114.497 178.597 115.482 177.364 116.112C178.059 116.522 178.547 117.261 178.768 118.038C179.098 119.205 178.817 120.421 178.467 121.562C179.654 121.267 181.024 121.26 182.102 121.805C182.763 122.139 183.256 122.791 183.363 123.487C183.882 122.825 184.663 122.374 185.519 122.288C186.702 122.169 187.91 122.832 188.496 123.855C189.298 123.303 189.763 122.276 189.539 121.308C189.333 120.421 188.607 119.746 187.747 119.533C188.416 119.306 189.139 119.428 189.727 119.832C190.301 120.226 190.735 120.802 191.024 121.432C191.164 121.736 191.262 122.104 191.498 122.35C191.649 122.507 191.85 122.594 192.067 122.642C192.555 122.752 193.159 122.624 193.673 122.581C194.214 122.535 194.799 122.541 195.285 122.814C196.385 123.429 196.211 124.896 195.495 125.734L195.5 125.731Z" fill="white"/>
<path d="M159.738 80.9223C159.68 80.9046 159.626 80.869 159.58 80.814C158.655 79.6825 157.516 78.8103 156.203 78.1691C155.026 77.5936 153.747 77.217 152.457 76.995C151.056 76.7552 149.624 76.6717 148.226 76.9861C146.972 77.2685 145.835 77.8582 144.96 78.8085C144.787 78.9951 144.627 79.1922 144.483 79.4C144.499 79.3841 144.515 79.3681 144.531 79.3521C145.858 78.1122 147.622 77.6593 149.441 77.7854C152.66 78.0074 155.532 81.0911 155.532 81.0911C150.4 77.9328 147.072 80.4552 146.702 81.608C147.77 80.2544 153.905 80.0324 156.221 84.6241C153.708 81.5671 146.413 80.5049 145.524 86.4146C152.885 90.1342 148.697 95.7988 148.697 95.7988C149.352 88.2797 141.657 85.951 140.02 85.8125C140.02 85.8125 140.02 85.8107 140.02 85.8089C139.391 83.4464 140.048 80.83 141.496 78.8938C143.107 76.7392 145.579 75.5402 148.231 75.2986C150.926 75.0535 153.64 75.8297 155.889 77.3094C157.369 78.2828 158.656 79.5226 159.74 80.9206L159.738 80.9223Z" fill="white"/>
<g clip-path="url(#clip0_8424_18988)">
<path d="M186.299 5.70997C185.909 5.31997 185.279 5.31997 184.889 5.70997L179.999 10.59L175.109 5.69997C174.719 5.30997 174.089 5.30997 173.699 5.69997C173.309 6.08997 173.309 6.71997 173.699 7.10997L178.589 12L173.699 16.89C173.309 17.28 173.309 17.91 173.699 18.3C174.089 18.69 174.719 18.69 175.109 18.3L179.999 13.41L184.889 18.3C185.279 18.69 185.909 18.69 186.299 18.3C186.689 17.91 186.689 17.28 186.299 16.89L181.409 12L186.299 7.10997C186.679 6.72997 186.679 6.08997 186.299 5.70997Z" fill="white"/>
</g>
<defs>
<linearGradient id="paint0_linear_8424_18988" x1="171.5" y1="36" x2="171.5" y2="378" gradientUnits="userSpaceOnUse">
<stop stop-color="#BDEEFC"/>
<stop offset="1" stop-color="#E5F9FF"/>
</linearGradient>
<clipPath id="clip0_8424_18988">
<rect width="24" height="24" fill="white" transform="translate(168)"/>
</clipPath>
</defs>
</svg>
