<svg width="32" height="39" viewBox="0 0 32 39" fill="none" xmlns="http://www.w3.org/2000/svg">
<g clip-path="url(#clip0_10179_5106)">
<path fill-rule="evenodd" clip-rule="evenodd" d="M28.0007 12.38C28.0396 11.8876 27.9853 11.3923 27.8407 10.92C27.381 10.1169 26.7855 9.39958 26.0807 8.80002C24.5907 7.42002 22.5607 6.08002 21.4407 5.00002L17.8207 1.51002C17.7307 1.43002 17.0607 0.730019 16.7707 0.510019C16.6636 0.401099 16.5284 0.323859 16.3802 0.286806C16.232 0.249753 16.0765 0.254325 15.9307 0.300019C15.5685 0.476923 15.2321 0.702327 14.9307 0.970019C14.3307 1.50002 13.7507 2.21002 13.2607 2.65002C12.1907 3.65002 11.1207 4.57002 10.0907 5.55002C9.06068 6.53002 8.02068 7.55002 7.09068 8.62002C6.48068 9.21002 5.60068 10 5.00068 10.73C4.66699 11.1016 4.40582 11.5323 4.23068 12C3.9953 13.8434 3.91835 15.7035 4.00068 17.56C4.00234 19.4029 4.1562 21.2425 4.46068 23.06C4.47879 23.1195 4.51242 23.1731 4.55812 23.2153C4.60382 23.2575 4.65993 23.2867 4.72068 23.3C4.74368 23.3809 4.79427 23.4512 4.86368 23.4987C4.9331 23.5462 5.01695 23.5679 5.10068 23.56C7.82083 23.4506 10.5449 23.4906 13.2607 23.68C15.1107 23.75 16.9907 23.76 18.7607 23.74C20.7469 23.7432 22.7311 23.6163 24.7007 23.36C24.8025 23.3475 24.8953 23.2953 24.959 23.2148C25.0226 23.1343 25.052 23.032 25.0407 22.93C25.0281 22.8274 24.9763 22.7337 24.8962 22.6684C24.816 22.6032 24.7137 22.5715 24.6107 22.58C21.8837 22.6857 19.1529 22.6423 16.4307 22.45C15.3407 22.45 14.2307 22.38 13.1407 22.37H10.9307C8.98908 22.3982 7.05149 22.5552 5.13068 22.84C4.89029 21.0842 4.79664 19.3114 4.85068 17.54C4.81941 15.7807 4.92977 14.0217 5.18068 12.28C5.37608 11.8438 5.65461 11.4498 6.00068 11.12C6.60068 10.5 7.35068 9.91002 7.84068 9.41002C8.63068 8.61002 9.46068 7.83002 10.2907 7.06002C11.5907 5.90002 12.8607 4.77002 14.1407 3.63002C14.6407 3.20002 15.2107 2.50002 15.8107 1.97002C15.9171 1.87159 16.0307 1.78134 16.1507 1.70002C16.4507 1.99002 16.8307 2.40002 16.8907 2.46002L20.5707 6.00002C21.7307 7.00002 23.7807 8.35002 25.3207 9.69002C25.9387 10.1858 26.4665 10.7846 26.8807 11.46C27.0026 12.1702 27.0228 12.8941 26.9407 13.61C26.8807 16.47 26.5507 21.06 26.7107 23.37C26.7208 23.4734 26.7698 23.5692 26.8477 23.6378C26.9257 23.7065 27.0268 23.743 27.1307 23.74C27.1832 23.7375 27.2348 23.7246 27.2823 23.702C27.3299 23.6795 27.3725 23.6479 27.4078 23.6089C27.4431 23.5698 27.4704 23.5242 27.488 23.4747C27.5057 23.4251 27.5134 23.3726 27.5107 23.32C27.3707 20.61 28.0007 14.92 28.0007 12.38Z" fill="#5A3384"/>
<path d="M17.5708 22.17C17.6623 22.2456 17.7772 22.287 17.8958 22.287C18.0145 22.287 18.1294 22.2456 18.2208 22.17C18.4045 20.6439 18.4814 19.1068 18.4508 17.57C18.4802 17.0504 18.4802 16.5296 18.4508 16.01C18.4083 15.6225 18.3036 15.2443 18.1408 14.89C18.0345 14.7137 17.889 14.5642 17.7156 14.4532C17.5422 14.3422 17.3455 14.2727 17.1408 14.25C16.5484 14.2044 15.9533 14.2044 15.3608 14.25C14.8122 14.1959 14.2595 14.1959 13.7108 14.25C13.3951 14.3115 13.1015 14.4566 12.8608 14.67C12.7 14.835 12.6011 15.0505 12.5808 15.28C12.5108 15.71 12.2408 20.96 12.3708 21.45C12.4011 21.5517 12.4679 21.6385 12.5584 21.6939C12.6488 21.7492 12.7565 21.7692 12.8608 21.75C13.4408 21.64 13.5008 15.42 13.6708 15.4H15.3508C15.7008 15.4 16.0808 15.34 16.5608 15.34C16.7768 15.3469 16.9914 15.3771 17.2008 15.43C17.2979 15.6674 17.3781 15.9114 17.4408 16.16C17.5121 16.6304 17.5555 17.1045 17.5708 17.58C17.6208 18.58 17.5708 19.37 17.5708 20.25C17.4808 20.55 17.3808 22 17.5708 22.17Z" fill="#5A3384"/>
</g>
<path opacity="0.5" d="M5.73234 32.4C5.83901 32.4 5.93234 32.44 6.01234 32.52C6.09768 32.5947 6.14034 32.6907 6.14034 32.808V37.592C6.13501 37.7093 6.08968 37.808 6.00434 37.888C5.92434 37.9627 5.82834 38 5.71634 38C5.59368 38 5.49234 37.9627 5.41234 37.888C5.33768 37.808 5.30034 37.7093 5.30034 37.592V32.808C5.30034 32.6907 5.34034 32.5947 5.42034 32.52C5.50034 32.44 5.60434 32.4 5.73234 32.4ZM9.34034 32.4C9.46834 32.4 9.56968 32.44 9.64434 32.52C9.71901 32.5947 9.75634 32.6907 9.75634 32.808V37.592C9.75634 37.7093 9.71634 37.808 9.63634 37.888C9.56168 37.9627 9.46034 38 9.33234 38C9.22034 38 9.12434 37.9627 9.04434 37.888C8.96434 37.808 8.92434 37.7093 8.92434 37.592V32.808C8.92434 32.6907 8.96434 32.5947 9.04434 32.52C9.12968 32.44 9.22834 32.4 9.34034 32.4ZM5.70034 34.784H9.34834L9.34034 35.552H5.69234L5.70034 34.784ZM14.9943 35.896C14.9943 36.3227 14.901 36.7013 14.7143 37.032C14.5277 37.3573 14.2743 37.6133 13.9543 37.8C13.6343 37.9867 13.2743 38.08 12.8743 38.08C12.4743 38.08 12.1143 37.9867 11.7943 37.8C11.4743 37.6133 11.2183 37.3573 11.0263 37.032C10.8397 36.7013 10.7463 36.3227 10.7463 35.896C10.7463 35.464 10.8397 35.0853 11.0263 34.76C11.2183 34.4293 11.4743 34.1707 11.7943 33.984C12.1143 33.792 12.4743 33.696 12.8743 33.696C13.2743 33.696 13.6343 33.792 13.9543 33.984C14.2743 34.1707 14.5277 34.4293 14.7143 34.76C14.901 35.0853 14.9943 35.464 14.9943 35.896ZM14.1943 35.896C14.1943 35.6027 14.1357 35.3493 14.0183 35.136C13.901 34.9173 13.741 34.7467 13.5383 34.624C13.341 34.496 13.1197 34.432 12.8743 34.432C12.629 34.432 12.405 34.496 12.2023 34.624C11.9997 34.7467 11.8397 34.9173 11.7223 35.136C11.605 35.3493 11.5463 35.6027 11.5463 35.896C11.5463 36.1787 11.605 36.4293 11.7223 36.648C11.8397 36.8667 11.9997 37.0373 12.2023 37.16C12.405 37.2827 12.629 37.344 12.8743 37.344C13.1197 37.344 13.341 37.2827 13.5383 37.16C13.741 37.0373 13.901 36.8667 14.0183 36.648C14.1357 36.4293 14.1943 36.1787 14.1943 35.896ZM18.0118 33.72C18.4065 33.72 18.7105 33.8187 18.9238 34.016C19.1372 34.208 19.2785 34.4693 19.3478 34.8L19.2198 34.76L19.2758 34.632C19.3452 34.4933 19.4492 34.3547 19.5878 34.216C19.7318 34.072 19.9025 33.9547 20.0998 33.864C20.2972 33.768 20.5078 33.72 20.7318 33.72C21.0998 33.72 21.3852 33.8 21.5878 33.96C21.7905 34.1147 21.9318 34.3253 22.0118 34.592C22.0918 34.8533 22.1318 35.1467 22.1318 35.472V37.592C22.1318 37.7093 22.0945 37.808 22.0198 37.888C21.9452 37.9627 21.8492 38 21.7318 38C21.6198 38 21.5238 37.9627 21.4438 37.888C21.3692 37.808 21.3318 37.7093 21.3318 37.592V35.48C21.3318 35.2933 21.3052 35.1227 21.2518 34.968C21.2038 34.8133 21.1158 34.6907 20.9878 34.6C20.8652 34.504 20.6945 34.456 20.4758 34.456C20.2678 34.456 20.0812 34.504 19.9158 34.6C19.7558 34.6907 19.6305 34.8133 19.5398 34.968C19.4492 35.1227 19.4038 35.2933 19.4038 35.48V37.592C19.4038 37.7093 19.3665 37.808 19.2918 37.888C19.2172 37.9627 19.1212 38 19.0038 38C18.8865 38 18.7905 37.9627 18.7158 37.888C18.6412 37.808 18.6038 37.7093 18.6038 37.592V35.472C18.6038 35.2853 18.5772 35.1147 18.5238 34.96C18.4758 34.8053 18.3905 34.6827 18.2678 34.592C18.1452 34.5013 17.9745 34.456 17.7558 34.456C17.5478 34.456 17.3638 34.5013 17.2038 34.592C17.0438 34.6827 16.9185 34.8053 16.8278 34.96C16.7425 35.1147 16.6998 35.2853 16.6998 35.472V37.592C16.6998 37.7093 16.6598 37.808 16.5798 37.888C16.5052 37.9627 16.4118 38 16.2998 38C16.1825 38 16.0865 37.9627 16.0118 37.888C15.9372 37.808 15.8998 37.7093 15.8998 37.592V34.2C15.8998 34.0827 15.9372 33.9867 16.0118 33.912C16.0865 33.832 16.1825 33.792 16.2998 33.792C16.4118 33.792 16.5052 33.832 16.5798 33.912C16.6598 33.9867 16.6998 34.0827 16.6998 34.2V34.672L16.5478 34.76C16.5852 34.6427 16.6465 34.5227 16.7318 34.4C16.8172 34.2773 16.9238 34.1653 17.0518 34.064C17.1852 33.9627 17.3318 33.88 17.4918 33.816C17.6518 33.752 17.8252 33.72 18.0118 33.72ZM25.2114 38.08C24.7687 38.08 24.3847 37.9893 24.0594 37.808C23.7341 37.6213 23.4807 37.368 23.2994 37.048C23.1234 36.7227 23.0354 36.352 23.0354 35.936C23.0354 35.4667 23.1287 35.0667 23.3154 34.736C23.5074 34.4 23.7554 34.144 24.0594 33.968C24.3634 33.7867 24.6861 33.696 25.0274 33.696C25.2887 33.696 25.5367 33.7493 25.7714 33.856C26.0061 33.9573 26.2141 34.1013 26.3954 34.288C26.5821 34.4693 26.7287 34.6853 26.8354 34.936C26.9421 35.1813 26.9981 35.4507 27.0034 35.744C26.9981 35.8507 26.9554 35.9387 26.8754 36.008C26.7954 36.0773 26.7021 36.112 26.5954 36.112H23.4834L23.2914 35.432H26.2994L26.1474 35.576V35.376C26.1367 35.1893 26.0754 35.0267 25.9634 34.888C25.8514 34.744 25.7127 34.6347 25.5474 34.56C25.3821 34.48 25.2087 34.44 25.0274 34.44C24.8674 34.44 24.7127 34.4667 24.5634 34.52C24.4194 34.568 24.2887 34.648 24.1714 34.76C24.0594 34.872 23.9687 35.0213 23.8994 35.208C23.8354 35.3893 23.8034 35.616 23.8034 35.888C23.8034 36.1813 23.8647 36.4373 23.9874 36.656C24.1101 36.8747 24.2754 37.0453 24.4834 37.168C24.6914 37.2853 24.9207 37.344 25.1714 37.344C25.3687 37.344 25.5314 37.3253 25.6594 37.288C25.7874 37.2453 25.8941 37.1947 25.9794 37.136C26.0647 37.0773 26.1394 37.0213 26.2034 36.968C26.2834 36.92 26.3634 36.896 26.4434 36.896C26.5394 36.896 26.6194 36.9307 26.6834 37C26.7474 37.064 26.7794 37.1413 26.7794 37.232C26.7794 37.3493 26.7207 37.456 26.6034 37.552C26.4594 37.6907 26.2594 37.8133 26.0034 37.92C25.7527 38.0267 25.4887 38.08 25.2114 38.08Z" fill="#5A3384"/>
<defs>
<clipPath id="clip0_10179_5106">
<rect width="24" height="24" fill="white" transform="translate(4)"/>
</clipPath>
</defs>
</svg>
