<svg width="38" height="39" viewBox="0 0 38 39" fill="none" xmlns="http://www.w3.org/2000/svg">
<g clip-path="url(#clip0_10179_5200)">
<path fill-rule="evenodd" clip-rule="evenodd" d="M21.3752 12.85C21.3025 12.9231 21.2617 13.0219 21.2617 13.125C21.2617 13.2281 21.3025 13.3269 21.3752 13.4C22.0189 13.9552 22.8353 14.2698 23.6852 14.29C23.6852 14.53 23.6852 14.78 23.7552 15.02C23.7552 15.1234 23.7963 15.2226 23.8694 15.2958C23.9425 15.3689 24.0417 15.41 24.1452 15.41C24.2486 15.41 24.3478 15.3689 24.4209 15.2958C24.4941 15.2226 24.5352 15.1234 24.5352 15.02V14.31C24.7987 14.2854 25.0596 14.2386 25.3152 14.17C25.5933 14.1121 25.8566 13.9976 26.0885 13.8335C26.3205 13.6695 26.5162 13.4594 26.6635 13.2165C26.8108 12.9735 26.9065 12.7028 26.9446 12.4213C26.9827 12.1398 26.9625 11.8534 26.8852 11.58C26.8238 11.3171 26.6932 11.0755 26.5067 10.8803C26.3203 10.6851 26.0849 10.5434 25.8252 10.47C25.4622 10.3818 25.0876 10.3514 24.7152 10.38V9.71V9.12C25.0603 9.146 25.3984 9.23054 25.7152 9.37C25.7964 9.40904 25.8896 9.41523 25.9753 9.38729C26.061 9.35934 26.1326 9.29942 26.1752 9.22C26.1962 9.18061 26.2092 9.13746 26.2136 9.09302C26.2179 9.04858 26.2134 9.00372 26.2004 8.96101C26.1874 8.91829 26.1662 8.87856 26.1378 8.84407C26.1094 8.80958 26.0746 8.78101 26.0352 8.76C25.6098 8.53588 25.1503 8.38381 24.6752 8.31V6.85C24.6836 6.75868 24.6558 6.6677 24.5979 6.59663C24.5399 6.52557 24.4563 6.4801 24.3652 6.47C24.3205 6.46588 24.2754 6.47065 24.2326 6.48403C24.1898 6.49741 24.15 6.51913 24.1156 6.54795C24.0812 6.57677 24.0529 6.61211 24.0322 6.65194C24.0115 6.69176 23.9989 6.73529 23.9952 6.78C23.8952 7.26 23.8252 7.78 23.7352 8.25C23.4783 8.25574 23.2231 8.29267 22.9752 8.36C22.7538 8.39927 22.5427 8.48281 22.3544 8.60563C22.1661 8.72846 22.0046 8.88803 21.8795 9.07478C21.7544 9.26154 21.6682 9.47163 21.6262 9.69247C21.5843 9.91332 21.5873 10.1404 21.6352 10.36C21.6606 10.625 21.7604 10.8773 21.9232 11.0879C22.086 11.2985 22.3051 11.4587 22.5552 11.55C22.8386 11.6458 23.1361 11.6931 23.4352 11.69V12.14C23.4352 12.56 23.5152 12.96 23.5652 13.37C22.9631 13.3991 22.3695 13.2189 21.8852 12.86C21.8155 12.7974 21.7257 12.7619 21.632 12.7601C21.5384 12.7582 21.4472 12.7902 21.3752 12.85ZM25.3752 11.67C25.5252 11.67 25.6552 11.73 25.7052 11.9C25.9452 12.63 25.3552 13.04 24.6452 13.23L24.7052 12.13V11.65C24.9284 11.6268 25.1537 11.6335 25.3752 11.67ZM22.8152 10.12C22.6752 9.55 23.0952 9.28 23.6052 9.12C23.6052 9.28 23.5452 9.43 23.5252 9.59C23.5052 9.75 23.5252 10.1 23.4752 10.35C23.3621 10.36 23.2483 10.36 23.1352 10.35C22.9952 10.35 22.8552 10.3 22.8152 10.12Z" fill="#5A3384"/>
<path fill-rule="evenodd" clip-rule="evenodd" d="M29.4361 6.58C29.3161 4.68 29.1161 2.79 28.8061 0.860001C28.7924 0.799023 28.7611 0.7434 28.7161 0.700001C28.7161 0.700001 28.7161 0.700001 28.7161 0.640001C28.6527 0.557984 28.5599 0.503801 28.4573 0.488877C28.3547 0.473953 28.2503 0.499453 28.1661 0.560001C27.8261 0.800001 27.2861 1.31 26.7561 1.7C26.2261 2.09 26.4961 2.27 24.7561 0.620001C24.6035 0.458663 24.4398 0.308289 24.2661 0.170001C24.1801 0.108995 24.0805 0.0698337 23.976 0.0558963C23.8714 0.0419588 23.7651 0.0536638 23.6661 0.0900014C23.3556 0.214698 23.0783 0.409827 22.8561 0.660001C22.4561 1.07 22.0761 1.66 21.7761 1.95C21.4003 1.44533 20.9821 0.973621 20.5261 0.540001C20.3337 0.338772 20.0971 0.185184 19.8349 0.0914429C19.5728 -0.00229807 19.2924 -0.033608 19.0161 1.35694e-06C18.6688 0.0814509 18.3526 0.262115 18.1061 0.520001C17.7013 0.988684 17.3271 1.48305 16.9861 2C16.8628 2.20442 16.6954 2.37868 16.4961 2.51C16.3661 2.36 16.2361 2.15 16.2061 2.12L14.1361 0.340001C14.0715 0.280816 13.9866 0.248822 13.8991 0.250685C13.8115 0.252548 13.7281 0.288124 13.6661 0.350001C13.6661 0.350001 13.6661 0.410001 13.6661 0.430001C13.6079 0.458827 13.5586 0.50286 13.5234 0.557435C13.4882 0.61201 13.4684 0.675094 13.4661 0.740001C13.4661 3.05 13.4661 5.36 13.5361 7.67V9.95V12.24C13.5361 13.19 13.5361 14.13 13.4061 15.09C13.3942 15.1785 13.4166 15.2681 13.4687 15.3406C13.5207 15.4131 13.5985 15.4629 13.6861 15.48C13.7756 15.4891 13.8652 15.4644 13.9374 15.4107C14.0096 15.3571 14.0591 15.2783 14.0761 15.19C14.4761 13.2776 14.7037 11.3331 14.7561 9.38C14.7561 8.22 14.7561 7.05 14.6461 5.89C14.6661 4.42 14.4661 3 14.3161 1.49L15.5761 2.77C15.7418 2.97944 15.9187 3.17974 16.1061 3.37C16.1679 3.42544 16.2412 3.4667 16.3206 3.49088C16.4001 3.51506 16.4838 3.52159 16.5661 3.51C16.9014 3.44724 17.2109 3.28727 17.4561 3.05C17.8191 2.69352 18.1535 2.30899 18.4561 1.9C18.7161 1.61 18.9461 1.31 19.2361 1.27C19.3161 1.27 19.3861 1.32 19.4561 1.37C19.6118 1.47818 19.7559 1.60217 19.8861 1.74C20.4661 2.33 21.0161 3.13 21.3661 3.41C21.5121 3.49481 21.6817 3.52994 21.8494 3.5101C22.0171 3.49027 22.1739 3.41654 22.2961 3.3L22.6961 2.84C22.9861 2.52 23.3461 1.92 23.6961 1.49C23.7373 1.43215 23.7842 1.37855 23.8361 1.33C23.8659 1.37869 23.903 1.42253 23.9461 1.46C24.1161 1.6 24.7361 2.38 25.1961 2.76C25.4019 2.95114 25.6661 3.06739 25.9461 3.09C26.3339 3.02438 26.6967 2.85506 26.9961 2.6C27.3761 2.3 27.7561 1.93 28.0961 1.6C28.2561 3.29 28.3661 4.95 28.3961 6.6C28.3961 8.48 28.3961 10.36 28.2661 12.28C28.2061 13.73 28.1461 15.21 27.9661 16.66C27.8552 17.5995 27.6577 18.5268 27.3761 19.43C27.0394 20.3717 26.39 21.1694 25.5361 21.69C25.1585 21.9707 24.7039 22.1289 24.2337 22.1432C23.7634 22.1575 23.3 22.0273 22.9061 21.77C22.5204 21.4812 22.2142 21.0993 22.0161 20.66C21.7008 19.9364 21.5049 19.1664 21.4361 18.38C21.4235 18.2774 21.3717 18.1837 21.2916 18.1184C21.2114 18.0532 21.1091 18.0215 21.0061 18.03C20.9175 18.0409 20.8358 18.0836 20.7761 18.15C20.9379 17.9815 21.1081 17.8213 21.2861 17.67C21.3353 17.6434 21.3782 17.6066 21.4119 17.562C21.4457 17.5174 21.4694 17.466 21.4815 17.4114C21.4937 17.3569 21.4939 17.3003 21.4823 17.2456C21.4706 17.1909 21.4473 17.1394 21.414 17.0944C21.3807 17.0495 21.3381 17.0123 21.2891 16.9853C21.2402 16.9583 21.186 16.9422 21.1302 16.9379C21.0744 16.9337 21.0184 16.9415 20.966 16.9609C20.9135 16.9802 20.8658 17.0106 20.8261 17.05C20.4361 17.31 19.8261 17.91 19.2761 18.29L19.0161 18.47C18.8839 18.3403 18.7399 18.2231 18.5861 18.12C18.0691 17.5411 17.5181 16.9934 16.9361 16.48C16.6709 16.2625 16.3391 16.1425 15.9961 16.14C15.6712 16.2015 15.3719 16.3582 15.1361 16.59C14.7255 17.0265 14.354 17.4984 14.0261 18C13.7861 17.74 13.5061 17.32 13.2061 17C12.9975 16.7736 12.7365 16.6019 12.4461 16.5C12.3542 16.4718 12.2572 16.4644 12.1621 16.4783C12.067 16.4921 11.9762 16.5268 11.8961 16.58C11.7388 16.7048 11.5917 16.8419 11.4561 16.99L10.3261 18.45L10.1461 18.35L8.28609 17C8.22174 16.9598 8.14517 16.9437 8.07007 16.9547C7.99497 16.9657 7.92622 17.003 7.87609 17.06H7.82609C7.77982 17.1132 7.75179 17.1798 7.74609 17.25L7.85609 20C7.90527 20.6649 8.11239 21.3084 8.46024 21.8771C8.80809 22.4458 9.28662 22.9234 9.85609 23.27C10.9777 23.9091 12.2734 24.1752 13.5561 24.03C14.1061 23.98 15.1461 23.96 16.3661 23.92C17.5861 23.88 19.2961 23.78 20.6661 23.69C22.2721 23.5582 23.8684 23.3278 25.4461 23C26.1704 22.7271 26.8304 22.3072 27.3845 21.7668C27.9387 21.2264 28.375 20.5772 28.6661 19.86C29.0022 18.8868 29.2368 17.8815 29.3661 16.86C29.544 15.3665 29.6374 13.8641 29.6461 12.36C29.6661 10.39 29.5761 8.49 29.4361 6.58ZM21.6661 22.65H15.9561C14.8861 22.65 13.9561 22.65 13.4661 22.71C12.4416 22.8681 11.3932 22.7039 10.4661 22.24C10.0249 22.0069 9.64302 21.6756 9.35002 21.2716C9.05701 20.8677 8.86066 20.4018 8.77609 19.91L8.55609 18.09L8.62609 18.15C8.96609 18.45 9.28609 18.76 9.62609 19.07C9.62609 19.07 9.91609 19.38 10.0261 19.48C10.0893 19.5391 10.167 19.5804 10.2513 19.5997C10.3356 19.619 10.4235 19.6157 10.5061 19.59C10.7274 19.5075 10.9262 19.3739 11.0861 19.2C11.4861 18.82 11.9861 18.12 12.2761 17.89L13.2761 19.03C13.2761 19.03 13.5561 19.31 13.6661 19.41C13.8046 19.531 13.9822 19.5976 14.1661 19.5976C14.35 19.5976 14.5276 19.531 14.6661 19.41C14.8661 19.21 15.3361 18.52 15.8161 17.96C15.9434 17.8017 16.0839 17.6546 16.2361 17.52C16.2645 17.4982 16.2883 17.471 16.3061 17.44C16.9415 17.88 17.5341 18.3789 18.0761 18.93C18.2555 19.1146 18.4459 19.2882 18.6461 19.45C18.7599 19.5383 18.9025 19.5811 19.0461 19.57C19.417 19.4868 19.761 19.3114 20.0461 19.06C20.3461 18.81 20.6461 18.51 20.9361 18.23C20.9053 18.2673 20.8823 18.3105 20.8686 18.3569C20.8549 18.4032 20.8506 18.4519 20.8561 18.5C20.9041 19.3811 21.0932 20.2488 21.4161 21.07C21.6624 21.656 22.0508 22.1715 22.5461 22.57L22.6461 22.64C22.2261 22.63 21.9461 22.65 21.6661 22.65Z" fill="#5A3384"/>
<path fill-rule="evenodd" clip-rule="evenodd" d="M18.5444 5.16999C18.1975 5.09537 17.847 5.03863 17.4944 4.99999H17.0344C16.8781 4.98474 16.7206 4.98474 16.5644 4.99999C16.2176 5.10549 15.8825 5.24623 15.5644 5.41999C15.4931 5.45037 15.4339 5.50353 15.3961 5.57114C15.3583 5.63876 15.344 5.71702 15.3554 5.79364C15.3668 5.87027 15.4034 5.94093 15.4593 5.99456C15.5152 6.04819 15.5873 6.08176 15.6644 6.08999C16.0144 6.08999 16.3244 6.19999 16.6644 6.22999H17.0844L17.5144 6.17999L18.5144 5.94999C18.5659 5.95271 18.6175 5.94489 18.6659 5.92702C18.7144 5.90914 18.7586 5.88158 18.7961 5.84602C18.8335 5.81046 18.8633 5.76764 18.8836 5.72019C18.904 5.67273 18.9144 5.62162 18.9144 5.56999C18.9146 5.46891 18.8766 5.37146 18.808 5.29725C18.7394 5.22304 18.6452 5.17757 18.5444 5.16999Z" fill="#5A3384"/>
<path fill-rule="evenodd" clip-rule="evenodd" d="M17.5475 7.37C17.3611 7.35474 17.1738 7.35474 16.9875 7.37C16.5404 7.47864 16.0997 7.61218 15.6675 7.77C15.5773 7.77663 15.4935 7.81881 15.4344 7.88726C15.3753 7.95571 15.3459 8.04483 15.3525 8.135C15.3591 8.22517 15.4013 8.30902 15.4697 8.36809C15.5382 8.42717 15.6273 8.45663 15.7175 8.45C16.1575 8.52 16.5575 8.62 17.0075 8.67C17.184 8.6801 17.361 8.6801 17.5375 8.67C17.7171 8.68571 17.8978 8.68571 18.0775 8.67C18.5175 8.61 18.9275 8.52 19.3575 8.44C19.4132 8.44901 19.4703 8.44581 19.5247 8.43061C19.5791 8.41541 19.6295 8.38858 19.6725 8.35196C19.7155 8.31535 19.7501 8.26983 19.7738 8.21856C19.7975 8.16729 19.8097 8.11148 19.8097 8.055C19.8097 7.99852 19.7975 7.94271 19.7738 7.89144C19.7501 7.84016 19.7155 7.79465 19.6725 7.75803C19.6295 7.72142 19.5791 7.69459 19.5247 7.67939C19.4703 7.66419 19.4132 7.66098 19.3575 7.67C18.9275 7.58 18.5075 7.49 18.0675 7.44C17.8955 7.40771 17.7219 7.38434 17.5475 7.37Z" fill="#5A3384"/>
</g>
<path opacity="0.5" d="M2.25556 32.4C2.53823 32.4 2.79956 32.4773 3.03956 32.632C3.27956 32.7813 3.47156 32.9867 3.61556 33.248C3.75956 33.5093 3.83156 33.8027 3.83156 34.128C3.83156 34.4533 3.75956 34.7493 3.61556 35.016C3.47156 35.2773 3.27956 35.488 3.03956 35.648C2.79956 35.8027 2.53823 35.88 2.25556 35.88H0.711563L0.775563 35.752V37.592C0.775563 37.7093 0.738229 37.808 0.663563 37.888C0.594229 37.9627 0.500896 38 0.383563 38C0.271563 38 0.178229 37.9627 0.103563 37.888C0.0342292 37.808 -0.000437498 37.7093 -0.000437498 37.592V32.808C-0.000437498 32.6907 0.0395625 32.5947 0.119563 32.52C0.199563 32.44 0.295563 32.4 0.407562 32.4H2.25556ZM2.25556 35.112C2.39423 35.112 2.51956 35.0667 2.63156 34.976C2.7489 34.8853 2.84223 34.7653 2.91156 34.616C2.98623 34.4667 3.02356 34.304 3.02356 34.128C3.02356 33.952 2.98623 33.792 2.91156 33.648C2.84223 33.504 2.7489 33.3893 2.63156 33.304C2.51956 33.2133 2.39423 33.168 2.25556 33.168H0.695563L0.775563 33.048V35.216L0.703563 35.112H2.25556ZM7.81319 33.792C7.92519 33.792 8.01852 33.832 8.09319 33.912C8.17319 33.9867 8.21319 34.0827 8.21319 34.2V36.304C8.21319 36.8587 8.05852 37.2933 7.74919 37.608C7.43985 37.9173 7.00252 38.072 6.43719 38.072C5.87719 38.072 5.44252 37.9173 5.13319 37.608C4.82919 37.2933 4.67719 36.8587 4.67719 36.304V34.2C4.67719 34.0827 4.71452 33.9867 4.78919 33.912C4.86385 33.832 4.95985 33.792 5.07719 33.792C5.18919 33.792 5.28252 33.832 5.35719 33.912C5.43719 33.9867 5.47719 34.0827 5.47719 34.2V36.304C5.47719 36.6507 5.55719 36.9093 5.71719 37.08C5.88252 37.2507 6.12252 37.336 6.43719 37.336C6.75719 37.336 6.99985 37.2507 7.16519 37.08C7.33052 36.9093 7.41319 36.6507 7.41319 36.304V34.2C7.41319 34.0827 7.45052 33.9867 7.52519 33.912C7.59985 33.832 7.69585 33.792 7.81319 33.792ZM9.72563 38C9.60829 38 9.51229 37.9627 9.43763 37.888C9.36296 37.808 9.32563 37.7093 9.32563 37.592V34.2C9.32563 34.0827 9.36296 33.9867 9.43763 33.912C9.51229 33.832 9.60829 33.792 9.72563 33.792C9.83763 33.792 9.93096 33.832 10.0056 33.912C10.0856 33.9867 10.1256 34.0827 10.1256 34.2V35.096L10.0456 34.752C10.0883 34.6027 10.1523 34.464 10.2376 34.336C10.3283 34.208 10.435 34.096 10.5576 34C10.6803 33.904 10.8163 33.8293 10.9656 33.776C11.1203 33.7227 11.2803 33.696 11.4456 33.696C11.5843 33.696 11.7043 33.7333 11.8056 33.808C11.907 33.8827 11.9576 33.976 11.9576 34.088C11.9576 34.232 11.9203 34.3387 11.8456 34.408C11.771 34.472 11.6883 34.504 11.5976 34.504C11.5176 34.504 11.4403 34.488 11.3656 34.456C11.291 34.4187 11.203 34.4 11.1016 34.4C10.9896 34.4 10.875 34.4293 10.7576 34.488C10.6403 34.5467 10.5336 34.6347 10.4376 34.752C10.3416 34.864 10.2643 34.9973 10.2056 35.152C10.1523 35.3067 10.1256 35.48 10.1256 35.672V37.592C10.1256 37.7093 10.0856 37.808 10.0056 37.888C9.93096 37.9627 9.83763 38 9.72563 38ZM14.3537 33.696C14.6417 33.696 14.8977 33.728 15.1217 33.792C15.3457 33.8507 15.519 33.936 15.6417 34.048C15.7697 34.1547 15.8337 34.28 15.8337 34.424C15.8337 34.5147 15.807 34.6 15.7537 34.68C15.7004 34.7547 15.6204 34.792 15.5137 34.792C15.439 34.792 15.375 34.7787 15.3217 34.752C15.2737 34.7253 15.2284 34.6933 15.1857 34.656C15.143 34.6187 15.0897 34.5813 15.0257 34.544C14.967 34.512 14.879 34.4853 14.7617 34.464C14.6497 34.4427 14.5484 34.432 14.4577 34.432C14.175 34.432 13.9297 34.496 13.7217 34.624C13.519 34.752 13.359 34.9253 13.2417 35.144C13.1297 35.3627 13.0737 35.6107 13.0737 35.888C13.0737 36.1653 13.1297 36.4133 13.2417 36.632C13.359 36.8507 13.5164 37.024 13.7137 37.152C13.9164 37.28 14.151 37.344 14.4177 37.344C14.5777 37.344 14.7084 37.3333 14.8097 37.312C14.911 37.2853 14.999 37.2533 15.0737 37.216C15.1537 37.168 15.2204 37.12 15.2737 37.072C15.3324 37.0187 15.4124 36.992 15.5137 36.992C15.631 36.992 15.719 37.0293 15.7777 37.104C15.8417 37.1733 15.8737 37.2613 15.8737 37.368C15.8737 37.4853 15.8017 37.6 15.6577 37.712C15.519 37.8187 15.3324 37.9067 15.0977 37.976C14.863 38.0453 14.6044 38.08 14.3217 38.08C13.9057 38.08 13.543 37.984 13.2337 37.792C12.9297 37.6 12.6924 37.3387 12.5217 37.008C12.3564 36.6773 12.2737 36.304 12.2737 35.888C12.2737 35.4667 12.3617 35.0933 12.5377 34.768C12.7137 34.4373 12.959 34.176 13.2737 33.984C13.5884 33.792 13.9484 33.696 14.3537 33.696ZM18.7581 33.72C19.1261 33.72 19.4115 33.8 19.6141 33.96C19.8168 34.1147 19.9581 34.3253 20.0381 34.592C20.1235 34.8587 20.1661 35.152 20.1661 35.472V37.592C20.1661 37.7093 20.1261 37.808 20.0461 37.888C19.9715 37.9627 19.8781 38 19.7661 38C19.6488 38 19.5528 37.9627 19.4781 37.888C19.4035 37.808 19.3661 37.7093 19.3661 37.592V35.472C19.3661 35.2853 19.3395 35.1147 19.2861 34.96C19.2381 34.8053 19.1501 34.6827 19.0221 34.592C18.8995 34.5013 18.7261 34.456 18.5021 34.456C18.2941 34.456 18.1075 34.5013 17.9421 34.592C17.7821 34.6827 17.6568 34.8053 17.5661 34.96C17.4808 35.1147 17.4381 35.2853 17.4381 35.472V37.592C17.4381 37.7093 17.3981 37.808 17.3181 37.888C17.2435 37.9627 17.1501 38 17.0381 38C16.9208 38 16.8248 37.9627 16.7501 37.888C16.6755 37.808 16.6381 37.7093 16.6381 37.592V32.488C16.6381 32.3707 16.6755 32.2747 16.7501 32.2C16.8248 32.12 16.9208 32.08 17.0381 32.08C17.1501 32.08 17.2435 32.12 17.3181 32.2C17.3981 32.2747 17.4381 32.3707 17.4381 32.488V34.672L17.2941 34.752C17.3315 34.6347 17.3928 34.5147 17.4781 34.392C17.5688 34.2693 17.6781 34.1573 17.8061 34.056C17.9395 33.9547 18.0861 33.8747 18.2461 33.816C18.4061 33.752 18.5768 33.72 18.7581 33.72ZM24.7268 33.728C24.8441 33.728 24.9401 33.768 25.0148 33.848C25.0894 33.9227 25.1267 34.0187 25.1267 34.136V37.592C25.1267 37.7093 25.0894 37.808 25.0148 37.888C24.9401 37.9627 24.8441 38 24.7268 38C24.6148 38 24.5188 37.9627 24.4388 37.888C24.3641 37.808 24.3268 37.7093 24.3268 37.592V37.016L24.4948 37.04C24.4948 37.136 24.4548 37.2427 24.3748 37.36C24.3001 37.4773 24.1961 37.592 24.0628 37.704C23.9294 37.8107 23.7721 37.9013 23.5908 37.976C23.4094 38.0453 23.2148 38.08 23.0068 38.08C22.6388 38.08 22.3081 37.9867 22.0148 37.8C21.7214 37.608 21.4894 37.3467 21.3188 37.016C21.1481 36.6853 21.0628 36.3093 21.0628 35.888C21.0628 35.456 21.1481 35.0773 21.3188 34.752C21.4894 34.4213 21.7188 34.1627 22.0068 33.976C22.3001 33.7893 22.6254 33.696 22.9828 33.696C23.2121 33.696 23.4228 33.7333 23.6148 33.808C23.8121 33.8827 23.9828 33.9787 24.1268 34.096C24.2708 34.2133 24.3801 34.3387 24.4548 34.472C24.5348 34.6 24.5748 34.7227 24.5748 34.84L24.3268 34.864V34.136C24.3268 34.024 24.3641 33.928 24.4388 33.848C24.5188 33.768 24.6148 33.728 24.7268 33.728ZM23.0948 37.344C23.3454 37.344 23.5668 37.28 23.7588 37.152C23.9508 37.024 24.1001 36.8507 24.2068 36.632C24.3134 36.408 24.3668 36.16 24.3668 35.888C24.3668 35.6107 24.3134 35.3627 24.2068 35.144C24.1001 34.9253 23.9508 34.752 23.7588 34.624C23.5668 34.496 23.3454 34.432 23.0948 34.432C22.8494 34.432 22.6308 34.496 22.4388 34.624C22.2521 34.752 22.1028 34.9253 21.9908 35.144C21.8841 35.3627 21.8308 35.6107 21.8308 35.888C21.8308 36.16 21.8841 36.408 21.9908 36.632C22.1028 36.8507 22.2521 37.024 22.4388 37.152C22.6308 37.28 22.8494 37.344 23.0948 37.344ZM25.9995 37.344C25.9515 37.2693 25.9302 37.184 25.9355 37.088C25.9408 36.9867 25.9968 36.9013 26.1035 36.832C26.1782 36.784 26.2555 36.7653 26.3355 36.776C26.4208 36.7813 26.5008 36.8213 26.5755 36.896C26.7248 37.0613 26.8902 37.192 27.0715 37.288C27.2582 37.384 27.4822 37.432 27.7435 37.432C27.8502 37.4267 27.9595 37.4107 28.0715 37.384C28.1835 37.352 28.2795 37.2987 28.3595 37.224C28.4395 37.144 28.4795 37.0293 28.4795 36.88C28.4795 36.7467 28.4368 36.64 28.3515 36.56C28.2662 36.48 28.1542 36.416 28.0155 36.368C27.8768 36.3147 27.7275 36.2667 27.5675 36.224C27.3968 36.176 27.2235 36.1227 27.0475 36.064C26.8768 36.0053 26.7222 35.9307 26.5835 35.84C26.4448 35.744 26.3302 35.6213 26.2395 35.472C26.1542 35.3227 26.1115 35.1387 26.1115 34.92C26.1115 34.6693 26.1808 34.4533 26.3195 34.272C26.4635 34.0907 26.6475 33.9493 26.8715 33.848C27.1008 33.7467 27.3488 33.696 27.6155 33.696C27.7702 33.696 27.9328 33.7173 28.1035 33.76C28.2742 33.7973 28.4395 33.8587 28.5995 33.944C28.7595 34.0293 28.8982 34.1413 29.0155 34.28C29.0688 34.3493 29.0982 34.432 29.1035 34.528C29.1142 34.624 29.0715 34.7093 28.9755 34.784C28.9115 34.8373 28.8342 34.8613 28.7435 34.856C28.6528 34.8507 28.5782 34.8213 28.5195 34.768C28.4182 34.64 28.2875 34.5413 28.1275 34.472C27.9675 34.3973 27.7862 34.36 27.5835 34.36C27.4822 34.36 27.3755 34.376 27.2635 34.408C27.1568 34.4347 27.0662 34.4853 26.9915 34.56C26.9168 34.6347 26.8795 34.744 26.8795 34.888C26.8795 35.0213 26.9222 35.128 27.0075 35.208C27.0982 35.288 27.2155 35.3547 27.3595 35.408C27.5035 35.4613 27.6608 35.5093 27.8315 35.552C27.9968 35.5947 28.1595 35.6453 28.3195 35.704C28.4848 35.7627 28.6315 35.84 28.7595 35.936C28.8928 36.0267 28.9995 36.1467 29.0795 36.296C29.1648 36.44 29.2075 36.624 29.2075 36.848C29.2075 37.1093 29.1302 37.3333 28.9755 37.52C28.8262 37.7013 28.6342 37.84 28.3995 37.936C28.1702 38.032 27.9275 38.08 27.6715 38.08C27.3675 38.08 27.0635 38.0267 26.7595 37.92C26.4608 37.808 26.2075 37.616 25.9995 37.344ZM32.0278 38.08C31.5851 38.08 31.2011 37.9893 30.8758 37.808C30.5505 37.6213 30.2971 37.368 30.1158 37.048C29.9398 36.7227 29.8518 36.352 29.8518 35.936C29.8518 35.4667 29.9451 35.0667 30.1318 34.736C30.3238 34.4 30.5718 34.144 30.8758 33.968C31.1798 33.7867 31.5025 33.696 31.8438 33.696C32.1051 33.696 32.3531 33.7493 32.5878 33.856C32.8225 33.9573 33.0305 34.1013 33.2118 34.288C33.3985 34.4693 33.5451 34.6853 33.6518 34.936C33.7585 35.1813 33.8145 35.4507 33.8198 35.744C33.8145 35.8507 33.7718 35.9387 33.6918 36.008C33.6118 36.0773 33.5185 36.112 33.4118 36.112H30.2998L30.1078 35.432H33.1158L32.9638 35.576V35.376C32.9531 35.1893 32.8918 35.0267 32.7798 34.888C32.6678 34.744 32.5291 34.6347 32.3638 34.56C32.1985 34.48 32.0251 34.44 31.8438 34.44C31.6838 34.44 31.5291 34.4667 31.3798 34.52C31.2358 34.568 31.1051 34.648 30.9878 34.76C30.8758 34.872 30.7851 35.0213 30.7158 35.208C30.6518 35.3893 30.6198 35.616 30.6198 35.888C30.6198 36.1813 30.6811 36.4373 30.8038 36.656C30.9265 36.8747 31.0918 37.0453 31.2998 37.168C31.5078 37.2853 31.7371 37.344 31.9878 37.344C32.1851 37.344 32.3478 37.3253 32.4758 37.288C32.6038 37.2453 32.7105 37.1947 32.7958 37.136C32.8811 37.0773 32.9558 37.0213 33.0198 36.968C33.0998 36.92 33.1798 36.896 33.2598 36.896C33.3558 36.896 33.4358 36.9307 33.4998 37C33.5638 37.064 33.5958 37.1413 33.5958 37.232C33.5958 37.3493 33.5371 37.456 33.4198 37.552C33.2758 37.6907 33.0758 37.8133 32.8198 37.92C32.5691 38.0267 32.3051 38.08 32.0278 38.08ZM34.4761 37.344C34.4281 37.2693 34.4067 37.184 34.4121 37.088C34.4174 36.9867 34.4734 36.9013 34.5801 36.832C34.6547 36.784 34.7321 36.7653 34.8121 36.776C34.8974 36.7813 34.9774 36.8213 35.0521 36.896C35.2014 37.0613 35.3667 37.192 35.5481 37.288C35.7347 37.384 35.9587 37.432 36.2201 37.432C36.3267 37.4267 36.4361 37.4107 36.5481 37.384C36.6601 37.352 36.7561 37.2987 36.8361 37.224C36.9161 37.144 36.9561 37.0293 36.9561 36.88C36.9561 36.7467 36.9134 36.64 36.8281 36.56C36.7427 36.48 36.6307 36.416 36.4921 36.368C36.3534 36.3147 36.2041 36.2667 36.0441 36.224C35.8734 36.176 35.7001 36.1227 35.5241 36.064C35.3534 36.0053 35.1987 35.9307 35.0601 35.84C34.9214 35.744 34.8067 35.6213 34.7161 35.472C34.6307 35.3227 34.5881 35.1387 34.5881 34.92C34.5881 34.6693 34.6574 34.4533 34.7961 34.272C34.9401 34.0907 35.1241 33.9493 35.3481 33.848C35.5774 33.7467 35.8254 33.696 36.0921 33.696C36.2467 33.696 36.4094 33.7173 36.5801 33.76C36.7507 33.7973 36.9161 33.8587 37.0761 33.944C37.2361 34.0293 37.3747 34.1413 37.4921 34.28C37.5454 34.3493 37.5747 34.432 37.5801 34.528C37.5907 34.624 37.5481 34.7093 37.4521 34.784C37.3881 34.8373 37.3107 34.8613 37.2201 34.856C37.1294 34.8507 37.0547 34.8213 36.9961 34.768C36.8947 34.64 36.7641 34.5413 36.6041 34.472C36.4441 34.3973 36.2627 34.36 36.0601 34.36C35.9587 34.36 35.8521 34.376 35.7401 34.408C35.6334 34.4347 35.5427 34.4853 35.4681 34.56C35.3934 34.6347 35.3561 34.744 35.3561 34.888C35.3561 35.0213 35.3987 35.128 35.4841 35.208C35.5747 35.288 35.6921 35.3547 35.8361 35.408C35.9801 35.4613 36.1374 35.5093 36.3081 35.552C36.4734 35.5947 36.6361 35.6453 36.7961 35.704C36.9614 35.7627 37.1081 35.84 37.2361 35.936C37.3694 36.0267 37.4761 36.1467 37.5561 36.296C37.6414 36.44 37.6841 36.624 37.6841 36.848C37.6841 37.1093 37.6067 37.3333 37.4521 37.52C37.3027 37.7013 37.1107 37.84 36.8761 37.936C36.6467 38.032 36.4041 38.08 36.1481 38.08C35.8441 38.08 35.5401 38.0267 35.2361 37.92C34.9374 37.808 34.6841 37.616 34.4761 37.344Z" fill="#5A3384"/>
<defs>
<clipPath id="clip0_10179_5200">
<rect width="24" height="24" fill="white" transform="translate(6.66797)"/>
</clipPath>
</defs>
</svg>
