<svg width="56" height="56" viewBox="0 0 56 56" fill="none" xmlns="http://www.w3.org/2000/svg">
<rect width="56" height="56" rx="28" fill="#FFCE3C"/>
<g clip-path="url(#clip0_10179_5120)">
<path fill-rule="evenodd" clip-rule="evenodd" d="M36.5507 25.7C33.8607 26.59 31.2307 27.7 28.5507 28.63C27.4107 29.04 26.2807 29.43 25.1207 29.78C24.9707 29.78 24.7607 29.9 24.5807 29.96C24.1707 28.53 23.7907 27.09 23.3707 25.66C23.0507 24.56 22.7207 23.46 22.3707 22.38C21.7207 20.58 21.0007 18.85 20.1707 17.13C20.4107 17.02 20.6407 16.9 20.8807 16.8C21.4307 16.58 22.0007 16.38 22.5707 16.18C23.4107 15.88 24.2707 15.59 25.1307 15.3C27.3907 14.54 29.6407 13.82 31.6307 13.03C31.7243 12.9961 31.8008 12.9268 31.8438 12.837C31.8868 12.7472 31.8929 12.6442 31.8607 12.55C31.8268 12.4564 31.7575 12.3799 31.6677 12.3369C31.578 12.2939 31.4749 12.2878 31.3807 12.32C29.6307 12.86 27.6707 13.32 25.7107 13.83C24.4323 14.174 23.1737 14.5879 21.9407 15.07C19.8807 15.9 15.6207 18.35 16.2407 19.07C16.2971 19.1337 16.376 19.1731 16.4607 19.18L17.9407 24.49C18.2407 25.55 18.5207 26.6 18.8307 27.66C19.0407 28.36 19.2507 29.07 19.4907 29.77C19.6243 30.2329 19.7949 30.6844 20.0007 31.12C20.1487 31.422 20.3909 31.6677 20.6907 31.82C21.2322 32.0151 21.8171 32.0567 22.3807 31.94C23.4487 31.6895 24.4953 31.3552 25.5107 30.94C26.6707 30.55 27.8207 30.12 28.9607 29.66C31.5807 28.59 34.1607 27.4 36.8107 26.39C36.8622 26.3769 36.9104 26.3531 36.9521 26.3202C36.9938 26.2873 37.0282 26.246 37.053 26.199C37.0777 26.1519 37.0924 26.1003 37.0959 26.0472C37.0995 25.9942 37.0919 25.941 37.0736 25.8911C37.0553 25.8412 37.0268 25.7957 36.9898 25.7575C36.9529 25.7193 36.9083 25.6893 36.8591 25.6694C36.8098 25.6495 36.7569 25.6402 36.7038 25.642C36.6507 25.6438 36.5985 25.6568 36.5507 25.68V25.7ZM20.7407 21.35C20.3807 21.4 20.0307 21.42 19.6707 21.48C19.4949 21.4988 19.321 21.5323 19.1507 21.58C18.9832 21.6197 18.8193 21.6732 18.6607 21.74C18.4707 21.82 18.3007 21.92 18.1207 22.01C17.9807 21.59 17.8307 21.17 17.6807 20.74C17.4707 20.12 17.2707 19.48 17.0807 18.85C17.8586 18.2905 18.6892 17.8083 19.5607 17.41C20.0007 18.71 20.3607 20 20.7407 21.35ZM18.4407 22.93C18.6139 22.94 18.7875 22.94 18.9607 22.93C19.1401 22.9078 19.3173 22.871 19.4907 22.82C19.661 22.7705 19.828 22.7104 19.9907 22.64C20.3307 22.49 20.6507 22.32 20.9907 22.15C20.9964 22.1764 20.9964 22.2036 20.9907 22.23C21.3207 23.32 21.6707 24.41 21.9907 25.49C21.9907 25.57 22.0507 25.64 22.0707 25.72C21.8807 25.72 21.6807 25.72 21.4907 25.78C21.2988 25.8104 21.1086 25.8505 20.9207 25.9C20.738 25.9475 20.5577 26.0043 20.3807 26.07C20.1107 26.18 19.8607 26.31 19.6107 26.44L18.8307 24.2C18.7407 23.77 18.5907 23.35 18.4407 22.93ZM21.2207 30.66C21.2907 30.55 21.0407 30.4 20.9707 30.23C20.8307 29.89 20.7307 29.52 20.6607 29.34L20.0007 27.27C20.2637 27.2898 20.5278 27.2898 20.7907 27.27C20.9835 27.2444 21.174 27.2043 21.3607 27.15C21.5407 27.1 21.7307 27.03 21.9107 26.96L22.5207 26.67C22.9507 27.87 23.4007 29.07 23.8707 30.26C23.4707 30.39 23.0507 30.53 22.6307 30.63C22.1736 30.7768 21.6836 30.7872 21.2207 30.66Z" fill="#5A3384"/>
<path fill-rule="evenodd" clip-rule="evenodd" d="M31.6295 18.32V20.16C31.6295 20.26 31.6295 20.5 31.6795 20.65C31.7042 20.7808 31.759 20.904 31.8395 21.01C31.9484 21.1303 32.0957 21.2091 32.2562 21.2328C32.4167 21.2565 32.5805 21.2237 32.7195 21.14L33.1095 20.85L34.3595 19.52V19.46C34.4345 19.4252 34.4947 19.365 34.5295 19.29C35.3595 17.37 36.5295 15.52 37.4295 13.59C37.83 12.7369 38.1643 11.8543 38.4295 10.95C38.5607 10.3538 38.5607 9.73621 38.4295 9.14002C38.3837 8.80246 38.2333 8.48771 37.9995 8.24002C37.7579 8.06429 37.461 7.98169 37.1633 8.00741C36.8657 8.03314 36.5874 8.16545 36.3795 8.38002C35.994 8.69176 35.6569 9.05911 35.3795 9.47002C35.0188 10.0441 34.7045 10.646 34.4395 11.27L33.3095 13.85L31.8395 18C31.7747 18.0236 31.7192 18.0675 31.6814 18.1252C31.6435 18.1828 31.6253 18.2512 31.6295 18.32ZM34.2395 14.21L35.4395 11.79C35.7065 11.2348 36.014 10.7 36.3595 10.19C36.5669 9.88926 36.8199 9.62272 37.1095 9.40002C37.1699 9.49301 37.217 9.59398 37.2495 9.70002C37.3099 10.0306 37.3099 10.3694 37.2495 10.7C37.0394 11.5605 36.7618 12.4031 36.4195 13.22C35.6295 15.16 34.5995 17.06 33.8795 18.99L32.7295 19.69L32.3695 18.58L34.2395 14.21Z" fill="#5A3384"/>
<path fill-rule="evenodd" clip-rule="evenodd" d="M31.6299 22.28C31.1204 22.9633 30.4266 23.4872 29.6299 23.79C29.4843 23.8684 29.3246 23.9172 29.1601 23.9335C28.9956 23.9498 28.8294 23.9333 28.6713 23.8849C28.5132 23.8365 28.3663 23.7573 28.239 23.6517C28.1117 23.5462 28.0066 23.4164 27.9299 23.27C27.7196 22.842 27.5972 22.3761 27.5699 21.9C27.5332 21.3121 27.4564 20.7274 27.3399 20.15C27.2646 19.8277 27.1434 19.5178 26.9799 19.23C26.8301 18.9224 26.5947 18.6644 26.3021 18.4871C26.0095 18.3097 25.6719 18.2205 25.3299 18.23C24.8839 18.2822 24.4593 18.4499 24.098 18.7165C23.7368 18.9831 23.4513 19.3393 23.2699 19.75C23.2491 19.7886 23.2362 19.8311 23.232 19.8747C23.2278 19.9184 23.2323 19.9625 23.2454 20.0044C23.2584 20.0463 23.2797 20.0852 23.3079 20.1188C23.3362 20.1524 23.3708 20.18 23.4099 20.2C23.453 20.2192 23.4996 20.2293 23.5467 20.2295C23.5939 20.2297 23.6406 20.2201 23.6839 20.2013C23.7272 20.1825 23.766 20.1549 23.7981 20.1202C23.8301 20.0856 23.8545 20.0446 23.8699 20C23.9983 19.7764 24.171 19.5813 24.3773 19.4266C24.5836 19.2718 24.8192 19.1607 25.0699 19.1C25.2694 19.0626 25.4756 19.1014 25.6479 19.2088C25.8201 19.3162 25.9457 19.4844 25.9999 19.68C26.1756 20.1431 26.2637 20.6347 26.2599 21.13C26.268 21.7587 26.3383 22.3851 26.4699 23C26.5511 23.3314 26.6826 23.6484 26.8599 23.94C27.1066 24.3731 27.4942 24.7085 27.9582 24.8905C28.4222 25.0725 28.9345 25.0899 29.4099 24.94C30.6073 24.5614 31.6246 23.7574 32.2699 22.68C32.3035 22.6381 32.3278 22.5897 32.3413 22.5377C32.3548 22.4858 32.3572 22.4315 32.3482 22.3786C32.3393 22.3257 32.3192 22.2753 32.2893 22.2307C32.2595 22.1861 32.2205 22.1483 32.175 22.1198C32.1295 22.0914 32.0784 22.0729 32.0252 22.0656C31.9721 22.0583 31.9179 22.0624 31.8664 22.0775C31.8149 22.0926 31.7672 22.1185 31.7265 22.1534C31.6857 22.1883 31.6528 22.2315 31.6299 22.28Z" fill="#5A3384"/>
<path fill-rule="evenodd" clip-rule="evenodd" d="M39.7022 22.54C39.5922 22.03 39.4022 21.47 39.2222 20.87C39.0422 20.27 38.7922 19.59 38.5422 18.96C38.1722 17.96 37.7622 17.07 37.3122 16.14C37.2737 16.0645 37.2068 16.0073 37.1261 15.9811C37.0455 15.9548 36.9578 15.9616 36.8822 16C36.8012 16.0334 36.7363 16.0968 36.7009 16.1769C36.6655 16.257 36.6624 16.3477 36.6922 16.43L38.0022 21.25C38.1822 21.82 38.3722 22.35 38.5122 22.84C38.6882 23.2774 38.7435 23.754 38.6722 24.22C38.5684 24.5211 38.4014 24.7965 38.1824 25.0276C37.9633 25.2588 37.6973 25.4403 37.4022 25.56C37.3498 25.5757 37.3014 25.6025 37.2603 25.6385C37.2192 25.6746 37.1864 25.7191 37.1641 25.7691C37.1417 25.819 37.1305 25.8731 37.131 25.9278C37.1315 25.9825 37.1439 26.0364 37.1672 26.0859C37.1904 26.1354 37.2241 26.1793 37.2659 26.2145C37.3077 26.2498 37.3566 26.2756 37.4093 26.2903C37.462 26.3049 37.5172 26.308 37.5712 26.2993C37.6252 26.2906 37.6767 26.2704 37.7222 26.24C38.1489 26.1151 38.5426 25.8969 38.8746 25.6011C39.2067 25.3054 39.4689 24.9395 39.6422 24.53C39.8591 23.8873 39.88 23.1946 39.7022 22.54Z" fill="#5A3384"/>
</g>
<path d="M19.8193 38.72C19.9366 38.7787 20.0033 38.8693 20.0193 38.992C20.0406 39.1147 20.0113 39.2267 19.9313 39.328C19.8726 39.408 19.7953 39.4533 19.6993 39.464C19.6086 39.4747 19.518 39.456 19.4273 39.408C19.2726 39.328 19.11 39.264 18.9393 39.216C18.7686 39.168 18.5873 39.144 18.3953 39.144C18.0913 39.144 17.8166 39.1947 17.5713 39.296C17.3313 39.392 17.1233 39.5333 16.9473 39.72C16.7713 39.9013 16.6353 40.1173 16.5393 40.368C16.4486 40.6187 16.4033 40.896 16.4033 41.2C16.4033 41.536 16.454 41.8347 16.5553 42.096C16.6566 42.352 16.7953 42.5707 16.9713 42.752C17.1526 42.928 17.3633 43.0613 17.6033 43.152C17.8486 43.2373 18.1126 43.28 18.3953 43.28C18.5766 43.28 18.7526 43.2587 18.9233 43.216C19.0993 43.1733 19.2646 43.1093 19.4193 43.024C19.5153 42.976 19.6086 42.96 19.6993 42.976C19.7953 42.9867 19.8726 43.032 19.9313 43.112C20.022 43.224 20.054 43.3387 20.0273 43.456C20.006 43.568 19.9393 43.6533 19.8273 43.712C19.694 43.7867 19.5473 43.8507 19.3873 43.904C19.2273 43.9573 19.0646 44 18.8993 44.032C18.734 44.064 18.566 44.08 18.3953 44.08C18.0113 44.08 17.6486 44.016 17.3073 43.888C16.966 43.76 16.662 43.5733 16.3953 43.328C16.1286 43.0827 15.918 42.7813 15.7633 42.424C15.614 42.0667 15.5393 41.6587 15.5393 41.2C15.5393 40.7893 15.6086 40.4107 15.7473 40.064C15.8913 39.712 16.0913 39.4107 16.3473 39.16C16.6086 38.904 16.9126 38.7067 17.2593 38.568C17.606 38.424 17.9846 38.352 18.3953 38.352C18.6513 38.352 18.8993 38.384 19.1393 38.448C19.3846 38.512 19.6113 38.6027 19.8193 38.72ZM21.2413 44C21.1239 44 21.0279 43.9627 20.9533 43.888C20.8786 43.808 20.8413 43.7093 20.8413 43.592V40.2C20.8413 40.0827 20.8786 39.9867 20.9533 39.912C21.0279 39.832 21.1239 39.792 21.2413 39.792C21.3533 39.792 21.4466 39.832 21.5213 39.912C21.6013 39.9867 21.6413 40.0827 21.6413 40.2V41.096L21.5613 40.752C21.6039 40.6027 21.6679 40.464 21.7533 40.336C21.8439 40.208 21.9506 40.096 22.0733 40C22.1959 39.904 22.3319 39.8293 22.4813 39.776C22.6359 39.7227 22.7959 39.696 22.9613 39.696C23.0999 39.696 23.2199 39.7333 23.3213 39.808C23.4226 39.8827 23.4733 39.976 23.4733 40.088C23.4733 40.232 23.4359 40.3387 23.3613 40.408C23.2866 40.472 23.2039 40.504 23.1133 40.504C23.0333 40.504 22.9559 40.488 22.8813 40.456C22.8066 40.4187 22.7186 40.4 22.6173 40.4C22.5053 40.4 22.3906 40.4293 22.2733 40.488C22.1559 40.5467 22.0493 40.6347 21.9533 40.752C21.8573 40.864 21.7799 40.9973 21.7213 41.152C21.6679 41.3067 21.6413 41.48 21.6413 41.672V43.592C21.6413 43.7093 21.6013 43.808 21.5213 43.888C21.4466 43.9627 21.3533 44 21.2413 44ZM25.9653 44.08C25.5226 44.08 25.1386 43.9893 24.8133 43.808C24.488 43.6213 24.2346 43.368 24.0533 43.048C23.8773 42.7227 23.7893 42.352 23.7893 41.936C23.7893 41.4667 23.8826 41.0667 24.0693 40.736C24.2613 40.4 24.5093 40.144 24.8133 39.968C25.1173 39.7867 25.44 39.696 25.7813 39.696C26.0426 39.696 26.2906 39.7493 26.5253 39.856C26.76 39.9573 26.968 40.1013 27.1493 40.288C27.336 40.4693 27.4826 40.6853 27.5893 40.936C27.696 41.1813 27.752 41.4507 27.7573 41.744C27.752 41.8507 27.7093 41.9387 27.6293 42.008C27.5493 42.0773 27.456 42.112 27.3493 42.112H24.2373L24.0453 41.432H27.0533L26.9013 41.576V41.376C26.8906 41.1893 26.8293 41.0267 26.7173 40.888C26.6053 40.744 26.4666 40.6347 26.3013 40.56C26.136 40.48 25.9626 40.44 25.7813 40.44C25.6213 40.44 25.4666 40.4667 25.3173 40.52C25.1733 40.568 25.0426 40.648 24.9253 40.76C24.8133 40.872 24.7226 41.0213 24.6533 41.208C24.5893 41.3893 24.5573 41.616 24.5573 41.888C24.5573 42.1813 24.6186 42.4373 24.7413 42.656C24.864 42.8747 25.0293 43.0453 25.2373 43.168C25.4453 43.2853 25.6746 43.344 25.9253 43.344C26.1226 43.344 26.2853 43.3253 26.4133 43.288C26.5413 43.2453 26.648 43.1947 26.7333 43.136C26.8186 43.0773 26.8933 43.0213 26.9573 42.968C27.0373 42.92 27.1173 42.896 27.1973 42.896C27.2933 42.896 27.3733 42.9307 27.4373 43C27.5013 43.064 27.5333 43.1413 27.5333 43.232C27.5333 43.3493 27.4746 43.456 27.3573 43.552C27.2133 43.6907 27.0133 43.8133 26.7573 43.92C26.5066 44.0267 26.2426 44.08 25.9653 44.08ZM32.1408 39.728C32.2581 39.728 32.3541 39.768 32.4288 39.848C32.5035 39.9227 32.5408 40.0187 32.5408 40.136V43.592C32.5408 43.7093 32.5035 43.808 32.4288 43.888C32.3541 43.9627 32.2581 44 32.1408 44C32.0288 44 31.9328 43.9627 31.8528 43.888C31.7781 43.808 31.7408 43.7093 31.7408 43.592V43.016L31.9088 43.04C31.9088 43.136 31.8688 43.2427 31.7888 43.36C31.7141 43.4773 31.6101 43.592 31.4768 43.704C31.3435 43.8107 31.1861 43.9013 31.0048 43.976C30.8235 44.0453 30.6288 44.08 30.4208 44.08C30.0528 44.08 29.7221 43.9867 29.4288 43.8C29.1355 43.608 28.9035 43.3467 28.7328 43.016C28.5621 42.6853 28.4768 42.3093 28.4768 41.888C28.4768 41.456 28.5621 41.0773 28.7328 40.752C28.9035 40.4213 29.1328 40.1627 29.4208 39.976C29.7141 39.7893 30.0395 39.696 30.3968 39.696C30.6261 39.696 30.8368 39.7333 31.0288 39.808C31.2261 39.8827 31.3968 39.9787 31.5408 40.096C31.6848 40.2133 31.7941 40.3387 31.8688 40.472C31.9488 40.6 31.9888 40.7227 31.9888 40.84L31.7408 40.864V40.136C31.7408 40.024 31.7781 39.928 31.8528 39.848C31.9328 39.768 32.0288 39.728 32.1408 39.728ZM30.5088 43.344C30.7595 43.344 30.9808 43.28 31.1728 43.152C31.3648 43.024 31.5141 42.8507 31.6208 42.632C31.7275 42.408 31.7808 42.16 31.7808 41.888C31.7808 41.6107 31.7275 41.3627 31.6208 41.144C31.5141 40.9253 31.3648 40.752 31.1728 40.624C30.9808 40.496 30.7595 40.432 30.5088 40.432C30.2635 40.432 30.0448 40.496 29.8528 40.624C29.6661 40.752 29.5168 40.9253 29.4048 41.144C29.2981 41.3627 29.2448 41.6107 29.2448 41.888C29.2448 42.16 29.2981 42.408 29.4048 42.632C29.5168 42.8507 29.6661 43.024 29.8528 43.152C30.0448 43.28 30.2635 43.344 30.5088 43.344ZM33.6056 39.84H35.4856C35.5922 39.84 35.6802 39.8773 35.7496 39.952C35.8242 40.0213 35.8616 40.1093 35.8616 40.216C35.8616 40.3173 35.8242 40.4027 35.7496 40.472C35.6802 40.5413 35.5922 40.576 35.4856 40.576H33.6056C33.4989 40.576 33.4082 40.5413 33.3336 40.472C33.2642 40.3973 33.2296 40.3093 33.2296 40.208C33.2296 40.1013 33.2642 40.0133 33.3336 39.944C33.4082 39.8747 33.4989 39.84 33.6056 39.84ZM34.4456 38.8C34.5629 38.8 34.6589 38.84 34.7336 38.92C34.8082 38.9947 34.8456 39.0907 34.8456 39.208V42.92C34.8456 43.016 34.8616 43.0933 34.8936 43.152C34.9256 43.2107 34.9682 43.2507 35.0216 43.272C35.0802 43.2933 35.1389 43.304 35.1976 43.304C35.2562 43.304 35.3069 43.2933 35.3496 43.272C35.3976 43.2507 35.4536 43.24 35.5176 43.24C35.5816 43.24 35.6402 43.2693 35.6936 43.328C35.7469 43.3867 35.7736 43.4667 35.7736 43.568C35.7736 43.696 35.7042 43.8 35.5656 43.88C35.4269 43.96 35.2776 44 35.1176 44C35.0269 44 34.9202 43.992 34.7976 43.976C34.6749 43.96 34.5549 43.92 34.4376 43.856C34.3256 43.792 34.2322 43.6907 34.1576 43.552C34.0829 43.408 34.0456 43.208 34.0456 42.952V39.208C34.0456 39.0907 34.0829 38.9947 34.1576 38.92C34.2376 38.84 34.3336 38.8 34.4456 38.8ZM38.6684 44.08C38.2258 44.08 37.8418 43.9893 37.5164 43.808C37.1911 43.6213 36.9378 43.368 36.7564 43.048C36.5804 42.7227 36.4924 42.352 36.4924 41.936C36.4924 41.4667 36.5858 41.0667 36.7724 40.736C36.9644 40.4 37.2124 40.144 37.5164 39.968C37.8204 39.7867 38.1431 39.696 38.4844 39.696C38.7458 39.696 38.9938 39.7493 39.2284 39.856C39.4631 39.9573 39.6711 40.1013 39.8524 40.288C40.0391 40.4693 40.1858 40.6853 40.2924 40.936C40.3991 41.1813 40.4551 41.4507 40.4604 41.744C40.4551 41.8507 40.4124 41.9387 40.3324 42.008C40.2524 42.0773 40.1591 42.112 40.0524 42.112H36.9404L36.7484 41.432H39.7564L39.6044 41.576V41.376C39.5938 41.1893 39.5324 41.0267 39.4204 40.888C39.3084 40.744 39.1698 40.6347 39.0044 40.56C38.8391 40.48 38.6658 40.44 38.4844 40.44C38.3244 40.44 38.1698 40.4667 38.0204 40.52C37.8764 40.568 37.7458 40.648 37.6284 40.76C37.5164 40.872 37.4258 41.0213 37.3564 41.208C37.2924 41.3893 37.2604 41.616 37.2604 41.888C37.2604 42.1813 37.3218 42.4373 37.4444 42.656C37.5671 42.8747 37.7324 43.0453 37.9404 43.168C38.1484 43.2853 38.3778 43.344 38.6284 43.344C38.8258 43.344 38.9884 43.3253 39.1164 43.288C39.2444 43.2453 39.3511 43.1947 39.4364 43.136C39.5218 43.0773 39.5964 43.0213 39.6604 42.968C39.7404 42.92 39.8204 42.896 39.9004 42.896C39.9964 42.896 40.0764 42.9307 40.1404 43C40.2044 43.064 40.2364 43.1413 40.2364 43.232C40.2364 43.3493 40.1778 43.456 40.0604 43.552C39.9164 43.6907 39.7164 43.8133 39.4604 43.92C39.2098 44.0267 38.9458 44.08 38.6684 44.08Z" fill="#6A5681"/>
<defs>
<clipPath id="clip0_10179_5120">
<rect width="24" height="24" fill="white" transform="translate(16 8)"/>
</clipPath>
</defs>
</svg>
