<svg width="72" height="72" viewBox="0 0 72 72" fill="none" xmlns="http://www.w3.org/2000/svg">
<path fill-rule="evenodd" clip-rule="evenodd" d="M36 72C55.8823 72 72 55.8823 72 36C72 16.1177 55.8823 0 36 0C16.1177 0 0 16.1177 0 36C0 55.8823 16.1177 72 36 72Z" fill="#FFCE3C"/>
<g clip-path="url(#clip0_8414_7174)">
<path fill-rule="evenodd" clip-rule="evenodd" d="M57.6137 38.107C56.8437 37.3553 55.212 37.6853 54.1854 37.6853L45.5504 38.0153C46.577 37.2453 42.2687 26.4286 39.042 19.2786L38.8221 18.5086C40.5619 17.657 42.4767 17.2238 44.4137 17.2436C44.4137 19.4803 48.8687 29.3986 50.427 32.8636C50.427 33.0103 52.1137 37.0803 52.2604 37.227C52.3825 37.3404 52.5429 37.4034 52.7095 37.4034C52.8762 37.4034 53.0366 37.3404 53.1587 37.227C53.5254 36.8603 51.8387 32.0936 51.8937 32.2403C46.3937 17.9403 46.3937 15.5753 45.0737 15.3736C43.2404 15.117 39.9587 16.657 38.382 17.482C36.8054 18.307 38.0154 19.7553 38.6387 22.1203C38.7854 22.542 38.7304 22.2853 38.1254 22.2853C37.1637 22.3178 36.2067 22.4344 35.2654 22.6336C34.8804 20.8003 34.147 20.5436 33.047 20.4153C31.6718 20.3145 30.29 20.3513 28.922 20.5253C28.4463 20.5175 27.9716 20.573 27.5104 20.6903C27.7854 18.3253 27.5104 17.262 25.4754 16.5103C23.3184 15.6917 20.9492 15.6207 18.7471 16.3086C17.6104 16.712 17.0787 17.317 16.9137 19.1136C16.8221 20.0853 17.0054 37.7036 17.6471 39.5186C16.6424 39.7149 15.6505 39.9721 14.6771 40.2886C13.2104 40.802 14.8054 43.9553 15.5571 45.4403C16.6021 47.4753 15.5571 46.357 19.8471 46.3386C19.2444 47.5495 18.9545 48.892 19.0037 50.2436C19.1871 52.077 20.6904 53.507 23.9171 52.737C26.227 52.0403 25.3837 49.272 25.2737 47.6403C25.2737 47.4203 25.0904 46.577 24.9987 46.2103C27.6937 46.082 30.2237 45.9353 33.9454 45.5686C35.907 45.367 37.9237 45.5686 39.9037 45.4586C41.517 45.4586 43.4787 45.0186 46.0454 44.7253C45.9353 46.3674 45.9353 48.0149 46.0454 49.657C45.9354 50.812 46.3754 51.6003 47.8787 52.077C48.5997 52.3834 49.3999 52.4508 50.1621 52.2693C50.9242 52.0879 51.6081 51.6671 52.1137 51.0686C52.8104 49.932 52.3704 46.0086 52.1137 44.707C53.2422 45.1656 54.5052 45.1656 55.6337 44.707C56.6263 43.9536 57.2844 42.8414 57.467 41.6086C57.5037 40.9303 58.622 39.1153 57.6137 38.107ZM27.3271 22.0103C28.641 21.8313 29.9731 21.8313 31.287 22.0103C31.7694 22.0509 32.2476 22.1306 32.717 22.2486C32.882 22.2486 33.3037 22.2486 33.2304 22.3953C32.7537 23.147 34.202 37.8136 34.202 37.8136C34.3029 37.884 34.4201 37.9272 34.5425 37.939C34.6649 37.9508 34.7882 37.9309 34.9006 37.8811C35.0131 37.8314 35.1107 37.7535 35.1843 37.6549C35.2578 37.5564 35.3047 37.4406 35.3204 37.3186C35.5954 35.7236 35.5404 26.2086 35.5037 25.4386C35.357 23.4586 35.2104 23.6053 37.7954 23.752C37.9761 23.7692 38.1544 23.8061 38.327 23.862C38.485 24.522 38.5528 25.2004 38.5287 25.8786C38.8954 28.5553 38.5287 29.857 39.1337 33.9453L39.4454 36.5486C39.592 37.1536 39.2804 38.052 40.0504 37.9786C40.9487 38.2353 41.0037 37.612 40.8387 28.9403C41.187 29.9303 41.5904 30.8836 42.0304 31.837C44.9087 38.2353 44.5787 37.9053 44.762 38.0153C38.6436 37.8599 32.5213 38.0742 26.4287 38.657C26.4104 38.4186 27.2354 22.707 27.3271 22.0103ZM18.9121 19.792C19.2604 15.8136 25.3104 18.9303 25.4754 18.857C25.5687 19.9947 25.5256 21.1395 25.3471 22.267C25.2371 23.917 25.0354 31.9286 25.3471 36.292C25.3471 37.172 25.1821 37.942 25.1637 38.7486C23.0146 38.7959 20.871 38.9857 18.7471 39.317C18.4904 38.2536 18.8387 24.0453 18.9121 19.792ZM23.6787 49.8403C23.6787 50.0236 23.5687 50.6653 23.3854 50.702C22.7831 50.8489 22.1543 50.8489 21.5521 50.702C19.7187 50.152 21.1121 46.7603 20.6721 46.247C24.0821 46.247 23.6237 46.082 23.6787 46.247C23.3487 46.5403 23.9904 46.9803 23.6787 49.8403ZM50.4637 49.8403C50.3171 50.1886 48.4287 50.1886 47.8787 49.9503C47.8787 49.767 47.6404 48.7036 47.0537 44.5786C48.2742 44.4851 49.5 44.4851 50.7204 44.5786C50.5163 46.337 50.4306 48.1071 50.4637 49.877V49.8403ZM55.3037 41.022C54.9554 42.452 54.8087 43.1853 53.4704 42.8553C49.5654 41.9203 45.0737 42.8553 41.187 43.497C38.8404 43.8636 36.182 43.607 33.7254 43.9003C31.2687 44.1936 28.3721 44.5053 25.6954 44.707C25.2187 44.707 16.7487 45.312 16.5287 44.8903C16.3087 44.4686 16.2171 41.792 15.4654 41.3336C20.1404 39.9586 25.072 40.4536 30.132 40.1053C35.797 39.7203 41.4254 40.1053 46.1371 40.1053C52.4254 40.1053 52.5354 39.6653 55.3037 39.977C55.322 40.4353 55.322 40.9303 55.3037 41.0586V41.022Z" fill="#251D32"/>
<path fill-rule="evenodd" clip-rule="evenodd" d="M22.6327 31.3053H21.8627C21.6203 31.3213 21.3805 31.3644 21.1477 31.4336C20.5794 31.5803 20.1027 31.8186 19.516 31.9653C19.3734 31.9701 19.2382 32.0301 19.1389 32.1327C19.0397 32.2354 18.9843 32.3726 18.9844 32.5153C18.9837 32.657 19.036 32.7938 19.1309 32.8989C19.2259 33.004 19.3567 33.0699 19.4977 33.0836C20.1634 33.2942 20.8536 33.4175 21.551 33.4503C21.9471 33.457 22.3421 33.4076 22.7244 33.3036C23.2927 33.1936 23.8244 32.9736 24.3927 32.882C24.4722 32.8869 24.5519 32.8762 24.6272 32.8503C24.7025 32.8244 24.7719 32.7838 24.8316 32.731C24.8912 32.6782 24.9398 32.6142 24.9746 32.5426C25.0094 32.4709 25.0297 32.3931 25.0344 32.3136C25.0446 32.1512 24.9908 31.9912 24.8846 31.8679C24.7784 31.7446 24.6282 31.6677 24.466 31.6536C23.8665 31.4831 23.253 31.3665 22.6327 31.3053Z" fill="#251D32"/>
<path fill-rule="evenodd" clip-rule="evenodd" d="M30.9001 31.3053H30.0934C29.8328 31.3197 29.5746 31.3627 29.3234 31.4336C28.7001 31.5803 28.1868 31.8186 27.4901 31.9653C27.3592 31.9891 27.2407 32.0581 27.1554 32.1603C27.0702 32.2625 27.0234 32.3914 27.0234 32.5245C27.0234 32.6576 27.0702 32.7864 27.1554 32.8886C27.2407 32.9908 27.3592 33.0598 27.4901 33.0836C28.2124 33.2933 28.9571 33.4164 29.7084 33.4503C30.1348 33.458 30.5602 33.4087 30.9734 33.3036C31.5784 33.1936 32.1468 32.9736 32.8068 32.882C32.9561 32.8565 33.0915 32.779 33.1892 32.6632C33.2868 32.5475 33.3404 32.4009 33.3404 32.2495C33.3404 32.098 33.2868 31.9515 33.1892 31.8357C33.0915 31.72 32.9561 31.6425 32.8068 31.617C32.1808 31.4612 31.5431 31.3569 30.9001 31.3053Z" fill="#251D32"/>
<path fill-rule="evenodd" clip-rule="evenodd" d="M46.0625 27.9686C45.8677 28.0195 45.6775 28.0869 45.4942 28.1703C45.3129 28.2565 45.1409 28.3609 44.9809 28.482C44.5959 28.7753 44.3209 29.1236 43.9175 29.417C43.8047 29.4793 43.7194 29.5817 43.6787 29.704C43.6379 29.8263 43.6447 29.9594 43.6975 30.077C43.7892 30.3703 44.0642 30.5536 44.2659 30.4803C44.8411 30.4981 45.4157 30.4302 45.9709 30.2786C46.2658 30.1728 46.5437 30.0246 46.7959 29.8386C47.1992 29.5636 47.5292 29.2336 47.9325 28.977C48.0637 28.9133 48.1653 28.8017 48.2165 28.6652C48.2677 28.5287 48.2645 28.3778 48.2075 28.2436C48.1765 28.0976 48.091 27.9689 47.9683 27.8837C47.8457 27.7986 47.6952 27.7634 47.5475 27.7853C47.0467 27.7817 46.5475 27.8434 46.0625 27.9686Z" fill="#251D32"/>
</g>
<defs>
<clipPath id="clip0_8414_7174">
<rect width="44" height="44" fill="white" transform="translate(14.0352 12.147)"/>
</clipPath>
</defs>
</svg>
