<svg width="282" height="45" viewBox="0 0 282 45" fill="none" xmlns="http://www.w3.org/2000/svg">
<path d="M200.885 22.6911C198.348 18.1732 195.974 13.6553 193.6 9.08293C193.222 8.26644 192.79 7.34109 193.114 6.5246C193.492 5.59925 194.625 5.27265 195.65 5.16378C196.406 5.05492 197.107 5.00049 197.863 5.00049C198.348 5.00049 198.888 5.00049 199.32 5.21822C200.345 5.59925 201.263 6.90563 201.694 7.93985C202.396 9.62726 203.475 11.0425 204.285 12.6755C204.447 12.8932 204.662 13.1109 204.878 13.3831C205.472 12.6211 205.904 11.6957 206.389 10.8792C206.929 9.95385 207.469 9.0285 208.008 8.10315C208.494 7.28666 209.034 6.47017 209.789 5.92584C210.707 5.32708 211.894 5.21822 212.973 5.16378C213.837 5.16378 214.754 5.21822 215.348 5.81698C215.725 6.198 215.833 6.74233 215.941 7.28666C216.049 7.99428 215.995 8.75634 215.887 9.51839C215.725 10.2804 215.348 10.9336 215.078 11.6413C214.592 13.1654 213.89 14.6351 213.135 16.1047C211.84 18.7175 210.707 21.4391 209.789 24.2696C209.088 26.6102 207.846 28.7331 206.983 31.0193C206.119 33.3599 205.364 35.7549 204.339 38.0411C203.907 39.0753 203.421 40.1095 202.666 40.9804C201.964 41.8514 200.993 42.6134 199.913 42.8311C199.212 43.0489 198.456 42.9944 197.701 42.9944C197.269 42.9944 196.783 42.94 196.352 42.7767C195.758 42.4501 195.38 41.8514 195.219 41.1982C195.111 40.545 195.165 39.8918 195.272 39.2386C195.488 38.0955 195.92 36.9524 196.298 35.8638C197.809 31.5092 199.32 27.209 200.885 22.8544C200.885 22.7999 200.885 22.6911 200.885 22.6911Z" fill="#FFCE3C"/>
<path d="M186.644 27.2049C187.984 31.2239 189.432 35.1901 191.256 39.0504C191.685 39.9494 192.167 41.1128 191.631 41.9589C190.88 43.1752 188.682 43.0165 187.395 42.9637C186.751 42.9637 186 42.9108 185.464 42.4877C185.035 42.1704 184.82 41.6945 184.606 41.2186C183.855 39.5792 183.104 37.9399 182.407 36.2477C181.71 34.767 181.227 33.1277 180.423 31.6999C180.369 32.6517 180.208 33.6036 180.208 34.5555C180.316 36.6707 180.369 38.8389 179.994 40.9542C179.833 41.8003 179.404 42.3291 178.6 42.5406C177.098 42.9108 175.596 43.0694 174.095 42.4877C173.237 42.1175 173.022 41.8531 173.022 40.9013C173.076 38.9975 173.183 37.0938 173.183 35.1372C173.183 33.5507 173.076 31.9643 173.076 30.3778C173.022 29.5317 172.969 28.6856 173.022 27.8395C173.129 26.6761 173.237 25.5127 173.344 24.3493C173.398 23.9263 173.398 23.4503 173.398 22.9744C173.183 20.7005 173.29 18.4266 173.398 16.2055C173.398 15.994 173.398 15.8354 173.398 15.6767C173.505 13.6143 173.558 11.5519 173.612 9.48955C173.666 8.4848 173.773 7.53293 174.202 6.63395C174.417 6.15801 174.738 5.78784 175.167 5.57631C175.918 5.20614 176.669 4.99461 177.473 5.04749C180.584 5.04749 183.641 4.94173 186.751 5.04749C188.36 5.10037 190.13 5.52343 191.095 6.84547C192.489 8.80209 191.899 11.8163 191.738 14.0374C191.631 15.8354 191.631 17.5805 191.524 19.3784C191.47 20.6476 191.417 21.9168 190.988 23.133C190.612 24.2964 189.754 25.4069 188.574 25.8829C188.038 26.0415 187.502 26.1473 186.965 26.2002C186.805 26.253 186.697 26.253 186.59 26.3588C186.429 26.5175 186.536 26.729 186.59 26.9405C186.59 27.0463 186.644 27.0992 186.644 27.2049ZM183.533 18.5852C184.284 18.1622 184.391 17.5276 184.445 16.7872C184.445 16.0469 184.499 15.3065 184.499 14.5133C184.499 14.1431 184.499 13.7201 184.445 13.3499C184.445 12.9269 184.23 12.7153 183.801 12.6625C183.212 12.5567 182.675 12.398 182.139 12.2923C181.603 12.2394 181.066 12.0808 180.584 12.398C180.047 13.9316 179.94 17.8977 180.369 19.0611C181.442 19.2198 182.461 18.691 183.533 18.5852Z" fill="#FFCE3C"/>
<path d="M171.146 37.2624C171.093 37.4772 171.039 37.6919 170.932 37.9603C170.505 39.4633 169.649 40.9127 168.313 41.7179C165.907 43.221 162.165 43.1673 159.438 42.7379C157.995 42.5231 156.551 41.9326 155.589 40.8054C154.199 39.1949 154.038 36.8867 153.932 34.7395C153.825 32.5386 153.664 30.3913 153.718 28.2441C153.718 26.4727 153.771 24.7012 153.825 22.9298C153.825 21.6951 153.45 20.031 153.985 18.7964C154.306 18.0448 154.68 17.2933 155.108 16.5955C155.803 15.4682 157.032 15.1461 158.315 15.0924C160.614 14.9314 162.966 14.9314 165.265 15.3071C166.174 15.4145 167.136 15.4682 168.045 15.5755C169.703 15.7366 170.718 16.5418 171.146 18.0985C171.681 20.0847 172.162 22.0172 171.948 24.0571C171.895 24.4328 171.895 24.7549 171.895 25.1307C171.895 27.8684 171.627 30.5524 171.52 33.2901C171.467 34.6321 171.413 35.9741 171.146 37.2624ZM160.507 31.8407C160.507 32.5922 160.561 33.3975 160.561 34.149C160.561 34.31 160.561 34.5247 160.614 34.6858C160.775 35.0615 161.202 35.2763 161.63 35.3836C162.378 35.5447 163.18 35.5447 163.768 35.0615C164.41 34.5247 164.463 33.6122 164.463 32.7533C164.517 31.6797 164.463 30.6597 164.463 29.5325C164.41 27.8147 164.357 28.1368 164.25 26.3653C164.196 25.6138 163.982 24.9159 163.875 24.3255C163.394 23.7887 162.913 23.735 162.378 23.735C161.523 23.8423 160.721 24.4328 160.721 25.1307C160.668 26.0969 160.507 27.0632 160.507 27.9757C160.507 29.2641 160.507 30.5524 160.507 31.8407ZM143.613 13.9651C142.384 14.0188 141.261 14.0188 140.192 14.0725C138.588 14.0725 138.107 13.6967 138.053 12.0863C138 10.798 138 9.56333 138 8.32868C138 8.00659 138 7.68451 138.107 7.36243C138.16 7.14771 138.267 6.82562 138.481 6.66458C138.962 6.23514 139.443 5.80569 140.192 5.75201C141.582 5.59097 142.972 5.37625 144.362 5.26889C145.217 5.16153 146.073 5.10785 146.928 5.05417C147.302 5.05417 147.677 5.05417 148.051 5.05417C150.884 5.05417 153.771 5.00049 156.658 5.00049C159.331 5.05417 162.058 5.26889 164.784 5.32257C165.265 5.32257 165.747 5.32257 166.121 5.59097C166.816 6.02042 166.923 6.98667 166.923 7.79187C166.976 8.8118 166.923 9.83173 166.762 10.8517C166.709 11.7105 166.495 12.6768 165.746 13.1062C165.212 13.4283 164.57 13.4283 163.982 13.4283C163.02 13.3746 152.167 13.1062 152.167 13.4283C152.167 13.6967 152.167 13.9651 152.167 14.2335C152.114 18.3669 152.114 22.554 152.007 26.7411C152.007 27.4389 151.9 28.0831 151.793 28.7809C151.793 29.2104 151.793 29.5861 151.74 30.0156C151.633 31.5723 151.793 33.129 151.472 34.6858C151.312 35.5447 151.419 36.4036 151.365 37.3161C151.365 38.1213 151.365 38.9802 151.365 39.7854C151.365 40.7517 150.938 41.5569 150.136 42.1474C150.029 42.2547 149.868 42.3621 149.708 42.4158C147.997 43.0599 146.287 43.0599 144.629 42.2547C143.507 41.7179 142.972 40.859 142.918 39.5707C142.651 34.6858 142.705 29.8009 142.812 24.9696C142.865 22.8224 143.079 20.7289 143.293 18.6353C143.346 17.4544 143.507 16.2197 143.613 15.0387C143.613 14.7167 143.613 14.3409 143.613 13.9651Z" fill="#FFCE3C"/>
<path d="M134.489 1.42379C135.444 1.63502 136.081 2.11028 136.558 3.008C136.983 3.90571 137.036 4.80343 136.983 5.70114C136.93 7.17974 136.983 8.60552 136.983 10.0841C136.983 10.2425 136.983 10.401 136.93 10.5594C136.877 12.038 137.301 13.9918 135.869 14.9951C135.179 15.4704 134.33 15.4704 133.481 15.4176C132.207 15.4176 130.88 15.3648 129.607 15.3648C129.235 15.312 128.864 15.312 128.598 15.1536C128.068 14.8367 127.908 14.1502 127.908 13.5694C127.908 12.9357 128.015 12.302 127.802 11.7211C127.749 11.6155 127.696 11.5099 127.59 11.4571C127.431 11.3515 127.272 11.3515 127.166 11.3515C126.21 11.4043 124.565 11.1402 124.088 12.0908C123.769 12.7245 123.875 13.5166 124.194 14.1502C124.459 14.8367 124.99 15.3648 125.52 15.8401C128.492 18.4804 132.154 20.223 134.966 23.0218C135.338 23.3914 135.656 23.7611 135.869 24.1835C136.24 24.8172 136.293 25.5565 136.399 26.243C136.505 27.9856 136.558 29.7283 136.612 31.4181C136.612 33.7944 136.612 36.1179 136.505 38.4414C136.505 39.4447 136.293 40.448 136.134 41.5042C136.081 41.9794 135.816 42.3491 135.391 42.6659C134.489 43.4052 133.427 43.6693 132.26 43.7221C130.774 43.7749 129.288 43.8277 127.802 43.8805C126.847 43.9333 125.892 44.0389 124.937 43.9861C123.716 43.9861 122.496 43.8277 121.275 43.7221C120.585 43.6693 119.948 43.6165 119.312 43.5636C118.622 43.458 117.985 43.5636 117.348 43.3524C116.711 43.1412 116.127 42.7187 115.597 42.3491C115.225 42.085 114.854 41.7682 114.589 41.3458C114.164 40.7121 114.111 39.8672 114.058 39.0223C113.952 36.8572 114.005 34.6393 114.111 32.4214C114.217 31.3125 114.323 30.0451 115.172 29.3058C116.074 28.4609 117.507 28.4609 118.728 28.5137C119.418 28.5137 120.054 28.5665 120.744 28.5665C121.381 28.6193 122.124 28.6721 122.602 29.1474C122.973 29.5698 123.026 30.1507 123.079 30.6788C123.079 31.7349 122.867 33.0023 123.345 34.0056C123.345 34.9561 126.104 34.2696 126.476 34.2168C126.635 34.164 126.847 34.1112 127.006 34.0056C127.219 33.8472 127.272 33.4775 127.325 33.2135C127.484 31.6821 127.643 30.0979 126.9 28.8305C126.476 28.0384 125.786 27.4576 125.096 26.9295C122.496 24.8172 119.895 22.6521 117.295 20.5399C116.817 20.1702 116.287 19.7478 116.021 19.2197C115.809 18.7444 115.703 18.2164 115.65 17.7411C115.119 13.3053 115.172 8.60552 116.021 4.22255C116.127 3.74729 116.34 3.27203 116.552 2.79677C116.764 2.32151 117.189 2.05747 117.666 1.84625C118.728 1.31818 119.895 1.15976 121.063 1.10695C124.671 0.842916 128.28 1.15976 131.889 1.10695C132.738 1.10695 133.64 1.26537 134.489 1.42379Z" fill="#FFCE3C"/>
<path d="M281.993 6.31561C282.047 7.29179 281.776 8.05103 281.504 8.86451C280.525 12.1184 279.275 15.2096 278.134 18.3551C277.644 19.7651 277.047 21.1752 276.449 22.5852C276.34 22.9648 276.231 23.2902 276.068 23.6156C276.177 23.8868 276.231 24.0494 276.286 24.2664C277.753 28.0626 279.166 31.8588 280.58 35.6551C280.96 36.6313 281.286 37.6074 281.612 38.5836C281.83 39.1259 281.83 39.5598 281.612 40.4275C281.286 40.9156 280.797 41.1867 280.308 41.3494C279.221 41.6206 278.134 41.946 276.938 41.729C276.34 41.6748 275.688 41.729 275.09 41.8375C273.513 42.0002 273.35 41.946 272.481 40.4275C271.828 39.3428 271.23 38.3124 270.524 37.1736C270.034 38.2582 269.491 39.2886 269.002 40.319C268.567 41.4037 268.023 42.2714 266.99 42.5968C266.338 42.7595 265.632 42.9221 264.925 42.9764C263.783 43.0306 262.642 42.9764 261.5 42.9764C260.794 42.9764 260.141 42.7052 259.544 42.3256C259.326 42.1629 259.163 41.8375 259 41.6206C259.109 41.024 259.217 40.4817 259.381 39.9936C259.924 38.204 260.522 36.4686 261.229 34.7331C261.772 33.3773 262.153 31.9673 262.642 30.5573C263.294 28.6592 264.001 26.761 264.653 24.8629C264.816 24.4833 264.979 24.1037 265.142 23.6156C264.816 22.8563 264.436 22.0971 264.164 21.2836C263.349 19.1686 262.588 17.0535 261.772 14.9927C261.229 13.4742 260.631 12.01 260.033 10.5999C259.598 9.51529 259.217 8.37643 259.109 7.18332C259.054 6.74947 259.109 6.31561 259.109 5.77329C259.598 5.6106 259.978 5.4479 260.359 5.39367C262.588 5.01405 264.816 5.23097 267.045 5.17674C267.48 5.17674 267.806 5.4479 268.023 5.88176C268.621 7.23755 269.273 8.53912 269.817 9.84068C270.089 10.3288 270.306 10.8711 270.578 11.4676C270.687 11.3049 270.741 11.1965 270.85 11.0338C271.502 9.56953 272.154 8.05103 272.807 6.58677C272.97 6.26138 273.133 5.93599 273.35 5.6106C273.568 5.23097 273.894 5.01405 274.329 5.01405C275.688 5.01405 277.101 4.95981 278.46 5.06828C279.384 5.12251 280.254 5.39367 281.123 5.55636C281.504 5.66483 281.776 5.88176 281.993 6.31561Z" fill="#FFCE3C"/>
<path d="M258.678 39.0624C258.243 40.9356 257.208 41.8171 255.302 42.2028C254.049 42.4231 252.797 42.4231 251.545 42.4782C250.074 42.5884 248.604 42.919 247.134 42.9741C245.663 43.0843 244.084 42.8639 242.886 42.0375C241.525 41.156 240.762 39.6684 240.381 38.1257C240 36.5831 240 34.9853 240 33.3876C240 30.6328 240.054 27.8781 240.163 25.1233C240.218 22.9746 240.436 20.881 240.599 18.7874C240.708 17.1346 240.871 15.5368 240.98 13.884C241.035 12.727 241.089 11.5149 241.144 10.3579C241.198 9.97225 241.252 9.58659 241.416 9.25602C241.743 8.4296 242.069 7.60317 242.505 6.88694C243.104 5.78504 244.193 5.28918 245.337 5.179C247.243 5.01371 249.149 4.90352 251.054 5.1239C252.198 5.23409 253.342 5.28918 254.485 5.45447C255.411 5.56466 256.337 5.78504 257.262 6.00542C257.916 6.2258 258.406 6.66656 258.678 7.2726C258.896 7.93374 259.168 8.53978 259.332 9.20092C259.604 10.3579 259.822 11.57 259.985 12.7821C260.04 13.4432 259.931 14.2146 259.876 14.9308C259.876 16.6938 259.876 18.512 259.876 20.275C259.822 21.1565 259.767 22.038 259.713 22.8645C259.658 24.2969 259.55 25.7294 259.55 27.1068C259.386 30.7981 259.495 34.4344 258.842 38.1257C258.787 38.4012 258.733 38.7318 258.678 39.0624ZM251.49 15.1512C251.163 14.7104 250.782 14.6002 250.292 14.6002C249.149 14.5451 248.386 15.3165 248.386 16.4734C248.332 17.5753 248.277 18.6772 248.277 19.8342C248.277 20.881 248.332 21.9829 248.441 23.0297C248.604 25.5641 248.277 28.0985 248.223 30.6328C248.168 31.5144 248.168 32.451 248.277 33.3325C248.332 34.0487 249.203 34.6548 249.856 34.5446C250.292 34.4344 250.728 34.3242 251.163 34.1589C251.653 33.9385 252.035 33.6631 252.089 33.057C252.198 32.2306 252.198 31.4042 252.198 30.5777C252.252 29.7513 252.198 28.98 252.198 28.2087C252.252 27.1068 252.361 26.0049 252.307 24.903C252.252 22.8094 252.144 20.7158 252.035 18.6222C251.98 17.4652 251.926 16.2531 251.49 15.1512Z" fill="#FFCE3C"/>
<path d="M236.406 27.5532C236.513 27.5532 236.675 27.6074 236.836 27.6616C237.374 27.7158 237.75 27.9868 238.073 28.4204C238.987 29.6129 238.933 31.7809 238.987 33.2443C239.041 35.033 238.933 36.8758 238.557 38.6644C238.503 39.098 238.395 39.5858 238.127 40.0194C236.782 42.6211 232.749 42.4585 230.329 42.7295C229.307 42.8379 228.285 42.7837 227.263 42.8379C226.08 42.8921 224.897 43.0005 223.714 43.0005C222.639 42.9463 221.563 42.9463 220.488 42.7295C219.842 42.5669 219.197 42.1875 218.605 41.8081C218.283 41.5913 217.96 41.1577 217.799 40.7783C217.153 39.2606 216.884 37.6346 217.046 35.9544C217.1 34.8703 217.153 33.7321 217.153 32.5939C217.153 30.5885 217.046 28.583 217.1 26.5776C217.1 23.9218 217.207 21.3201 217.261 18.7185C217.315 17.5261 217.261 16.3336 217.261 15.1412C217.207 12.7564 217.153 10.3715 217.153 7.98669C217.153 7.60728 217.261 7.17368 217.422 6.79427C217.799 5.87285 218.552 5.33085 219.52 5.27664C220.81 5.22244 222.155 5.16824 223.445 5.16824C225.112 5.11404 226.833 5.11404 228.5 5.11404C229.791 5.05984 231.028 5.05984 232.319 5.00564C233.717 4.95144 235.007 5.33085 236.298 5.87285C237.105 6.30646 237.589 6.95687 237.911 7.82409C238.395 9.23331 238.611 10.6967 238.664 12.1602C238.772 13.9488 238.933 15.7374 238.987 17.5803C239.041 19.7483 238.933 21.8621 238.342 23.976C238.234 24.247 238.234 24.518 238.18 24.789C238.019 25.3852 237.804 25.9272 237.32 26.415C236.997 26.7402 236.728 27.1196 236.406 27.5532ZM225.166 24.0844C225.381 24.1386 225.596 24.1386 225.811 24.1386C226.941 24.0844 228.07 23.9218 229.199 23.5966C229.468 23.4882 229.791 23.3798 230.006 23.2171C230.49 22.8377 230.598 22.1873 230.651 21.5911C230.867 20.1277 230.92 18.6101 230.92 17.1466C230.867 15.9542 231.028 14.816 230.974 13.6236C230.92 12.9732 230.705 12.7564 230.06 12.5938C229.791 12.5396 229.468 12.5396 229.146 12.5396C228.285 12.5938 227.479 12.648 226.618 12.7564C226.08 12.8106 225.543 12.9732 225.005 13.0274C224.897 13.0816 225.059 17.255 225.005 17.7429C224.843 19.4773 224.736 21.2659 224.682 23.0003C224.682 23.3256 224.682 23.6508 224.897 23.8676C224.951 23.976 225.059 24.0302 225.166 24.0844ZM224.79 34.9788C225.596 35.033 226.403 35.0872 227.21 35.1414C228.124 35.1414 229.038 35.1956 229.952 35.1414C230.867 35.1414 231.297 34.7619 231.458 33.7863C231.512 33.5695 231.566 33.2443 231.512 32.9733C231.512 32.8107 231.404 32.5939 231.351 32.3771C229.146 32.1603 227.102 32.3229 225.005 32.8107C224.897 33.4611 224.843 34.0573 224.736 34.6535C224.736 34.7077 224.79 34.8161 224.79 34.9788Z" fill="#FFCE3C"/>
<path d="M112.56 17.2428C112.12 17.7974 111.625 18.1857 110.911 18.2967C110.471 18.3521 110.086 18.574 109.701 18.6295C108.656 18.6849 107.612 18.6849 106.512 18.7404C105.742 18.3521 105.357 17.742 105.302 16.8545C105.192 16.0779 105.082 15.3569 104.918 14.5248C103.708 14.4139 102.553 14.4139 101.344 14.9686C101.234 15.3569 101.069 15.6897 101.014 16.0779C101.014 17.3537 101.014 18.6295 101.014 19.9607C101.289 19.9607 101.509 19.9607 101.784 19.9607C102.773 19.9052 103.763 19.9052 104.753 19.8498C106.292 19.7388 107.282 20.9036 107.282 22.1239C107.337 23.1778 107.502 24.2317 107.557 25.2856C107.557 25.8958 107.502 26.5059 107.447 27.1161C107.337 27.8371 106.897 28.3363 106.237 28.5028C105.742 28.6692 105.247 28.7246 104.808 28.7801C104.093 28.8356 103.433 28.8356 102.773 28.8356C102.333 28.891 101.893 28.9465 101.454 29.0574C101.399 29.1684 101.344 29.2793 101.344 29.3902C101.344 30.8879 101.344 32.3855 101.344 33.8831C101.399 34.8816 101.948 35.4917 102.993 35.6026C103.048 35.6026 103.158 35.6026 103.213 35.6026C103.763 35.6026 104.313 35.6026 104.918 35.6581C105.522 34.8261 105.192 33.8277 105.522 32.7183C105.632 32.4964 105.962 32.33 106.457 32.2191C107.942 31.8308 109.481 31.8308 111.021 31.8308C111.68 31.7754 112.12 32.2746 112.45 32.7738C112.67 33.1066 112.78 33.4949 112.78 33.8277C112.89 34.8261 113 35.8245 113 36.8784C113 37.9878 113 39.0971 112.89 40.2065C112.78 41.094 112.395 41.8151 111.68 42.3697C110.031 43.6455 107.447 43.701 105.467 43.8674C103.158 44.0892 100.904 44.0338 98.6495 43.701C97.3849 43.5346 96.1203 43.2572 95.1856 42.4252C94.0859 41.4268 93.701 39.9291 93.4261 38.487C92.8763 36.1019 93.0962 33.6058 93.0412 31.1652C92.9863 28.6692 92.9863 26.1731 93.0412 23.6216C93.0962 21.7357 93.2612 19.8498 93.3711 17.9638C93.5361 14.4139 92.9313 10.3093 95.6804 7.48041C96.7251 6.37105 98.1546 5.7609 99.5842 5.4281C102.278 4.81795 105.192 5.03982 107.942 5.03982C108.711 5.03982 109.481 5.15076 110.196 5.26169C111.076 5.37263 111.735 5.81637 112.065 6.64839C112.285 7.1476 112.505 7.70228 112.725 8.20149C112.945 8.81164 112.835 9.47726 112.725 10.0874C112.67 10.4757 112.67 10.8085 112.67 11.1968C112.615 13.0272 112.615 14.9131 112.615 16.7436C112.615 16.91 112.56 17.0764 112.56 17.2428Z" fill="#FFCE3C"/>
<path d="M84.9742 35.4168C86.1446 35.3057 87.2593 35.1945 88.374 35.0834C89.433 34.9166 90.5477 34.9722 91.6066 35.1389C92.164 35.2501 92.6099 35.5835 92.7771 36.1393C92.8885 36.5283 93 36.9729 93 37.3619C93 38.5289 93 39.6404 93 40.7519C92.9443 41.1965 92.9443 41.6411 92.8328 42.0301C92.4984 42.9748 91.8853 43.5306 90.8821 43.5862C88.2625 43.8085 85.643 44.0863 83.0235 43.9752C81.2957 43.9196 79.4007 43.6973 78.286 42.4191C77.6172 41.5855 77.3385 40.5852 77.1156 39.5293C75.6665 33.1383 75.9452 26.8029 76.2238 20.3007C76.2796 18.8002 76.5025 17.3553 76.5582 15.8548C76.614 14.0765 76.614 12.3537 76.6697 10.5753C76.7254 9.18596 76.8369 7.74104 77.3385 6.40727C77.6729 5.57366 78.1745 5.12907 79.122 5.07349C80.4039 4.96235 81.6301 4.96235 82.912 5.18464C83.3021 5.18464 83.6366 5.35136 83.971 5.46251C84.9185 6.40727 84.9185 7.62989 84.807 8.79694C84.6955 9.90842 84.6955 10.9643 84.7513 12.0202C84.8627 14.4655 84.9185 16.8551 84.9742 19.3004C85.0299 22.2458 85.1414 25.1912 85.1971 28.0811C85.1971 29.9706 85.0857 31.8601 84.9742 33.7496C84.9742 34.2498 84.9742 34.8055 84.9742 35.4168Z" fill="#FFCE3C"/>
<path d="M59.6895 13.3476C58.455 13.4019 57.3278 13.4563 56.2006 13.4563C54.5904 13.5106 54.1074 13.0759 54.0537 11.4456C54 10.1413 54 8.89141 54 7.58717C54 7.2611 54 6.93504 54.1073 6.60898C54.161 6.39161 54.2684 6.06554 54.4831 5.90251C54.9661 5.46777 55.5029 5.03302 56.2006 4.92433C57.6498 4.81564 59.0454 4.59827 60.4946 4.43524C61.3534 4.32655 62.2121 4.32655 63.0709 4.27221C63.4466 4.21786 63.8224 4.27221 64.1981 4.27221C66.7208 4.27221 69.2435 4.27221 71.7661 4.05483C72.2492 4.00049 72.7859 4.00049 73.3227 4.00049C74.2888 4.05483 74.8256 4.54392 74.9329 5.52211C75.0403 6.11989 74.9866 6.77201 74.9866 7.36979C74.9329 8.45666 74.8792 9.54353 74.7719 10.6304C74.7182 12.4781 73.9131 12.9128 72.4102 12.8585C71.3367 12.8585 70.2096 12.8585 69.1361 12.8041C68.9214 12.8041 68.7067 12.8041 68.3847 12.8041C68.3847 13.1302 68.3847 13.4019 68.3847 13.6193C68.331 17.9124 68.331 22.1512 68.2773 26.4444C68.2236 27.1508 68.1163 27.8573 68.0626 28.5638C68.0089 28.9985 68.0089 29.3789 67.9553 29.8137C67.8479 31.3896 68.0089 33.02 67.7406 34.5959C67.5259 35.4654 67.6332 36.3893 67.5796 37.2588C67.5796 38.1283 67.5796 38.9977 67.5796 39.8129C67.5796 40.8454 67.1502 41.6606 66.345 42.2584C66.2377 42.367 66.0767 42.4757 65.9157 42.5301C64.1444 43.1822 62.4268 43.1822 60.7629 42.367C59.6358 41.8236 59.0454 40.8998 58.9917 39.5955C58.7233 34.5959 58.8307 29.5963 58.8843 24.651C58.938 22.4773 59.2064 20.3036 59.3674 18.1842C59.4748 16.9343 59.5821 15.6844 59.6895 14.4888C59.6895 14.1084 59.6895 13.7823 59.6895 13.3476Z" fill="#FFCE3C"/>
<path d="M38.6895 13.3476C37.455 13.4019 36.3278 13.4563 35.2006 13.4563C33.5904 13.5106 33.1074 13.0759 33.0537 11.4456C33 10.1413 33 8.89141 33 7.58717C33 7.2611 33 6.93504 33.1073 6.60898C33.161 6.39161 33.2684 6.06554 33.4831 5.90251C33.9661 5.46777 34.5029 5.03302 35.2006 4.92433C36.6498 4.81564 38.0454 4.59827 39.4946 4.43524C40.3534 4.32655 41.2121 4.32655 42.0709 4.27221C42.4466 4.21786 42.8224 4.27221 43.1981 4.27221C45.7208 4.27221 48.2435 4.27221 50.7661 4.05483C51.2492 4.00049 51.7859 4.00049 52.3227 4.00049C53.2888 4.05483 53.8256 4.54392 53.9329 5.52211C54.0403 6.11989 53.9866 6.77201 53.9866 7.36979C53.9329 8.45666 53.8792 9.54353 53.7719 10.6304C53.7182 12.4781 52.9131 12.9128 51.4102 12.8585C50.3367 12.8585 49.2096 12.8585 48.1361 12.8041C47.9214 12.8041 47.7067 12.8041 47.3847 12.8041C47.3847 13.1302 47.3847 13.4019 47.3847 13.6193C47.331 17.9124 47.331 22.1512 47.2773 26.4444C47.2236 27.1508 47.1163 27.8573 47.0626 28.5638C47.0089 28.9985 47.0089 29.3789 46.9553 29.8137C46.8479 31.3896 47.0089 33.02 46.7406 34.5959C46.5259 35.4654 46.6332 36.3893 46.5796 37.2588C46.5796 38.1283 46.5796 38.9977 46.5796 39.8129C46.5796 40.8454 46.1502 41.6606 45.345 42.2584C45.2377 42.367 45.0767 42.4757 44.9157 42.5301C43.1444 43.1822 41.4268 43.1822 39.7629 42.367C38.6358 41.8236 38.0454 40.8998 37.9917 39.5955C37.7233 34.5959 37.8307 29.5963 37.8843 24.651C37.938 22.4773 38.2064 20.3036 38.3674 18.1842C38.4748 16.9343 38.5821 15.6844 38.6895 14.4888C38.6895 14.1084 38.6895 13.7823 38.6895 13.3476Z" fill="#FFCE3C"/>
<path d="M22 28.4775C22.1105 26.5257 22.221 23.4029 22.442 20.3358C22.5525 18.8302 22.7735 17.3803 22.884 15.8746C22.9945 14.1459 22.9945 12.4172 23.1602 10.6885C23.2707 9.29438 23.3812 7.90026 23.9337 6.5619C24.2652 5.72543 24.8177 5.33508 25.7017 5.27931C26.5856 5.27931 27.4696 5.11202 28.3536 5.05625C29.1271 5.00049 29.8453 5.00049 30.6188 5.00049C31.3923 5.05625 31.8895 5.6139 31.9448 6.39461C32 7.28685 32 8.23485 32 9.18285C32 11.2461 31.9448 13.3094 31.9448 15.3727C31.8895 17.9379 31.8895 20.5031 31.8343 23.124C31.779 24.797 31.779 26.4699 31.7238 28.1429C31.7238 28.4217 31.7238 28.7005 31.6133 28.9793C31.337 29.9831 31.4475 31.0426 31.3923 32.1022C31.3923 33.2175 31.3923 34.3885 31.1713 35.5596C31.0608 36.3961 31.116 37.2883 31.0608 38.1805C31.0608 39.017 31.0608 39.9092 31.0608 40.8015C31.0608 41.8053 30.6188 42.586 29.8453 43.1994C29.6796 43.3109 29.5691 43.4224 29.4033 43.4782C28.1878 43.8128 26.9171 44.2589 25.5912 43.8128C25.2044 43.6455 24.7072 43.6455 24.3204 43.4782C22.9945 42.9205 22.3315 41.9725 22.221 40.4669C21.9448 36.8979 22.1105 33.2732 22 28.4775Z" fill="#FFCE3C"/>
<path d="M21.445 35.7814C21.7766 36.1167 21.8871 36.6195 21.9424 37.0665C22.1082 38.8543 21.8871 40.6421 21.666 42.43C21.6108 43.0446 21.5002 43.715 21.1134 44.1061C20.7265 44.4972 20.1739 44.6089 19.6765 44.7207C18.5159 44.9441 17.4106 45 16.1947 45C13.2657 45 10.2813 45 7.35223 45C6.19166 45 4.97581 45 3.81523 44.8883C2.76519 44.7765 1.65988 44.4972 0.996688 43.715C0.554563 43.1004 0.444029 42.3182 0.333498 41.5919C-0.219158 36.6195 0.0571723 31.3677 0.167703 26.3953C0.278235 22.7078 0.499297 19.0204 0.444032 15.333C0.388766 11.478 0.112436 7.56707 0.830889 3.7679C1.05195 2.81811 1.32828 1.81245 2.04674 1.19788C2.48886 0.75092 3.09678 0.52744 3.7047 0.359828C5.41794 -0.0871295 7.13117 -0.0871295 8.8444 0.19222C9.28653 0.303959 9.67339 0.47157 10.0602 0.583309C11.1103 1.75658 11.055 3.15333 10.8892 4.55009C10.7234 5.77922 10.7787 7.06423 10.7787 8.29338C10.7787 11.1427 10.7787 13.9921 10.7787 16.7856C10.7787 20.2496 10.834 23.6576 10.7787 27.1216C10.7234 29.524 10.3366 31.9264 10.3918 34.3847C10.3918 34.6082 10.3918 34.8317 10.5576 34.9993C10.6129 35.0551 10.6129 35.111 10.6682 35.111C10.8892 35.2786 11.1656 35.2786 11.4419 35.2786C14.2604 35.1669 17.079 34.8875 19.8975 35.1669C20.5054 35.2786 21.0581 35.3345 21.445 35.7814Z" fill="#FFCE3C"/>
</svg>
