<svg width="35" height="35" viewBox="0 0 35 35" fill="none" xmlns="http://www.w3.org/2000/svg">
<g filter="url(#filter0_d_8432_22020)">
<path d="M17.0998 0.00233426C17.0998 0.00233426 24.8412 -0.345063 28.9455 7.43622H16.4411C16.4411 7.43622 14.0812 7.36016 12.0654 10.223C11.4863 11.4246 10.8639 12.6624 11.5624 15.1018C10.5562 13.3971 6.2204 5.84745 6.2204 5.84745C6.2204 5.84745 9.27862 0.309955 17.0997 0.00233426H17.0998Z" fill="#EF3F36"/>
<path d="M28.544 19.7561C28.544 19.7561 24.9718 26.6362 16.1844 26.296C17.2702 24.4176 22.4384 15.4673 22.4384 15.4673C22.4384 15.4673 23.687 13.4622 22.214 10.2846C21.4647 9.1807 20.7011 8.02617 18.2401 7.41083C20.2198 7.39284 28.9241 7.41083 28.9241 7.41083C28.9241 7.41083 32.1849 12.8289 28.544 19.7561Z" fill="#FCD900"/>
<path d="M5.71033 19.8105C5.71033 19.8105 1.53735 13.2778 6.22783 5.83667C7.31001 7.71508 12.4782 16.6654 12.4782 16.6654C12.4782 16.6654 13.593 18.7501 17.0782 19.0612C18.4066 18.9636 19.7891 18.8803 21.5553 17.0599C20.5816 18.7827 16.2131 26.3106 16.2131 26.3106C16.2131 26.3106 9.88681 26.4264 5.71023 19.8105H5.71033Z" fill="#61BC5B"/>
<path d="M16.1807 26.361L17.9396 19.0213C17.9396 19.0213 19.8723 18.8692 21.4937 17.0922C20.4875 18.8621 16.1807 26.361 16.1807 26.361Z" fill="#5AB055"/>
<path d="M11.208 13.2633C11.208 10.0278 13.832 7.40381 17.0675 7.40381C20.303 7.40381 22.927 10.0278 22.927 13.2633C22.927 16.4989 20.303 19.1228 17.0675 19.1228C13.832 19.1192 11.208 16.4989 11.208 13.2633Z" fill="white"/>
<path d="M12.1887 13.2632C12.1887 10.5706 14.3712 8.38455 17.0675 8.38455C19.7601 8.38455 21.9462 10.567 21.9462 13.2632C21.9462 15.956 19.7638 18.142 17.0675 18.142C14.3748 18.142 12.1887 15.956 12.1887 13.2632Z" fill="url(#paint0_linear_8432_22020)"/>
<path d="M28.9203 7.41463L21.6782 9.5391C21.6782 9.5391 20.5852 7.93573 18.2364 7.41463C20.274 7.40374 28.9203 7.41463 28.9203 7.41463Z" fill="#EACA05"/>
<path d="M11.4213 14.8341C10.4042 13.0715 6.2204 5.84756 6.2204 5.84756L11.5841 11.1533C11.5841 11.1533 11.0339 12.2861 11.2403 13.9075L11.4212 14.8341H11.4213Z" fill="#DF3A32"/>
</g>
<defs>
<filter id="filter0_d_8432_22020" x="0" y="0" width="34.267" height="34.3611" filterUnits="userSpaceOnUse" color-interpolation-filters="sRGB">
<feFlood flood-opacity="0" result="BackgroundImageFix"/>
<feColorMatrix in="SourceAlpha" type="matrix" values="0 0 0 0 0 0 0 0 0 0 0 0 0 0 0 0 0 0 127 0" result="hardAlpha"/>
<feOffset dy="4"/>
<feGaussianBlur stdDeviation="2"/>
<feComposite in2="hardAlpha" operator="out"/>
<feColorMatrix type="matrix" values="0 0 0 0 0 0 0 0 0 0 0 0 0 0 0 0 0 0 0.25 0"/>
<feBlend mode="normal" in2="BackgroundImageFix" result="effect1_dropShadow_8432_22020"/>
<feBlend mode="normal" in="SourceGraphic" in2="effect1_dropShadow_8432_22020" result="shape"/>
</filter>
<linearGradient id="paint0_linear_8432_22020" x1="17.0672" y1="8.45344" x2="17.0672" y2="17.8483" gradientUnits="userSpaceOnUse">
<stop stop-color="#86BBE5"/>
<stop offset="1" stop-color="#1072BA"/>
</linearGradient>
</defs>
</svg>
