<svg width="32" height="32" viewBox="0 0 32 32" fill="none" xmlns="http://www.w3.org/2000/svg">
<rect width="32" height="32" rx="4" fill="#FFCE3C"/>
<path d="M12.875 12.002C13.0673 12.002 13.2517 12.0779 13.3877 12.2139C13.5237 12.3498 13.5996 12.5343 13.5996 12.7266C13.5996 12.9188 13.5237 13.1033 13.3877 13.2393C13.2517 13.3752 13.0673 13.4512 12.875 13.4512H10.375C10.2358 13.4512 10.1024 13.507 10.0039 13.6055C9.90545 13.7039 9.84961 13.8373 9.84961 13.9766V23.9766C9.84961 24.1158 9.90545 24.2492 10.0039 24.3477C10.1024 24.4461 10.2358 24.502 10.375 24.502H21.625C21.7642 24.502 21.8976 24.4461 21.9961 24.3477C22.0946 24.2492 22.1504 24.1158 22.1504 23.9766V13.9766C22.1504 13.8373 22.0946 13.7039 21.9961 13.6055C21.8976 13.507 21.7642 13.4512 21.625 13.4512H19.125C18.9327 13.4512 18.7483 13.3752 18.6123 13.2393C18.4763 13.1033 18.4004 12.9188 18.4004 12.7266C18.4004 12.5343 18.4763 12.3498 18.6123 12.2139C18.7483 12.0779 18.9327 12.002 19.125 12.002H21.625C22.1488 12.002 22.6511 12.2097 23.0215 12.5801C23.3919 12.9505 23.5996 13.4528 23.5996 13.9766V23.9766C23.5996 24.5004 23.3919 25.0027 23.0215 25.373C22.6511 25.7434 22.1488 25.9512 21.625 25.9512H10.375C9.8512 25.9512 9.3489 25.7434 8.97852 25.373C8.60813 25.0027 8.40039 24.5004 8.40039 23.9766V13.9766C8.40039 13.4528 8.60813 12.9505 8.97852 12.5801C9.3489 12.2097 9.8512 12.002 10.375 12.002H12.875Z" fill="#5A3384" stroke="#5A3384" stroke-width="0.2"/>
<path d="M16.0004 4.50073C16.0955 4.50076 16.1898 4.519 16.2777 4.55542C16.3658 4.59196 16.4457 4.64614 16.5131 4.71362L20.2631 8.46362C20.3991 8.5997 20.4759 8.78389 20.476 8.97632C20.476 9.16881 20.3992 9.35388 20.2631 9.48999C20.127 9.62586 19.9426 9.70185 19.7504 9.7019C19.5579 9.7019 19.3728 9.62609 19.2367 9.48999L16.725 6.97632V17.7263C16.725 17.9185 16.6489 18.1031 16.5131 18.239C16.3771 18.3749 16.1926 18.4519 16.0004 18.4519C15.8081 18.4519 15.6236 18.375 15.4877 18.239C15.3517 18.103 15.2748 17.9186 15.2748 17.7263V6.97632L12.7631 9.48999C12.6957 9.55723 12.6156 9.6108 12.5277 9.64722C12.4398 9.6836 12.3455 9.70188 12.2504 9.7019C12.0579 9.7019 11.8728 9.62609 11.7367 9.48999C11.6694 9.42267 11.6159 9.34257 11.5795 9.25464C11.543 9.16658 11.5248 9.07163 11.5248 8.97632C11.5248 8.78403 11.6008 8.59967 11.7367 8.46362L15.4867 4.71362C15.554 4.64614 15.634 4.59197 15.722 4.55542C15.8101 4.51887 15.905 4.50073 16.0004 4.50073Z" fill="#5A3384" stroke="#5A3384" stroke-width="0.2"/>
</svg>
