<svg width="24" height="24" viewBox="0 0 24 24" fill="none" xmlns="http://www.w3.org/2000/svg">
<path fill-rule="evenodd" clip-rule="evenodd" d="M18.1907 7.40842C18.1529 7.12738 18.0972 6.84903 18.024 6.57508C17.9468 6.2896 17.8465 6.0109 17.724 5.74175C17.2698 4.77499 16.6066 3.92112 15.7823 3.24175C14.9639 2.54864 13.9568 2.11621 12.8907 2.00008C12.1301 1.96223 11.3693 2.0697 10.649 2.31675C9.9487 2.5551 9.28209 2.8828 8.66566 3.29175C7.4023 4.05575 6.44239 5.23356 5.94899 6.62508C4.76566 10.9417 9.02399 12.6667 9.54066 9.90842C9.54215 9.09495 9.49204 8.28221 9.39066 7.47508C9.42556 7.15912 9.5362 6.85626 9.7132 6.59221C9.8902 6.32816 10.1283 6.11074 10.4073 5.95842C10.9602 5.58979 11.6193 5.41403 12.2823 5.45842C12.5008 5.49049 12.7157 5.54351 12.924 5.61675C13.1219 5.69645 13.3094 5.79999 13.4823 5.92508C13.6572 6.06177 13.799 6.23618 13.8971 6.4353C13.9953 6.63442 14.0472 6.85311 14.049 7.07508C14.0441 7.55911 13.9119 8.03332 13.6657 8.45008C13.0657 9.54175 11.849 10.1167 11.049 10.9501C10.6349 11.4038 10.3475 11.9585 10.2157 12.5584C10.124 13.0667 10.024 13.6084 9.97399 14.1417C9.93277 14.5069 9.91607 14.8744 9.92399 15.2417C9.90952 15.5604 9.97242 15.8777 10.1073 16.1667C10.2115 16.35 10.3812 16.487 10.5823 16.5501C10.7246 16.5902 10.8693 16.6208 11.0157 16.6417L11.5657 16.6834C11.9058 16.7284 12.2505 16.7284 12.5907 16.6834C12.8882 16.6363 13.1643 16.4997 13.3823 16.2917C13.4994 16.1667 13.5775 16.0104 13.6073 15.8417C13.6317 15.4922 13.6317 15.1413 13.6073 14.7917C13.6336 14.3202 13.7005 13.8518 13.8073 13.3918C13.8843 13.1173 14.0023 12.856 14.1573 12.6167C14.2408 12.4971 14.3524 12.3999 14.4823 12.3334C14.7523 12.1917 15.0306 12.0665 15.3157 11.9584C16.1287 11.6822 16.8751 11.2394 17.5073 10.6584C17.9335 10.1852 18.1811 9.57805 18.2073 8.94175V8.19175C18.2201 7.93057 18.2146 7.66881 18.1907 7.40842ZM17.299 8.83342C17.2875 9.26148 17.1252 9.67172 16.8407 9.99175C16.2984 10.4699 15.6627 10.8302 14.974 11.0501C14.6472 11.1713 14.3272 11.3104 14.0157 11.4667C13.7607 11.6106 13.5414 11.8099 13.374 12.0501C13.158 12.373 13 12.7311 12.9073 13.1084C12.786 13.626 12.708 14.1529 12.674 14.6834V15.6251C12.5635 15.693 12.437 15.7304 12.3073 15.7334C12.0914 15.7582 11.8733 15.7582 11.6573 15.7334C11.149 15.6751 10.824 15.7334 10.824 15.2334C10.8077 14.8244 10.8244 14.4147 10.874 14.0084C10.924 13.5834 10.999 13.1751 11.0657 12.7584C11.1574 12.3095 11.3707 11.8943 11.6823 11.5584C12.5157 10.6334 13.749 9.98342 14.3573 8.83342C14.7438 8.1724 14.891 7.39848 14.774 6.64175C14.6703 6.11197 14.3732 5.63969 13.9407 5.31675C13.7143 5.14318 13.4609 5.00804 13.1907 4.91675C12.9218 4.81896 12.6419 4.75459 12.3573 4.72508C11.5321 4.68204 10.7155 4.91033 10.0323 5.37508C9.66736 5.59231 9.36016 5.89434 9.13676 6.25555C8.91336 6.61677 8.78034 7.02652 8.74899 7.45008C8.86588 8.22553 8.93268 9.00771 8.94899 9.79175C8.82399 10.4751 7.47399 11.2417 6.59066 9.29175C6.36912 8.80357 6.26859 8.26916 6.2976 7.73385C6.32662 7.19854 6.48432 6.67812 6.75733 6.21675C7.30103 5.2492 8.0808 4.43502 9.02399 3.85008C9.59882 3.49301 10.218 3.21284 10.8657 3.01675C11.5002 2.81347 12.1674 2.73149 12.8323 2.77508C13.7367 2.90731 14.5795 3.31127 15.249 3.93342C15.9606 4.54752 16.5295 5.30975 16.9157 6.16675C17.0073 6.39175 17.0823 6.61675 17.1573 6.85008C17.2125 7.0808 17.2542 7.31453 17.2823 7.55008C17.2823 7.76675 17.324 7.99175 17.324 8.21675C17.3306 8.42264 17.3223 8.62874 17.299 8.83342Z" fill="#FFCE3C"/>
<path fill-rule="evenodd" clip-rule="evenodd" d="M9.49899 18.9334C9.34731 19.0823 9.22683 19.26 9.14458 19.456C9.06233 19.6521 9.01997 19.8625 9.01997 20.0751C9.01997 20.2877 9.06233 20.4981 9.14458 20.6941C9.22683 20.8901 9.34731 21.0678 9.49899 21.2167C9.59837 21.3205 9.70413 21.4179 9.81566 21.5084C9.9282 21.6005 10.0513 21.6788 10.1823 21.7417C10.5985 21.945 11.063 22.0287 11.524 21.9834C11.9943 21.9379 12.4365 21.7388 12.7823 21.4167C13.0374 21.1753 13.2254 20.8716 13.3276 20.5356C13.4299 20.1996 13.443 19.8427 13.3657 19.5001C12.974 17.7167 10.6907 17.6001 9.49899 18.9334ZM12.1823 20.7751C11.9603 20.9477 11.6885 21.0441 11.4073 21.0501C11.1193 21.0755 10.8301 21.0177 10.574 20.8834L10.1573 20.5667C9.67399 20.1001 9.93233 19.5417 10.3657 19.1584C11.6657 18.0417 12.5573 18.9751 12.6573 19.6584C12.6787 19.8695 12.6464 20.0826 12.5633 20.2778C12.4803 20.473 12.3492 20.6441 12.1823 20.7751Z" fill="#FFCE3C"/>
</svg>
