<svg width="28" height="28" viewBox="0 0 28 28" fill="none" xmlns="http://www.w3.org/2000/svg">
<path d="M26.7381 13.5576C26.7381 17.0533 25.3495 20.4058 22.8776 22.8776C20.4058 25.3495 17.0532 26.7381 13.5575 26.7381C10.0618 26.7381 6.7093 25.3495 4.23747 22.8776C1.76564 20.4058 0.376984 17.0533 0.376984 13.5576C0.376984 10.0619 1.76564 6.70934 4.23747 4.2375C6.7093 1.76566 10.0618 0.376995 13.5575 0.376984C17.0532 0.376984 20.4058 1.76564 22.8776 4.23748C25.3495 6.70932 26.7381 10.0619 26.7381 13.5576Z" fill="url(#paint0_linear_8432_22031)" stroke="#CDCDCD" stroke-width="0.753985" stroke-linecap="round" stroke-linejoin="round"/>
<path d="M25.7052 13.5574C25.7052 16.7792 24.4253 19.869 22.1472 22.1472C19.869 24.4253 16.7792 25.7052 13.5574 25.7052C10.3356 25.7052 7.24577 24.4253 4.96762 22.1472C2.68948 19.869 1.40964 16.7792 1.40964 13.5574C1.40964 10.3356 2.68948 7.2458 4.96762 4.96765C7.24577 2.68951 10.3356 1.40965 13.5574 1.40964C16.7792 1.40964 19.869 2.68949 22.1472 4.96764C24.4253 7.24579 25.7052 10.3356 25.7052 13.5574Z" fill="url(#paint1_radial_8432_22031)"/>
<path d="M13.5575 2.04337C13.5342 2.04331 13.5112 2.04785 13.4896 2.05674C13.4681 2.06562 13.4486 2.07867 13.4321 2.09513C13.4157 2.11159 13.4026 2.13114 13.3937 2.15265C13.3848 2.17417 13.3803 2.19723 13.3804 2.22051V4.26337C13.3803 4.28665 13.3848 4.30971 13.3937 4.33123C13.4026 4.35274 13.4157 4.37229 13.4321 4.38875C13.4486 4.40521 13.4681 4.41826 13.4896 4.42714C13.5112 4.43602 13.5342 4.44057 13.5575 4.44051C13.5808 4.44056 13.6038 4.43601 13.6253 4.42712C13.6468 4.41823 13.6664 4.40518 13.6828 4.38872C13.6993 4.37226 13.7123 4.35272 13.7212 4.33121C13.7301 4.30969 13.7346 4.28664 13.7346 4.26337V2.22047C13.7346 2.1972 13.7301 2.17414 13.7212 2.15263C13.7123 2.13112 13.6993 2.11158 13.6828 2.09513C13.6663 2.07867 13.6468 2.06563 13.6253 2.05675C13.6038 2.04786 13.5807 2.04332 13.5575 2.04337H13.5575ZM12.3988 2.11658C12.3869 2.1153 12.3748 2.11536 12.3628 2.11675C12.3397 2.11911 12.3172 2.12602 12.2967 2.13709C12.2763 2.14815 12.2582 2.16315 12.2435 2.18123C12.2289 2.1993 12.2179 2.22009 12.2113 2.24241C12.2047 2.26473 12.2026 2.28813 12.205 2.31127L12.2943 3.16593C12.2967 3.18908 12.3036 3.21154 12.3147 3.23201C12.3257 3.25249 12.3407 3.27057 12.3588 3.28523C12.3769 3.29989 12.3977 3.31084 12.42 3.31744C12.4423 3.32405 12.4657 3.32618 12.4888 3.32372C12.512 3.32135 12.5345 3.31444 12.5549 3.30337C12.5754 3.2923 12.5935 3.2773 12.6082 3.25922C12.6228 3.24114 12.6338 3.22034 12.6404 3.19802C12.647 3.1757 12.6491 3.1523 12.6466 3.12915L12.5574 2.27453C12.5533 2.23394 12.5352 2.19603 12.5063 2.16724C12.4774 2.13845 12.4394 2.12055 12.3988 2.11658H12.3988ZM14.7242 2.11742C14.6836 2.12137 14.6456 2.13924 14.6167 2.16802C14.5878 2.1968 14.5697 2.2347 14.5655 2.27529L14.4757 3.12987C14.4732 3.15302 14.4753 3.17642 14.4819 3.19875C14.4885 3.22107 14.4994 3.24188 14.5141 3.25997C14.5287 3.27806 14.5468 3.29307 14.5673 3.30416C14.5877 3.31524 14.6102 3.32217 14.6334 3.32456C14.6565 3.32704 14.6799 3.32493 14.7022 3.31834C14.7245 3.31176 14.7453 3.30083 14.7634 3.28618C14.7815 3.27154 14.7965 3.25346 14.8076 3.233C14.8187 3.21254 14.8256 3.19009 14.828 3.16694L14.9178 2.31228C14.9203 2.28914 14.9182 2.26573 14.9116 2.24341C14.905 2.22109 14.8941 2.20029 14.8794 2.18221C14.8648 2.16413 14.8467 2.14912 14.8262 2.13804C14.8057 2.12697 14.7833 2.12005 14.7601 2.11767C14.7482 2.11645 14.7362 2.11638 14.7242 2.11746L14.7242 2.11742ZM11.2086 2.28918C11.1823 2.28925 11.1563 2.29519 11.1326 2.30657C11.1089 2.31795 11.088 2.33449 11.0715 2.35497C11.055 2.37546 11.0432 2.39937 11.0372 2.42497C11.0311 2.45056 11.0308 2.4772 11.0363 2.50293L11.4593 4.50152C11.4641 4.5243 11.4733 4.54592 11.4864 4.56512C11.4996 4.58433 11.5164 4.60075 11.5359 4.61344C11.5554 4.62613 11.5772 4.63484 11.6001 4.63907C11.623 4.64331 11.6465 4.64298 11.6693 4.6381C11.692 4.63334 11.7137 4.62412 11.7329 4.61098C11.7521 4.59784 11.7685 4.58104 11.7812 4.56154C11.7939 4.54204 11.8026 4.52023 11.8068 4.49735C11.8111 4.47447 11.8108 4.45098 11.8059 4.42823L11.3828 2.42959C11.3745 2.38966 11.3525 2.35384 11.3208 2.32823C11.289 2.30261 11.2494 2.28877 11.2086 2.28905V2.28918ZM15.9144 2.29086C15.8736 2.29051 15.8339 2.30431 15.8022 2.3299C15.7704 2.35549 15.7485 2.39129 15.7401 2.43123L15.3155 4.42953C15.3107 4.45229 15.3103 4.47578 15.3145 4.49867C15.3188 4.52156 15.3275 4.54339 15.3401 4.5629C15.3528 4.58242 15.3692 4.59924 15.3884 4.6124C15.4076 4.62556 15.4292 4.63479 15.452 4.63958C15.4748 4.64446 15.4982 4.64481 15.5211 4.64059C15.544 4.63637 15.5658 4.62768 15.5854 4.615C15.6049 4.60233 15.6217 4.58593 15.6349 4.56673C15.648 4.54754 15.6573 4.52594 15.662 4.50317L16.0866 2.50482C16.0921 2.4791 16.0918 2.45246 16.0858 2.42687C16.0797 2.40127 16.068 2.37735 16.0515 2.35686C16.035 2.33637 16.0141 2.31982 15.9904 2.30842C15.9667 2.29703 15.9407 2.29107 15.9144 2.29099V2.29086ZM10.0727 2.60946C10.0491 2.60732 10.0253 2.6101 10.0028 2.61763C9.98063 2.62477 9.96012 2.63621 9.9424 2.6513C9.92469 2.6664 9.91013 2.68484 9.89957 2.70557C9.889 2.7263 9.88263 2.74892 9.88082 2.77212C9.87902 2.79532 9.88181 2.81864 9.88905 2.84076L10.1546 3.65806C10.1617 3.68021 10.1731 3.70073 10.1882 3.71845C10.2033 3.73617 10.2218 3.75073 10.2425 3.76129C10.2633 3.77186 10.2859 3.77823 10.3091 3.78003C10.3323 3.78183 10.3556 3.77903 10.3778 3.77179C10.3999 3.76464 10.4204 3.75319 10.4382 3.73809C10.4559 3.723 10.4704 3.70455 10.481 3.6838C10.4916 3.66306 10.4979 3.64044 10.4997 3.61723C10.5015 3.59403 10.4987 3.57069 10.4915 3.54857L10.2259 2.73132C10.2152 2.69817 10.195 2.66892 10.1677 2.64724C10.1405 2.62556 10.1074 2.61241 10.0727 2.60946ZM17.0438 2.60989C17.0091 2.61284 16.9761 2.62598 16.9488 2.64766C16.9216 2.66934 16.9013 2.69859 16.8906 2.73174L16.6249 3.54895C16.6177 3.57107 16.6149 3.5944 16.6167 3.6176C16.6185 3.6408 16.6248 3.66342 16.6354 3.68416C16.646 3.70489 16.6605 3.72334 16.6782 3.73844C16.696 3.75353 16.7165 3.76498 16.7386 3.77213C16.7607 3.77937 16.7841 3.78217 16.8073 3.78038C16.8305 3.77858 16.8531 3.77222 16.8738 3.76166C16.8946 3.7511 16.913 3.73655 16.9281 3.71884C16.9432 3.70114 16.9546 3.68062 16.9618 3.65848L17.2275 2.84118C17.2348 2.81907 17.2376 2.79574 17.2358 2.77254C17.234 2.74934 17.2276 2.72672 17.217 2.70599C17.2065 2.68525 17.1919 2.6668 17.1742 2.65171C17.1565 2.63661 17.136 2.62516 17.1139 2.61801C17.0913 2.61066 17.0675 2.60789 17.0438 2.60989ZM8.94943 3.02055C8.92573 3.02102 8.90236 3.02626 8.88072 3.03595C8.85944 3.04536 8.84023 3.05888 8.82419 3.07573C8.80815 3.09258 8.79559 3.11244 8.78724 3.13415C8.77889 3.15587 8.77491 3.17902 8.77553 3.20228C8.77615 3.22554 8.78135 3.24845 8.79085 3.26969L9.6206 5.1365C9.63 5.15779 9.64352 5.177 9.66037 5.19305C9.67722 5.20909 9.69708 5.22165 9.71879 5.23C9.74051 5.23835 9.76367 5.24233 9.78693 5.24171C9.81019 5.24109 9.83309 5.23588 9.85433 5.22638C9.87562 5.21698 9.89484 5.20346 9.91089 5.18662C9.92694 5.16977 9.93951 5.14991 9.94787 5.1282C9.95623 5.10648 9.96021 5.08333 9.9596 5.06006C9.95899 5.0368 9.95379 5.01389 9.94429 4.99264L9.1145 3.12587C9.10044 3.09399 9.07726 3.06698 9.04789 3.04824C9.01853 3.02949 8.98427 3.01985 8.94943 3.02051V3.02055ZM18.1798 3.02678C18.145 3.02611 18.1107 3.03573 18.0813 3.05442C18.052 3.07312 18.0287 3.10006 18.0146 3.13189L17.1823 4.99757C17.1728 5.0188 17.1676 5.0417 17.1669 5.06496C17.1663 5.08822 17.1702 5.11138 17.1786 5.13311C17.1869 5.15484 17.1994 5.17471 17.2154 5.19158C17.2315 5.20846 17.2507 5.222 17.2719 5.23143C17.2932 5.24095 17.3161 5.24618 17.3393 5.24683C17.3626 5.24748 17.3858 5.24352 17.4075 5.23519C17.4292 5.22687 17.4491 5.21433 17.466 5.1983C17.4828 5.18228 17.4964 5.16308 17.5058 5.1418L18.3381 3.27621C18.3476 3.25498 18.3528 3.23207 18.3535 3.2088C18.3541 3.18554 18.3502 3.16237 18.3419 3.14064C18.3335 3.1189 18.321 3.09903 18.305 3.08215C18.2889 3.06528 18.2697 3.05174 18.2485 3.04231C18.2268 3.03262 18.2035 3.02734 18.1798 3.02678ZM7.90682 3.57218C7.87158 3.56964 7.83641 3.57783 7.80592 3.59566C7.78574 3.60725 7.76805 3.62272 7.75386 3.64117C7.73968 3.65962 7.72928 3.68069 7.72326 3.70317C7.71723 3.72565 7.71571 3.74909 7.71878 3.77216C7.72184 3.79523 7.72944 3.81747 7.74112 3.8376L8.17076 4.58181C8.18236 4.60199 8.19782 4.61967 8.21627 4.63386C8.23472 4.64805 8.25579 4.65845 8.27827 4.66447C8.30075 4.67049 8.3242 4.67201 8.34727 4.66894C8.37034 4.66588 8.39258 4.65829 8.4127 4.6466C8.43288 4.63501 8.45057 4.61954 8.46476 4.60109C8.47894 4.58265 8.48934 4.56158 8.49537 4.5391C8.50139 4.51662 8.50291 4.49317 8.49984 4.4701C8.49678 4.44703 8.48918 4.42479 8.4775 4.40466L8.0479 3.6605C8.03345 3.63533 8.01302 3.6141 7.98843 3.5987C7.96383 3.58329 7.93581 3.57419 7.90686 3.57218H7.90682ZM19.2081 3.57218C19.1792 3.57415 19.1511 3.58324 19.1265 3.59864C19.102 3.61404 19.0816 3.63527 19.0671 3.66045L18.6374 4.40466C18.6257 4.4248 18.6181 4.44704 18.6151 4.47011C18.612 4.49318 18.6136 4.51663 18.6196 4.53912C18.6256 4.5616 18.636 4.58266 18.6502 4.60111C18.6644 4.61956 18.6821 4.63502 18.7023 4.6466C18.7224 4.65829 18.7447 4.66588 18.7677 4.66894C18.7908 4.67201 18.8142 4.67049 18.8367 4.66447C18.8592 4.65845 18.8803 4.64805 18.8987 4.63386C18.9172 4.61967 18.9326 4.60199 18.9442 4.58181L19.3739 3.83756C19.3856 3.81743 19.3932 3.79519 19.3962 3.77212C19.3993 3.74905 19.3978 3.7256 19.3917 3.70312C19.3857 3.68064 19.3753 3.65957 19.3611 3.64112C19.347 3.62267 19.3293 3.60721 19.3091 3.59561C19.2785 3.57789 19.2433 3.56973 19.2081 3.57218ZM6.89437 4.20362C6.85908 4.2049 6.82498 4.21666 6.79641 4.23741C6.77755 4.25104 6.76156 4.26825 6.74936 4.28808C6.73716 4.3079 6.72901 4.32994 6.72535 4.35292C6.72169 4.3759 6.72262 4.39938 6.72806 4.42201C6.7335 4.44464 6.74336 4.46597 6.75707 4.48478L7.95664 6.13839C7.97027 6.15725 7.98749 6.17324 8.00732 6.18543C8.02715 6.19763 8.04918 6.20578 8.07217 6.20944C8.09516 6.21309 8.11864 6.21217 8.14127 6.20673C8.1639 6.20129 8.18523 6.19144 8.20405 6.17773C8.22291 6.16411 8.23889 6.14689 8.25108 6.12707C8.26328 6.10725 8.27143 6.08522 8.27509 6.06224C8.27874 6.03926 8.27783 6.01578 8.27239 5.99316C8.26695 5.97054 8.25709 5.94921 8.24339 5.9304L7.04378 4.27679C7.02681 4.25327 7.0043 4.2343 6.97824 4.22154C6.95219 4.20879 6.9234 4.20265 6.89441 4.20366L6.89437 4.20362ZM20.2332 4.21263C20.2042 4.21156 20.1754 4.21766 20.1494 4.23038C20.1233 4.2431 20.1008 4.26204 20.0838 4.28554L18.882 5.93756C18.8682 5.95635 18.8583 5.97767 18.8529 6.00029C18.8474 6.02291 18.8465 6.04639 18.8501 6.06938C18.8537 6.09236 18.8618 6.11441 18.874 6.13425C18.8862 6.15408 18.9022 6.17132 18.921 6.18497C18.9398 6.1987 18.9611 6.20858 18.9837 6.21406C19.0063 6.21953 19.0298 6.22049 19.0528 6.21687C19.0758 6.21325 19.0978 6.20512 19.1177 6.19296C19.1375 6.1808 19.1548 6.16484 19.1684 6.146L20.3702 4.49403C20.3839 4.47524 20.3938 4.45392 20.3992 4.4313C20.4047 4.40868 20.4057 4.38521 20.402 4.36222C20.3984 4.33923 20.3903 4.31719 20.3781 4.29735C20.3659 4.27752 20.35 4.26028 20.3311 4.24662C20.3026 4.22577 20.2685 4.21393 20.2332 4.21263ZM5.98943 4.96256C5.96618 4.9613 5.94291 4.96467 5.92098 4.97247C5.89904 4.98027 5.87887 4.99235 5.86164 5.008C5.84431 5.02353 5.83022 5.04234 5.82018 5.06333C5.81014 5.08432 5.80434 5.10709 5.80312 5.13033C5.8019 5.15356 5.80528 5.17681 5.81307 5.19874C5.82086 5.22067 5.83291 5.24084 5.84851 5.2581L6.42349 5.89683C6.43902 5.91416 6.45782 5.92825 6.47882 5.93829C6.49981 5.94833 6.52258 5.95412 6.54582 5.95534C6.56906 5.95656 6.59231 5.95317 6.61424 5.94537C6.63617 5.93758 6.65634 5.92553 6.67359 5.90991C6.69092 5.89438 6.70501 5.87557 6.71505 5.85458C6.7251 5.83358 6.73089 5.81081 6.73211 5.78757C6.73333 5.76433 6.72995 5.74107 6.72216 5.71914C6.71437 5.69721 6.70233 5.67703 6.68672 5.65977L6.11183 5.02109C6.0963 5.00375 6.07749 4.98965 6.05649 4.97961C6.03549 4.96956 6.01271 4.96377 5.98947 4.96256H5.98943ZM21.1268 4.96382C21.0798 4.96634 21.0358 4.98741 21.0044 5.02239L20.4295 5.66095C20.4138 5.6782 20.4018 5.69838 20.394 5.72031C20.3862 5.74224 20.3828 5.7655 20.384 5.78875C20.3852 5.812 20.391 5.83478 20.401 5.85578C20.4111 5.87678 20.4252 5.89559 20.4425 5.91113C20.4598 5.92675 20.4799 5.93879 20.5019 5.94659C20.5238 5.95438 20.5471 5.95776 20.5703 5.95654C20.5935 5.95532 20.6163 5.94952 20.6373 5.93948C20.6583 5.92943 20.6771 5.91534 20.6926 5.89801L21.2677 5.25945C21.2833 5.24218 21.2953 5.222 21.3031 5.20007C21.3109 5.17813 21.3143 5.15488 21.3131 5.13163C21.3118 5.10839 21.306 5.08561 21.296 5.06461C21.286 5.04361 21.2719 5.0248 21.2545 5.00926C21.2373 4.99365 21.2171 4.98159 21.1952 4.97379C21.1733 4.96599 21.1501 4.9626 21.1268 4.96382H21.1268ZM5.1221 5.79568C5.09886 5.79693 5.0761 5.80274 5.05511 5.81279C5.03413 5.82284 5.01533 5.83693 4.99978 5.85425C4.98417 5.87151 4.97212 5.89168 4.96433 5.91362C4.95654 5.93555 4.95315 5.9588 4.95437 5.98205C4.95559 6.00529 4.96139 6.02806 4.97144 6.04906C4.98148 6.07005 4.99558 6.08886 5.01291 6.10439L6.53125 7.47117C6.54851 7.48677 6.56868 7.49881 6.59061 7.5066C6.61254 7.51439 6.63579 7.51777 6.65903 7.51655C6.68226 7.51533 6.70503 7.50954 6.72602 7.4995C6.74702 7.48945 6.76582 7.47536 6.78135 7.45804C6.79696 7.44078 6.80901 7.42061 6.81681 7.39868C6.82461 7.37676 6.82799 7.35351 6.82678 7.33027C6.82556 7.30703 6.81977 7.28426 6.80972 7.26326C6.79968 7.24227 6.78559 7.22347 6.76826 7.20793L5.24989 5.84116C5.23263 5.82553 5.21245 5.81348 5.19051 5.80568C5.16857 5.79788 5.14531 5.79449 5.12206 5.79572L5.1221 5.79568ZM21.9983 5.80169C21.9751 5.80042 21.9518 5.80377 21.9298 5.81154C21.9079 5.81932 21.8877 5.83138 21.8704 5.84701L20.3512 7.21273C20.3339 7.22825 20.3198 7.24704 20.3097 7.26802C20.2997 7.289 20.2938 7.31176 20.2926 7.335C20.2913 7.35824 20.2947 7.3815 20.3025 7.40343C20.3102 7.42537 20.3223 7.44556 20.3379 7.46283C20.3534 7.48018 20.3722 7.49428 20.3932 7.50434C20.4142 7.5144 20.4369 7.52021 20.4602 7.52144C20.4834 7.52268 20.5067 7.51931 20.5286 7.51154C20.5506 7.50376 20.5708 7.49173 20.588 7.47613L22.1073 6.11041C22.1247 6.09489 22.1388 6.07609 22.1488 6.05511C22.1589 6.03412 22.1647 6.01136 22.166 5.98812C22.1672 5.96488 22.1638 5.94163 22.156 5.91969C22.1483 5.89776 22.1362 5.87758 22.1206 5.8603C22.1051 5.84296 22.0863 5.82885 22.0653 5.81879C22.0443 5.80873 22.0216 5.80292 21.9983 5.80169ZM4.40082 6.72317C4.37183 6.72212 4.34303 6.72824 4.31697 6.74098C4.2909 6.75372 4.26839 6.77269 4.25141 6.79621C4.23768 6.81501 4.2278 6.83634 4.22234 6.85897C4.21688 6.8816 4.21595 6.90508 4.21959 6.92807C4.22323 6.95106 4.23139 6.97311 4.24358 6.99294C4.25577 7.01277 4.27175 7.02999 4.29062 7.04363L4.98581 7.54867C5.0046 7.5624 5.02592 7.57229 5.04854 7.57775C5.07117 7.58322 5.09464 7.58416 5.11763 7.58052C5.14062 7.57689 5.16266 7.56874 5.18249 7.55656C5.20232 7.54438 5.21955 7.5284 5.23318 7.50954C5.2469 7.49074 5.25678 7.46942 5.26224 7.4468C5.2677 7.42417 5.26864 7.40069 5.265 7.37771C5.26137 7.35472 5.25323 7.33268 5.24105 7.31284C5.22888 7.29301 5.2129 7.27577 5.19405 7.26213L4.49882 6.75704C4.47027 6.73622 4.43614 6.72442 4.40082 6.72317ZM22.7189 6.72961C22.6836 6.73086 22.6495 6.74263 22.6209 6.76339L21.9254 7.26802C21.9065 7.28165 21.8906 7.29887 21.8784 7.3187C21.8662 7.33852 21.858 7.36056 21.8543 7.38355C21.8507 7.40653 21.8516 7.43002 21.857 7.45265C21.8625 7.47528 21.8723 7.49662 21.886 7.51543C21.8997 7.5343 21.9169 7.55029 21.9367 7.56248C21.9565 7.57468 21.9786 7.58284 22.0015 7.58649C22.0245 7.59015 22.048 7.58923 22.0706 7.58379C22.0933 7.57834 22.1146 7.56848 22.1334 7.55477L22.829 7.05011C22.8478 7.03648 22.8638 7.01926 22.876 6.99944C22.8882 6.97962 22.8963 6.95758 22.9 6.9346C22.9036 6.91162 22.9027 6.88815 22.8973 6.86553C22.8918 6.84291 22.882 6.82158 22.8683 6.80278C22.8513 6.77925 22.8288 6.76027 22.8027 6.74751C22.7767 6.73474 22.7479 6.7286 22.7189 6.72961ZM3.72684 7.71243C3.69789 7.71441 3.66988 7.7235 3.64529 7.7389C3.6207 7.7543 3.60029 7.77553 3.58588 7.80071C3.5742 7.82084 3.56661 7.84307 3.56354 7.86614C3.56048 7.88921 3.562 7.91266 3.56802 7.93514C3.57404 7.95762 3.58444 7.97869 3.59863 7.99714C3.61281 8.01559 3.6305 8.03106 3.65068 8.04265L5.41988 9.0641C5.44 9.07579 5.46224 9.08338 5.48531 9.08644C5.50838 9.08951 5.53183 9.08799 5.55431 9.08197C5.57679 9.07595 5.59786 9.06554 5.61631 9.05136C5.63476 9.03717 5.65022 9.01948 5.66182 8.9993C5.6735 8.97918 5.68109 8.95694 5.68416 8.93387C5.68722 8.9108 5.6857 8.88735 5.67968 8.86487C5.67366 8.84239 5.66326 8.82132 5.64907 8.80287C5.63489 8.78442 5.6172 8.76896 5.59702 8.75736L3.82782 7.73591C3.79726 7.71818 3.76209 7.71 3.72684 7.71243ZM23.3882 7.71243C23.3529 7.7099 23.3177 7.71808 23.2872 7.73591L21.518 8.75736C21.4978 8.76896 21.4802 8.78442 21.466 8.80287C21.4518 8.82132 21.4414 8.84239 21.4354 8.86487C21.4293 8.88735 21.4278 8.9108 21.4309 8.93387C21.434 8.95694 21.4415 8.97918 21.4532 8.9993C21.4648 9.01948 21.4803 9.03717 21.4987 9.05136C21.5172 9.06554 21.5383 9.07595 21.5607 9.08197C21.5832 9.08799 21.6067 9.08951 21.6297 9.08644C21.6528 9.08338 21.675 9.07579 21.6952 9.0641L23.4644 8.04269C23.4846 8.0311 23.5023 8.01563 23.5165 7.99718C23.5306 7.97873 23.541 7.95766 23.5471 7.93518C23.5531 7.9127 23.5546 7.88926 23.5515 7.86619C23.5485 7.84312 23.5409 7.82088 23.5292 7.80075C23.5147 7.77559 23.4943 7.75437 23.4697 7.73898C23.4451 7.72358 23.4171 7.71448 23.3882 7.71248V7.71243ZM3.21716 8.76692C3.18234 8.76615 3.14806 8.77572 3.11867 8.79442C3.08928 8.81312 3.06608 8.84011 3.05201 8.87198C3.04248 8.89321 3.03724 8.91612 3.03659 8.93938C3.03594 8.96265 3.03989 8.98581 3.04821 9.00754C3.05653 9.02928 3.06907 9.04915 3.08509 9.06603C3.10112 9.0829 3.12032 9.09645 3.14159 9.10588L3.92645 9.45596C3.94768 9.46549 3.97059 9.47073 3.99385 9.47139C4.01712 9.47204 4.04028 9.46809 4.06201 9.45977C4.08375 9.45144 4.10362 9.43891 4.1205 9.42288C4.13737 9.40686 4.15092 9.38766 4.16035 9.36638C4.16988 9.34515 4.17512 9.32224 4.17577 9.29897C4.17642 9.27571 4.17247 9.25254 4.16414 9.23081C4.15581 9.20907 4.14327 9.1892 4.12724 9.17233C4.11121 9.15545 4.09201 9.14191 4.07073 9.13248L3.28592 8.7824C3.26427 8.77269 3.24089 8.76743 3.21716 8.76696V8.76692ZM23.9012 8.77424C23.8775 8.77472 23.8541 8.77997 23.8324 8.78968L23.0474 9.13917C23.0261 9.14858 23.0069 9.1621 22.9908 9.17896C22.9748 9.19582 22.9622 9.21569 22.9539 9.23741C22.9455 9.25914 22.9416 9.2823 22.9422 9.30557C22.9428 9.32883 22.948 9.35174 22.9576 9.37299C22.967 9.39427 22.9805 9.41349 22.9974 9.42953C23.0143 9.44557 23.0341 9.45813 23.0559 9.46647C23.0776 9.47481 23.1008 9.47878 23.1241 9.47815C23.1473 9.47751 23.1702 9.47229 23.1915 9.46278L23.9765 9.11325C23.9978 9.10383 24.017 9.0903 24.033 9.07343C24.049 9.05657 24.0616 9.03671 24.0699 9.01498C24.0783 8.99326 24.0822 8.9701 24.0816 8.94684C24.081 8.92357 24.0757 8.90067 24.0662 8.87943C24.0522 8.84758 24.029 8.82061 23.9996 8.80189C23.9703 8.78317 23.936 8.77355 23.9012 8.77424ZM2.76299 9.86907C2.72829 9.87199 2.69524 9.8851 2.66797 9.90675C2.64071 9.9284 2.62045 9.95763 2.60975 9.99076C2.60249 10.0129 2.59967 10.0362 2.60144 10.0594C2.60322 10.0826 2.60957 10.1052 2.62011 10.126C2.63065 10.1467 2.64519 10.1652 2.66289 10.1803C2.68058 10.1954 2.70109 10.2068 2.72323 10.214L4.66561 10.8469C4.68772 10.8542 4.71106 10.857 4.73426 10.8552C4.75747 10.8535 4.7801 10.8471 4.80085 10.8366C4.8216 10.826 4.84006 10.8115 4.85517 10.7938C4.87028 10.7761 4.88175 10.7556 4.88891 10.7334C4.89617 10.7113 4.89899 10.688 4.89721 10.6648C4.89542 10.6416 4.88908 10.6189 4.87853 10.5982C4.86798 10.5775 4.85344 10.559 4.83574 10.5439C4.81804 10.5288 4.79753 10.5173 4.77539 10.5101L2.833 9.87719C2.81045 9.86981 2.78664 9.86703 2.76299 9.86903V9.86907ZM24.3545 9.87664C24.3309 9.8745 24.3071 9.87728 24.2846 9.88481L22.3418 10.5163C22.3196 10.5235 22.2991 10.5349 22.2814 10.55C22.2637 10.5651 22.2491 10.5836 22.2386 10.6043C22.228 10.6251 22.2216 10.6477 22.2198 10.6709C22.2181 10.6941 22.2209 10.7174 22.2281 10.7396C22.2353 10.7617 22.2467 10.7822 22.2618 10.7999C22.2769 10.8176 22.2954 10.8322 22.3161 10.8427C22.3369 10.8533 22.3595 10.8596 22.3827 10.8614C22.4059 10.8632 22.4292 10.8604 22.4513 10.8532L24.3941 10.2217C24.4162 10.2145 24.4368 10.2031 24.4545 10.188C24.4722 10.1729 24.4868 10.1544 24.4973 10.1337C24.5079 10.113 24.5143 10.0903 24.5161 10.0671C24.5179 10.0439 24.5151 10.0206 24.5078 9.99846C24.4971 9.9653 24.4769 9.93605 24.4496 9.91437C24.4223 9.89269 24.3892 9.87955 24.3545 9.8766V9.87664ZM2.48002 11.0259C2.43921 11.0256 2.39955 11.0394 2.36776 11.065C2.33598 11.0906 2.31403 11.1264 2.30566 11.1663C2.30077 11.1891 2.30043 11.2126 2.30465 11.2355C2.30887 11.2584 2.31757 11.2802 2.33025 11.2997C2.34292 11.3192 2.35933 11.336 2.37853 11.3492C2.39773 11.3624 2.41934 11.3716 2.44211 11.3764L3.28268 11.555C3.30543 11.5599 3.32893 11.5603 3.35182 11.556C3.3747 11.5518 3.39653 11.5431 3.41605 11.5305C3.43557 11.5178 3.45239 11.5014 3.46554 11.4822C3.4787 11.463 3.48794 11.4414 3.49272 11.4186C3.49761 11.3958 3.49795 11.3723 3.49374 11.3495C3.48952 11.3266 3.48083 11.3047 3.46815 11.2852C3.45548 11.2657 3.43907 11.2489 3.41988 11.2357C3.40069 11.2226 3.37908 11.2133 3.35631 11.2085L2.51579 11.0299C2.50403 11.0274 2.49204 11.0261 2.48002 11.0261V11.0259ZM24.6353 11.0276C24.6233 11.0279 24.6114 11.0292 24.5996 11.0314L23.759 11.21C23.7363 11.2148 23.7147 11.224 23.6955 11.2371C23.6763 11.2503 23.6599 11.2671 23.6472 11.2866C23.6345 11.3061 23.6258 11.3279 23.6216 11.3508C23.6174 11.3737 23.6177 11.3972 23.6226 11.4199C23.6274 11.4427 23.6366 11.4643 23.6498 11.4835C23.6629 11.5027 23.6798 11.5191 23.6993 11.5318C23.7188 11.5445 23.7406 11.5532 23.7635 11.5574C23.7864 11.5617 23.8099 11.5613 23.8327 11.5565L24.6732 11.3779C24.696 11.3731 24.7176 11.3639 24.7368 11.3507C24.756 11.3375 24.7724 11.3207 24.785 11.3012C24.7977 11.2817 24.8064 11.2599 24.8107 11.237C24.8149 11.2141 24.8146 11.1906 24.8097 11.1678C24.8013 11.1279 24.7793 11.0921 24.7476 11.0665C24.7158 11.0409 24.6761 11.0271 24.6353 11.0274V11.0276ZM2.26581 12.1896C2.22522 12.1936 2.18723 12.2114 2.15829 12.2401C2.12935 12.2689 2.11125 12.3067 2.10706 12.3473C2.10455 12.3704 2.10664 12.3939 2.1132 12.4162C2.11977 12.4385 2.13068 12.4593 2.14532 12.4774C2.15995 12.4955 2.17802 12.5106 2.19848 12.5217C2.21894 12.5328 2.24139 12.5397 2.26455 12.5421L4.29609 12.7569C4.31924 12.7594 4.34265 12.7573 4.36499 12.7507C4.38732 12.7442 4.40814 12.7332 4.42624 12.7186C4.44434 12.704 4.45938 12.6859 4.47047 12.6654C4.48157 12.645 4.48852 12.6225 4.49091 12.5993C4.49341 12.5762 4.49131 12.5528 4.48474 12.5304C4.47816 12.5081 4.46724 12.4873 4.4526 12.4692C4.43796 12.4511 4.41988 12.4361 4.39941 12.425C4.37895 12.4139 4.35649 12.407 4.33333 12.4046L2.30174 12.1898C2.2898 12.1885 2.27776 12.1885 2.26581 12.1896ZM24.851 12.2049C24.839 12.2036 24.8269 12.2037 24.815 12.205L22.7832 12.4171C22.76 12.4195 22.7376 12.4264 22.7171 12.4374C22.6966 12.4485 22.6785 12.4635 22.6639 12.4816C22.6492 12.4997 22.6383 12.5204 22.6317 12.5428C22.6251 12.5651 22.6229 12.5885 22.6254 12.6116C22.6278 12.6348 22.6347 12.6572 22.6457 12.6777C22.6568 12.6982 22.6718 12.7163 22.6899 12.7309C22.708 12.7456 22.7288 12.7566 22.7511 12.7632C22.7734 12.7698 22.7968 12.7719 22.82 12.7694L24.8518 12.5573C24.8749 12.555 24.8974 12.5481 24.9178 12.537C24.9383 12.5259 24.9564 12.5109 24.9711 12.4929C24.9857 12.4748 24.9967 12.454 25.0033 12.4317C25.0099 12.4094 25.012 12.386 25.0095 12.3628C25.0054 12.3222 24.9874 12.2843 24.9585 12.2555C24.9296 12.2268 24.8916 12.2088 24.851 12.2049V12.2049ZM2.23143 13.3808C2.20816 13.3808 2.1851 13.3853 2.16358 13.3942C2.14206 13.4031 2.12251 13.4161 2.10605 13.4326C2.08959 13.449 2.07654 13.4686 2.06766 13.4901C2.05878 13.5116 2.05424 13.5347 2.05429 13.558C2.05425 13.5812 2.0588 13.6043 2.06769 13.6258C2.07657 13.6473 2.08962 13.6668 2.10608 13.6833C2.12254 13.6997 2.14209 13.7128 2.1636 13.7217C2.18511 13.7305 2.20816 13.7351 2.23143 13.735H3.09077C3.11404 13.7351 3.13709 13.7305 3.1586 13.7217C3.18012 13.7128 3.19966 13.6997 3.21612 13.6833C3.23258 13.6668 3.24563 13.6473 3.25451 13.6258C3.2634 13.6043 3.26795 13.5812 3.26791 13.5579C3.26796 13.5347 3.26341 13.5116 3.25453 13.4901C3.24564 13.4686 3.23259 13.449 3.21614 13.4326C3.19968 13.4161 3.18013 13.4031 3.15861 13.3942C3.1371 13.3853 3.11404 13.3807 3.09077 13.3808L2.23143 13.3808ZM24.0242 13.3808C24.0009 13.3808 23.9779 13.3853 23.9563 13.3942C23.9348 13.4031 23.9153 13.4161 23.8988 13.4326C23.8824 13.449 23.8693 13.4686 23.8604 13.4901C23.8515 13.5116 23.847 13.5347 23.8471 13.558C23.847 13.5812 23.8516 13.6043 23.8604 13.6258C23.8693 13.6473 23.8824 13.6668 23.8988 13.6833C23.9153 13.6997 23.9348 13.7128 23.9564 13.7217C23.9779 13.7305 24.0009 13.7351 24.0242 13.735H24.8835C24.9068 13.7351 24.9298 13.7305 24.9514 13.7216C24.9729 13.7128 24.9924 13.6997 25.0089 13.6833C25.0253 13.6668 25.0384 13.6473 25.0472 13.6258C25.0561 13.6043 25.0607 13.5812 25.0606 13.5579C25.0607 13.5346 25.0561 13.5116 25.0473 13.4901C25.0384 13.4686 25.0253 13.449 25.0089 13.4325C24.9924 13.4161 24.9729 13.403 24.9513 13.3942C24.9298 13.3853 24.9068 13.3807 24.8835 13.3808L24.0242 13.3808ZM4.33093 14.3463C4.31899 14.345 4.30693 14.3451 4.295 14.3464L2.26312 14.5585C2.23997 14.5608 2.21751 14.5677 2.19703 14.5788C2.17656 14.5899 2.15847 14.6049 2.14381 14.6229C2.12915 14.641 2.1182 14.6618 2.1116 14.6841C2.105 14.7064 2.10287 14.7298 2.10533 14.753C2.10769 14.7761 2.11461 14.7986 2.12567 14.8191C2.13674 14.8395 2.15174 14.8576 2.16981 14.8723C2.18788 14.887 2.20868 14.8979 2.23099 14.9045C2.25331 14.9111 2.27671 14.9132 2.29985 14.9108L4.33173 14.6987C4.35488 14.6963 4.37734 14.6894 4.39782 14.6784C4.41829 14.6673 4.43638 14.6523 4.45104 14.6342C4.4657 14.6162 4.47664 14.5954 4.48325 14.573C4.48985 14.5507 4.49198 14.5273 4.48952 14.5042C4.48537 14.4636 4.46731 14.4257 4.43839 14.3969C4.40948 14.3681 4.3715 14.3502 4.33089 14.3463H4.33093ZM22.7828 14.3588C22.7422 14.3627 22.7043 14.3806 22.6753 14.4093C22.6464 14.4381 22.6283 14.4759 22.6241 14.5165C22.6216 14.5397 22.6237 14.5631 22.6303 14.5854C22.6368 14.6077 22.6477 14.6285 22.6624 14.6466C22.677 14.6647 22.695 14.6797 22.7155 14.6908C22.736 14.7019 22.7584 14.7089 22.7815 14.7113L24.8131 14.926C24.8363 14.9286 24.8597 14.9265 24.882 14.9199C24.9043 14.9133 24.9252 14.9024 24.9433 14.8878C24.9614 14.8731 24.9764 14.855 24.9875 14.8346C24.9986 14.8141 25.0055 14.7917 25.0079 14.7685C25.0104 14.7454 25.0083 14.722 25.0017 14.6996C24.9951 14.6773 24.9842 14.6565 24.9696 14.6384C24.955 14.6203 24.9369 14.6053 24.9164 14.5942C24.896 14.5831 24.8735 14.5762 24.8504 14.5738L22.8189 14.359C22.8069 14.3577 22.7948 14.3577 22.7828 14.3588ZM3.31815 15.5553C3.30613 15.5554 3.29415 15.5567 3.28238 15.5591L2.44182 15.7377C2.41904 15.7425 2.39743 15.7517 2.37824 15.7649C2.35904 15.778 2.34263 15.7949 2.32995 15.8144C2.31727 15.8339 2.30857 15.8557 2.30435 15.8786C2.30013 15.9015 2.30048 15.925 2.30536 15.9478C2.31015 15.9705 2.31938 15.9921 2.33254 16.0113C2.3457 16.0305 2.36252 16.0469 2.38204 16.0596C2.40155 16.0723 2.42338 16.081 2.44627 16.0852C2.46916 16.0894 2.49265 16.0891 2.51541 16.0842L3.35602 15.9057C3.37879 15.9009 3.40039 15.8917 3.41958 15.8785C3.43878 15.8654 3.45518 15.8485 3.46786 15.829C3.48053 15.8095 3.48923 15.7877 3.49344 15.7648C3.49766 15.7419 3.49732 15.7184 3.49243 15.6957C3.48406 15.6557 3.46213 15.6199 3.43036 15.5943C3.39859 15.5687 3.35895 15.5549 3.31815 15.5552V15.5553ZM23.7966 15.557C23.7558 15.5567 23.7161 15.5705 23.6843 15.5961C23.6526 15.6216 23.6306 15.6574 23.6223 15.6974C23.6174 15.7201 23.617 15.7436 23.6212 15.7665C23.6254 15.7894 23.6341 15.8112 23.6468 15.8307C23.6595 15.8502 23.6759 15.8671 23.695 15.8802C23.7142 15.8934 23.7358 15.9027 23.7586 15.9074L24.5992 16.0861C24.622 16.091 24.6455 16.0913 24.6683 16.0871C24.6912 16.0829 24.7131 16.0742 24.7326 16.0615C24.7521 16.0489 24.7689 16.0325 24.7821 16.0133C24.7953 15.9941 24.8045 15.9725 24.8093 15.9497C24.8142 15.927 24.8145 15.9035 24.8103 15.8806C24.8061 15.8577 24.7974 15.8358 24.7847 15.8163C24.7721 15.7968 24.7556 15.7799 24.7364 15.7668C24.7172 15.7536 24.6956 15.7444 24.6728 15.7396L23.8323 15.5609C23.8206 15.5584 23.8086 15.5572 23.7966 15.5572V15.557ZM4.73361 16.2546C4.70998 16.2525 4.68617 16.2553 4.66367 16.2628L2.72083 16.8943C2.69868 16.9015 2.67817 16.9129 2.66046 16.928C2.64276 16.9431 2.6282 16.9616 2.61764 16.9823C2.60709 17.003 2.60073 17.0256 2.59893 17.0488C2.59713 17.072 2.59994 17.0954 2.60718 17.1175C2.61432 17.1396 2.62577 17.1602 2.64087 17.1779C2.65597 17.1956 2.67441 17.2101 2.69515 17.2207C2.71588 17.2313 2.7385 17.2376 2.7617 17.2394C2.78491 17.2412 2.80824 17.2384 2.83035 17.2312L4.77312 16.5996C4.79526 16.5925 4.81578 16.581 4.8335 16.5659C4.85121 16.5508 4.86577 16.5324 4.87634 16.5116C4.8869 16.4909 4.89327 16.4683 4.89508 16.4451C4.89688 16.4219 4.89408 16.3986 4.88685 16.3764C4.87615 16.3433 4.8559 16.314 4.82863 16.2924C4.80137 16.2707 4.76831 16.2575 4.73361 16.2546V16.2546ZM22.3793 16.2609C22.3446 16.2638 22.3116 16.2769 22.2843 16.2986C22.2571 16.3202 22.2368 16.3494 22.2261 16.3826C22.2188 16.4047 22.216 16.428 22.2178 16.4512C22.2196 16.4744 22.2259 16.497 22.2365 16.5178C22.247 16.5385 22.2616 16.557 22.2793 16.5721C22.297 16.5872 22.3175 16.5987 22.3396 16.6058L24.282 17.2387C24.3041 17.246 24.3274 17.2488 24.3506 17.2471C24.3738 17.2453 24.3964 17.2389 24.4172 17.2284C24.4379 17.2178 24.4564 17.2033 24.4715 17.1856C24.4866 17.1679 24.4981 17.1474 24.5053 17.1252C24.5125 17.1031 24.5153 17.0798 24.5135 17.0566C24.5118 17.0334 24.5054 17.0108 24.4949 16.99C24.4843 16.9693 24.4698 16.9508 24.4521 16.9357C24.4344 16.9206 24.4139 16.9091 24.3917 16.902L22.4493 16.2691C22.4268 16.2617 22.403 16.2589 22.3793 16.2609ZM3.99226 17.6378C3.96854 17.6383 3.94516 17.6435 3.9235 17.6532L3.1384 18.0027C3.11712 18.0122 3.09792 18.0257 3.08188 18.0426C3.06585 18.0594 3.05331 18.0793 3.04498 18.101C3.03664 18.1227 3.03268 18.1459 3.03332 18.1692C3.03395 18.1924 3.03918 18.2153 3.04869 18.2366C3.05811 18.2578 3.07164 18.277 3.0885 18.2931C3.10537 18.3091 3.12523 18.3217 3.14696 18.33C3.16868 18.3383 3.19184 18.3423 3.2151 18.3417C3.23836 18.341 3.26127 18.3358 3.28251 18.3263L4.06762 17.9768C4.08889 17.9674 4.1081 17.9539 4.12413 17.937C4.14016 17.9201 4.1527 17.9003 4.16104 17.8785C4.16937 17.8568 4.17334 17.8337 4.1727 17.8104C4.17206 17.7871 4.16684 17.7642 4.15732 17.743C4.14323 17.7111 4.12004 17.6842 4.09067 17.6654C4.06129 17.6467 4.02704 17.6371 3.99222 17.6378L3.99226 17.6378ZM23.1198 17.6446C23.085 17.6438 23.0507 17.6534 23.0213 17.6721C22.9919 17.6907 22.9687 17.7177 22.9546 17.7496C22.9451 17.7708 22.9398 17.7937 22.9392 17.817C22.9385 17.8403 22.9425 17.8634 22.9508 17.8852C22.9591 17.9069 22.9717 17.9268 22.9877 17.9437C23.0037 17.9605 23.023 17.9741 23.0442 17.9835L23.829 18.3336C23.8502 18.3431 23.8731 18.3484 23.8964 18.349C23.9196 18.3497 23.9428 18.3457 23.9646 18.3374C23.9863 18.3291 24.0062 18.3165 24.0231 18.3005C24.0399 18.2845 24.0535 18.2652 24.0629 18.244C24.0724 18.2227 24.0777 18.1998 24.0783 18.1766C24.079 18.1533 24.075 18.1301 24.0667 18.1084C24.0583 18.0867 24.0458 18.0668 24.0298 18.0499C24.0138 18.0331 23.9946 18.0195 23.9733 18.0101L23.1886 17.66C23.1669 17.6503 23.1435 17.6451 23.1198 17.6446ZM5.52078 18.0284C5.48552 18.0258 5.45032 18.034 5.41979 18.0518L3.65064 19.0733C3.63046 19.0849 3.61277 19.1003 3.59858 19.1188C3.5844 19.1372 3.574 19.1583 3.56798 19.1808C3.56196 19.2033 3.56043 19.2267 3.5635 19.2498C3.56656 19.2729 3.57416 19.2951 3.58584 19.3152C3.59743 19.3354 3.6129 19.3531 3.63134 19.3673C3.64979 19.3815 3.67085 19.3918 3.69333 19.3979C3.71581 19.4039 3.73925 19.4054 3.76231 19.4024C3.78538 19.3993 3.80761 19.3917 3.82774 19.38L5.59689 18.3587C5.61707 18.3471 5.63476 18.3316 5.64894 18.3131C5.66312 18.2947 5.67352 18.2736 5.67954 18.2511C5.68556 18.2286 5.68708 18.2052 5.68402 18.1821C5.68096 18.159 5.67337 18.1368 5.66169 18.1167C5.64726 18.0915 5.62684 18.0703 5.60226 18.0549C5.57768 18.0395 5.54968 18.0304 5.52073 18.0284H5.52078ZM21.5942 18.0284C21.5652 18.0303 21.5372 18.0394 21.5126 18.0548C21.488 18.0702 21.4676 18.0914 21.4531 18.1166C21.4415 18.1368 21.4339 18.159 21.4308 18.1821C21.4277 18.2052 21.4293 18.2286 21.4353 18.2511C21.4413 18.2736 21.4517 18.2947 21.4659 18.3131C21.4801 18.3316 21.4978 18.3471 21.5179 18.3587L23.2871 19.38C23.3073 19.3917 23.3295 19.3993 23.3526 19.4024C23.3757 19.4054 23.3991 19.4039 23.4216 19.3979C23.4441 19.3919 23.4651 19.3815 23.4836 19.3673C23.502 19.3531 23.5175 19.3354 23.5291 19.3152C23.5408 19.2951 23.5484 19.2729 23.5515 19.2498C23.5545 19.2267 23.553 19.2033 23.547 19.1808C23.541 19.1583 23.5306 19.1372 23.5164 19.1188C23.5022 19.1003 23.4845 19.0849 23.4643 19.0733L21.6951 18.0518C21.6645 18.0341 21.6294 18.0259 21.5942 18.0284ZM5.07952 19.5273C5.04419 19.5286 5.01005 19.5404 4.98148 19.5612L4.28595 20.0658C4.26709 20.0795 4.25109 20.0967 4.2389 20.1165C4.2267 20.1363 4.21854 20.1584 4.21489 20.1813C4.21123 20.2043 4.21215 20.2278 4.2176 20.2504C4.22304 20.2731 4.2329 20.2944 4.24661 20.3132C4.26024 20.3321 4.27745 20.3481 4.29727 20.3602C4.31709 20.3724 4.33912 20.3806 4.3621 20.3842C4.38508 20.3879 4.40856 20.387 4.43118 20.3815C4.45381 20.3761 4.47513 20.3662 4.49394 20.3525L5.18955 19.8479C5.20841 19.8343 5.2244 19.817 5.2366 19.7972C5.24879 19.7774 5.25696 19.7554 5.26061 19.7324C5.26427 19.7094 5.26336 19.6859 5.25792 19.6633C5.25249 19.6407 5.24263 19.6194 5.22893 19.6005C5.21194 19.577 5.18942 19.558 5.16336 19.5453C5.13729 19.5325 5.10848 19.5263 5.07948 19.5273H5.07952ZM22.0311 19.5333C22.0022 19.5323 21.9734 19.5384 21.9473 19.5511C21.9212 19.5639 21.8987 19.5828 21.8817 19.6064C21.868 19.6252 21.8581 19.6465 21.8527 19.6691C21.8472 19.6917 21.8463 19.7152 21.8499 19.7382C21.8536 19.7612 21.8617 19.7832 21.8739 19.8031C21.8861 19.8229 21.9021 19.8401 21.9209 19.8538L22.6161 20.3589C22.6349 20.3726 22.6563 20.3825 22.6789 20.3879C22.7015 20.3934 22.725 20.3943 22.748 20.3907C22.771 20.3871 22.793 20.3789 22.8128 20.3667C22.8327 20.3545 22.8499 20.3385 22.8635 20.3197C22.8772 20.3009 22.8871 20.2796 22.8925 20.257C22.898 20.2343 22.8989 20.2109 22.8953 20.1879C22.8917 20.1649 22.8835 20.1429 22.8714 20.1231C22.8592 20.1032 22.8432 20.086 22.8244 20.0724L22.1292 19.5672C22.1006 19.5464 22.0665 19.5345 22.0311 19.5333V19.5333ZM6.65474 19.5944C6.6315 19.5932 6.60823 19.5965 6.58629 19.6043C6.56435 19.6121 6.54417 19.6241 6.52691 19.6398L5.00765 21.0055C4.99031 21.021 4.97621 21.0398 4.96615 21.0608C4.9561 21.0818 4.95028 21.1045 4.94905 21.1278C4.94781 21.151 4.95118 21.1743 4.95895 21.1962C4.96673 21.2181 4.97876 21.2383 4.99435 21.2556C5.00988 21.2729 5.02867 21.287 5.04966 21.2971C5.07064 21.3071 5.09341 21.313 5.11664 21.3142C5.13988 21.3154 5.16314 21.3121 5.18507 21.3043C5.207 21.2965 5.22719 21.2845 5.24446 21.2689L6.76372 19.9032C6.78106 19.8876 6.79516 19.8689 6.80522 19.8479C6.81528 19.8269 6.82109 19.8041 6.82232 19.7809C6.82356 19.7576 6.82019 19.7344 6.81242 19.7125C6.80464 19.6905 6.79261 19.6703 6.77702 19.6531C6.7615 19.6357 6.74271 19.6216 6.72173 19.6115C6.70075 19.6015 6.67798 19.5957 6.65474 19.5944ZM20.4559 19.5993C20.409 19.6019 20.3649 19.6229 20.3335 19.6579C20.3179 19.6751 20.3059 19.6953 20.2981 19.7172C20.2903 19.7392 20.2869 19.7624 20.2881 19.7857C20.2893 19.8089 20.2951 19.8317 20.3052 19.8527C20.3152 19.8737 20.3293 19.8925 20.3467 19.908L21.865 21.2748C21.8823 21.2904 21.9024 21.3024 21.9244 21.3102C21.9463 21.318 21.9695 21.3214 21.9928 21.3202C22.016 21.3189 22.0388 21.3131 22.0598 21.3031C22.0808 21.2931 22.0996 21.279 22.1151 21.2617C22.1307 21.2444 22.1428 21.2242 22.1506 21.2023C22.1584 21.1804 22.1617 21.1571 22.1605 21.1339C22.1593 21.1106 22.1535 21.0879 22.1435 21.0669C22.1334 21.0459 22.1193 21.0271 22.102 21.0115L20.5836 19.6447C20.5664 19.6291 20.5462 19.6171 20.5243 19.6093C20.5024 19.6015 20.4792 19.5981 20.4559 19.5993H20.4559ZM8.09612 20.8968C8.06713 20.8957 8.03831 20.9018 8.01224 20.9145C7.98616 20.9272 7.96362 20.9462 7.94662 20.9697L6.74487 22.6217C6.73113 22.6404 6.72124 22.6618 6.71577 22.6844C6.71029 22.707 6.70933 22.7305 6.71295 22.7535C6.71658 22.7764 6.7247 22.7985 6.73686 22.8183C6.74903 22.8382 6.76499 22.8554 6.78383 22.8691C6.80262 22.8828 6.82393 22.8927 6.84655 22.8982C6.86917 22.9036 6.89264 22.9046 6.91563 22.901C6.93862 22.8974 6.96067 22.8892 6.98051 22.8771C7.00035 22.8649 7.01759 22.8489 7.03124 22.8301L8.23304 21.1781C8.24677 21.1593 8.25666 21.138 8.26214 21.1154C8.26762 21.0928 8.26857 21.0693 8.26495 21.0463C8.26133 21.0233 8.25321 21.0013 8.24104 20.9814C8.22888 20.9616 8.21292 20.9443 8.19407 20.9307C8.16556 20.9098 8.13143 20.898 8.09612 20.8968ZM19.009 20.9042C18.9737 20.9054 18.9396 20.9172 18.911 20.938C18.8921 20.9516 18.8762 20.9688 18.864 20.9886C18.8518 21.0084 18.8436 21.0305 18.84 21.0534C18.8363 21.0764 18.8372 21.0999 18.8427 21.1225C18.8481 21.1451 18.858 21.1665 18.8717 21.1853L20.0712 22.8389C20.0848 22.8578 20.102 22.8738 20.1218 22.886C20.1417 22.8982 20.1637 22.9063 20.1867 22.91C20.2097 22.9136 20.2331 22.9127 20.2558 22.9073C20.2784 22.9018 20.2997 22.892 20.3185 22.8783C20.3374 22.8647 20.3534 22.8474 20.3656 22.8276C20.3778 22.8078 20.386 22.7858 20.3896 22.7628C20.3933 22.7398 20.3924 22.7163 20.3869 22.6937C20.3815 22.6711 20.3716 22.6497 20.3579 22.6309L19.1584 20.9773C19.1414 20.9538 19.1189 20.9348 19.0928 20.9221C19.0668 20.9093 19.038 20.9032 19.009 20.9042H19.009ZM6.54475 21.1593C6.49781 21.1618 6.45378 21.1829 6.42235 21.2178L5.84737 21.8565C5.83177 21.8738 5.81972 21.894 5.81193 21.9159C5.80413 21.9378 5.80075 21.9611 5.80196 21.9843C5.80318 22.0076 5.80897 22.0303 5.81901 22.0513C5.82905 22.0723 5.84314 22.0911 5.86046 22.1067C5.87772 22.1223 5.8979 22.1343 5.91983 22.1421C5.94176 22.1499 5.96501 22.1533 5.98825 22.1521C6.01149 22.1508 6.03426 22.145 6.05525 22.135C6.07624 22.1249 6.09504 22.1108 6.11056 22.0935L6.68563 21.455C6.70123 21.4377 6.71328 21.4175 6.72107 21.3956C6.72886 21.3736 6.73224 21.3504 6.73102 21.3271C6.7298 21.3039 6.724 21.2811 6.71396 21.2601C6.70392 21.2391 6.68983 21.2203 6.6725 21.2048C6.65525 21.1891 6.63508 21.1771 6.61316 21.1693C6.59124 21.1615 6.56799 21.1581 6.54475 21.1594V21.1593ZM20.5692 21.1602C20.546 21.1589 20.5227 21.1623 20.5008 21.1701C20.4789 21.1779 20.4587 21.1899 20.4415 21.2056C20.4242 21.2211 20.4101 21.2399 20.4 21.2609C20.39 21.2819 20.3842 21.3046 20.383 21.3279C20.3817 21.3511 20.3851 21.3744 20.3929 21.3963C20.4007 21.4182 20.4127 21.4384 20.4283 21.4557L21.0032 22.0944C21.0187 22.1117 21.0375 22.1258 21.0585 22.1359C21.0795 22.1459 21.1023 22.1517 21.1255 22.1529C21.1488 22.1541 21.172 22.1508 21.194 22.143C21.2159 22.1352 21.2361 22.1231 21.2533 22.1075C21.2707 22.092 21.2847 22.0732 21.2948 22.0522C21.3048 22.0312 21.3106 22.0084 21.3119 21.9852C21.3131 21.9619 21.3097 21.9386 21.3019 21.9167C21.2941 21.8948 21.2821 21.8746 21.2664 21.8573L20.6916 21.2187C20.676 21.2013 20.6572 21.1872 20.6362 21.1772C20.6152 21.1671 20.5924 21.1613 20.5692 21.1601L20.5692 21.1602ZM9.77435 21.8686C9.73953 21.8678 9.70526 21.8774 9.67587 21.8961C9.64649 21.9147 9.6233 21.9417 9.60924 21.9736L8.77688 23.8393C8.76736 23.8605 8.76212 23.8834 8.76148 23.9067C8.76083 23.9299 8.76478 23.9531 8.77311 23.9748C8.78144 23.9965 8.79397 24.0164 8.81 24.0333C8.82603 24.0502 8.84523 24.0637 8.8665 24.0731C8.88773 24.0827 8.91064 24.0879 8.9339 24.0886C8.95717 24.0892 8.98033 24.0853 9.00206 24.0769C9.0238 24.0686 9.04367 24.0561 9.06055 24.04C9.07743 24.024 9.09097 24.0048 9.10041 23.9835L9.93272 22.1179C9.94225 22.0967 9.94749 22.0738 9.94814 22.0505C9.94879 22.0272 9.94484 22.0041 9.93651 21.9823C9.92818 21.9606 9.91564 21.9407 9.89961 21.9239C9.88358 21.907 9.86438 21.8934 9.8431 21.884C9.82145 21.8743 9.79807 21.8691 9.77435 21.8686ZM17.3295 21.8737C17.3057 21.8742 17.2823 21.8794 17.2607 21.8891C17.2394 21.8985 17.2202 21.912 17.2041 21.9288C17.1881 21.9457 17.1755 21.9655 17.1671 21.9873C17.1588 22.009 17.1548 22.0321 17.1554 22.0554C17.156 22.0787 17.1613 22.1016 17.1707 22.1228L18.0005 23.9896C18.0099 24.0109 18.0234 24.0301 18.0403 24.0461C18.0572 24.0622 18.077 24.0747 18.0987 24.0831C18.1205 24.0914 18.1436 24.0954 18.1669 24.0948C18.1902 24.0942 18.2131 24.089 18.2343 24.0795C18.2556 24.0701 18.2748 24.0566 18.2909 24.0397C18.3069 24.0229 18.3195 24.003 18.3278 23.9813C18.3362 23.9596 18.3401 23.9364 18.3395 23.9132C18.3389 23.8899 18.3337 23.867 18.3242 23.8457L17.4944 21.979C17.4804 21.9471 17.4572 21.9201 17.4279 21.9014C17.3985 21.8827 17.3643 21.873 17.3295 21.8737ZM8.31176 22.4454C8.28281 22.4474 8.2548 22.4565 8.23021 22.4719C8.20562 22.4873 8.18521 22.5085 8.17081 22.5337L7.74116 23.2779C7.72948 23.298 7.72189 23.3202 7.71882 23.3433C7.71576 23.3664 7.71728 23.3898 7.7233 23.4123C7.72932 23.4348 7.73972 23.4559 7.75391 23.4743C7.76809 23.4928 7.78578 23.5082 7.80596 23.5198C7.82609 23.5315 7.84832 23.5391 7.87139 23.5422C7.89446 23.5452 7.91791 23.5437 7.94039 23.5377C7.96287 23.5317 7.98394 23.5213 8.00239 23.5071C8.02084 23.4929 8.03631 23.4752 8.0479 23.455L8.47759 22.7108C8.48927 22.6906 8.49686 22.6684 8.49992 22.6453C8.50298 22.6223 8.50146 22.5988 8.49543 22.5763C8.48941 22.5538 8.479 22.5328 8.46481 22.5143C8.45062 22.4959 8.43293 22.4804 8.41275 22.4688C8.38218 22.4511 8.34701 22.4429 8.31176 22.4454ZM18.8032 22.4454C18.768 22.4429 18.7328 22.4511 18.7023 22.4689C18.6822 22.4805 18.6645 22.4959 18.6503 22.5144C18.6361 22.5328 18.6257 22.5539 18.6197 22.5764C18.6137 22.5989 18.6121 22.6223 18.6152 22.6454C18.6183 22.6684 18.6259 22.6907 18.6375 22.7108L19.0672 23.455C19.0788 23.4752 19.0942 23.4929 19.1127 23.5071C19.1311 23.5213 19.1522 23.5317 19.1747 23.5377C19.1972 23.5437 19.2206 23.5452 19.2437 23.5422C19.2668 23.5391 19.289 23.5315 19.3091 23.5198C19.3293 23.5082 19.347 23.4928 19.3612 23.4743C19.3754 23.4559 19.3858 23.4348 19.3918 23.4123C19.3978 23.3898 19.3993 23.3664 19.3963 23.3433C19.3932 23.3202 19.3856 23.298 19.3739 23.2779L18.9443 22.5337C18.9298 22.5085 18.9094 22.4873 18.8848 22.4719C18.8602 22.4565 18.8322 22.4474 18.8032 22.4454ZM11.6273 22.4721C11.5865 22.4717 11.5468 22.4855 11.5151 22.5111C11.4833 22.5367 11.4614 22.5725 11.453 22.6124L11.0284 24.6107C11.0236 24.6335 11.0232 24.657 11.0274 24.6799C11.0317 24.7028 11.0404 24.7246 11.053 24.7441C11.0657 24.7636 11.0821 24.7805 11.1013 24.7936C11.1205 24.8068 11.1421 24.816 11.1649 24.8208C11.1877 24.8257 11.2112 24.826 11.234 24.8218C11.2569 24.8176 11.2788 24.8089 11.2983 24.7962C11.3178 24.7835 11.3346 24.7671 11.3478 24.7479C11.361 24.7287 11.3702 24.7071 11.375 24.6843L11.7995 22.686C11.8051 22.6603 11.8048 22.6337 11.7987 22.6081C11.7926 22.5825 11.7809 22.5585 11.7644 22.5381C11.7479 22.5176 11.727 22.501 11.7033 22.4896C11.6796 22.4782 11.6536 22.4723 11.6273 22.4722V22.4721ZM15.4815 22.4733C15.4552 22.4734 15.4292 22.4794 15.4055 22.4907C15.3818 22.5021 15.361 22.5186 15.3445 22.5391C15.3279 22.5596 15.3162 22.5835 15.3101 22.6091C15.304 22.6347 15.3037 22.6613 15.3092 22.687L15.7323 24.6856C15.737 24.7084 15.7463 24.73 15.7594 24.7492C15.7725 24.7685 15.7894 24.7849 15.8089 24.7976C15.8284 24.8103 15.8502 24.819 15.8731 24.8232C15.896 24.8275 15.9195 24.8271 15.9422 24.8223C15.965 24.8175 15.9866 24.8083 16.0058 24.7951C16.0251 24.782 16.0415 24.7652 16.0542 24.7457C16.0669 24.7262 16.0756 24.7043 16.0798 24.6814C16.0841 24.6586 16.0837 24.6351 16.0789 24.6123L15.6557 22.6138C15.6473 22.5739 15.6254 22.538 15.5937 22.5124C15.5619 22.4868 15.5223 22.473 15.4815 22.4732V22.4733ZM13.5575 22.6749C13.5342 22.6748 13.5112 22.6794 13.4897 22.6883C13.4681 22.6971 13.4486 22.7102 13.4321 22.7267C13.4157 22.7431 13.4026 22.7627 13.3938 22.7842C13.3849 22.8057 13.3803 22.8287 13.3804 22.852V24.8949C13.3803 24.9182 13.3849 24.9412 13.3938 24.9627C13.4027 24.9843 13.4157 25.0038 13.4322 25.0203C13.4486 25.0367 13.4682 25.0498 13.4897 25.0587C13.5112 25.0675 13.5343 25.0721 13.5575 25.072C13.5808 25.0721 13.6039 25.0675 13.6254 25.0586C13.6469 25.0497 13.6664 25.0367 13.6829 25.0202C13.6993 25.0038 13.7124 24.9842 13.7212 24.9627C13.7301 24.9412 13.7347 24.9182 13.7346 24.8949V22.8521C13.7347 22.8288 13.7301 22.8057 13.7212 22.7842C13.7124 22.7627 13.6993 22.7432 13.6829 22.7267C13.6664 22.7102 13.6469 22.6972 13.6253 22.6883C13.6038 22.6794 13.5808 22.6749 13.5575 22.6749V22.6749ZM10.3064 23.3351C10.2717 23.338 10.2387 23.3511 10.2114 23.3728C10.1841 23.3945 10.1639 23.4237 10.1532 23.4569L9.88753 24.2741C9.88029 24.2962 9.87748 24.3196 9.87927 24.3428C9.88107 24.366 9.88743 24.3886 9.898 24.4094C9.90856 24.4301 9.92312 24.4486 9.94083 24.4636C9.95855 24.4788 9.97907 24.4902 10.0012 24.4973C10.0233 24.5046 10.0467 24.5074 10.0699 24.5056C10.0931 24.5038 10.1157 24.4974 10.1364 24.4868C10.1572 24.4763 10.1756 24.4617 10.1907 24.444C10.2058 24.4263 10.2173 24.4058 10.2244 24.3836L10.49 23.5664C10.4973 23.5443 10.5001 23.521 10.4983 23.4978C10.4965 23.4746 10.4901 23.4519 10.4796 23.4312C10.469 23.4105 10.4545 23.392 10.4367 23.3769C10.419 23.3618 10.3985 23.3504 10.3764 23.3432C10.3538 23.3359 10.3301 23.3331 10.3064 23.3351ZM16.8072 23.3355C16.7836 23.3333 16.7598 23.3361 16.7373 23.3436C16.7151 23.3507 16.6946 23.3622 16.6769 23.3773C16.6592 23.3924 16.6446 23.4108 16.634 23.4315C16.6235 23.4523 16.6171 23.4749 16.6153 23.4981C16.6135 23.5213 16.6163 23.5447 16.6235 23.5668L16.889 24.384C16.8962 24.4062 16.9076 24.4267 16.9227 24.4444C16.9378 24.4621 16.9563 24.4767 16.977 24.4873C16.9978 24.4978 17.0204 24.5042 17.0436 24.506C17.0668 24.5078 17.0901 24.505 17.1123 24.4977C17.1344 24.4906 17.1549 24.4791 17.1727 24.4641C17.1904 24.449 17.2049 24.4305 17.2155 24.4098C17.2261 24.3891 17.2324 24.3664 17.2343 24.3432C17.2361 24.32 17.2333 24.2967 17.226 24.2746L16.9604 23.4573C16.9497 23.4242 16.9295 23.3949 16.9022 23.3733C16.875 23.3516 16.8419 23.3384 16.8072 23.3355H16.8072ZM12.4458 23.7906C12.4052 23.7946 12.3672 23.8124 12.3383 23.8412C12.3093 23.8699 12.2912 23.9078 12.287 23.9484L12.1972 24.8031C12.1947 24.8262 12.1968 24.8496 12.2034 24.8719C12.21 24.8942 12.2209 24.915 12.2356 24.9331C12.2502 24.9512 12.2683 24.9662 12.2888 24.9773C12.3092 24.9884 12.3317 24.9953 12.3548 24.9977C12.378 25.0002 12.4014 24.9981 12.4237 24.9915C12.446 24.9849 12.4668 24.974 12.4849 24.9593C12.503 24.9447 12.518 24.9266 12.5291 24.9061C12.5402 24.8857 12.5471 24.8632 12.5495 24.8401L12.6393 23.9855C12.6418 23.9623 12.6397 23.9389 12.6331 23.9166C12.6266 23.8943 12.6156 23.8735 12.601 23.8554C12.5863 23.8373 12.5683 23.8223 12.5478 23.8112C12.5273 23.8001 12.5049 23.7932 12.4817 23.7908C12.4698 23.7896 12.4577 23.7895 12.4458 23.7906ZM14.6621 23.7915C14.6502 23.7902 14.6381 23.7902 14.6261 23.7916C14.603 23.794 14.5805 23.8009 14.56 23.812C14.5396 23.823 14.5215 23.838 14.5068 23.8561C14.4922 23.8742 14.4812 23.895 14.4746 23.9173C14.468 23.9396 14.4659 23.963 14.4683 23.9862L14.5576 24.8409C14.56 24.864 14.5669 24.8865 14.578 24.907C14.589 24.9274 14.604 24.9455 14.6221 24.9602C14.6402 24.9748 14.661 24.9858 14.6833 24.9924C14.7056 24.999 14.729 25.0011 14.7521 24.9986C14.7753 24.9962 14.7978 24.9893 14.8182 24.9783C14.8387 24.9672 14.8568 24.9522 14.8715 24.9341C14.8861 24.916 14.8971 24.8952 14.9037 24.8729C14.9103 24.8506 14.9124 24.8272 14.9099 24.804L14.8207 23.9494C14.8166 23.9088 14.7985 23.8709 14.7696 23.8421C14.7407 23.8133 14.7027 23.7954 14.6621 23.7915H14.6621Z" fill="#F4F2F3"/>
<g opacity="0.409" filter="url(#filter0_f_8432_22031)">
<path d="M21.8586 6.4733L12.1687 12.1032L6.04199 21.7483L15.0048 15.1096L21.8586 6.4733Z" fill="black"/>
</g>
<path d="M14.9462 15.0119L12.1687 12.1033L22.0214 5.47537L14.9462 15.0119Z" fill="#FF5150"/>
<path d="M14.9464 15.0119L12.1689 12.1032L5.09369 21.6398L14.9464 15.0119Z" fill="#F1F1F1"/>
<path opacity="0.243" d="M5.09369 21.6398L14.9464 15.0119L22.0216 5.47537L5.09369 21.6398Z" fill="black"/>
<defs>
<filter id="filter0_f_8432_22031" x="0.582981" y="1.01429" width="26.7346" height="26.193" filterUnits="userSpaceOnUse" color-interpolation-filters="sRGB">
<feFlood flood-opacity="0" result="BackgroundImageFix"/>
<feBlend mode="normal" in="SourceGraphic" in2="BackgroundImageFix" result="shape"/>
<feGaussianBlur stdDeviation="2.72951" result="effect1_foregroundBlur_8432_22031"/>
</filter>
<linearGradient id="paint0_linear_8432_22031" x1="13.5571" y1="26.7379" x2="13.5571" y2="0.376915" gradientUnits="userSpaceOnUse">
<stop stop-color="#BDBDBD"/>
<stop offset="1" stop-color="white"/>
</linearGradient>
<radialGradient id="paint1_radial_8432_22031" cx="0" cy="0" r="1" gradientUnits="userSpaceOnUse" gradientTransform="translate(13.6122 11.7861) scale(13.1806 13.1805)">
<stop stop-color="#06C2E7"/>
<stop offset="0.25" stop-color="#0DB8EC"/>
<stop offset="0.5" stop-color="#12AEF1"/>
<stop offset="0.75" stop-color="#1F86F9"/>
<stop offset="1" stop-color="#107DDD"/>
</radialGradient>
</defs>
</svg>
