<svg width="56" height="56" viewBox="0 0 56 56" fill="none" xmlns="http://www.w3.org/2000/svg">
<rect width="56" height="56" rx="28" fill="#FFCE3C"/>
<path fill-rule="evenodd" clip-rule="evenodd" d="M37.3318 24.0828L36.9082 23.5225C36.4572 23.1126 35.8149 23.3586 35.8423 23.7412C35.8423 23.8505 35.8423 24.0008 35.9789 24.0965C36.4026 24.5065 36.1429 24.3425 36.2796 24.5885C36.6485 25.8184 36.7442 28.6881 35.569 29.672C35.4696 29.7556 35.4041 29.8725 35.3848 30.0009C35.3655 30.1292 35.3938 30.2602 35.4642 30.3693C35.5347 30.4783 35.6425 30.5579 35.7675 30.5931C35.8924 30.6282 36.0259 30.6166 36.1429 30.5603C36.679 30.2414 37.1406 29.8115 37.4969 29.2994C37.8531 28.7874 38.0956 28.2051 38.2082 27.5915C38.3208 26.978 38.3009 26.3475 38.1497 25.7423C37.9986 25.1372 37.7197 24.5713 37.3318 24.0828Z" fill="#5A3384"/>
<path fill-rule="evenodd" clip-rule="evenodd" d="M41.827 19.2726C41.663 19.0403 39.5722 16.9495 39.2579 17.8377C38.5883 18.3707 40.2008 18.767 40.8294 19.9012C41.6275 21.4077 42.1636 23.0389 42.4146 24.7252C43.2892 29.7951 41.2257 33.7581 37.9323 35.4799C37.8695 35.5113 37.8135 35.5548 37.7675 35.6079C37.7215 35.6609 37.6864 35.7225 37.6642 35.7891C37.642 35.8558 37.6331 35.9261 37.6381 35.9961C37.643 36.0662 37.6618 36.1346 37.6932 36.1974C37.7246 36.2602 37.768 36.3162 37.8211 36.3622C37.8742 36.4082 37.9357 36.4433 38.0024 36.4655C38.069 36.4878 38.1393 36.4966 38.2094 36.4916C38.2794 36.4867 38.3478 36.4679 38.4106 36.4365C45.0931 33.2798 46.1043 25.3538 41.827 19.2726Z" fill="#5A3384"/>
<path fill-rule="evenodd" clip-rule="evenodd" d="M30.4585 16.2525C27.862 12.9728 20.387 19.6826 18.5421 23.5773C18.4619 23.5219 18.3663 23.4933 18.2688 23.4953C14.3332 23.4269 10.5478 26.5427 11.8734 30.5057C12.1364 31.3132 12.6132 32.0344 13.2533 32.5927C13.8933 33.1509 14.6726 33.5253 15.5084 33.6761C16.1902 33.8328 16.8862 33.9198 17.5856 33.9358C20.6056 33.7854 20.3187 33.6488 19.3074 25.1351C19.2254 24.6705 18.2825 24.5749 18.4192 25.6818C18.6165 27.8592 18.6165 30.0501 18.4192 32.2276C17.9272 32.1592 18.3098 32.2276 16.711 32.1046L15.3444 31.7356C13.3082 30.984 12.0237 27.4036 15.5904 25.3675C17.9682 24.0009 18.6651 25.2718 19.69 23.5363C21.3548 21.0523 23.596 19.008 26.2222 17.5781C27.0285 17.1545 28.6547 16.4575 29.1876 17.2091C30.5542 19.095 30.8958 34.1681 29.2696 37.8031C28.805 38.8417 28.1627 39.4566 27.0694 39.1697C25.4022 38.7324 22.0952 36.2179 20.2367 34.1271C20.1424 34.0147 20.0074 33.9444 19.8614 33.9316C19.7153 33.9188 19.5701 33.9645 19.4577 34.0587C19.3454 34.153 19.2751 34.288 19.2622 34.4341C19.2494 34.5801 19.2952 34.7253 19.3894 34.8377C20.9519 36.6394 22.7597 38.2127 24.76 39.5113C25.2558 39.9307 25.835 40.2401 26.4592 40.4191C27.0835 40.5981 27.7386 40.6427 28.3813 40.5499C30.6772 39.9623 31.3468 36.8602 31.6747 34.5097C32.0984 30.902 32.6587 19.136 30.4585 16.2525Z" fill="#5A3384"/>
</svg>
