<svg width="1920" height="2155" viewBox="0 0 1920 2155" fill="none" xmlns="http://www.w3.org/2000/svg">
<g clip-path="url(#clip0_8295_8624)">
<rect width="1920" height="2155" fill="url(#paint0_linear_8295_8624)"/>
<rect x="-0.992188" width="1920" height="2190.34" fill="url(#paint1_linear_8295_8624)"/>
<g clip-path="url(#clip1_8295_8624)">
<g opacity="0.6">
<circle cx="1.74417" cy="1.74417" r="1.74417" transform="matrix(1 0 0 -1 1892.35 456.07)" fill="#FFCE3C"/>
<circle cx="2.61626" cy="2.61626" r="2.61626" transform="matrix(1 0 0 -1 1769.21 455.146)" fill="#FFCE3C"/>
<circle cx="2.61626" cy="2.61626" r="2.61626" transform="matrix(1 0 0 -1 1669.33 453.87)" fill="#FFCE3C"/>
<circle cx="1.74417" cy="1.74417" r="1.74417" transform="matrix(1 0 0 -1 1821.49 397.775)" fill="#FFCE3C"/>
<circle cx="1.74417" cy="1.74417" r="1.74417" transform="matrix(1 0 0 -1 1564.62 479.429)" fill="#FFCE3C"/>
<circle cx="1.74417" cy="1.74417" r="1.74417" transform="matrix(1 0 0 -1 1496.73 398.799)" fill="#FFCE3C"/>
<circle cx="2.61626" cy="2.61626" r="2.61626" transform="matrix(1 0 0 -1 1285.12 485.423)" fill="#FFCE3C"/>
<circle cx="1.74417" cy="1.74417" r="1.74417" transform="matrix(1 0 0 -1 1193.32 466.633)" fill="#FFCE3C"/>
<circle cx="1.74417" cy="1.74417" r="1.74417" transform="matrix(1 0 0 -1 1588.64 394.702)" fill="#FFCE3C"/>
<circle cx="1.74417" cy="1.74417" r="1.74417" transform="matrix(1 0 0 -1 1450.73 458.842)" fill="#FFCE3C"/>
<circle cx="1.74417" cy="1.74417" r="1.74417" transform="matrix(1 0 0 -1 1394.75 522.056)" fill="#FFCE3C"/>
<circle cx="86.5125" cy="458.147" r="1.78442" transform="rotate(180 86.5125 458.147)" fill="#FFCE3C"/>
<circle cx="176.827" cy="461.831" r="2.67663" transform="rotate(180 176.827 461.831)" fill="#FFCE3C"/>
<circle cx="412.681" cy="408.114" r="2.67663" transform="rotate(180 412.681 408.114)" fill="#FFCE3C"/>
<circle cx="247.333" cy="408.114" r="1.78442" transform="rotate(180 247.333 408.114)" fill="#FFCE3C"/>
<circle cx="22.7664" cy="382.005" r="1.78442" transform="rotate(180 22.7664 382.005)" fill="#FFCE3C"/>
<circle cx="348.157" cy="462.244" r="1.78442" transform="rotate(180 348.157 462.244)" fill="#FFCE3C"/>
<circle cx="483.952" cy="478.4" r="1.78442" transform="rotate(180 483.952 478.4)" fill="#FFCE3C"/>
<circle cx="659.214" cy="401.968" r="2.67663" transform="rotate(180 659.214 401.968)" fill="#FFCE3C"/>
<circle cx="698.649" cy="485.423" r="1.78442" transform="rotate(180 698.649 485.423)" fill="#FFCE3C"/>
<circle cx="569.897" cy="430.82" r="1.78442" transform="rotate(180 569.897 430.82)" fill="#FFCE3C"/>
<circle cx="558.255" cy="523.841" r="1.78442" transform="rotate(180 558.255 523.841)" fill="#FFCE3C"/>
</g>
<g opacity="0.2">
<circle cx="22.9142" cy="635.279" r="2.04865" transform="rotate(-180 22.9142 635.279)" fill="#FFCE3C"/>
<circle cx="191.587" cy="633.483" r="3.07297" transform="rotate(-180 191.587 633.483)" fill="#FFCE3C"/>
<circle cx="329.384" cy="632.206" r="3.07297" transform="rotate(-180 329.384 632.206)" fill="#FFCE3C"/>
<circle cx="120.668" cy="576.984" r="2.04865" transform="rotate(-180 120.668 576.984)" fill="#FFCE3C"/>
<circle cx="475.051" cy="658.638" r="2.04865" transform="rotate(-180 475.051 658.638)" fill="#FFCE3C"/>
<circle cx="611.465" cy="655.784" r="2.04865" transform="rotate(-180 611.465 655.784)" fill="#FFCE3C"/>
<circle cx="859.454" cy="663.76" r="3.07297" transform="rotate(-180 859.454 663.76)" fill="#FFCE3C"/>
<circle cx="987.651" cy="645.842" r="2.04865" transform="rotate(-180 987.651 645.842)" fill="#FFCE3C"/>
<circle cx="441.908" cy="573.911" r="2.04865" transform="rotate(-180 441.908 573.911)" fill="#FFCE3C"/>
<circle cx="559.772" cy="596.617" r="2.04865" transform="rotate(-180 559.772 596.617)" fill="#FFCE3C"/>
<circle cx="709.401" cy="700.961" r="2.04865" transform="rotate(-180 709.401 700.961)" fill="#FFCE3C"/>
<circle cx="2.04865" cy="2.04865" r="2.04865" transform="matrix(1 0 0 -1 1786.36 623.944)" fill="#FFCE3C"/>
<circle cx="3.07297" cy="3.07297" r="3.07297" transform="matrix(1 0 0 -1 1666.29 628.653)" fill="#FFCE3C"/>
<circle cx="3.07297" cy="3.07297" r="3.07297" transform="matrix(1 0 0 -1 1355.42 574.936)" fill="#FFCE3C"/>
<circle cx="2.04865" cy="2.04865" r="2.04865" transform="matrix(1 0 0 -1 1574.39 573.911)" fill="#FFCE3C"/>
<circle cx="2.04865" cy="2.04865" r="2.04865" transform="matrix(1 0 0 -1 1870.38 548.066)" fill="#FFCE3C"/>
<circle cx="2.04865" cy="2.04865" r="2.04865" transform="matrix(1 0 0 -1 1441.49 628.041)" fill="#FFCE3C"/>
<circle cx="2.04865" cy="2.04865" r="2.04865" transform="matrix(1 0 0 -1 1262.5 644.197)" fill="#FFCE3C"/>
<circle cx="3.07297" cy="3.07297" r="3.07297" transform="matrix(1 0 0 -1 1030.47 568.79)" fill="#FFCE3C"/>
<circle cx="2.04865" cy="2.04865" r="2.04865" transform="matrix(1 0 0 -1 916.289 592.52)" fill="#FFCE3C"/>
<circle cx="2.04865" cy="2.04865" r="2.04865" transform="matrix(1 0 0 -1 1149.22 596.617)" fill="#FFCE3C"/>
<circle cx="2.04865" cy="2.04865" r="2.04865" transform="matrix(1 0 0 -1 1164.57 689.374)" fill="#FFCE3C"/>
</g>
<g opacity="0.1">
<circle cx="2.04865" cy="2.04865" r="2.04865" transform="matrix(-1 0 0 1 24.9629 769.02)" fill="#FFCE3C"/>
<circle cx="3.07297" cy="3.07297" r="3.07297" transform="matrix(-1 0 0 1 194.66 769.792)" fill="#FFCE3C"/>
<circle cx="3.07297" cy="3.07297" r="3.07297" transform="matrix(-1 0 0 1 332.457 771.069)" fill="#FFCE3C"/>
<circle cx="2.04865" cy="2.04865" r="2.04865" transform="matrix(-1 0 0 1 122.717 827.315)" fill="#FFCE3C"/>
<circle cx="2.04865" cy="2.04865" r="2.04865" transform="matrix(-1 0 0 1 477.1 745.661)" fill="#FFCE3C"/>
<circle cx="2.04865" cy="2.04865" r="2.04865" transform="matrix(-1 0 0 1 613.514 748.515)" fill="#FFCE3C"/>
<circle cx="3.07297" cy="3.07297" r="3.07297" transform="matrix(-1 0 0 1 862.527 739.515)" fill="#FFCE3C"/>
<circle cx="2.04865" cy="2.04865" r="2.04865" transform="matrix(-1 0 0 1 989.699 758.458)" fill="#FFCE3C"/>
<circle cx="2.04865" cy="2.04865" r="2.04865" transform="matrix(-1 0 0 1 443.957 830.388)" fill="#FFCE3C"/>
<circle cx="2.04865" cy="2.04865" r="2.04865" transform="matrix(-1 0 0 1 561.82 807.682)" fill="#FFCE3C"/>
<circle cx="2.04865" cy="2.04865" r="2.04865" transform="matrix(-1 0 0 1 711.449 703.339)" fill="#FFCE3C"/>
<circle cx="1788.41" cy="784.453" r="2.04865" fill="#FFCE3C"/>
<circle cx="1669.37" cy="780.768" r="3.07297" fill="#FFCE3C"/>
<circle cx="1358.49" cy="834.486" r="3.07297" fill="#FFCE3C"/>
<circle cx="1576.44" cy="834.486" r="2.04865" fill="#FFCE3C"/>
<circle cx="1872.43" cy="860.33" r="2.04865" fill="#FFCE3C"/>
<circle cx="1443.54" cy="780.356" r="2.04865" fill="#FFCE3C"/>
<circle cx="1264.55" cy="764.2" r="2.04865" fill="#FFCE3C"/>
<circle cx="1033.54" cy="840.632" r="3.07297" fill="#FFCE3C"/>
<circle cx="918.338" cy="815.877" r="2.04865" fill="#FFCE3C"/>
<circle cx="1151.27" cy="811.779" r="2.04865" fill="#FFCE3C"/>
<circle cx="1166.62" cy="719.023" r="2.04865" fill="#FFCE3C"/>
</g>
<circle cx="2.04865" cy="2.04865" r="2.04865" transform="matrix(-1 0 0 1 25.1074 260.011)" fill="#FFCE3C"/>
<circle cx="3.07297" cy="3.07297" r="3.07297" transform="matrix(-1 0 0 1 194.805 260.783)" fill="#FFCE3C"/>
<circle cx="3.07297" cy="3.07297" r="3.07297" transform="matrix(-1 0 0 1 332.602 262.06)" fill="#FFCE3C"/>
<circle cx="2.04865" cy="2.04865" r="2.04865" transform="matrix(-1 0 0 1 122.861 318.306)" fill="#FFCE3C"/>
<circle cx="2.04865" cy="2.04865" r="2.04865" transform="matrix(-1 0 0 1 477.244 236.652)" fill="#FFCE3C"/>
<circle cx="2.04865" cy="2.04865" r="2.04865" transform="matrix(-1 0 0 1 613.658 239.506)" fill="#FFCE3C"/>
<circle cx="3.07297" cy="3.07297" r="3.07297" transform="matrix(-1 0 0 1 862.672 230.506)" fill="#FFCE3C"/>
<circle cx="2.04865" cy="2.04865" r="2.04865" transform="matrix(-1 0 0 1 989.844 249.448)" fill="#FFCE3C"/>
<circle cx="2.04865" cy="2.04865" r="2.04865" transform="matrix(-1 0 0 1 444.102 321.379)" fill="#FFCE3C"/>
<circle cx="2.04865" cy="2.04865" r="2.04865" transform="matrix(-1 0 0 1 561.965 298.673)" fill="#FFCE3C"/>
<circle cx="2.04865" cy="2.04865" r="2.04865" transform="matrix(-1 0 0 1 711.594 194.33)" fill="#FFCE3C"/>
<circle cx="1788.55" cy="275.444" r="2.04865" fill="#FFCE3C"/>
<circle cx="1669.51" cy="271.759" r="3.07297" fill="#FFCE3C"/>
<circle cx="1358.64" cy="325.476" r="3.07297" fill="#FFCE3C"/>
<circle cx="1576.58" cy="325.476" r="2.04865" fill="#FFCE3C"/>
<circle cx="1872.58" cy="351.321" r="2.04865" fill="#FFCE3C"/>
<circle cx="1443.69" cy="271.346" r="2.04865" fill="#FFCE3C"/>
<circle cx="1264.7" cy="255.19" r="2.04865" fill="#FFCE3C"/>
<circle cx="1033.69" cy="331.622" r="3.07297" fill="#FFCE3C"/>
<circle cx="918.482" cy="306.867" r="2.04865" fill="#FFCE3C"/>
<circle cx="1151.41" cy="302.77" r="2.04865" fill="#FFCE3C"/>
<circle cx="1166.76" cy="210.014" r="2.04865" fill="#FFCE3C"/>
<circle cx="909.062" cy="19.6097" r="2.04865" fill="#FFCE3C"/>
<circle cx="725.01" cy="31.416" r="3.07297" fill="#FFCE3C"/>
<circle cx="576.419" cy="45.0869" r="3.07297" fill="#FFCE3C"/>
<circle cx="608.502" cy="79.263" r="2.04865" fill="#FFCE3C"/>
<circle cx="949.586" cy="115.303" r="2.04865" fill="#FFCE3C"/>
<circle cx="520.695" cy="34.5233" r="2.04865" fill="#FFCE3C"/>
<circle cx="341.709" cy="18.3665" r="2.04865" fill="#FFCE3C"/>
<circle cx="123.887" cy="23.9592" r="3.07297" fill="#FFCE3C"/>
<circle cx="10.7537" cy="116.983" r="2.04865" fill="#FFCE3C"/>
<circle cx="480.172" cy="94.1763" r="2.04865" fill="#FFCE3C"/>
<circle cx="203.248" cy="59.3787" r="2.04865" fill="#FFCE3C"/>
<circle cx="1916.47" cy="194.33" r="3.07297" fill="#FFCE3C"/>
<circle cx="1784.45" cy="111.651" r="2.04865" fill="#FFCE3C"/>
<circle cx="1600.4" cy="123.457" r="3.07297" fill="#FFCE3C"/>
<circle cx="1495.09" cy="165.568" r="3.07297" fill="#FFCE3C"/>
<circle cx="1704" cy="180.843" r="2.04865" fill="#FFCE3C"/>
<circle cx="1396.09" cy="126.564" r="2.04865" fill="#FFCE3C"/>
<circle cx="999.28" cy="116.001" r="3.07297" fill="#FFCE3C"/>
<circle cx="840.916" cy="120.35" r="2.04865" fill="#FFCE3C"/>
<circle cx="1263.23" cy="165.569" r="2.04865" fill="#FFCE3C"/>
<circle cx="1078.64" cy="151.42" r="2.04865" fill="#FFCE3C"/>
<circle cx="1119.17" cy="65.2316" r="2.04865" fill="#FFCE3C"/>
<circle cx="3.07297" cy="3.07297" r="3.07297" transform="matrix(-1 0 0 1 183.787 134.02)" fill="#FFCE3C"/>
<circle cx="2.04865" cy="2.04865" r="2.04865" transform="matrix(-1 0 0 1 299.273 182.891)" fill="#FFCE3C"/>
<circle cx="2.04865" cy="2.04865" r="2.04865" transform="matrix(-1 0 0 1 387.076 138.151)" fill="#FFCE3C"/>
<circle cx="2.04865" cy="2.04865" r="2.04865" transform="matrix(-1 0 0 1 566.064 121.995)" fill="#FFCE3C"/>
<circle cx="2.04865" cy="2.04865" r="2.04865" transform="matrix(-1 0 0 1 942.25 131.937)" fill="#FFCE3C"/>
<circle cx="2.04865" cy="2.04865" r="2.04865" transform="matrix(-1 0 0 1 715.652 139.046)" fill="#FFCE3C"/>
<circle cx="2.04865" cy="2.04865" r="2.04865" transform="matrix(-1 0 0 1 664 76.8187)" fill="#FFCE3C"/>
<circle cx="964.719" cy="60.305" r="2.04865" transform="rotate(180 964.719 60.305)" fill="#FFCE3C"/>
<circle cx="1148.77" cy="48.4989" r="3.07297" transform="rotate(180 1148.77 48.4989)" fill="#FFCE3C"/>
<circle cx="1297.36" cy="34.828" r="3.07297" transform="rotate(180 1297.36 34.828)" fill="#FFCE3C"/>
<circle cx="1265.28" cy="0.651912" r="2.04865" transform="rotate(180 1265.28 0.651912)" fill="#FFCE3C"/>
<circle cx="1353.09" cy="45.3919" r="2.04865" transform="rotate(180 1353.09 45.3919)" fill="#FFCE3C"/>
<circle cx="1532.07" cy="61.5479" r="2.04865" transform="rotate(180 1532.07 61.5479)" fill="#FFCE3C"/>
<circle cx="1749.9" cy="55.9555" r="3.07297" transform="rotate(180 1749.9 55.9555)" fill="#FFCE3C"/>
<circle cx="1908.26" cy="51.6058" r="2.04865" transform="rotate(180 1908.26 51.6058)" fill="#FFCE3C"/>
<circle cx="1670.54" cy="20.5362" r="2.04865" transform="rotate(180 1670.54 20.5362)" fill="#FFCE3C"/>
<path fill-rule="evenodd" clip-rule="evenodd" d="M68.3105 607.124C89.1074 601.99 146.088 597.419 156.715 596.825C167.992 586.783 179.24 580.533 187.945 580.368C196.287 580.205 200.816 585.641 201.529 594.705C206.073 594.534 210.636 594.37 215.267 594.208C232.26 578.314 249.467 568.269 262.579 567.996C271.285 567.831 277.055 571.978 279.861 579.341C294.165 569.004 307.849 562.898 319.051 562.65C332.069 562.388 339.672 570.125 341.826 583.291C347.299 580.021 352.463 578.153 356.883 578.072C364.815 577.918 368.848 583.535 368.925 592.728C416.949 593.526 459.754 595.537 493.926 598.508L68.3105 607.124Z" fill="#221D2F"/>
<g filter="url(#filter0_d_8295_8624)">
<circle cx="1537.83" cy="2117.18" r="195.223" fill="#FFCE3C"/>
</g>
<path d="M1214.46 2077.78C1202.68 2080.57 1099.83 2053.39 1099.83 2053.39C1099.83 2053.39 1108.07 2076.56 1099.17 2085.57C1090.26 2094.62 1075.96 2093.06 1075.96 2093.06C1075.96 2093.06 1062.31 2133.58 1025.33 2117.75C988.311 2101.91 972.947 2073.04 972.947 2073.04C972.947 2073.04 940.28 2082.19 913.238 2068.68C886.189 2055.2 876.312 2023.47 876.312 2023.47C876.312 2023.47 831.395 2018.14 800.827 2012.68C791.957 2011.09 784.3 2009.45 779.311 2007.96C757.04 2001.3 744.726 1984.12 744.726 1984.12C744.726 1984.12 690.499 1993.11 671.989 1988.47C653.479 1983.83 630.057 1953.41 630.057 1953.41C630.057 1953.41 599.596 1946.08 572.861 1940.8C546.099 1935.51 542.783 1921.92 532.609 1920.66C522.434 1919.41 394.665 1884.81 399.38 1888.93C404.067 1893.04 476.542 1915.61 456.758 1916.87C436.966 1918.16 215.482 1852.83 179.499 1848.39C143.517 1843.95 73.3622 1816.2 73.3622 1816.2C73.3622 1816.2 66.4038 1823.57 44.7249 1820.69C23.0461 1817.81 17.6761 1807.21 17.6761 1807.21C17.6761 1807.21 -41.2536 1789.59 -31.7407 1790.65C-22.2002 1791.72 23.3503 1787.31 23.3503 1787.31L52.5705 1784.33L102.624 1772.93C102.624 1772.93 152.594 1735.12 183.618 1733.58C214.607 1732.07 235.808 1762.99 235.808 1762.99C235.808 1762.99 272.914 1737.48 292.763 1744.62C312.586 1751.75 316.793 1771 316.793 1771C316.793 1771 328.448 1760.1 347.659 1765.84C366.87 1771.59 371.902 1782.67 371.902 1782.67C371.902 1782.67 398.918 1734.98 418.795 1728.94C438.706 1722.88 450.126 1738.89 450.126 1738.89C450.126 1738.89 473.905 1699.82 500.136 1705.26C526.367 1710.7 537.165 1740.33 537.165 1740.33C537.165 1740.33 556.956 1702.47 594.792 1714.36C632.656 1726.27 633.633 1784.15 633.633 1784.15C633.633 1784.15 691.408 1766.06 726.956 1784.48C762.468 1802.93 768.78 1838.4 768.78 1838.4C768.78 1838.4 820.056 1822.55 836.594 1840.68C853.126 1858.85 858.11 1872.32 858.11 1872.32C858.11 1872.32 892.653 1869.43 902.546 1883.82C912.479 1898.16 915.497 1922.79 915.497 1922.79C915.497 1922.79 978.412 1930.51 992.129 1942.41C1005.85 1954.31 1017.28 1978.71 1017.28 1978.71C1017.28 1978.71 1028.96 1972 1048.95 1992.37C1068.96 2012.77 1072.35 2022.75 1104.07 2034.05C1135.79 2045.32 1226.25 2075.09 1214.5 2077.86L1214.46 2077.78Z" fill="#AA7042"/>
<g clip-path="url(#clip2_8295_8624)">
<path d="M600.654 1911.27C600.724 1911.47 702.291 2089.23 705.481 2091.98C707.341 2093.58 1154.87 2118.97 1159.53 2116.55C1168.02 2112.15 1458.98 2059.44 1470.75 2057.4C1451.24 2052.57 1429.96 2053.87 1412.07 2044.68C1393.14 2034.96 1380.55 2014.66 1360.46 2007.64C1351.64 2004.56 1342.11 2004.34 1332.86 2003.01C1323.61 2001.68 1314 1998.88 1307.69 1991.97C1294.48 2004.84 1274.21 2007.35 1255.91 2005.21C1237.62 2003.07 1219.9 1997.03 1201.54 1995.51C1189.82 1994.54 1177.08 1995.15 1167.5 1988.3C1162.45 1984.7 1155.91 1975.43 1148.8 1976.93C1142.14 1978.34 1134.04 1984.87 1127.69 1987.76C1110.74 1995.47 1088.19 2004.02 1060.61 2010.69C1049.21 2013.45 1036.95 2015.88 1023.87 2017.81C934.641 2030.94 890.154 2012.2 890.154 2012.2L849.794 1984.08L827.851 1995.08C827.851 1995.08 800.087 1969.76 761.307 1958.77C723.631 1948.08 693.794 1949.93 608.247 1914.45C607.624 1914.19 607.004 1913.93 606.374 1913.67C606.094 1913.55 605.824 1913.44 605.544 1913.32C605.194 1913.17 604.837 1913.03 604.477 1912.88C604.334 1912.82 604.191 1912.75 604.047 1912.7C603.747 1912.57 603.447 1912.44 603.147 1912.31C602.954 1912.23 602.761 1912.15 602.567 1912.07C601.924 1911.8 601.281 1911.53 600.644 1911.27L600.654 1911.27Z" fill="#21190D"/>
<path d="M1103.84 2171.73H967.412L949.52 2227.64L1785.89 2253.31L2695.56 2136.11L2267.7 1948.23L2029.58 1972.41L1979.36 1948.23L1940.29 1972.41L1871.46 1963.11L1837.97 1888.7L1445.46 2057.98H1327.49L1103.84 2171.73Z" fill="#2B1E10"/>
<path d="M966.551 2078.56L1132.12 2155.01H-0.793823V1644.09L66.1763 1666.47L190.815 1608.66L395.445 1748.51H490.32L605.657 1796.99L674.487 1851.07V1903.28L886.559 1987.19L916.323 2011.43H951.668L966.551 2078.56Z" fill="#2B1E10"/>
<path d="M1836.28 1889.87C1836.28 1889.87 1825.23 1906.91 1816.55 1909.79C1807.87 1912.66 1803.53 1945.12 1792.32 1948.47C1792.32 1948.47 1773.15 1960.17 1770.58 1967.29C1768.01 1974.39 1765.92 1985.65 1768.76 1987.15C1771.61 1988.66 1755.8 1984.5 1751.24 1980.22C1746.68 1975.95 1739.89 1976.39 1729.55 1980.22C1719.3 1984.01 1804.68 2037.57 1806.21 2038.53C1805.7 2038.34 1793.9 2037.83 1778.6 2036.82C1770.51 2036.29 1761.46 2035.62 1752.59 2034.77C1731.74 2032.81 1711.89 2029.94 1708.01 2025.82C1699.29 2016.55 1648.76 2016.93 1648.76 2016.93L1660.16 2040.44L1634.48 2038.54L1463.82 2076.57L1463.84 2076.56C1473.86 2072.37 1483.86 2068.42 1493.83 2065.23C1534.68 2052.11 1575.53 2039 1616.38 2025.82H1616.4C1616.4 2025.82 1616.4 2025.8 1616.42 2025.8L1644.3 2004.33C1644.3 2004.33 1697.13 1984.63 1698.2 1984.18C1710.21 1979.04 1753.45 1954.62 1769.1 1943.55C1769.6 1943.2 1770.08 1942.88 1770.56 1942.54C1770.57 1942.54 1773.13 1940.72 1774.36 1939.84C1775.98 1938.65 1777.57 1937.45 1779.1 1936.26C1780.23 1935.38 1781.34 1934.5 1782.41 1933.63C1785.38 1931.17 1788.16 1928.69 1790.7 1926.19C1791.02 1925.88 1791.33 1925.56 1791.64 1925.25C1791.94 1924.94 1792.24 1924.64 1792.53 1924.33C1792.84 1924.02 1793.14 1923.71 1793.42 1923.39C1793.71 1923.08 1794.01 1922.77 1794.29 1922.46C1795.99 1920.6 1797.56 1918.72 1798.95 1916.83C1799.17 1916.52 1799.4 1916.21 1799.61 1915.9C1800.29 1914.95 1800.94 1913.99 1801.54 1913.04C1801.54 1913.04 1826.62 1896.05 1836.26 1889.87L1836.28 1889.87Z" fill="#21190D"/>
<path d="M50.4647 1699.51L-0.665283 1694.08V1772.06C2.15466 1771.52 4.96466 1770.83 7.74469 1770.03C13.0647 1768.51 18.2446 1766.55 23.1846 1764.3C44.9246 1754.4 64.0447 1739.39 85.8347 1729.63C91.8747 1726.92 98.1047 1724.65 104.465 1722.8C125.475 1716.7 147.865 1715.34 169.445 1719.01C175.115 1719.96 181.005 1721.42 185.265 1725.31C189.505 1729.19 191.395 1736.23 187.925 1740.83C201.435 1737.13 214.945 1733.44 228.455 1729.73C230.345 1729.22 232.555 1728.76 234.115 1729.95C235.565 1731.06 235.815 1733.12 235.825 1734.93C235.885 1741.82 234.365 1748.51 231.925 1754.95C229.295 1761.87 225.615 1768.52 221.725 1774.81C208.655 1796.01 192.665 1815.39 174.375 1832.26C163.505 1842.3 150.455 1850.96 140.615 1862C133.405 1870.09 132.815 1880.17 126.835 1889.11C125.655 1890.88 122.805 1893.93 119.135 1897.76H119.125C115.255 1901.81 110.445 1906.72 105.695 1911.9C92.7047 1926.07 80.0947 1942.28 87.8347 1948.41C90.8847 1950.82 95.1246 1950.88 99.0046 1950.62C101.315 1950.46 103.615 1950.23 105.915 1949.94C114.565 1948.86 123.155 1947.03 131.765 1945.74C139.185 1944.65 146.605 1943.96 154.085 1944.5C162.515 1945.1 170.775 1947.27 179.195 1948C181.165 1948.17 183.255 1948.24 185.005 1947.32C186.545 1946.49 187.615 1945.01 188.615 1943.58C192.805 1937.62 196.625 1931.09 201.065 1925.36C205.405 1919.75 213.275 1918.78 220.255 1917.6C243.075 1913.73 264.675 1902.92 281.485 1886.97C284.375 1884.22 287.245 1881.24 290.945 1879.77C293.915 1878.59 297.185 1878.47 300.385 1878.49C310.255 1878.57 320.115 1879.88 329.665 1882.41C331.025 1882.77 332.455 1883.2 333.385 1884.26C334.545 1885.58 334.605 1887.51 334.615 1889.27C334.645 1900.04 334.685 1910.8 334.725 1921.57C345.005 1923.71 355.285 1925.87 365.575 1928.01C369.955 1928.93 374.415 1929.85 378.865 1929.44C398.435 1927.63 418.315 1910.48 434.875 1901.86C457.305 1890.2 486.745 1902.76 508.995 1890.77C513.255 1888.47 519.165 1885.57 522.185 1889.36C523.505 1891.01 523.535 1893.3 523.505 1895.41C523.205 1917.57 522.895 1939.72 522.595 1961.87C522.445 1972.18 522.355 1982.77 525.935 1992.44C529.495 2002.11 537.615 2010.8 547.835 2011.94C547.945 2015.52 548.055 2019.12 548.165 2022.71C561.295 2020.29 574.475 2018.51 587.585 2016.17C594.135 2015 600.475 2013.79 605.275 2013.64C605.945 2013.62 606.575 2013.62 607.185 2013.64C611.225 2013.8 613.785 2015.03 613.815 2018.21C613.925 2031.09 676.235 1980.72 683.605 1972.8C686.475 1969.71 708.705 1975.91 734.775 1984.93C754.125 1991.62 775.595 1999.84 792.875 2006.95C796.335 2008.39 799.635 2009.78 802.725 2011.09C816.405 2016.97 825.765 2021.52 826.245 2022.89C828.155 2028.15 831.205 2037.82 845.925 2046.08C848.655 2047.61 850.945 2050.98 852.855 2055.48C856.685 2064.48 858.995 2077.96 860.335 2089.95C861.915 2104 862.155 2116.01 861.915 2116.44L877.485 2098.72L902.615 2070.11L915.955 2085.54C915.955 2085.54 924.175 2081.73 930.285 2073.81C933.045 2070.21 939.255 2080.55 945.225 2092.95L929.315 2055.65H907.365V2055.64L900.055 2042.76C900.055 2042.76 661.615 1940.84 661.615 1940.83C660.155 1937.2 660.155 1910.41 660.155 1910.41L619.865 1883.21L600.795 1856.93L597.135 1851.87L592.875 1845.98H592.865L485.445 1794.75L373.835 1790.74L285.875 1715.79L281.525 1712.08L182.765 1658.17L133.785 1673.48L50.4647 1699.51Z" fill="#21190D"/>
</g>
<g clip-path="url(#clip3_8295_8624)">
<path d="M2153.03 2120.35H2153.05V2222.06H881.621V2140.47C881.621 2108.99 914.518 2083.48 955.087 2083.48C961.557 2083.48 967.837 2084.13 973.817 2085.35C984.709 2061.11 1014.42 2043.73 1049.37 2043.73C1077.14 2043.73 1101.6 2054.69 1115.95 2071.35C1121.25 2068.66 1127.6 2067.08 1134.42 2067.08C1148.19 2067.08 1160.01 2073.45 1165.3 2082.6C1185.93 2074.8 1245.76 2066.98 1248.25 2095.97C1250.28 2095.7 1252.35 2095.56 1254.47 2095.56C1271.41 2095.56 1285.69 2104.4 1290.05 2116.47H1291.43V2118.3C1298.08 2116.11 1305.4 2114.9 1313.08 2114.9C1321.39 2114.9 1329.28 2116.31 1336.35 2118.86C1343.09 2110.58 1354.98 2105.08 1368.51 2105.08C1388.75 2105.08 1405.3 2117.35 1406.47 2132.82C1409.63 2131.77 1413.1 2131.2 1416.74 2131.2C1431.25 2131.2 1443.01 2140.34 1443.01 2151.61C1443.01 2152.41 1442.97 2153.2 1442.83 2153.98C1452.01 2149.27 1463.02 2146.53 1474.84 2146.53C1489.24 2146.53 1502.4 2150.6 1512.55 2157.33C1514.13 2138.55 1533 2122.85 1557.95 2120.93C1564.97 2120.39 1571.79 2120.99 1578.13 2122.54C1577.94 2121.66 1577.73 2120.78 1577.61 2119.87C1574.43 2095.2 1597.66 2073.19 1629.48 2070.74C1655.15 2068.75 1678.56 2080.12 1688.31 2097.54C1692.45 2095.94 1697.01 2094.85 1701.9 2094.47C1706.35 2094.13 1710.7 2094.39 1714.82 2095.15C1722.34 2084.4 1737.01 2077.1 1753.89 2077.1C1767.77 2077.1 1780.18 2082.05 1788.32 2089.78C1794.7 2065.24 1822.63 2046.75 1856.17 2046.75C1870.25 2046.75 1883.37 2050.01 1894.3 2055.63C1894.15 2054.7 1894.08 2053.76 1894.08 2052.8C1894.08 2039.38 1908.09 2028.49 1925.4 2028.49C1929.72 2028.49 1933.86 2029.16 1937.63 2030.42C1939.02 2011.99 1958.74 1997.37 1982.85 1997.37C1998.97 1997.37 2013.14 2003.91 2021.17 2013.79C2029.59 2010.75 2038.99 2009.07 2048.89 2009.07C2085.39 2009.07 2114.96 2032 2114.96 2060.31C2114.96 2067.16 2113.22 2073.69 2110.07 2079.65C2134.51 2082.96 2153.05 2099.5 2153.05 2119.4C2153.05 2119.72 2153.05 2120.04 2153.03 2120.35Z" fill="#0E0816"/>
<path d="M-28.6 2111.43H-28.6116V2208.12H908.92V2163.73C908.92 2133.81 884.662 2109.55 854.747 2109.55C849.976 2109.55 845.345 2110.18 840.936 2111.34C829.154 2077.53 756.627 2067.34 736.131 2098.03C732.218 2095.47 727.54 2093.97 722.507 2093.97C712.358 2093.97 703.638 2100.02 699.742 2108.72C680.113 2071.77 619.007 2067.57 607.752 2107.73H606.731V2109.48C601.826 2107.39 596.431 2106.25 590.767 2106.25C584.637 2106.25 578.822 2107.59 573.608 2110.01C568.639 2102.13 559.873 2096.91 549.893 2096.91C534.968 2096.91 522.766 2108.57 521.903 2123.28C519.576 2122.28 517.015 2121.74 514.332 2121.74C503.629 2121.74 494.957 2130.43 494.957 2141.14C494.957 2141.91 494.992 2142.66 495.091 2143.4C488.325 2138.92 480.206 2136.32 471.492 2136.32C460.871 2136.32 451.166 2140.19 443.683 2146.58C442.516 2128.72 428.6 2113.8 410.204 2111.97C405.025 2111.46 399.997 2112.04 395.325 2113.51C395.465 2112.67 395.623 2111.83 395.71 2110.97C398.049 2087.51 380.925 2066.6 357.461 2064.26C338.528 2062.37 321.27 2073.18 314.078 2089.75C311.028 2088.22 307.663 2087.18 304.058 2086.82C300.774 2086.5 297.566 2086.74 294.528 2087.46C288.987 2077.25 278.167 2070.31 265.721 2070.31C255.485 2070.31 246.333 2075.01 240.332 2082.36C235.631 2059.03 193.012 2058.26 168.283 2058.26C157.901 2058.26 148.224 2061.35 140.17 2066.7C140.281 2065.82 140.327 2064.92 140.327 2064C140.327 2051.25 129.998 2040.89 117.236 2040.89C114.046 2040.89 110.996 2041.53 108.219 2042.72C107.193 2025.2 92.6522 2011.3 74.8747 2011.3C62.9822 2011.3 52.5361 2017.53 46.6161 2026.92C40.4045 2024.03 33.4754 2022.43 26.1731 2022.43C-0.738159 2022.43 -22.546 2044.24 -22.546 2071.14C-22.546 2077.66 -21.2628 2083.87 -18.9356 2089.53C-36.9581 2092.68 -28.6116 2091.61 -28.6116 2110.53C-28.6116 2110.83 -28.6116 2111.13 -28.6 2111.43Z" fill="#0E0816"/>
</g>
<path fill-rule="evenodd" clip-rule="evenodd" d="M1618.94 1949.2C1598.14 1944.07 1541.16 1939.49 1530.53 1938.9C1519.26 1928.86 1508.01 1922.61 1499.3 1922.44C1490.96 1922.28 1486.43 1927.72 1485.72 1936.78C1481.18 1936.61 1476.61 1936.45 1471.98 1936.28C1454.99 1920.39 1437.78 1910.34 1424.67 1910.07C1415.97 1909.91 1410.2 1914.05 1407.39 1921.42C1393.09 1911.08 1379.4 1904.97 1368.2 1904.73C1355.18 1904.46 1347.58 1912.2 1345.42 1925.37C1339.95 1922.1 1334.79 1920.23 1330.37 1920.15C1322.44 1919.99 1318.4 1925.61 1318.33 1934.8C1270.3 1935.6 1227.5 1937.61 1193.32 1940.58L1618.94 1949.2Z" fill="#AA7042"/>
</g>
</g>
<defs>
<filter id="filter0_d_8295_8624" x="1242.61" y="1821.95" width="590.447" height="590.447" filterUnits="userSpaceOnUse" color-interpolation-filters="sRGB">
<feFlood flood-opacity="0" result="BackgroundImageFix"/>
<feColorMatrix in="SourceAlpha" type="matrix" values="0 0 0 0 0 0 0 0 0 0 0 0 0 0 0 0 0 0 127 0" result="hardAlpha"/>
<feOffset/>
<feGaussianBlur stdDeviation="50"/>
<feComposite in2="hardAlpha" operator="out"/>
<feColorMatrix type="matrix" values="0 0 0 0 1 0 0 0 0 0.875595 0 0 0 0 0.170636 0 0 0 0.5 0"/>
<feBlend mode="normal" in2="BackgroundImageFix" result="effect1_dropShadow_8295_8624"/>
<feBlend mode="normal" in="SourceGraphic" in2="effect1_dropShadow_8295_8624" result="shape"/>
</filter>
<linearGradient id="paint0_linear_8295_8624" x1="960" y1="-118.959" x2="960" y2="1920.23" gradientUnits="userSpaceOnUse">
<stop offset="0.0218827" stop-color="#1A1423"/>
<stop offset="0.404928" stop-color="#3B3955"/>
<stop offset="0.648257" stop-color="#945D45"/>
<stop offset="0.977958" stop-color="#F7B336"/>
</linearGradient>
<linearGradient id="paint1_linear_8295_8624" x1="959.008" y1="-120.91" x2="959.008" y2="1951.72" gradientUnits="userSpaceOnUse">
<stop offset="0.0218827" stop-color="#1A1423"/>
<stop offset="0.404928" stop-color="#3B3955"/>
<stop offset="0.648257" stop-color="#945D45"/>
<stop offset="0.977958" stop-color="#F7B336"/>
</linearGradient>
<clipPath id="clip0_8295_8624">
<rect width="1920" height="2155" fill="white"/>
</clipPath>
<clipPath id="clip1_8295_8624">
<rect width="1920" height="2155" fill="white" transform="translate(-0.992188)"/>
</clipPath>
<clipPath id="clip2_8295_8624">
<rect width="1920" height="546" fill="white" transform="translate(-0.992188 1609)"/>
</clipPath>
<clipPath id="clip3_8295_8624">
<rect width="1920" height="203" fill="white" transform="translate(-0.347656 1952)"/>
</clipPath>
</defs>
</svg>
