<svg width="72" height="17" viewBox="0 0 72 17" fill="none" xmlns="http://www.w3.org/2000/svg">
<path d="M17.4336 15.8639C19.9278 15.5134 21.4747 14.9147 23.2713 13.1402C24.8498 11.581 26.2361 9.92634 28.009 8.57004C31.3979 5.97725 36.1054 3.40874 40.4902 3.63724C44.9219 3.86822 49.0557 5.97386 52.966 7.86765C55.1073 8.9047 57.2724 9.91384 59.4373 10.9022C60.512 11.3928 61.5584 11.9374 62.6222 12.4501C63.6117 12.9271 65.0782 13.2531 65.8448 14.0154C64.199 14.6951 61.5972 14.4952 59.8012 14.7797C58.7674 14.9435 55.0154 15.9959 57.9466 16.6013C59.7646 16.9767 62.2728 16.5676 64.1851 16.3863C66.2586 16.1895 68.401 16.0866 70.4702 15.8043C73.0326 15.4548 71.7227 14.0179 71.1807 12.2491C70.5695 10.2549 70.1649 7.34056 68.9954 5.60303C67.6036 3.53508 65.877 5.19905 66.4099 7.20053C66.7112 8.33219 67.3508 9.51028 67.8271 10.5857C68.0317 11.0477 68.9736 12.465 68.7848 13.0041C61.9514 10.0946 56.2598 5.10442 49.4299 2.15903C46.3311 0.822669 42.6167 -0.186558 39.2069 0.0291061C35.8994 0.238281 32.6505 1.77679 29.825 3.46083C26.5253 5.42758 24.0559 7.80318 21.5286 10.6471C19.2369 13.2259 16.8032 13.8119 13.4974 12.8074C10.3459 11.8498 7.52579 9.79866 5.05176 7.69355C3.98456 6.78551 1.87751 5.23106 1.59439 3.80619C1.53055 3.4846 1.903 3.02351 1.69222 2.75584C1.29941 2.25709 0.549317 2.97793 0.335704 3.27638C-1.58202 5.95529 5.26888 10.7137 6.93708 11.9299C9.67018 13.9225 13.8813 16.1866 17.4336 15.8639C17.9726 15.7882 16.9904 15.9042 17.4336 15.8639Z" fill="#FFCE3C"/>
</svg>
