<svg width="72" height="17" viewBox="0 0 72 17" fill="none" xmlns="http://www.w3.org/2000/svg">
<path d="M17.4336 0.890764C19.9278 1.24127 21.4747 1.84002 23.2713 3.61448C24.8498 5.17366 26.2361 6.82836 28.009 8.18466C31.3979 10.7774 36.1054 13.346 40.4902 13.1175C44.9219 12.8865 49.0557 10.7808 52.966 8.88705C55.1073 7.85 57.2724 6.84086 59.4373 5.85253C60.512 5.36194 61.5584 4.81734 62.6222 4.30457C63.6117 3.82762 65.0782 3.50164 65.8448 2.73932C64.199 2.05965 61.5972 2.25952 59.8012 1.975C58.7674 1.8112 55.0154 0.758751 57.9466 0.153411C59.7646 -0.221997 62.2728 0.187089 64.1851 0.368448C66.2586 0.56517 68.401 0.668138 70.4702 0.950362C73.0326 1.29986 71.7227 2.73685 71.1807 4.50558C70.5695 6.49981 70.1649 9.41414 68.9954 11.1517C67.6036 13.2196 65.877 11.5557 66.4099 9.55417C66.7112 8.42251 67.3508 7.24442 67.8271 6.16901C68.0317 5.707 68.9736 4.28968 68.7848 3.75061C61.9514 6.66008 56.2598 11.6503 49.4299 14.5957C46.3311 15.932 42.6167 16.9413 39.2069 16.7256C35.8994 16.5164 32.6505 14.9779 29.825 13.2939C26.5253 11.3271 24.0559 8.95152 21.5286 6.10756C19.2369 3.52875 16.8032 2.94278 13.4974 3.94729C10.3459 4.90489 7.52579 6.95604 5.05176 9.06115C3.98456 9.96919 1.87751 11.5236 1.59439 12.9485C1.53055 13.2701 1.903 13.7312 1.69222 13.9989C1.29941 14.4976 0.549317 13.7768 0.335704 13.4783C-1.58202 10.7994 5.26888 6.041 6.93708 4.82483C9.67018 2.83223 13.8813 0.568126 17.4336 0.890764C17.9726 0.966533 16.9904 0.850494 17.4336 0.890764Z" fill="#FFCE3C"/>
</svg>
