<svg width="32" height="32" viewBox="0 0 32 32" fill="none" xmlns="http://www.w3.org/2000/svg">
<rect width="32" height="32" rx="16" fill="#FFCE3C"/>
<path fill-rule="evenodd" clip-rule="evenodd" d="M22.338 13.3411L22.0503 12.9606C21.744 12.6822 21.3078 12.8493 21.3264 13.1091C21.3264 13.1834 21.3264 13.2854 21.4192 13.3504C21.7069 13.6288 21.5306 13.5175 21.6234 13.6845C21.874 14.5198 21.9389 16.4687 21.1408 17.1369C21.0733 17.1936 21.0288 17.2731 21.0157 17.3602C21.0026 17.4474 21.0218 17.5364 21.0697 17.6104C21.1175 17.6845 21.1907 17.7385 21.2756 17.7624C21.3605 17.7863 21.4511 17.7784 21.5306 17.7402C21.8946 17.5236 22.2082 17.2316 22.4501 16.8839C22.692 16.5361 22.8567 16.1407 22.9332 15.724C23.0097 15.3073 22.9961 14.8791 22.8935 14.4682C22.7908 14.0572 22.6014 13.6729 22.338 13.3411Z" fill="#5A3384"/>
<path fill-rule="evenodd" clip-rule="evenodd" d="M25.3907 10.0743C25.2793 9.91655 23.8594 8.49661 23.6459 9.09986C23.1911 9.4618 24.2863 9.73094 24.7132 10.5012C25.2552 11.5243 25.6192 12.6321 25.7897 13.7773C26.3837 17.2204 24.9823 19.9118 22.7457 21.0812C22.703 21.1025 22.665 21.132 22.6337 21.1681C22.6025 21.2041 22.5786 21.2459 22.5636 21.2912C22.5485 21.3364 22.5425 21.3842 22.5458 21.4318C22.5492 21.4793 22.5619 21.5258 22.5833 21.5684C22.6046 21.6111 22.6341 21.6491 22.6701 21.6804C22.7062 21.7116 22.748 21.7355 22.7932 21.7505C22.8385 21.7656 22.8863 21.7716 22.9338 21.7683C22.9814 21.7649 23.0278 21.7522 23.0705 21.7308C27.6087 19.587 28.2955 14.2042 25.3907 10.0743Z" fill="#5A3384"/>
<path fill-rule="evenodd" clip-rule="evenodd" d="M17.6702 8.02336C15.9069 5.796 10.8303 10.3528 9.57745 12.9978C9.52295 12.9602 9.45802 12.9407 9.39184 12.9421C6.71901 12.8957 4.14826 15.0117 5.04849 17.7031C5.22711 18.2515 5.55095 18.7413 5.98562 19.1204C6.42029 19.4995 6.94954 19.7538 7.51714 19.8562C7.98018 19.9626 8.45283 20.0217 8.9278 20.0325C10.9788 19.9305 10.7839 19.8376 10.0972 14.0558C10.0415 13.7403 9.40112 13.6753 9.49393 14.427C9.62797 15.9058 9.62797 17.3937 9.49393 18.8725C9.15982 18.8261 9.41968 18.8725 8.33384 18.7889L7.40578 18.5384C6.02296 18.0279 5.15058 15.5964 7.57283 14.2136C9.18766 13.2855 9.66098 14.1486 10.357 12.97C11.4876 11.283 13.0096 9.89469 14.7932 8.92359C15.3407 8.63589 16.4451 8.16257 16.8071 8.67301C17.7352 9.95374 17.9672 20.1903 16.8628 22.659C16.5472 23.3643 16.111 23.7819 15.3686 23.587C14.2363 23.2901 11.9904 21.5824 10.7283 20.1625C10.6643 20.0862 10.5726 20.0384 10.4734 20.0297C10.3742 20.021 10.2756 20.0521 10.1993 20.1161C10.123 20.1801 10.0752 20.2718 10.0665 20.371C10.0578 20.4702 10.0889 20.5688 10.1529 20.6451C11.214 21.8687 12.4417 22.9371 13.8002 23.8191C14.1369 24.1039 14.5302 24.314 14.9542 24.4356C15.3781 24.5571 15.823 24.5874 16.2595 24.5244C17.8187 24.1253 18.2734 22.0186 18.4962 20.4223C18.7839 17.9722 19.1644 9.98158 17.6702 8.02336Z" fill="#5A3384"/>
</svg>
