<svg width="38" height="43" viewBox="0 0 38 43" fill="none" xmlns="http://www.w3.org/2000/svg">
<g opacity="0.8" style="mix-blend-mode:multiply">
<path d="M37.1369 16.3416V16.341L37.1357 16.3414L24.3079 14.4773L18.5698 2.85046L12.8312 14.4773L0.00205877 16.3416L0 16.341V20.6679L8.64958 29.0974L7.09346 38.1695L7.09093 38.173V42.5L18.5684 36.4633L30.046 42.5V38.173L30.0441 38.1704L30.046 38.1714L28.4902 29.0992L37.1369 20.6679V16.3439L37.139 16.3418L37.1369 16.3416Z" fill="#CDCDCD"/>
</g>
<path d="M27.9374 26.7878L27.855 26.8703L29.0146 32.8657L29.2896 34.2775L30.046 35.3225V39.6495L18.5684 33.6128L7.0909 39.6495V35.3225L7.84723 34.2821L8.38813 31.5089L9.28651 26.8703L9.18567 26.7694L0 17.8175V13.4906L1.56299 13.9993L2.95644 14.4531V16.4287L3.96023 16.282L12.8297 14.994L18.5684 3.36523L24.3072 14.994L33.2545 16.2957L34.185 16.4287V14.4531L35.6518 13.9764L37.1369 13.4906V17.8175L27.9374 26.7878Z" fill="#58595B"/>
<path opacity="0.8" d="M10.1849 22.2086L9.18567 26.7694L0 17.8174V13.4905L1.56299 13.9993L2.95644 15.3239L3.96023 16.2819L10.1849 22.2086Z" fill="url(#paint0_linear_14101_17397)" style="mix-blend-mode:multiply"/>
<path opacity="0.8" d="M37.136 13.4905V17.8174L27.9365 26.7877L27.084 22.2636L33.2536 16.2957L34.1841 15.3927L35.6509 13.9763L37.136 13.4905Z" fill="url(#paint1_linear_14101_17397)" style="mix-blend-mode:multiply"/>
<path opacity="0.8" d="M30.0469 35.3225V39.6495L18.5694 33.6128V27.7319L18.2852 24.2712L29.0156 32.8657L29.2905 34.2774L30.0469 35.3225Z" fill="url(#paint2_linear_14101_17397)" style="mix-blend-mode:multiply"/>
<path opacity="0.8" d="M18.5693 27.732V33.6129L7.0918 39.6496V35.3226L7.84813 34.2821L8.38903 31.509L16.3737 25.9902L18.5693 27.732Z" fill="url(#paint3_linear_14101_17397)" style="mix-blend-mode:multiply"/>
<path opacity="0.5" d="M10.1849 22.2086L9.18567 26.7694L0 17.8174V13.4905L1.56299 13.9993L2.95644 15.3239L3.96023 16.2819L10.1849 22.2086Z" fill="url(#paint4_linear_14101_17397)" style="mix-blend-mode:screen"/>
<path opacity="0.5" d="M37.136 13.4905V17.8174L27.9365 26.7877L27.084 22.2636L33.2536 16.2957L34.1841 15.3927L35.6509 13.9763L37.136 13.4905Z" fill="url(#paint5_linear_14101_17397)" style="mix-blend-mode:screen"/>
<path opacity="0.5" d="M30.0469 35.3225V39.6495L18.5694 33.6128V27.7319L18.2852 24.2712L29.0156 32.8657L29.2905 34.2774L30.0469 35.3225Z" fill="url(#paint6_linear_14101_17397)" style="mix-blend-mode:screen"/>
<path opacity="0.5" d="M18.5693 27.732V33.6129L7.0918 39.6496V35.3226L7.84813 34.2821L8.38903 31.509L16.3737 25.9902L18.5693 27.732Z" fill="url(#paint7_linear_14101_17397)" style="mix-blend-mode:screen"/>
<path d="M18.5693 29.2874L7.09261 35.3209L9.28464 22.5417L0 13.4914L12.8307 11.6268L18.5693 0L24.3073 11.6268L37.1385 13.4914L27.8539 22.5417L30.0454 35.3209L18.5693 29.2874Z" fill="#CCCCCC"/>
<path d="M27.3608 22.3829L29.4372 34.4838L18.5693 28.7679L7.70149 34.4838L9.77783 22.3829L0.986328 13.8114L13.1376 12.0467L18.5693 1.03674L24.0056 12.0467L27.127 12.5005L36.1568 13.8114L27.3608 22.3829Z" fill="#B3B3B3"/>
<path opacity="0.8" d="M27.3605 22.3829L29.4369 34.4838L18.569 28.7679L7.70117 34.4838L9.7775 22.3829C9.7775 22.3829 15.9288 15.1819 27.1267 12.5005L36.1565 13.8114L27.3605 22.3829Z" fill="url(#paint8_linear_14101_17397)" style="mix-blend-mode:multiply"/>
<g opacity="0.3" style="mix-blend-mode:multiply">
<path d="M18.5696 27.7339L8.91924 32.8072L10.7626 22.0616L2.95508 14.4515L13.7442 12.8837L18.5696 3.10718L23.3945 12.8837L34.184 14.4515L26.3766 22.0616L28.2194 32.8072L18.5696 27.7339Z" fill="#808080"/>
</g>
<path d="M18.5706 4.14282L23.0913 13.3027L33.1999 14.7716L25.8853 21.9016L27.612 31.9693L18.5706 27.216L9.52927 31.9693L11.256 21.9016L3.94141 14.7716L14.05 13.3027L18.5706 4.14282Z" fill="#F2F2F2"/>
<path d="M25.3938 21.7411L27.0027 31.133L18.5687 26.696L10.1394 31.133L11.409 23.7213L11.7482 21.7411L4.92773 15.0902L14.3518 13.7197L18.5687 5.1803L22.7857 13.7197L32.2143 15.0902L25.3938 21.7411Z" fill="#CCCCCC"/>
<path opacity="0.5" d="M32.2143 15.0902L25.3938 21.7411C19.0363 20.641 14.4343 22.0299 11.409 23.7213L11.7482 21.7411L4.92773 15.0902L14.3518 13.7197L18.5687 5.1803L22.7857 13.7197L32.2143 15.0902Z" fill="url(#paint9_linear_14101_17397)" style="mix-blend-mode:screen"/>
<path d="M23.0101 13.7543L22.786 13.7217L18.5698 5.17834L14.3532 13.7217L4.92578 15.0916L11.0634 21.0746C12.9906 19.2631 17.0526 15.965 23.0101 13.7543Z" fill="url(#paint10_linear_14101_17397)"/>
<g opacity="0.5" style="mix-blend-mode:screen">
<path d="M14.5477 15.587C14.6954 16.2683 13.6827 17.0661 12.2857 17.3689C10.8888 17.6717 9.6366 17.365 9.48891 16.6837C9.34123 16.0024 10.3539 15.2046 11.7509 14.9017C13.1478 14.5989 14.4 14.9057 14.5477 15.587Z" fill="white"/>
</g>
<g opacity="0.5" style="mix-blend-mode:screen">
<path d="M16.7152 14.9352C16.6185 15.3142 16.2328 15.5431 15.8538 15.4465C15.4747 15.3498 15.2458 14.9642 15.3424 14.5851C15.4391 14.2061 15.8248 13.9771 16.2038 14.0738C16.5829 14.1704 16.8118 14.5561 16.7152 14.9352Z" fill="white"/>
</g>
<defs>
<linearGradient id="paint0_linear_14101_17397" x1="0" y1="20.1299" x2="10.1849" y2="20.1299" gradientUnits="userSpaceOnUse">
<stop stop-color="#808080" stop-opacity="0"/>
<stop offset="0.26865" stop-color="#808080" stop-opacity="0.23742"/>
<stop offset="0.85188" stop-color="#808080" stop-opacity="0.83914"/>
<stop offset="1" stop-color="#808080"/>
</linearGradient>
<linearGradient id="paint1_linear_14101_17397" x1="27.084" y1="20.1391" x2="37.136" y2="20.1391" gradientUnits="userSpaceOnUse">
<stop stop-color="#808080"/>
<stop offset="0.14812" stop-color="#808080" stop-opacity="0.83914"/>
<stop offset="0.73135" stop-color="#808080" stop-opacity="0.23742"/>
<stop offset="1" stop-color="#808080" stop-opacity="0"/>
</linearGradient>
<linearGradient id="paint2_linear_14101_17397" x1="18.2852" y1="31.9603" x2="30.0469" y2="31.9603" gradientUnits="userSpaceOnUse">
<stop stop-color="#808080" stop-opacity="0"/>
<stop offset="0.26865" stop-color="#808080" stop-opacity="0.23742"/>
<stop offset="0.85188" stop-color="#808080" stop-opacity="0.83914"/>
<stop offset="1" stop-color="#808080"/>
</linearGradient>
<linearGradient id="paint3_linear_14101_17397" x1="7.0918" y1="32.8199" x2="18.5693" y2="32.8199" gradientUnits="userSpaceOnUse">
<stop stop-color="#808080" stop-opacity="0"/>
<stop offset="0.26865" stop-color="#808080" stop-opacity="0.23742"/>
<stop offset="0.85188" stop-color="#808080" stop-opacity="0.83914"/>
<stop offset="1" stop-color="#808080"/>
</linearGradient>
<linearGradient id="paint4_linear_14101_17397" x1="3.5001" y1="21.6193" x2="6.56849" y2="17.4372" gradientUnits="userSpaceOnUse">
<stop stop-color="#FFDD52"/>
<stop offset="0.0328" stop-color="#F5D655" stop-opacity="0.92569"/>
<stop offset="0.25706" stop-color="#B7A86C" stop-opacity="0.43334"/>
<stop offset="0.41056" stop-color="#8F8B7A" stop-opacity="0.12187"/>
<stop offset="0.48051" stop-color="#808080" stop-opacity="0"/>
</linearGradient>
<linearGradient id="paint5_linear_14101_17397" x1="33.9247" y1="21.571" x2="30.3741" y2="17.9091" gradientUnits="userSpaceOnUse">
<stop stop-color="#FFDD52"/>
<stop offset="0.08559" stop-color="#EACE59" stop-opacity="0.84229"/>
<stop offset="0.27878" stop-color="#B8A96B" stop-opacity="0.44167"/>
<stop offset="0.48051" stop-color="#808080" stop-opacity="0"/>
</linearGradient>
<linearGradient id="paint6_linear_14101_17397" x1="22.1669" y1="35.781" x2="25.6046" y2="29.211" gradientUnits="userSpaceOnUse">
<stop stop-color="#FFDD52"/>
<stop offset="0.29322" stop-color="#808080" stop-opacity="0"/>
</linearGradient>
<linearGradient id="paint7_linear_14101_17397" x1="14.1197" y1="36.6048" x2="10.4805" y2="28.3788" gradientUnits="userSpaceOnUse">
<stop stop-color="#FFDD52"/>
<stop offset="0.04273" stop-color="#EFD157" stop-opacity="0.87821"/>
<stop offset="0.14251" stop-color="#CEB963" stop-opacity="0.6151"/>
<stop offset="0.23729" stop-color="#B2A46D" stop-opacity="0.39569"/>
<stop offset="0.3243" stop-color="#9C9475" stop-opacity="0.22464"/>
<stop offset="0.402" stop-color="#8C897B" stop-opacity="0.10174"/>
<stop offset="0.46756" stop-color="#83827E" stop-opacity="0.02684"/>
<stop offset="0.51307" stop-color="#808080" stop-opacity="0"/>
</linearGradient>
<linearGradient id="paint8_linear_14101_17397" x1="17.0065" y1="15.9228" x2="29.0768" y2="36.091" gradientUnits="userSpaceOnUse">
<stop stop-color="#808080"/>
<stop offset="0.04788" stop-color="#808080" stop-opacity="0.87535"/>
<stop offset="0.16779" stop-color="#808080" stop-opacity="0.60754"/>
<stop offset="0.29586" stop-color="#808080" stop-opacity="0.38605"/>
<stop offset="0.43264" stop-color="#808080" stop-opacity="0.21485"/>
<stop offset="0.58227" stop-color="#808080" stop-opacity="0.09362"/>
<stop offset="0.75435" stop-color="#808080" stop-opacity="0.02217"/>
<stop offset="1" stop-color="#808080" stop-opacity="0"/>
</linearGradient>
<linearGradient id="paint9_linear_14101_17397" x1="18.7356" y1="22.1653" x2="18.3536" y2="5.74043" gradientUnits="userSpaceOnUse">
<stop stop-color="white"/>
<stop offset="0.08345" stop-color="#F8F8F8" stop-opacity="0.90908"/>
<stop offset="0.5421" stop-color="#D3D3D3" stop-opacity="0.42548"/>
<stop offset="0.85643" stop-color="#BCBCBC" stop-opacity="0.11963"/>
<stop offset="1" stop-color="#B3B3B3" stop-opacity="0"/>
</linearGradient>
<linearGradient id="paint10_linear_14101_17397" x1="17.9535" y1="18.8358" x2="10.5432" y2="8.44615" gradientUnits="userSpaceOnUse">
<stop stop-color="white"/>
<stop offset="0.08345" stop-color="#F8F8F8" stop-opacity="0.90908"/>
<stop offset="0.5421" stop-color="#D3D3D3" stop-opacity="0.42548"/>
<stop offset="0.85643" stop-color="#BCBCBC" stop-opacity="0.11963"/>
<stop offset="1" stop-color="#B3B3B3" stop-opacity="0"/>
</linearGradient>
</defs>
</svg>
