<svg width="188" height="98" viewBox="0 0 188 98" fill="none" xmlns="http://www.w3.org/2000/svg">
<path d="M14.5757 68.0446V56.7239L46.0071 46.0069L53.5355 60.2272L88.668 74.4475V89.5541L43.4977 83.6489L5.85572 88.6678L2.50977 84.4853L5.01923 73.611L14.5757 68.0446Z" fill="#030527"/>
<path d="M88.7266 78.5163V77.2428L47.2643 65.639L88.7266 78.5163Z" fill="white"/>
<path d="M88.7266 81.205V79.9314L47.2643 68.3276L88.7266 81.205Z" fill="white"/>
<path d="M88.7266 84.0352V82.7616L47.4058 71.1578L88.7266 84.0352Z" fill="white"/>
<path d="M88.7266 86.8653V85.5917L47.4058 73.988L88.7266 86.8653Z" fill="white"/>
<rect x="40.9941" y="14.3823" width="9.19182" height="7.81929" fill="#FFC760"/>
<path d="M44.6309 77.7567L89.4769 89.81C74.8042 91.5509 60.4766 96.7025 45.4725 97.0197C31.6807 97.3114 18.0921 92.5847 4.41635 91.0225C0.954783 90.6271 -0.00650725 84.7555 3.30895e-05 82.2703C0.0131703 77.2818 1.78325 71.2018 6.89636 69.5874L43.4693 58.0401C45.4659 57.4097 46.3513 55.0583 46.6684 52.9342C46.9096 51.319 45.8883 48.6882 43.8937 47.4018L19.5605 55.2012C15.0568 56.8813 14.2203 57.7178 12.6734 56.0865L42.3738 45.4419C43.8584 44.9098 46.7864 44.7515 48.2611 45.3344C56.9445 48.7668 65.7223 50.9444 73.9098 55.2295C77.6664 57.1956 75.4404 64.3001 72.492 66.4904C77.3448 70.8798 85.2825 69.0277 90 75.265L44.809 61.7024L8.47098 72.8627C4.61306 74.0476 3.88533 80.8697 4.71501 83.9299C5.08864 85.3079 6.85846 87.268 7.86136 87.0155L44.6309 77.7567Z" fill="white"/>
<path d="M28.5747 48.8478L16.3498 52.8908C14.0268 52.4441 10.6652 50.1932 8.83627 48.3461C6.34632 45.8313 6.58493 42.2115 9.16799 39.8768C17.5059 32.3403 34.4454 31.3703 45.7246 30.824L30.3269 28.025L35.2091 14.7673C34.0948 12.5749 32.2529 9.79544 30.8501 7.86144L24.0706 9.45352C27.0686 5.47862 29.4902 3.13235 33.8088 0C39.2545 3.9856 47.4348 5.88044 50.7267 11.7558L62.404 32.5966C67.9764 33.4359 87.1355 38.8897 81.8736 47.2903C80.5638 49.3815 76.6255 53.0991 73.9298 52.6455C69.6638 51.9276 65.392 50.0357 61.4215 48.6785L61.8355 45.8245C61.9511 45.0276 60.0536 43.7931 59.2388 43.5381C49.8829 40.6097 39.8564 40.5228 30.513 43.533C29.7991 43.763 28.4309 44.7499 28.1306 45.3522C27.8303 45.9546 28.3055 47.3782 28.5747 48.8478ZM44.5101 21.6973C46.1327 20.1652 48.4322 19.3652 50.3679 19.5483C48.8522 18.6397 47.3678 16.5338 46.757 14.6086C45.3342 15.6953 42.8966 16.4678 40.7532 16.614C42.6471 17.3701 44.0902 19.6203 44.5101 21.6973Z" fill="#6D1DA1"/>
<path d="M7.80198 32.5175C7.19219 29.0403 5.13713 26.64 0.933594 25.8603C4.90592 25.1476 7.22865 22.9717 7.82878 18.8896C8.9332 22.9476 10.7403 25.028 14.7797 25.8087C11.2972 26.7647 9.18979 28.0505 7.80198 32.5175Z" fill="#FFC760"/>
<path d="M83.7253 63.4039C82.9272 61.9086 81.0341 60.1595 78.9102 59.1058C80.9649 58.7224 82.9512 56.8818 83.8403 54.8533C84.7447 56.8707 86.5262 58.5372 88.5089 59.1385C86.9447 60.0927 85.0658 61.7351 83.7253 63.4039Z" fill="#FFC760"/>
<path d="M44.5089 21.6975C44.089 19.6205 42.6458 17.3703 40.752 16.6142C42.8954 16.468 45.333 15.6955 46.7558 14.6088C47.3666 16.534 48.8509 18.6399 50.3667 19.5485C48.431 19.3654 46.1314 20.1654 44.5089 21.6975Z" fill="#FFC760"/>
<path d="M14.5762 59.9786V58.705L43.4441 49.2239L14.5762 59.9786Z" fill="white"/>
<path d="M14.5762 62.6673V61.3937L43.4441 51.9125L14.5762 62.6673Z" fill="white"/>
<path d="M14.5762 65.4975V64.2239L43.3026 54.7427L14.5762 65.4975Z" fill="white"/>
<mask id="path-15-outside-1_12347_42762" maskUnits="userSpaceOnUse" x="97.9395" y="27.2058" width="87" height="30" fill="black">
<rect fill="white" x="97.9395" y="27.2058" width="87" height="30"/>
<path d="M122.135 29.0141C122.294 29.3134 122.383 29.5828 122.403 29.8223C122.443 30.0618 122.462 30.411 122.462 30.87V47.4841C122.462 48.8611 122.085 49.6693 121.331 49.9088C120.954 50.0286 120.477 50.0884 119.902 50.0884C119.326 50.0884 118.869 50.0385 118.532 49.9388C118.195 49.839 117.937 49.7192 117.758 49.5795C117.579 49.4398 117.44 49.2403 117.341 48.9808C117.242 48.6416 117.192 48.1227 117.192 47.4242V37.3959C116.696 38.0146 115.971 39.0024 115.018 40.3595C114.066 41.6966 113.46 42.5348 113.202 42.8741C112.944 43.2133 112.765 43.4528 112.666 43.5925C112.567 43.7122 112.319 43.8919 111.922 44.1313C111.545 44.3509 111.128 44.4606 110.671 44.4606C110.234 44.4606 109.828 44.3608 109.45 44.1613C109.093 43.9417 108.835 43.7322 108.676 43.5326L108.438 43.2033C108.041 42.7044 107.257 41.6467 106.086 40.0302C104.914 38.3938 104.279 37.5157 104.18 37.3959V47.4841C104.18 47.9431 104.16 48.2923 104.12 48.5318C104.101 48.7513 104.011 49.0008 103.852 49.2802C103.555 49.819 102.781 50.0884 101.53 50.0884C100.319 50.0884 99.5647 49.819 99.267 49.2802C99.1082 49.0008 99.0089 48.7414 98.9692 48.5019C98.9494 48.2624 98.9395 47.9032 98.9395 47.4242V30.8102C98.9395 30.3512 98.9494 30.0119 98.9692 29.7924C99.0089 29.5529 99.1082 29.2835 99.267 28.9841C99.5647 28.4652 100.339 28.2058 101.59 28.2058C102.125 28.2058 102.582 28.2757 102.959 28.4154C103.356 28.5351 103.614 28.6648 103.733 28.8045L103.912 28.9841L110.671 37.9048C114.046 33.4145 116.299 30.451 117.43 29.0141C117.768 28.4752 118.562 28.2058 119.812 28.2058C121.083 28.2058 121.857 28.4752 122.135 29.0141Z"/>
<path d="M135.031 36.0189C135.151 34.9013 135.935 34.3425 137.384 34.3425C138.158 34.3425 138.734 34.4024 139.111 34.5221C139.488 34.6419 139.746 34.8514 139.885 35.1508C140.044 35.4501 140.133 35.7195 140.153 35.959C140.193 36.1786 140.212 36.5178 140.212 36.9768V47.4541C140.212 47.9131 140.193 48.2624 140.153 48.5019C140.133 48.7214 140.054 48.9808 139.915 49.2802C139.637 49.7991 138.952 50.0585 137.86 50.0585C136.788 50.0585 136.064 49.9288 135.686 49.6693C135.329 49.3899 135.121 48.9908 135.061 48.4719C134.327 49.5296 133.096 50.0585 131.369 50.0585C129.662 50.0585 128.074 49.2702 126.605 47.6936C125.136 46.117 124.401 44.291 124.401 42.2155C124.401 40.12 125.136 38.294 126.605 36.7373C128.094 35.1608 129.721 34.3725 131.488 34.3725C132.163 34.3725 132.778 34.4922 133.334 34.7317C133.89 34.9712 134.277 35.2007 134.495 35.4202C134.714 35.6198 134.892 35.8193 135.031 36.0189ZM129.612 42.2454C129.612 42.904 129.87 43.5027 130.386 44.0415C130.902 44.5604 131.528 44.8198 132.262 44.8198C132.997 44.8198 133.602 44.5504 134.079 44.0116C134.575 43.4728 134.823 42.884 134.823 42.2454C134.823 41.5868 134.585 40.9782 134.108 40.4194C133.652 39.8606 133.026 39.5812 132.232 39.5812C131.458 39.5812 130.823 39.8606 130.327 40.4194C129.85 40.9782 129.612 41.5868 129.612 42.2454Z"/>
<path d="M152.531 48.1426C151.777 49.1405 150.576 49.6394 148.928 49.6394C147.28 49.6394 145.732 48.8811 144.283 47.3643C142.854 45.8277 142.139 44.0415 142.139 42.0059C142.139 39.9703 142.864 38.1842 144.313 36.6475C145.762 35.1109 147.35 34.3425 149.077 34.3425C149.752 34.3425 150.367 34.4722 150.923 34.7317C151.479 34.9712 151.856 35.2007 152.054 35.4202C152.273 35.6198 152.441 35.8093 152.561 35.989C152.62 35.4302 152.819 35.0111 153.156 34.7317C153.513 34.4323 154.079 34.2827 154.853 34.2827C155.628 34.2827 156.193 34.3425 156.551 34.4623C156.908 34.582 157.156 34.7916 157.295 35.0909C157.454 35.3703 157.543 35.6198 157.563 35.8393C157.603 36.0588 157.623 36.3981 157.623 36.8571V49.2503C157.623 51.5453 156.828 53.3913 155.24 54.7883C153.652 56.2052 151.866 56.9137 149.881 56.9137C148.372 56.9137 146.933 56.5445 145.563 55.8061C144.194 55.0677 143.509 54.3991 143.509 53.8004C143.509 53.0221 143.806 52.3336 144.402 51.7349C144.779 51.3158 145.067 51.0264 145.265 50.8668C145.484 50.7071 145.732 50.6273 146.01 50.6273C146.288 50.6273 146.576 50.747 146.873 50.9865C147.826 51.7249 148.858 52.0941 149.97 52.0941C150.724 52.0941 151.34 51.7947 151.816 51.196C152.293 50.5973 152.531 49.8789 152.531 49.0407V48.1426ZM147.231 42.0359C147.231 42.6745 147.479 43.2532 147.975 43.7721C148.491 44.291 149.107 44.5504 149.821 44.5504C150.556 44.5504 151.161 44.291 151.638 43.7721C152.114 43.2333 152.352 42.6545 152.352 42.0359C152.352 41.3973 152.124 40.8085 151.667 40.2697C151.211 39.7109 150.595 39.4315 149.821 39.4315C149.047 39.4315 148.422 39.7009 147.945 40.2398C147.469 40.7786 147.231 41.3773 147.231 42.0359Z"/>
<path d="M175.213 42.2454C175.213 43.0836 175.491 43.7422 176.046 44.2211C176.602 44.6801 177.188 44.9096 177.803 44.9096C178.438 44.9096 179.024 44.73 179.56 44.3708C180.116 43.9916 180.562 43.802 180.9 43.802C181.495 43.802 182.22 44.3309 183.074 45.3886C183.53 45.9674 183.758 46.4862 183.758 46.9452C183.758 47.7036 183.213 48.4121 182.121 49.0706C180.989 49.8689 179.6 50.268 177.952 50.268C176.106 50.268 174.329 49.5995 172.622 48.2624C171.808 47.6238 171.143 46.7756 170.627 45.7179C170.111 44.6402 169.853 43.4628 169.853 42.1855C169.853 40.8884 170.111 39.7209 170.627 38.6831C171.143 37.6254 171.808 36.7773 172.622 36.1386C174.27 34.8215 176.027 34.1629 177.893 34.1629C178.647 34.1629 179.381 34.2727 180.096 34.4922C180.811 34.6918 181.337 34.8913 181.674 35.0909L182.151 35.3903C182.508 35.6297 182.786 35.8193 182.984 35.959C183.5 36.3582 183.758 36.8172 183.758 37.336C183.758 37.835 183.55 38.4037 183.133 39.0424C182.419 40.14 181.734 40.6888 181.079 40.6888C180.701 40.6888 180.165 40.4693 179.471 40.0302C179.113 39.6909 178.597 39.5213 177.922 39.5213C177.267 39.5213 176.652 39.7608 176.076 40.2398C175.501 40.7187 175.213 41.3873 175.213 42.2454Z"/>
</mask>
<path d="M122.135 29.0141C122.294 29.3134 122.383 29.5828 122.403 29.8223C122.443 30.0618 122.462 30.411 122.462 30.87V47.4841C122.462 48.8611 122.085 49.6693 121.331 49.9088C120.954 50.0286 120.477 50.0884 119.902 50.0884C119.326 50.0884 118.869 50.0385 118.532 49.9388C118.195 49.839 117.937 49.7192 117.758 49.5795C117.579 49.4398 117.44 49.2403 117.341 48.9808C117.242 48.6416 117.192 48.1227 117.192 47.4242V37.3959C116.696 38.0146 115.971 39.0024 115.018 40.3595C114.066 41.6966 113.46 42.5348 113.202 42.8741C112.944 43.2133 112.765 43.4528 112.666 43.5925C112.567 43.7122 112.319 43.8919 111.922 44.1313C111.545 44.3509 111.128 44.4606 110.671 44.4606C110.234 44.4606 109.828 44.3608 109.45 44.1613C109.093 43.9417 108.835 43.7322 108.676 43.5326L108.438 43.2033C108.041 42.7044 107.257 41.6467 106.086 40.0302C104.914 38.3938 104.279 37.5157 104.18 37.3959V47.4841C104.18 47.9431 104.16 48.2923 104.12 48.5318C104.101 48.7513 104.011 49.0008 103.852 49.2802C103.555 49.819 102.781 50.0884 101.53 50.0884C100.319 50.0884 99.5647 49.819 99.267 49.2802C99.1082 49.0008 99.0089 48.7414 98.9692 48.5019C98.9494 48.2624 98.9395 47.9032 98.9395 47.4242V30.8102C98.9395 30.3512 98.9494 30.0119 98.9692 29.7924C99.0089 29.5529 99.1082 29.2835 99.267 28.9841C99.5647 28.4652 100.339 28.2058 101.59 28.2058C102.125 28.2058 102.582 28.2757 102.959 28.4154C103.356 28.5351 103.614 28.6648 103.733 28.8045L103.912 28.9841L110.671 37.9048C114.046 33.4145 116.299 30.451 117.43 29.0141C117.768 28.4752 118.562 28.2058 119.812 28.2058C121.083 28.2058 121.857 28.4752 122.135 29.0141Z" fill="white"/>
<path d="M135.031 36.0189C135.151 34.9013 135.935 34.3425 137.384 34.3425C138.158 34.3425 138.734 34.4024 139.111 34.5221C139.488 34.6419 139.746 34.8514 139.885 35.1508C140.044 35.4501 140.133 35.7195 140.153 35.959C140.193 36.1786 140.212 36.5178 140.212 36.9768V47.4541C140.212 47.9131 140.193 48.2624 140.153 48.5019C140.133 48.7214 140.054 48.9808 139.915 49.2802C139.637 49.7991 138.952 50.0585 137.86 50.0585C136.788 50.0585 136.064 49.9288 135.686 49.6693C135.329 49.3899 135.121 48.9908 135.061 48.4719C134.327 49.5296 133.096 50.0585 131.369 50.0585C129.662 50.0585 128.074 49.2702 126.605 47.6936C125.136 46.117 124.401 44.291 124.401 42.2155C124.401 40.12 125.136 38.294 126.605 36.7373C128.094 35.1608 129.721 34.3725 131.488 34.3725C132.163 34.3725 132.778 34.4922 133.334 34.7317C133.89 34.9712 134.277 35.2007 134.495 35.4202C134.714 35.6198 134.892 35.8193 135.031 36.0189ZM129.612 42.2454C129.612 42.904 129.87 43.5027 130.386 44.0415C130.902 44.5604 131.528 44.8198 132.262 44.8198C132.997 44.8198 133.602 44.5504 134.079 44.0116C134.575 43.4728 134.823 42.884 134.823 42.2454C134.823 41.5868 134.585 40.9782 134.108 40.4194C133.652 39.8606 133.026 39.5812 132.232 39.5812C131.458 39.5812 130.823 39.8606 130.327 40.4194C129.85 40.9782 129.612 41.5868 129.612 42.2454Z" fill="white"/>
<path d="M152.531 48.1426C151.777 49.1405 150.576 49.6394 148.928 49.6394C147.28 49.6394 145.732 48.8811 144.283 47.3643C142.854 45.8277 142.139 44.0415 142.139 42.0059C142.139 39.9703 142.864 38.1842 144.313 36.6475C145.762 35.1109 147.35 34.3425 149.077 34.3425C149.752 34.3425 150.367 34.4722 150.923 34.7317C151.479 34.9712 151.856 35.2007 152.054 35.4202C152.273 35.6198 152.441 35.8093 152.561 35.989C152.62 35.4302 152.819 35.0111 153.156 34.7317C153.513 34.4323 154.079 34.2827 154.853 34.2827C155.628 34.2827 156.193 34.3425 156.551 34.4623C156.908 34.582 157.156 34.7916 157.295 35.0909C157.454 35.3703 157.543 35.6198 157.563 35.8393C157.603 36.0588 157.623 36.3981 157.623 36.8571V49.2503C157.623 51.5453 156.828 53.3913 155.24 54.7883C153.652 56.2052 151.866 56.9137 149.881 56.9137C148.372 56.9137 146.933 56.5445 145.563 55.8061C144.194 55.0677 143.509 54.3991 143.509 53.8004C143.509 53.0221 143.806 52.3336 144.402 51.7349C144.779 51.3158 145.067 51.0264 145.265 50.8668C145.484 50.7071 145.732 50.6273 146.01 50.6273C146.288 50.6273 146.576 50.747 146.873 50.9865C147.826 51.7249 148.858 52.0941 149.97 52.0941C150.724 52.0941 151.34 51.7947 151.816 51.196C152.293 50.5973 152.531 49.8789 152.531 49.0407V48.1426ZM147.231 42.0359C147.231 42.6745 147.479 43.2532 147.975 43.7721C148.491 44.291 149.107 44.5504 149.821 44.5504C150.556 44.5504 151.161 44.291 151.638 43.7721C152.114 43.2333 152.352 42.6545 152.352 42.0359C152.352 41.3973 152.124 40.8085 151.667 40.2697C151.211 39.7109 150.595 39.4315 149.821 39.4315C149.047 39.4315 148.422 39.7009 147.945 40.2398C147.469 40.7786 147.231 41.3773 147.231 42.0359Z" fill="white"/>
<path d="M175.213 42.2454C175.213 43.0836 175.491 43.7422 176.046 44.2211C176.602 44.6801 177.188 44.9096 177.803 44.9096C178.438 44.9096 179.024 44.73 179.56 44.3708C180.116 43.9916 180.562 43.802 180.9 43.802C181.495 43.802 182.22 44.3309 183.074 45.3886C183.53 45.9674 183.758 46.4862 183.758 46.9452C183.758 47.7036 183.213 48.4121 182.121 49.0706C180.989 49.8689 179.6 50.268 177.952 50.268C176.106 50.268 174.329 49.5995 172.622 48.2624C171.808 47.6238 171.143 46.7756 170.627 45.7179C170.111 44.6402 169.853 43.4628 169.853 42.1855C169.853 40.8884 170.111 39.7209 170.627 38.6831C171.143 37.6254 171.808 36.7773 172.622 36.1386C174.27 34.8215 176.027 34.1629 177.893 34.1629C178.647 34.1629 179.381 34.2727 180.096 34.4922C180.811 34.6918 181.337 34.8913 181.674 35.0909L182.151 35.3903C182.508 35.6297 182.786 35.8193 182.984 35.959C183.5 36.3582 183.758 36.8172 183.758 37.336C183.758 37.835 183.55 38.4037 183.133 39.0424C182.419 40.14 181.734 40.6888 181.079 40.6888C180.701 40.6888 180.165 40.4693 179.471 40.0302C179.113 39.6909 178.597 39.5213 177.922 39.5213C177.267 39.5213 176.652 39.7608 176.076 40.2398C175.501 40.7187 175.213 41.3873 175.213 42.2454Z" fill="white"/>
<path d="M122.135 29.0141C122.294 29.3134 122.383 29.5828 122.403 29.8223C122.443 30.0618 122.462 30.411 122.462 30.87V47.4841C122.462 48.8611 122.085 49.6693 121.331 49.9088C120.954 50.0286 120.477 50.0884 119.902 50.0884C119.326 50.0884 118.869 50.0385 118.532 49.9388C118.195 49.839 117.937 49.7192 117.758 49.5795C117.579 49.4398 117.44 49.2403 117.341 48.9808C117.242 48.6416 117.192 48.1227 117.192 47.4242V37.3959C116.696 38.0146 115.971 39.0024 115.018 40.3595C114.066 41.6966 113.46 42.5348 113.202 42.8741C112.944 43.2133 112.765 43.4528 112.666 43.5925C112.567 43.7122 112.319 43.8919 111.922 44.1313C111.545 44.3509 111.128 44.4606 110.671 44.4606C110.234 44.4606 109.828 44.3608 109.45 44.1613C109.093 43.9417 108.835 43.7322 108.676 43.5326L108.438 43.2033C108.041 42.7044 107.257 41.6467 106.086 40.0302C104.914 38.3938 104.279 37.5157 104.18 37.3959V47.4841C104.18 47.9431 104.16 48.2923 104.12 48.5318C104.101 48.7513 104.011 49.0008 103.852 49.2802C103.555 49.819 102.781 50.0884 101.53 50.0884C100.319 50.0884 99.5647 49.819 99.267 49.2802C99.1082 49.0008 99.0089 48.7414 98.9692 48.5019C98.9494 48.2624 98.9395 47.9032 98.9395 47.4242V30.8102C98.9395 30.3512 98.9494 30.0119 98.9692 29.7924C99.0089 29.5529 99.1082 29.2835 99.267 28.9841C99.5647 28.4652 100.339 28.2058 101.59 28.2058C102.125 28.2058 102.582 28.2757 102.959 28.4154C103.356 28.5351 103.614 28.6648 103.733 28.8045L103.912 28.9841L110.671 37.9048C114.046 33.4145 116.299 30.451 117.43 29.0141C117.768 28.4752 118.562 28.2058 119.812 28.2058C121.083 28.2058 121.857 28.4752 122.135 29.0141Z" stroke="url(#paint0_linear_12347_42762)" stroke-width="0.4" mask="url(#path-15-outside-1_12347_42762)"/>
<path d="M135.031 36.0189C135.151 34.9013 135.935 34.3425 137.384 34.3425C138.158 34.3425 138.734 34.4024 139.111 34.5221C139.488 34.6419 139.746 34.8514 139.885 35.1508C140.044 35.4501 140.133 35.7195 140.153 35.959C140.193 36.1786 140.212 36.5178 140.212 36.9768V47.4541C140.212 47.9131 140.193 48.2624 140.153 48.5019C140.133 48.7214 140.054 48.9808 139.915 49.2802C139.637 49.7991 138.952 50.0585 137.86 50.0585C136.788 50.0585 136.064 49.9288 135.686 49.6693C135.329 49.3899 135.121 48.9908 135.061 48.4719C134.327 49.5296 133.096 50.0585 131.369 50.0585C129.662 50.0585 128.074 49.2702 126.605 47.6936C125.136 46.117 124.401 44.291 124.401 42.2155C124.401 40.12 125.136 38.294 126.605 36.7373C128.094 35.1608 129.721 34.3725 131.488 34.3725C132.163 34.3725 132.778 34.4922 133.334 34.7317C133.89 34.9712 134.277 35.2007 134.495 35.4202C134.714 35.6198 134.892 35.8193 135.031 36.0189ZM129.612 42.2454C129.612 42.904 129.87 43.5027 130.386 44.0415C130.902 44.5604 131.528 44.8198 132.262 44.8198C132.997 44.8198 133.602 44.5504 134.079 44.0116C134.575 43.4728 134.823 42.884 134.823 42.2454C134.823 41.5868 134.585 40.9782 134.108 40.4194C133.652 39.8606 133.026 39.5812 132.232 39.5812C131.458 39.5812 130.823 39.8606 130.327 40.4194C129.85 40.9782 129.612 41.5868 129.612 42.2454Z" stroke="url(#paint1_linear_12347_42762)" stroke-width="0.4" mask="url(#path-15-outside-1_12347_42762)"/>
<path d="M152.531 48.1426C151.777 49.1405 150.576 49.6394 148.928 49.6394C147.28 49.6394 145.732 48.8811 144.283 47.3643C142.854 45.8277 142.139 44.0415 142.139 42.0059C142.139 39.9703 142.864 38.1842 144.313 36.6475C145.762 35.1109 147.35 34.3425 149.077 34.3425C149.752 34.3425 150.367 34.4722 150.923 34.7317C151.479 34.9712 151.856 35.2007 152.054 35.4202C152.273 35.6198 152.441 35.8093 152.561 35.989C152.62 35.4302 152.819 35.0111 153.156 34.7317C153.513 34.4323 154.079 34.2827 154.853 34.2827C155.628 34.2827 156.193 34.3425 156.551 34.4623C156.908 34.582 157.156 34.7916 157.295 35.0909C157.454 35.3703 157.543 35.6198 157.563 35.8393C157.603 36.0588 157.623 36.3981 157.623 36.8571V49.2503C157.623 51.5453 156.828 53.3913 155.24 54.7883C153.652 56.2052 151.866 56.9137 149.881 56.9137C148.372 56.9137 146.933 56.5445 145.563 55.8061C144.194 55.0677 143.509 54.3991 143.509 53.8004C143.509 53.0221 143.806 52.3336 144.402 51.7349C144.779 51.3158 145.067 51.0264 145.265 50.8668C145.484 50.7071 145.732 50.6273 146.01 50.6273C146.288 50.6273 146.576 50.747 146.873 50.9865C147.826 51.7249 148.858 52.0941 149.97 52.0941C150.724 52.0941 151.34 51.7947 151.816 51.196C152.293 50.5973 152.531 49.8789 152.531 49.0407V48.1426ZM147.231 42.0359C147.231 42.6745 147.479 43.2532 147.975 43.7721C148.491 44.291 149.107 44.5504 149.821 44.5504C150.556 44.5504 151.161 44.291 151.638 43.7721C152.114 43.2333 152.352 42.6545 152.352 42.0359C152.352 41.3973 152.124 40.8085 151.667 40.2697C151.211 39.7109 150.595 39.4315 149.821 39.4315C149.047 39.4315 148.422 39.7009 147.945 40.2398C147.469 40.7786 147.231 41.3773 147.231 42.0359Z" stroke="url(#paint2_linear_12347_42762)" stroke-width="0.4" mask="url(#path-15-outside-1_12347_42762)"/>
<path d="M175.213 42.2454C175.213 43.0836 175.491 43.7422 176.046 44.2211C176.602 44.6801 177.188 44.9096 177.803 44.9096C178.438 44.9096 179.024 44.73 179.56 44.3708C180.116 43.9916 180.562 43.802 180.9 43.802C181.495 43.802 182.22 44.3309 183.074 45.3886C183.53 45.9674 183.758 46.4862 183.758 46.9452C183.758 47.7036 183.213 48.4121 182.121 49.0706C180.989 49.8689 179.6 50.268 177.952 50.268C176.106 50.268 174.329 49.5995 172.622 48.2624C171.808 47.6238 171.143 46.7756 170.627 45.7179C170.111 44.6402 169.853 43.4628 169.853 42.1855C169.853 40.8884 170.111 39.7209 170.627 38.6831C171.143 37.6254 171.808 36.7773 172.622 36.1386C174.27 34.8215 176.027 34.1629 177.893 34.1629C178.647 34.1629 179.381 34.2727 180.096 34.4922C180.811 34.6918 181.337 34.8913 181.674 35.0909L182.151 35.3903C182.508 35.6297 182.786 35.8193 182.984 35.959C183.5 36.3582 183.758 36.8172 183.758 37.336C183.758 37.835 183.55 38.4037 183.133 39.0424C182.419 40.14 181.734 40.6888 181.079 40.6888C180.701 40.6888 180.165 40.4693 179.471 40.0302C179.113 39.6909 178.597 39.5213 177.922 39.5213C177.267 39.5213 176.652 39.7608 176.076 40.2398C175.501 40.7187 175.213 41.3873 175.213 42.2454Z" stroke="url(#paint3_linear_12347_42762)" stroke-width="0.4" mask="url(#path-15-outside-1_12347_42762)"/>
<path d="M165.147 34.174C166.097 34.2946 166.776 34.551 167.153 34.964C167.477 35.3095 167.604 35.7873 167.551 36.3799L167.552 36.38C167.547 36.5855 167.52 36.8778 167.473 37.2549L166.168 47.6499C166.111 48.1019 166.046 48.4493 165.975 48.6896L165.976 48.6907C165.925 48.9232 165.797 49.1804 165.599 49.4618L165.6 49.4629C165.42 49.7334 165.114 49.9043 164.703 49.9881C164.293 50.0717 163.768 50.0712 163.132 49.9905C162.506 49.9111 162.002 49.7785 161.625 49.5897C161.248 49.4005 160.992 49.1509 160.877 48.8352L160.875 48.8311C160.773 48.512 160.715 48.2343 160.702 47.9999L160.701 47.991L160.702 47.9901C160.71 47.765 160.744 47.4136 160.804 46.9389L162.112 36.5148C162.169 36.0589 162.222 35.7192 162.27 35.4993L162.271 35.4925C162.343 35.2488 162.471 34.9843 162.649 34.6998L162.652 34.6943C162.842 34.4271 163.154 34.2577 163.569 34.1747C163.984 34.0918 164.511 34.0934 165.147 34.174Z" fill="white" stroke="url(#paint4_linear_12347_42762)" stroke-width="0.2"/>
<path d="M168.144 26.6171C168.143 27.3595 168.248 27.9691 168.511 28.4834C168.776 29.0024 169.2 29.4182 169.825 29.7768C169.199 29.7783 168.662 29.8469 168.163 30.0828C167.651 30.3251 167.186 30.7416 166.707 31.4287C166.756 30.7953 166.665 30.2124 166.396 29.6943C166.129 29.1783 165.689 28.7313 165.05 28.3626C165.744 28.4075 166.349 28.2994 166.865 28.0161C167.386 27.7296 167.81 27.2669 168.144 26.6171Z" fill="#FFC760" stroke="url(#paint5_linear_12347_42762)" stroke-width="0.1"/>
<path d="M162.715 28.3972C163.434 28.3973 164.018 28.9838 164.019 29.7078C164.019 30.4319 163.434 31.0183 162.715 31.0183C161.995 31.0183 161.411 30.4319 161.411 29.7078C161.411 28.9838 161.995 28.3972 162.715 28.3972Z" fill="#FFC760" stroke="url(#paint6_linear_12347_42762)" stroke-width="0.1"/>
<path d="M165.422 22.9545C166.141 22.9545 166.725 23.5411 166.726 24.265C166.726 24.9891 166.141 25.5755 165.422 25.5756C164.702 25.5756 164.118 24.9891 164.118 24.265C164.118 23.541 164.702 22.9545 165.422 22.9545Z" fill="#FFC760" stroke="url(#paint7_linear_12347_42762)" stroke-width="0.1"/>
<mask id="path-20-outside-2_12347_42762" maskUnits="userSpaceOnUse" x="98.2754" y="59.7208" width="86" height="15" fill="black">
<rect fill="white" x="98.2754" y="59.7208" width="86" height="15"/>
<path d="M99.6246 69.3888C99.3918 69.1008 99.2754 68.8442 99.2754 68.6192C99.2754 68.3852 99.4679 68.0791 99.8529 67.7011C100.077 67.4851 100.314 67.3771 100.565 67.3771C100.815 67.3771 101.164 67.6021 101.612 68.0521C101.737 68.2052 101.917 68.3537 102.149 68.4977C102.382 68.6327 102.597 68.7002 102.794 68.7002C103.627 68.7002 104.043 68.3582 104.043 67.6741C104.043 67.4671 103.927 67.2961 103.694 67.161C103.47 67.017 103.188 66.9135 102.848 66.8505C102.507 66.7875 102.14 66.6885 101.746 66.5535C101.353 66.4095 100.985 66.2429 100.645 66.0539C100.305 65.8649 100.018 65.5679 99.7857 65.1628C99.5619 64.7488 99.45 64.2537 99.45 63.6777C99.45 62.8856 99.741 62.197 100.323 61.6119C100.914 61.0179 101.715 60.7208 102.727 60.7208C103.264 60.7208 103.752 60.7928 104.191 60.9368C104.638 61.0719 104.947 61.2114 105.117 61.3554L105.453 61.6119C105.731 61.873 105.869 62.0935 105.869 62.2735C105.869 62.4535 105.762 62.701 105.547 63.0161C105.243 63.4661 104.929 63.6912 104.607 63.6912C104.419 63.6912 104.186 63.6011 103.909 63.4211C103.882 63.4031 103.828 63.3581 103.747 63.2861C103.676 63.2141 103.609 63.1556 103.546 63.1106C103.358 62.9936 103.116 62.9351 102.821 62.9351C102.534 62.9351 102.293 63.0071 102.096 63.1511C101.908 63.2861 101.814 63.4796 101.814 63.7317C101.814 63.9747 101.926 64.1727 102.149 64.3257C102.382 64.4787 102.669 64.5823 103.009 64.6363C103.349 64.6903 103.721 64.7758 104.124 64.8928C104.526 65.0008 104.898 65.1358 105.238 65.2978C105.578 65.4598 105.86 65.7434 106.084 66.1484C106.317 66.5445 106.433 67.035 106.433 67.6201C106.433 68.2052 106.317 68.7227 106.084 69.1728C105.851 69.6138 105.547 69.9558 105.171 70.1989C104.446 70.6759 103.671 70.9145 102.848 70.9145C102.427 70.9145 102.028 70.8649 101.652 70.7659C101.276 70.6579 100.972 70.5274 100.739 70.3744C100.265 70.0864 99.9334 69.8073 99.7454 69.5373L99.6246 69.3888Z"/>
<path d="M111.154 66.0539L110.281 65.9999V67.8631C110.281 68.1061 110.317 68.2817 110.388 68.3897C110.469 68.4977 110.612 68.5517 110.818 68.5517C111.033 68.5517 111.194 68.5607 111.301 68.5787C111.418 68.5877 111.539 68.6282 111.664 68.7002C111.87 68.8172 111.973 69.1188 111.973 69.6048C111.973 70.1719 111.847 70.5184 111.597 70.6444C111.463 70.7074 111.342 70.7479 111.234 70.7659C111.136 70.7749 110.988 70.7794 110.791 70.7794C109.86 70.7794 109.153 70.5679 108.669 70.1449C108.186 69.7218 107.944 69.0062 107.944 67.9981V65.9999C107.774 66.0269 107.59 66.0404 107.393 66.0404C107.196 66.0404 107.031 65.9639 106.896 65.8109C106.771 65.6579 106.708 65.3968 106.708 65.0278C106.708 64.6588 106.731 64.3932 106.776 64.2312C106.82 64.0602 106.883 63.9387 106.964 63.8667C107.107 63.7497 107.286 63.6912 107.501 63.6912L107.944 63.7452V62.3545C107.944 62.1475 107.948 61.9945 107.957 61.8955C107.975 61.7964 108.02 61.6884 108.092 61.5714C108.208 61.3464 108.553 61.2339 109.126 61.2339C109.735 61.2339 110.097 61.4004 110.214 61.7334C110.258 61.8775 110.281 62.107 110.281 62.422V63.7452C110.675 63.7092 110.97 63.6912 111.167 63.6912C111.373 63.6912 111.525 63.7002 111.624 63.7182C111.731 63.7272 111.852 63.7677 111.986 63.8397C112.219 63.9567 112.335 64.3032 112.335 64.8793C112.335 65.4463 112.215 65.7929 111.973 65.9189C111.839 65.9819 111.718 66.0224 111.61 66.0404C111.512 66.0494 111.36 66.0539 111.154 66.0539Z"/>
<path d="M112.876 67.2285C112.876 66.1484 113.252 65.2573 114.004 64.5552C114.756 63.8532 115.615 63.5021 116.582 63.5021C117.549 63.5021 118.404 63.8532 119.147 64.5552C119.89 65.2483 120.262 66.1349 120.262 67.215C120.262 67.9621 120.069 68.6282 119.684 69.2133C119.299 69.7893 118.829 70.2169 118.274 70.4959C117.728 70.7659 117.16 70.901 116.569 70.901C115.978 70.901 115.405 70.7569 114.85 70.4689C114.295 70.1719 113.825 69.7398 113.44 69.1728C113.064 68.5967 112.876 67.9486 112.876 67.2285ZM115.682 68.2007C115.969 68.4167 116.26 68.5247 116.555 68.5247C116.851 68.5247 117.146 68.4122 117.442 68.1872C117.737 67.9621 117.885 67.6291 117.885 67.188C117.885 66.747 117.746 66.4185 117.469 66.2024C117.191 65.9864 116.891 65.8784 116.569 65.8784C116.246 65.8784 115.946 65.9909 115.669 66.2159C115.391 66.441 115.253 66.774 115.253 67.215C115.253 67.6471 115.396 67.9756 115.682 68.2007Z"/>
<path d="M125.937 63.7452C126.107 63.7992 126.246 63.8937 126.354 64.0287C126.47 64.1547 126.528 64.3617 126.528 64.6498C126.528 64.9378 126.443 65.2528 126.273 65.5949C126.103 65.9369 125.857 66.1079 125.535 66.1079C125.373 66.1079 125.217 66.0719 125.064 65.9999C124.921 65.9279 124.729 65.8919 124.487 65.8919C124.245 65.8919 124.017 65.9774 123.802 66.1484C123.596 66.3194 123.493 66.5265 123.493 66.7695V69.6048C123.493 69.8118 123.484 69.9693 123.466 70.0774C123.457 70.1764 123.417 70.2934 123.345 70.4284C123.211 70.6624 122.862 70.7794 122.298 70.7794C121.868 70.7794 121.559 70.7029 121.371 70.5499C121.228 70.4239 121.147 70.2304 121.13 69.9693C121.13 69.8793 121.13 69.7488 121.13 69.5778V64.8388C121.13 64.6318 121.134 64.4787 121.143 64.3797C121.161 64.2717 121.201 64.1547 121.264 64.0287C121.389 63.7857 121.738 63.6642 122.311 63.6642C122.849 63.6642 123.184 63.7677 123.319 63.9747C123.417 64.1187 123.466 64.2672 123.466 64.4202C123.511 64.3572 123.574 64.2807 123.654 64.1907C123.744 64.1007 123.927 63.9792 124.205 63.8262C124.483 63.6732 124.724 63.5966 124.93 63.5966C125.145 63.5966 125.324 63.6101 125.467 63.6371C125.611 63.6552 125.767 63.6912 125.937 63.7452Z"/>
<path d="M133.848 63.7452C134.376 63.9792 134.64 64.2627 134.64 64.5958C134.64 64.7578 134.604 64.9108 134.533 65.0548C134.461 65.1988 134.425 65.2753 134.425 65.2843L130.907 73.1962C130.835 73.3672 130.772 73.4977 130.719 73.5877C130.674 73.6778 130.598 73.7633 130.49 73.8443C130.383 73.9253 130.249 73.9658 130.088 73.9658C129.926 73.9658 129.689 73.8983 129.376 73.7633C128.848 73.5292 128.583 73.2502 128.583 72.9262C128.583 72.7102 129.013 71.6795 129.873 69.8343L127.2 65.3113C127.021 65.0143 126.932 64.7938 126.932 64.6498C126.932 64.3617 127.173 64.0737 127.657 63.7857C127.961 63.6056 128.198 63.5156 128.369 63.5156C128.539 63.5156 128.677 63.5516 128.785 63.6236C128.892 63.6957 128.968 63.7722 129.013 63.8532C129.067 63.9252 129.313 64.3437 129.752 65.1088C130.199 65.8649 130.625 66.5715 131.028 67.2285C131.072 67.0845 131.314 66.531 131.753 65.5679C132.192 64.5958 132.424 64.0782 132.451 64.0152C132.487 63.9522 132.541 63.8757 132.612 63.7857C132.729 63.6326 132.89 63.5561 133.096 63.5561C133.311 63.5561 133.561 63.6191 133.848 63.7452Z"/>
<path d="M144.92 68.1872L145.162 68.0116C145.466 67.8316 145.681 67.7416 145.806 67.7416C146.084 67.7416 146.384 67.9936 146.706 68.4977C146.903 68.8127 147.002 69.0647 147.002 69.2538C147.002 69.4428 146.939 69.6003 146.814 69.7263C146.697 69.8523 146.558 69.9648 146.397 70.0639C146.236 70.1629 146.079 70.2574 145.927 70.3474C145.784 70.4374 145.484 70.5544 145.027 70.6984C144.571 70.8424 144.128 70.9145 143.698 70.9145C143.277 70.9145 142.847 70.8604 142.409 70.7524C141.979 70.6354 141.531 70.4464 141.066 70.1854C140.609 69.9153 140.197 69.5913 139.83 69.2133C139.463 68.8262 139.159 68.3357 138.917 67.7416C138.684 67.1385 138.568 66.486 138.568 65.7839C138.568 65.0818 138.684 64.4472 138.917 63.8802C139.15 63.3041 139.445 62.8316 139.803 62.4625C140.17 62.0845 140.587 61.7694 141.052 61.5174C141.93 61.0314 142.811 60.7883 143.698 60.7883C144.119 60.7883 144.544 60.8558 144.974 60.9909C145.412 61.1169 145.744 61.2474 145.967 61.3824L146.29 61.5714C146.451 61.6704 146.576 61.7514 146.666 61.8144C146.899 62.0035 147.015 62.2195 147.015 62.4625C147.015 62.6965 146.921 62.9441 146.733 63.2051C146.384 63.6912 146.07 63.9342 145.793 63.9342C145.632 63.9342 145.403 63.8352 145.108 63.6371C144.732 63.3311 144.231 63.1781 143.604 63.1781C143.022 63.1781 142.449 63.3806 141.885 63.7857C141.616 63.9837 141.392 64.2627 141.213 64.6228C141.034 64.9828 140.945 65.3923 140.945 65.8514C140.945 66.3014 141.034 66.7065 141.213 67.0665C141.392 67.4266 141.621 67.7101 141.898 67.9171C142.444 68.3132 143.013 68.5112 143.604 68.5112C143.881 68.5112 144.141 68.4752 144.383 68.4032C144.633 68.3312 144.812 68.2592 144.92 68.1872Z"/>
<path d="M147.683 67.2285C147.683 66.1484 148.059 65.2573 148.811 64.5552C149.563 63.8532 150.422 63.5021 151.389 63.5021C152.356 63.5021 153.211 63.8532 153.954 64.5552C154.697 65.2483 155.069 66.1349 155.069 67.215C155.069 67.9621 154.876 68.6282 154.491 69.2133C154.106 69.7893 153.636 70.2169 153.081 70.4959C152.535 70.7659 151.967 70.901 151.376 70.901C150.785 70.901 150.212 70.7569 149.657 70.4689C149.102 70.1719 148.632 69.7398 148.247 69.1728C147.871 68.5967 147.683 67.9486 147.683 67.2285ZM150.489 68.2007C150.776 68.4167 151.067 68.5247 151.362 68.5247C151.658 68.5247 151.953 68.4122 152.249 68.1872C152.544 67.9621 152.692 67.6291 152.692 67.188C152.692 66.747 152.553 66.4185 152.276 66.2024C151.998 65.9864 151.698 65.8784 151.376 65.8784C151.053 65.8784 150.753 65.9909 150.476 66.2159C150.198 66.441 150.06 66.774 150.06 67.215C150.06 67.6471 150.203 67.9756 150.489 68.2007Z"/>
<path d="M160.744 63.7452C160.914 63.7992 161.053 63.8937 161.161 64.0287C161.277 64.1547 161.335 64.3617 161.335 64.6498C161.335 64.9378 161.25 65.2528 161.08 65.5949C160.91 65.9369 160.664 66.1079 160.341 66.1079C160.18 66.1079 160.024 66.0719 159.871 65.9999C159.728 65.9279 159.536 65.8919 159.294 65.8919C159.052 65.8919 158.824 65.9774 158.609 66.1484C158.403 66.3194 158.3 66.5265 158.3 66.7695V69.6048C158.3 69.8118 158.291 69.9693 158.273 70.0774C158.264 70.1764 158.224 70.2934 158.152 70.4284C158.018 70.6624 157.669 70.7794 157.105 70.7794C156.675 70.7794 156.366 70.7029 156.178 70.5499C156.035 70.4239 155.954 70.2304 155.937 69.9693C155.937 69.8793 155.937 69.7488 155.937 69.5778V64.8388C155.937 64.6318 155.941 64.4787 155.95 64.3797C155.968 64.2717 156.008 64.1547 156.071 64.0287C156.196 63.7857 156.545 63.6642 157.118 63.6642C157.656 63.6642 157.991 63.7677 158.126 63.9747C158.224 64.1187 158.273 64.2672 158.273 64.4202C158.318 64.3572 158.381 64.2807 158.461 64.1907C158.551 64.1007 158.734 63.9792 159.012 63.8262C159.289 63.6732 159.531 63.5966 159.737 63.5966C159.952 63.5966 160.131 63.6101 160.274 63.6371C160.418 63.6552 160.574 63.6912 160.744 63.7452Z"/>
<path d="M166.009 63.6642C166.905 63.6642 167.648 64.0107 168.239 64.7038C168.838 65.3878 169.138 66.2249 169.138 67.215V69.5913C169.138 69.7983 169.129 69.9558 169.111 70.0639C169.103 70.1629 169.067 70.2754 169.004 70.4014C168.879 70.6444 168.53 70.7659 167.957 70.7659C167.321 70.7659 166.954 70.5994 166.855 70.2664C166.802 70.1134 166.775 69.8838 166.775 69.5778V67.2015C166.775 66.8325 166.667 66.5445 166.452 66.3374C166.246 66.1304 165.964 66.0269 165.606 66.0269C165.257 66.0269 164.971 66.1349 164.747 66.3509C164.532 66.567 164.425 66.8505 164.425 67.2015V69.5913C164.425 69.7983 164.416 69.9558 164.398 70.0639C164.389 70.1629 164.348 70.2754 164.277 70.4014C164.16 70.6444 163.816 70.7659 163.243 70.7659C162.679 70.7659 162.334 70.6444 162.209 70.4014C162.146 70.2664 162.106 70.1494 162.088 70.0504C162.079 69.9423 162.074 69.7848 162.074 69.5778V64.7983C162.074 64.6003 162.079 64.4517 162.088 64.3527C162.106 64.2447 162.15 64.1277 162.222 64.0017C162.347 63.7767 162.692 63.6642 163.256 63.6642C163.802 63.6642 164.138 63.7677 164.263 63.9747C164.353 64.1277 164.398 64.3122 164.398 64.5282C164.433 64.4652 164.514 64.3752 164.639 64.2582C164.765 64.1412 164.886 64.0467 165.002 63.9747C165.306 63.7677 165.642 63.6642 166.009 63.6642Z"/>
<path d="M177.041 66.378C177.041 66.927 176.902 67.3366 176.625 67.6066C176.356 67.8676 176.056 67.9981 175.725 67.9981H172.542C172.542 68.2502 172.69 68.4617 172.985 68.6327C173.281 68.8037 173.576 68.8892 173.872 68.8892C174.391 68.8892 174.798 68.8352 175.094 68.7272L175.241 68.6732C175.456 68.5742 175.635 68.5247 175.779 68.5247C176.065 68.5247 176.311 68.7272 176.517 69.1323C176.634 69.3753 176.692 69.5823 176.692 69.7533C176.692 70.5544 175.738 70.955 173.831 70.955C173.169 70.955 172.578 70.8424 172.059 70.6174C171.548 70.3834 171.15 70.0774 170.863 69.6993C170.299 68.9702 170.017 68.1556 170.017 67.2555C170.017 66.1214 170.38 65.2168 171.105 64.5417C171.839 63.8577 172.752 63.5156 173.845 63.5156C175.089 63.5156 176.002 63.9567 176.584 64.8388C176.889 65.3068 177.041 65.8199 177.041 66.378ZM174.207 66.7695C174.548 66.7695 174.718 66.6255 174.718 66.3374C174.718 66.1304 174.637 65.9639 174.476 65.8379C174.324 65.7119 174.1 65.6489 173.804 65.6489C173.518 65.6489 173.231 65.7704 172.945 66.0134C172.658 66.2474 172.515 66.4995 172.515 66.7695H174.207Z"/>
<path d="M182.725 63.7452C182.895 63.7992 183.034 63.8937 183.141 64.0287C183.258 64.1547 183.316 64.3617 183.316 64.6498C183.316 64.9378 183.231 65.2528 183.061 65.5949C182.891 65.9369 182.644 66.1079 182.322 66.1079C182.161 66.1079 182.004 66.0719 181.852 65.9999C181.709 65.9279 181.516 65.8919 181.275 65.8919C181.033 65.8919 180.805 65.9774 180.59 66.1484C180.384 66.3194 180.281 66.5265 180.281 66.7695V69.6048C180.281 69.8118 180.272 69.9693 180.254 70.0774C180.245 70.1764 180.205 70.2934 180.133 70.4284C179.999 70.6624 179.65 70.7794 179.086 70.7794C178.656 70.7794 178.347 70.7029 178.159 70.5499C178.016 70.4239 177.935 70.2304 177.917 69.9693C177.917 69.8793 177.917 69.7488 177.917 69.5778V64.8388C177.917 64.6318 177.922 64.4787 177.931 64.3797C177.948 64.2717 177.989 64.1547 178.051 64.0287C178.177 63.7857 178.526 63.6642 179.099 63.6642C179.636 63.6642 179.972 63.7677 180.106 63.9747C180.205 64.1187 180.254 64.2672 180.254 64.4202C180.299 64.3572 180.361 64.2807 180.442 64.1907C180.531 64.1007 180.715 63.9792 180.993 63.8262C181.27 63.6732 181.512 63.5966 181.718 63.5966C181.933 63.5966 182.112 63.6101 182.255 63.6371C182.398 63.6552 182.555 63.6912 182.725 63.7452Z"/>
</mask>
<path d="M99.6246 69.3888C99.3918 69.1008 99.2754 68.8442 99.2754 68.6192C99.2754 68.3852 99.4679 68.0791 99.8529 67.7011C100.077 67.4851 100.314 67.3771 100.565 67.3771C100.815 67.3771 101.164 67.6021 101.612 68.0521C101.737 68.2052 101.917 68.3537 102.149 68.4977C102.382 68.6327 102.597 68.7002 102.794 68.7002C103.627 68.7002 104.043 68.3582 104.043 67.6741C104.043 67.4671 103.927 67.2961 103.694 67.161C103.47 67.017 103.188 66.9135 102.848 66.8505C102.507 66.7875 102.14 66.6885 101.746 66.5535C101.353 66.4095 100.985 66.2429 100.645 66.0539C100.305 65.8649 100.018 65.5679 99.7857 65.1628C99.5619 64.7488 99.45 64.2537 99.45 63.6777C99.45 62.8856 99.741 62.197 100.323 61.6119C100.914 61.0179 101.715 60.7208 102.727 60.7208C103.264 60.7208 103.752 60.7928 104.191 60.9368C104.638 61.0719 104.947 61.2114 105.117 61.3554L105.453 61.6119C105.731 61.873 105.869 62.0935 105.869 62.2735C105.869 62.4535 105.762 62.701 105.547 63.0161C105.243 63.4661 104.929 63.6912 104.607 63.6912C104.419 63.6912 104.186 63.6011 103.909 63.4211C103.882 63.4031 103.828 63.3581 103.747 63.2861C103.676 63.2141 103.609 63.1556 103.546 63.1106C103.358 62.9936 103.116 62.9351 102.821 62.9351C102.534 62.9351 102.293 63.0071 102.096 63.1511C101.908 63.2861 101.814 63.4796 101.814 63.7317C101.814 63.9747 101.926 64.1727 102.149 64.3257C102.382 64.4787 102.669 64.5823 103.009 64.6363C103.349 64.6903 103.721 64.7758 104.124 64.8928C104.526 65.0008 104.898 65.1358 105.238 65.2978C105.578 65.4598 105.86 65.7434 106.084 66.1484C106.317 66.5445 106.433 67.035 106.433 67.6201C106.433 68.2052 106.317 68.7227 106.084 69.1728C105.851 69.6138 105.547 69.9558 105.171 70.1989C104.446 70.6759 103.671 70.9145 102.848 70.9145C102.427 70.9145 102.028 70.8649 101.652 70.7659C101.276 70.6579 100.972 70.5274 100.739 70.3744C100.265 70.0864 99.9334 69.8073 99.7454 69.5373L99.6246 69.3888Z" fill="white"/>
<path d="M111.154 66.0539L110.281 65.9999V67.8631C110.281 68.1061 110.317 68.2817 110.388 68.3897C110.469 68.4977 110.612 68.5517 110.818 68.5517C111.033 68.5517 111.194 68.5607 111.301 68.5787C111.418 68.5877 111.539 68.6282 111.664 68.7002C111.87 68.8172 111.973 69.1188 111.973 69.6048C111.973 70.1719 111.847 70.5184 111.597 70.6444C111.463 70.7074 111.342 70.7479 111.234 70.7659C111.136 70.7749 110.988 70.7794 110.791 70.7794C109.86 70.7794 109.153 70.5679 108.669 70.1449C108.186 69.7218 107.944 69.0062 107.944 67.9981V65.9999C107.774 66.0269 107.59 66.0404 107.393 66.0404C107.196 66.0404 107.031 65.9639 106.896 65.8109C106.771 65.6579 106.708 65.3968 106.708 65.0278C106.708 64.6588 106.731 64.3932 106.776 64.2312C106.82 64.0602 106.883 63.9387 106.964 63.8667C107.107 63.7497 107.286 63.6912 107.501 63.6912L107.944 63.7452V62.3545C107.944 62.1475 107.948 61.9945 107.957 61.8955C107.975 61.7964 108.02 61.6884 108.092 61.5714C108.208 61.3464 108.553 61.2339 109.126 61.2339C109.735 61.2339 110.097 61.4004 110.214 61.7334C110.258 61.8775 110.281 62.107 110.281 62.422V63.7452C110.675 63.7092 110.97 63.6912 111.167 63.6912C111.373 63.6912 111.525 63.7002 111.624 63.7182C111.731 63.7272 111.852 63.7677 111.986 63.8397C112.219 63.9567 112.335 64.3032 112.335 64.8793C112.335 65.4463 112.215 65.7929 111.973 65.9189C111.839 65.9819 111.718 66.0224 111.61 66.0404C111.512 66.0494 111.36 66.0539 111.154 66.0539Z" fill="white"/>
<path d="M112.876 67.2285C112.876 66.1484 113.252 65.2573 114.004 64.5552C114.756 63.8532 115.615 63.5021 116.582 63.5021C117.549 63.5021 118.404 63.8532 119.147 64.5552C119.89 65.2483 120.262 66.1349 120.262 67.215C120.262 67.9621 120.069 68.6282 119.684 69.2133C119.299 69.7893 118.829 70.2169 118.274 70.4959C117.728 70.7659 117.16 70.901 116.569 70.901C115.978 70.901 115.405 70.7569 114.85 70.4689C114.295 70.1719 113.825 69.7398 113.44 69.1728C113.064 68.5967 112.876 67.9486 112.876 67.2285ZM115.682 68.2007C115.969 68.4167 116.26 68.5247 116.555 68.5247C116.851 68.5247 117.146 68.4122 117.442 68.1872C117.737 67.9621 117.885 67.6291 117.885 67.188C117.885 66.747 117.746 66.4185 117.469 66.2024C117.191 65.9864 116.891 65.8784 116.569 65.8784C116.246 65.8784 115.946 65.9909 115.669 66.2159C115.391 66.441 115.253 66.774 115.253 67.215C115.253 67.6471 115.396 67.9756 115.682 68.2007Z" fill="white"/>
<path d="M125.937 63.7452C126.107 63.7992 126.246 63.8937 126.354 64.0287C126.47 64.1547 126.528 64.3617 126.528 64.6498C126.528 64.9378 126.443 65.2528 126.273 65.5949C126.103 65.9369 125.857 66.1079 125.535 66.1079C125.373 66.1079 125.217 66.0719 125.064 65.9999C124.921 65.9279 124.729 65.8919 124.487 65.8919C124.245 65.8919 124.017 65.9774 123.802 66.1484C123.596 66.3194 123.493 66.5265 123.493 66.7695V69.6048C123.493 69.8118 123.484 69.9693 123.466 70.0774C123.457 70.1764 123.417 70.2934 123.345 70.4284C123.211 70.6624 122.862 70.7794 122.298 70.7794C121.868 70.7794 121.559 70.7029 121.371 70.5499C121.228 70.4239 121.147 70.2304 121.13 69.9693C121.13 69.8793 121.13 69.7488 121.13 69.5778V64.8388C121.13 64.6318 121.134 64.4787 121.143 64.3797C121.161 64.2717 121.201 64.1547 121.264 64.0287C121.389 63.7857 121.738 63.6642 122.311 63.6642C122.849 63.6642 123.184 63.7677 123.319 63.9747C123.417 64.1187 123.466 64.2672 123.466 64.4202C123.511 64.3572 123.574 64.2807 123.654 64.1907C123.744 64.1007 123.927 63.9792 124.205 63.8262C124.483 63.6732 124.724 63.5966 124.93 63.5966C125.145 63.5966 125.324 63.6101 125.467 63.6371C125.611 63.6552 125.767 63.6912 125.937 63.7452Z" fill="white"/>
<path d="M133.848 63.7452C134.376 63.9792 134.64 64.2627 134.64 64.5958C134.64 64.7578 134.604 64.9108 134.533 65.0548C134.461 65.1988 134.425 65.2753 134.425 65.2843L130.907 73.1962C130.835 73.3672 130.772 73.4977 130.719 73.5877C130.674 73.6778 130.598 73.7633 130.49 73.8443C130.383 73.9253 130.249 73.9658 130.088 73.9658C129.926 73.9658 129.689 73.8983 129.376 73.7633C128.848 73.5292 128.583 73.2502 128.583 72.9262C128.583 72.7102 129.013 71.6795 129.873 69.8343L127.2 65.3113C127.021 65.0143 126.932 64.7938 126.932 64.6498C126.932 64.3617 127.173 64.0737 127.657 63.7857C127.961 63.6056 128.198 63.5156 128.369 63.5156C128.539 63.5156 128.677 63.5516 128.785 63.6236C128.892 63.6957 128.968 63.7722 129.013 63.8532C129.067 63.9252 129.313 64.3437 129.752 65.1088C130.199 65.8649 130.625 66.5715 131.028 67.2285C131.072 67.0845 131.314 66.531 131.753 65.5679C132.192 64.5958 132.424 64.0782 132.451 64.0152C132.487 63.9522 132.541 63.8757 132.612 63.7857C132.729 63.6326 132.89 63.5561 133.096 63.5561C133.311 63.5561 133.561 63.6191 133.848 63.7452Z" fill="white"/>
<path d="M144.92 68.1872L145.162 68.0116C145.466 67.8316 145.681 67.7416 145.806 67.7416C146.084 67.7416 146.384 67.9936 146.706 68.4977C146.903 68.8127 147.002 69.0647 147.002 69.2538C147.002 69.4428 146.939 69.6003 146.814 69.7263C146.697 69.8523 146.558 69.9648 146.397 70.0639C146.236 70.1629 146.079 70.2574 145.927 70.3474C145.784 70.4374 145.484 70.5544 145.027 70.6984C144.571 70.8424 144.128 70.9145 143.698 70.9145C143.277 70.9145 142.847 70.8604 142.409 70.7524C141.979 70.6354 141.531 70.4464 141.066 70.1854C140.609 69.9153 140.197 69.5913 139.83 69.2133C139.463 68.8262 139.159 68.3357 138.917 67.7416C138.684 67.1385 138.568 66.486 138.568 65.7839C138.568 65.0818 138.684 64.4472 138.917 63.8802C139.15 63.3041 139.445 62.8316 139.803 62.4625C140.17 62.0845 140.587 61.7694 141.052 61.5174C141.93 61.0314 142.811 60.7883 143.698 60.7883C144.119 60.7883 144.544 60.8558 144.974 60.9909C145.412 61.1169 145.744 61.2474 145.967 61.3824L146.29 61.5714C146.451 61.6704 146.576 61.7514 146.666 61.8144C146.899 62.0035 147.015 62.2195 147.015 62.4625C147.015 62.6965 146.921 62.9441 146.733 63.2051C146.384 63.6912 146.07 63.9342 145.793 63.9342C145.632 63.9342 145.403 63.8352 145.108 63.6371C144.732 63.3311 144.231 63.1781 143.604 63.1781C143.022 63.1781 142.449 63.3806 141.885 63.7857C141.616 63.9837 141.392 64.2627 141.213 64.6228C141.034 64.9828 140.945 65.3923 140.945 65.8514C140.945 66.3014 141.034 66.7065 141.213 67.0665C141.392 67.4266 141.621 67.7101 141.898 67.9171C142.444 68.3132 143.013 68.5112 143.604 68.5112C143.881 68.5112 144.141 68.4752 144.383 68.4032C144.633 68.3312 144.812 68.2592 144.92 68.1872Z" fill="white"/>
<path d="M147.683 67.2285C147.683 66.1484 148.059 65.2573 148.811 64.5552C149.563 63.8532 150.422 63.5021 151.389 63.5021C152.356 63.5021 153.211 63.8532 153.954 64.5552C154.697 65.2483 155.069 66.1349 155.069 67.215C155.069 67.9621 154.876 68.6282 154.491 69.2133C154.106 69.7893 153.636 70.2169 153.081 70.4959C152.535 70.7659 151.967 70.901 151.376 70.901C150.785 70.901 150.212 70.7569 149.657 70.4689C149.102 70.1719 148.632 69.7398 148.247 69.1728C147.871 68.5967 147.683 67.9486 147.683 67.2285ZM150.489 68.2007C150.776 68.4167 151.067 68.5247 151.362 68.5247C151.658 68.5247 151.953 68.4122 152.249 68.1872C152.544 67.9621 152.692 67.6291 152.692 67.188C152.692 66.747 152.553 66.4185 152.276 66.2024C151.998 65.9864 151.698 65.8784 151.376 65.8784C151.053 65.8784 150.753 65.9909 150.476 66.2159C150.198 66.441 150.06 66.774 150.06 67.215C150.06 67.6471 150.203 67.9756 150.489 68.2007Z" fill="white"/>
<path d="M160.744 63.7452C160.914 63.7992 161.053 63.8937 161.161 64.0287C161.277 64.1547 161.335 64.3617 161.335 64.6498C161.335 64.9378 161.25 65.2528 161.08 65.5949C160.91 65.9369 160.664 66.1079 160.341 66.1079C160.18 66.1079 160.024 66.0719 159.871 65.9999C159.728 65.9279 159.536 65.8919 159.294 65.8919C159.052 65.8919 158.824 65.9774 158.609 66.1484C158.403 66.3194 158.3 66.5265 158.3 66.7695V69.6048C158.3 69.8118 158.291 69.9693 158.273 70.0774C158.264 70.1764 158.224 70.2934 158.152 70.4284C158.018 70.6624 157.669 70.7794 157.105 70.7794C156.675 70.7794 156.366 70.7029 156.178 70.5499C156.035 70.4239 155.954 70.2304 155.937 69.9693C155.937 69.8793 155.937 69.7488 155.937 69.5778V64.8388C155.937 64.6318 155.941 64.4787 155.95 64.3797C155.968 64.2717 156.008 64.1547 156.071 64.0287C156.196 63.7857 156.545 63.6642 157.118 63.6642C157.656 63.6642 157.991 63.7677 158.126 63.9747C158.224 64.1187 158.273 64.2672 158.273 64.4202C158.318 64.3572 158.381 64.2807 158.461 64.1907C158.551 64.1007 158.734 63.9792 159.012 63.8262C159.289 63.6732 159.531 63.5966 159.737 63.5966C159.952 63.5966 160.131 63.6101 160.274 63.6371C160.418 63.6552 160.574 63.6912 160.744 63.7452Z" fill="white"/>
<path d="M166.009 63.6642C166.905 63.6642 167.648 64.0107 168.239 64.7038C168.838 65.3878 169.138 66.2249 169.138 67.215V69.5913C169.138 69.7983 169.129 69.9558 169.111 70.0639C169.103 70.1629 169.067 70.2754 169.004 70.4014C168.879 70.6444 168.53 70.7659 167.957 70.7659C167.321 70.7659 166.954 70.5994 166.855 70.2664C166.802 70.1134 166.775 69.8838 166.775 69.5778V67.2015C166.775 66.8325 166.667 66.5445 166.452 66.3374C166.246 66.1304 165.964 66.0269 165.606 66.0269C165.257 66.0269 164.971 66.1349 164.747 66.3509C164.532 66.567 164.425 66.8505 164.425 67.2015V69.5913C164.425 69.7983 164.416 69.9558 164.398 70.0639C164.389 70.1629 164.348 70.2754 164.277 70.4014C164.16 70.6444 163.816 70.7659 163.243 70.7659C162.679 70.7659 162.334 70.6444 162.209 70.4014C162.146 70.2664 162.106 70.1494 162.088 70.0504C162.079 69.9423 162.074 69.7848 162.074 69.5778V64.7983C162.074 64.6003 162.079 64.4517 162.088 64.3527C162.106 64.2447 162.15 64.1277 162.222 64.0017C162.347 63.7767 162.692 63.6642 163.256 63.6642C163.802 63.6642 164.138 63.7677 164.263 63.9747C164.353 64.1277 164.398 64.3122 164.398 64.5282C164.433 64.4652 164.514 64.3752 164.639 64.2582C164.765 64.1412 164.886 64.0467 165.002 63.9747C165.306 63.7677 165.642 63.6642 166.009 63.6642Z" fill="white"/>
<path d="M177.041 66.378C177.041 66.927 176.902 67.3366 176.625 67.6066C176.356 67.8676 176.056 67.9981 175.725 67.9981H172.542C172.542 68.2502 172.69 68.4617 172.985 68.6327C173.281 68.8037 173.576 68.8892 173.872 68.8892C174.391 68.8892 174.798 68.8352 175.094 68.7272L175.241 68.6732C175.456 68.5742 175.635 68.5247 175.779 68.5247C176.065 68.5247 176.311 68.7272 176.517 69.1323C176.634 69.3753 176.692 69.5823 176.692 69.7533C176.692 70.5544 175.738 70.955 173.831 70.955C173.169 70.955 172.578 70.8424 172.059 70.6174C171.548 70.3834 171.15 70.0774 170.863 69.6993C170.299 68.9702 170.017 68.1556 170.017 67.2555C170.017 66.1214 170.38 65.2168 171.105 64.5417C171.839 63.8577 172.752 63.5156 173.845 63.5156C175.089 63.5156 176.002 63.9567 176.584 64.8388C176.889 65.3068 177.041 65.8199 177.041 66.378ZM174.207 66.7695C174.548 66.7695 174.718 66.6255 174.718 66.3374C174.718 66.1304 174.637 65.9639 174.476 65.8379C174.324 65.7119 174.1 65.6489 173.804 65.6489C173.518 65.6489 173.231 65.7704 172.945 66.0134C172.658 66.2474 172.515 66.4995 172.515 66.7695H174.207Z" fill="white"/>
<path d="M182.725 63.7452C182.895 63.7992 183.034 63.8937 183.141 64.0287C183.258 64.1547 183.316 64.3617 183.316 64.6498C183.316 64.9378 183.231 65.2528 183.061 65.5949C182.891 65.9369 182.644 66.1079 182.322 66.1079C182.161 66.1079 182.004 66.0719 181.852 65.9999C181.709 65.9279 181.516 65.8919 181.275 65.8919C181.033 65.8919 180.805 65.9774 180.59 66.1484C180.384 66.3194 180.281 66.5265 180.281 66.7695V69.6048C180.281 69.8118 180.272 69.9693 180.254 70.0774C180.245 70.1764 180.205 70.2934 180.133 70.4284C179.999 70.6624 179.65 70.7794 179.086 70.7794C178.656 70.7794 178.347 70.7029 178.159 70.5499C178.016 70.4239 177.935 70.2304 177.917 69.9693C177.917 69.8793 177.917 69.7488 177.917 69.5778V64.8388C177.917 64.6318 177.922 64.4787 177.931 64.3797C177.948 64.2717 177.989 64.1547 178.051 64.0287C178.177 63.7857 178.526 63.6642 179.099 63.6642C179.636 63.6642 179.972 63.7677 180.106 63.9747C180.205 64.1187 180.254 64.2672 180.254 64.4202C180.299 64.3572 180.361 64.2807 180.442 64.1907C180.531 64.1007 180.715 63.9792 180.993 63.8262C181.27 63.6732 181.512 63.5966 181.718 63.5966C181.933 63.5966 182.112 63.6101 182.255 63.6371C182.398 63.6552 182.555 63.6912 182.725 63.7452Z" fill="white"/>
<path d="M99.6246 69.3888C99.3918 69.1008 99.2754 68.8442 99.2754 68.6192C99.2754 68.3852 99.4679 68.0791 99.8529 67.7011C100.077 67.4851 100.314 67.3771 100.565 67.3771C100.815 67.3771 101.164 67.6021 101.612 68.0521C101.737 68.2052 101.917 68.3537 102.149 68.4977C102.382 68.6327 102.597 68.7002 102.794 68.7002C103.627 68.7002 104.043 68.3582 104.043 67.6741C104.043 67.4671 103.927 67.2961 103.694 67.161C103.47 67.017 103.188 66.9135 102.848 66.8505C102.507 66.7875 102.14 66.6885 101.746 66.5535C101.353 66.4095 100.985 66.2429 100.645 66.0539C100.305 65.8649 100.018 65.5679 99.7857 65.1628C99.5619 64.7488 99.45 64.2537 99.45 63.6777C99.45 62.8856 99.741 62.197 100.323 61.6119C100.914 61.0179 101.715 60.7208 102.727 60.7208C103.264 60.7208 103.752 60.7928 104.191 60.9368C104.638 61.0719 104.947 61.2114 105.117 61.3554L105.453 61.6119C105.731 61.873 105.869 62.0935 105.869 62.2735C105.869 62.4535 105.762 62.701 105.547 63.0161C105.243 63.4661 104.929 63.6912 104.607 63.6912C104.419 63.6912 104.186 63.6011 103.909 63.4211C103.882 63.4031 103.828 63.3581 103.747 63.2861C103.676 63.2141 103.609 63.1556 103.546 63.1106C103.358 62.9936 103.116 62.9351 102.821 62.9351C102.534 62.9351 102.293 63.0071 102.096 63.1511C101.908 63.2861 101.814 63.4796 101.814 63.7317C101.814 63.9747 101.926 64.1727 102.149 64.3257C102.382 64.4787 102.669 64.5823 103.009 64.6363C103.349 64.6903 103.721 64.7758 104.124 64.8928C104.526 65.0008 104.898 65.1358 105.238 65.2978C105.578 65.4598 105.86 65.7434 106.084 66.1484C106.317 66.5445 106.433 67.035 106.433 67.6201C106.433 68.2052 106.317 68.7227 106.084 69.1728C105.851 69.6138 105.547 69.9558 105.171 70.1989C104.446 70.6759 103.671 70.9145 102.848 70.9145C102.427 70.9145 102.028 70.8649 101.652 70.7659C101.276 70.6579 100.972 70.5274 100.739 70.3744C100.265 70.0864 99.9334 69.8073 99.7454 69.5373L99.6246 69.3888Z" stroke="url(#paint8_linear_12347_42762)" stroke-width="0.4" mask="url(#path-20-outside-2_12347_42762)"/>
<path d="M111.154 66.0539L110.281 65.9999V67.8631C110.281 68.1061 110.317 68.2817 110.388 68.3897C110.469 68.4977 110.612 68.5517 110.818 68.5517C111.033 68.5517 111.194 68.5607 111.301 68.5787C111.418 68.5877 111.539 68.6282 111.664 68.7002C111.87 68.8172 111.973 69.1188 111.973 69.6048C111.973 70.1719 111.847 70.5184 111.597 70.6444C111.463 70.7074 111.342 70.7479 111.234 70.7659C111.136 70.7749 110.988 70.7794 110.791 70.7794C109.86 70.7794 109.153 70.5679 108.669 70.1449C108.186 69.7218 107.944 69.0062 107.944 67.9981V65.9999C107.774 66.0269 107.59 66.0404 107.393 66.0404C107.196 66.0404 107.031 65.9639 106.896 65.8109C106.771 65.6579 106.708 65.3968 106.708 65.0278C106.708 64.6588 106.731 64.3932 106.776 64.2312C106.82 64.0602 106.883 63.9387 106.964 63.8667C107.107 63.7497 107.286 63.6912 107.501 63.6912L107.944 63.7452V62.3545C107.944 62.1475 107.948 61.9945 107.957 61.8955C107.975 61.7964 108.02 61.6884 108.092 61.5714C108.208 61.3464 108.553 61.2339 109.126 61.2339C109.735 61.2339 110.097 61.4004 110.214 61.7334C110.258 61.8775 110.281 62.107 110.281 62.422V63.7452C110.675 63.7092 110.97 63.6912 111.167 63.6912C111.373 63.6912 111.525 63.7002 111.624 63.7182C111.731 63.7272 111.852 63.7677 111.986 63.8397C112.219 63.9567 112.335 64.3032 112.335 64.8793C112.335 65.4463 112.215 65.7929 111.973 65.9189C111.839 65.9819 111.718 66.0224 111.61 66.0404C111.512 66.0494 111.36 66.0539 111.154 66.0539Z" stroke="url(#paint9_linear_12347_42762)" stroke-width="0.4" mask="url(#path-20-outside-2_12347_42762)"/>
<path d="M112.876 67.2285C112.876 66.1484 113.252 65.2573 114.004 64.5552C114.756 63.8532 115.615 63.5021 116.582 63.5021C117.549 63.5021 118.404 63.8532 119.147 64.5552C119.89 65.2483 120.262 66.1349 120.262 67.215C120.262 67.9621 120.069 68.6282 119.684 69.2133C119.299 69.7893 118.829 70.2169 118.274 70.4959C117.728 70.7659 117.16 70.901 116.569 70.901C115.978 70.901 115.405 70.7569 114.85 70.4689C114.295 70.1719 113.825 69.7398 113.44 69.1728C113.064 68.5967 112.876 67.9486 112.876 67.2285ZM115.682 68.2007C115.969 68.4167 116.26 68.5247 116.555 68.5247C116.851 68.5247 117.146 68.4122 117.442 68.1872C117.737 67.9621 117.885 67.6291 117.885 67.188C117.885 66.747 117.746 66.4185 117.469 66.2024C117.191 65.9864 116.891 65.8784 116.569 65.8784C116.246 65.8784 115.946 65.9909 115.669 66.2159C115.391 66.441 115.253 66.774 115.253 67.215C115.253 67.6471 115.396 67.9756 115.682 68.2007Z" stroke="url(#paint10_linear_12347_42762)" stroke-width="0.4" mask="url(#path-20-outside-2_12347_42762)"/>
<path d="M125.937 63.7452C126.107 63.7992 126.246 63.8937 126.354 64.0287C126.47 64.1547 126.528 64.3617 126.528 64.6498C126.528 64.9378 126.443 65.2528 126.273 65.5949C126.103 65.9369 125.857 66.1079 125.535 66.1079C125.373 66.1079 125.217 66.0719 125.064 65.9999C124.921 65.9279 124.729 65.8919 124.487 65.8919C124.245 65.8919 124.017 65.9774 123.802 66.1484C123.596 66.3194 123.493 66.5265 123.493 66.7695V69.6048C123.493 69.8118 123.484 69.9693 123.466 70.0774C123.457 70.1764 123.417 70.2934 123.345 70.4284C123.211 70.6624 122.862 70.7794 122.298 70.7794C121.868 70.7794 121.559 70.7029 121.371 70.5499C121.228 70.4239 121.147 70.2304 121.13 69.9693C121.13 69.8793 121.13 69.7488 121.13 69.5778V64.8388C121.13 64.6318 121.134 64.4787 121.143 64.3797C121.161 64.2717 121.201 64.1547 121.264 64.0287C121.389 63.7857 121.738 63.6642 122.311 63.6642C122.849 63.6642 123.184 63.7677 123.319 63.9747C123.417 64.1187 123.466 64.2672 123.466 64.4202C123.511 64.3572 123.574 64.2807 123.654 64.1907C123.744 64.1007 123.927 63.9792 124.205 63.8262C124.483 63.6732 124.724 63.5966 124.93 63.5966C125.145 63.5966 125.324 63.6101 125.467 63.6371C125.611 63.6552 125.767 63.6912 125.937 63.7452Z" stroke="url(#paint11_linear_12347_42762)" stroke-width="0.4" mask="url(#path-20-outside-2_12347_42762)"/>
<path d="M133.848 63.7452C134.376 63.9792 134.64 64.2627 134.64 64.5958C134.64 64.7578 134.604 64.9108 134.533 65.0548C134.461 65.1988 134.425 65.2753 134.425 65.2843L130.907 73.1962C130.835 73.3672 130.772 73.4977 130.719 73.5877C130.674 73.6778 130.598 73.7633 130.49 73.8443C130.383 73.9253 130.249 73.9658 130.088 73.9658C129.926 73.9658 129.689 73.8983 129.376 73.7633C128.848 73.5292 128.583 73.2502 128.583 72.9262C128.583 72.7102 129.013 71.6795 129.873 69.8343L127.2 65.3113C127.021 65.0143 126.932 64.7938 126.932 64.6498C126.932 64.3617 127.173 64.0737 127.657 63.7857C127.961 63.6056 128.198 63.5156 128.369 63.5156C128.539 63.5156 128.677 63.5516 128.785 63.6236C128.892 63.6957 128.968 63.7722 129.013 63.8532C129.067 63.9252 129.313 64.3437 129.752 65.1088C130.199 65.8649 130.625 66.5715 131.028 67.2285C131.072 67.0845 131.314 66.531 131.753 65.5679C132.192 64.5958 132.424 64.0782 132.451 64.0152C132.487 63.9522 132.541 63.8757 132.612 63.7857C132.729 63.6326 132.89 63.5561 133.096 63.5561C133.311 63.5561 133.561 63.6191 133.848 63.7452Z" stroke="url(#paint12_linear_12347_42762)" stroke-width="0.4" mask="url(#path-20-outside-2_12347_42762)"/>
<path d="M144.92 68.1872L145.162 68.0116C145.466 67.8316 145.681 67.7416 145.806 67.7416C146.084 67.7416 146.384 67.9936 146.706 68.4977C146.903 68.8127 147.002 69.0647 147.002 69.2538C147.002 69.4428 146.939 69.6003 146.814 69.7263C146.697 69.8523 146.558 69.9648 146.397 70.0639C146.236 70.1629 146.079 70.2574 145.927 70.3474C145.784 70.4374 145.484 70.5544 145.027 70.6984C144.571 70.8424 144.128 70.9145 143.698 70.9145C143.277 70.9145 142.847 70.8604 142.409 70.7524C141.979 70.6354 141.531 70.4464 141.066 70.1854C140.609 69.9153 140.197 69.5913 139.83 69.2133C139.463 68.8262 139.159 68.3357 138.917 67.7416C138.684 67.1385 138.568 66.486 138.568 65.7839C138.568 65.0818 138.684 64.4472 138.917 63.8802C139.15 63.3041 139.445 62.8316 139.803 62.4625C140.17 62.0845 140.587 61.7694 141.052 61.5174C141.93 61.0314 142.811 60.7883 143.698 60.7883C144.119 60.7883 144.544 60.8558 144.974 60.9909C145.412 61.1169 145.744 61.2474 145.967 61.3824L146.29 61.5714C146.451 61.6704 146.576 61.7514 146.666 61.8144C146.899 62.0035 147.015 62.2195 147.015 62.4625C147.015 62.6965 146.921 62.9441 146.733 63.2051C146.384 63.6912 146.07 63.9342 145.793 63.9342C145.632 63.9342 145.403 63.8352 145.108 63.6371C144.732 63.3311 144.231 63.1781 143.604 63.1781C143.022 63.1781 142.449 63.3806 141.885 63.7857C141.616 63.9837 141.392 64.2627 141.213 64.6228C141.034 64.9828 140.945 65.3923 140.945 65.8514C140.945 66.3014 141.034 66.7065 141.213 67.0665C141.392 67.4266 141.621 67.7101 141.898 67.9171C142.444 68.3132 143.013 68.5112 143.604 68.5112C143.881 68.5112 144.141 68.4752 144.383 68.4032C144.633 68.3312 144.812 68.2592 144.92 68.1872Z" stroke="url(#paint13_linear_12347_42762)" stroke-width="0.4" mask="url(#path-20-outside-2_12347_42762)"/>
<path d="M147.683 67.2285C147.683 66.1484 148.059 65.2573 148.811 64.5552C149.563 63.8532 150.422 63.5021 151.389 63.5021C152.356 63.5021 153.211 63.8532 153.954 64.5552C154.697 65.2483 155.069 66.1349 155.069 67.215C155.069 67.9621 154.876 68.6282 154.491 69.2133C154.106 69.7893 153.636 70.2169 153.081 70.4959C152.535 70.7659 151.967 70.901 151.376 70.901C150.785 70.901 150.212 70.7569 149.657 70.4689C149.102 70.1719 148.632 69.7398 148.247 69.1728C147.871 68.5967 147.683 67.9486 147.683 67.2285ZM150.489 68.2007C150.776 68.4167 151.067 68.5247 151.362 68.5247C151.658 68.5247 151.953 68.4122 152.249 68.1872C152.544 67.9621 152.692 67.6291 152.692 67.188C152.692 66.747 152.553 66.4185 152.276 66.2024C151.998 65.9864 151.698 65.8784 151.376 65.8784C151.053 65.8784 150.753 65.9909 150.476 66.2159C150.198 66.441 150.06 66.774 150.06 67.215C150.06 67.6471 150.203 67.9756 150.489 68.2007Z" stroke="url(#paint14_linear_12347_42762)" stroke-width="0.4" mask="url(#path-20-outside-2_12347_42762)"/>
<path d="M160.744 63.7452C160.914 63.7992 161.053 63.8937 161.161 64.0287C161.277 64.1547 161.335 64.3617 161.335 64.6498C161.335 64.9378 161.25 65.2528 161.08 65.5949C160.91 65.9369 160.664 66.1079 160.341 66.1079C160.18 66.1079 160.024 66.0719 159.871 65.9999C159.728 65.9279 159.536 65.8919 159.294 65.8919C159.052 65.8919 158.824 65.9774 158.609 66.1484C158.403 66.3194 158.3 66.5265 158.3 66.7695V69.6048C158.3 69.8118 158.291 69.9693 158.273 70.0774C158.264 70.1764 158.224 70.2934 158.152 70.4284C158.018 70.6624 157.669 70.7794 157.105 70.7794C156.675 70.7794 156.366 70.7029 156.178 70.5499C156.035 70.4239 155.954 70.2304 155.937 69.9693C155.937 69.8793 155.937 69.7488 155.937 69.5778V64.8388C155.937 64.6318 155.941 64.4787 155.95 64.3797C155.968 64.2717 156.008 64.1547 156.071 64.0287C156.196 63.7857 156.545 63.6642 157.118 63.6642C157.656 63.6642 157.991 63.7677 158.126 63.9747C158.224 64.1187 158.273 64.2672 158.273 64.4202C158.318 64.3572 158.381 64.2807 158.461 64.1907C158.551 64.1007 158.734 63.9792 159.012 63.8262C159.289 63.6732 159.531 63.5966 159.737 63.5966C159.952 63.5966 160.131 63.6101 160.274 63.6371C160.418 63.6552 160.574 63.6912 160.744 63.7452Z" stroke="url(#paint15_linear_12347_42762)" stroke-width="0.4" mask="url(#path-20-outside-2_12347_42762)"/>
<path d="M166.009 63.6642C166.905 63.6642 167.648 64.0107 168.239 64.7038C168.838 65.3878 169.138 66.2249 169.138 67.215V69.5913C169.138 69.7983 169.129 69.9558 169.111 70.0639C169.103 70.1629 169.067 70.2754 169.004 70.4014C168.879 70.6444 168.53 70.7659 167.957 70.7659C167.321 70.7659 166.954 70.5994 166.855 70.2664C166.802 70.1134 166.775 69.8838 166.775 69.5778V67.2015C166.775 66.8325 166.667 66.5445 166.452 66.3374C166.246 66.1304 165.964 66.0269 165.606 66.0269C165.257 66.0269 164.971 66.1349 164.747 66.3509C164.532 66.567 164.425 66.8505 164.425 67.2015V69.5913C164.425 69.7983 164.416 69.9558 164.398 70.0639C164.389 70.1629 164.348 70.2754 164.277 70.4014C164.16 70.6444 163.816 70.7659 163.243 70.7659C162.679 70.7659 162.334 70.6444 162.209 70.4014C162.146 70.2664 162.106 70.1494 162.088 70.0504C162.079 69.9423 162.074 69.7848 162.074 69.5778V64.7983C162.074 64.6003 162.079 64.4517 162.088 64.3527C162.106 64.2447 162.15 64.1277 162.222 64.0017C162.347 63.7767 162.692 63.6642 163.256 63.6642C163.802 63.6642 164.138 63.7677 164.263 63.9747C164.353 64.1277 164.398 64.3122 164.398 64.5282C164.433 64.4652 164.514 64.3752 164.639 64.2582C164.765 64.1412 164.886 64.0467 165.002 63.9747C165.306 63.7677 165.642 63.6642 166.009 63.6642Z" stroke="url(#paint16_linear_12347_42762)" stroke-width="0.4" mask="url(#path-20-outside-2_12347_42762)"/>
<path d="M177.041 66.378C177.041 66.927 176.902 67.3366 176.625 67.6066C176.356 67.8676 176.056 67.9981 175.725 67.9981H172.542C172.542 68.2502 172.69 68.4617 172.985 68.6327C173.281 68.8037 173.576 68.8892 173.872 68.8892C174.391 68.8892 174.798 68.8352 175.094 68.7272L175.241 68.6732C175.456 68.5742 175.635 68.5247 175.779 68.5247C176.065 68.5247 176.311 68.7272 176.517 69.1323C176.634 69.3753 176.692 69.5823 176.692 69.7533C176.692 70.5544 175.738 70.955 173.831 70.955C173.169 70.955 172.578 70.8424 172.059 70.6174C171.548 70.3834 171.15 70.0774 170.863 69.6993C170.299 68.9702 170.017 68.1556 170.017 67.2555C170.017 66.1214 170.38 65.2168 171.105 64.5417C171.839 63.8577 172.752 63.5156 173.845 63.5156C175.089 63.5156 176.002 63.9567 176.584 64.8388C176.889 65.3068 177.041 65.8199 177.041 66.378ZM174.207 66.7695C174.548 66.7695 174.718 66.6255 174.718 66.3374C174.718 66.1304 174.637 65.9639 174.476 65.8379C174.324 65.7119 174.1 65.6489 173.804 65.6489C173.518 65.6489 173.231 65.7704 172.945 66.0134C172.658 66.2474 172.515 66.4995 172.515 66.7695H174.207Z" stroke="url(#paint17_linear_12347_42762)" stroke-width="0.4" mask="url(#path-20-outside-2_12347_42762)"/>
<path d="M182.725 63.7452C182.895 63.7992 183.034 63.8937 183.141 64.0287C183.258 64.1547 183.316 64.3617 183.316 64.6498C183.316 64.9378 183.231 65.2528 183.061 65.5949C182.891 65.9369 182.644 66.1079 182.322 66.1079C182.161 66.1079 182.004 66.0719 181.852 65.9999C181.709 65.9279 181.516 65.8919 181.275 65.8919C181.033 65.8919 180.805 65.9774 180.59 66.1484C180.384 66.3194 180.281 66.5265 180.281 66.7695V69.6048C180.281 69.8118 180.272 69.9693 180.254 70.0774C180.245 70.1764 180.205 70.2934 180.133 70.4284C179.999 70.6624 179.65 70.7794 179.086 70.7794C178.656 70.7794 178.347 70.7029 178.159 70.5499C178.016 70.4239 177.935 70.2304 177.917 69.9693C177.917 69.8793 177.917 69.7488 177.917 69.5778V64.8388C177.917 64.6318 177.922 64.4787 177.931 64.3797C177.948 64.2717 177.989 64.1547 178.051 64.0287C178.177 63.7857 178.526 63.6642 179.099 63.6642C179.636 63.6642 179.972 63.7677 180.106 63.9747C180.205 64.1187 180.254 64.2672 180.254 64.4202C180.299 64.3572 180.361 64.2807 180.442 64.1907C180.531 64.1007 180.715 63.9792 180.993 63.8262C181.27 63.6732 181.512 63.5966 181.718 63.5966C181.933 63.5966 182.112 63.6101 182.255 63.6371C182.398 63.6552 182.555 63.6912 182.725 63.7452Z" stroke="url(#paint18_linear_12347_42762)" stroke-width="0.4" mask="url(#path-20-outside-2_12347_42762)"/>
<defs>
<linearGradient id="paint0_linear_12347_42762" x1="141.349" y1="28.2058" x2="141.349" y2="56.9137" gradientUnits="userSpaceOnUse">
<stop stop-color="#CDA538"/>
<stop offset="1" stop-color="#FFE59F"/>
</linearGradient>
<linearGradient id="paint1_linear_12347_42762" x1="141.349" y1="28.2058" x2="141.349" y2="56.9137" gradientUnits="userSpaceOnUse">
<stop stop-color="#CDA538"/>
<stop offset="1" stop-color="#FFE59F"/>
</linearGradient>
<linearGradient id="paint2_linear_12347_42762" x1="141.349" y1="28.2058" x2="141.349" y2="56.9137" gradientUnits="userSpaceOnUse">
<stop stop-color="#CDA538"/>
<stop offset="1" stop-color="#FFE59F"/>
</linearGradient>
<linearGradient id="paint3_linear_12347_42762" x1="141.349" y1="28.2058" x2="141.349" y2="56.9137" gradientUnits="userSpaceOnUse">
<stop stop-color="#CDA538"/>
<stop offset="1" stop-color="#FFE59F"/>
</linearGradient>
<linearGradient id="paint4_linear_12347_42762" x1="165.12" y1="34.271" x2="163.139" y2="49.8904" gradientUnits="userSpaceOnUse">
<stop stop-color="#CDA538"/>
<stop offset="1" stop-color="#FFE59F"/>
</linearGradient>
<linearGradient id="paint5_linear_12347_42762" x1="168.208" y1="26.4027" x2="166.647" y2="31.6145" gradientUnits="userSpaceOnUse">
<stop stop-color="#CDA538"/>
<stop offset="1" stop-color="#FFE59F"/>
</linearGradient>
<linearGradient id="paint6_linear_12347_42762" x1="162.715" y1="28.3474" x2="162.715" y2="31.0688" gradientUnits="userSpaceOnUse">
<stop stop-color="#CDA538"/>
<stop offset="1" stop-color="#FFE59F"/>
</linearGradient>
<linearGradient id="paint7_linear_12347_42762" x1="165.422" y1="22.9047" x2="165.422" y2="25.626" gradientUnits="userSpaceOnUse">
<stop stop-color="#CDA538"/>
<stop offset="1" stop-color="#FFE59F"/>
</linearGradient>
<linearGradient id="paint8_linear_12347_42762" x1="141.296" y1="60.7208" x2="141.296" y2="73.9658" gradientUnits="userSpaceOnUse">
<stop stop-color="#CDA538"/>
<stop offset="1" stop-color="#FFE59F"/>
</linearGradient>
<linearGradient id="paint9_linear_12347_42762" x1="141.296" y1="60.7208" x2="141.296" y2="73.9658" gradientUnits="userSpaceOnUse">
<stop stop-color="#CDA538"/>
<stop offset="1" stop-color="#FFE59F"/>
</linearGradient>
<linearGradient id="paint10_linear_12347_42762" x1="141.296" y1="60.7208" x2="141.296" y2="73.9658" gradientUnits="userSpaceOnUse">
<stop stop-color="#CDA538"/>
<stop offset="1" stop-color="#FFE59F"/>
</linearGradient>
<linearGradient id="paint11_linear_12347_42762" x1="141.296" y1="60.7208" x2="141.296" y2="73.9658" gradientUnits="userSpaceOnUse">
<stop stop-color="#CDA538"/>
<stop offset="1" stop-color="#FFE59F"/>
</linearGradient>
<linearGradient id="paint12_linear_12347_42762" x1="141.296" y1="60.7208" x2="141.296" y2="73.9658" gradientUnits="userSpaceOnUse">
<stop stop-color="#CDA538"/>
<stop offset="1" stop-color="#FFE59F"/>
</linearGradient>
<linearGradient id="paint13_linear_12347_42762" x1="141.296" y1="60.7208" x2="141.296" y2="73.9658" gradientUnits="userSpaceOnUse">
<stop stop-color="#CDA538"/>
<stop offset="1" stop-color="#FFE59F"/>
</linearGradient>
<linearGradient id="paint14_linear_12347_42762" x1="141.296" y1="60.7208" x2="141.296" y2="73.9658" gradientUnits="userSpaceOnUse">
<stop stop-color="#CDA538"/>
<stop offset="1" stop-color="#FFE59F"/>
</linearGradient>
<linearGradient id="paint15_linear_12347_42762" x1="141.296" y1="60.7208" x2="141.296" y2="73.9658" gradientUnits="userSpaceOnUse">
<stop stop-color="#CDA538"/>
<stop offset="1" stop-color="#FFE59F"/>
</linearGradient>
<linearGradient id="paint16_linear_12347_42762" x1="141.296" y1="60.7208" x2="141.296" y2="73.9658" gradientUnits="userSpaceOnUse">
<stop stop-color="#CDA538"/>
<stop offset="1" stop-color="#FFE59F"/>
</linearGradient>
<linearGradient id="paint17_linear_12347_42762" x1="141.296" y1="60.7208" x2="141.296" y2="73.9658" gradientUnits="userSpaceOnUse">
<stop stop-color="#CDA538"/>
<stop offset="1" stop-color="#FFE59F"/>
</linearGradient>
<linearGradient id="paint18_linear_12347_42762" x1="141.296" y1="60.7208" x2="141.296" y2="73.9658" gradientUnits="userSpaceOnUse">
<stop stop-color="#CDA538"/>
<stop offset="1" stop-color="#FFE59F"/>
</linearGradient>
</defs>
</svg>
