<svg width="232" height="69" viewBox="0 0 232 69" fill="none" xmlns="http://www.w3.org/2000/svg">
<path d="M229.968 27.6645C229.193 26.8149 228.198 26.1943 227.074 25.8628C226.631 25.7334 226.195 25.6387 225.775 25.581C225.46 25.5303 225.013 25.4736 224.486 25.4736C223.859 25.4736 223.241 25.5517 222.637 25.707C222.138 25.6113 221.588 25.5571 220.983 25.5571C219.815 25.5571 218.874 25.7725 218.087 26.088C216.932 25.6327 215.654 25.3823 214.276 25.3823C212.296 25.3823 210.457 25.8664 208.87 26.7925C207.5 25.9894 205.931 25.5571 204.274 25.5571C203.705 25.5571 203.142 25.6196 202.595 25.7422C202.049 25.6245 201.44 25.5571 200.76 25.5571C199.997 25.5571 199.337 25.6558 198.743 25.8033C198.398 25.7133 198.053 25.6274 197.722 25.5815C197.406 25.5308 196.96 25.4736 196.429 25.4736C195.803 25.4736 195.185 25.5517 194.581 25.7075C194.082 25.6113 193.532 25.5571 192.926 25.5571C191.588 25.5571 190.526 25.8254 189.681 26.223C188.412 25.6642 187.043 25.3667 185.613 25.3667C185.013 25.3667 184.422 25.4198 183.845 25.5203C183.512 25.1124 183.128 24.736 182.687 24.4067C182.602 24.3428 182.515 24.2822 182.426 24.2241C182.246 24.1069 181.996 23.9546 181.585 23.7227L181.214 23.5215C180.557 23.1572 179.772 22.855 178.815 22.5981C177.804 22.3096 176.765 22.1636 175.724 22.1636C173.825 22.1636 171.919 22.6455 170.096 23.5757C169.044 24.1016 168.083 24.7734 167.241 25.5732C166.906 25.8921 166.601 26.246 166.312 26.6151C165.956 26.4 165.582 26.2 165.174 26.0327C164.191 25.6348 163.22 25.4331 162.288 25.4331C161.227 25.4331 160.212 25.6973 159.326 26.1865C158.407 25.6572 157.367 25.3789 156.305 25.3789C155.581 25.3789 154.865 25.5163 154.141 25.7657C153.856 25.697 153.567 25.6193 153.293 25.5815C152.978 25.5308 152.531 25.4736 152.002 25.4736C151.377 25.4736 150.76 25.5517 150.154 25.7075C149.655 25.6113 149.104 25.5571 148.497 25.5571C147.159 25.5571 146.096 25.8254 145.251 26.2229C143.983 25.6643 142.614 25.3667 141.185 25.3667C139.947 25.3667 138.75 25.5831 137.625 26.004C136.967 24.7626 135.322 22.6943 131.667 22.6943C130.442 22.6943 129.455 22.9193 128.651 23.2545C128.117 22.983 127.52 22.7486 126.816 22.5503C125.785 22.2446 124.67 22.0899 123.499 22.0899C120.212 22.0899 118.093 23.4155 116.892 24.5298C116.303 25.0766 115.811 25.6882 115.402 26.3406C114.954 26.1287 114.457 25.9442 113.873 25.7783C112.982 25.5122 112.058 25.377 111.126 25.377C111.002 25.377 110.879 25.3884 110.755 25.3931C110.617 25.1724 110.468 24.9582 110.295 24.7603C110.105 24.0414 109.751 23.3862 109.28 22.827C108.472 20.5989 106.342 19 103.84 19C100.943 19 98.5428 21.143 98.1221 23.927C97.6797 24.3798 97.3145 24.906 97.0382 25.4834C96.6377 25.5152 96.2554 25.5648 95.9122 25.6465C95.3868 25.5371 94.8453 25.4819 94.2911 25.4819C93.3516 25.4819 92.1639 25.6519 90.9025 26.198C90.6253 26.0615 90.3462 25.927 90.044 25.8315C89.2935 25.5932 88.4722 25.4819 87.4595 25.4819C86.8531 25.4819 86.2715 25.5488 85.7222 25.6777C85.17 25.5591 84.5997 25.4995 84.0152 25.4995C83.795 25.4995 83.5608 25.5087 83.3159 25.5286C83.2629 25.4132 83.2277 25.2893 83.168 25.1777C82.6578 24.1914 81.0533 21.897 77.1944 21.897C74.3414 21.897 72.7183 23.1294 71.856 24.1719C71.7657 24.0659 71.6715 23.9639 71.5728 23.8657L71.5474 23.8408C70.8756 23.1382 70.0201 22.6167 68.9971 22.2871C68.2413 22.0283 67.418 21.897 66.5479 21.897C62.9718 21.897 61.334 23.8242 60.6758 24.9731C60.6495 25.019 60.6241 25.0654 60.5992 25.1128C60.2364 25.7954 60.0025 26.4756 59.8843 27.1929C59.8653 27.31 59.8502 27.4282 59.8389 27.5464C59.8179 27.7778 59.7999 28.1348 59.7999 28.6187C59.7999 28.6187 59.8733 30.4065 58.9395 28.375C56.6881 23.4775 49.5474 21.0957 45.6998 20.1421L39.7989 9.60986C37.772 5.99267 34.232 4.19384 31.3878 2.74804C30.1881 2.13818 29.0552 1.56249 28.2384 0.96484C27.3594 0.32177 26.3228 0 25.2857 0C24.2559 0 23.2257 0.31738 22.3497 0.95264C19.3516 3.12744 17.5465 4.8833 15.4507 7.66162C14.1827 9.34326 14.1041 11.6387 15.2545 13.4028C16.191 14.8394 17.7779 15.6729 19.4424 15.6729C19.6768 15.6729 19.9131 15.6563 20.149 15.6226L18.7508 19.4198C18.3317 17.4947 16.804 15.9601 14.8155 15.5762C14.7686 15.5669 14.7271 15.5581 14.691 15.5498C14.6461 15.4346 14.5875 15.2642 14.5216 15.021C13.9263 12.834 11.941 11.334 9.69929 11.334C9.59968 11.334 9.49861 11.3369 9.39802 11.3428C7.04353 11.4839 5.10896 13.2505 4.75398 15.5801C4.73005 15.585 4.70466 15.5898 4.67732 15.5947C2.29988 16.021 0.566966 18.0854 0.559636 20.501C0.552306 22.9165 2.27302 24.9917 4.64802 25.4321C4.69392 25.4409 4.73493 25.4492 4.77107 25.458C4.89497 26.1008 5.15077 26.6882 5.49061 27.2142C4.72828 28.4651 4.30061 29.8771 4.25984 31.3511C4.19636 33.6475 5.08015 35.8403 6.74861 37.5254C6.98085 37.7599 7.28609 38.0358 7.62239 38.3235C7.54341 39.521 7.89076 40.7121 8.6197 41.6733L7.63288 41.9848C2.94096 43.4658 0.0161563 48.2036 4.63309e-05 54.3496C-0.0116737 58.8872 2.19976 64.0249 7.08257 64.5815C10.0323 64.9184 12.9991 65.5239 16.1402 66.165C21.0909 67.1753 26.2105 68.2202 31.5455 68.2202C31.8267 68.2202 32.1075 68.2173 32.3897 68.2114C38.1675 68.0889 43.6412 66.9043 48.9346 65.7583C52.5108 64.9844 55.8877 64.2534 59.2759 63.8516C61.6563 63.5688 63.501 61.6367 63.6734 59.2461C63.7354 58.3862 63.5752 57.5542 63.2364 56.812V56.3555C63.2364 56.1992 63.2291 56.0439 63.2144 55.8901C63.2291 55.7353 63.2364 55.5786 63.2364 55.4214V54.6572C63.2364 54.501 63.2291 54.3457 63.2144 54.1919C63.2291 54.0371 63.2364 53.8804 63.2364 53.7231C63.2364 53.7231 63.2359 52.8657 63.2344 52.8188C64.3355 51.0674 64.2461 48.8062 62.9883 47.1431C62.2566 46.1758 61.4571 45.4246 60.6341 44.8049C60.6581 44.7893 60.6886 44.7651 60.711 44.7515C61.228 44.4358 61.6629 44.0285 62.0244 43.5691C62.9676 44.3617 64.3899 45.0815 66.5132 45.0815C69.3785 45.0815 70.9996 43.8447 71.8604 42.7685C72.1348 43.1055 72.4444 43.4097 72.7828 43.6738C73.4107 44.167 74.1241 44.5278 74.9737 44.7812C75.6583 44.9834 76.4014 45.0815 77.2466 45.0815C78.1158 45.0815 78.9263 44.9639 79.6588 44.7314C79.9626 44.6348 80.2676 44.4992 80.5701 44.3429C81.8282 44.8927 83.0103 45.0639 83.9459 45.0639C84.6212 45.0639 85.2364 44.9966 85.7955 44.8804C86.0961 44.9444 86.3806 44.9769 86.6586 45.0047C87.244 45.9778 88.2096 46.9567 89.7735 47.8003C91.3365 48.6421 93.0147 49.0688 94.7608 49.0688C97.1949 49.0688 99.4742 48.1836 101.328 46.5307C101.859 46.0632 102.324 45.5426 102.727 44.982C102.82 44.985 102.921 45.0009 103.013 45.0009C103.504 45.0009 103.983 44.9546 104.453 44.8598C105.213 44.704 105.916 44.4158 106.544 44.0081C108.003 44.7787 109.569 45.1865 111.161 45.1865C113.117 45.1865 114.935 44.6548 116.43 43.6474C116.897 43.354 117.291 43.0407 117.637 42.719C117.863 42.8684 118.097 43.0154 118.347 43.1577C119.059 43.5776 119.863 43.9033 120.803 44.1518C120.835 44.1601 120.867 44.1684 120.899 44.1762C121.78 44.3906 122.707 44.499 123.654 44.499C125.504 44.499 127.257 44.0235 128.86 43.1411C130.242 43.933 131.892 44.3398 133.793 44.3398C134.245 44.3398 134.585 44.3237 134.833 44.3012C134.94 44.292 135.048 44.2788 135.154 44.2622C135.729 44.1733 136.314 44.0005 136.893 43.75C136.932 43.7329 136.971 43.7153 137.01 43.6972C137.052 43.6778 137.088 43.6507 137.129 43.6303C138.422 44.1864 139.776 44.4829 141.167 44.4829C142.555 44.4829 143.907 44.197 145.218 43.6469C146.168 44.1015 147.257 44.3398 148.48 44.3398C149.797 44.3398 150.847 44.0766 151.682 43.6932C152.159 44.9812 153.223 46.5178 155.595 47.4878C156.636 47.9013 157.535 48.0937 158.423 48.0937C159.695 48.0937 160.902 47.7202 161.895 47.0268C162.638 46.5132 163.253 45.8584 163.689 45.122C163.854 44.852 164.013 44.5498 164.173 44.2036L166.252 39.888C166.566 40.3018 166.9 40.6982 167.274 41.061C168.066 41.8149 168.965 42.4692 169.947 43.0058C169.98 43.0234 170.012 43.0405 170.044 43.0571C170.992 43.5483 171.95 43.917 172.89 44.1528C172.924 44.1611 172.959 44.1694 172.993 44.1772C173.928 44.3906 174.871 44.499 175.796 44.499C176.833 44.499 177.893 44.3437 178.946 44.0371C179.797 43.7896 180.39 43.5684 180.895 43.3155C180.984 43.3623 181.064 43.4182 181.154 43.4628C182.566 44.1396 184.061 44.4829 185.596 44.4829C186.983 44.4829 188.333 44.1978 189.645 43.6475C190.596 44.102 191.685 44.3398 192.909 44.3398C194.648 44.3398 195.924 43.8824 196.85 43.2919C197.774 43.878 199.029 44.3237 200.743 44.3237C201.974 44.3237 202.973 44.1005 203.782 43.7587C204.617 44.1118 205.607 44.3237 206.76 44.3237C208.048 44.3237 209.074 44.0704 209.903 43.698C209.958 43.7223 210.006 43.7516 210.062 43.7753C211.338 44.2871 212.752 44.5468 214.259 44.5468C215.977 44.5468 217.347 44.3167 218.466 43.9521C219.225 44.2034 220.056 44.3398 220.964 44.3398C224.42 44.3398 226.054 42.539 226.721 41.4658C226.751 41.4189 226.779 41.372 226.806 41.3242C227.227 40.5942 227.495 39.8374 227.601 39.0703C227.639 38.8232 227.665 38.5649 227.679 38.2841C228.905 37.7275 229.933 36.7695 230.614 35.5043C231.245 34.3354 231.565 33.1289 231.565 31.9184C231.565 30.2734 231 28.7715 229.968 27.6645Z" fill="#F7E7BC"/>
<path d="M13.745 45.8271V39.0346L32.604 32.6044L37.1211 41.1366L58.2008 49.6689V58.7329L31.0983 55.1898L8.51296 58.2011L6.50537 55.6916L8.01106 49.167L13.745 45.8271Z" fill="white"/>
<path d="M58.2358 52.1103V51.3461L33.3583 44.3838L58.2358 52.1103Z" fill="#030527"/>
<path d="M58.2358 53.7234V52.9593L33.3583 45.9969L58.2358 53.7234Z" fill="#030527"/>
<path d="M58.2358 55.4216V54.6574L33.4432 47.6951L58.2358 55.4216Z" fill="#030527"/>
<path d="M58.2358 57.1197V56.3555L33.4432 49.3932L58.2358 57.1197Z" fill="#030527"/>
<rect x="29.5964" y="13.6295" width="5.51514" height="4.69162" fill="#FFC760"/>
<path d="M31.7783 51.6544L58.6861 58.8865C49.8825 59.931 41.2858 63.022 32.2833 63.2124C24.0081 63.3874 15.8549 60.5513 7.64935 59.614C5.57239 59.3768 4.99561 55.8538 4.99953 54.3626C5.00741 51.3695 6.06947 47.7215 9.13737 46.7528L31.0813 39.8244C32.2793 39.4462 32.8105 38.0353 33.0008 36.7608C33.1455 35.7917 32.5327 34.2132 31.3359 33.4413L16.7359 38.121C14.0337 39.1291 13.5318 39.631 12.6036 38.6522L30.424 32.2654C31.3148 31.9461 33.0716 31.8512 33.9564 32.2009C39.1665 34.2604 44.4332 35.5669 49.3458 38.138C51.5998 39.3177 50.2641 43.5804 48.4951 44.8946C51.4068 47.5283 56.1695 46.417 59 50.1594L31.8851 42.0218L10.0821 48.7181C7.76737 49.429 7.33073 53.5223 7.82854 55.3584C8.05273 56.1852 9.11462 57.3613 9.71637 57.2098L31.7783 51.6544Z" fill="#030527"/>
<path d="M22.1445 34.309L14.8095 36.7348C13.4157 36.4667 11.3988 35.1162 10.3014 34.0079C8.8074 32.499 8.95056 30.3272 10.5004 28.9263C15.5032 24.4043 25.667 23.8223 32.4346 23.4946L23.1959 21.8152L26.1252 13.8605C25.4566 12.545 24.3515 10.8773 23.5098 9.71691L19.4421 10.6722C21.2409 8.2872 22.6939 6.87943 25.285 5C28.5525 7.39138 33.4607 8.52829 35.4359 12.0535L42.4423 24.5581C45.7858 25.0617 57.2813 28.334 54.1242 33.3744C53.3383 34.6291 50.9753 36.8598 49.3579 36.5876C46.7982 36.1568 44.2351 35.0217 41.8528 34.2074L42.1012 32.4949C42.1706 32.0168 41.032 31.2761 40.5432 31.1231C34.9296 29.3661 28.9137 29.3139 23.3075 31.12C22.8792 31.258 22.0583 31.8502 21.8781 32.2116C21.6979 32.573 21.983 33.4272 22.1445 34.309ZM31.7059 18.0185C32.6794 17.0992 34.0592 16.6192 35.2206 16.7291C34.3111 16.1839 33.4205 14.9204 33.054 13.7653C32.2004 14.4173 30.7378 14.8808 29.4517 14.9685C30.588 15.4222 31.4539 16.7723 31.7059 18.0185Z" fill="#43046C"/>
<path d="M9.68015 24.5107C9.31427 22.4243 8.08123 20.9841 5.55908 20.5163C7.9425 20.0887 9.33615 18.7831 9.69623 16.3339C10.3589 18.7687 11.4431 20.0169 13.8668 20.4854C11.7773 21.0589 10.5128 21.8304 9.68015 24.5107Z" fill="#FFC760"/>
<path d="M55.2356 43.0428C54.7567 42.1456 53.6208 41.0961 52.3464 40.4639C53.5793 40.2338 54.7711 39.1295 55.3045 37.9124C55.8472 39.1228 56.9161 40.1227 58.1057 40.4835C57.1672 41.056 56.0399 42.0414 55.2356 43.0428Z" fill="#FFC760"/>
<path d="M31.7056 18.0186C31.4536 16.7724 30.5878 15.4223 29.4514 14.9686C30.7375 14.8809 32.2001 14.4174 33.0537 13.7654C33.4202 14.9205 34.3108 16.184 35.2203 16.7292C34.0589 16.6194 32.6791 17.0993 31.7056 18.0186Z" fill="#FFC760"/>
<path d="M13.7449 40.9876V40.2234L31.0658 34.5347L13.7449 40.9876Z" fill="#030527"/>
<path d="M13.7449 42.6007V41.8366L31.0658 36.1478L13.7449 42.6007Z" fill="#030527"/>
<path d="M13.7449 44.2988V43.5347L30.9809 37.8459L13.7449 44.2988Z" fill="#030527"/>
<mask id="path-16-outside-1_14101_64745" maskUnits="userSpaceOnUse" x="64" y="26.097" width="51" height="18" fill="black">
<rect fill="white" x="64" y="26.097" width="51" height="18"/>
<path d="M78.5512 27.5692C78.644 27.7441 78.6962 27.9015 78.7078 28.0414C78.731 28.1813 78.7426 28.3854 78.7426 28.6535V38.3598C78.7426 39.1643 78.5223 39.6365 78.0816 39.7764C77.8612 39.8463 77.5829 39.8813 77.2466 39.8813C76.9103 39.8813 76.6435 39.8522 76.4464 39.7939C76.2492 39.7356 76.0985 39.6656 75.9941 39.584C75.8897 39.5024 75.8085 39.3858 75.7505 39.2342C75.6926 39.036 75.6636 38.7329 75.6636 38.3248V32.4661C75.3736 32.8275 74.9503 33.4046 74.3937 34.1975C73.837 34.9786 73.4833 35.4683 73.3325 35.6665C73.1818 35.8647 73.0774 36.0046 73.0194 36.0862C72.9614 36.1562 72.8165 36.2611 72.5845 36.401C72.3642 36.5293 72.1206 36.5934 71.8539 36.5934C71.5988 36.5934 71.361 36.5351 71.1407 36.4185C70.9319 36.2903 70.7812 36.1679 70.6884 36.0513L70.5492 35.8589C70.3173 35.5674 69.8592 34.9495 69.175 34.0051C68.4907 33.049 68.1196 32.536 68.0616 32.4661V38.3598C68.0616 38.6279 68.05 38.832 68.0269 38.9719C68.0153 39.1001 67.9631 39.2459 67.8703 39.4091C67.6963 39.7239 67.244 39.8813 66.5134 39.8813C65.806 39.8813 65.3653 39.7239 65.1914 39.4091C65.0986 39.2459 65.0406 39.0943 65.0174 38.9544C65.0058 38.8145 65 38.6046 65 38.3248V28.6186C65 28.3504 65.0058 28.1522 65.0174 28.0239C65.0406 27.884 65.0986 27.7266 65.1914 27.5518C65.3653 27.2486 65.8176 27.097 66.5482 27.097C66.8613 27.097 67.1281 27.1379 67.3484 27.2195C67.5804 27.2894 67.7311 27.3652 67.8007 27.4468L67.9051 27.5518L71.8539 32.7634C73.8254 30.1401 75.1417 28.4087 75.8027 27.5692C75.9999 27.2544 76.4638 27.097 77.1944 27.097C77.9366 27.097 78.3889 27.2544 78.5512 27.5692Z"/>
<path d="M86.0856 31.6616C86.1552 31.0087 86.6133 30.6822 87.4599 30.6822C87.9122 30.6822 88.2485 30.7172 88.4688 30.7872C88.6892 30.8571 88.8399 30.9795 88.9211 31.1544C89.0139 31.3293 89.0661 31.4867 89.0777 31.6266C89.1009 31.7549 89.1125 31.9531 89.1125 32.2212V38.3423C89.1125 38.6105 89.1009 38.8145 89.0777 38.9544C89.0661 39.0827 89.0197 39.2342 88.9385 39.4091C88.7762 39.7122 88.3761 39.8638 87.7382 39.8638C87.112 39.8638 86.6887 39.788 86.4683 39.6365C86.2596 39.4732 86.1378 39.24 86.103 38.9369C85.6739 39.5548 84.9549 39.8638 83.946 39.8638C82.9486 39.8638 82.0208 39.4033 81.1626 38.4822C80.3045 37.5611 79.8754 36.4943 79.8754 35.2818C79.8754 34.0576 80.3045 32.9907 81.1626 32.0813C82.0324 31.1603 82.9834 30.6997 84.0155 30.6997C84.4098 30.6997 84.7693 30.7697 85.0941 30.9096C85.4188 31.0495 85.6449 31.1836 85.7725 31.3118C85.9001 31.4284 86.0044 31.545 86.0856 31.6616ZM82.9196 35.2993C82.9196 35.684 83.0704 36.0338 83.3719 36.3486C83.6734 36.6517 84.0387 36.8033 84.4678 36.8033C84.8969 36.8033 85.2506 36.6459 85.529 36.3311C85.8189 36.0163 85.9639 35.6723 85.9639 35.2993C85.9639 34.9145 85.8247 34.5589 85.5464 34.2324C85.2796 33.906 84.9143 33.7428 84.4504 33.7428C83.9981 33.7428 83.627 33.906 83.3371 34.2324C83.0588 34.5589 82.9196 34.9145 82.9196 35.2993Z"/>
<path d="M96.3091 38.7445C95.8684 39.3275 95.1668 39.619 94.2042 39.619C93.2417 39.619 92.3371 39.1759 91.4905 38.2898C90.6555 37.3921 90.238 36.3486 90.238 35.1593C90.238 33.9701 90.6613 32.9266 91.5079 32.0289C92.3545 31.1311 93.2823 30.6822 94.2912 30.6822C94.6855 30.6822 95.045 30.758 95.3698 30.9096C95.6945 31.0495 95.9148 31.1836 96.0308 31.3118C96.1584 31.4284 96.2569 31.5392 96.3265 31.6441C96.3613 31.3177 96.4773 31.0728 96.6744 30.9096C96.8832 30.7347 97.2137 30.6473 97.666 30.6473C98.1183 30.6473 98.4488 30.6822 98.6575 30.7522C98.8663 30.8221 99.0113 30.9446 99.0924 31.1195C99.1852 31.2827 99.2374 31.4284 99.249 31.5567C99.2722 31.6849 99.2838 31.8831 99.2838 32.1513V39.3916C99.2838 40.7324 98.8199 41.8109 97.8921 42.627C96.9644 43.4548 95.9206 43.8687 94.7609 43.8687C93.8795 43.8687 93.0387 43.653 92.2385 43.2216C91.4383 42.7903 91.0382 42.3997 91.0382 42.0499C91.0382 41.5952 91.2122 41.193 91.5601 40.8432C91.7804 40.5983 91.9486 40.4293 92.0646 40.336C92.1921 40.2427 92.3371 40.1961 92.4995 40.1961C92.6618 40.1961 92.83 40.2661 93.0039 40.406C93.5606 40.8374 94.1637 41.053 94.8131 41.053C95.2538 41.053 95.6133 40.8782 95.8916 40.5284C96.17 40.1786 96.3091 39.7589 96.3091 39.2692V38.7445ZM93.2127 35.1768C93.2127 35.5499 93.3577 35.888 93.6476 36.1912C93.9491 36.4943 94.3086 36.6459 94.7261 36.6459C95.1552 36.6459 95.5089 36.4943 95.7873 36.1912C96.0656 35.8764 96.2047 35.5383 96.2047 35.1768C96.2047 34.8037 96.0714 34.4598 95.8046 34.145C95.5379 33.8185 95.1784 33.6553 94.7261 33.6553C94.2738 33.6553 93.9085 33.8127 93.6302 34.1275C93.3519 34.4423 93.2127 34.7921 93.2127 35.1768Z"/>
<path d="M109.56 35.2993C109.56 35.7889 109.723 36.1737 110.047 36.4535C110.372 36.7217 110.714 36.8558 111.074 36.8558C111.445 36.8558 111.787 36.7508 112.1 36.541C112.425 36.3194 112.686 36.2087 112.883 36.2087C113.231 36.2087 113.654 36.5176 114.153 37.1356C114.42 37.4737 114.553 37.7768 114.553 38.045C114.553 38.488 114.234 38.9019 113.596 39.2867C112.935 39.7531 112.123 39.9862 111.161 39.9862C110.082 39.9862 109.044 39.5957 108.047 38.8145C107.571 38.4414 107.183 37.9459 106.881 37.3279C106.58 36.6984 106.429 36.0105 106.429 35.2643C106.429 34.5064 106.58 33.8244 106.881 33.2181C107.183 32.6002 107.571 32.1047 108.047 31.7316C109.009 30.9621 110.036 30.5773 111.126 30.5773C111.567 30.5773 111.996 30.6414 112.413 30.7697C112.831 30.8863 113.138 31.0029 113.335 31.1195L113.614 31.2943C113.822 31.4342 113.985 31.545 114.101 31.6266C114.402 31.8598 114.553 32.128 114.553 32.4311C114.553 32.7226 114.431 33.0549 114.188 33.428C113.77 34.0692 113.37 34.3898 112.987 34.3898C112.767 34.3898 112.454 34.2616 112.048 34.0051C111.839 33.8069 111.538 33.7078 111.143 33.7078C110.761 33.7078 110.401 33.8477 110.065 34.1275C109.729 34.4073 109.56 34.7979 109.56 35.2993Z"/>
</mask>
<path d="M78.5512 27.5692C78.644 27.7441 78.6962 27.9015 78.7078 28.0414C78.731 28.1813 78.7426 28.3854 78.7426 28.6535V38.3598C78.7426 39.1643 78.5223 39.6365 78.0816 39.7764C77.8612 39.8463 77.5829 39.8813 77.2466 39.8813C76.9103 39.8813 76.6435 39.8522 76.4464 39.7939C76.2492 39.7356 76.0985 39.6656 75.9941 39.584C75.8897 39.5024 75.8085 39.3858 75.7505 39.2342C75.6926 39.036 75.6636 38.7329 75.6636 38.3248V32.4661C75.3736 32.8275 74.9503 33.4046 74.3937 34.1975C73.837 34.9786 73.4833 35.4683 73.3325 35.6665C73.1818 35.8647 73.0774 36.0046 73.0194 36.0862C72.9614 36.1562 72.8165 36.2611 72.5845 36.401C72.3642 36.5293 72.1206 36.5934 71.8539 36.5934C71.5988 36.5934 71.361 36.5351 71.1407 36.4185C70.9319 36.2903 70.7812 36.1679 70.6884 36.0513L70.5492 35.8589C70.3173 35.5674 69.8592 34.9495 69.175 34.0051C68.4907 33.049 68.1196 32.536 68.0616 32.4661V38.3598C68.0616 38.6279 68.05 38.832 68.0269 38.9719C68.0153 39.1001 67.9631 39.2459 67.8703 39.4091C67.6963 39.7239 67.244 39.8813 66.5134 39.8813C65.806 39.8813 65.3653 39.7239 65.1914 39.4091C65.0986 39.2459 65.0406 39.0943 65.0174 38.9544C65.0058 38.8145 65 38.6046 65 38.3248V28.6186C65 28.3504 65.0058 28.1522 65.0174 28.0239C65.0406 27.884 65.0986 27.7266 65.1914 27.5518C65.3653 27.2486 65.8176 27.097 66.5482 27.097C66.8613 27.097 67.1281 27.1379 67.3484 27.2195C67.5804 27.2894 67.7311 27.3652 67.8007 27.4468L67.9051 27.5518L71.8539 32.7634C73.8254 30.1401 75.1417 28.4087 75.8027 27.5692C75.9999 27.2544 76.4638 27.097 77.1944 27.097C77.9366 27.097 78.3889 27.2544 78.5512 27.5692Z" fill="#030527"/>
<path d="M86.0856 31.6616C86.1552 31.0087 86.6133 30.6822 87.4599 30.6822C87.9122 30.6822 88.2485 30.7172 88.4688 30.7872C88.6892 30.8571 88.8399 30.9795 88.9211 31.1544C89.0139 31.3293 89.0661 31.4867 89.0777 31.6266C89.1009 31.7549 89.1125 31.9531 89.1125 32.2212V38.3423C89.1125 38.6105 89.1009 38.8145 89.0777 38.9544C89.0661 39.0827 89.0197 39.2342 88.9385 39.4091C88.7762 39.7122 88.3761 39.8638 87.7382 39.8638C87.112 39.8638 86.6887 39.788 86.4683 39.6365C86.2596 39.4732 86.1378 39.24 86.103 38.9369C85.6739 39.5548 84.9549 39.8638 83.946 39.8638C82.9486 39.8638 82.0208 39.4033 81.1626 38.4822C80.3045 37.5611 79.8754 36.4943 79.8754 35.2818C79.8754 34.0576 80.3045 32.9907 81.1626 32.0813C82.0324 31.1603 82.9834 30.6997 84.0155 30.6997C84.4098 30.6997 84.7693 30.7697 85.0941 30.9096C85.4188 31.0495 85.6449 31.1836 85.7725 31.3118C85.9001 31.4284 86.0044 31.545 86.0856 31.6616ZM82.9196 35.2993C82.9196 35.684 83.0704 36.0338 83.3719 36.3486C83.6734 36.6517 84.0387 36.8033 84.4678 36.8033C84.8969 36.8033 85.2506 36.6459 85.529 36.3311C85.8189 36.0163 85.9639 35.6723 85.9639 35.2993C85.9639 34.9145 85.8247 34.5589 85.5464 34.2324C85.2796 33.906 84.9143 33.7428 84.4504 33.7428C83.9981 33.7428 83.627 33.906 83.3371 34.2324C83.0588 34.5589 82.9196 34.9145 82.9196 35.2993Z" fill="#030527"/>
<path d="M96.3091 38.7445C95.8684 39.3275 95.1668 39.619 94.2042 39.619C93.2417 39.619 92.3371 39.1759 91.4905 38.2898C90.6555 37.3921 90.238 36.3486 90.238 35.1593C90.238 33.9701 90.6613 32.9266 91.5079 32.0289C92.3545 31.1311 93.2823 30.6822 94.2912 30.6822C94.6855 30.6822 95.045 30.758 95.3698 30.9096C95.6945 31.0495 95.9148 31.1836 96.0308 31.3118C96.1584 31.4284 96.2569 31.5392 96.3265 31.6441C96.3613 31.3177 96.4773 31.0728 96.6744 30.9096C96.8832 30.7347 97.2137 30.6473 97.666 30.6473C98.1183 30.6473 98.4488 30.6822 98.6575 30.7522C98.8663 30.8221 99.0113 30.9446 99.0924 31.1195C99.1852 31.2827 99.2374 31.4284 99.249 31.5567C99.2722 31.6849 99.2838 31.8831 99.2838 32.1513V39.3916C99.2838 40.7324 98.8199 41.8109 97.8921 42.627C96.9644 43.4548 95.9206 43.8687 94.7609 43.8687C93.8795 43.8687 93.0387 43.653 92.2385 43.2216C91.4383 42.7903 91.0382 42.3997 91.0382 42.0499C91.0382 41.5952 91.2122 41.193 91.5601 40.8432C91.7804 40.5983 91.9486 40.4293 92.0646 40.336C92.1921 40.2427 92.3371 40.1961 92.4995 40.1961C92.6618 40.1961 92.83 40.2661 93.0039 40.406C93.5606 40.8374 94.1637 41.053 94.8131 41.053C95.2538 41.053 95.6133 40.8782 95.8916 40.5284C96.17 40.1786 96.3091 39.7589 96.3091 39.2692V38.7445ZM93.2127 35.1768C93.2127 35.5499 93.3577 35.888 93.6476 36.1912C93.9491 36.4943 94.3086 36.6459 94.7261 36.6459C95.1552 36.6459 95.5089 36.4943 95.7873 36.1912C96.0656 35.8764 96.2047 35.5383 96.2047 35.1768C96.2047 34.8037 96.0714 34.4598 95.8046 34.145C95.5379 33.8185 95.1784 33.6553 94.7261 33.6553C94.2738 33.6553 93.9085 33.8127 93.6302 34.1275C93.3519 34.4423 93.2127 34.7921 93.2127 35.1768Z" fill="#030527"/>
<path d="M109.56 35.2993C109.56 35.7889 109.723 36.1737 110.047 36.4535C110.372 36.7217 110.714 36.8558 111.074 36.8558C111.445 36.8558 111.787 36.7508 112.1 36.541C112.425 36.3194 112.686 36.2087 112.883 36.2087C113.231 36.2087 113.654 36.5176 114.153 37.1356C114.42 37.4737 114.553 37.7768 114.553 38.045C114.553 38.488 114.234 38.9019 113.596 39.2867C112.935 39.7531 112.123 39.9862 111.161 39.9862C110.082 39.9862 109.044 39.5957 108.047 38.8145C107.571 38.4414 107.183 37.9459 106.881 37.3279C106.58 36.6984 106.429 36.0105 106.429 35.2643C106.429 34.5064 106.58 33.8244 106.881 33.2181C107.183 32.6002 107.571 32.1047 108.047 31.7316C109.009 30.9621 110.036 30.5773 111.126 30.5773C111.567 30.5773 111.996 30.6414 112.413 30.7697C112.831 30.8863 113.138 31.0029 113.335 31.1195L113.614 31.2943C113.822 31.4342 113.985 31.545 114.101 31.6266C114.402 31.8598 114.553 32.128 114.553 32.4311C114.553 32.7226 114.431 33.0549 114.188 33.428C113.77 34.0692 113.37 34.3898 112.987 34.3898C112.767 34.3898 112.454 34.2616 112.048 34.0051C111.839 33.8069 111.538 33.7078 111.143 33.7078C110.761 33.7078 110.401 33.8477 110.065 34.1275C109.729 34.4073 109.56 34.7979 109.56 35.2993Z" fill="#030527"/>
<path d="M78.5512 27.5692C78.644 27.7441 78.6962 27.9015 78.7078 28.0414C78.731 28.1813 78.7426 28.3854 78.7426 28.6535V38.3598C78.7426 39.1643 78.5223 39.6365 78.0816 39.7764C77.8612 39.8463 77.5829 39.8813 77.2466 39.8813C76.9103 39.8813 76.6435 39.8522 76.4464 39.7939C76.2492 39.7356 76.0985 39.6656 75.9941 39.584C75.8897 39.5024 75.8085 39.3858 75.7505 39.2342C75.6926 39.036 75.6636 38.7329 75.6636 38.3248V32.4661C75.3736 32.8275 74.9503 33.4046 74.3937 34.1975C73.837 34.9786 73.4833 35.4683 73.3325 35.6665C73.1818 35.8647 73.0774 36.0046 73.0194 36.0862C72.9614 36.1562 72.8165 36.2611 72.5845 36.401C72.3642 36.5293 72.1206 36.5934 71.8539 36.5934C71.5988 36.5934 71.361 36.5351 71.1407 36.4185C70.9319 36.2903 70.7812 36.1679 70.6884 36.0513L70.5492 35.8589C70.3173 35.5674 69.8592 34.9495 69.175 34.0051C68.4907 33.049 68.1196 32.536 68.0616 32.4661V38.3598C68.0616 38.6279 68.05 38.832 68.0269 38.9719C68.0153 39.1001 67.9631 39.2459 67.8703 39.4091C67.6963 39.7239 67.244 39.8813 66.5134 39.8813C65.806 39.8813 65.3653 39.7239 65.1914 39.4091C65.0986 39.2459 65.0406 39.0943 65.0174 38.9544C65.0058 38.8145 65 38.6046 65 38.3248V28.6186C65 28.3504 65.0058 28.1522 65.0174 28.0239C65.0406 27.884 65.0986 27.7266 65.1914 27.5518C65.3653 27.2486 65.8176 27.097 66.5482 27.097C66.8613 27.097 67.1281 27.1379 67.3484 27.2195C67.5804 27.2894 67.7311 27.3652 67.8007 27.4468L67.9051 27.5518L71.8539 32.7634C73.8254 30.1401 75.1417 28.4087 75.8027 27.5692C75.9999 27.2544 76.4638 27.097 77.1944 27.097C77.9366 27.097 78.3889 27.2544 78.5512 27.5692Z" stroke="url(#paint0_linear_14101_64745)" stroke-width="0.4" mask="url(#path-16-outside-1_14101_64745)"/>
<path d="M86.0856 31.6616C86.1552 31.0087 86.6133 30.6822 87.4599 30.6822C87.9122 30.6822 88.2485 30.7172 88.4688 30.7872C88.6892 30.8571 88.8399 30.9795 88.9211 31.1544C89.0139 31.3293 89.0661 31.4867 89.0777 31.6266C89.1009 31.7549 89.1125 31.9531 89.1125 32.2212V38.3423C89.1125 38.6105 89.1009 38.8145 89.0777 38.9544C89.0661 39.0827 89.0197 39.2342 88.9385 39.4091C88.7762 39.7122 88.3761 39.8638 87.7382 39.8638C87.112 39.8638 86.6887 39.788 86.4683 39.6365C86.2596 39.4732 86.1378 39.24 86.103 38.9369C85.6739 39.5548 84.9549 39.8638 83.946 39.8638C82.9486 39.8638 82.0208 39.4033 81.1626 38.4822C80.3045 37.5611 79.8754 36.4943 79.8754 35.2818C79.8754 34.0576 80.3045 32.9907 81.1626 32.0813C82.0324 31.1603 82.9834 30.6997 84.0155 30.6997C84.4098 30.6997 84.7693 30.7697 85.0941 30.9096C85.4188 31.0495 85.6449 31.1836 85.7725 31.3118C85.9001 31.4284 86.0044 31.545 86.0856 31.6616ZM82.9196 35.2993C82.9196 35.684 83.0704 36.0338 83.3719 36.3486C83.6734 36.6517 84.0387 36.8033 84.4678 36.8033C84.8969 36.8033 85.2506 36.6459 85.529 36.3311C85.8189 36.0163 85.9639 35.6723 85.9639 35.2993C85.9639 34.9145 85.8247 34.5589 85.5464 34.2324C85.2796 33.906 84.9143 33.7428 84.4504 33.7428C83.9981 33.7428 83.627 33.906 83.3371 34.2324C83.0588 34.5589 82.9196 34.9145 82.9196 35.2993Z" stroke="url(#paint1_linear_14101_64745)" stroke-width="0.4" mask="url(#path-16-outside-1_14101_64745)"/>
<path d="M96.3091 38.7445C95.8684 39.3275 95.1668 39.619 94.2042 39.619C93.2417 39.619 92.3371 39.1759 91.4905 38.2898C90.6555 37.3921 90.238 36.3486 90.238 35.1593C90.238 33.9701 90.6613 32.9266 91.5079 32.0289C92.3545 31.1311 93.2823 30.6822 94.2912 30.6822C94.6855 30.6822 95.045 30.758 95.3698 30.9096C95.6945 31.0495 95.9148 31.1836 96.0308 31.3118C96.1584 31.4284 96.2569 31.5392 96.3265 31.6441C96.3613 31.3177 96.4773 31.0728 96.6744 30.9096C96.8832 30.7347 97.2137 30.6473 97.666 30.6473C98.1183 30.6473 98.4488 30.6822 98.6575 30.7522C98.8663 30.8221 99.0113 30.9446 99.0924 31.1195C99.1852 31.2827 99.2374 31.4284 99.249 31.5567C99.2722 31.6849 99.2838 31.8831 99.2838 32.1513V39.3916C99.2838 40.7324 98.8199 41.8109 97.8921 42.627C96.9644 43.4548 95.9206 43.8687 94.7609 43.8687C93.8795 43.8687 93.0387 43.653 92.2385 43.2216C91.4383 42.7903 91.0382 42.3997 91.0382 42.0499C91.0382 41.5952 91.2122 41.193 91.5601 40.8432C91.7804 40.5983 91.9486 40.4293 92.0646 40.336C92.1921 40.2427 92.3371 40.1961 92.4995 40.1961C92.6618 40.1961 92.83 40.2661 93.0039 40.406C93.5606 40.8374 94.1637 41.053 94.8131 41.053C95.2538 41.053 95.6133 40.8782 95.8916 40.5284C96.17 40.1786 96.3091 39.7589 96.3091 39.2692V38.7445ZM93.2127 35.1768C93.2127 35.5499 93.3577 35.888 93.6476 36.1912C93.9491 36.4943 94.3086 36.6459 94.7261 36.6459C95.1552 36.6459 95.5089 36.4943 95.7873 36.1912C96.0656 35.8764 96.2047 35.5383 96.2047 35.1768C96.2047 34.8037 96.0714 34.4598 95.8046 34.145C95.5379 33.8185 95.1784 33.6553 94.7261 33.6553C94.2738 33.6553 93.9085 33.8127 93.6302 34.1275C93.3519 34.4423 93.2127 34.7921 93.2127 35.1768Z" stroke="url(#paint2_linear_14101_64745)" stroke-width="0.4" mask="url(#path-16-outside-1_14101_64745)"/>
<path d="M109.56 35.2993C109.56 35.7889 109.723 36.1737 110.047 36.4535C110.372 36.7217 110.714 36.8558 111.074 36.8558C111.445 36.8558 111.787 36.7508 112.1 36.541C112.425 36.3194 112.686 36.2087 112.883 36.2087C113.231 36.2087 113.654 36.5176 114.153 37.1356C114.42 37.4737 114.553 37.7768 114.553 38.045C114.553 38.488 114.234 38.9019 113.596 39.2867C112.935 39.7531 112.123 39.9862 111.161 39.9862C110.082 39.9862 109.044 39.5957 108.047 38.8145C107.571 38.4414 107.183 37.9459 106.881 37.3279C106.58 36.6984 106.429 36.0105 106.429 35.2643C106.429 34.5064 106.58 33.8244 106.881 33.2181C107.183 32.6002 107.571 32.1047 108.047 31.7316C109.009 30.9621 110.036 30.5773 111.126 30.5773C111.567 30.5773 111.996 30.6414 112.413 30.7697C112.831 30.8863 113.138 31.0029 113.335 31.1195L113.614 31.2943C113.822 31.4342 113.985 31.545 114.101 31.6266C114.402 31.8598 114.553 32.128 114.553 32.4311C114.553 32.7226 114.431 33.0549 114.188 33.428C113.77 34.0692 113.37 34.3898 112.987 34.3898C112.767 34.3898 112.454 34.2616 112.048 34.0051C111.839 33.8069 111.538 33.7078 111.143 33.7078C110.761 33.7078 110.401 33.8477 110.065 34.1275C109.729 34.4073 109.56 34.7979 109.56 35.2993Z" stroke="url(#paint3_linear_14101_64745)" stroke-width="0.4" mask="url(#path-16-outside-1_14101_64745)"/>
<path d="M103.684 30.5426C104.243 30.6135 104.652 30.7654 104.882 31.0185L104.881 31.0183C105.08 31.2307 105.156 31.5211 105.126 31.8732L105.111 32.0938C105.103 32.1798 105.092 32.2785 105.079 32.389L104.316 38.4615C104.283 38.7241 104.245 38.9287 104.203 39.0722L104.204 39.0733C104.173 39.2164 104.093 39.3711 103.977 39.5376L103.977 39.5387C103.864 39.709 103.674 39.8135 103.428 39.8637C103.182 39.9139 102.87 39.9121 102.497 39.8647C102.128 39.818 101.829 39.7405 101.603 39.6273C101.377 39.5137 101.217 39.3609 101.145 39.1636L101.143 39.1595C101.083 38.9711 101.048 38.8048 101.04 38.6631L101.039 38.6541L101.04 38.6532C101.045 38.5197 101.065 38.3129 101.1 38.0357L101.865 31.9458C101.898 31.6794 101.929 31.4797 101.957 31.3492L101.959 31.3416C102.003 31.1947 102.078 31.0363 102.184 30.8681L102.187 30.8636C102.306 30.6959 102.5 30.5928 102.749 30.5431C102.998 30.4935 103.311 30.4952 103.684 30.5426Z" fill="#030527" stroke="url(#paint4_linear_14101_64745)" stroke-width="0.2"/>
<path d="M104.554 29.0874C104.65 28.2699 104.359 27.5984 103.491 27.1485C104.408 27.2495 105.06 26.9152 105.462 26.0417C105.435 27.0215 105.693 27.6052 106.526 28.0446C105.7 28.0301 105.153 28.1795 104.554 29.0874Z" fill="#030527"/>
<ellipse cx="102.259" cy="27.9746" rx="0.790713" ry="0.794942" fill="#030527"/>
<ellipse cx="103.841" cy="24.7949" rx="0.790713" ry="0.794942" fill="#030527"/>
<mask id="path-21-outside-2_14101_64745" maskUnits="userSpaceOnUse" x="118.093" y="26.2903" width="109" height="17" fill="black">
<rect fill="white" x="118.093" y="26.2903" width="109" height="17"/>
<path d="M119.539 37.5015C119.242 37.1622 119.093 36.86 119.093 36.5949C119.093 36.3192 119.339 35.9587 119.83 35.5133C120.116 35.2588 120.419 35.1316 120.739 35.1316C121.059 35.1316 121.505 35.3967 122.076 35.9269C122.236 36.1071 122.465 36.2821 122.762 36.4517C123.059 36.6108 123.333 36.6903 123.584 36.6903C124.647 36.6903 125.179 36.2874 125.179 35.4815C125.179 35.2376 125.03 35.0362 124.733 34.8771C124.447 34.7075 124.087 34.5855 123.653 34.5113C123.219 34.4371 122.75 34.3204 122.247 34.1614C121.745 33.9917 121.276 33.7956 120.842 33.5729C120.407 33.3502 120.042 33.0003 119.745 32.5231C119.459 32.0354 119.316 31.4522 119.316 30.7735C119.316 29.8404 119.688 29.0293 120.43 28.34C121.185 27.6402 122.207 27.2903 123.499 27.2903C124.184 27.2903 124.807 27.3751 125.367 27.5448C125.939 27.7038 126.333 27.8682 126.55 28.0378L126.979 28.34C127.333 28.6475 127.51 28.9073 127.51 29.1194C127.51 29.3315 127.373 29.6231 127.099 29.9942C126.71 30.5244 126.31 30.7895 125.899 30.7895C125.659 30.7895 125.362 30.6834 125.007 30.4713C124.973 30.4501 124.904 30.3971 124.802 30.3123C124.71 30.2275 124.624 30.1585 124.544 30.1055C124.304 29.9677 123.996 29.8988 123.619 29.8988C123.253 29.8988 122.944 29.9836 122.693 30.1532C122.453 30.3123 122.333 30.5403 122.333 30.8372C122.333 31.1235 122.476 31.3567 122.762 31.537C123.059 31.7173 123.424 31.8392 123.859 31.9028C124.293 31.9664 124.767 32.0672 125.282 32.205C125.796 32.3323 126.27 32.4913 126.704 32.6822C127.139 32.873 127.499 33.2071 127.784 33.6842C128.081 34.1508 128.23 34.7287 128.23 35.4179C128.23 36.1071 128.081 36.7168 127.784 37.247C127.487 37.7666 127.099 38.1695 126.619 38.4558C125.693 39.0178 124.704 39.2988 123.653 39.2988C123.116 39.2988 122.607 39.2405 122.127 39.1238C121.647 38.9966 121.259 38.8428 120.962 38.6626C120.356 38.3233 119.933 37.9946 119.693 37.6765L119.539 37.5015Z"/>
<path d="M134.255 33.5729L133.141 33.5093V35.7042C133.141 35.9905 133.186 36.1973 133.278 36.3245C133.381 36.4517 133.564 36.5154 133.826 36.5154C134.101 36.5154 134.306 36.526 134.443 36.5472C134.592 36.5578 134.746 36.6055 134.906 36.6903C135.169 36.8282 135.301 37.1834 135.301 37.756C135.301 38.424 135.141 38.8322 134.821 38.9807C134.649 39.0549 134.495 39.1026 134.358 39.1238C134.232 39.1344 134.044 39.1397 133.792 39.1397C132.604 39.1397 131.701 38.8906 131.084 38.3922C130.467 37.8938 130.158 37.0508 130.158 35.8632V33.5093C129.941 33.5411 129.707 33.557 129.455 33.557C129.204 33.557 128.992 33.4668 128.821 33.2866C128.661 33.1063 128.581 32.7988 128.581 32.3641C128.581 31.9293 128.61 31.6165 128.667 31.4257C128.724 31.2242 128.804 31.081 128.907 30.9962C129.089 30.8584 129.318 30.7895 129.592 30.7895L130.158 30.8531V29.2148C130.158 28.9709 130.164 28.7907 130.175 28.674C130.198 28.5574 130.255 28.4302 130.347 28.2923C130.495 28.0272 130.935 27.8947 131.666 27.8947C132.444 27.8947 132.906 28.0909 133.055 28.4832C133.112 28.6528 133.141 28.9232 133.141 29.2944V30.8531C133.644 30.8107 134.021 30.7895 134.272 30.7895C134.535 30.7895 134.729 30.8001 134.855 30.8213C134.992 30.8319 135.146 30.8796 135.318 30.9644C135.615 31.1023 135.763 31.5105 135.763 32.1891C135.763 32.8571 135.609 33.2654 135.301 33.4138C135.129 33.4881 134.975 33.5358 134.838 33.557C134.712 33.5676 134.518 33.5729 134.255 33.5729Z"/>
<path d="M136.453 34.9566C136.453 33.6842 136.933 32.6345 137.893 31.8074C138.853 30.9803 139.95 30.5668 141.184 30.5668C142.418 30.5668 143.51 30.9803 144.458 31.8074C145.407 32.6239 145.881 33.6683 145.881 34.9407C145.881 35.8208 145.635 36.6055 145.144 37.2947C144.652 37.9734 144.052 38.477 143.344 38.8057C142.647 39.1238 141.921 39.2829 141.167 39.2829C140.413 39.2829 139.681 39.1132 138.973 38.7739C138.264 38.424 137.664 37.915 137.173 37.247C136.693 36.5684 136.453 35.8049 136.453 34.9566ZM140.036 36.1018C140.401 36.3563 140.773 36.4836 141.15 36.4836C141.527 36.4836 141.904 36.351 142.281 36.0859C142.658 35.8208 142.847 35.4285 142.847 34.9089C142.847 34.3894 142.67 34.0023 142.315 33.7478C141.961 33.4934 141.578 33.3661 141.167 33.3661C140.755 33.3661 140.373 33.4987 140.018 33.7637C139.664 34.0288 139.487 34.4212 139.487 34.9407C139.487 35.4497 139.67 35.8367 140.036 36.1018Z"/>
<path d="M153.125 30.8531C153.342 30.9167 153.52 31.028 153.657 31.1871C153.805 31.3355 153.88 31.5794 153.88 31.9187C153.88 32.258 153.771 32.6292 153.554 33.0321C153.337 33.435 153.022 33.6365 152.611 33.6365C152.405 33.6365 152.205 33.5941 152.011 33.5093C151.828 33.4244 151.583 33.382 151.274 33.382C150.965 33.382 150.674 33.4828 150.4 33.6842C150.137 33.8857 150.005 34.1296 150.005 34.4159V37.756C150.005 37.9999 149.994 38.1854 149.971 38.3127C149.96 38.4293 149.908 38.5671 149.817 38.7262C149.645 39.0019 149.2 39.1397 148.48 39.1397C147.931 39.1397 147.537 39.0496 147.297 38.8693C147.114 38.7209 147.011 38.4929 146.988 38.1854C146.988 38.0794 146.988 37.9256 146.988 37.7242V32.1414C146.988 31.8975 146.994 31.7173 147.006 31.6006C147.028 31.4734 147.08 31.3355 147.16 31.1871C147.32 30.9008 147.766 30.7576 148.497 30.7576C149.183 30.7576 149.611 30.8796 149.783 31.1235C149.908 31.2931 149.971 31.4681 149.971 31.6483C150.028 31.5741 150.108 31.484 150.211 31.3779C150.325 31.2719 150.56 31.1288 150.914 30.9485C151.268 30.7682 151.577 30.6781 151.84 30.6781C152.114 30.6781 152.342 30.694 152.525 30.7258C152.708 30.747 152.908 30.7895 153.125 30.8531Z"/>
<path d="M163.222 30.8531C163.897 31.1288 164.234 31.4628 164.234 31.8551C164.234 32.046 164.188 32.2262 164.097 32.3959C164.005 32.5655 163.96 32.6557 163.96 32.6663L159.468 41.9868C159.377 42.1883 159.297 42.342 159.228 42.448C159.171 42.5541 159.074 42.6548 158.937 42.7502C158.8 42.8457 158.628 42.8934 158.423 42.8934C158.217 42.8934 157.914 42.8139 157.514 42.6548C156.84 42.3791 156.503 42.0504 156.503 41.6687C156.503 41.4142 157.051 40.2001 158.148 38.0264L154.737 32.6981C154.509 32.3482 154.394 32.0884 154.394 31.9187C154.394 31.5794 154.703 31.2401 155.32 30.9008C155.709 30.6887 156.011 30.5827 156.229 30.5827C156.446 30.5827 156.623 30.6251 156.76 30.7099C156.897 30.7948 156.994 30.8849 157.051 30.9803C157.12 31.0651 157.434 31.5582 157.994 32.4595C158.566 33.3502 159.108 34.1826 159.623 34.9566C159.68 34.787 159.988 34.1349 160.548 33.0003C161.108 31.8551 161.405 31.2454 161.44 31.1712C161.485 31.097 161.554 31.0068 161.645 30.9008C161.794 30.7205 162 30.6304 162.263 30.6304C162.537 30.6304 162.857 30.7046 163.222 30.8531Z"/>
<path d="M177.355 36.0859L177.664 35.8792C178.052 35.6671 178.326 35.561 178.486 35.561C178.841 35.561 179.224 35.8579 179.635 36.4517C179.886 36.8229 180.012 37.1198 180.012 37.3424C180.012 37.5651 179.932 37.7507 179.772 37.8991C179.624 38.0476 179.446 38.1801 179.241 38.2968C179.035 38.4134 178.835 38.5247 178.641 38.6308C178.458 38.7368 178.075 38.8747 177.492 39.0443C176.909 39.214 176.344 39.2988 175.795 39.2988C175.258 39.2988 174.709 39.2352 174.15 39.1079C173.601 38.9701 173.03 38.7474 172.435 38.4399C171.852 38.1218 171.327 37.7401 170.858 37.2947C170.39 36.8388 170.001 36.2609 169.693 35.561C169.395 34.8506 169.247 34.0819 169.247 33.2548C169.247 32.4277 169.395 31.6801 169.693 31.0121C169.99 30.3335 170.367 29.7768 170.824 29.3421C171.293 28.8967 171.824 28.5256 172.418 28.2287C173.538 27.6561 174.664 27.3698 175.795 27.3698C176.332 27.3698 176.875 27.4493 177.424 27.6084C177.984 27.7568 178.406 27.9106 178.692 28.0696L179.104 28.2923C179.309 28.409 179.469 28.5044 179.584 28.5786C179.881 28.8013 180.029 29.0558 180.029 29.3421C180.029 29.6178 179.909 29.9094 179.669 30.2169C179.224 30.7895 178.824 31.0757 178.469 31.0757C178.264 31.0757 177.972 30.9591 177.595 30.7258C177.115 30.3653 176.475 30.1851 175.675 30.1851C174.932 30.1851 174.201 30.4236 173.481 30.9008C173.138 31.1341 172.852 31.4628 172.624 31.8869C172.395 32.3111 172.281 32.7935 172.281 33.3343C172.281 33.8645 172.395 34.3416 172.624 34.7658C172.852 35.1899 173.144 35.5239 173.498 35.7678C174.195 36.2344 174.921 36.4676 175.675 36.4676C176.029 36.4676 176.361 36.4252 176.669 36.3404C176.989 36.2556 177.218 36.1707 177.355 36.0859Z"/>
<path d="M180.881 34.9566C180.881 33.6842 181.361 32.6345 182.321 31.8074C183.281 30.9803 184.378 30.5668 185.613 30.5668C186.847 30.5668 187.938 30.9803 188.887 31.8074C189.835 32.6239 190.309 33.6683 190.309 34.9407C190.309 35.8208 190.064 36.6055 189.572 37.2947C189.081 37.9734 188.481 38.477 187.772 38.8057C187.075 39.1238 186.35 39.2829 185.595 39.2829C184.841 39.2829 184.11 39.1132 183.401 38.7739C182.693 38.424 182.093 37.915 181.601 37.247C181.121 36.5684 180.881 35.8049 180.881 34.9566ZM184.464 36.1018C184.83 36.3563 185.201 36.4836 185.578 36.4836C185.955 36.4836 186.333 36.351 186.71 36.0859C187.087 35.8208 187.275 35.4285 187.275 34.9089C187.275 34.3894 187.098 34.0023 186.744 33.7478C186.39 33.4934 186.007 33.3661 185.595 33.3661C185.184 33.3661 184.801 33.4987 184.447 33.7637C184.093 34.0288 183.915 34.4212 183.915 34.9407C183.915 35.4497 184.098 35.8367 184.464 36.1018Z"/>
<path d="M197.554 30.8531C197.771 30.9167 197.948 31.028 198.085 31.1871C198.234 31.3355 198.308 31.5794 198.308 31.9187C198.308 32.258 198.199 32.6292 197.982 33.0321C197.765 33.435 197.451 33.6365 197.04 33.6365C196.834 33.6365 196.634 33.5941 196.44 33.5093C196.257 33.4244 196.011 33.382 195.702 33.382C195.394 33.382 195.102 33.4828 194.828 33.6842C194.565 33.8857 194.434 34.1296 194.434 34.4159V37.756C194.434 37.9999 194.423 38.1854 194.4 38.3127C194.388 38.4293 194.337 38.5671 194.245 38.7262C194.074 39.0019 193.628 39.1397 192.908 39.1397C192.36 39.1397 191.966 39.0496 191.726 38.8693C191.543 38.7209 191.44 38.4929 191.417 38.1854C191.417 38.0794 191.417 37.9256 191.417 37.7242V32.1414C191.417 31.8975 191.423 31.7173 191.434 31.6006C191.457 31.4734 191.508 31.3355 191.588 31.1871C191.748 30.9008 192.194 30.7576 192.925 30.7576C193.611 30.7576 194.04 30.8796 194.211 31.1235C194.337 31.2931 194.4 31.4681 194.4 31.6483C194.457 31.5741 194.537 31.484 194.64 31.3779C194.754 31.2719 194.988 31.1288 195.342 30.9485C195.697 30.7682 196.005 30.6781 196.268 30.6781C196.542 30.6781 196.771 30.694 196.954 30.7258C197.137 30.747 197.337 30.7895 197.554 30.8531Z"/>
<path d="M204.274 30.7576C205.417 30.7576 206.365 31.1659 207.12 31.9824C207.885 32.7882 208.268 33.7743 208.268 34.9407V37.7401C208.268 37.984 208.257 38.1695 208.234 38.2968C208.222 38.4134 208.177 38.5459 208.097 38.6944C207.937 38.9807 207.491 39.1238 206.76 39.1238C205.948 39.1238 205.48 38.9277 205.354 38.5353C205.285 38.3551 205.251 38.0847 205.251 37.7242V34.9248C205.251 34.4901 205.114 34.1508 204.84 33.9069C204.577 33.663 204.217 33.5411 203.76 33.5411C203.314 33.5411 202.948 33.6683 202.663 33.9228C202.388 34.1773 202.251 34.5113 202.251 34.9248V37.7401C202.251 37.984 202.24 38.1695 202.217 38.2968C202.206 38.4134 202.154 38.5459 202.063 38.6944C201.914 38.9807 201.474 39.1238 200.743 39.1238C200.023 39.1238 199.583 38.9807 199.423 38.6944C199.343 38.5353 199.291 38.3975 199.269 38.2809C199.257 38.1536 199.251 37.968 199.251 37.7242V32.0937C199.251 31.8604 199.257 31.6855 199.269 31.5688C199.291 31.4416 199.349 31.3037 199.44 31.1553C199.6 30.8902 200.04 30.7576 200.76 30.7576C201.457 30.7576 201.886 30.8796 202.046 31.1235C202.16 31.3037 202.217 31.5211 202.217 31.7756C202.263 31.7014 202.366 31.5953 202.526 31.4575C202.685 31.3196 202.84 31.2083 202.988 31.1235C203.377 30.8796 203.805 30.7576 204.274 30.7576Z"/>
<path d="M218.355 33.9546C218.355 34.6014 218.178 35.0839 217.824 35.402C217.481 35.7095 217.098 35.8632 216.675 35.8632H212.613C212.613 36.1601 212.801 36.4093 213.178 36.6108C213.555 36.8123 213.933 36.913 214.31 36.913C214.972 36.913 215.492 36.8494 215.87 36.7221L216.058 36.6585C216.332 36.5419 216.561 36.4836 216.744 36.4836C217.11 36.4836 217.424 36.7221 217.687 37.1993C217.835 37.4856 217.909 37.7295 217.909 37.9309C217.909 38.8747 216.692 39.3465 214.258 39.3465C213.413 39.3465 212.658 39.214 211.996 38.9489C211.344 38.6732 210.836 38.3127 210.47 37.8673C209.75 37.0084 209.39 36.0488 209.39 34.9885C209.39 33.6524 209.853 32.5868 210.778 31.7915C211.716 30.9856 212.881 30.5827 214.275 30.5827C215.864 30.5827 217.03 31.1023 217.772 32.1414C218.161 32.6928 218.355 33.2972 218.355 33.9546ZM214.738 34.4159C215.172 34.4159 215.39 34.2462 215.39 33.9069C215.39 33.663 215.287 33.4668 215.081 33.3184C214.887 33.1699 214.601 33.0957 214.224 33.0957C213.858 33.0957 213.493 33.2389 213.127 33.5252C212.761 33.8009 212.578 34.0978 212.578 34.4159H214.738Z"/>
<path d="M225.61 30.8531C225.828 30.9167 226.005 31.028 226.142 31.1871C226.29 31.3355 226.365 31.5794 226.365 31.9187C226.365 32.258 226.256 32.6292 226.039 33.0321C225.822 33.435 225.508 33.6365 225.096 33.6365C224.89 33.6365 224.69 33.5941 224.496 33.5093C224.313 33.4244 224.068 33.382 223.759 33.382C223.45 33.382 223.159 33.4828 222.885 33.6842C222.622 33.8857 222.491 34.1296 222.491 34.4159V37.756C222.491 37.9999 222.479 38.1854 222.456 38.3127C222.445 38.4293 222.393 38.5671 222.302 38.7262C222.131 39.0019 221.685 39.1397 220.965 39.1397C220.416 39.1397 220.022 39.0496 219.782 38.8693C219.599 38.7209 219.496 38.4929 219.474 38.1854C219.474 38.0794 219.474 37.9256 219.474 37.7242V32.1414C219.474 31.8975 219.479 31.7173 219.491 31.6006C219.514 31.4734 219.565 31.3355 219.645 31.1871C219.805 30.9008 220.251 30.7576 220.982 30.7576C221.668 30.7576 222.096 30.8796 222.268 31.1235C222.393 31.2931 222.456 31.4681 222.456 31.6483C222.513 31.5741 222.593 31.484 222.696 31.3779C222.811 31.2719 223.045 31.1288 223.399 30.9485C223.753 30.7682 224.062 30.6781 224.325 30.6781C224.599 30.6781 224.828 30.694 225.01 30.7258C225.193 30.747 225.393 30.7895 225.61 30.8531Z"/>
</mask>
<path d="M119.539 37.5015C119.242 37.1622 119.093 36.86 119.093 36.5949C119.093 36.3192 119.339 35.9587 119.83 35.5133C120.116 35.2588 120.419 35.1316 120.739 35.1316C121.059 35.1316 121.505 35.3967 122.076 35.9269C122.236 36.1071 122.465 36.2821 122.762 36.4517C123.059 36.6108 123.333 36.6903 123.584 36.6903C124.647 36.6903 125.179 36.2874 125.179 35.4815C125.179 35.2376 125.03 35.0362 124.733 34.8771C124.447 34.7075 124.087 34.5855 123.653 34.5113C123.219 34.4371 122.75 34.3204 122.247 34.1614C121.745 33.9917 121.276 33.7956 120.842 33.5729C120.407 33.3502 120.042 33.0003 119.745 32.5231C119.459 32.0354 119.316 31.4522 119.316 30.7735C119.316 29.8404 119.688 29.0293 120.43 28.34C121.185 27.6402 122.207 27.2903 123.499 27.2903C124.184 27.2903 124.807 27.3751 125.367 27.5448C125.939 27.7038 126.333 27.8682 126.55 28.0378L126.979 28.34C127.333 28.6475 127.51 28.9073 127.51 29.1194C127.51 29.3315 127.373 29.6231 127.099 29.9942C126.71 30.5244 126.31 30.7895 125.899 30.7895C125.659 30.7895 125.362 30.6834 125.007 30.4713C124.973 30.4501 124.904 30.3971 124.802 30.3123C124.71 30.2275 124.624 30.1585 124.544 30.1055C124.304 29.9677 123.996 29.8988 123.619 29.8988C123.253 29.8988 122.944 29.9836 122.693 30.1532C122.453 30.3123 122.333 30.5403 122.333 30.8372C122.333 31.1235 122.476 31.3567 122.762 31.537C123.059 31.7173 123.424 31.8392 123.859 31.9028C124.293 31.9664 124.767 32.0672 125.282 32.205C125.796 32.3323 126.27 32.4913 126.704 32.6822C127.139 32.873 127.499 33.2071 127.784 33.6842C128.081 34.1508 128.23 34.7287 128.23 35.4179C128.23 36.1071 128.081 36.7168 127.784 37.247C127.487 37.7666 127.099 38.1695 126.619 38.4558C125.693 39.0178 124.704 39.2988 123.653 39.2988C123.116 39.2988 122.607 39.2405 122.127 39.1238C121.647 38.9966 121.259 38.8428 120.962 38.6626C120.356 38.3233 119.933 37.9946 119.693 37.6765L119.539 37.5015Z" fill="#030527"/>
<path d="M134.255 33.5729L133.141 33.5093V35.7042C133.141 35.9905 133.186 36.1973 133.278 36.3245C133.381 36.4517 133.564 36.5154 133.826 36.5154C134.101 36.5154 134.306 36.526 134.443 36.5472C134.592 36.5578 134.746 36.6055 134.906 36.6903C135.169 36.8282 135.301 37.1834 135.301 37.756C135.301 38.424 135.141 38.8322 134.821 38.9807C134.649 39.0549 134.495 39.1026 134.358 39.1238C134.232 39.1344 134.044 39.1397 133.792 39.1397C132.604 39.1397 131.701 38.8906 131.084 38.3922C130.467 37.8938 130.158 37.0508 130.158 35.8632V33.5093C129.941 33.5411 129.707 33.557 129.455 33.557C129.204 33.557 128.992 33.4668 128.821 33.2866C128.661 33.1063 128.581 32.7988 128.581 32.3641C128.581 31.9293 128.61 31.6165 128.667 31.4257C128.724 31.2242 128.804 31.081 128.907 30.9962C129.089 30.8584 129.318 30.7895 129.592 30.7895L130.158 30.8531V29.2148C130.158 28.9709 130.164 28.7907 130.175 28.674C130.198 28.5574 130.255 28.4302 130.347 28.2923C130.495 28.0272 130.935 27.8947 131.666 27.8947C132.444 27.8947 132.906 28.0909 133.055 28.4832C133.112 28.6528 133.141 28.9232 133.141 29.2944V30.8531C133.644 30.8107 134.021 30.7895 134.272 30.7895C134.535 30.7895 134.729 30.8001 134.855 30.8213C134.992 30.8319 135.146 30.8796 135.318 30.9644C135.615 31.1023 135.763 31.5105 135.763 32.1891C135.763 32.8571 135.609 33.2654 135.301 33.4138C135.129 33.4881 134.975 33.5358 134.838 33.557C134.712 33.5676 134.518 33.5729 134.255 33.5729Z" fill="#030527"/>
<path d="M136.453 34.9566C136.453 33.6842 136.933 32.6345 137.893 31.8074C138.853 30.9803 139.95 30.5668 141.184 30.5668C142.418 30.5668 143.51 30.9803 144.458 31.8074C145.407 32.6239 145.881 33.6683 145.881 34.9407C145.881 35.8208 145.635 36.6055 145.144 37.2947C144.652 37.9734 144.052 38.477 143.344 38.8057C142.647 39.1238 141.921 39.2829 141.167 39.2829C140.413 39.2829 139.681 39.1132 138.973 38.7739C138.264 38.424 137.664 37.915 137.173 37.247C136.693 36.5684 136.453 35.8049 136.453 34.9566ZM140.036 36.1018C140.401 36.3563 140.773 36.4836 141.15 36.4836C141.527 36.4836 141.904 36.351 142.281 36.0859C142.658 35.8208 142.847 35.4285 142.847 34.9089C142.847 34.3894 142.67 34.0023 142.315 33.7478C141.961 33.4934 141.578 33.3661 141.167 33.3661C140.755 33.3661 140.373 33.4987 140.018 33.7637C139.664 34.0288 139.487 34.4212 139.487 34.9407C139.487 35.4497 139.67 35.8367 140.036 36.1018Z" fill="#030527"/>
<path d="M153.125 30.8531C153.342 30.9167 153.52 31.028 153.657 31.1871C153.805 31.3355 153.88 31.5794 153.88 31.9187C153.88 32.258 153.771 32.6292 153.554 33.0321C153.337 33.435 153.022 33.6365 152.611 33.6365C152.405 33.6365 152.205 33.5941 152.011 33.5093C151.828 33.4244 151.583 33.382 151.274 33.382C150.965 33.382 150.674 33.4828 150.4 33.6842C150.137 33.8857 150.005 34.1296 150.005 34.4159V37.756C150.005 37.9999 149.994 38.1854 149.971 38.3127C149.96 38.4293 149.908 38.5671 149.817 38.7262C149.645 39.0019 149.2 39.1397 148.48 39.1397C147.931 39.1397 147.537 39.0496 147.297 38.8693C147.114 38.7209 147.011 38.4929 146.988 38.1854C146.988 38.0794 146.988 37.9256 146.988 37.7242V32.1414C146.988 31.8975 146.994 31.7173 147.006 31.6006C147.028 31.4734 147.08 31.3355 147.16 31.1871C147.32 30.9008 147.766 30.7576 148.497 30.7576C149.183 30.7576 149.611 30.8796 149.783 31.1235C149.908 31.2931 149.971 31.4681 149.971 31.6483C150.028 31.5741 150.108 31.484 150.211 31.3779C150.325 31.2719 150.56 31.1288 150.914 30.9485C151.268 30.7682 151.577 30.6781 151.84 30.6781C152.114 30.6781 152.342 30.694 152.525 30.7258C152.708 30.747 152.908 30.7895 153.125 30.8531Z" fill="#030527"/>
<path d="M163.222 30.8531C163.897 31.1288 164.234 31.4628 164.234 31.8551C164.234 32.046 164.188 32.2262 164.097 32.3959C164.005 32.5655 163.96 32.6557 163.96 32.6663L159.468 41.9868C159.377 42.1883 159.297 42.342 159.228 42.448C159.171 42.5541 159.074 42.6548 158.937 42.7502C158.8 42.8457 158.628 42.8934 158.423 42.8934C158.217 42.8934 157.914 42.8139 157.514 42.6548C156.84 42.3791 156.503 42.0504 156.503 41.6687C156.503 41.4142 157.051 40.2001 158.148 38.0264L154.737 32.6981C154.509 32.3482 154.394 32.0884 154.394 31.9187C154.394 31.5794 154.703 31.2401 155.32 30.9008C155.709 30.6887 156.011 30.5827 156.229 30.5827C156.446 30.5827 156.623 30.6251 156.76 30.7099C156.897 30.7948 156.994 30.8849 157.051 30.9803C157.12 31.0651 157.434 31.5582 157.994 32.4595C158.566 33.3502 159.108 34.1826 159.623 34.9566C159.68 34.787 159.988 34.1349 160.548 33.0003C161.108 31.8551 161.405 31.2454 161.44 31.1712C161.485 31.097 161.554 31.0068 161.645 30.9008C161.794 30.7205 162 30.6304 162.263 30.6304C162.537 30.6304 162.857 30.7046 163.222 30.8531Z" fill="#030527"/>
<path d="M177.355 36.0859L177.664 35.8792C178.052 35.6671 178.326 35.561 178.486 35.561C178.841 35.561 179.224 35.8579 179.635 36.4517C179.886 36.8229 180.012 37.1198 180.012 37.3424C180.012 37.5651 179.932 37.7507 179.772 37.8991C179.624 38.0476 179.446 38.1801 179.241 38.2968C179.035 38.4134 178.835 38.5247 178.641 38.6308C178.458 38.7368 178.075 38.8747 177.492 39.0443C176.909 39.214 176.344 39.2988 175.795 39.2988C175.258 39.2988 174.709 39.2352 174.15 39.1079C173.601 38.9701 173.03 38.7474 172.435 38.4399C171.852 38.1218 171.327 37.7401 170.858 37.2947C170.39 36.8388 170.001 36.2609 169.693 35.561C169.395 34.8506 169.247 34.0819 169.247 33.2548C169.247 32.4277 169.395 31.6801 169.693 31.0121C169.99 30.3335 170.367 29.7768 170.824 29.3421C171.293 28.8967 171.824 28.5256 172.418 28.2287C173.538 27.6561 174.664 27.3698 175.795 27.3698C176.332 27.3698 176.875 27.4493 177.424 27.6084C177.984 27.7568 178.406 27.9106 178.692 28.0696L179.104 28.2923C179.309 28.409 179.469 28.5044 179.584 28.5786C179.881 28.8013 180.029 29.0558 180.029 29.3421C180.029 29.6178 179.909 29.9094 179.669 30.2169C179.224 30.7895 178.824 31.0757 178.469 31.0757C178.264 31.0757 177.972 30.9591 177.595 30.7258C177.115 30.3653 176.475 30.1851 175.675 30.1851C174.932 30.1851 174.201 30.4236 173.481 30.9008C173.138 31.1341 172.852 31.4628 172.624 31.8869C172.395 32.3111 172.281 32.7935 172.281 33.3343C172.281 33.8645 172.395 34.3416 172.624 34.7658C172.852 35.1899 173.144 35.5239 173.498 35.7678C174.195 36.2344 174.921 36.4676 175.675 36.4676C176.029 36.4676 176.361 36.4252 176.669 36.3404C176.989 36.2556 177.218 36.1707 177.355 36.0859Z" fill="#030527"/>
<path d="M180.881 34.9566C180.881 33.6842 181.361 32.6345 182.321 31.8074C183.281 30.9803 184.378 30.5668 185.613 30.5668C186.847 30.5668 187.938 30.9803 188.887 31.8074C189.835 32.6239 190.309 33.6683 190.309 34.9407C190.309 35.8208 190.064 36.6055 189.572 37.2947C189.081 37.9734 188.481 38.477 187.772 38.8057C187.075 39.1238 186.35 39.2829 185.595 39.2829C184.841 39.2829 184.11 39.1132 183.401 38.7739C182.693 38.424 182.093 37.915 181.601 37.247C181.121 36.5684 180.881 35.8049 180.881 34.9566ZM184.464 36.1018C184.83 36.3563 185.201 36.4836 185.578 36.4836C185.955 36.4836 186.333 36.351 186.71 36.0859C187.087 35.8208 187.275 35.4285 187.275 34.9089C187.275 34.3894 187.098 34.0023 186.744 33.7478C186.39 33.4934 186.007 33.3661 185.595 33.3661C185.184 33.3661 184.801 33.4987 184.447 33.7637C184.093 34.0288 183.915 34.4212 183.915 34.9407C183.915 35.4497 184.098 35.8367 184.464 36.1018Z" fill="#030527"/>
<path d="M197.554 30.8531C197.771 30.9167 197.948 31.028 198.085 31.1871C198.234 31.3355 198.308 31.5794 198.308 31.9187C198.308 32.258 198.199 32.6292 197.982 33.0321C197.765 33.435 197.451 33.6365 197.04 33.6365C196.834 33.6365 196.634 33.5941 196.44 33.5093C196.257 33.4244 196.011 33.382 195.702 33.382C195.394 33.382 195.102 33.4828 194.828 33.6842C194.565 33.8857 194.434 34.1296 194.434 34.4159V37.756C194.434 37.9999 194.423 38.1854 194.4 38.3127C194.388 38.4293 194.337 38.5671 194.245 38.7262C194.074 39.0019 193.628 39.1397 192.908 39.1397C192.36 39.1397 191.966 39.0496 191.726 38.8693C191.543 38.7209 191.44 38.4929 191.417 38.1854C191.417 38.0794 191.417 37.9256 191.417 37.7242V32.1414C191.417 31.8975 191.423 31.7173 191.434 31.6006C191.457 31.4734 191.508 31.3355 191.588 31.1871C191.748 30.9008 192.194 30.7576 192.925 30.7576C193.611 30.7576 194.04 30.8796 194.211 31.1235C194.337 31.2931 194.4 31.4681 194.4 31.6483C194.457 31.5741 194.537 31.484 194.64 31.3779C194.754 31.2719 194.988 31.1288 195.342 30.9485C195.697 30.7682 196.005 30.6781 196.268 30.6781C196.542 30.6781 196.771 30.694 196.954 30.7258C197.137 30.747 197.337 30.7895 197.554 30.8531Z" fill="#030527"/>
<path d="M204.274 30.7576C205.417 30.7576 206.365 31.1659 207.12 31.9824C207.885 32.7882 208.268 33.7743 208.268 34.9407V37.7401C208.268 37.984 208.257 38.1695 208.234 38.2968C208.222 38.4134 208.177 38.5459 208.097 38.6944C207.937 38.9807 207.491 39.1238 206.76 39.1238C205.948 39.1238 205.48 38.9277 205.354 38.5353C205.285 38.3551 205.251 38.0847 205.251 37.7242V34.9248C205.251 34.4901 205.114 34.1508 204.84 33.9069C204.577 33.663 204.217 33.5411 203.76 33.5411C203.314 33.5411 202.948 33.6683 202.663 33.9228C202.388 34.1773 202.251 34.5113 202.251 34.9248V37.7401C202.251 37.984 202.24 38.1695 202.217 38.2968C202.206 38.4134 202.154 38.5459 202.063 38.6944C201.914 38.9807 201.474 39.1238 200.743 39.1238C200.023 39.1238 199.583 38.9807 199.423 38.6944C199.343 38.5353 199.291 38.3975 199.269 38.2809C199.257 38.1536 199.251 37.968 199.251 37.7242V32.0937C199.251 31.8604 199.257 31.6855 199.269 31.5688C199.291 31.4416 199.349 31.3037 199.44 31.1553C199.6 30.8902 200.04 30.7576 200.76 30.7576C201.457 30.7576 201.886 30.8796 202.046 31.1235C202.16 31.3037 202.217 31.5211 202.217 31.7756C202.263 31.7014 202.366 31.5953 202.526 31.4575C202.685 31.3196 202.84 31.2083 202.988 31.1235C203.377 30.8796 203.805 30.7576 204.274 30.7576Z" fill="#030527"/>
<path d="M218.355 33.9546C218.355 34.6014 218.178 35.0839 217.824 35.402C217.481 35.7095 217.098 35.8632 216.675 35.8632H212.613C212.613 36.1601 212.801 36.4093 213.178 36.6108C213.555 36.8123 213.933 36.913 214.31 36.913C214.972 36.913 215.492 36.8494 215.87 36.7221L216.058 36.6585C216.332 36.5419 216.561 36.4836 216.744 36.4836C217.11 36.4836 217.424 36.7221 217.687 37.1993C217.835 37.4856 217.909 37.7295 217.909 37.9309C217.909 38.8747 216.692 39.3465 214.258 39.3465C213.413 39.3465 212.658 39.214 211.996 38.9489C211.344 38.6732 210.836 38.3127 210.47 37.8673C209.75 37.0084 209.39 36.0488 209.39 34.9885C209.39 33.6524 209.853 32.5868 210.778 31.7915C211.716 30.9856 212.881 30.5827 214.275 30.5827C215.864 30.5827 217.03 31.1023 217.772 32.1414C218.161 32.6928 218.355 33.2972 218.355 33.9546ZM214.738 34.4159C215.172 34.4159 215.39 34.2462 215.39 33.9069C215.39 33.663 215.287 33.4668 215.081 33.3184C214.887 33.1699 214.601 33.0957 214.224 33.0957C213.858 33.0957 213.493 33.2389 213.127 33.5252C212.761 33.8009 212.578 34.0978 212.578 34.4159H214.738Z" fill="#030527"/>
<path d="M225.61 30.8531C225.828 30.9167 226.005 31.028 226.142 31.1871C226.29 31.3355 226.365 31.5794 226.365 31.9187C226.365 32.258 226.256 32.6292 226.039 33.0321C225.822 33.435 225.508 33.6365 225.096 33.6365C224.89 33.6365 224.69 33.5941 224.496 33.5093C224.313 33.4244 224.068 33.382 223.759 33.382C223.45 33.382 223.159 33.4828 222.885 33.6842C222.622 33.8857 222.491 34.1296 222.491 34.4159V37.756C222.491 37.9999 222.479 38.1854 222.456 38.3127C222.445 38.4293 222.393 38.5671 222.302 38.7262C222.131 39.0019 221.685 39.1397 220.965 39.1397C220.416 39.1397 220.022 39.0496 219.782 38.8693C219.599 38.7209 219.496 38.4929 219.474 38.1854C219.474 38.0794 219.474 37.9256 219.474 37.7242V32.1414C219.474 31.8975 219.479 31.7173 219.491 31.6006C219.514 31.4734 219.565 31.3355 219.645 31.1871C219.805 30.9008 220.251 30.7576 220.982 30.7576C221.668 30.7576 222.096 30.8796 222.268 31.1235C222.393 31.2931 222.456 31.4681 222.456 31.6483C222.513 31.5741 222.593 31.484 222.696 31.3779C222.811 31.2719 223.045 31.1288 223.399 30.9485C223.753 30.7682 224.062 30.6781 224.325 30.6781C224.599 30.6781 224.828 30.694 225.01 30.7258C225.193 30.747 225.393 30.7895 225.61 30.8531Z" fill="#030527"/>
<path d="M119.539 37.5015C119.242 37.1622 119.093 36.86 119.093 36.5949C119.093 36.3192 119.339 35.9587 119.83 35.5133C120.116 35.2588 120.419 35.1316 120.739 35.1316C121.059 35.1316 121.505 35.3967 122.076 35.9269C122.236 36.1071 122.465 36.2821 122.762 36.4517C123.059 36.6108 123.333 36.6903 123.584 36.6903C124.647 36.6903 125.179 36.2874 125.179 35.4815C125.179 35.2376 125.03 35.0362 124.733 34.8771C124.447 34.7075 124.087 34.5855 123.653 34.5113C123.219 34.4371 122.75 34.3204 122.247 34.1614C121.745 33.9917 121.276 33.7956 120.842 33.5729C120.407 33.3502 120.042 33.0003 119.745 32.5231C119.459 32.0354 119.316 31.4522 119.316 30.7735C119.316 29.8404 119.688 29.0293 120.43 28.34C121.185 27.6402 122.207 27.2903 123.499 27.2903C124.184 27.2903 124.807 27.3751 125.367 27.5448C125.939 27.7038 126.333 27.8682 126.55 28.0378L126.979 28.34C127.333 28.6475 127.51 28.9073 127.51 29.1194C127.51 29.3315 127.373 29.6231 127.099 29.9942C126.71 30.5244 126.31 30.7895 125.899 30.7895C125.659 30.7895 125.362 30.6834 125.007 30.4713C124.973 30.4501 124.904 30.3971 124.802 30.3123C124.71 30.2275 124.624 30.1585 124.544 30.1055C124.304 29.9677 123.996 29.8988 123.619 29.8988C123.253 29.8988 122.944 29.9836 122.693 30.1532C122.453 30.3123 122.333 30.5403 122.333 30.8372C122.333 31.1235 122.476 31.3567 122.762 31.537C123.059 31.7173 123.424 31.8392 123.859 31.9028C124.293 31.9664 124.767 32.0672 125.282 32.205C125.796 32.3323 126.27 32.4913 126.704 32.6822C127.139 32.873 127.499 33.2071 127.784 33.6842C128.081 34.1508 128.23 34.7287 128.23 35.4179C128.23 36.1071 128.081 36.7168 127.784 37.247C127.487 37.7666 127.099 38.1695 126.619 38.4558C125.693 39.0178 124.704 39.2988 123.653 39.2988C123.116 39.2988 122.607 39.2405 122.127 39.1238C121.647 38.9966 121.259 38.8428 120.962 38.6626C120.356 38.3233 119.933 37.9946 119.693 37.6765L119.539 37.5015Z" stroke="url(#paint5_linear_14101_64745)" stroke-width="0.4" mask="url(#path-21-outside-2_14101_64745)"/>
<path d="M134.255 33.5729L133.141 33.5093V35.7042C133.141 35.9905 133.186 36.1973 133.278 36.3245C133.381 36.4517 133.564 36.5154 133.826 36.5154C134.101 36.5154 134.306 36.526 134.443 36.5472C134.592 36.5578 134.746 36.6055 134.906 36.6903C135.169 36.8282 135.301 37.1834 135.301 37.756C135.301 38.424 135.141 38.8322 134.821 38.9807C134.649 39.0549 134.495 39.1026 134.358 39.1238C134.232 39.1344 134.044 39.1397 133.792 39.1397C132.604 39.1397 131.701 38.8906 131.084 38.3922C130.467 37.8938 130.158 37.0508 130.158 35.8632V33.5093C129.941 33.5411 129.707 33.557 129.455 33.557C129.204 33.557 128.992 33.4668 128.821 33.2866C128.661 33.1063 128.581 32.7988 128.581 32.3641C128.581 31.9293 128.61 31.6165 128.667 31.4257C128.724 31.2242 128.804 31.081 128.907 30.9962C129.089 30.8584 129.318 30.7895 129.592 30.7895L130.158 30.8531V29.2148C130.158 28.9709 130.164 28.7907 130.175 28.674C130.198 28.5574 130.255 28.4302 130.347 28.2923C130.495 28.0272 130.935 27.8947 131.666 27.8947C132.444 27.8947 132.906 28.0909 133.055 28.4832C133.112 28.6528 133.141 28.9232 133.141 29.2944V30.8531C133.644 30.8107 134.021 30.7895 134.272 30.7895C134.535 30.7895 134.729 30.8001 134.855 30.8213C134.992 30.8319 135.146 30.8796 135.318 30.9644C135.615 31.1023 135.763 31.5105 135.763 32.1891C135.763 32.8571 135.609 33.2654 135.301 33.4138C135.129 33.4881 134.975 33.5358 134.838 33.557C134.712 33.5676 134.518 33.5729 134.255 33.5729Z" stroke="url(#paint6_linear_14101_64745)" stroke-width="0.4" mask="url(#path-21-outside-2_14101_64745)"/>
<path d="M136.453 34.9566C136.453 33.6842 136.933 32.6345 137.893 31.8074C138.853 30.9803 139.95 30.5668 141.184 30.5668C142.418 30.5668 143.51 30.9803 144.458 31.8074C145.407 32.6239 145.881 33.6683 145.881 34.9407C145.881 35.8208 145.635 36.6055 145.144 37.2947C144.652 37.9734 144.052 38.477 143.344 38.8057C142.647 39.1238 141.921 39.2829 141.167 39.2829C140.413 39.2829 139.681 39.1132 138.973 38.7739C138.264 38.424 137.664 37.915 137.173 37.247C136.693 36.5684 136.453 35.8049 136.453 34.9566ZM140.036 36.1018C140.401 36.3563 140.773 36.4836 141.15 36.4836C141.527 36.4836 141.904 36.351 142.281 36.0859C142.658 35.8208 142.847 35.4285 142.847 34.9089C142.847 34.3894 142.67 34.0023 142.315 33.7478C141.961 33.4934 141.578 33.3661 141.167 33.3661C140.755 33.3661 140.373 33.4987 140.018 33.7637C139.664 34.0288 139.487 34.4212 139.487 34.9407C139.487 35.4497 139.67 35.8367 140.036 36.1018Z" stroke="url(#paint7_linear_14101_64745)" stroke-width="0.4" mask="url(#path-21-outside-2_14101_64745)"/>
<path d="M153.125 30.8531C153.342 30.9167 153.52 31.028 153.657 31.1871C153.805 31.3355 153.88 31.5794 153.88 31.9187C153.88 32.258 153.771 32.6292 153.554 33.0321C153.337 33.435 153.022 33.6365 152.611 33.6365C152.405 33.6365 152.205 33.5941 152.011 33.5093C151.828 33.4244 151.583 33.382 151.274 33.382C150.965 33.382 150.674 33.4828 150.4 33.6842C150.137 33.8857 150.005 34.1296 150.005 34.4159V37.756C150.005 37.9999 149.994 38.1854 149.971 38.3127C149.96 38.4293 149.908 38.5671 149.817 38.7262C149.645 39.0019 149.2 39.1397 148.48 39.1397C147.931 39.1397 147.537 39.0496 147.297 38.8693C147.114 38.7209 147.011 38.4929 146.988 38.1854C146.988 38.0794 146.988 37.9256 146.988 37.7242V32.1414C146.988 31.8975 146.994 31.7173 147.006 31.6006C147.028 31.4734 147.08 31.3355 147.16 31.1871C147.32 30.9008 147.766 30.7576 148.497 30.7576C149.183 30.7576 149.611 30.8796 149.783 31.1235C149.908 31.2931 149.971 31.4681 149.971 31.6483C150.028 31.5741 150.108 31.484 150.211 31.3779C150.325 31.2719 150.56 31.1288 150.914 30.9485C151.268 30.7682 151.577 30.6781 151.84 30.6781C152.114 30.6781 152.342 30.694 152.525 30.7258C152.708 30.747 152.908 30.7895 153.125 30.8531Z" stroke="url(#paint8_linear_14101_64745)" stroke-width="0.4" mask="url(#path-21-outside-2_14101_64745)"/>
<path d="M163.222 30.8531C163.897 31.1288 164.234 31.4628 164.234 31.8551C164.234 32.046 164.188 32.2262 164.097 32.3959C164.005 32.5655 163.96 32.6557 163.96 32.6663L159.468 41.9868C159.377 42.1883 159.297 42.342 159.228 42.448C159.171 42.5541 159.074 42.6548 158.937 42.7502C158.8 42.8457 158.628 42.8934 158.423 42.8934C158.217 42.8934 157.914 42.8139 157.514 42.6548C156.84 42.3791 156.503 42.0504 156.503 41.6687C156.503 41.4142 157.051 40.2001 158.148 38.0264L154.737 32.6981C154.509 32.3482 154.394 32.0884 154.394 31.9187C154.394 31.5794 154.703 31.2401 155.32 30.9008C155.709 30.6887 156.011 30.5827 156.229 30.5827C156.446 30.5827 156.623 30.6251 156.76 30.7099C156.897 30.7948 156.994 30.8849 157.051 30.9803C157.12 31.0651 157.434 31.5582 157.994 32.4595C158.566 33.3502 159.108 34.1826 159.623 34.9566C159.68 34.787 159.988 34.1349 160.548 33.0003C161.108 31.8551 161.405 31.2454 161.44 31.1712C161.485 31.097 161.554 31.0068 161.645 30.9008C161.794 30.7205 162 30.6304 162.263 30.6304C162.537 30.6304 162.857 30.7046 163.222 30.8531Z" stroke="url(#paint9_linear_14101_64745)" stroke-width="0.4" mask="url(#path-21-outside-2_14101_64745)"/>
<path d="M177.355 36.0859L177.664 35.8792C178.052 35.6671 178.326 35.561 178.486 35.561C178.841 35.561 179.224 35.8579 179.635 36.4517C179.886 36.8229 180.012 37.1198 180.012 37.3424C180.012 37.5651 179.932 37.7507 179.772 37.8991C179.624 38.0476 179.446 38.1801 179.241 38.2968C179.035 38.4134 178.835 38.5247 178.641 38.6308C178.458 38.7368 178.075 38.8747 177.492 39.0443C176.909 39.214 176.344 39.2988 175.795 39.2988C175.258 39.2988 174.709 39.2352 174.15 39.1079C173.601 38.9701 173.03 38.7474 172.435 38.4399C171.852 38.1218 171.327 37.7401 170.858 37.2947C170.39 36.8388 170.001 36.2609 169.693 35.561C169.395 34.8506 169.247 34.0819 169.247 33.2548C169.247 32.4277 169.395 31.6801 169.693 31.0121C169.99 30.3335 170.367 29.7768 170.824 29.3421C171.293 28.8967 171.824 28.5256 172.418 28.2287C173.538 27.6561 174.664 27.3698 175.795 27.3698C176.332 27.3698 176.875 27.4493 177.424 27.6084C177.984 27.7568 178.406 27.9106 178.692 28.0696L179.104 28.2923C179.309 28.409 179.469 28.5044 179.584 28.5786C179.881 28.8013 180.029 29.0558 180.029 29.3421C180.029 29.6178 179.909 29.9094 179.669 30.2169C179.224 30.7895 178.824 31.0757 178.469 31.0757C178.264 31.0757 177.972 30.9591 177.595 30.7258C177.115 30.3653 176.475 30.1851 175.675 30.1851C174.932 30.1851 174.201 30.4236 173.481 30.9008C173.138 31.1341 172.852 31.4628 172.624 31.8869C172.395 32.3111 172.281 32.7935 172.281 33.3343C172.281 33.8645 172.395 34.3416 172.624 34.7658C172.852 35.1899 173.144 35.5239 173.498 35.7678C174.195 36.2344 174.921 36.4676 175.675 36.4676C176.029 36.4676 176.361 36.4252 176.669 36.3404C176.989 36.2556 177.218 36.1707 177.355 36.0859Z" stroke="url(#paint10_linear_14101_64745)" stroke-width="0.4" mask="url(#path-21-outside-2_14101_64745)"/>
<path d="M180.881 34.9566C180.881 33.6842 181.361 32.6345 182.321 31.8074C183.281 30.9803 184.378 30.5668 185.613 30.5668C186.847 30.5668 187.938 30.9803 188.887 31.8074C189.835 32.6239 190.309 33.6683 190.309 34.9407C190.309 35.8208 190.064 36.6055 189.572 37.2947C189.081 37.9734 188.481 38.477 187.772 38.8057C187.075 39.1238 186.35 39.2829 185.595 39.2829C184.841 39.2829 184.11 39.1132 183.401 38.7739C182.693 38.424 182.093 37.915 181.601 37.247C181.121 36.5684 180.881 35.8049 180.881 34.9566ZM184.464 36.1018C184.83 36.3563 185.201 36.4836 185.578 36.4836C185.955 36.4836 186.333 36.351 186.71 36.0859C187.087 35.8208 187.275 35.4285 187.275 34.9089C187.275 34.3894 187.098 34.0023 186.744 33.7478C186.39 33.4934 186.007 33.3661 185.595 33.3661C185.184 33.3661 184.801 33.4987 184.447 33.7637C184.093 34.0288 183.915 34.4212 183.915 34.9407C183.915 35.4497 184.098 35.8367 184.464 36.1018Z" stroke="url(#paint11_linear_14101_64745)" stroke-width="0.4" mask="url(#path-21-outside-2_14101_64745)"/>
<path d="M197.554 30.8531C197.771 30.9167 197.948 31.028 198.085 31.1871C198.234 31.3355 198.308 31.5794 198.308 31.9187C198.308 32.258 198.199 32.6292 197.982 33.0321C197.765 33.435 197.451 33.6365 197.04 33.6365C196.834 33.6365 196.634 33.5941 196.44 33.5093C196.257 33.4244 196.011 33.382 195.702 33.382C195.394 33.382 195.102 33.4828 194.828 33.6842C194.565 33.8857 194.434 34.1296 194.434 34.4159V37.756C194.434 37.9999 194.423 38.1854 194.4 38.3127C194.388 38.4293 194.337 38.5671 194.245 38.7262C194.074 39.0019 193.628 39.1397 192.908 39.1397C192.36 39.1397 191.966 39.0496 191.726 38.8693C191.543 38.7209 191.44 38.4929 191.417 38.1854C191.417 38.0794 191.417 37.9256 191.417 37.7242V32.1414C191.417 31.8975 191.423 31.7173 191.434 31.6006C191.457 31.4734 191.508 31.3355 191.588 31.1871C191.748 30.9008 192.194 30.7576 192.925 30.7576C193.611 30.7576 194.04 30.8796 194.211 31.1235C194.337 31.2931 194.4 31.4681 194.4 31.6483C194.457 31.5741 194.537 31.484 194.64 31.3779C194.754 31.2719 194.988 31.1288 195.342 30.9485C195.697 30.7682 196.005 30.6781 196.268 30.6781C196.542 30.6781 196.771 30.694 196.954 30.7258C197.137 30.747 197.337 30.7895 197.554 30.8531Z" stroke="url(#paint12_linear_14101_64745)" stroke-width="0.4" mask="url(#path-21-outside-2_14101_64745)"/>
<path d="M204.274 30.7576C205.417 30.7576 206.365 31.1659 207.12 31.9824C207.885 32.7882 208.268 33.7743 208.268 34.9407V37.7401C208.268 37.984 208.257 38.1695 208.234 38.2968C208.222 38.4134 208.177 38.5459 208.097 38.6944C207.937 38.9807 207.491 39.1238 206.76 39.1238C205.948 39.1238 205.48 38.9277 205.354 38.5353C205.285 38.3551 205.251 38.0847 205.251 37.7242V34.9248C205.251 34.4901 205.114 34.1508 204.84 33.9069C204.577 33.663 204.217 33.5411 203.76 33.5411C203.314 33.5411 202.948 33.6683 202.663 33.9228C202.388 34.1773 202.251 34.5113 202.251 34.9248V37.7401C202.251 37.984 202.24 38.1695 202.217 38.2968C202.206 38.4134 202.154 38.5459 202.063 38.6944C201.914 38.9807 201.474 39.1238 200.743 39.1238C200.023 39.1238 199.583 38.9807 199.423 38.6944C199.343 38.5353 199.291 38.3975 199.269 38.2809C199.257 38.1536 199.251 37.968 199.251 37.7242V32.0937C199.251 31.8604 199.257 31.6855 199.269 31.5688C199.291 31.4416 199.349 31.3037 199.44 31.1553C199.6 30.8902 200.04 30.7576 200.76 30.7576C201.457 30.7576 201.886 30.8796 202.046 31.1235C202.16 31.3037 202.217 31.5211 202.217 31.7756C202.263 31.7014 202.366 31.5953 202.526 31.4575C202.685 31.3196 202.84 31.2083 202.988 31.1235C203.377 30.8796 203.805 30.7576 204.274 30.7576Z" stroke="url(#paint13_linear_14101_64745)" stroke-width="0.4" mask="url(#path-21-outside-2_14101_64745)"/>
<path d="M218.355 33.9546C218.355 34.6014 218.178 35.0839 217.824 35.402C217.481 35.7095 217.098 35.8632 216.675 35.8632H212.613C212.613 36.1601 212.801 36.4093 213.178 36.6108C213.555 36.8123 213.933 36.913 214.31 36.913C214.972 36.913 215.492 36.8494 215.87 36.7221L216.058 36.6585C216.332 36.5419 216.561 36.4836 216.744 36.4836C217.11 36.4836 217.424 36.7221 217.687 37.1993C217.835 37.4856 217.909 37.7295 217.909 37.9309C217.909 38.8747 216.692 39.3465 214.258 39.3465C213.413 39.3465 212.658 39.214 211.996 38.9489C211.344 38.6732 210.836 38.3127 210.47 37.8673C209.75 37.0084 209.39 36.0488 209.39 34.9885C209.39 33.6524 209.853 32.5868 210.778 31.7915C211.716 30.9856 212.881 30.5827 214.275 30.5827C215.864 30.5827 217.03 31.1023 217.772 32.1414C218.161 32.6928 218.355 33.2972 218.355 33.9546ZM214.738 34.4159C215.172 34.4159 215.39 34.2462 215.39 33.9069C215.39 33.663 215.287 33.4668 215.081 33.3184C214.887 33.1699 214.601 33.0957 214.224 33.0957C213.858 33.0957 213.493 33.2389 213.127 33.5252C212.761 33.8009 212.578 34.0978 212.578 34.4159H214.738Z" stroke="url(#paint14_linear_14101_64745)" stroke-width="0.4" mask="url(#path-21-outside-2_14101_64745)"/>
<path d="M225.61 30.8531C225.828 30.9167 226.005 31.028 226.142 31.1871C226.29 31.3355 226.365 31.5794 226.365 31.9187C226.365 32.258 226.256 32.6292 226.039 33.0321C225.822 33.435 225.508 33.6365 225.096 33.6365C224.89 33.6365 224.69 33.5941 224.496 33.5093C224.313 33.4244 224.068 33.382 223.759 33.382C223.45 33.382 223.159 33.4828 222.885 33.6842C222.622 33.8857 222.491 34.1296 222.491 34.4159V37.756C222.491 37.9999 222.479 38.1854 222.456 38.3127C222.445 38.4293 222.393 38.5671 222.302 38.7262C222.131 39.0019 221.685 39.1397 220.965 39.1397C220.416 39.1397 220.022 39.0496 219.782 38.8693C219.599 38.7209 219.496 38.4929 219.474 38.1854C219.474 38.0794 219.474 37.9256 219.474 37.7242V32.1414C219.474 31.8975 219.479 31.7173 219.491 31.6006C219.514 31.4734 219.565 31.3355 219.645 31.1871C219.805 30.9008 220.251 30.7576 220.982 30.7576C221.668 30.7576 222.096 30.8796 222.268 31.1235C222.393 31.2931 222.456 31.4681 222.456 31.6483C222.513 31.5741 222.593 31.484 222.696 31.3779C222.811 31.2719 223.045 31.1288 223.399 30.9485C223.753 30.7682 224.062 30.6781 224.325 30.6781C224.599 30.6781 224.828 30.694 225.01 30.7258C225.193 30.747 225.393 30.7895 225.61 30.8531Z" stroke="url(#paint15_linear_14101_64745)" stroke-width="0.4" mask="url(#path-21-outside-2_14101_64745)"/>
<defs>
<linearGradient id="paint0_linear_14101_64745" x1="89.7765" y1="27.097" x2="89.7765" y2="43.8687" gradientUnits="userSpaceOnUse">
<stop stop-color="#CDA538"/>
<stop offset="1" stop-color="#FFE59F"/>
</linearGradient>
<linearGradient id="paint1_linear_14101_64745" x1="89.7765" y1="27.097" x2="89.7765" y2="43.8687" gradientUnits="userSpaceOnUse">
<stop stop-color="#CDA538"/>
<stop offset="1" stop-color="#FFE59F"/>
</linearGradient>
<linearGradient id="paint2_linear_14101_64745" x1="89.7765" y1="27.097" x2="89.7765" y2="43.8687" gradientUnits="userSpaceOnUse">
<stop stop-color="#CDA538"/>
<stop offset="1" stop-color="#FFE59F"/>
</linearGradient>
<linearGradient id="paint3_linear_14101_64745" x1="89.7765" y1="27.097" x2="89.7765" y2="43.8687" gradientUnits="userSpaceOnUse">
<stop stop-color="#CDA538"/>
<stop offset="1" stop-color="#FFE59F"/>
</linearGradient>
<linearGradient id="paint4_linear_14101_64745" x1="103.663" y1="30.6403" x2="102.505" y2="39.7655" gradientUnits="userSpaceOnUse">
<stop stop-color="#CDA538"/>
<stop offset="1" stop-color="#FFE59F"/>
</linearGradient>
<linearGradient id="paint5_linear_14101_64745" x1="172.729" y1="27.2903" x2="172.729" y2="42.8934" gradientUnits="userSpaceOnUse">
<stop stop-color="#CDA538"/>
<stop offset="1" stop-color="#FFE59F"/>
</linearGradient>
<linearGradient id="paint6_linear_14101_64745" x1="172.729" y1="27.2903" x2="172.729" y2="42.8934" gradientUnits="userSpaceOnUse">
<stop stop-color="#CDA538"/>
<stop offset="1" stop-color="#FFE59F"/>
</linearGradient>
<linearGradient id="paint7_linear_14101_64745" x1="172.729" y1="27.2903" x2="172.729" y2="42.8934" gradientUnits="userSpaceOnUse">
<stop stop-color="#CDA538"/>
<stop offset="1" stop-color="#FFE59F"/>
</linearGradient>
<linearGradient id="paint8_linear_14101_64745" x1="172.729" y1="27.2903" x2="172.729" y2="42.8934" gradientUnits="userSpaceOnUse">
<stop stop-color="#CDA538"/>
<stop offset="1" stop-color="#FFE59F"/>
</linearGradient>
<linearGradient id="paint9_linear_14101_64745" x1="172.729" y1="27.2903" x2="172.729" y2="42.8934" gradientUnits="userSpaceOnUse">
<stop stop-color="#CDA538"/>
<stop offset="1" stop-color="#FFE59F"/>
</linearGradient>
<linearGradient id="paint10_linear_14101_64745" x1="172.729" y1="27.2903" x2="172.729" y2="42.8934" gradientUnits="userSpaceOnUse">
<stop stop-color="#CDA538"/>
<stop offset="1" stop-color="#FFE59F"/>
</linearGradient>
<linearGradient id="paint11_linear_14101_64745" x1="172.729" y1="27.2903" x2="172.729" y2="42.8934" gradientUnits="userSpaceOnUse">
<stop stop-color="#CDA538"/>
<stop offset="1" stop-color="#FFE59F"/>
</linearGradient>
<linearGradient id="paint12_linear_14101_64745" x1="172.729" y1="27.2903" x2="172.729" y2="42.8934" gradientUnits="userSpaceOnUse">
<stop stop-color="#CDA538"/>
<stop offset="1" stop-color="#FFE59F"/>
</linearGradient>
<linearGradient id="paint13_linear_14101_64745" x1="172.729" y1="27.2903" x2="172.729" y2="42.8934" gradientUnits="userSpaceOnUse">
<stop stop-color="#CDA538"/>
<stop offset="1" stop-color="#FFE59F"/>
</linearGradient>
<linearGradient id="paint14_linear_14101_64745" x1="172.729" y1="27.2903" x2="172.729" y2="42.8934" gradientUnits="userSpaceOnUse">
<stop stop-color="#CDA538"/>
<stop offset="1" stop-color="#FFE59F"/>
</linearGradient>
<linearGradient id="paint15_linear_14101_64745" x1="172.729" y1="27.2903" x2="172.729" y2="42.8934" gradientUnits="userSpaceOnUse">
<stop stop-color="#CDA538"/>
<stop offset="1" stop-color="#FFE59F"/>
</linearGradient>
</defs>
</svg>
