<svg width="54" height="42" viewBox="0 0 54 42" fill="none" xmlns="http://www.w3.org/2000/svg">
<path d="M53.0175 12.203L52.062 9.74622C52.062 9.74622 37.0483 35.2697 30.9746 35.4061L32.6125 35.6791L33.6361 37.044C33.6361 37.044 47.8309 35.8838 53.0175 12.203Z" fill="url(#paint0_linear_12248_310325)"/>
<path d="M31.7252 18.1403C31.7252 18.1403 41.1429 16.7071 52.062 9.74622C49.6052 24.6235 39.4368 36.4298 30.9062 35.8156C30.9062 19.1639 31.7252 18.1403 31.7252 18.1403Z" fill="url(#paint1_linear_12248_310325)"/>
<path d="M29.2773 5.83667C29.2773 5.83667 31.9079 0.232389 33.795 0.00360107C38.5216 4.11378 39.6754 5.81527 39.6754 5.81527C39.6754 5.81527 40.629 8.45168 38.3128 9.74624C34.5415 11.854 30.9744 11.3265 30.9744 11.3265L29.2773 5.83667Z" fill="url(#paint2_linear_12248_310325)"/>
<path d="M30.5928 5.89387C30.5928 5.89387 33.1662 -0.110726 33.7952 0.00362699C34.4243 0.118062 40.2573 4.69292 39.6282 6.80886C38.9992 8.92472 32.8802 10.6975 32.8802 10.6975L30.5928 5.89387Z" fill="url(#paint3_linear_12248_310325)"/>
<path d="M51.5278 12.4326C51.5278 12.4326 45.2434 18.1319 37.8457 20.5593C41.2404 19.7789 49.2079 16.4134 50.8342 15.0403C51.4442 14.5252 51.9269 13.1941 51.5278 12.4326Z" fill="url(#paint4_linear_12248_310325)"/>
<path d="M39.6758 20.0391C41.8237 19.4195 49.6991 15.8282 50.8343 15.0403C50.4345 15.3435 44.9252 19.3188 39.6758 20.0391Z" fill="#FFE83E"/>
<path d="M48.8285 20.5593C48.8285 20.5593 43.8919 23.7647 38.0176 25.3719C41.0155 25.0538 46.5366 23.391 48.0432 22.4809C48.6083 22.1394 49.1207 21.1689 48.8285 20.5593Z" fill="url(#paint5_linear_12248_310325)"/>
<path d="M38.0176 25.372C39.9233 25.0753 47.0036 22.987 48.0432 22.481C47.6753 22.6785 42.619 25.249 38.0176 25.372Z" fill="#FFE83E"/>
<path d="M41.4845 31.0439C41.4845 31.0439 38.2389 31.6966 38.4428 33.4941C40.4568 33.0146 41.4845 31.0439 41.4845 31.0439Z" fill="url(#paint6_linear_12248_310325)"/>
<g opacity="0.68" style="mix-blend-mode:soft-light">
<path d="M45.9356 13.7409C46.1389 16.0082 41.0742 19.5247 37.8461 19.242C34.6178 18.9593 45.8834 13.1583 45.9356 13.7409Z" fill="#FFD13B"/>
</g>
<g opacity="0.68" style="mix-blend-mode:soft-light">
<path d="M43.6648 25.6688C43.6648 25.6688 38.9207 32.3442 37.667 32.3781C36.4132 32.412 38.0397 26.5837 38.7852 26.3126C39.5307 26.0415 43.7664 24.5506 43.6648 25.6688Z" fill="#FFD13B"/>
</g>
<path d="M31.5894 4.815C32.3614 4.14489 32.488 2.5491 32.101 2.56543C31.714 2.58177 30.959 4.24748 30.8936 5.01046C30.8936 5.01046 31.4119 4.96913 31.5894 4.815Z" fill="url(#paint7_linear_12248_310325)"/>
<path d="M0 12.203L0.95542 9.74622C0.95542 9.74622 15.9692 35.2697 22.0429 35.4061L20.4051 35.6791L19.3814 37.044C19.3814 37.044 5.18656 35.8838 0 12.203Z" fill="url(#paint8_linear_12248_310325)"/>
<path d="M21.2928 18.1403C21.2928 18.1403 11.8751 16.7071 0.956055 9.74622C3.41285 24.6235 13.5813 36.4298 22.1118 35.8156C22.1118 19.1639 21.2928 18.1403 21.2928 18.1403Z" fill="url(#paint9_linear_12248_310325)"/>
<path d="M26.2117 41.7417C31.8386 41.7417 36.4 35.0511 36.4 26.7979C36.4 18.5446 31.8386 11.8541 26.2117 11.8541C20.5849 11.8541 16.0234 18.5446 16.0234 26.7979C16.0234 35.0511 20.5849 41.7417 26.2117 41.7417Z" fill="url(#paint10_linear_12248_310325)"/>
<path d="M26.2117 41.7417C31.8386 41.7417 36.4 35.0511 36.4 26.7979C36.4 18.5446 31.8386 11.8541 26.2117 11.8541C20.5849 11.8541 16.0234 18.5446 16.0234 26.7979C16.0234 35.0511 20.5849 41.7417 26.2117 41.7417Z" fill="url(#paint11_linear_12248_310325)"/>
<path d="M26.2117 40.2619C31.8386 40.2619 36.4 33.9026 36.4 26.058C36.4 18.2134 31.8386 11.8541 26.2117 11.8541C20.5849 11.8541 16.0234 18.2134 16.0234 26.058C16.0234 33.9026 20.5849 40.2619 26.2117 40.2619Z" fill="url(#paint12_linear_12248_310325)"/>
<path d="M23.74 5.83667C23.74 5.83667 21.1094 0.232389 19.2223 0.00360107C14.4957 4.11378 13.3419 5.81527 13.3419 5.81527C13.3419 5.81527 12.3883 8.45168 14.7046 9.74624C18.4759 11.854 22.043 11.3265 22.043 11.3265L23.74 5.83667Z" fill="url(#paint13_linear_12248_310325)"/>
<path d="M22.4274 5.89304L20.1385 10.7C20.1385 10.7 14.0182 8.92323 13.3915 6.80868C13.108 5.86037 14.1272 4.4107 15.397 3.09727L15.4024 3.0918C16.9557 1.4786 18.8795 0.0670779 19.2229 0.00165165C19.6371 -0.0746382 20.896 2.50868 21.7026 4.27993C21.7244 4.32893 21.7407 4.35613 21.7407 4.35613C22.144 5.23363 22.4274 5.89304 22.4274 5.89304Z" fill="url(#paint14_linear_12248_310325)"/>
<path d="M26.2117 41.7417C31.8386 41.7417 36.4 35.0511 36.4 26.7979C36.4 18.5446 31.8386 11.8541 26.2117 11.8541C20.5849 11.8541 16.0234 18.5446 16.0234 26.7979C16.0234 35.0511 20.5849 41.7417 26.2117 41.7417Z" fill="url(#paint15_linear_12248_310325)"/>
<path d="M26.2116 17.3015C29.7775 17.3015 32.6683 14.5194 32.6683 11.0875C32.6683 7.65564 29.7775 4.87354 26.2116 4.87354C22.6456 4.87354 19.7549 7.65564 19.7549 11.0875C19.7549 14.5194 22.6456 17.3015 26.2116 17.3015Z" fill="url(#paint16_linear_12248_310325)"/>
<path d="M32.6677 10.2638C32.6677 13.5284 29.7792 16.1715 26.2095 16.1715C22.6453 16.1715 19.7568 13.5284 19.7568 10.2638C19.7568 9.21194 20.0565 8.22009 20.5906 7.36987C20.7269 7.14101 20.8849 6.91753 21.0593 6.71047L21.0648 6.70499C22.242 5.27713 24.1058 4.35602 26.2095 4.35602C28.94 4.35602 31.2726 5.90387 32.2154 8.09471C32.477 8.68877 32.6296 9.33185 32.6623 10.0022C32.6677 10.0894 32.6677 10.1767 32.6677 10.2638Z" fill="url(#paint17_linear_12248_310325)"/>
<g opacity="0.3" style="mix-blend-mode:multiply">
<path d="M32.6677 10.2639C32.6677 13.5285 29.7792 16.1717 26.2095 16.1717C22.6453 16.1717 19.7568 13.5285 19.7568 10.2639C19.7568 9.21206 20.0565 8.22021 20.5906 7.37C20.8958 9.70803 23.0595 12.5039 32.6623 10.0023C32.6677 10.0896 32.6677 10.1768 32.6677 10.2639Z" fill="#A06A9A"/>
</g>
<path d="M36.4008 26.0579C36.4008 26.374 36.3954 26.6846 36.3791 26.9952C36.33 28.009 36.2101 28.9953 36.0139 29.9382C34.804 35.895 30.8745 40.2604 26.2094 40.2604C20.5851 40.2604 16.0234 33.9004 16.0234 26.0579C16.0234 18.2154 20.5851 11.8553 26.2094 11.8553C29.0271 11.8553 31.5667 13.4467 33.4089 16.0081C33.4089 16.0081 33.4089 16.0136 33.4142 16.019C34.3517 17.3216 35.1037 18.8748 35.616 20.597C36.1229 22.2755 36.4008 24.1231 36.4008 26.0579Z" fill="url(#paint18_linear_12248_310325)"/>
<path d="M26.2117 34.5206C29.5641 34.5206 32.2818 30.7318 32.2818 26.058C32.2818 21.3843 29.5641 17.5955 26.2117 17.5955C22.8593 17.5955 20.1416 21.3843 20.1416 26.058C20.1416 30.7318 22.8593 34.5206 26.2117 34.5206Z" fill="url(#paint19_linear_12248_310325)"/>
<path d="M32.2817 26.6029C32.2817 31.2766 29.5641 35.0655 26.2117 35.0655C22.8593 35.0655 20.1416 31.2766 20.1416 26.6029C20.1416 21.9291 22.2485 28.2393 25.6009 28.2393C28.9533 28.2393 32.2817 21.9292 32.2817 26.6029Z" fill="#FFE83E"/>
<path d="M1.4895 12.4326C1.4895 12.4326 7.77385 18.1319 15.1717 20.5593C11.7769 19.7789 3.80948 16.4134 2.18321 15.0403C1.57322 14.5252 1.09049 13.1941 1.4895 12.4326Z" fill="url(#paint20_linear_12248_310325)"/>
<path d="M13.342 20.0391C11.1941 19.4195 3.31863 15.8282 2.18359 15.0403C2.58326 15.3435 8.09254 19.3188 13.342 20.0391Z" fill="#FFE83E"/>
<path d="M4.19025 20.5593C4.19025 20.5593 9.12679 23.7647 15.0012 25.3719C12.0033 25.0538 6.48213 23.391 4.97553 22.4809C4.41038 22.1394 3.89808 21.1689 4.19025 20.5593Z" fill="url(#paint21_linear_12248_310325)"/>
<path d="M15.0012 25.372C13.0956 25.0753 6.01514 22.987 4.97559 22.481C5.34348 22.6785 10.3998 25.249 15.0012 25.372Z" fill="#FFE83E"/>
<path d="M32.215 8.09471C27.4027 3.24426 21.2879 6.57961 21.0645 6.70499C22.2416 5.27713 24.1055 4.35602 26.2092 4.35602C28.9396 4.35602 31.2723 5.90387 32.215 8.09471Z" fill="#FFE83E"/>
<path d="M28.2129 4.87354C28.2129 4.87354 30.2748 6.43543 29.9645 8.54762C30.1981 7.26302 30.7938 6.71054 30.7938 6.71054L28.2129 4.87354Z" fill="#FFE83E"/>
<path d="M7.62695 22.4809C7.62695 22.4809 10.6958 22.0022 10.4918 23.7997C8.47782 23.3202 7.62695 22.4809 7.62695 22.4809Z" fill="url(#paint22_linear_12248_310325)"/>
<path d="M24.5357 40.2604C24.5357 40.2604 21.8271 40.7346 20.5845 37.9006L20.5791 37.8952C20.5791 37.8952 21.789 35.1157 24.0071 36.3418C24.7755 36.767 25.0753 37.3719 25.1407 37.9768V37.9878C25.2497 39.1214 24.5357 40.2604 24.5357 40.2604Z" fill="url(#paint23_linear_12248_310325)"/>
<path d="M24.5362 40.2604C24.5362 40.2604 21.8276 40.7346 20.585 37.9006C20.7485 38.0859 24.6179 42.4459 25.1412 37.9878C25.2502 39.1214 24.5362 40.2604 24.5362 40.2604Z" fill="#FFE83E"/>
<g opacity="0.3" style="mix-blend-mode:multiply">
<path d="M20.8838 37.7743C20.8838 37.7743 23.3618 35.048 24.851 37.654C25.0553 38.5119 24.1538 39.3372 23.8172 39.3372C23.4806 39.3372 21.4128 38.712 20.8838 37.7743Z" fill="#A06A9A"/>
</g>
<path d="M29.0605 18.5839C29.0605 18.5839 29.5829 15.5029 30.735 15.7401C31.8871 15.9773 30.201 19.6798 30.201 19.6798L29.0605 18.5839Z" fill="url(#paint24_linear_12248_310325)"/>
<g opacity="0.3" style="mix-blend-mode:multiply">
<path d="M29.2773 18.4052C29.2773 18.4052 29.6162 15.9097 30.7683 16.0113C31.2766 15.9775 30.2939 19.4677 29.9212 19.2305C29.5484 18.9933 29.2773 18.4052 29.2773 18.4052Z" fill="#A06A9A"/>
</g>
<g opacity="0.68" style="mix-blend-mode:soft-light">
<path d="M7.08211 13.7409C6.87881 16.0082 11.9434 19.5247 15.1717 19.242C18.4 18.9593 7.13438 13.1583 7.08211 13.7409Z" fill="#FFD13B"/>
</g>
<g opacity="0.68" style="mix-blend-mode:soft-light">
<path d="M9.35336 25.6688C9.35336 25.6688 14.0973 32.3442 15.3511 32.3781C16.6048 32.412 14.9783 26.5837 14.2329 26.3126C13.4874 26.0415 9.25167 24.5506 9.35336 25.6688Z" fill="#FFD13B"/>
</g>
<g opacity="0.68" style="mix-blend-mode:soft-light">
<path d="M32.9714 17.8749C32.9714 17.8749 31.9887 18.0963 31.9209 19.6799C31.8532 21.2635 34.0557 26.6174 32.4461 30.1754C30.8366 33.7334 28.3968 35.7271 26.8042 36.5262C25.2116 37.3252 25.702 39.7135 28.4307 39.0954C31.1595 38.4773 36.4616 32.7846 35.7161 25.6008C34.9706 18.4171 33.8863 17.4683 32.9714 17.8749Z" fill="#FFD13B"/>
</g>
<g opacity="0.68" style="mix-blend-mode:soft-light">
<path d="M36.3785 26.9953C36.3294 28.0091 36.2095 28.9955 36.0133 29.9383C34.5419 27.6875 30.8086 30.5814 30.6396 30.7122C30.7324 30.5378 32.6126 27.1152 31.7187 25.3713C34.035 28.1943 35.6754 27.5404 36.3785 26.9953Z" fill="#FFD13B"/>
</g>
<path d="M26.2117 34.5204C29.5641 34.5204 32.2818 30.9129 32.2818 26.4628C32.2818 22.0126 29.5641 18.4051 26.2117 18.4051C22.8593 18.4051 20.1416 22.0126 20.1416 26.4628C20.1416 30.9129 22.8593 34.5204 26.2117 34.5204Z" fill="url(#paint25_linear_12248_310325)"/>
<path d="M35.6159 20.597C35.5777 20.6079 35.5341 20.597 35.4741 20.5589C34.5204 19.9703 33.474 16.2534 33.4141 16.019C34.3515 17.3216 35.1035 18.8748 35.6159 20.597Z" fill="#FFE83E"/>
<g opacity="0.68" style="mix-blend-mode:soft-light">
<path d="M26.2111 12.087C26.2111 12.087 19.2989 13.3018 17.6608 19.6799C16.0228 26.0579 19.7544 29.0428 19.7544 29.0428C19.7544 29.0428 18.1141 17.4371 26.8805 17.5397C25.2556 16.4319 24.8351 13.0054 26.2111 12.087Z" fill="#FFD13B"/>
</g>
<g opacity="0.68" style="mix-blend-mode:soft-light">
<path d="M17.7806 19.258C17.7806 19.258 16.8311 23.2548 19.9132 23.7997C19.9573 22.755 20.8837 20.9219 20.8837 20.9219C20.8837 20.9219 17.8954 19.8224 18.7497 17.0851C18.0263 18.5485 17.7806 19.258 17.7806 19.258Z" fill="#FFD13B"/>
</g>
<path d="M16.6936 8.00224C16.1212 8.5963 15.7071 8.17662 15.3965 7.84966C15.3965 7.84966 15.3965 7.63712 15.4073 7.33735C15.4346 6.65066 15.5381 5.50068 15.925 5.51702C16.312 5.53344 16.8189 6.4708 16.8843 7.23378V7.26106C16.906 7.56075 16.857 7.83324 16.6936 8.00224Z" fill="url(#paint26_linear_12248_310325)"/>
<path d="M16.6936 8.0021C16.1212 8.59616 15.7071 8.17648 15.3965 7.84952C15.3965 7.84952 15.3965 7.63698 15.4073 7.33722C15.5054 7.54975 15.6199 7.71875 15.7506 7.80043C16.2139 8.08386 16.7917 8.11106 16.8843 7.26093C16.906 7.56061 16.857 7.8331 16.6936 8.0021Z" fill="#FFE83E"/>
<g opacity="0.3" style="mix-blend-mode:multiply">
<path d="M15.7539 7.14386C15.7539 7.14386 15.8829 5.57412 16.2029 5.69452C16.5229 5.81483 17.1821 7.38555 16.479 7.62725C15.7759 7.86894 15.7539 7.14386 15.7539 7.14386Z" fill="#A06A9A"/>
</g>
<path d="M21.065 24.215C21.065 24.215 23.7265 17.3631 28.5003 19.6799C30.6173 20.7073 31.4784 24.7477 30.3525 25.3711C29.2266 25.9945 27.8102 21.8906 25.1528 23.395C24.0037 24.0457 20.611 27.0751 21.065 24.215Z" fill="url(#paint27_linear_12248_310325)" style="mix-blend-mode:screen"/>
<path d="M21.5624 28.6459C21.5624 28.6459 22.8488 34.3571 26.6393 33.9121C30.43 33.467 21.2719 25.4135 21.5624 28.6459Z" fill="url(#paint28_linear_12248_310325)" style="mix-blend-mode:screen"/>
<path d="M27.2259 19.8584C27.2623 20.8944 29.2774 23.7998 29.9717 22.9657C31.0155 21.7118 27.1846 18.6808 27.2259 19.8584Z" fill="#F3FFEE"/>
<path d="M23.1192 30.5307C23.1159 31.2782 23.5885 32.7366 24.6681 33.0887C25.7476 33.4407 23.1245 29.3015 23.1192 30.5307Z" fill="#F3FFEE"/>
<path opacity="0.26" d="M25.8988 34.2929C25.8988 34.2929 29.9392 34.2616 31.36 28.6815C32.7808 23.1013 20.908 23.9432 21.5559 29.1002C22.2038 34.2572 25.8988 34.2929 25.8988 34.2929Z" fill="url(#paint29_linear_12248_310325)" style="mix-blend-mode:screen"/>
<path d="M36.401 1.92755C36.401 1.92755 39.9592 6.02776 38.9891 7.36994C38.152 8.52817 34.5742 10.128 34.5742 10.128C34.5742 10.128 39.7887 8.94703 39.8705 7.26098C39.9522 5.57484 39.0545 4.3587 36.401 1.92755Z" fill="#FFE83E"/>
<path d="M21.7016 4.27993C21.4127 3.76215 19.685 0.721096 18.5678 1.46774C17.3851 2.25792 15.5158 3.04818 15.4014 3.0918C16.9546 1.4786 18.8784 0.0670779 19.2218 0.00165165C19.636 -0.0746382 20.8949 2.50868 21.7016 4.27993Z" fill="#FFE83E"/>
<g opacity="0.68" style="mix-blend-mode:soft-light">
<path d="M22.3872 8.26689C22.5447 7.72739 22.9719 7.31139 23.492 7.0982C24.8249 6.55184 27.9688 5.531 29.1301 7.479C30.6208 9.97957 24.7529 10.5228 23.1186 9.74621C22.3013 9.35798 22.2421 8.76392 22.3872 8.26689Z" fill="#FFD13B"/>
</g>
<defs>
<linearGradient id="paint0_linear_12248_310325" x1="31.4854" y1="45.9511" x2="54.2945" y2="2.23353" gradientUnits="userSpaceOnUse">
<stop offset="0.15154" stop-color="#B83A36"/>
<stop offset="0.21605" stop-color="#B83D2D"/>
<stop offset="0.45675" stop-color="#BB4914"/>
<stop offset="0.67542" stop-color="#BC5005"/>
<stop offset="0.85091" stop-color="#BD5300"/>
</linearGradient>
<linearGradient id="paint1_linear_12248_310325" x1="27.3737" y1="44.0549" x2="50.3038" y2="0.105404" gradientUnits="userSpaceOnUse">
<stop offset="0.16175" stop-color="#FF7540"/>
<stop offset="0.23197" stop-color="#FF8137"/>
<stop offset="0.45273" stop-color="#FFA41F"/>
<stop offset="0.66075" stop-color="#FFBE0E"/>
<stop offset="0.84898" stop-color="#FFCD03"/>
<stop offset="1" stop-color="#FFD300"/>
</linearGradient>
<linearGradient id="paint2_linear_12248_310325" x1="36.0923" y1="14.7353" x2="32.6766" y2="-4.30986" gradientUnits="userSpaceOnUse">
<stop offset="0.15154" stop-color="#B83A36"/>
<stop offset="0.21605" stop-color="#B83D2D"/>
<stop offset="0.45675" stop-color="#BB4914"/>
<stop offset="0.67542" stop-color="#BC5005"/>
<stop offset="0.85091" stop-color="#BD5300"/>
</linearGradient>
<linearGradient id="paint3_linear_12248_310325" x1="36.4911" y1="13.6765" x2="33.2969" y2="-4.13346" gradientUnits="userSpaceOnUse">
<stop stop-color="#FF7540"/>
<stop offset="0.08377" stop-color="#FF8137"/>
<stop offset="0.34713" stop-color="#FFA41F"/>
<stop offset="0.59529" stop-color="#FFBE0E"/>
<stop offset="0.81984" stop-color="#FFCD03"/>
<stop offset="1" stop-color="#FFD300"/>
</linearGradient>
<linearGradient id="paint4_linear_12248_310325" x1="51.6736" y1="16.4959" x2="37.8457" y2="16.4959" gradientUnits="userSpaceOnUse">
<stop offset="0.15154" stop-color="#B83A36"/>
<stop offset="0.21605" stop-color="#B83D2D"/>
<stop offset="0.45675" stop-color="#BB4914"/>
<stop offset="0.67542" stop-color="#BC5005"/>
<stop offset="0.85091" stop-color="#BD5300"/>
</linearGradient>
<linearGradient id="paint5_linear_12248_310325" x1="48.6828" y1="23.455" x2="38.2819" y2="22.4877" gradientUnits="userSpaceOnUse">
<stop offset="0.15154" stop-color="#B83A36"/>
<stop offset="0.21605" stop-color="#B83D2D"/>
<stop offset="0.45675" stop-color="#BB4914"/>
<stop offset="0.67542" stop-color="#BC5005"/>
<stop offset="0.85091" stop-color="#BD5300"/>
</linearGradient>
<linearGradient id="paint6_linear_12248_310325" x1="41.4845" y1="32.269" x2="38.4336" y2="32.269" gradientUnits="userSpaceOnUse">
<stop offset="0.15154" stop-color="#B83A36"/>
<stop offset="0.21605" stop-color="#B83D2D"/>
<stop offset="0.45675" stop-color="#BB4914"/>
<stop offset="0.67542" stop-color="#BC5005"/>
<stop offset="0.85091" stop-color="#BD5300"/>
</linearGradient>
<linearGradient id="paint7_linear_12248_310325" x1="31.2834" y1="2.4092" x2="31.8843" y2="5.32535" gradientUnits="userSpaceOnUse">
<stop offset="0.15154" stop-color="#B83A36"/>
<stop offset="0.21605" stop-color="#B83D2D"/>
<stop offset="0.45675" stop-color="#BB4914"/>
<stop offset="0.67542" stop-color="#BC5005"/>
<stop offset="0.85091" stop-color="#BD5300"/>
</linearGradient>
<linearGradient id="paint8_linear_12248_310325" x1="21.5321" y1="45.9511" x2="-1.27705" y2="2.2335" gradientUnits="userSpaceOnUse">
<stop offset="0.15154" stop-color="#B83A36"/>
<stop offset="0.21605" stop-color="#B83D2D"/>
<stop offset="0.45675" stop-color="#BB4914"/>
<stop offset="0.67542" stop-color="#BC5005"/>
<stop offset="0.85091" stop-color="#BD5300"/>
</linearGradient>
<linearGradient id="paint9_linear_12248_310325" x1="25.6444" y1="44.0549" x2="2.71422" y2="0.105396" gradientUnits="userSpaceOnUse">
<stop offset="0.16175" stop-color="#FF7540"/>
<stop offset="0.23197" stop-color="#FF8137"/>
<stop offset="0.45273" stop-color="#FFA41F"/>
<stop offset="0.66075" stop-color="#FFBE0E"/>
<stop offset="0.84898" stop-color="#FFCD03"/>
<stop offset="1" stop-color="#FFD300"/>
</linearGradient>
<linearGradient id="paint10_linear_12248_310325" x1="21.7945" y1="51.4271" x2="30.9235" y2="0.52653" gradientUnits="userSpaceOnUse">
<stop stop-color="#FF7540"/>
<stop offset="0.08377" stop-color="#FF8137"/>
<stop offset="0.34713" stop-color="#FFA41F"/>
<stop offset="0.59529" stop-color="#FFBE0E"/>
<stop offset="0.81984" stop-color="#FFCD03"/>
<stop offset="1" stop-color="#FFD300"/>
</linearGradient>
<linearGradient id="paint11_linear_12248_310325" x1="21.7945" y1="51.4271" x2="30.9235" y2="0.52653" gradientUnits="userSpaceOnUse">
<stop offset="0.15154" stop-color="#B83A36"/>
<stop offset="0.21605" stop-color="#B83D2D"/>
<stop offset="0.45675" stop-color="#BB4914"/>
<stop offset="0.67542" stop-color="#BC5005"/>
<stop offset="0.85091" stop-color="#BD5300"/>
</linearGradient>
<linearGradient id="paint12_linear_12248_310325" x1="22.0099" y1="49.4863" x2="30.6937" y2="1.06749" gradientUnits="userSpaceOnUse">
<stop stop-color="#FF7540"/>
<stop offset="0.08377" stop-color="#FF8137"/>
<stop offset="0.34713" stop-color="#FFA41F"/>
<stop offset="0.59529" stop-color="#FFBE0E"/>
<stop offset="0.81984" stop-color="#FFCD03"/>
<stop offset="1" stop-color="#FFD300"/>
</linearGradient>
<linearGradient id="paint13_linear_12248_310325" x1="16.9251" y1="14.7353" x2="20.3408" y2="-4.30985" gradientUnits="userSpaceOnUse">
<stop offset="0.15154" stop-color="#B83A36"/>
<stop offset="0.21605" stop-color="#B83D2D"/>
<stop offset="0.45675" stop-color="#BB4914"/>
<stop offset="0.67542" stop-color="#BC5005"/>
<stop offset="0.85091" stop-color="#BD5300"/>
</linearGradient>
<linearGradient id="paint14_linear_12248_310325" x1="16.5278" y1="13.6805" x2="19.7233" y2="-4.1369" gradientUnits="userSpaceOnUse">
<stop stop-color="#FF7540"/>
<stop offset="0.08377" stop-color="#FF8137"/>
<stop offset="0.34713" stop-color="#FFA41F"/>
<stop offset="0.59529" stop-color="#FFBE0E"/>
<stop offset="0.81984" stop-color="#FFCD03"/>
<stop offset="1" stop-color="#FFD300"/>
</linearGradient>
<linearGradient id="paint15_linear_12248_310325" x1="21.7945" y1="51.4271" x2="30.9235" y2="0.52653" gradientUnits="userSpaceOnUse">
<stop offset="0.15154" stop-color="#B83A36"/>
<stop offset="0.21605" stop-color="#B83D2D"/>
<stop offset="0.45675" stop-color="#BB4914"/>
<stop offset="0.67542" stop-color="#BC5005"/>
<stop offset="0.85091" stop-color="#BD5300"/>
</linearGradient>
<linearGradient id="paint16_linear_12248_310325" x1="24.3569" y1="21.429" x2="28.19" y2="0.0565598" gradientUnits="userSpaceOnUse">
<stop offset="0.15154" stop-color="#B83A36"/>
<stop offset="0.21605" stop-color="#B83D2D"/>
<stop offset="0.45675" stop-color="#BB4914"/>
<stop offset="0.67542" stop-color="#BC5005"/>
<stop offset="0.85091" stop-color="#BD5300"/>
</linearGradient>
<linearGradient id="paint17_linear_12248_310325" x1="24.4457" y1="20.1137" x2="28.0965" y2="-0.24215" gradientUnits="userSpaceOnUse">
<stop stop-color="#FF7540"/>
<stop offset="0.08377" stop-color="#FF8137"/>
<stop offset="0.34713" stop-color="#FFA41F"/>
<stop offset="0.59529" stop-color="#FFBE0E"/>
<stop offset="0.81984" stop-color="#FFCD03"/>
<stop offset="1" stop-color="#FFD300"/>
</linearGradient>
<linearGradient id="paint18_linear_12248_310325" x1="22.0104" y1="49.4843" x2="30.6935" y2="1.07003" gradientUnits="userSpaceOnUse">
<stop stop-color="#FF7540"/>
<stop offset="0.08377" stop-color="#FF8137"/>
<stop offset="0.34713" stop-color="#FFA41F"/>
<stop offset="0.59529" stop-color="#FFBE0E"/>
<stop offset="0.81984" stop-color="#FFCD03"/>
<stop offset="1" stop-color="#FFD300"/>
</linearGradient>
<linearGradient id="paint19_linear_12248_310325" x1="23.7083" y1="40.0164" x2="28.882" y2="11.1689" gradientUnits="userSpaceOnUse">
<stop offset="0.15154" stop-color="#B83A36"/>
<stop offset="0.21605" stop-color="#B83D2D"/>
<stop offset="0.45675" stop-color="#BB4914"/>
<stop offset="0.67542" stop-color="#BC5005"/>
<stop offset="0.85091" stop-color="#BD5300"/>
</linearGradient>
<linearGradient id="paint20_linear_12248_310325" x1="1.34375" y1="16.4959" x2="15.1717" y2="16.4959" gradientUnits="userSpaceOnUse">
<stop offset="0.15154" stop-color="#B83A36"/>
<stop offset="0.21605" stop-color="#B83D2D"/>
<stop offset="0.45675" stop-color="#BB4914"/>
<stop offset="0.67542" stop-color="#BC5005"/>
<stop offset="0.85091" stop-color="#BD5300"/>
</linearGradient>
<linearGradient id="paint21_linear_12248_310325" x1="4.33242" y1="23.455" x2="14.7333" y2="22.4877" gradientUnits="userSpaceOnUse">
<stop offset="0.15154" stop-color="#B83A36"/>
<stop offset="0.21605" stop-color="#B83D2D"/>
<stop offset="0.45675" stop-color="#BB4914"/>
<stop offset="0.67542" stop-color="#BC5005"/>
<stop offset="0.85091" stop-color="#BD5300"/>
</linearGradient>
<linearGradient id="paint22_linear_12248_310325" x1="7.62695" y1="23.1114" x2="10.5015" y2="23.1114" gradientUnits="userSpaceOnUse">
<stop offset="0.15154" stop-color="#B83A36"/>
<stop offset="0.21605" stop-color="#B83D2D"/>
<stop offset="0.45675" stop-color="#BB4914"/>
<stop offset="0.67542" stop-color="#BC5005"/>
<stop offset="0.85091" stop-color="#BD5300"/>
</linearGradient>
<linearGradient id="paint23_linear_12248_310325" x1="20.5791" y1="38.1598" x2="25.152" y2="38.1598" gradientUnits="userSpaceOnUse">
<stop offset="0.15154" stop-color="#B83A36"/>
<stop offset="0.21605" stop-color="#B83D2D"/>
<stop offset="0.45675" stop-color="#BB4914"/>
<stop offset="0.67542" stop-color="#BC5005"/>
<stop offset="0.85091" stop-color="#BD5300"/>
</linearGradient>
<linearGradient id="paint24_linear_12248_310325" x1="29.1976" y1="20.7243" x2="30.9597" y2="14.7944" gradientUnits="userSpaceOnUse">
<stop offset="0.15154" stop-color="#B83A36"/>
<stop offset="0.21605" stop-color="#B83D2D"/>
<stop offset="0.45675" stop-color="#BB4914"/>
<stop offset="0.67542" stop-color="#BC5005"/>
<stop offset="0.85091" stop-color="#BD5300"/>
</linearGradient>
<linearGradient id="paint25_linear_12248_310325" x1="23.826" y1="39.7645" x2="28.7564" y2="12.274" gradientUnits="userSpaceOnUse">
<stop stop-color="#47FF2A"/>
<stop offset="0.15493" stop-color="#38DB37"/>
<stop offset="0.44725" stop-color="#209E4E"/>
<stop offset="0.6958" stop-color="#0E725E"/>
<stop offset="0.88779" stop-color="#045769"/>
<stop offset="1" stop-color="#004D6D"/>
</linearGradient>
<linearGradient id="paint26_linear_12248_310325" x1="16.5418" y1="5.23909" x2="15.7942" y2="8.8675" gradientUnits="userSpaceOnUse">
<stop offset="0.15154" stop-color="#B83A36"/>
<stop offset="0.21605" stop-color="#B83D2D"/>
<stop offset="0.45675" stop-color="#BB4914"/>
<stop offset="0.67542" stop-color="#BC5005"/>
<stop offset="0.85091" stop-color="#BD5300"/>
</linearGradient>
<linearGradient id="paint27_linear_12248_310325" x1="26.8807" y1="15.5137" x2="25.8886" y2="24.847" gradientUnits="userSpaceOnUse">
<stop offset="0.00559" stop-color="#40AC29"/>
<stop offset="1"/>
</linearGradient>
<linearGradient id="paint28_linear_12248_310325" x1="21.355" y1="35.4139" x2="25.459" y2="29.494" gradientUnits="userSpaceOnUse">
<stop offset="0.00559" stop-color="#40AC29"/>
<stop offset="1"/>
</linearGradient>
<linearGradient id="paint29_linear_12248_310325" x1="26.3455" y1="34.0558" x2="26.6086" y2="24.4259" gradientUnits="userSpaceOnUse">
<stop offset="0.00559" stop-color="#40AC29"/>
<stop offset="1"/>
</linearGradient>
</defs>
</svg>
