<svg width="123" height="34" viewBox="0 0 123 34" fill="none" xmlns="http://www.w3.org/2000/svg">
<path d="M61.0061 22.8333C61.0061 22.8333 60.8225 23.0652 60.4457 23.4565C59.1605 24.7948 55.6336 28.0367 49.517 30.5201C45.3717 32.2062 40.0329 33.5445 33.3946 33.6992C32.4573 33.7233 31.491 33.7233 30.5006 33.6943C25.732 33.559 21.5866 32.3415 18.0161 30.5201C5.60427 24.1957 0.173769 10.5953 0.0190913 9.97683C-0.178927 9.17971 1.21735 8.08301 1.71495 7.78338C1.8309 7.71098 2.5653 7.61431 3.62822 7.51769C3.662 7.51285 3.69589 7.50802 3.72967 7.50802C3.74417 7.50319 3.75863 7.50319 3.77313 7.50319C7.25663 7.18911 13.9964 6.8703 14.8226 7.3969C17.4171 11.1461 20.6831 13.842 24.2632 15.76C26.8383 17.137 29.573 18.113 32.3365 18.7797C33.1675 18.9826 34.0082 19.1517 34.8392 19.3015C35.5881 19.432 36.3321 19.548 37.0761 19.6397C42.3617 20.321 47.454 20.0697 51.3916 19.6107C55.9138 19.0889 58.9093 18.2868 58.9093 18.2868L61.0061 22.8333Z" fill="url(#paint0_linear_12248_308780)"/>
<g opacity="0.3" style="mix-blend-mode:multiply">
<path d="M60.4457 23.4566C59.1606 24.7949 55.6336 28.0367 49.5171 30.5201C49.5267 30.2254 49.5412 29.8872 49.5654 29.5007C41.9317 27.2541 37.0762 19.6446 37.0762 19.6446V19.6397C42.3618 20.321 47.454 20.0698 51.3916 19.6107L60.4457 23.4566Z" fill="#A06A9A"/>
</g>
<g opacity="0.68" style="mix-blend-mode:soft-light">
<path d="M33.3945 33.6991C32.4572 33.7233 31.4909 33.7233 30.5005 33.6943C25.7319 33.559 21.5866 32.3415 18.016 30.5201C14.7066 27.399 12.6484 24.273 12.6484 24.273C12.6484 24.273 20.4415 27.7226 24.2583 26.1282C27.993 24.5677 24.4128 16.1127 24.2631 15.76C26.8382 17.137 29.5729 18.113 32.3364 18.7796C28.7901 28.0029 30.9449 31.9259 33.3945 33.6991Z" fill="#FFD13B"/>
</g>
<path d="M45.1823 23.7937C45.1823 23.7937 34.6828 26.5988 25.8828 23.6968C31.994 27.8136 45.2526 25.453 45.2526 25.453L45.1823 23.7937Z" fill="url(#paint1_linear_12248_308780)"/>
<path d="M61.007 21.1364V22.8322C61.007 22.8322 51.837 34.2875 30.5015 33.6933C9.17072 33.0942 0.218151 10.773 0.0200785 9.97581C-0.177994 9.17863 1.21823 8.08193 1.71589 7.78235C1.71589 7.78235 8.87125 30.205 30.5015 32.0989C52.1366 33.9928 61.007 21.1364 61.007 21.1364Z" fill="url(#paint2_linear_12248_308780)"/>
<path d="M2.74181 10.375C2.74181 10.375 5.96137 13.4556 5.24072 15.1754C4.52006 16.8954 2.19039 11.5426 2.74181 10.375Z" fill="url(#paint3_linear_12248_308780)"/>
<path d="M30.5049 24.7298C30.5049 24.7298 31.8494 23.5395 34.1334 25.002C32.9006 25.4832 30.5049 24.7298 30.5049 24.7298Z" fill="url(#paint4_linear_12248_308780)"/>
<g opacity="0.68" style="mix-blend-mode:soft-light">
<path d="M4.71706 9.73535C4.71706 9.73535 11.7717 7.37668 14.2885 9.1457C16.8053 10.9147 25.8766 19.2736 23.0219 22.2573C19.6759 25.7547 3.41072 10.121 4.71706 9.73535Z" fill="#FFD13B"/>
</g>
<path d="M26.8643 24.2731C26.8643 24.2731 30.7292 26.7804 43.6451 25.689C38.9876 26.7604 30.707 26.2886 26.8643 24.2731Z" fill="#FFE83E"/>
<path d="M3.7294 7.50806H3.76318C3.74873 7.50806 3.73906 7.50806 3.72461 7.51289L3.7294 7.50806Z" fill="#FFE83E"/>
<path d="M34.8394 19.3017C33.9408 19.3886 32.8344 19.3837 31.6266 19.118C28.5924 18.4465 28.1044 21.8382 28.1044 21.8382C28.1044 21.8382 29.1367 18.3267 25.0702 16.625C22.4223 15.5169 16.2674 10.0687 14.6295 8.48894C13.1849 7.0975 5.76394 7.40185 4.0004 7.49364C3.90378 7.49847 3.82173 7.50331 3.76367 7.50814L3.77333 7.50331C7.25684 7.18923 13.9966 6.87042 14.8229 7.39702C17.4173 11.1462 20.6833 13.8421 24.2634 15.7602C26.8385 17.1372 29.5732 18.1131 32.3367 18.7798C33.1677 18.9828 34.0084 19.1518 34.8394 19.3017Z" fill="#FFE83E"/>
<g opacity="0.68" style="mix-blend-mode:soft-light">
<path d="M8.07042 10.375C8.07042 10.375 12.32 8.91692 14.0805 10.4346C15.841 11.9523 17.1159 18.2658 15.5981 18.2658C14.0804 18.2658 6.8563 11.0439 8.07042 10.375Z" fill="#FFD13B"/>
</g>
<path d="M13.1529 12.0761C13.1529 13.6269 11.878 14.884 10.3055 14.884C8.7329 14.884 7.45801 13.6269 7.45801 12.0761C7.45801 10.5254 8.73285 9.26831 10.3055 9.26831C11.8781 9.26831 13.1529 10.5254 13.1529 12.0761Z" fill="url(#paint5_linear_12248_308780)"/>
<path d="M13.1529 12.7053C13.1529 14.2561 11.878 15.5131 10.3055 15.5131C8.7329 15.5131 7.45801 14.2561 7.45801 12.7053C7.45801 11.1546 8.44635 13.2483 10.0189 13.2483C11.5915 13.2483 13.1529 11.1546 13.1529 12.7053Z" fill="#FFE83E"/>
<path d="M13.1529 12.2991C13.1529 13.7756 11.878 14.9726 10.3055 14.9726C8.7329 14.9726 7.45801 13.7756 7.45801 12.2991C7.45801 10.8226 8.73285 9.62561 10.3055 9.62561C11.8781 9.62561 13.1529 10.8226 13.1529 12.2991Z" fill="url(#paint6_linear_12248_308780)"/>
<path opacity="0.44" d="M7.89155 11.5533C7.89155 11.5533 9.14005 9.27989 11.3794 10.0486C12.3725 10.3895 12.7764 11.7301 12.2483 11.9369C11.7202 12.1438 11.0557 10.7821 9.80916 11.2813C9.27007 11.4971 7.6786 12.5023 7.89155 11.5533Z" fill="url(#paint7_linear_12248_308780)" style="mix-blend-mode:screen"/>
<path opacity="0.44" d="M8.12525 13.0235C8.12525 13.0235 8.72865 14.9184 10.5068 14.7708C12.285 14.6231 7.98899 11.951 8.12525 13.0235Z" fill="url(#paint8_linear_12248_308780)" style="mix-blend-mode:screen"/>
<path d="M10.7814 10.1079C10.7985 10.4516 11.7437 11.4156 12.0694 11.1389C12.5591 10.7228 10.762 9.71711 10.7814 10.1079Z" fill="#F3FFEE"/>
<path d="M8.85548 13.6489C8.85396 13.897 9.07565 14.3809 9.58205 14.4977C10.0884 14.6145 8.85803 13.2411 8.85548 13.6489Z" fill="#F3FFEE"/>
<path d="M9.17676 9.58101C9.17676 9.58101 9.85639 8.56784 10.3504 8.80078C10.8444 9.03372 10.887 9.39282 10.887 9.39282L9.17676 9.58101Z" fill="url(#paint9_linear_12248_308780)"/>
<g opacity="0.3" style="mix-blend-mode:multiply">
<path d="M10.1379 8.80103C10.1379 8.80103 9.54654 9.25876 9.56283 9.35983C9.57907 9.46085 10.4714 9.47638 10.1379 8.80103Z" fill="#A06A9A"/>
</g>
<path d="M16.137 20.513C17.4305 20.513 18.4791 19.479 18.4791 18.2034C18.4791 16.9279 17.4305 15.8939 16.137 15.8939C14.8435 15.8939 13.7949 16.9279 13.7949 18.2034C13.7949 19.479 14.8435 20.513 16.137 20.513Z" fill="url(#paint10_linear_12248_308780)"/>
<path d="M18.4791 18.7209C18.4791 19.9964 17.4306 21.0304 16.137 21.0304C14.8435 21.0304 13.7949 19.9964 13.7949 18.7209C13.7949 17.4453 14.6078 19.1675 15.9014 19.1675C17.1948 19.1675 18.4791 17.4454 18.4791 18.7209Z" fill="#FFE83E"/>
<path d="M18.4791 18.3869C18.4791 19.6014 17.4306 20.5859 16.137 20.5859C14.8435 20.5859 13.7949 19.6014 13.7949 18.3869C13.7949 17.1725 14.8435 16.1879 16.137 16.1879C17.4306 16.1879 18.4791 17.1724 18.4791 18.3869Z" fill="url(#paint11_linear_12248_308780)"/>
<path opacity="0.44" d="M14.1518 17.7735C14.1518 17.7735 15.1787 15.9035 17.0206 16.5358C17.8375 16.8162 18.1697 17.9189 17.7353 18.089C17.3009 18.2592 16.7544 17.1392 15.7291 17.5498C15.2856 17.7273 13.9766 18.5541 14.1518 17.7735Z" fill="url(#paint12_linear_12248_308780)" style="mix-blend-mode:screen"/>
<path opacity="0.44" d="M14.3434 18.9827C14.3434 18.9827 14.8397 20.5413 16.3023 20.4199C17.7649 20.2984 14.2313 18.1005 14.3434 18.9827Z" fill="url(#paint13_linear_12248_308780)" style="mix-blend-mode:screen"/>
<path d="M16.5284 16.5845C16.5425 16.8672 17.32 17.6601 17.5879 17.4325C17.9906 17.0903 16.5125 16.2631 16.5284 16.5845Z" fill="#F3FFEE"/>
<path d="M14.9443 19.497C14.9431 19.7011 15.1255 20.0991 15.542 20.1951C15.9585 20.2912 14.9464 19.1616 14.9443 19.497Z" fill="#F3FFEE"/>
<path d="M17.4863 16.431C17.4863 16.431 18.3272 16.3709 18.3729 16.6862C18.4186 17.0013 18.2248 17.154 18.2248 17.154L17.4863 16.431Z" fill="url(#paint14_linear_12248_308780)"/>
<g opacity="0.3" style="mix-blend-mode:multiply">
<path d="M18.2942 16.5879C18.2942 16.5879 17.8097 16.4833 17.7568 16.5282C17.7038 16.5731 18.0228 16.9925 18.2942 16.5879Z" fill="#A06A9A"/>
</g>
<path d="M24.1126 22.2392C24.1126 23.291 23.248 24.1437 22.1813 24.1437C21.1147 24.1437 20.25 23.291 20.25 22.2392C20.25 21.1874 21.1147 20.3347 22.1813 20.3347C23.248 20.3347 24.1126 21.1874 24.1126 22.2392Z" fill="url(#paint15_linear_12248_308780)"/>
<path d="M24.1126 22.6658C24.1126 23.7176 23.248 24.5703 22.1813 24.5703C21.1147 24.5703 20.25 23.7176 20.25 22.6658C20.25 21.614 20.9204 23.034 21.987 23.034C23.0536 23.034 24.1126 21.614 24.1126 22.6658Z" fill="#FFE83E"/>
<path d="M24.1126 22.3904C24.1126 23.3919 23.248 24.2037 22.1813 24.2037C21.1147 24.2037 20.25 23.3919 20.25 22.3904C20.25 21.3889 21.1147 20.577 22.1813 20.577C23.248 20.577 24.1126 21.3889 24.1126 22.3904Z" fill="url(#paint16_linear_12248_308780)"/>
<path opacity="0.44" d="M20.5435 21.8846C20.5435 21.8846 21.3903 20.3426 22.9092 20.864C23.5828 21.0953 23.8567 22.0045 23.4985 22.1448C23.1403 22.2851 22.6896 21.3615 21.8441 21.7001C21.4785 21.8465 20.399 22.5282 20.5435 21.8846Z" fill="url(#paint17_linear_12248_308780)" style="mix-blend-mode:screen"/>
<path opacity="0.44" d="M20.7024 22.8817C20.7024 22.8817 21.1116 24.167 22.3177 24.0668C23.5237 23.9667 20.6099 22.1543 20.7024 22.8817Z" fill="url(#paint18_linear_12248_308780)" style="mix-blend-mode:screen"/>
<path d="M22.504 20.9041C22.5156 21.1373 23.1567 21.7911 23.3776 21.6034C23.7097 21.3212 22.4908 20.6391 22.504 20.9041Z" fill="#F3FFEE"/>
<path d="M21.1973 23.3059C21.1962 23.4742 21.3466 23.8024 21.6901 23.8816C22.0336 23.9608 21.199 23.0293 21.1973 23.3059Z" fill="#F3FFEE"/>
<path d="M33.3945 32.2685C33.3945 32.2685 42.2258 28.5098 42.0953 31.666C39.5485 32.6526 33.9467 32.6734 33.3945 32.2685Z" fill="url(#paint19_linear_12248_308780)"/>
<path d="M61.0117 22.8334C61.0117 22.8334 61.1953 23.0654 61.5721 23.4567C62.8573 24.7949 66.3842 28.0368 72.5008 30.5202C76.6462 32.2063 81.9849 33.5447 88.6233 33.6993C89.5606 33.7234 90.5268 33.7234 91.5173 33.6945C96.2859 33.5592 100.431 32.3416 104.002 30.5202C116.414 24.1958 121.844 10.5954 121.999 9.97696C122.197 9.17983 120.8 8.08313 120.303 7.7835C120.187 7.7111 119.453 7.61443 118.39 7.51781C118.356 7.51297 118.322 7.50814 118.288 7.50814C118.274 7.50331 118.259 7.50331 118.245 7.50331C114.761 7.18923 108.021 6.87042 107.195 7.39702C104.601 11.1462 101.335 13.8421 97.7547 15.7602C95.1795 17.1372 92.4449 18.1131 89.6814 18.7798C88.8503 18.9828 88.0097 19.1518 87.1787 19.3017C86.4298 19.4321 85.6857 19.5481 84.9417 19.6398C79.6561 20.3211 74.5639 20.0698 70.6262 19.6108C66.104 19.089 63.1085 18.287 63.1085 18.287L61.0117 22.8334Z" fill="url(#paint20_linear_12248_308780)"/>
<g opacity="0.3" style="mix-blend-mode:multiply">
<path d="M61.5723 23.4566C62.8574 24.7949 66.3843 28.0367 72.5009 30.5201C72.4913 30.2254 72.4768 29.8872 72.4527 29.5007C80.0863 27.2541 84.9419 19.6446 84.9419 19.6446V19.6397C79.6563 20.321 74.564 20.0698 70.6263 19.6107L61.5723 23.4566Z" fill="#A06A9A"/>
</g>
<g opacity="0.68" style="mix-blend-mode:soft-light">
<path d="M88.623 33.6991C89.5603 33.7233 90.5266 33.7233 91.5171 33.6943C96.2857 33.559 100.431 32.3415 104.001 30.5201C107.311 27.399 109.369 24.273 109.369 24.273C109.369 24.273 101.576 27.7226 97.7593 26.1282C94.0246 24.5677 97.6048 16.1127 97.7545 15.76C95.1793 17.137 92.4447 18.113 89.6811 18.7796C93.2274 28.0029 91.0726 31.9259 88.623 33.6991Z" fill="#FFD13B"/>
</g>
<path d="M76.8349 23.7937C76.8349 23.7937 87.3344 26.5988 96.1344 23.6968C90.0232 27.8136 76.7646 25.453 76.7646 25.453L76.8349 23.7937Z" fill="url(#paint21_linear_12248_308780)"/>
<path d="M61.0107 21.1364V22.8322C61.0107 22.8322 70.1807 34.2875 91.5163 33.6933C112.847 33.0942 121.8 10.773 121.998 9.97581C122.196 9.17863 120.8 8.08193 120.302 7.78235C120.302 7.78235 113.147 30.205 91.5163 32.0989C69.8812 33.9928 61.0107 21.1364 61.0107 21.1364Z" fill="url(#paint22_linear_12248_308780)"/>
<g opacity="0.68" style="mix-blend-mode:soft-light">
<path d="M117.301 9.73535C117.301 9.73535 110.246 7.37668 107.729 9.1457C105.212 10.9147 96.1412 19.2736 98.9959 22.2573C102.342 25.7547 118.607 10.121 117.301 9.73535Z" fill="#FFD13B"/>
</g>
<path d="M95.1538 24.2731C95.1538 24.2731 91.2889 26.7804 78.373 25.689C83.0305 26.7604 91.3112 26.2886 95.1538 24.2731Z" fill="#FFE83E"/>
<path d="M118.288 7.50806H118.254C118.268 7.50806 118.278 7.50806 118.292 7.51289L118.288 7.50806Z" fill="#FFE83E"/>
<path d="M87.1787 19.3017C88.0773 19.3886 89.1837 19.3837 90.3915 19.118C93.4257 18.4465 93.9137 21.8382 93.9137 21.8382C93.9137 21.8382 92.8814 18.3267 96.9478 16.625C99.5957 15.5169 105.751 10.0687 107.389 8.48894C108.833 7.0975 116.254 7.40185 118.018 7.49364C118.114 7.49847 118.196 7.50331 118.254 7.50814L118.245 7.50331C114.761 7.18923 108.021 6.87042 107.195 7.39702C104.601 11.1462 101.335 13.8421 97.7547 15.7602C95.1795 17.1372 92.4449 18.1131 89.6814 18.7798C88.8504 18.9828 88.0097 19.1518 87.1787 19.3017Z" fill="#FFE83E"/>
<g opacity="0.68" style="mix-blend-mode:soft-light">
<path d="M113.946 10.375C113.946 10.375 109.696 8.91692 107.936 10.4346C106.175 11.9523 104.901 18.2658 106.418 18.2658C107.936 18.2658 115.16 11.0439 113.946 10.375Z" fill="#FFD13B"/>
</g>
<path d="M108.865 12.0761C108.865 13.6269 110.14 14.884 111.713 14.884C113.285 14.884 114.56 13.6269 114.56 12.0761C114.56 10.5254 113.285 9.26831 111.713 9.26831C110.14 9.26831 108.865 10.5254 108.865 12.0761Z" fill="url(#paint23_linear_12248_308780)"/>
<path d="M108.865 12.7053C108.865 14.2561 110.14 15.5131 111.713 15.5131C113.285 15.5131 114.56 14.2561 114.56 12.7053C114.56 11.1546 113.572 13.2483 111.999 13.2483C110.427 13.2483 108.865 11.1546 108.865 12.7053Z" fill="#FFE83E"/>
<path d="M108.865 12.2991C108.865 13.7756 110.14 14.9726 111.713 14.9726C113.285 14.9726 114.56 13.7756 114.56 12.2991C114.56 10.8226 113.285 9.62561 111.713 9.62561C110.14 9.62561 108.865 10.8226 108.865 12.2991Z" fill="url(#paint24_linear_12248_308780)"/>
<path opacity="0.44" d="M114.127 11.5533C114.127 11.5533 112.878 9.27989 110.639 10.0486C109.646 10.3895 109.242 11.7301 109.77 11.9369C110.298 12.1438 110.963 10.7821 112.209 11.2813C112.748 11.4971 114.34 12.5023 114.127 11.5533Z" fill="url(#paint25_linear_12248_308780)" style="mix-blend-mode:screen"/>
<path opacity="0.44" d="M113.893 13.0235C113.893 13.0235 113.289 14.9184 111.511 14.7708C109.733 14.6231 114.029 11.951 113.893 13.0235Z" fill="url(#paint26_linear_12248_308780)" style="mix-blend-mode:screen"/>
<path d="M111.237 10.1079C111.22 10.4516 110.275 11.4156 109.949 11.1389C109.459 10.7228 111.256 9.71711 111.237 10.1079Z" fill="#F3FFEE"/>
<path d="M113.162 13.6489C113.164 13.897 112.942 14.3809 112.436 14.4977C111.929 14.6145 113.16 13.2411 113.162 13.6489Z" fill="#F3FFEE"/>
<path d="M112.841 9.58101C112.841 9.58101 112.161 8.56784 111.667 8.80078C111.173 9.03372 111.131 9.39282 111.131 9.39282L112.841 9.58101Z" fill="url(#paint27_linear_12248_308780)"/>
<g opacity="0.3" style="mix-blend-mode:multiply">
<path d="M111.88 8.80103C111.88 8.80103 112.472 9.25876 112.455 9.35983C112.439 9.46085 111.547 9.47638 111.88 8.80103Z" fill="#A06A9A"/>
</g>
<path d="M105.88 20.513C107.174 20.513 108.222 19.479 108.222 18.2034C108.222 16.9279 107.174 15.8939 105.88 15.8939C104.587 15.8939 103.538 16.9279 103.538 18.2034C103.538 19.479 104.587 20.513 105.88 20.513Z" fill="url(#paint28_linear_12248_308780)"/>
<path d="M103.538 18.7209C103.538 19.9964 104.587 21.0304 105.88 21.0304C107.174 21.0304 108.222 19.9964 108.222 18.7209C108.222 17.4453 107.409 19.1675 106.116 19.1675C104.822 19.1675 103.538 17.4454 103.538 18.7209Z" fill="#FFE83E"/>
<path d="M103.538 18.3869C103.538 19.6014 104.587 20.5859 105.88 20.5859C107.174 20.5859 108.222 19.6014 108.222 18.3869C108.222 17.1725 107.174 16.1879 105.88 16.1879C104.587 16.1879 103.538 17.1724 103.538 18.3869Z" fill="url(#paint29_linear_12248_308780)"/>
<path opacity="0.44" d="M107.866 17.7735C107.866 17.7735 106.839 15.9035 104.997 16.5358C104.18 16.8162 103.848 17.9189 104.282 18.089C104.717 18.2592 105.263 17.1392 106.289 17.5498C106.732 17.7273 108.041 18.5541 107.866 17.7735Z" fill="url(#paint30_linear_12248_308780)" style="mix-blend-mode:screen"/>
<path opacity="0.44" d="M107.674 18.9827C107.674 18.9827 107.177 20.5413 105.715 20.4199C104.252 20.2984 107.786 18.1005 107.674 18.9827Z" fill="url(#paint31_linear_12248_308780)" style="mix-blend-mode:screen"/>
<path d="M105.488 16.5845C105.474 16.8672 104.697 17.6601 104.429 17.4325C104.026 17.0903 105.504 16.2631 105.488 16.5845Z" fill="#F3FFEE"/>
<path d="M107.073 19.497C107.074 19.7011 106.892 20.0991 106.476 20.1951C106.059 20.2912 107.071 19.1616 107.073 19.497Z" fill="#F3FFEE"/>
<path d="M104.531 16.431C104.531 16.431 103.69 16.3709 103.645 16.6862C103.599 17.0013 103.793 17.154 103.793 17.154L104.531 16.431Z" fill="url(#paint32_linear_12248_308780)"/>
<g opacity="0.3" style="mix-blend-mode:multiply">
<path d="M103.723 16.5879C103.723 16.5879 104.207 16.4833 104.26 16.5282C104.313 16.5731 103.994 16.9925 103.723 16.5879Z" fill="#A06A9A"/>
</g>
<path d="M97.9053 22.2392C97.9053 23.291 98.77 24.1437 99.8366 24.1437C100.903 24.1437 101.768 23.291 101.768 22.2392C101.768 21.1874 100.903 20.3347 99.8366 20.3347C98.77 20.3347 97.9053 21.1874 97.9053 22.2392Z" fill="url(#paint33_linear_12248_308780)"/>
<path d="M97.9053 22.6658C97.9053 23.7176 98.77 24.5703 99.8366 24.5703C100.903 24.5703 101.768 23.7176 101.768 22.6658C101.768 21.614 101.098 23.034 100.031 23.034C98.9643 23.034 97.9053 21.614 97.9053 22.6658Z" fill="#FFE83E"/>
<path d="M97.9053 22.3904C97.9053 23.3919 98.77 24.2037 99.8366 24.2037C100.903 24.2037 101.768 23.3919 101.768 22.3904C101.768 21.3889 100.903 20.577 99.8366 20.577C98.77 20.577 97.9053 21.3889 97.9053 22.3904Z" fill="url(#paint34_linear_12248_308780)"/>
<path opacity="0.44" d="M101.473 21.8846C101.473 21.8846 100.627 20.3426 99.1077 20.864C98.4341 21.0953 98.1601 22.0045 98.5183 22.1448C98.8765 22.2851 99.3272 21.3615 100.173 21.7001C100.538 21.8465 101.618 22.5282 101.473 21.8846Z" fill="url(#paint35_linear_12248_308780)" style="mix-blend-mode:screen"/>
<path opacity="0.44" d="M101.315 22.8817C101.315 22.8817 100.906 24.167 99.7002 24.0668C98.4941 23.9667 101.408 22.1543 101.315 22.8817Z" fill="url(#paint36_linear_12248_308780)" style="mix-blend-mode:screen"/>
<path d="M99.514 20.9041C99.5024 21.1373 98.8613 21.7911 98.6404 21.6034C98.3083 21.3212 99.5271 20.6391 99.514 20.9041Z" fill="#F3FFEE"/>
<path d="M100.82 23.3059C100.821 23.4742 100.671 23.8024 100.327 23.8816C99.9836 23.9608 100.818 23.0293 100.82 23.3059Z" fill="#F3FFEE"/>
<path d="M84.0037 16.538C83.7911 17.2288 82.5881 28.602 63.5427 29.9307C61.7502 30.0563 59.948 29.9983 58.1653 29.7615C52.2033 28.9692 38.8444 26.1283 38.0086 16.538C37.9409 15.7794 39.1246 15.1948 41.637 15.1416C42.0139 15.1997 42.6419 15.219 43.4391 15.2045C48.0724 15.1272 58.547 13.987 60.7935 13.7357V13.6874C60.7935 13.6874 60.8709 13.697 61.0062 13.7115C61.1414 13.697 61.2188 13.6874 61.2188 13.6874V13.7357C63.2528 13.9628 72.0362 14.9194 77.1141 15.1562C78.6119 15.2238 79.7907 15.2334 80.3753 15.1416C82.8876 15.1948 84.2259 15.8133 84.0037 16.538Z" fill="url(#paint37_linear_12248_308780)"/>
<g opacity="0.3" style="mix-blend-mode:multiply">
<path d="M84.0037 16.538C83.7911 17.2288 82.5881 28.602 63.5427 29.9306C61.7502 30.0563 59.948 29.9983 58.1653 29.7615C52.2033 28.9692 38.8444 26.1283 38.0086 16.538C37.9409 15.7794 39.1246 15.1948 41.637 15.1416C42.0139 15.1997 42.6419 15.219 43.4391 15.2045C44.2604 16.9582 49.232 26.2201 62.2478 25.2587C71.0797 24.6403 75.2299 19.2194 77.1141 15.1562C78.6119 15.2238 79.7907 15.2334 80.3753 15.1416C82.8876 15.1948 84.2259 15.8133 84.0037 16.538Z" fill="#A06A9A"/>
</g>
<path d="M66.6253 9.21826L61.0063 20.7509L56.0589 10.6001L55.3874 9.21826C55.3874 9.21826 54.8414 4.41586 61.0063 0C67.176 4.41586 66.6253 9.21826 66.6253 9.21826Z" fill="url(#paint38_linear_12248_308780)"/>
<g opacity="0.3" style="mix-blend-mode:multiply">
<path d="M61.0063 0V1.20304C61.0063 1.20304 60.1704 10.4358 58.0881 10.803C57.5615 10.8948 56.8416 10.7982 56.0589 10.6001L55.3874 9.21826C55.3874 9.21826 54.8414 4.41586 61.0063 0Z" fill="#A06A9A"/>
</g>
<path d="M65.6736 8.96703L61.0065 18.5429L56.3393 8.96703C56.32 8.29547 56.4553 5.42563 59.6826 2.34315C60.0739 1.96151 60.5136 1.58465 61.0065 1.203C64.6397 4.01001 65.461 6.83152 65.6301 8.22786C65.6736 8.56122 65.6785 8.81729 65.6736 8.96703Z" fill="url(#paint39_linear_12248_308780)"/>
<path d="M84.0047 16.5368C83.7921 17.2277 82.5891 28.6008 63.5436 29.9294C61.7512 30.0551 59.9491 29.9971 58.1663 29.7604C52.2043 28.968 38.8455 26.1271 38.0096 16.5368C37.942 15.7782 39.1256 15.1936 41.638 15.1405C41.638 15.1405 41.8555 26.6054 60.9975 26.8615C76.9412 27.1175 80.3763 15.1405 80.3763 15.1405C82.8886 15.1936 84.227 15.8121 84.0047 16.5368Z" fill="url(#paint40_linear_12248_308780)"/>
<g opacity="0.3" style="mix-blend-mode:multiply">
<path d="M40.9974 16.4046C40.9974 16.4046 38.7626 16.0859 38.6256 17.4679C38.4886 18.8499 43.7782 29.8996 62.5893 29.4906C75.5934 29.0817 84.0992 19.0218 83.3632 16.7318C83.1369 15.5575 81.2367 16.1776 80.9095 16.3729C80.5824 16.5682 73.9576 27.6913 62.5893 27.6095C51.2208 27.5277 42.715 23.193 40.9974 16.4046Z" fill="#A06A9A"/>
</g>
<g opacity="0.68" style="mix-blend-mode:soft-light">
<path d="M68.718 15.76C68.718 15.76 76.3018 15.0767 75.5063 16.5086C74.7108 17.9405 70.309 25.0653 61.0281 23.9864C55.0218 23.2881 64.2631 22.7543 68.718 15.76Z" fill="#FFD13B"/>
</g>
<g opacity="0.68" style="mix-blend-mode:soft-light">
<path d="M45.7015 16.0343C45.7015 16.0343 51.6944 15.2417 52.649 16.0343C53.6036 16.8268 58.2705 21.9738 56.4144 22.7679C54.5582 23.5621 43.7923 17.5222 45.7015 16.0343Z" fill="#FFD13B"/>
</g>
<g opacity="0.68" style="mix-blend-mode:soft-light">
<path d="M67.312 20.5771C67.312 20.5771 72.6422 15.8723 74.0742 16.1905C75.5061 16.5087 65.4819 24.7515 67.312 20.5771Z" fill="#FFD13B"/>
</g>
<path d="M48.2998 16.1749C48.2998 16.1749 45.5694 15.7237 46.2314 17.0389C46.8934 18.3541 53.9139 22.8567 55.3758 22.3903C56.8378 21.9239 49.5295 16.4702 48.2998 16.1749Z" fill="#FFD13B"/>
<path d="M48.5843 19.49L48.5746 19.4996C47.4682 20.2775 45.2989 20.8331 44.9076 19.9538C44.7046 19.5045 44.8158 19.1228 45.096 18.8136L45.1009 18.8088C45.7773 18.0696 47.4345 17.7555 48.0866 17.8859C49.6424 18.2048 49.4105 18.9102 48.5843 19.49Z" fill="url(#paint41_linear_12248_308780)"/>
<path d="M48.5843 19.4898L48.5746 19.4995C47.4682 20.2774 45.2989 20.833 44.9076 19.9537C44.7046 19.5043 44.8158 19.1226 45.096 18.8135C45.0622 18.9488 44.4389 21.3741 48.5843 19.4898Z" fill="#FFE83E"/>
<path d="M60.1611 20.7123C60.1901 20.7123 60.2867 20.7461 60.4317 20.8041C60.3882 20.8137 60.3351 20.8041 60.2722 20.7751C60.2095 20.7461 60.1756 20.7268 60.1611 20.7123Z" fill="#FFE83E"/>
<path d="M45.2536 10.6042C45.2536 10.6042 44.4882 11.93 46.1282 12.3894C47.7682 12.8489 54.4047 13.5124 54.7621 15.6821C55.1194 17.8518 56.3285 21.0936 61.0076 20.749C56.2936 11.9811 46.7208 8.81898 45.2536 10.6042Z" fill="url(#paint42_linear_12248_308780)"/>
<path d="M61.0068 20.5528V20.7509C60.8812 20.7509 60.7266 20.7412 60.5526 20.7171C59.3206 20.5479 57.0885 19.6493 56.0594 16.3688C54.7742 11.4504 45.667 13.4072 45.2225 10.8948C45.1935 10.7209 45.2757 10.4745 45.4496 10.1894C46.2082 8.97194 48.6818 7.05378 51.4116 6.87994C52.1895 6.82671 52.9866 6.91855 53.7693 7.20846C54.5521 7.49349 55.3347 7.88485 56.0787 8.40662C56.0787 8.40662 56.0884 8.41628 56.1077 8.43079C56.4556 8.67236 56.7986 8.94772 57.1272 9.25696C59.3061 11.3006 60.973 14.7696 61.0068 20.5528Z" fill="url(#paint43_linear_12248_308780)"/>
<g opacity="0.68" style="mix-blend-mode:soft-light">
<path d="M61.0068 20.5528V20.7509C59.9681 20.7509 57.2335 20.1083 56.0594 16.3688C54.7742 11.4504 45.667 13.4072 45.2225 10.8948C45.1935 10.7209 45.2757 10.4745 45.4496 10.1894C45.4448 10.5807 45.5946 11.3296 46.6961 11.576C48.218 11.9191 50.8999 12.1593 51.6 11.576C53.0417 10.375 52.5856 7.7544 51.4116 6.87994C52.1895 6.82671 52.9866 6.91855 53.7693 7.20846C54.9241 7.63361 56.0836 8.281 57.1272 9.25696C54.7405 8.77571 54.2573 12.2234 54.639 13.011C55.1849 14.1367 56.8103 17.1455 57.4726 18.3379C57.9164 19.1371 59.1564 20.9635 61.0068 20.5528Z" fill="#FFD13B"/>
</g>
<g opacity="0.68" style="mix-blend-mode:soft-light">
<path d="M53.3399 7.99031C53.3399 7.99031 52.2813 12.4299 53.2033 12.7714C54.1254 13.1129 55.0268 8.91848 54.8767 8.4684C54.7743 8.16106 53.818 7.75123 53.3399 7.99031Z" fill="#FFD13B"/>
</g>
<path d="M61.0065 20.5528V20.7509C60.8809 20.7509 60.7263 20.7412 60.5523 20.7171C61.0354 20.0552 60.2044 15.9967 59.9629 14.6826C59.7262 13.3636 57.4989 13.9579 56.9626 14.1174C57.2814 14.0063 58.1559 13.5859 58.4603 12.3635C58.813 10.9479 56.3924 8.6917 56.1074 8.43079C56.4553 8.67236 56.7982 8.94772 57.1268 9.25696C59.3058 11.3006 60.9727 14.7696 61.0065 20.5528Z" fill="#FFE83E"/>
<path d="M76.5148 10.6042C76.5148 10.6042 77.2801 11.93 75.6402 12.3894C74.0001 12.8489 67.3636 13.5124 67.0063 15.6821C66.6489 17.8518 65.44 21.0936 60.7607 20.749C65.4748 11.9811 75.0476 8.81898 76.5148 10.6042Z" fill="url(#paint44_linear_12248_308780)"/>
<path d="M76.544 10.8948C76.0995 13.4072 66.9923 11.4504 65.7071 16.3688C64.678 19.6493 62.4459 20.5479 61.214 20.7171C61.04 20.7412 60.8854 20.7509 60.7598 20.7509V20.5528C60.7887 15.3156 62.1609 11.977 64.0354 9.8754H64.0403C64.2336 9.658 64.4316 9.4502 64.6394 9.25696C64.9679 8.94772 65.311 8.67236 65.6588 8.43079C65.6782 8.41628 65.6878 8.40662 65.6878 8.40662C66.4318 7.88485 67.2145 7.49349 67.9972 7.20846C68.7799 6.91855 69.5771 6.82671 70.3549 6.87994C73.0847 7.05378 75.5584 8.97194 76.317 10.1894C76.3991 10.3247 76.4571 10.4503 76.5005 10.5614C76.544 10.6919 76.5585 10.803 76.544 10.8948Z" fill="url(#paint45_linear_12248_308780)"/>
<g opacity="0.68" style="mix-blend-mode:soft-light">
<path d="M60.7617 20.5528V20.7509C61.8005 20.7509 64.535 20.1083 65.7092 16.3688C66.9943 11.4504 76.1015 13.4072 76.546 10.8948C76.575 10.7209 76.4928 10.4745 76.3189 10.1894C76.3238 10.5807 76.174 11.3296 75.0724 11.576C73.5506 11.9191 70.8686 12.1593 70.1686 11.576C68.7269 10.375 69.1829 7.7544 70.357 6.87994C69.5791 6.82671 68.7819 6.91855 67.9993 7.20846C66.8445 7.63361 65.685 8.281 64.6414 9.25696C67.028 8.77571 67.5113 12.2234 67.1296 13.011C66.5836 14.1367 64.9582 17.1455 64.296 18.3379C63.8521 19.1371 62.6121 20.9635 60.7617 20.5528Z" fill="#FFD13B"/>
</g>
<g opacity="0.68" style="mix-blend-mode:soft-light">
<path d="M68.4282 7.99031C68.4282 7.99031 69.4869 12.4299 68.5648 12.7714C67.6428 13.1129 66.7414 8.91848 66.8914 8.4684C66.9939 8.16106 67.9501 7.75123 68.4282 7.99031Z" fill="#FFD13B"/>
</g>
<g opacity="0.68" style="mix-blend-mode:soft-light">
<path d="M60.648 12.2592C60.648 12.2592 56.9939 8.53676 57.1987 8.16109C57.4036 7.78542 59.3844 2.56038 60.887 2.69697C62.3897 2.83361 64.6095 8.16109 64.3021 8.94653C63.9947 9.73203 61.5359 12.4982 60.648 12.2592Z" fill="#FFD13B"/>
</g>
<path d="M65.6292 8.22786C65.6292 8.22786 62.1699 2.40599 61.0151 2.04852C60.4886 2.04852 60.0247 2.19342 59.6816 2.34315C60.073 1.96151 60.5127 1.58465 61.0055 1.203C64.6387 4.01001 65.4601 6.83152 65.6292 8.22786Z" fill="#FFE83E"/>
<g opacity="0.68" style="mix-blend-mode:soft-light">
<path d="M59.6816 9.59539C59.6816 9.59539 60.135 4.75329 61.2961 4.71549C62.4573 4.67774 64.2747 8.48087 63.6184 9.59539C62.9621 10.71 61.0041 12.225 59.6816 9.59539Z" fill="#FFD13B"/>
</g>
<path d="M72.8864 8.43079C70.0117 6.11171 64.04 9.8754 64.04 9.8754C64.2334 9.658 64.4314 9.4502 64.6392 9.25696C64.9677 8.94772 65.3108 8.67236 65.6586 8.43079C65.678 8.41628 65.6876 8.40662 65.6876 8.40662C66.4316 7.88485 67.2143 7.49349 67.997 7.20846C68.7797 6.91855 69.5769 6.82671 70.3547 6.87994C73.0845 7.05378 75.5582 8.97194 76.3168 10.1894C76.3988 10.3247 76.4568 10.4503 76.5003 10.5614C75.3505 10.6919 73.8044 11.4794 72.9782 11.9384C73.7898 11.3683 74.9688 10.1073 72.8864 8.43079Z" fill="#FFE83E"/>
<path d="M63.8648 6.80209C63.8648 8.35283 62.59 9.60991 61.0174 9.60991C59.4447 9.60991 58.1699 8.35283 58.1699 6.80209C58.1699 5.25134 59.4448 3.99426 61.0174 3.99426C62.5899 3.99426 63.8648 5.2514 63.8648 6.80209Z" fill="url(#paint46_linear_12248_308780)"/>
<path d="M63.8648 7.43126C63.8648 8.982 62.59 10.2391 61.0174 10.2391C59.4447 10.2391 58.1699 8.982 58.1699 7.43126C58.1699 5.88052 59.1582 7.97421 60.7308 7.97421C62.3034 7.97421 63.8648 5.88057 63.8648 7.43126Z" fill="#FFE83E"/>
<path d="M63.8648 7.02508C63.8648 8.50157 62.59 9.69853 61.0174 9.69853C59.4447 9.69853 58.1699 8.50157 58.1699 7.02508C58.1699 5.54858 59.4448 4.35156 61.0174 4.35156C62.5899 4.35156 63.8648 5.54852 63.8648 7.02508Z" fill="url(#paint47_linear_12248_308780)"/>
<path opacity="0.44" d="M58.6035 6.27925C58.6035 6.27925 59.852 4.00584 62.0913 4.77456C63.0844 5.11547 63.4884 6.45603 62.9602 6.6629C62.4321 6.86972 61.7676 5.50803 60.5211 6.00726C59.982 6.22314 58.3905 7.22822 58.6035 6.27925Z" fill="url(#paint48_linear_12248_308780)" style="mix-blend-mode:screen"/>
<path opacity="0.44" d="M58.8372 7.74943C58.8372 7.74943 59.4406 9.64445 61.2187 9.49672C62.9969 9.34905 58.7008 6.67695 58.8372 7.74943Z" fill="url(#paint49_linear_12248_308780)" style="mix-blend-mode:screen"/>
<path d="M61.4933 4.83394C61.5104 5.17767 62.4556 6.14169 62.7813 5.86492C63.271 5.4489 61.4739 4.44322 61.4933 4.83394Z" fill="#F3FFEE"/>
<path d="M59.5674 8.3749C59.5659 8.62294 59.7876 9.10679 60.294 9.22362C60.8004 9.34044 59.5699 7.96702 59.5674 8.3749Z" fill="#F3FFEE"/>
<path d="M64.3315 18.9645C64.3315 18.9645 63.7408 17.1247 64.6218 16.812C65.5028 16.4994 65.5201 16.9104 65.5201 16.9104C65.5201 16.9104 65.718 18.2751 64.3315 18.9645Z" fill="url(#paint50_linear_12248_308780)"/>
<path d="M98.9961 30.4984C98.9961 30.4984 102.662 25.6658 104.924 27.6349C102.151 30.2538 98.9961 30.4984 98.9961 30.4984Z" fill="url(#paint51_linear_12248_308780)"/>
<path d="M119.932 8.80103C119.932 8.80103 116.285 11.0859 118.112 12.7911C119.696 11.1662 119.932 8.80103 119.932 8.80103Z" fill="url(#paint52_linear_12248_308780)"/>
<defs>
<linearGradient id="paint0_linear_12248_308780" x1="22.2247" y1="41.1938" x2="32.7586" y2="9.46364" gradientUnits="userSpaceOnUse">
<stop offset="0.16175" stop-color="#FF7540"/>
<stop offset="0.20125" stop-color="#FF7F38"/>
<stop offset="0.33528" stop-color="#FF9D24"/>
<stop offset="0.47668" stop-color="#FFB514"/>
<stop offset="0.62688" stop-color="#FFC508"/>
<stop offset="0.79185" stop-color="#FFCF02"/>
<stop offset="1" stop-color="#FFD300"/>
</linearGradient>
<linearGradient id="paint1_linear_12248_308780" x1="35.49" y1="23.0736" x2="35.7281" y2="26.7232" gradientUnits="userSpaceOnUse">
<stop offset="0.15154" stop-color="#B83A36"/>
<stop offset="0.21605" stop-color="#B83D2D"/>
<stop offset="0.45675" stop-color="#BB4914"/>
<stop offset="0.67542" stop-color="#BC5005"/>
<stop offset="0.85091" stop-color="#BD5300"/>
</linearGradient>
<linearGradient id="paint2_linear_12248_308780" x1="0.000982705" y1="20.749" x2="61.007" y2="20.749" gradientUnits="userSpaceOnUse">
<stop offset="0.15154" stop-color="#B83A36"/>
<stop offset="0.21605" stop-color="#B83D2D"/>
<stop offset="0.45675" stop-color="#BB4914"/>
<stop offset="0.67542" stop-color="#BC5005"/>
<stop offset="0.85091" stop-color="#BD5300"/>
</linearGradient>
<linearGradient id="paint3_linear_12248_308780" x1="3.94741" y1="10.3532" x2="4.08064" y2="16.1858" gradientUnits="userSpaceOnUse">
<stop offset="0.15154" stop-color="#B83A36"/>
<stop offset="0.21605" stop-color="#B83D2D"/>
<stop offset="0.45675" stop-color="#BB4914"/>
<stop offset="0.67542" stop-color="#BC5005"/>
<stop offset="0.85091" stop-color="#BD5300"/>
</linearGradient>
<linearGradient id="paint4_linear_12248_308780" x1="32.3054" y1="24.2654" x2="32.329" y2="25.297" gradientUnits="userSpaceOnUse">
<stop offset="0.15154" stop-color="#B83A36"/>
<stop offset="0.21605" stop-color="#B83D2D"/>
<stop offset="0.45675" stop-color="#BB4914"/>
<stop offset="0.67542" stop-color="#BC5005"/>
<stop offset="0.85091" stop-color="#BD5300"/>
</linearGradient>
<linearGradient id="paint5_linear_12248_308780" x1="9.46806" y1="16.7452" x2="11.1987" y2="7.09571" gradientUnits="userSpaceOnUse">
<stop offset="0.15154" stop-color="#B83A36"/>
<stop offset="0.21605" stop-color="#B83D2D"/>
<stop offset="0.45675" stop-color="#BB4914"/>
<stop offset="0.67542" stop-color="#BC5005"/>
<stop offset="0.85091" stop-color="#BD5300"/>
</linearGradient>
<linearGradient id="paint6_linear_12248_308780" x1="10.3054" y1="15.1453" x2="10.3054" y2="8.06178" gradientUnits="userSpaceOnUse">
<stop stop-color="#2AF8FF"/>
<stop offset="0.08281" stop-color="#27DDEF"/>
<stop offset="0.34064" stop-color="#1F8FC1"/>
<stop offset="0.57044" stop-color="#18529D"/>
<stop offset="0.76368" stop-color="#132583"/>
<stop offset="0.91287" stop-color="#110A72"/>
<stop offset="1" stop-color="#10006D"/>
</linearGradient>
<linearGradient id="paint7_linear_12248_308780" x1="10.2234" y1="9.59661" x2="10.1535" y2="12.6023" gradientUnits="userSpaceOnUse">
<stop offset="0.00559" stop-color="#00D0DF"/>
<stop offset="0.57871"/>
</linearGradient>
<linearGradient id="paint8_linear_12248_308780" x1="8.52044" y1="15.1204" x2="10.967" y2="11.7651" gradientUnits="userSpaceOnUse">
<stop offset="0.00559" stop-color="#00D0DF"/>
<stop offset="0.57871"/>
</linearGradient>
<linearGradient id="paint9_linear_12248_308780" x1="9.4924" y1="10.3041" x2="10.6329" y2="8.58161" gradientUnits="userSpaceOnUse">
<stop offset="0.15154" stop-color="#B83A36"/>
<stop offset="0.21605" stop-color="#B83D2D"/>
<stop offset="0.45675" stop-color="#BB4914"/>
<stop offset="0.67542" stop-color="#BC5005"/>
<stop offset="0.85091" stop-color="#BD5300"/>
</linearGradient>
<linearGradient id="paint10_linear_12248_308780" x1="15.4482" y1="22.0439" x2="16.8717" y2="14.1069" gradientUnits="userSpaceOnUse">
<stop offset="0.15154" stop-color="#B83A36"/>
<stop offset="0.21605" stop-color="#B83D2D"/>
<stop offset="0.45675" stop-color="#BB4914"/>
<stop offset="0.67542" stop-color="#BC5005"/>
<stop offset="0.85091" stop-color="#BD5300"/>
</linearGradient>
<linearGradient id="paint11_linear_12248_308780" x1="16.137" y1="20.728" x2="16.137" y2="14.9016" gradientUnits="userSpaceOnUse">
<stop stop-color="#2AF8FF"/>
<stop offset="0.08281" stop-color="#27DDEF"/>
<stop offset="0.34064" stop-color="#1F8FC1"/>
<stop offset="0.57044" stop-color="#18529D"/>
<stop offset="0.76368" stop-color="#132583"/>
<stop offset="0.91287" stop-color="#110A72"/>
<stop offset="1" stop-color="#10006D"/>
</linearGradient>
<linearGradient id="paint12_linear_12248_308780" x1="16.0698" y1="16.164" x2="16.0123" y2="18.6364" gradientUnits="userSpaceOnUse">
<stop offset="0.00559" stop-color="#00D0DF"/>
<stop offset="0.57871"/>
</linearGradient>
<linearGradient id="paint13_linear_12248_308780" x1="14.6685" y1="20.7075" x2="16.6809" y2="17.9477" gradientUnits="userSpaceOnUse">
<stop offset="0.00559" stop-color="#00D0DF"/>
<stop offset="0.57871"/>
</linearGradient>
<linearGradient id="paint14_linear_12248_308780" x1="17.1938" y1="16.8752" x2="18.6139" y2="16.9125" gradientUnits="userSpaceOnUse">
<stop offset="0.15154" stop-color="#B83A36"/>
<stop offset="0.21605" stop-color="#B83D2D"/>
<stop offset="0.45675" stop-color="#BB4914"/>
<stop offset="0.67542" stop-color="#BC5005"/>
<stop offset="0.85091" stop-color="#BD5300"/>
</linearGradient>
<linearGradient id="paint15_linear_12248_308780" x1="21.6133" y1="25.4061" x2="22.7872" y2="18.8611" gradientUnits="userSpaceOnUse">
<stop offset="0.15154" stop-color="#B83A36"/>
<stop offset="0.21605" stop-color="#B83D2D"/>
<stop offset="0.45675" stop-color="#BB4914"/>
<stop offset="0.67542" stop-color="#BC5005"/>
<stop offset="0.85091" stop-color="#BD5300"/>
</linearGradient>
<linearGradient id="paint16_linear_12248_308780" x1="22.1813" y1="24.3208" x2="22.1813" y2="19.5163" gradientUnits="userSpaceOnUse">
<stop stop-color="#2AF8FF"/>
<stop offset="0.08281" stop-color="#27DDEF"/>
<stop offset="0.34064" stop-color="#1F8FC1"/>
<stop offset="0.57044" stop-color="#18529D"/>
<stop offset="0.76368" stop-color="#132583"/>
<stop offset="0.91287" stop-color="#110A72"/>
<stop offset="1" stop-color="#10006D"/>
</linearGradient>
<linearGradient id="paint17_linear_12248_308780" x1="22.1251" y1="20.5574" x2="22.0777" y2="22.5961" gradientUnits="userSpaceOnUse">
<stop offset="0.00559" stop-color="#00D0DF"/>
<stop offset="0.57871"/>
</linearGradient>
<linearGradient id="paint18_linear_12248_308780" x1="20.9704" y1="24.304" x2="22.6298" y2="22.0282" gradientUnits="userSpaceOnUse">
<stop offset="0.00559" stop-color="#00D0DF"/>
<stop offset="0.57871"/>
</linearGradient>
<linearGradient id="paint19_linear_12248_308780" x1="33.3945" y1="31.4601" x2="42.0967" y2="31.4601" gradientUnits="userSpaceOnUse">
<stop offset="0.15154" stop-color="#B83A36"/>
<stop offset="0.21605" stop-color="#B83D2D"/>
<stop offset="0.45675" stop-color="#BB4914"/>
<stop offset="0.67542" stop-color="#BC5005"/>
<stop offset="0.85091" stop-color="#BD5300"/>
</linearGradient>
<linearGradient id="paint20_linear_12248_308780" x1="99.7932" y1="41.1939" x2="89.2593" y2="9.46375" gradientUnits="userSpaceOnUse">
<stop offset="0.16175" stop-color="#FF7540"/>
<stop offset="0.20125" stop-color="#FF7F38"/>
<stop offset="0.33528" stop-color="#FF9D24"/>
<stop offset="0.47668" stop-color="#FFB514"/>
<stop offset="0.62688" stop-color="#FFC508"/>
<stop offset="0.79185" stop-color="#FFCF02"/>
<stop offset="1" stop-color="#FFD300"/>
</linearGradient>
<linearGradient id="paint21_linear_12248_308780" x1="86.5217" y1="23.0735" x2="86.2836" y2="26.7231" gradientUnits="userSpaceOnUse">
<stop offset="0.15154" stop-color="#B83A36"/>
<stop offset="0.21605" stop-color="#B83D2D"/>
<stop offset="0.45675" stop-color="#BB4914"/>
<stop offset="0.67542" stop-color="#BC5005"/>
<stop offset="0.85091" stop-color="#BD5300"/>
</linearGradient>
<linearGradient id="paint22_linear_12248_308780" x1="122.017" y1="20.749" x2="61.0107" y2="20.749" gradientUnits="userSpaceOnUse">
<stop offset="0.15154" stop-color="#B83A36"/>
<stop offset="0.21605" stop-color="#B83D2D"/>
<stop offset="0.45675" stop-color="#BB4914"/>
<stop offset="0.67542" stop-color="#BC5005"/>
<stop offset="0.85091" stop-color="#BD5300"/>
</linearGradient>
<linearGradient id="paint23_linear_12248_308780" x1="112.55" y1="16.7452" x2="110.819" y2="7.09571" gradientUnits="userSpaceOnUse">
<stop offset="0.15154" stop-color="#B83A36"/>
<stop offset="0.21605" stop-color="#B83D2D"/>
<stop offset="0.45675" stop-color="#BB4914"/>
<stop offset="0.67542" stop-color="#BC5005"/>
<stop offset="0.85091" stop-color="#BD5300"/>
</linearGradient>
<linearGradient id="paint24_linear_12248_308780" x1="111.713" y1="15.1453" x2="111.713" y2="8.06178" gradientUnits="userSpaceOnUse">
<stop stop-color="#2AF8FF"/>
<stop offset="0.08281" stop-color="#27DDEF"/>
<stop offset="0.34064" stop-color="#1F8FC1"/>
<stop offset="0.57044" stop-color="#18529D"/>
<stop offset="0.76368" stop-color="#132583"/>
<stop offset="0.91287" stop-color="#110A72"/>
<stop offset="1" stop-color="#10006D"/>
</linearGradient>
<linearGradient id="paint25_linear_12248_308780" x1="111.795" y1="9.59661" x2="111.865" y2="12.6023" gradientUnits="userSpaceOnUse">
<stop offset="0.00559" stop-color="#00D0DF"/>
<stop offset="0.57871"/>
</linearGradient>
<linearGradient id="paint26_linear_12248_308780" x1="113.497" y1="15.1204" x2="111.051" y2="11.7651" gradientUnits="userSpaceOnUse">
<stop offset="0.00559" stop-color="#00D0DF"/>
<stop offset="0.57871"/>
</linearGradient>
<linearGradient id="paint27_linear_12248_308780" x1="112.528" y1="10.3042" x2="111.387" y2="8.58174" gradientUnits="userSpaceOnUse">
<stop offset="0.15154" stop-color="#B83A36"/>
<stop offset="0.21605" stop-color="#B83D2D"/>
<stop offset="0.45675" stop-color="#BB4914"/>
<stop offset="0.67542" stop-color="#BC5005"/>
<stop offset="0.85091" stop-color="#BD5300"/>
</linearGradient>
<linearGradient id="paint28_linear_12248_308780" x1="106.569" y1="22.0439" x2="105.145" y2="14.1069" gradientUnits="userSpaceOnUse">
<stop offset="0.15154" stop-color="#B83A36"/>
<stop offset="0.21605" stop-color="#B83D2D"/>
<stop offset="0.45675" stop-color="#BB4914"/>
<stop offset="0.67542" stop-color="#BC5005"/>
<stop offset="0.85091" stop-color="#BD5300"/>
</linearGradient>
<linearGradient id="paint29_linear_12248_308780" x1="105.88" y1="20.728" x2="105.88" y2="14.9016" gradientUnits="userSpaceOnUse">
<stop stop-color="#2AF8FF"/>
<stop offset="0.08281" stop-color="#27DDEF"/>
<stop offset="0.34064" stop-color="#1F8FC1"/>
<stop offset="0.57044" stop-color="#18529D"/>
<stop offset="0.76368" stop-color="#132583"/>
<stop offset="0.91287" stop-color="#110A72"/>
<stop offset="1" stop-color="#10006D"/>
</linearGradient>
<linearGradient id="paint30_linear_12248_308780" x1="105.948" y1="16.164" x2="106.005" y2="18.6364" gradientUnits="userSpaceOnUse">
<stop offset="0.00559" stop-color="#00D0DF"/>
<stop offset="0.57871"/>
</linearGradient>
<linearGradient id="paint31_linear_12248_308780" x1="107.348" y1="20.7075" x2="105.336" y2="17.9476" gradientUnits="userSpaceOnUse">
<stop offset="0.00559" stop-color="#00D0DF"/>
<stop offset="0.57871"/>
</linearGradient>
<linearGradient id="paint32_linear_12248_308780" x1="104.847" y1="16.8243" x2="103.427" y2="16.8616" gradientUnits="userSpaceOnUse">
<stop offset="0.15154" stop-color="#B83A36"/>
<stop offset="0.21605" stop-color="#B83D2D"/>
<stop offset="0.45675" stop-color="#BB4914"/>
<stop offset="0.67542" stop-color="#BC5005"/>
<stop offset="0.85091" stop-color="#BD5300"/>
</linearGradient>
<linearGradient id="paint33_linear_12248_308780" x1="100.405" y1="25.4061" x2="99.2308" y2="18.8611" gradientUnits="userSpaceOnUse">
<stop offset="0.15154" stop-color="#B83A36"/>
<stop offset="0.21605" stop-color="#B83D2D"/>
<stop offset="0.45675" stop-color="#BB4914"/>
<stop offset="0.67542" stop-color="#BC5005"/>
<stop offset="0.85091" stop-color="#BD5300"/>
</linearGradient>
<linearGradient id="paint34_linear_12248_308780" x1="99.8366" y1="24.3208" x2="99.8366" y2="19.5163" gradientUnits="userSpaceOnUse">
<stop stop-color="#2AF8FF"/>
<stop offset="0.08281" stop-color="#27DDEF"/>
<stop offset="0.34064" stop-color="#1F8FC1"/>
<stop offset="0.57044" stop-color="#18529D"/>
<stop offset="0.76368" stop-color="#132583"/>
<stop offset="0.91287" stop-color="#110A72"/>
<stop offset="1" stop-color="#10006D"/>
</linearGradient>
<linearGradient id="paint35_linear_12248_308780" x1="99.8917" y1="20.5574" x2="99.9392" y2="22.5961" gradientUnits="userSpaceOnUse">
<stop offset="0.00559" stop-color="#00D0DF"/>
<stop offset="0.57871"/>
</linearGradient>
<linearGradient id="paint36_linear_12248_308780" x1="101.047" y1="24.304" x2="99.388" y2="22.0282" gradientUnits="userSpaceOnUse">
<stop offset="0.00559" stop-color="#00D0DF"/>
<stop offset="0.57871"/>
</linearGradient>
<linearGradient id="paint37_linear_12248_308780" x1="57.7477" y1="35.638" x2="62.5208" y2="7.58317" gradientUnits="userSpaceOnUse">
<stop offset="0.16175" stop-color="#FF7540"/>
<stop offset="0.20125" stop-color="#FF7F38"/>
<stop offset="0.33528" stop-color="#FF9D24"/>
<stop offset="0.47668" stop-color="#FFB514"/>
<stop offset="0.62688" stop-color="#FFC508"/>
<stop offset="0.79185" stop-color="#FFCF02"/>
<stop offset="1" stop-color="#FFD300"/>
</linearGradient>
<linearGradient id="paint38_linear_12248_308780" x1="57.1752" y1="22.2241" x2="63.784" y2="-1.31144" gradientUnits="userSpaceOnUse">
<stop offset="0.15154" stop-color="#B83A36"/>
<stop offset="0.21605" stop-color="#B83D2D"/>
<stop offset="0.45675" stop-color="#BB4914"/>
<stop offset="0.67542" stop-color="#BC5005"/>
<stop offset="0.85091" stop-color="#BD5300"/>
</linearGradient>
<linearGradient id="paint39_linear_12248_308780" x1="57.8447" y1="19.7851" x2="63.3671" y2="0.118239" gradientUnits="userSpaceOnUse">
<stop offset="0.16175" stop-color="#FF7540"/>
<stop offset="0.20125" stop-color="#FF7F38"/>
<stop offset="0.33528" stop-color="#FF9D24"/>
<stop offset="0.47668" stop-color="#FFB514"/>
<stop offset="0.62688" stop-color="#FFC508"/>
<stop offset="0.79185" stop-color="#FFCF02"/>
<stop offset="1" stop-color="#FFD300"/>
</linearGradient>
<linearGradient id="paint40_linear_12248_308780" x1="49.5836" y1="-10.6233" x2="76.5111" y2="54.4759" gradientUnits="userSpaceOnUse">
<stop offset="0.15154" stop-color="#B83A36"/>
<stop offset="0.21605" stop-color="#B83D2D"/>
<stop offset="0.45675" stop-color="#BB4914"/>
<stop offset="0.67542" stop-color="#BC5005"/>
<stop offset="0.85091" stop-color="#BD5300"/>
</linearGradient>
<linearGradient id="paint41_linear_12248_308780" x1="44.8037" y1="19.1297" x2="49.2315" y2="19.1297" gradientUnits="userSpaceOnUse">
<stop offset="0.15154" stop-color="#B83A36"/>
<stop offset="0.21605" stop-color="#B83D2D"/>
<stop offset="0.45675" stop-color="#BB4914"/>
<stop offset="0.67542" stop-color="#BC5005"/>
<stop offset="0.85091" stop-color="#BD5300"/>
</linearGradient>
<linearGradient id="paint42_linear_12248_308780" x1="45.0752" y1="15.4496" x2="61.0076" y2="15.4496" gradientUnits="userSpaceOnUse">
<stop offset="0.15154" stop-color="#B83A36"/>
<stop offset="0.21605" stop-color="#B83D2D"/>
<stop offset="0.45675" stop-color="#BB4914"/>
<stop offset="0.67542" stop-color="#BC5005"/>
<stop offset="0.85091" stop-color="#BD5300"/>
</linearGradient>
<linearGradient id="paint43_linear_12248_308780" x1="48.2929" y1="25.2106" x2="60.4466" y2="1.20174" gradientUnits="userSpaceOnUse">
<stop offset="0.16175" stop-color="#FF7540"/>
<stop offset="0.20125" stop-color="#FF7F38"/>
<stop offset="0.33528" stop-color="#FF9D24"/>
<stop offset="0.47668" stop-color="#FFB514"/>
<stop offset="0.62688" stop-color="#FFC508"/>
<stop offset="0.79185" stop-color="#FFCF02"/>
<stop offset="1" stop-color="#FFD300"/>
</linearGradient>
<linearGradient id="paint44_linear_12248_308780" x1="76.6932" y1="15.4496" x2="60.7607" y2="15.4496" gradientUnits="userSpaceOnUse">
<stop offset="0.15154" stop-color="#B83A36"/>
<stop offset="0.21605" stop-color="#B83D2D"/>
<stop offset="0.45675" stop-color="#BB4914"/>
<stop offset="0.67542" stop-color="#BC5005"/>
<stop offset="0.85091" stop-color="#BD5300"/>
</linearGradient>
<linearGradient id="paint45_linear_12248_308780" x1="56.2281" y1="37.8219" x2="78.8108" y2="-6.78882" gradientUnits="userSpaceOnUse">
<stop offset="0.16175" stop-color="#FF7540"/>
<stop offset="0.20125" stop-color="#FF7F38"/>
<stop offset="0.33528" stop-color="#FF9D24"/>
<stop offset="0.47668" stop-color="#FFB514"/>
<stop offset="0.62688" stop-color="#FFC508"/>
<stop offset="0.79185" stop-color="#FFCF02"/>
<stop offset="1" stop-color="#FFD300"/>
</linearGradient>
<linearGradient id="paint46_linear_12248_308780" x1="60.18" y1="11.4712" x2="61.9106" y2="1.82167" gradientUnits="userSpaceOnUse">
<stop offset="0.15154" stop-color="#B83A36"/>
<stop offset="0.21605" stop-color="#B83D2D"/>
<stop offset="0.45675" stop-color="#BB4914"/>
<stop offset="0.67542" stop-color="#BC5005"/>
<stop offset="0.85091" stop-color="#BD5300"/>
</linearGradient>
<linearGradient id="paint47_linear_12248_308780" x1="61.0174" y1="9.87124" x2="61.0174" y2="2.78773" gradientUnits="userSpaceOnUse">
<stop stop-color="#7C005B"/>
<stop offset="0.41291" stop-color="#970040"/>
<stop offset="1" stop-color="#C40014"/>
</linearGradient>
<linearGradient id="paint48_linear_12248_308780" x1="60.9353" y1="4.32256" x2="60.8654" y2="7.32832" gradientUnits="userSpaceOnUse">
<stop offset="0.00559" stop-color="#FF00E3"/>
<stop offset="0.57871"/>
</linearGradient>
<linearGradient id="paint49_linear_12248_308780" x1="59.2323" y1="9.84638" x2="61.6789" y2="6.49109" gradientUnits="userSpaceOnUse">
<stop offset="0.00559" stop-color="#FF00E3"/>
<stop offset="0.57871"/>
</linearGradient>
<linearGradient id="paint50_linear_12248_308780" x1="64.1377" y1="17.8296" x2="65.5299" y2="17.8296" gradientUnits="userSpaceOnUse">
<stop offset="0.15154" stop-color="#B83A36"/>
<stop offset="0.21605" stop-color="#B83D2D"/>
<stop offset="0.45675" stop-color="#BB4914"/>
<stop offset="0.67542" stop-color="#BC5005"/>
<stop offset="0.85091" stop-color="#BD5300"/>
</linearGradient>
<linearGradient id="paint51_linear_12248_308780" x1="98.9961" y1="28.8308" x2="104.924" y2="28.8308" gradientUnits="userSpaceOnUse">
<stop offset="0.15154" stop-color="#B83A36"/>
<stop offset="0.21605" stop-color="#B83D2D"/>
<stop offset="0.45675" stop-color="#BB4914"/>
<stop offset="0.67542" stop-color="#BC5005"/>
<stop offset="0.85091" stop-color="#BD5300"/>
</linearGradient>
<linearGradient id="paint52_linear_12248_308780" x1="117.6" y1="10.7961" x2="119.932" y2="10.7961" gradientUnits="userSpaceOnUse">
<stop offset="0.15154" stop-color="#B83A36"/>
<stop offset="0.21605" stop-color="#B83D2D"/>
<stop offset="0.45675" stop-color="#BB4914"/>
<stop offset="0.67542" stop-color="#BC5005"/>
<stop offset="0.85091" stop-color="#BD5300"/>
</linearGradient>
</defs>
</svg>
