<svg width="90" height="90" viewBox="0 0 90 90" fill="none" xmlns="http://www.w3.org/2000/svg">
<g clip-path="url(#clip0_12151_195681)">
<path fill-rule="evenodd" clip-rule="evenodd" d="M44.9987 10.2123C64.2114 10.2123 79.7864 25.7877 79.7864 45C79.7864 64.2123 64.2114 79.7882 44.9987 79.7882C25.786 79.7882 10.2109 64.2131 10.2109 45C10.2109 25.7869 25.786 10.2123 44.9987 10.2123Z" fill="url(#paint0_linear_12151_195681)"/>
<path fill-rule="evenodd" clip-rule="evenodd" d="M10.2123 45C10.2123 25.7877 25.7873 10.2123 45 10.2123V0C43.0783 2.25386 39.3055 4.87411 35.0043 5.97288C27.8976 7.78773 21.5471 11.4921 16.5194 16.5194C11.4921 21.5471 7.78773 27.8976 5.97288 35.0043C4.87411 39.3055 2.25386 43.0783 0 45H10.2123Z" fill="url(#paint1_linear_12151_195681)"/>
<path fill-rule="evenodd" clip-rule="evenodd" d="M45 10.2123C64.2127 10.2123 79.7877 25.7877 79.7877 45H90C87.7466 43.0783 85.1259 39.3055 84.0275 35.0043C82.2127 27.8976 78.5083 21.5471 73.4806 16.5194C68.4533 11.4921 62.1028 7.78773 54.9961 5.97288C50.6945 4.87411 46.9217 2.25386 45 0V10.2123Z" fill="url(#paint2_linear_12151_195681)"/>
<path fill-rule="evenodd" clip-rule="evenodd" d="M79.7877 45C79.7877 64.2131 64.2127 79.7882 45 79.7882V90C46.9217 87.7466 50.6945 85.1259 54.9961 84.0275C62.1028 82.2127 68.4533 78.5083 73.481 73.4806C78.5083 68.4533 82.2127 62.1028 84.0275 54.9961C85.1259 50.6945 87.7466 46.9217 90 45H79.7877Z" fill="url(#paint3_linear_12151_195681)"/>
<path fill-rule="evenodd" clip-rule="evenodd" d="M45 79.7882C25.7873 79.7882 10.2123 64.2131 10.2123 45H0C2.25386 46.9217 4.87411 50.6945 5.97288 54.9961C7.78773 62.1028 11.4921 68.4533 16.5194 73.481C21.5471 78.5083 27.8976 82.2127 35.0043 84.0275C39.3055 85.1259 43.0783 87.7466 45 90V79.7882Z" fill="url(#paint4_linear_12151_195681)"/>
<path fill-rule="evenodd" clip-rule="evenodd" d="M44.9989 13.1422C62.5937 13.1422 76.8571 27.4057 76.8571 45C76.8571 62.5944 62.5937 76.8583 44.9989 76.8583C27.4041 76.8583 13.1406 62.5948 13.1406 45C13.1406 27.4053 27.4041 13.1422 44.9989 13.1422Z" fill="url(#paint5_radial_12151_195681)"/>
<path fill-rule="evenodd" clip-rule="evenodd" d="M18.9147 21.9836C13.499 28.1167 10.2123 36.1749 10.2123 45H1.33203C5.99916 45 7.74266 42.3651 9.93684 36.5796C13.7372 26.5597 17.5209 22.8608 18.9147 21.9836ZM21.9836 18.9147C28.1167 13.499 36.1749 10.2123 45 10.2123V1.33203C45 5.99916 42.3651 7.74308 36.5792 9.93726C26.5597 13.7372 22.8608 17.5213 21.9836 18.9147Z" fill="url(#paint6_linear_12151_195681)" style="mix-blend-mode:screen"/>
<path fill-rule="evenodd" clip-rule="evenodd" d="M68.7345 68.7355C57.2152 80.2543 39.6918 82.1097 26.2383 74.3011C31.6511 77.7739 38.0901 79.7882 44.999 79.7882C64.2117 79.7882 79.7868 64.2131 79.7868 45C79.7868 38.0916 77.7728 31.6538 74.3005 26.241C82.1082 39.6936 80.2529 57.2166 68.7345 68.7355Z" fill="url(#paint7_linear_12151_195681)" style="mix-blend-mode:screen"/>
<path fill-rule="evenodd" clip-rule="evenodd" d="M44.9985 13.1422C62.5937 13.1422 76.8567 27.4061 76.8567 45.0005C76.8567 62.5948 62.5937 76.8583 44.9985 76.8583C27.4032 76.8583 13.1406 62.5953 13.1406 45.0005C13.1406 27.4057 27.4037 13.1422 44.9985 13.1422Z" fill="url(#paint8_radial_12151_195681)"/>
<path fill-rule="evenodd" clip-rule="evenodd" d="M41.4453 17.3115C54.8854 17.3115 65.7804 28.2078 65.7804 41.647C65.7804 55.0872 54.8854 65.9834 41.4453 65.9834C28.0052 65.9834 17.1094 55.0872 17.1094 41.647C17.1094 28.2078 28.0048 17.3115 41.4453 17.3115Z" fill="url(#paint9_radial_12151_195681)" style="mix-blend-mode:screen"/>
<path fill-rule="evenodd" clip-rule="evenodd" d="M26.7494 25.9489C33.8891 18.8097 44.1022 17.4467 49.5609 22.9063C55.0201 28.3655 53.6576 38.5782 46.518 45.7178C39.3783 52.8575 29.1648 54.22 23.706 48.7608C18.2468 43.3021 19.6098 33.089 26.7494 25.9489Z" fill="url(#paint10_radial_12151_195681)" style="mix-blend-mode:screen"/>
<path opacity="0.5" fill-rule="evenodd" clip-rule="evenodd" d="M59.3966 19.2419C67.6242 24.4378 73.09 33.6093 73.09 44.0603C73.09 60.2596 59.9587 73.3918 43.7594 73.3918C39.3593 73.3918 35.1875 72.4207 31.4414 70.6851C33.707 71.2255 36.0697 71.5131 38.4993 71.5131C55.2415 71.5131 68.8123 57.9423 68.8123 41.2005C68.8123 32.5602 65.1967 24.7641 59.3966 19.2419Z" fill="url(#paint11_radial_12151_195681)" style="mix-blend-mode:screen"/>
</g>
<path d="M48.1094 64.8138L41.8672 64.8148C41.7774 64.8148 41.6869 64.801 41.5986 64.7787C41.6493 64.7915 41.7004 64.8023 41.752 64.808L41.8672 64.8138H48.1094ZM48.7031 64.6429C48.611 64.6962 48.51 64.7394 48.4062 64.7689C48.5101 64.7395 48.611 64.6961 48.7031 64.6429ZM41.2744 64.6459C41.3632 64.698 41.4596 64.7391 41.5596 64.7679C41.4597 64.7391 41.3632 64.698 41.2744 64.6459ZM62.3789 48.2904H62.3867C62.6206 48.2819 62.8815 48.3645 63.0811 48.516C63.2784 48.6659 63.4025 48.8713 63.4033 49.1088L63.4219 54.9369L63.4229 55.1547L63.6396 55.1351C63.9195 55.1102 64.141 55.1824 64.3203 55.3119C64.4939 55.4373 64.6359 55.624 64.748 55.851V61.3256C64.5221 61.7263 64.2782 62.0442 63.8535 62.0443L54.2715 62.0463C52.1706 62.0467 50.2542 62.8489 48.7939 64.3275C48.6324 64.491 48.3511 64.6136 48.1094 64.6136L41.8672 64.6146C41.6167 64.6146 41.352 64.497 41.1797 64.3236C39.7454 62.8802 37.8561 62.05 35.7822 62.0492L26.1982 62.0453C25.6596 62.0449 25.2287 61.6105 25.2285 61.0834V56.1C25.2287 55.5114 25.7279 55.0919 26.3389 55.1351L26.5537 55.1508L26.5527 54.9359L26.5508 49.3344C26.5508 48.7163 26.9764 48.2731 27.5996 48.2865L35.0029 48.2904C39.1648 48.2927 42.8813 50.5826 44.8096 54.3226L44.9873 54.6683L45.165 54.3226C47.1553 50.4419 51.0545 48.2651 55.3623 48.2748L62.3789 48.2904ZM40.7705 64.2084V64.2074V64.2084ZM40.207 63.7377C40.0125 63.5905 39.8118 63.4533 39.6055 63.3265C39.8118 63.4532 40.0124 63.5905 40.207 63.7377ZM49.9219 63.6273C49.9604 63.5997 49.9982 63.5711 50.0371 63.5443C49.9982 63.5711 49.9604 63.5997 49.9219 63.6273ZM50.1973 63.4388C50.2447 63.408 50.2918 63.3768 50.3398 63.347C50.2918 63.3768 50.2447 63.408 50.1973 63.4388ZM50.4922 63.2562C50.5424 63.2268 50.5927 63.1975 50.6436 63.1693C50.5927 63.1975 50.5424 63.2268 50.4922 63.2562ZM50.8066 63.0814C50.8558 63.0558 50.9053 63.0307 50.9551 63.0062C50.9053 63.0307 50.8558 63.0558 50.8066 63.0814ZM51.1445 62.9164C51.182 62.8992 51.22 62.8831 51.2578 62.8666C51.22 62.8831 51.1821 62.8992 51.1445 62.9164ZM51.4541 62.7836C51.5059 62.7627 51.558 62.7427 51.6104 62.723C51.558 62.7427 51.5059 62.7627 51.4541 62.7836ZM36.8975 62.3334L36.8965 62.3324L36.8975 62.3334ZM52.7871 57.0687C50.7799 57.1013 48.9601 57.8803 47.5518 59.267C47.3609 59.455 47.0742 59.5579 46.7861 59.558L43.1904 59.559C42.8857 59.559 42.6068 59.4472 42.3916 59.2367C40.9864 57.8622 39.1805 57.1018 37.1885 57.0687L27.166 57.0677V60.1136L35.5537 60.1127C38.0497 60.0717 40.3815 60.9554 42.209 62.6273L42.2666 62.6801H47.707L47.7646 62.6273C49.5388 61.0136 51.7757 60.1256 54.1904 60.1127L62.8125 60.1136V59.9125L62.8037 57.267L62.8027 57.0677L52.7871 57.0687ZM51.7793 62.6615C51.834 62.6425 51.8891 62.6246 51.9443 62.6068C51.8891 62.6246 51.834 62.6425 51.7793 62.6615ZM52.123 62.5511C52.1717 62.5369 52.2205 62.5234 52.2695 62.5101C52.2205 62.5234 52.1717 62.5369 52.123 62.5511ZM52.4658 62.4594C52.5206 62.4461 52.5757 62.4343 52.6309 62.4222C52.5757 62.4343 52.5206 62.4461 52.4658 62.4594ZM52.8184 62.3832C52.8599 62.3752 52.9016 62.368 52.9434 62.3607C52.9016 62.368 52.8599 62.3752 52.8184 62.3832ZM53.1787 62.3226C53.2121 62.3179 53.2457 62.3142 53.2793 62.3099C53.2457 62.3142 53.2121 62.3179 53.1787 62.3226ZM35.7822 62.2494V62.2484V62.2494ZM64.0547 62.223C63.9916 62.2362 63.9247 62.2445 63.8535 62.2445L54.2715 62.2465L53.8896 62.2552L54.2715 62.2455L63.8535 62.2435C63.9247 62.2435 63.9916 62.2362 64.0547 62.223ZM64.6514 61.8334C64.5741 61.9269 64.4883 62.0119 64.3896 62.0795L64.3135 62.1263C64.4445 62.053 64.5549 61.9501 64.6514 61.8334ZM25.0508 61.3099C25.0522 61.3172 25.0541 61.3243 25.0557 61.3314C25.0546 61.3265 25.0528 61.3217 25.0518 61.3168L25.0508 61.3099ZM53.3057 59.9564C53.2433 59.9623 53.1813 59.9709 53.1191 59.9779C53.1812 59.9709 53.2433 59.9623 53.3057 59.9564ZM35.5508 59.9135C35.8012 59.9093 36.05 59.9161 36.2969 59.9301C36.1972 59.9244 36.0973 59.9191 35.9971 59.9164L35.5508 59.9135ZM42.5303 59.5873C42.6287 59.6429 42.7332 59.6846 42.8428 59.7133C42.7332 59.6847 42.6287 59.6428 42.5303 59.5873ZM42.3506 59.4672C42.3951 59.5029 42.4422 59.5344 42.4902 59.5638C42.4787 59.5568 42.4664 59.5508 42.4551 59.5433L42.3506 59.4672ZM47.6924 59.4105C47.6684 59.4342 47.6423 59.4557 47.6162 59.4769L47.6924 59.4095C47.7781 59.3252 47.8654 59.2432 47.9541 59.1635L47.6924 59.4105ZM41.9912 59.1351C41.8141 58.9771 41.6309 58.8287 41.4424 58.6898C41.6309 58.8287 41.8141 58.9771 41.9912 59.1351ZM28.4912 55.1342H28.6904L37.2637 55.1439C39.5864 55.1464 41.6722 56.0314 43.4961 57.5853L43.9395 57.9633L43.8213 57.392C42.9742 53.3016 39.3869 50.3522 35.25 50.223L28.4912 50.222V55.1342ZM54.7324 50.223L54.7266 50.224C50.5865 50.3459 46.9886 53.2965 46.1533 57.392L46.0381 57.9574L46.4785 57.5844C48.2853 56.0548 50.34 55.1519 52.6338 55.1478L61.2852 55.1322H61.4844V50.2211L54.7324 50.223ZM43.54 57.0609C43.5711 57.1838 43.6001 57.3078 43.626 57.433C43.6001 57.3078 43.5711 57.1838 43.54 57.0609ZM40.7324 55.6361C40.9661 55.7324 41.1975 55.8363 41.4248 55.9515C41.1975 55.8364 40.9662 55.7324 40.7324 55.6361ZM64.7285 55.4369V55.4359V55.4369ZM38.5752 55.0394C38.8608 55.0812 39.1423 55.1363 39.4199 55.2045C39.1423 55.1363 38.8607 55.0811 38.5752 55.0394ZM52.1738 50.8812V50.8822V50.8812ZM39.1572 48.8851V48.8842V48.8851ZM44.7324 47.0853C45.274 46.9319 45.7793 47.2651 45.9189 47.7513C46.065 48.2605 45.7616 48.7923 45.2471 48.9388C44.7577 49.078 44.2401 48.8015 44.0723 48.3119C43.9049 47.8231 44.1644 47.2466 44.7324 47.0853ZM27.4678 48.0912C27.2453 48.1074 27.0474 48.1756 26.8818 48.2845C26.7493 48.3718 26.6379 48.485 26.5518 48.6185C26.5303 48.6518 26.5104 48.6863 26.4922 48.722C26.474 48.7577 26.4572 48.7945 26.4424 48.8324L26.4023 48.9496C26.5501 48.4279 27.0016 48.0742 27.6045 48.0873C27.558 48.0863 27.5124 48.0879 27.4678 48.0912ZM63.4893 48.682C63.5246 48.7451 63.553 48.8121 63.5723 48.8832C63.553 48.8121 63.5246 48.7451 63.4893 48.682ZM43.9658 48.5638C43.9749 48.5803 43.9854 48.5958 43.9951 48.6117C43.9854 48.5958 43.9749 48.5803 43.9658 48.5638ZM43.8398 48.1996C43.85 48.2594 43.8638 48.319 43.8838 48.3773L43.9258 48.4838C43.9309 48.495 43.9369 48.5059 43.9424 48.517C43.9203 48.472 43.8994 48.4258 43.8828 48.3773C43.8628 48.319 43.85 48.2593 43.8398 48.1996ZM63.2012 48.3568H63.2021H63.2012ZM62.7012 48.1234C62.7489 48.1345 62.7961 48.149 62.8428 48.1654C62.7961 48.1489 62.7489 48.1346 62.7012 48.1234ZM43.8232 47.9662C43.8244 47.9368 43.8267 47.9075 43.8301 47.8783C43.8267 47.9075 43.8244 47.9368 43.8232 47.9662ZM44.4453 46.9847C44.428 46.9937 44.4112 47.0033 44.3945 47.0131C44.4091 47.0046 44.4234 46.9956 44.4385 46.9877L44.4453 46.9847ZM49.4766 46.0531C49.4241 46.0588 49.371 46.0624 49.3174 46.0609C49.371 46.0624 49.4241 46.0588 49.4766 46.0531ZM45.2451 25.184C45.6436 25.414 45.9417 25.6569 45.9463 26.0736L45.9619 27.4818C45.9674 27.9613 46.3503 28.3695 46.8564 28.3724C49.1511 28.3852 50.9612 30.2433 50.9424 32.4877C50.9237 34.6923 49.1285 36.5223 46.8594 36.5277L44.3574 36.5336C42.7899 36.5373 41.5698 37.824 41.5918 39.3383C41.6134 40.8138 42.8154 42.0583 44.3574 42.0619L47.4854 42.0687C49.0567 42.0723 50.3154 43.3323 50.3174 44.8988C50.318 45.4663 49.8464 45.8756 49.3232 45.8607C48.8497 45.8471 48.4527 45.4931 48.3896 44.9935L48.375 44.8031C48.3189 44.3624 47.9619 44.0035 47.4854 44.0013L44.2041 43.9867C41.6363 43.9749 39.6313 41.7698 39.6504 39.2601C39.6697 36.7477 41.7126 34.6141 44.2822 34.6039L46.8643 34.5931C48.0886 34.5883 49.0267 33.5842 49.0039 32.4115C48.9815 31.2685 48.0625 30.321 46.8613 30.308C45.249 30.2903 44.0256 29.0068 44.0146 27.3959L44.0078 26.307C44.0059 26.0185 44.0768 25.7934 44.2002 25.6136C44.3186 25.4413 44.4942 25.3002 44.7246 25.184H45.2451ZM30.5996 45.4388V45.4398V45.4388ZM50.4658 45.2474C50.46 45.2664 50.4521 45.2846 50.4453 45.3031C50.4521 45.2846 50.46 45.2664 50.4658 45.2474ZM29.7725 45.1293V45.1283V45.1293ZM30.5312 33.3549C30.9971 33.3423 31.3964 33.6489 31.5332 34.1469C32.067 36.0919 33.4181 37.6448 35.2939 38.4037C35.6645 38.5536 35.8824 38.9064 35.8936 39.266C35.9054 39.6569 35.685 40.0295 35.2949 40.1888C33.4457 40.943 32.0867 42.4573 31.5439 44.4154C31.4003 44.9339 31.0276 45.2247 30.5938 45.2386C30.1321 45.2533 29.7309 44.9457 29.5947 44.4515C29.0589 42.5055 27.7116 40.9478 25.832 40.1908C25.4602 40.0408 25.2398 39.6885 25.2285 39.3285C25.2166 38.9384 25.4423 38.5614 25.832 38.4037C27.7109 37.6431 29.0581 36.0899 29.5938 34.1439C29.7253 33.6668 30.1001 33.3667 30.5312 33.3549ZM48.1641 44.766C48.1732 44.8091 48.1801 44.8533 48.1816 44.8988C48.1801 44.8533 48.1732 44.8091 48.1641 44.766ZM48.1289 44.6488C48.1377 44.6714 48.1447 44.6945 48.1514 44.7181C48.1447 44.6945 48.1378 44.6714 48.1289 44.6488ZM48.0703 44.5316C48.0816 44.5499 48.0919 44.5688 48.1016 44.5883C48.0918 44.5688 48.0816 44.5499 48.0703 44.5316ZM47.9951 44.432C48.0106 44.4493 48.0253 44.4669 48.0391 44.4857C48.0253 44.4669 48.0106 44.4493 47.9951 44.432ZM29.2998 44.1713C29.3305 44.2636 29.358 44.3572 29.3848 44.4515C29.358 44.3572 29.3305 44.2636 29.2998 44.1713ZM47.9023 44.3461C47.9213 44.3607 47.9398 44.3755 47.957 44.392C47.9397 44.3755 47.9213 44.3607 47.9023 44.3461ZM47.79 44.2758C47.8137 44.2875 47.8375 44.2985 47.8594 44.3129C47.8374 44.2986 47.8137 44.2875 47.79 44.2758ZM29.1738 43.8275C29.1959 43.8832 29.2157 43.9399 29.2363 43.9965C29.2157 43.9399 29.1959 43.8832 29.1738 43.8275ZM31.9062 43.9515C31.9248 43.9013 31.9422 43.8507 31.9619 43.8011C31.9422 43.8507 31.9248 43.9013 31.9062 43.9515ZM29.043 43.5209C29.0665 43.5724 29.0881 43.6248 29.1104 43.6771C29.0881 43.6248 29.0665 43.5724 29.043 43.5209ZM32.0479 43.601C32.0663 43.5589 32.0833 43.5164 32.1025 43.475C32.0833 43.5164 32.0663 43.5589 32.0479 43.601ZM28.8877 43.2045C28.9134 43.2534 28.9374 43.3032 28.9619 43.3529C28.9374 43.3032 28.9134 43.2534 28.8877 43.2045ZM32.1836 43.3109C32.2043 43.2694 32.2245 43.2278 32.2461 43.1869C32.2245 43.2278 32.2044 43.2694 32.1836 43.3109ZM28.7148 42.8978C28.7421 42.9432 28.7678 42.9894 28.7939 43.0355C28.7678 42.9894 28.7421 42.9432 28.7148 42.8978ZM32.3428 43.0131C32.37 42.9654 32.3964 42.9173 32.4248 42.8705C32.3964 42.9173 32.37 42.9654 32.3428 43.0131ZM28.5361 42.6176C28.5666 42.6626 28.5957 42.7084 28.625 42.7543C28.5957 42.7084 28.5666 42.6626 28.5361 42.6176ZM32.5215 42.7201C32.5516 42.6736 32.581 42.6269 32.6123 42.5814C32.581 42.6269 32.5516 42.6736 32.5215 42.7201ZM28.3242 42.3236C28.3665 42.3788 28.4078 42.4349 28.4482 42.4916C28.4078 42.4349 28.3665 42.3788 28.3242 42.3236ZM32.6895 42.472C32.7332 42.4112 32.7783 42.3514 32.8242 42.2924C32.7783 42.3514 32.7333 42.4112 32.6895 42.472ZM28.1113 42.0619C28.1562 42.1142 28.2001 42.1672 28.2432 42.2211C28.2001 42.1672 28.1562 42.1142 28.1113 42.0619ZM32.9072 42.1869C32.9476 42.1372 32.9893 42.0887 33.0312 42.0404C32.9893 42.0887 32.9476 42.1372 32.9072 42.1869ZM27.8809 41.808C27.9286 41.8577 27.9755 41.9081 28.0215 41.9594C27.9755 41.9081 27.9286 41.8577 27.8809 41.808ZM33.125 41.9359C33.1712 41.8851 33.2177 41.8347 33.2656 41.7855C33.2177 41.8347 33.1712 41.8851 33.125 41.9359ZM42.7266 41.2748C43.0408 41.5345 43.4192 41.7216 43.8379 41.808L44.0938 41.848C43.6601 41.8032 43.2617 41.6518 42.9229 41.4222L42.7266 41.2748ZM30.3975 37.057C29.8462 37.871 29.2238 38.5345 28.4512 39.14L28.249 39.2982L28.4521 39.4554C29.2282 40.0557 29.8367 40.7302 30.4023 41.5287L30.5674 41.7611L30.7305 41.5277C31.3028 40.7053 31.8859 40.0708 32.6621 39.4672L32.8564 39.3158L32.668 39.1566C31.9378 38.5396 31.2795 37.8895 30.7305 37.059L30.5654 36.809L30.3975 37.057ZM27.6455 41.5765C27.6887 41.6168 27.7315 41.6572 27.7734 41.6986C27.7315 41.6572 27.6887 41.6168 27.6455 41.5765ZM33.3643 41.6859C33.4011 41.6498 33.4388 41.6146 33.4766 41.5795C33.4388 41.6146 33.4011 41.6498 33.3643 41.6859ZM39.876 41.2924C39.9075 41.3632 39.9409 41.4331 39.9756 41.5023C39.9409 41.4331 39.9075 41.3632 39.876 41.2924ZM27.377 41.3402C27.4313 41.3852 27.4854 41.4302 27.5381 41.4769C27.4854 41.4302 27.4313 41.3852 27.377 41.3402ZM33.6299 41.4408C33.6676 41.4081 33.7066 41.3769 33.7451 41.3451C33.7066 41.3769 33.6676 41.4081 33.6299 41.4408ZM29.6523 40.2816C29.979 40.6323 30.278 41.0077 30.5654 41.4135C30.35 41.1094 30.1278 40.8226 29.8926 40.5502L29.6523 40.2816ZM30.9121 40.9437C30.7956 41.0943 30.6794 41.2496 30.5654 41.4135C30.6794 41.2497 30.7957 41.0942 30.9121 40.9437ZM27.0977 41.1234C27.1555 41.1658 27.2134 41.208 27.2695 41.2523C27.2134 41.208 27.1555 41.1658 27.0977 41.1234ZM33.8799 41.2347C33.929 41.1964 33.9799 41.1603 34.0303 41.1234C33.9799 41.1603 33.929 41.1964 33.8799 41.2347ZM26.7832 40.9076C26.8538 40.9528 26.9238 40.9984 26.9922 41.0463C26.9238 40.9984 26.8538 40.9528 26.7832 40.9076ZM34.1455 41.0385C34.2106 40.9931 34.2777 40.9505 34.3447 40.9076C34.2777 40.9505 34.2106 40.9931 34.1455 41.0385ZM39.7109 40.8695C39.6825 40.7858 39.6568 40.701 39.6328 40.6156C39.6567 40.701 39.6826 40.7858 39.7109 40.8695ZM42.2354 40.7347L42.3818 40.9301C42.2837 40.8115 42.1968 40.6837 42.1211 40.5492C42.1568 40.6126 42.1945 40.6747 42.2354 40.7347ZM25.7578 40.3763L26.0928 40.5228C26.3074 40.6241 26.5137 40.7377 26.7119 40.8607C26.4126 40.6749 26.0941 40.5128 25.7578 40.3773C25.7311 40.3665 25.7061 40.3517 25.6807 40.3392C25.7061 40.3517 25.7311 40.3656 25.7578 40.3763ZM34.4375 40.848C34.4902 40.8156 34.5438 40.7843 34.5977 40.7533C34.5438 40.7843 34.4902 40.8156 34.4375 40.848ZM34.8916 40.5951C34.9409 40.5701 34.9899 40.5437 35.04 40.5199L35.3701 40.3744C35.4289 40.3504 35.4848 40.323 35.5371 40.2914C35.4848 40.323 35.429 40.3513 35.3701 40.3754C35.2063 40.4422 35.0472 40.5163 34.8916 40.5951ZM39.5352 40.1996C39.5069 40.0497 39.4849 39.8979 39.4707 39.7445L39.4551 39.5023C39.4651 39.7383 39.4921 39.9713 39.5352 40.1996ZM31.917 39.8392C31.8329 39.9172 31.7511 39.9962 31.6709 40.0765C31.751 39.9962 31.8329 39.9172 31.917 39.8392ZM29.1396 39.7738H29.1406H29.1396ZM39.458 39.0228L39.4502 39.2592C39.4512 39.1253 39.4589 38.9923 39.4707 38.8607C39.4659 38.9146 39.4611 38.9686 39.458 39.0228ZM53.9229 39.1986C53.8677 39.2085 53.8126 39.2135 53.7578 39.2152C53.8126 39.2135 53.8677 39.2085 53.9229 39.1986ZM53.4639 37.1273C54.0056 36.9737 54.5116 37.3072 54.6514 37.7933C54.7974 38.3025 54.494 38.8343 53.9795 38.9808C53.4902 39.1199 52.9725 38.8433 52.8047 38.3539C52.6377 37.8652 52.8964 37.2886 53.4639 37.1273ZM35.9766 38.7875H35.9775H35.9766ZM29.4014 38.5717H29.4023H29.4014ZM52.6982 38.6058C52.7091 38.6257 52.7215 38.6444 52.7334 38.6635C52.7215 38.6444 52.7091 38.6257 52.6982 38.6058ZM26.083 38.0756C25.9914 38.1188 25.8982 38.1595 25.8037 38.1986C25.8982 38.1595 25.9914 38.1188 26.083 38.0756ZM52.5664 37.8949C52.5612 37.9328 52.5571 37.9709 52.5557 38.0092C52.5571 37.9708 52.5612 37.9328 52.5664 37.8949ZM26.4082 37.9095C26.322 37.9566 26.2346 38.0021 26.1455 38.0453C26.2346 38.0021 26.322 37.9566 26.4082 37.9095ZM27.0059 37.5385C26.9444 37.5818 26.8816 37.6233 26.8184 37.6644C26.8816 37.6233 26.9444 37.5818 27.0059 37.5385ZM27.2695 37.3412C27.2076 37.3901 27.1441 37.4372 27.0801 37.4838C27.1441 37.4372 27.2076 37.3901 27.2695 37.3412ZM59.5215 37.265C59.4735 37.2694 59.4247 37.2723 59.375 37.2709C59.4246 37.2722 59.4736 37.2694 59.5215 37.265ZM27.541 37.1136C27.4864 37.1623 27.4305 37.2095 27.374 37.2562C27.4305 37.2095 27.4864 37.1622 27.541 37.1136ZM59.6729 25.184C60.0445 25.3804 60.2887 25.6203 60.4053 26.0385C60.9199 27.8855 62.2052 29.4098 63.9863 30.1576C64.3574 30.3134 64.5764 30.5375 64.748 30.8793V31.3783C64.5764 31.7195 64.3558 31.9459 63.9873 32.1C62.1739 32.8585 60.9024 34.4092 60.3828 36.2777C60.2431 36.7799 59.8474 37.0838 59.3799 37.0707C58.9511 37.0583 58.5737 36.7576 58.4434 36.2836C57.9083 34.3372 56.5608 32.7806 54.6816 32.0228C54.2902 31.8648 54.0687 31.4908 54.0801 31.099C54.0907 30.7355 54.306 30.3899 54.6836 30.2357C56.5054 29.493 57.8662 27.994 58.4014 26.0902C58.5256 25.6484 58.7652 25.3766 59.1494 25.184H59.6729ZM27.7881 36.8812C27.737 36.932 27.6848 36.9816 27.6318 37.0306C27.6848 36.9816 27.737 36.932 27.7881 36.8812ZM54.1084 36.9545C54.1437 36.9669 54.1783 36.9807 54.2119 36.9965C54.1783 36.9807 54.1437 36.9669 54.1084 36.9545ZM28.0215 36.6351C27.9745 36.6874 27.9267 36.7388 27.8779 36.7894C27.9267 36.7388 27.9745 36.6874 28.0215 36.6351ZM47.1533 36.7162C47.0566 36.7229 46.9589 36.7277 46.8604 36.7279C46.9589 36.7277 47.0566 36.7229 47.1533 36.7162ZM60.5752 36.3314C60.5493 36.4244 60.5144 36.5115 60.4736 36.5931C60.4985 36.5434 60.5216 36.4919 60.541 36.4379L60.5752 36.3314ZM28.2285 36.391C28.1897 36.4391 28.1506 36.4867 28.1104 36.5336C28.1506 36.4867 28.1897 36.4391 28.2285 36.391ZM58.0254 35.6605C58.1054 35.8628 58.175 36.0708 58.2354 36.2836C58.175 36.0708 58.1054 35.8628 58.0254 35.6605ZM28.4502 36.098C28.4111 36.1529 28.3719 36.2076 28.3311 36.2611C28.3719 36.2076 28.4111 36.1529 28.4502 36.098ZM28.6475 35.8051C28.6059 35.871 28.5634 35.9362 28.5195 36.0004C28.5634 35.9362 28.6059 35.871 28.6475 35.8051ZM28.8467 35.4672C28.8035 35.5465 28.7583 35.6245 28.7119 35.7015C28.7583 35.6245 28.8035 35.5465 28.8467 35.4672ZM57.8887 35.3431C57.9161 35.4028 57.9421 35.4631 57.9678 35.5238C57.9421 35.4631 57.9161 35.4028 57.8887 35.3431ZM29.002 35.1586C28.9601 35.2465 28.9177 35.3338 28.8721 35.4193C28.9177 35.3338 28.9601 35.2465 29.002 35.1586ZM57.7256 35.0121C57.7641 35.0846 57.8001 35.1585 57.8359 35.2328C57.8001 35.1585 57.7641 35.0846 57.7256 35.0121ZM57.5527 34.7094C57.5915 34.7733 57.6285 34.8382 57.665 34.9037C57.6285 34.8382 57.5915 34.7733 57.5527 34.7094ZM57.3799 34.4408C57.4198 34.4995 57.4582 34.5593 57.4961 34.6195C57.4582 34.5593 57.4198 34.4995 57.3799 34.4408ZM47.0586 34.3822C46.9945 34.3887 46.9294 34.3927 46.8633 34.3929C46.9293 34.3927 46.9946 34.3887 47.0586 34.3822ZM47.2529 34.3529C47.2185 34.3599 47.1835 34.3643 47.1484 34.3695C47.1835 34.3643 47.2185 34.3599 47.2529 34.3529ZM47.4375 34.3051C47.4054 34.315 47.3727 34.3231 47.3398 34.3314C47.3727 34.3231 47.4054 34.315 47.4375 34.3051ZM57.1748 34.1566C57.2144 34.2083 57.253 34.2608 57.291 34.3138C57.253 34.2608 57.2144 34.2083 57.1748 34.1566ZM47.6123 34.2406C47.5835 34.2527 47.554 34.2631 47.5244 34.2738C47.554 34.2631 47.5835 34.2527 47.6123 34.2406ZM47.7822 34.1595C47.7547 34.1744 47.7266 34.188 47.6982 34.2015C47.7266 34.188 47.7547 34.1744 47.7822 34.1595ZM47.958 34.0531C47.9235 34.0767 47.8876 34.0981 47.8516 34.1195C47.8876 34.0981 47.9235 34.0767 47.958 34.0531ZM29.4326 33.9896L29.4336 33.9906L29.4326 33.9896ZM56.9609 33.8929C57.0045 33.9436 57.047 33.9951 57.0889 34.0472C57.047 33.9951 57.0045 33.9436 56.9609 33.8929ZM35.9971 32.1488C36.5389 31.995 37.0448 32.3285 37.1846 32.8148C37.3307 33.324 37.0271 33.8559 36.5127 34.0023C36.0233 34.1413 35.5057 33.8648 35.3379 33.3754C35.1707 32.8867 35.4295 32.3102 35.9971 32.1488ZM48.0918 33.9515C48.0611 33.9767 48.0294 34.0005 47.9971 34.0238C48.0293 34.0005 48.0611 33.9767 48.0918 33.9515ZM48.2314 33.8256C48.2065 33.8505 48.1806 33.8743 48.1543 33.8978C48.1806 33.8743 48.2065 33.8505 48.2314 33.8256ZM29.5664 33.7142H29.5674H29.5664ZM56.7148 33.6234C56.7662 33.6764 56.8169 33.7298 56.8662 33.7845C56.8169 33.7298 56.7662 33.6764 56.7148 33.6234ZM48.3496 33.6967C48.3299 33.7202 48.3099 33.7434 48.2891 33.766C48.3099 33.7434 48.3299 33.7202 48.3496 33.6967ZM35.2314 33.6273C35.2403 33.6434 35.2503 33.6587 35.2598 33.6742C35.2503 33.6587 35.2403 33.6434 35.2314 33.6273ZM48.4619 33.5492C48.4437 33.5757 48.4248 33.6017 48.4053 33.6273C48.4248 33.6017 48.4437 33.5757 48.4619 33.5492ZM59.2471 28.889C58.6957 29.703 58.0736 30.3663 57.3008 30.972L57.0986 31.1302L57.3018 31.2875C58.078 31.8876 58.6862 32.5622 59.252 33.3607L59.417 33.5931L59.5791 33.3597C60.1515 32.5373 60.7357 31.9029 61.5117 31.2992L61.7061 31.1478L61.5176 30.9886C60.7874 30.3716 60.129 29.7216 59.5801 28.891L59.415 28.641L59.2471 28.889ZM56.4805 33.3939C56.5364 33.4457 56.5916 33.4983 56.6455 33.5521C56.5916 33.4983 56.5364 33.4457 56.4805 33.3939ZM48.5605 33.3881C48.543 33.4198 48.5251 33.4512 48.5059 33.4818C48.5251 33.4512 48.543 33.4198 48.5605 33.3881ZM35.1143 33.3129C35.094 33.2188 35.0862 33.1234 35.0898 33.0287C35.0862 33.1234 35.094 33.2188 35.1143 33.3129ZM48.6523 33.1996C48.6346 33.2419 48.6163 33.2838 48.5957 33.3246C48.6163 33.2838 48.6346 33.2419 48.6523 33.1996ZM56.208 33.1566C56.2699 33.2074 56.3309 33.2588 56.3906 33.3119C56.3309 33.2588 56.2699 33.2074 56.208 33.1566ZM48.7246 33.0004C48.7081 33.0562 48.6883 33.1107 48.667 33.1644C48.6883 33.1107 48.7081 33.0562 48.7246 33.0004ZM55.9473 32.9545C56.0055 32.9971 56.0636 33.0398 56.1201 33.0844C56.0636 33.0398 56.0055 32.9971 55.9473 32.9545ZM48.7979 32.6127C48.7874 32.7395 48.7636 32.8632 48.7295 32.9828C48.7461 32.9245 48.7604 32.8653 48.7715 32.8051L48.7979 32.6127ZM59.8584 32.6508C60.1591 32.2742 60.4747 31.9351 60.8281 31.6136C60.4747 31.9351 60.1591 32.2743 59.8584 32.6508ZM55.627 32.7347C55.7022 32.7828 55.7769 32.8311 55.8496 32.8822C55.7769 32.8311 55.7022 32.7828 55.627 32.7347ZM55.3164 32.5492C55.3996 32.5957 55.482 32.6428 55.5625 32.6927C55.4821 32.6428 55.3996 32.5957 55.3164 32.5492ZM55.2451 32.5082C55.2491 32.5103 55.2529 32.5129 55.2568 32.515C55.154 32.459 55.0493 32.4054 54.9424 32.3549L55.2451 32.5082ZM48.79 32.223H48.791H48.79ZM64.4834 32.0394C64.3646 32.1353 64.2275 32.2168 64.0654 32.2845H64.0645C64.1184 32.262 64.17 32.2378 64.2188 32.2123C64.3165 32.161 64.404 32.1034 64.4834 32.0394ZM58.502 32.1136H58.5029H58.502ZM35.8193 31.9984C35.7596 32.0223 35.7034 32.0508 35.6504 32.0824C35.7034 32.0508 35.7596 32.0223 35.8193 31.9984ZM36.1875 31.9135C36.2273 31.9107 36.2667 31.9102 36.3057 31.9115C36.2667 31.9102 36.2273 31.9107 36.1875 31.9135ZM57.4238 31.1293H57.4248H57.4238ZM64.0645 29.973C64.4453 30.1329 64.6888 30.3617 64.873 30.6859L64.9482 30.8314C64.8034 30.5295 64.6234 30.3001 64.3584 30.1273C64.2703 30.0699 64.1721 30.0186 64.0635 29.973H64.0645ZM47.4424 30.599C47.5034 30.6182 47.5631 30.6398 47.6211 30.6644L47.79 30.7465C47.7354 30.7168 47.6789 30.69 47.6211 30.6654L47.4424 30.599ZM46.2656 30.4447C46.4567 30.4833 46.655 30.505 46.8594 30.5072C46.655 30.505 46.4567 30.4833 46.2656 30.4447ZM45.751 30.2904C45.9093 30.3529 46.0737 30.405 46.2451 30.4408C46.0737 30.405 45.9094 30.3529 45.751 30.2904ZM54.9258 29.9095C54.8244 29.9574 54.7218 30.0035 54.6172 30.0463C54.7218 30.0035 54.8244 29.9574 54.9258 29.9095ZM55.2354 29.7523C55.1587 29.7938 55.0807 29.833 55.002 29.8715C55.0807 29.833 55.1587 29.7938 55.2354 29.7523ZM55.5264 29.5853C55.4592 29.6265 55.3902 29.6647 55.3213 29.7035C55.3902 29.6647 55.4592 29.6265 55.5264 29.5853ZM49.2754 28.9232C49.3896 29.0013 49.4997 29.0848 49.6055 29.1732C49.4997 29.0848 49.3896 29.0013 49.2754 28.9232ZM55.8066 29.4017C55.7527 29.4389 55.6978 29.4746 55.6426 29.5101C55.6978 29.4746 55.7527 29.4389 55.8066 29.4017ZM56.0771 29.2035C56.0299 29.24 55.982 29.2757 55.9336 29.3109C55.982 29.2757 56.0299 29.24 56.0771 29.2035ZM56.333 28.9945C56.2907 29.0311 56.2475 29.0665 56.2041 29.1019C56.2475 29.0665 56.2907 29.0311 56.333 28.9945ZM56.583 28.766C56.5482 28.7996 56.5131 28.8328 56.4775 28.8656C56.5131 28.8328 56.5482 28.7996 56.583 28.766ZM56.8359 28.5072C56.7883 28.5591 56.7389 28.6093 56.6895 28.6595C56.7389 28.6093 56.7883 28.5591 56.8359 28.5072ZM39.4639 28.6342C39.4463 28.6355 39.4287 28.6346 39.4111 28.6351C39.4332 28.6344 39.4554 28.6342 39.4775 28.6322L39.4639 28.6342ZM38.916 28.5414C38.9329 28.5487 38.9505 28.5544 38.9678 28.5609C38.9549 28.556 38.9414 28.5526 38.9287 28.5472L38.916 28.5414ZM39.1172 26.5482C39.659 26.3946 40.1651 26.7279 40.3047 27.2142C40.4504 27.7232 40.1471 28.2552 39.6328 28.4017C39.1436 28.5408 38.626 28.264 38.458 27.7748C38.2907 27.2861 38.5496 26.7096 39.1172 26.5482ZM57.0518 28.2562C57.0074 28.3102 56.9631 28.364 56.917 28.4164C56.9631 28.364 57.0074 28.3102 57.0518 28.2562ZM46.584 28.1156L46.7148 28.1576C46.6526 28.1445 46.5953 28.1202 46.541 28.0922C46.5555 28.0996 46.5689 28.1091 46.584 28.1156ZM57.2715 27.974C57.2273 28.0348 57.1821 28.0947 57.1357 28.1537C57.1821 28.0947 57.2273 28.0348 57.2715 27.974ZM57.4629 27.6927C57.4177 27.7629 57.3722 27.8327 57.3242 27.9008C57.3721 27.8327 57.4177 27.7629 57.4629 27.6927ZM38.2373 27.7318C38.2458 27.7682 38.2573 27.8045 38.2695 27.8402L38.2686 27.8392C38.2564 27.8037 38.2458 27.7679 38.2373 27.7318ZM43.8203 27.557C43.8246 27.6361 43.834 27.714 43.8438 27.7914C43.8405 27.7656 43.8347 27.7402 43.832 27.7142L43.8203 27.557ZM57.623 27.4301C57.5876 27.4918 57.5521 27.5533 57.5146 27.6136C57.5521 27.5533 57.5876 27.4918 57.623 27.4301ZM38.209 27.4291C38.2101 27.3993 38.2134 27.3698 38.2168 27.3402C38.2134 27.3698 38.2101 27.3993 38.209 27.4291ZM57.791 27.1166C57.7587 27.1815 57.7269 27.2465 57.6924 27.3099C57.7269 27.2465 57.7587 27.1815 57.791 27.1166ZM57.915 26.8519C57.8934 26.9012 57.8725 26.9508 57.8496 26.9994C57.8725 26.9508 57.8934 26.9012 57.915 26.8519ZM39.7617 26.3744C39.8324 26.3994 39.9001 26.4312 39.9639 26.4691C39.9 26.4313 39.8325 26.3994 39.7617 26.3744ZM39.3066 26.3129C39.2268 26.3184 39.1456 26.3326 39.0635 26.3558L39.0625 26.3549C39.1448 26.3315 39.2266 26.3184 39.3066 26.3129ZM46.0703 25.7006C46.0939 25.7554 46.112 25.8136 46.125 25.8754C46.112 25.8136 46.0939 25.7554 46.0703 25.7006ZM47.0107 56.9076C46.9487 56.9534 46.8877 57.001 46.8262 57.0482C46.8877 57.001 46.9487 56.9534 47.0107 56.9076ZM43.8232 48.0433C43.8225 48.0176 43.8223 47.9919 43.8232 47.9662C43.8223 47.9919 43.8225 48.0176 43.8232 48.0433ZM40.0479 41.639C40.0234 41.5937 39.9987 41.5484 39.9756 41.5023C39.9987 41.5484 40.0234 41.5937 40.0479 41.639ZM39.5811 40.4154C39.5819 40.4189 39.5822 40.4226 39.583 40.4261C39.5822 40.4226 39.5819 40.4189 39.5811 40.4154ZM39.7646 41.0179C39.7462 40.9687 39.7279 40.9194 39.7109 40.8695C39.7278 40.9194 39.7462 40.9687 39.7646 41.0179ZM39.5586 40.309C39.5509 40.2725 39.5421 40.2363 39.5352 40.1996C39.5421 40.2363 39.5509 40.2725 39.5586 40.309ZM52.5557 38.0922C52.5547 38.0645 52.5546 38.0368 52.5557 38.0092C52.5546 38.0368 52.5547 38.0645 52.5557 38.0922ZM26.6924 37.7455C26.6017 37.8014 26.5092 37.8551 26.415 37.9066C26.5092 37.8551 26.6017 37.8014 26.6924 37.7455ZM29.2764 34.4906C29.2434 34.5864 29.209 34.6813 29.1719 34.7748C29.209 34.6813 29.2434 34.5864 29.2764 34.4906ZM29.1416 34.8451C29.1059 34.9319 29.0695 35.0182 29.0303 35.1029C29.0695 35.0182 29.1059 34.9319 29.1416 34.8451ZM38.7441 28.4486C38.7214 28.4339 38.6994 28.418 38.6777 28.4017C38.6994 28.418 38.7214 28.4339 38.7441 28.4486ZM38.209 27.5121C38.208 27.4844 38.2079 27.4567 38.209 27.4291C38.208 27.4567 38.208 27.4844 38.209 27.5121Z" fill="white"/>
<defs>
<linearGradient id="paint0_linear_12151_195681" x1="44.9987" y1="79.7882" x2="44.9987" y2="10.2123" gradientUnits="userSpaceOnUse">
<stop stop-color="#F0A324"/>
<stop offset="1" stop-color="#995E00"/>
</linearGradient>
<linearGradient id="paint1_linear_12151_195681" x1="0" y1="22.5" x2="45" y2="22.5" gradientUnits="userSpaceOnUse">
<stop stop-color="#F5D36C"/>
<stop offset="1" stop-color="#FFF5B0"/>
</linearGradient>
<linearGradient id="paint2_linear_12151_195681" x1="45" y1="22.5" x2="90" y2="22.5" gradientUnits="userSpaceOnUse">
<stop stop-color="#FFDD6E"/>
<stop offset="1" stop-color="#D69705"/>
</linearGradient>
<linearGradient id="paint3_linear_12151_195681" x1="45" y1="67.5" x2="90" y2="67.5" gradientUnits="userSpaceOnUse">
<stop stop-color="#6B4200"/>
<stop offset="1" stop-color="#A87219"/>
</linearGradient>
<linearGradient id="paint4_linear_12151_195681" x1="0" y1="67.5" x2="45" y2="67.5" gradientUnits="userSpaceOnUse">
<stop stop-color="#A36808"/>
<stop offset="1" stop-color="#BF8800"/>
</linearGradient>
<radialGradient id="paint5_radial_12151_195681" cx="0" cy="0" r="1" gradientUnits="userSpaceOnUse" gradientTransform="translate(44.9989 45.0003) scale(31.8582 31.8582)">
<stop stop-color="#361C0B"/>
<stop offset="0.40879" stop-color="#381E0C"/>
<stop offset="0.64721" stop-color="#402412"/>
<stop offset="0.84125" stop-color="#4E301C"/>
<stop offset="1" stop-color="#614029"/>
</radialGradient>
<linearGradient id="paint6_linear_12151_195681" x1="27.6061" y1="27.6061" x2="20.3409" y2="20.3409" gradientUnits="userSpaceOnUse">
<stop stop-color="white"/>
<stop offset="0.12346" stop-color="#FAFAFA"/>
<stop offset="0.24872" stop-color="#EEEEEE"/>
<stop offset="0.37493" stop-color="#DADADA"/>
<stop offset="0.50179" stop-color="#BDBDBD"/>
<stop offset="0.62919" stop-color="#999999"/>
<stop offset="0.75704" stop-color="#6B6B6B"/>
<stop offset="0.88276" stop-color="#373737"/>
<stop offset="1"/>
</linearGradient>
<linearGradient id="paint7_linear_12151_195681" x1="69.5975" y1="69.5992" x2="50.2688" y2="50.2705" gradientUnits="userSpaceOnUse">
<stop stop-color="#FFF0B0"/>
<stop offset="1"/>
</linearGradient>
<radialGradient id="paint8_radial_12151_195681" cx="0" cy="0" r="1" gradientUnits="userSpaceOnUse" gradientTransform="translate(34.8081 36.2958) scale(43.4593)">
<stop stop-color="#DE5634"/>
<stop offset="0.0507" stop-color="#DA5131"/>
<stop offset="0.38747" stop-color="#C53324"/>
<stop offset="0.57993" stop-color="#BD291F"/>
<stop offset="0.65283" stop-color="#B6271D"/>
<stop offset="0.75163" stop-color="#A5221B"/>
<stop offset="0.86525" stop-color="#891A16"/>
<stop offset="0.98911" stop-color="#61100F"/>
<stop offset="1" stop-color="#5E0F0F"/>
</radialGradient>
<radialGradient id="paint9_radial_12151_195681" cx="0" cy="0" r="1" gradientUnits="userSpaceOnUse" gradientTransform="translate(24.8852 22.54) scale(52.9011 52.9011)">
<stop stop-color="#DE5634"/>
<stop offset="1"/>
</radialGradient>
<radialGradient id="paint10_radial_12151_195681" cx="0" cy="0" r="1" gradientUnits="userSpaceOnUse" gradientTransform="translate(13.7047 11.6308) scale(52.2193 52.2193)">
<stop stop-color="#DE5634"/>
<stop offset="1"/>
</radialGradient>
<radialGradient id="paint11_radial_12151_195681" cx="0" cy="0" r="1" gradientUnits="userSpaceOnUse" gradientTransform="translate(46.7458 39.5231) scale(50.157 50.157)">
<stop stop-color="#DE5634"/>
<stop offset="1"/>
</radialGradient>
<clipPath id="clip0_12151_195681">
<rect width="90" height="90" fill="white"/>
</clipPath>
</defs>
</svg>
