<svg width="90" height="90" viewBox="0 0 90 90" fill="none" xmlns="http://www.w3.org/2000/svg">
<g clip-path="url(#clip0_12151_195652)">
<path fill-rule="evenodd" clip-rule="evenodd" d="M44.9987 10.2123C64.2114 10.2123 79.7864 25.7877 79.7864 45C79.7864 64.2123 64.2114 79.7882 44.9987 79.7882C25.786 79.7882 10.2109 64.2131 10.2109 45C10.2109 25.7869 25.786 10.2123 44.9987 10.2123Z" fill="url(#paint0_linear_12151_195652)"/>
<path fill-rule="evenodd" clip-rule="evenodd" d="M10.2123 45C10.2123 25.7877 25.7873 10.2123 45 10.2123V0C43.0783 2.25386 39.3055 4.87411 35.0043 5.97288C27.8976 7.78773 21.5471 11.4921 16.5194 16.5194C11.4921 21.5471 7.78773 27.8976 5.97288 35.0043C4.87411 39.3055 2.25386 43.0783 0 45H10.2123Z" fill="url(#paint1_linear_12151_195652)"/>
<path fill-rule="evenodd" clip-rule="evenodd" d="M45 10.2123C64.2127 10.2123 79.7877 25.7877 79.7877 45H90C87.7466 43.0783 85.1259 39.3055 84.0275 35.0043C82.2127 27.8976 78.5083 21.5471 73.4806 16.5194C68.4533 11.4921 62.1028 7.78773 54.9961 5.97288C50.6945 4.87411 46.9217 2.25386 45 0V10.2123Z" fill="url(#paint2_linear_12151_195652)"/>
<path fill-rule="evenodd" clip-rule="evenodd" d="M79.7877 45C79.7877 64.2131 64.2127 79.7882 45 79.7882V90C46.9217 87.7466 50.6945 85.1259 54.9961 84.0275C62.1028 82.2127 68.4533 78.5083 73.481 73.4806C78.5083 68.4533 82.2127 62.1028 84.0275 54.9961C85.1259 50.6945 87.7466 46.9217 90 45H79.7877Z" fill="url(#paint3_linear_12151_195652)"/>
<path fill-rule="evenodd" clip-rule="evenodd" d="M45 79.7882C25.7873 79.7882 10.2123 64.2131 10.2123 45H0C2.25386 46.9217 4.87411 50.6945 5.97288 54.9961C7.78773 62.1028 11.4921 68.4533 16.5194 73.481C21.5471 78.5083 27.8976 82.2127 35.0043 84.0275C39.3055 85.1259 43.0783 87.7466 45 90V79.7882Z" fill="url(#paint4_linear_12151_195652)"/>
<path fill-rule="evenodd" clip-rule="evenodd" d="M44.9989 13.1422C62.5937 13.1422 76.8571 27.4057 76.8571 45C76.8571 62.5944 62.5937 76.8583 44.9989 76.8583C27.4041 76.8583 13.1406 62.5948 13.1406 45C13.1406 27.4053 27.4041 13.1422 44.9989 13.1422Z" fill="url(#paint5_radial_12151_195652)"/>
<path fill-rule="evenodd" clip-rule="evenodd" d="M18.9147 21.9836C13.499 28.1167 10.2123 36.1749 10.2123 45H1.33203C5.99916 45 7.74266 42.3651 9.93684 36.5796C13.7372 26.5597 17.5209 22.8608 18.9147 21.9836ZM21.9836 18.9147C28.1167 13.499 36.1749 10.2123 45 10.2123V1.33203C45 5.99916 42.3651 7.74308 36.5792 9.93726C26.5597 13.7372 22.8608 17.5213 21.9836 18.9147Z" fill="url(#paint6_linear_12151_195652)" style="mix-blend-mode:screen"/>
<path fill-rule="evenodd" clip-rule="evenodd" d="M68.7345 68.7355C57.2152 80.2543 39.6918 82.1097 26.2383 74.3011C31.6511 77.7739 38.0901 79.7882 44.999 79.7882C64.2117 79.7882 79.7868 64.2131 79.7868 45C79.7868 38.0916 77.7728 31.6538 74.3005 26.241C82.1082 39.6936 80.2529 57.2166 68.7345 68.7355Z" fill="url(#paint7_linear_12151_195652)" style="mix-blend-mode:screen"/>
<path fill-rule="evenodd" clip-rule="evenodd" d="M44.9985 13.1422C62.5937 13.1422 76.8567 27.4061 76.8567 45.0005C76.8567 62.5948 62.5937 76.8583 44.9985 76.8583C27.4032 76.8583 13.1406 62.5953 13.1406 45.0005C13.1406 27.4057 27.4037 13.1422 44.9985 13.1422Z" fill="url(#paint8_radial_12151_195652)"/>
<path fill-rule="evenodd" clip-rule="evenodd" d="M41.4453 17.3115C54.8854 17.3115 65.7804 28.2078 65.7804 41.647C65.7804 55.0872 54.8854 65.9834 41.4453 65.9834C28.0052 65.9834 17.1094 55.0872 17.1094 41.647C17.1094 28.2078 28.0048 17.3115 41.4453 17.3115Z" fill="url(#paint9_radial_12151_195652)" style="mix-blend-mode:screen"/>
<path fill-rule="evenodd" clip-rule="evenodd" d="M26.7494 25.9489C33.8891 18.8097 44.1022 17.4467 49.5609 22.9063C55.0201 28.3655 53.6576 38.5782 46.518 45.7178C39.3783 52.8575 29.1648 54.22 23.706 48.7608C18.2468 43.3021 19.6098 33.089 26.7494 25.9489Z" fill="url(#paint10_radial_12151_195652)" style="mix-blend-mode:screen"/>
<path opacity="0.5" fill-rule="evenodd" clip-rule="evenodd" d="M59.3966 19.2419C67.6242 24.4378 73.09 33.6093 73.09 44.0603C73.09 60.2596 59.9587 73.3918 43.7594 73.3918C39.3593 73.3918 35.1875 72.4207 31.4414 70.6851C33.707 71.2255 36.0697 71.5131 38.4993 71.5131C55.2415 71.5131 68.8123 57.9423 68.8123 41.2005C68.8123 32.5602 65.1967 24.7641 59.3966 19.2419Z" fill="url(#paint11_radial_12151_195652)" style="mix-blend-mode:screen"/>
</g>
<path d="M63.9192 32.3194V33.7197C63.5372 37.0021 61.3122 39.7688 58.1328 40.6526C54.751 41.5925 51.2902 40.2708 49.3479 37.432L42.2322 41.2335C43.2644 43.6738 43.2713 46.3243 42.2306 48.7729L49.356 52.5761C51.4438 49.4705 55.3821 48.2407 58.8592 49.5957C59.2882 49.7629 59.4371 50.228 59.3118 50.5708C59.1515 51.0095 58.6924 51.1972 58.2475 51.03C55.7204 50.0801 52.9196 50.7954 51.1582 52.7866C49.3883 54.7873 49.0438 57.7589 50.4292 60.1573C50.9467 58.9135 51.8943 58.1169 53.1624 57.8137C52.7159 57.1198 52.7041 56.4122 52.6904 55.654C52.6565 53.7847 54.0944 52.2685 55.9278 52.2492C57.7983 52.2296 59.2695 53.7555 59.2397 55.6543C59.2277 56.4153 59.2066 57.1235 58.7691 57.8174C60.0373 58.1193 60.985 58.9167 61.4953 60.1554C62.5031 58.4319 62.5939 56.4376 61.9126 54.6354C61.7583 54.2272 61.9453 53.819 62.2624 53.654C63.574 52.9718 63.7179 55.6058 63.9192 56.2022V57.6802C63.4759 61.5411 60.6058 64.4099 56.7458 64.9151H55.1864C52.766 64.5974 50.6094 63.3005 49.3436 61.3742C47.8439 59.092 47.6349 56.4144 48.6114 53.9437L41.4951 50.1437C38.7331 54.4118 33.1124 55.7273 28.749 53.21C24.3519 50.6732 22.7198 45.1554 25.0817 40.6008C25.2888 40.2015 25.6868 39.9942 26.1012 40.159C26.4914 40.3142 26.7352 40.8027 26.51 41.2305C25.2496 43.6257 25.2682 46.4451 26.5498 48.822C27.1562 47.1901 28.5112 46.1539 30.2504 45.8453C29.6103 45.0121 29.5312 44.1145 29.4723 43.1297C29.3378 40.8787 30.8916 38.8613 33.196 38.6797C35.7121 38.4815 37.6724 40.5852 37.5457 43.0524C37.4936 44.0653 37.4261 44.9888 36.7672 45.8461C38.5106 46.1532 39.859 47.1917 40.4749 48.8295C42.2016 45.6635 41.609 41.7194 38.9644 39.2378C36.4683 36.8956 32.7523 36.4224 29.729 38.0139C29.3199 38.2292 28.8542 38.0283 28.6753 37.6554C28.5266 37.3455 28.603 36.8678 28.9598 36.6747C33.3537 34.2967 38.798 35.6876 41.4937 39.8616L48.6202 36.0577C47.8288 34.1128 47.8081 32.0062 48.5862 30.0922C48.7516 29.6856 49.2196 29.5664 49.5366 29.6835C49.9368 29.8312 50.1684 30.2545 50.0119 30.677C49.3423 32.4854 49.4203 34.4714 50.4364 36.1949C50.9378 34.9567 51.894 34.16 53.1606 33.8568C52.7346 33.1862 52.7114 32.5053 52.6877 31.7738C52.6261 29.8729 54.0535 28.3125 55.9261 28.2899C57.796 28.2674 59.2664 29.7924 59.2412 31.6948C59.231 32.4699 59.1889 33.1816 58.7737 33.8659C60.0387 34.1543 60.9596 34.9389 61.494 36.1821C62.8724 33.8621 62.5545 30.8772 60.8054 28.8663C59.0497 26.8478 56.2224 26.1072 53.6834 27.0739C53.2298 27.2466 52.7697 27.0745 52.6061 26.6947C52.4148 26.2507 52.6183 25.8113 53.0914 25.6278C55.5172 24.6872 58.1931 24.9635 60.4526 26.4761C62.3697 27.7595 63.6219 29.9222 63.9192 32.3194ZM57.7105 31.8119C57.6974 30.6968 57.0097 29.821 55.928 29.8419C54.8281 29.8632 54.2269 30.7845 54.2195 31.8524C54.2119 32.9574 54.8644 33.9103 56.0034 33.8847C57.0983 33.8601 57.7237 32.9419 57.7105 31.8119ZM58.4654 35.3859L57.3832 35.1177C56.4677 35.5571 55.4633 35.5575 54.5488 35.1195L53.4997 35.3737C52.3551 35.6511 51.6521 36.6389 51.7868 37.8465C54.1597 39.8972 57.7073 39.9271 60.1199 37.8647C60.3046 36.7239 59.6268 35.6737 58.4654 35.3859ZM35.9628 43.5541C35.9714 43.2234 35.9726 42.9017 35.9578 42.5701C35.8975 41.2226 34.7875 40.207 33.4743 40.2239C32.2046 40.2403 31.1225 41.2381 31.0611 42.5567C31.0455 42.891 31.0464 43.2175 31.0549 43.5543C31.0897 44.9237 32.208 45.9769 33.5471 45.9568C34.8481 45.9373 35.9279 44.8982 35.9628 43.5541ZM36.917 47.4806L35.3672 47.0704C34.1793 47.6608 32.8413 47.6703 31.6518 47.0667L30.0164 47.5103C28.6422 47.8831 27.7551 49.1652 27.8417 50.5616C30.962 53.7179 36.0554 53.7158 39.174 50.5641C39.2654 49.135 38.3498 47.8598 36.917 47.4806ZM57.7105 55.7725C57.6971 54.6578 57.0093 53.779 55.9281 53.7999C54.8288 53.8212 54.227 54.7456 54.2195 55.813C54.2118 56.9168 54.8657 57.8703 56.0034 57.8447C57.0971 57.8202 57.724 56.9013 57.7105 55.7725ZM58.4654 59.346L57.3838 59.0788C56.465 59.5113 55.4674 59.5242 54.5452 59.0735L53.3229 59.3951C52.2428 59.6793 51.64 60.7461 51.803 61.8215C54.2157 63.8667 57.7134 63.861 60.1209 61.8243C60.3029 60.6829 59.628 59.6333 58.4654 59.346Z" fill="white"/>
<path d="M27.0311 38.1329C27.4677 37.953 27.8917 38.1818 28.0465 38.5709C28.1925 38.9381 28.018 39.3915 27.6199 39.5523C27.2533 39.7004 26.8308 39.5455 26.6476 39.1958C26.4536 38.8256 26.5747 38.321 27.0311 38.1329Z" fill="white"/>
<path d="M50.6606 27.2304C51.1068 27.0895 51.5044 27.3626 51.6206 27.7408C51.7427 28.1386 51.5151 28.5665 51.1158 28.6916C50.7297 28.8126 50.3267 28.6121 50.1761 28.2504C50.0135 27.8596 50.1915 27.3786 50.6606 27.2304Z" fill="white"/>
<path d="M60.7997 51.1932C61.2409 51.0475 61.6478 51.3075 61.7709 51.6836C61.9015 52.0826 61.6859 52.5206 61.2566 52.6527C60.8968 52.7634 60.4826 52.586 60.3249 52.2033C60.1733 51.8354 60.3336 51.3472 60.7997 51.1932Z" fill="white"/>
<defs>
<linearGradient id="paint0_linear_12151_195652" x1="44.9987" y1="79.7882" x2="44.9987" y2="10.2123" gradientUnits="userSpaceOnUse">
<stop stop-color="#F0A324"/>
<stop offset="1" stop-color="#995E00"/>
</linearGradient>
<linearGradient id="paint1_linear_12151_195652" x1="0" y1="22.5" x2="45" y2="22.5" gradientUnits="userSpaceOnUse">
<stop stop-color="#F5D36C"/>
<stop offset="1" stop-color="#FFF5B0"/>
</linearGradient>
<linearGradient id="paint2_linear_12151_195652" x1="45" y1="22.5" x2="90" y2="22.5" gradientUnits="userSpaceOnUse">
<stop stop-color="#FFDD6E"/>
<stop offset="1" stop-color="#D69705"/>
</linearGradient>
<linearGradient id="paint3_linear_12151_195652" x1="45" y1="67.5" x2="90" y2="67.5" gradientUnits="userSpaceOnUse">
<stop stop-color="#6B4200"/>
<stop offset="1" stop-color="#A87219"/>
</linearGradient>
<linearGradient id="paint4_linear_12151_195652" x1="0" y1="67.5" x2="45" y2="67.5" gradientUnits="userSpaceOnUse">
<stop stop-color="#A36808"/>
<stop offset="1" stop-color="#BF8800"/>
</linearGradient>
<radialGradient id="paint5_radial_12151_195652" cx="0" cy="0" r="1" gradientUnits="userSpaceOnUse" gradientTransform="translate(44.9989 45.0003) scale(31.8582 31.8582)">
<stop stop-color="#361C0B"/>
<stop offset="0.40879" stop-color="#381E0C"/>
<stop offset="0.64721" stop-color="#402412"/>
<stop offset="0.84125" stop-color="#4E301C"/>
<stop offset="1" stop-color="#614029"/>
</radialGradient>
<linearGradient id="paint6_linear_12151_195652" x1="27.6061" y1="27.6061" x2="20.3409" y2="20.3409" gradientUnits="userSpaceOnUse">
<stop stop-color="white"/>
<stop offset="0.12346" stop-color="#FAFAFA"/>
<stop offset="0.24872" stop-color="#EEEEEE"/>
<stop offset="0.37493" stop-color="#DADADA"/>
<stop offset="0.50179" stop-color="#BDBDBD"/>
<stop offset="0.62919" stop-color="#999999"/>
<stop offset="0.75704" stop-color="#6B6B6B"/>
<stop offset="0.88276" stop-color="#373737"/>
<stop offset="1"/>
</linearGradient>
<linearGradient id="paint7_linear_12151_195652" x1="69.5975" y1="69.5992" x2="50.2688" y2="50.2705" gradientUnits="userSpaceOnUse">
<stop stop-color="#FFF0B0"/>
<stop offset="1"/>
</linearGradient>
<radialGradient id="paint8_radial_12151_195652" cx="0" cy="0" r="1" gradientUnits="userSpaceOnUse" gradientTransform="translate(34.8081 36.2958) scale(43.4593)">
<stop stop-color="#DE5634"/>
<stop offset="0.0507" stop-color="#DA5131"/>
<stop offset="0.38747" stop-color="#C53324"/>
<stop offset="0.57993" stop-color="#BD291F"/>
<stop offset="0.65283" stop-color="#B6271D"/>
<stop offset="0.75163" stop-color="#A5221B"/>
<stop offset="0.86525" stop-color="#891A16"/>
<stop offset="0.98911" stop-color="#61100F"/>
<stop offset="1" stop-color="#5E0F0F"/>
</radialGradient>
<radialGradient id="paint9_radial_12151_195652" cx="0" cy="0" r="1" gradientUnits="userSpaceOnUse" gradientTransform="translate(24.8852 22.54) scale(52.9011 52.9011)">
<stop stop-color="#DE5634"/>
<stop offset="1"/>
</radialGradient>
<radialGradient id="paint10_radial_12151_195652" cx="0" cy="0" r="1" gradientUnits="userSpaceOnUse" gradientTransform="translate(13.7047 11.6308) scale(52.2193 52.2193)">
<stop stop-color="#DE5634"/>
<stop offset="1"/>
</radialGradient>
<radialGradient id="paint11_radial_12151_195652" cx="0" cy="0" r="1" gradientUnits="userSpaceOnUse" gradientTransform="translate(46.7458 39.5231) scale(50.157 50.157)">
<stop stop-color="#DE5634"/>
<stop offset="1"/>
</radialGradient>
<clipPath id="clip0_12151_195652">
<rect width="90" height="90" fill="white"/>
</clipPath>
</defs>
</svg>
